<?xml version="1.0" encoding="UTF-8" standalone="no"?>
<!DOCTYPE svg PUBLIC "-//W3C//DTD SVG 1.1//EN" "http://www.w3.org/Graphics/SVG/1.1/DTD/svg11.dtd">
<svg width="100%" height="100%" viewBox="0 0 870 600" version="1.1" xmlns="http://www.w3.org/2000/svg" xmlns:xlink="http://www.w3.org/1999/xlink" xml:space="preserve" xmlns:serif="http://www.serif.com/" style="fill-rule:evenodd;clip-rule:evenodd;stroke-linejoin:round;stroke-miterlimit:2;">
    <g transform="matrix(1.06078,0,0,1.06078,703.202,289.768)">
        <path d="M0,-7.935C3.104,2.339 5.663,14.753 6.251,27.688C7.021,44.618 0.475,54.585 -10.529,60.254C-10.681,58.699 -11.523,57.16 -11.666,55.56C-11.763,54.488 -11.438,53.49 -11.524,52.29C-11.694,49.917 -12.161,47.354 -12.805,45.037C-13.003,44.318 -13.438,43.648 -13.657,42.904C-15.289,37.366 -16.379,31.2 -16.786,25.129C-17.036,21.394 -18.396,17.777 -19.061,14.179C-19.723,10.599 -20.384,7.02 -22.332,4.367C-21.19,3.802 -19.171,4.114 -18.351,3.229C-18.549,-3.114 -18.278,-9.926 -20.057,-14.689C-20.002,-15.06 -19.983,-15.47 -19.771,-15.685C-20.74,-19.693 -20.955,-24.456 -23.043,-27.346C-21.228,-27.948 -19.492,-28.63 -18.492,-30.047C-16.973,-29.861 -15.795,-29.332 -14.084,-29.336C-13.521,-27.718 -12.349,-26.71 -10.529,-26.35C-10.593,-25.954 -10.124,-25.416 -9.306,-24.979L-10.026,-12.789C-10.053,-12.348 -9.717,-11.97 -9.277,-11.944L-3.022,-11.574C-3.04,-9.698 -1.733,-8.122 0,-7.935M-69.402,56.699C-77.881,52.809 -71.943,35.177 -70.397,27.403C-69.257,30.015 -67.877,34.131 -66.415,36.931C-65.901,37.917 -65.142,38.91 -64.852,39.776C-64.399,41.121 -64.384,42.883 -64.141,44.326C-63.411,48.646 -62.47,52.751 -61.438,57.126C-64.335,57.437 -67.173,57.72 -69.402,56.699M-73.384,-1.606C-73.343,-1.352 -73.518,-1.314 -73.526,-1.464C-73.749,-5.814 -74.377,-11.164 -74.806,-15.969C-74.888,-16.896 -75.187,-19.289 -75.396,-21.412C-74.441,-22.325 -73.503,-23.336 -72.59,-24.434C-71.482,-23.669 -70.319,-22.98 -69.545,-23.08L-69.545,-20.946C-70.521,-20.596 -71.408,-20.155 -72.104,-19.524C-72.748,-13.769 -73.001,-7.623 -73.384,-1.606M-78.542,-108.024C-78.624,-109.369 -78.388,-110.378 -78.085,-111.3C-77.754,-112.306 -77.353,-113.213 -76.582,-114.139C-75.991,-114.847 -75.263,-115.588 -74.544,-116.571L-78.542,-108.024ZM-80.494,-125.183C-80.432,-125.161 -80.368,-125.143 -80.306,-125.122L-73.082,-121.744C-73.552,-121.028 -74.113,-120.19 -74.379,-119.779C-76.922,-121.002 -81.567,-120.808 -80.494,-125.183M-71.364,-120.94L-68.741,-119.713L-69.14,-118.86L-71.771,-120.09C-71.614,-120.382 -71.455,-120.692 -71.364,-120.94M-66.415,27.688C-67.374,25.66 -67.944,23.244 -68.833,21.147C-68.529,19.744 -68.243,18.323 -67.979,16.882C-66.678,19.702 -66.682,23.831 -66.415,27.688M-64.852,-136.702C-65.147,-135.36 -66.562,-134.243 -67.541,-133.035L-71.561,-134.914C-69.212,-135.156 -67.149,-136.242 -64.852,-136.702M-205.3,36.454C-204.944,32.529 -205.47,28.46 -204.633,25.345C-202.12,23.845 -199.731,22.241 -197.471,20.524C-198.482,28.699 -199.513,36.854 -200.543,44.889C-201.207,50.076 -201.868,55.285 -202.531,60.514C-203.095,60.341 -203.627,60.17 -203.967,59.895C-203.991,58.197 -203.574,56.773 -203.411,55.341C-203.239,53.839 -202.808,52.145 -203.078,50.563C-203.294,49.298 -204.386,47.958 -204.967,46.675C-205.571,45.338 -206.587,43.677 -206.633,42.454C-206.695,40.754 -205.498,38.653 -205.3,36.454M-220.63,124.552C-220.758,126.459 -222.205,128.81 -222.63,130.884C-222.768,131.558 -222.708,132.314 -222.853,132.996C-223.205,134.672 -223.746,136.369 -224.075,138.105C-224.419,139.934 -224.536,141.841 -224.963,143.438C-225.411,145.109 -226.496,146.661 -227.185,148.215C-227.927,149.887 -228.991,151.293 -229.629,152.77C-229.807,153.181 -229.783,153.703 -229.962,154.103C-230.68,155.708 -232.301,157.129 -232.851,158.657C-232.681,157.156 -232.446,155.35 -232.962,153.992C-233.35,152.973 -234.182,152.363 -234.63,151.438C-234.763,151.158 -234.641,150.799 -234.739,150.548C-234.978,149.935 -235.569,149.771 -235.739,149.214C-235.623,148.725 -235.151,148.168 -235.183,147.66C-235.228,146.972 -235.982,146.698 -236.183,145.994C-236.286,145.638 -236.177,144.84 -236.295,144.216C-236.412,143.597 -236.669,143.231 -236.628,142.773C-236.578,142.217 -235.958,141.684 -235.85,141.105C-235.669,140.127 -236.186,138.788 -236.405,137.439C-237.128,133.024 -236.938,127.863 -236.628,122.996C-236.42,122.649 -235.768,122.747 -235.628,122.331C-236.413,119.85 -235.795,116.155 -235.628,112.665C-235.461,109.154 -235.197,106.061 -235.183,102.445C-235.006,101.993 -234.288,102.083 -233.851,101.888C-233.688,101.18 -232.597,100.443 -232.295,99.444C-232.139,98.926 -232.232,98.176 -232.073,97.445C-231.468,94.666 -228.862,90.949 -232.185,89.224C-230.193,84.601 -232.442,80.798 -234.072,76.559C-235.336,73.275 -236.019,69.298 -238.517,67.672C-239.498,67.033 -241.059,66.729 -241.96,66.338C-242.126,62.623 -240.39,59.437 -241.072,56.119C-241.346,54.788 -242.455,53.32 -243.071,52.008C-243.773,50.516 -244.169,49.117 -244.848,47.785C-243.7,43.823 -243.021,39.392 -243.294,34.011C-241.241,34.181 -239.121,34.282 -236.851,34.232C-235.326,42.538 -234.285,51.86 -231.518,59.229C-230.524,61.873 -229.46,64.101 -229.296,67.005C-229.229,68.187 -229.36,69.038 -229.296,70.005C-229.183,71.683 -228.454,73.553 -228.741,75.337C-228.979,76.829 -230.593,77.796 -229.74,80.003C-229.277,81.2 -228.147,81.561 -227.407,82.669C-229.437,83.425 -229.631,87.827 -228.185,89.78C-227.217,91.086 -225.558,91.841 -224.186,92.113C-221.808,96.246 -222.621,103.628 -222.297,109.554C-222.161,112.043 -221.636,114.477 -222.964,116.219C-222.392,116.76 -221.997,117.475 -221.075,117.665C-221.973,119.888 -220.467,122.114 -220.63,124.552M-307.826,-12.96C-310.747,-12.894 -310.912,-18.647 -308.319,-19.237C-304.805,-20.035 -304.916,-13.026 -307.826,-12.96M-326.656,-7.053C-330.16,-7.341 -330.765,-12.925 -327.025,-13.575C-327.02,-13.576 -326.989,-13.689 -326.902,-13.699C-322.26,-14.213 -322.271,-6.693 -326.656,-7.053M-376.648,-70.256C-376.546,-69.115 -376.423,-67.989 -376.621,-67.109C-376.763,-66.472 -377.623,-65.367 -378.097,-64.525C-378.73,-63.401 -379.319,-62.32 -379.888,-61.263C-380.123,-61.309 -380.361,-61.356 -380.616,-61.405L-381.207,-69.484C-379.218,-69.772 -377.642,-70.038 -376.648,-70.256M-361.853,-16.775C-361.597,-17.326 -361.609,-17.907 -361.36,-18.498C-360.777,-19.887 -360.027,-20.901 -359.882,-22.56C-359.623,-25.554 -360.105,-28.852 -359.513,-32.896C-358.895,-32.287 -359.398,-31.244 -359.145,-30.435C-358.951,-29.817 -358.236,-29.293 -358.037,-28.589C-357.85,-27.927 -357.992,-27.1 -357.791,-26.621C-357.361,-25.593 -356.119,-25.558 -355.453,-24.898C-355.468,-22.833 -355.946,-19.76 -355.822,-17.021C-355.785,-16.208 -355.404,-15.039 -355.576,-14.314C-355.782,-13.443 -357.193,-12.465 -357.667,-11.483C-358.735,-9.283 -359.232,-5.936 -359.882,-2.869C-360.589,0.455 -361.189,3.86 -361.722,7.309C-361.902,6.651 -362.039,6.157 -362.106,5.91C-362.557,4.253 -363.712,3.952 -363.712,3.952L-365.971,3.449L-366.574,0.89C-366.574,0.89 -362.005,-1.169 -362.005,-1.57C-362.005,-1.731 -363.073,-7.174 -364.376,-13.753C-363.228,-14.771 -362.282,-15.849 -361.853,-16.775M-346.468,-18.621C-342.912,-19.31 -342.473,-12.549 -345.977,-12.468C-349.109,-12.394 -349.447,-18.045 -346.468,-18.621M13.789,-135.706C13.9,-136.207 14.456,-135.275 14.499,-135.706C14.305,-137.63 12.343,-137.633 11.513,-138.834C11.299,-139.145 11.003,-140.847 11.177,-140.63C10.953,-141.004 10.384,-141.492 10.091,-141.963C9.275,-143.276 9.323,-144.274 7.673,-144.38C7.63,-145.04 7.675,-145.611 7.958,-145.945C6.146,-144.409 3.144,-145.307 0.137,-145.092C-2.02,-144.937 -4.081,-143.55 -5.552,-143.527C-6.884,-143.507 -8.435,-144.91 -9.676,-143.811C-9.415,-143.456 -8.333,-143.922 -8.538,-143.101C-8.731,-142.566 -9.398,-141.911 -10.103,-141.537C-10.897,-141.113 -11.9,-141.169 -12.52,-140.541C-13.551,-139.494 -14.039,-137.876 -13.941,-136.132C-15.59,-134.273 -17.107,-132.283 -17.924,-129.591C-18.155,-128.695 -17.228,-128.96 -17.212,-128.311C-18.093,-126.865 -17.408,-125.519 -17.497,-124.187C-17.53,-123.69 -17.841,-123.3 -17.924,-122.765C-18.222,-120.831 -17.542,-118.899 -16.929,-117.361C-16.497,-116.282 -15.757,-115.342 -15.363,-114.375C-14.396,-111.991 -15.33,-110.376 -16.075,-108.402C-16.729,-108.217 -17.128,-109.405 -17.781,-109.682C-18.934,-109.668 -19.087,-110.652 -19.771,-111.104C-22.304,-110.791 -23.569,-109.662 -24.892,-107.691C-25.132,-107.424 -25.497,-107.189 -25.95,-106.983L-30.672,-109.191L-28.646,-113.522L-28.307,-114.246C-28.213,-114.446 -28.301,-114.684 -28.5,-114.777L-53.493,-126.465L-53.269,-126.945C-53.175,-127.145 -53.262,-127.383 -53.462,-127.476L-55.446,-128.405L-54.944,-129.479C-54.851,-129.679 -54.937,-129.917 -55.137,-130.011L-59.676,-132.133C-59.876,-132.227 -60.113,-132.141 -60.207,-131.941L-60.709,-130.866L-62.694,-131.794C-62.895,-131.888 -63.132,-131.801 -63.225,-131.602L-63.45,-131.122L-66.147,-132.383C-65.301,-133.843 -62.955,-135.328 -63.146,-136.986C-63.361,-138.872 -65.925,-138.018 -67.269,-137.555C-70.137,-136.564 -72.868,-135.456 -75.517,-136.986C-75.559,-137.083 -75.61,-137.171 -75.661,-137.258L-75.298,-138.035L-78.428,-139.498L-78.954,-138.373L-79.979,-138.852C-80.178,-138.945 -80.416,-138.859 -80.51,-138.659L-80.848,-137.935L-85.159,-128.715L-85.498,-127.991C-85.592,-127.791 -85.506,-127.554 -85.306,-127.46L-83.214,-126.482L-92.66,-106.285L-91.664,-105.819L-82.219,-126.017L-81.616,-125.735L-81.631,-125.609C-82.974,-120.863 -78.271,-119.932 -74.947,-118.925C-76.037,-116.193 -78.221,-114.675 -79.214,-111.673C-79.857,-109.727 -79.581,-107.257 -79.845,-105.239L-80.992,-102.786C-81.776,-103.29 -82.8,-103.879 -83.335,-103.895C-84.274,-103.923 -88.216,-98.832 -89.404,-95.921C-90.091,-94.24 -90.228,-92.126 -90.546,-89.659C-91.005,-93.198 -91.772,-96.435 -93.578,-99.123C-93.117,-101.353 -94.645,-102.668 -96.188,-103.993C-99.067,-106.462 -104.154,-107.503 -107.842,-109.037C-113.143,-111.242 -118.622,-113.559 -120.973,-118.081C-121.481,-119.059 -121.798,-120.606 -121.929,-121.994C-122.059,-123.362 -122.253,-125.127 -121.756,-126.516C-121.516,-127.184 -120.755,-127.785 -120.364,-128.342C-119.087,-130.155 -118.077,-132.319 -117.755,-135.125C-117.548,-136.936 -117.582,-139.056 -117.406,-141.125C-117.241,-143.072 -116.799,-145.074 -116.885,-146.865C-116.938,-147.964 -117.402,-149.268 -117.581,-150.604C-117.757,-151.921 -117.628,-153.456 -117.929,-154.692C-118.04,-155.152 -118.593,-155.688 -119.06,-156.257C-119.504,-156.8 -119.816,-157.321 -120.103,-157.823C-120.657,-158.795 -121.819,-160.346 -121.929,-161.388C-122.521,-167.082 -123.323,-173.35 -124.624,-178.519C-125.064,-180.265 -125.291,-182.098 -126.276,-183.477C-126.903,-182.356 -126.79,-180.806 -126.799,-179.389C-126.821,-175.028 -127.12,-170.393 -127.407,-166.345C-131.18,-168.274 -137.45,-167.895 -141.496,-166.432C-142.496,-166.069 -144.511,-164.74 -145.408,-164.867C-146.716,-165.051 -147.297,-167.827 -147.582,-169.389C-148.601,-174.949 -149.316,-181.096 -150.54,-186.347L-150.626,-186.347C-151.565,-184.612 -152.214,-180.293 -152.539,-177.65C-152.953,-174.282 -153.147,-171.271 -153.147,-167.911C-153.147,-160.939 -153.382,-154.196 -153.062,-147.474C-152.906,-144.206 -153.001,-140.694 -152.627,-137.473C-152.256,-134.272 -151.394,-131.516 -151.495,-128.255C-151.59,-125.254 -152.152,-122.192 -153.496,-119.906C-154.071,-118.927 -154.84,-117.888 -155.671,-116.863C-156.251,-116.146 -157.501,-114.43 -158.366,-114.254C-160.517,-113.817 -162.684,-113.035 -164.889,-112.341C-167.081,-111.65 -169.237,-111.121 -171.236,-110.341C-175.299,-108.755 -178.343,-106.361 -180.194,-102.514C-181.046,-100.742 -181.657,-98.68 -182.169,-96.513C-183.427,-99.476 -184.619,-102.667 -185.969,-104.634C-185.938,-106.364 -186.433,-107.376 -186.97,-109.078C-187.649,-111.237 -188.287,-113.128 -188.969,-115.188C-189.556,-116.959 -189.873,-118.606 -191.413,-118.854C-191.483,-122.962 -194.949,-125.155 -197.412,-127.186C-199.803,-131.498 -206.113,-131.89 -210.854,-133.852C-211.361,-133.877 -211.63,-133.665 -211.966,-133.518C-212.295,-134.143 -212.703,-134.09 -213.076,-134.185C-214.636,-134.582 -216.723,-134.779 -218.854,-135.295C-220.638,-135.73 -223.142,-136.872 -224.407,-136.74C-224.912,-136.688 -225.224,-136.101 -225.63,-136.185C-225.876,-136.236 -225.653,-136.495 -225.963,-136.74C-226.154,-136.892 -226.585,-136.93 -226.63,-136.962C-227.041,-137.259 -227.262,-137.621 -227.74,-137.741C-228.562,-137.946 -229.656,-137.611 -230.74,-137.741C-232.542,-137.956 -233.941,-139.024 -235.739,-138.296C-236.805,-139.007 -237.913,-139.677 -238.96,-140.406C-239.269,-142.581 -241.091,-143.239 -241.739,-145.073C-241.162,-147.297 -238.437,-149.434 -240.628,-151.405C-238.709,-155.003 -238.794,-160.606 -238.739,-166.069C-238.669,-166.51 -239.16,-166.387 -239.072,-166.847C-239.358,-177.781 -243.289,-185.069 -254.071,-185.511L-256.181,-185.511C-265.005,-184.758 -270.225,-180.742 -271.624,-172.513C-271.943,-170.625 -272.12,-168.425 -272.289,-166.291C-272.464,-164.106 -272.751,-161.792 -272.623,-159.737C-272.359,-155.59 -271.366,-151.306 -271.29,-147.517C-270.897,-147.167 -270.668,-146.673 -270.399,-146.184C-269.93,-145.328 -269.315,-144.869 -269.29,-143.517C-268.517,-142.586 -267.411,-141.989 -266.29,-141.406C-266.079,-140.431 -265.893,-139.432 -265.623,-138.518C-266.421,-137.633 -267.831,-136.755 -268.957,-135.518C-270.353,-133.983 -272.285,-132.22 -271.067,-129.741C-271.175,-129.285 -272.195,-130.015 -272.623,-129.63C-272.998,-128.543 -271.375,-128.615 -271.4,-127.519C-273.082,-127.738 -273.88,-126.16 -275.177,-125.631C-275.572,-122.767 -279.162,-123.098 -279.955,-120.632C-280.363,-120.596 -280.937,-120.727 -281.176,-120.52C-284.587,-118.339 -286.419,-114.58 -289.508,-112.078C-289.841,-110.863 -290.804,-109.164 -291.508,-107.301C-292.064,-105.831 -293.591,-101.738 -292.064,-100.746C-292.155,-95.436 -293.076,-90.568 -291.397,-86.97C-290.899,-85.9 -289.626,-83.827 -290.287,-81.638C-290.416,-81.208 -290.837,-80.963 -291.179,-80.617C-292.072,-81.226 -293.048,-81.788 -293.919,-82.37C-294.778,-82.942 -295.642,-83.544 -296.504,-84.092C-297.385,-84.653 -298.404,-85.085 -299.21,-85.693C-300.244,-86.468 -301.003,-87.583 -302.042,-88.4C-303.136,-89.261 -304.414,-89.718 -305.611,-90.492C-306.712,-91.204 -307.875,-92.602 -309.796,-92.215C-309.441,-92.974 -309.801,-93.987 -310.165,-94.43C-309.005,-94.994 -309.496,-97.207 -309.18,-98.614C-307.12,-100.204 -306.308,-103.044 -304.996,-105.383C-301.025,-102.787 -297.462,-106.05 -295.519,-108.829C-292.666,-112.912 -291.545,-118.588 -291.582,-125.32C-291.599,-128.701 -291.671,-132.493 -292.443,-134.672C-293.743,-138.346 -301.208,-140.143 -303.027,-136.272C-305.683,-140.436 -310.019,-144.314 -315.703,-145.256C-317.097,-145.488 -317.795,-144.977 -318.902,-144.887C-319.863,-144.81 -320.804,-145.13 -321.732,-145.133C-328.299,-145.155 -329.224,-140.322 -333.67,-138.119C-334.517,-140.593 -337.501,-141.384 -339.7,-139.719C-341.432,-138.408 -342.158,-135.565 -343.515,-133.073C-344.639,-131.01 -346.484,-128.291 -346.714,-125.812C-347.131,-121.344 -346.044,-118.232 -345.238,-114.736C-344.71,-112.451 -344.444,-110.356 -343.638,-108.829C-342.505,-106.682 -340.288,-104.495 -336.377,-105.137C-333.912,-105.541 -332.583,-107.842 -332.193,-110.059C-332.078,-110.715 -332.45,-111.941 -331.332,-112.275C-330.871,-110.069 -330.944,-107.329 -330.101,-105.506C-330.88,-105.506 -331.232,-105.078 -331.701,-104.768C-331.99,-103.457 -332.449,-102.316 -332.685,-100.953C-333.888,-99.94 -334.318,-98.154 -335.516,-97.138C-338.117,-97.251 -339.531,-96.177 -341.3,-95.538C-341.873,-95.331 -342.508,-95.254 -343.023,-95.045C-343.738,-94.755 -344.4,-94.204 -345.115,-93.938C-345.81,-93.679 -346.57,-93.705 -347.208,-93.446C-347.924,-93.154 -348.552,-92.427 -349.3,-92.092C-352.246,-90.768 -355.828,-90.742 -358.406,-89.385C-359.863,-88.618 -360.868,-86.98 -362.099,-86.185C-362.105,-86.467 -362.153,-86.795 -362.227,-87.152L-362.615,-92.027L-357.687,-92.862L-355.341,-94.38L-355.064,-96.175L-345.704,-99.188L-347.032,-107.449L-363.469,-104.731L-363.472,-104.954C-363.853,-107.618 -361.76,-107.333 -361.855,-109.522C-361.951,-111.71 -363.378,-138.448 -363.757,-141.302C-363.998,-143.098 -364.915,-144.14 -365.846,-144.856L-366.517,-152.245C-366.517,-152.245 -366.88,-152.356 -367.433,-152.495L-367.589,-154.436C-367.589,-154.436 -368.865,-155.357 -371.19,-155.357C-373.515,-155.357 -374.884,-153.755 -374.884,-153.755L-374.236,-145.393L-376.603,-142.729L-376.414,-142.063L-374.263,-141.651C-375.001,-139.971 -375.697,-138.122 -375.652,-137.21C-375.557,-135.308 -374.13,-110.188 -373.843,-108.855C-373.559,-107.524 -371.226,-107.334 -371.131,-105.336C-371.13,-105.324 -371.127,-105.311 -371.126,-105.3L-370.913,-102.536L-373.232,-102.324L-373.835,-101.971C-373.835,-101.971 -372.755,-99.387 -370.6,-98.5L-370.134,-92.492C-370.617,-91.111 -371.878,-90.019 -372.435,-88.523C-373.206,-86.455 -373.322,-84.054 -374.159,-81.877C-374.814,-81.472 -376.024,-81.296 -376.375,-80.523C-376.625,-79.969 -376.354,-78.958 -376.498,-77.939C-376.559,-77.494 -376.837,-77.059 -376.867,-76.708C-376.966,-75.478 -376.793,-73.966 -376.752,-72.478C-377.125,-72.744 -377.535,-73.014 -377.933,-73.284C-378.243,-73.495 -379.505,-73.839 -381.555,-74.247L-382.148,-82.351C-380.472,-82.66 -379.521,-82.853 -379.521,-82.853L-383.819,-98.715C-383.819,-98.715 -395.976,-121.047 -423.919,-121.047C-441.919,-121.047 -453.257,-113.612 -459.623,-107.336L-481.094,-108.766C-481.443,-110.43 -482.309,-111.616 -483.396,-111.689C-483.481,-111.695 -483.565,-111.691 -483.649,-111.683C-484.316,-113.321 -485.381,-114.403 -486.647,-114.487C-486.701,-114.491 -486.754,-114.483 -486.808,-114.483C-487.745,-115.76 -488.965,-116.562 -490.343,-116.654C-491.563,-116.735 -492.736,-116.245 -493.752,-115.339C-493.918,-115.386 -494.089,-115.419 -494.264,-115.431C-495.397,-115.507 -496.481,-114.808 -497.352,-113.608C-498.63,-113.467 -499.785,-112.053 -500.376,-110.048L-502.332,-110.179C-502.932,-113.391 -506.271,-118.143 -510.787,-118.444C-515.92,-118.786 -518.742,-117.433 -519.684,-117.059C-520.626,-116.685 -523.22,-114.508 -523.547,-109.58C-523.553,-109.511 -523.57,-109.234 -523.575,-109.164C-523.875,-104.665 -521.64,-101.43 -520.756,-100.934C-519.872,-100.437 -517.238,-98.969 -512.105,-98.626C-507.59,-98.326 -503.651,-102.594 -502.63,-105.698L-500.675,-105.568C-500.355,-103.502 -499.397,-101.948 -498.148,-101.64C-497.444,-100.334 -496.464,-99.498 -495.329,-99.423C-495.154,-99.411 -494.981,-99.422 -494.81,-99.446C-493.924,-98.413 -492.826,-97.772 -491.605,-97.691C-490.228,-97.599 -488.911,-98.233 -487.813,-99.374C-487.76,-99.367 -487.708,-99.352 -487.655,-99.349C-486.389,-99.265 -485.189,-100.197 -484.312,-101.731C-484.229,-101.712 -484.147,-101.697 -484.062,-101.692C-482.974,-101.62 -481.959,-102.68 -481.392,-104.284L-463.407,-103.088C-465.378,-100.551 -466.266,-98.787 -466.266,-98.787L-470.494,-83.715C-470.494,-83.715 -469.338,-83.47 -467.333,-83.081L-468.1,-74.898C-470.927,-74.383 -472.666,-73.937 -473.039,-73.685C-474.418,-72.75 -475.953,-71.814 -475.493,-71.035C-475.342,-70.78 -472.638,-70.278 -468.584,-69.719L-469.324,-61.836C-471.882,-61.356 -473.454,-60.945 -473.805,-60.707C-475.185,-59.771 -476.718,-58.835 -476.259,-58.056C-476.115,-57.81 -473.601,-57.337 -469.794,-56.802L-470.617,-48.02C-473.345,-47.873 -475.082,-47.75 -475.591,-47.649C-476.972,-46.713 -478.057,-45.494 -477.714,-45.102C-477.531,-44.895 -475.14,-44.812 -471.513,-44.788C-474.853,-44.08 -474.857,-43.474 -474.857,-43.474L-475.448,-39.817C-476.712,-39.823 -477.455,-39.826 -477.575,-39.826C-479.131,-39.826 -479.433,-39.675 -479.533,-39.274C-479.634,-38.873 -485.357,-23.008 -485.959,-21.049C-486.562,-19.092 -485.156,-18.79 -485.156,-18.79L-485.774,-16.984C-485.774,-16.984 -490.431,-16.693 -490.868,-16.548C-491.009,-16.5 -491.657,-13.832 -492.461,-10.235L-536.965,-29.538C-537.546,-29.79 -538.173,-29.775 -538.715,-29.549L-542.431,-31.161C-541.729,-34.233 -542.258,-37.259 -543.79,-39.384C-544.239,-41.51 -545.3,-43.134 -546.922,-43.837C-550.595,-45.43 -555.747,-41.707 -558.429,-35.522C-561.112,-29.336 -560.311,-23.031 -556.638,-21.438C-555.016,-20.734 -553.105,-21.069 -551.247,-22.194C-548.648,-22.527 -546.078,-24.208 -544.313,-26.821L-540.598,-25.209C-540.393,-24.659 -539.974,-24.19 -539.394,-23.938L-493.786,-4.156C-495.156,2.274 -496.472,8.846 -496.398,9.067C-496.253,9.504 -489.122,14.646 -489.122,14.646C-489.122,14.646 -489.682,16.207 -490.577,18.527C-491.212,20.174 -489.969,21.003 -489.969,21.003L-487.819,22.716L-489.193,29.939C-489.246,29.938 -489.3,29.935 -489.354,29.935C-494.434,29.935 -498.553,34.054 -498.553,39.134C-498.553,43.08 -496.069,46.443 -492.58,47.752L-494.443,57.549C-494.61,57.54 -494.777,57.535 -494.946,57.535C-500.026,57.535 -504.145,61.654 -504.145,66.734C-504.145,70.799 -501.507,74.247 -497.851,75.463L-499.73,85.351C-499.997,85.329 -500.266,85.314 -500.537,85.314C-505.619,85.314 -509.737,89.432 -509.737,94.513C-509.737,98.687 -506.958,102.209 -503.151,103.336L-505.016,113.14C-505.323,113.11 -505.634,113.093 -505.949,113.093C-511.03,113.093 -515.149,117.213 -515.149,122.294C-515.149,126.511 -512.311,130.063 -508.44,131.149L-508.927,133.705L-514.009,136.416L-516.629,146.459L-516.774,156.792L-515.464,157.228C-515.464,157.228 -515.174,163.63 -515.174,164.504C-515.174,165.378 -500.474,174.256 -499.31,174.401C-498.145,174.547 -456.812,174.984 -455.648,174.984C-454.483,174.984 -407.183,171.054 -407.183,171.054L-376.765,164.942C-376.765,164.942 -367.244,161.095 -357.942,157.336C-357.197,161.491 -354.178,163.373 -350.654,164.749C-350.462,166.047 -351.277,168.622 -350.654,170.04C-350.048,171.416 -347.203,172.033 -344.746,172.132C-339.812,172.33 -335.13,171.103 -331.825,169.302C-330.039,168.331 -328.177,167.235 -325.917,167.086C-320.744,166.747 -316.115,169.313 -311.642,167.701C-309.968,167.098 -308.101,165.947 -306.596,164.749C-302.901,161.807 -299.937,158.447 -298.842,153.302C-294.375,153.018 -290.822,153.648 -287.274,154.288C-286.335,150.696 -287.728,146.644 -287.766,142.842C-285.306,142.224 -282.248,141.787 -281.613,139.642C-281.236,138.369 -282.12,136.128 -282.351,134.473C-282.631,132.472 -282.701,130.442 -282.843,128.689C-285.059,101.577 -286.39,73.396 -287.89,46.482C-285.642,45.981 -283.344,45.528 -283.335,42.789C-281.599,41.745 -281.835,39.319 -281.121,36.881C-280.708,35.475 -279.818,33.961 -279.767,32.821C-279.661,30.471 -281.195,28.25 -280.875,25.683C-279.623,25.026 -277.919,24.928 -277.358,23.815C-277.339,24.108 -277.318,24.4 -277.289,24.679C-276.839,28.896 -276.564,33.221 -276.289,37.344C-276.165,39.177 -275.544,40.849 -275.4,42.564C-275.32,43.505 -275.238,44.389 -275.066,45.231C-274.89,46.093 -274.481,46.889 -274.4,47.675C-274.311,48.515 -274.628,49.336 -274.734,50.12C-275.158,53.257 -274.597,57.148 -274.4,60.339C-274.201,63.519 -274.067,66.548 -273.51,69.228C-272.407,74.548 -269.103,77.766 -265.512,80.669C-265.331,81.636 -264.885,82.339 -264.623,83.225C-265.963,85.607 -268.984,85.889 -268.178,89.78C-267.256,94.239 -264.311,99.992 -260.957,101.667C-260.293,106.382 -259.922,112.062 -259.625,117.442C-259.523,119.266 -260.025,121.972 -259.068,122.774C-260.289,124.692 -258.844,126.824 -258.958,128.663C-258.989,129.168 -259.324,129.509 -259.291,129.997C-259.243,130.685 -258.609,131.223 -258.625,131.884C-258.636,132.402 -259.121,132.846 -259.291,133.44C-259.479,134.098 -259.232,134.144 -259.512,134.551C-260.043,135.318 -259.104,135.863 -259.068,136.662C-260.054,137.537 -259.416,138.855 -260.179,139.773C-259.72,140.522 -260.173,141.504 -260.069,142.548C-260.619,142.986 -260.556,143.456 -260.402,143.882C-261.353,144.855 -262.871,145.266 -263.069,146.993C-263.64,146.913 -264.026,147.304 -264.511,147.547C-265.597,148.093 -266.167,148.216 -266.624,149.437C-267.524,149.907 -268.568,150.233 -269.401,150.771C-269.545,151.18 -269.652,151.629 -269.622,152.214C-272.1,153.839 -274.044,155.223 -277.511,155.77C-281.648,156.421 -286.91,155.335 -290.62,155.77C-290.912,155.804 -291.365,155.887 -291.619,155.992C-292.783,156.47 -292.882,157.545 -293.508,158.546C-294.001,159.335 -294.517,159.629 -294.73,160.325C-295.664,163.39 -292.135,164.763 -290.064,165.656C-285.515,167.62 -280.105,168.45 -273.843,168.545C-265.306,168.676 -259.612,165.181 -251.292,165.656C-251.405,166.65 -251.516,168.129 -251.292,169.101L-245.404,169.101C-245.43,169.681 -245.403,170.21 -245.294,170.657C-245.866,171.356 -246.732,172.442 -246.293,173.544C-245.997,174.292 -244.324,174.716 -243.182,175.1C-239.481,176.342 -235.263,177.057 -231.406,177.544C-228.613,177.895 -225.455,178.412 -222.742,178.1C-220.053,177.79 -217.269,177.083 -215.41,175.989C-213.622,174.938 -212.822,172.628 -211.631,170.878C-211.395,170.528 -210.431,169.365 -209.632,169.324C-208.671,169.273 -207.82,170.105 -207.077,170.101C-206.048,170.093 -204.431,169.224 -203.522,168.767C-202.4,168.204 -201.198,167.734 -200.745,166.545C-200.355,165.527 -200.593,164.507 -200.633,163.546C-200.784,159.972 -200.938,156.068 -201.855,153.104C-202.176,152.071 -202.885,150.836 -202.855,150.214C-202.816,149.375 -201.74,148.427 -201.744,147.547C-201.75,146.383 -202.607,145.774 -202.967,144.771C-201.397,142.106 -203.074,138.722 -202.936,135.87C-202.758,135.62 -202.571,135.379 -202.37,135.156C-201.54,134.24 -200.383,133.363 -199.24,132.547C-195.496,129.883 -191.152,127.367 -186.718,124.981C-186.151,124.676 -185.08,124.042 -184.804,124.025C-184.231,123.989 -182.685,126.016 -182.107,126.546C-181.152,127.423 -180.149,128.301 -179.412,129.242C-177.728,131.387 -176.716,133.756 -175.15,135.763C-174.011,135.193 -173.56,133.933 -173.063,132.72C-171.996,133.728 -171.443,134.896 -170.716,136.461C-170.515,136.89 -170.124,137.486 -170.106,137.853C-170.077,138.447 -170.618,139.157 -170.716,139.94C-170.845,140.986 -170.845,142.217 -170.976,143.419C-171.111,144.656 -171.3,145.913 -171.323,146.809C-171.343,147.539 -171.072,147.796 -170.889,148.375C-171.302,149.465 -171.805,150.261 -172.02,151.418C-172.14,152.061 -171.955,152.765 -172.106,153.504C-172.275,154.341 -173.057,155.098 -173.322,155.853C-173.898,157.479 -173.537,158.857 -173.758,160.461C-173.817,160.882 -174.071,161.231 -174.106,161.68C-174.193,162.796 -173.828,163.99 -173.671,165.156C-173.524,166.25 -173.438,167.384 -173.149,168.548C-170.083,169.045 -166.386,168.707 -163.323,168.636C-160.149,168.565 -156.69,168.837 -153.584,168.636C-150.882,168.461 -150.809,166.463 -150.365,163.679C-150.253,162.975 -150.371,162.294 -150.365,161.593C-150.358,160.727 -150.126,160.086 -150.192,159.245C-150.251,158.477 -150.709,157.717 -150.8,156.895C-151.122,154.032 -150.294,150.732 -151.495,148.461C-150.174,146.903 -150.945,144.125 -150.54,141.939C-150.419,141.292 -149.935,140.586 -149.67,139.851C-149.397,139.095 -149.382,138.258 -149.147,137.503C-149.039,137.151 -148.641,136.757 -148.54,136.374C-148.007,134.359 -148.262,132.164 -147.582,130.025C-145.704,132.253 -144.351,134.744 -142.8,137.33C-142.296,138.169 -141.608,139.034 -141.669,140.201C-140.794,139.196 -140.662,137.708 -140.364,136.286C-139.795,133.552 -139.583,130.154 -139.583,126.72C-139.583,124.986 -139.894,123.065 -139.583,121.588C-139.417,120.802 -138.404,120.011 -137.93,119.33C-137.33,118.466 -137.195,117.457 -136.364,117.067C-135.433,118.069 -135.347,119.613 -134.973,121.067C-134.688,122.181 -133.872,124.075 -133.843,125.329C-133.814,126.503 -134.587,128.747 -134.887,130.025C-135.852,134.135 -136.876,137.414 -136.799,142.461C-136.786,143.29 -136.491,144.384 -136.626,145.07C-136.715,145.525 -137.145,145.867 -137.234,146.374C-137.695,148.966 -137.934,153.139 -136.626,154.896C-136.458,155.122 -136.053,155.414 -135.757,155.591C-133.936,156.691 -131.196,157.209 -128.799,157.677C-127.803,157.876 -126.248,156.484 -125.059,156.722C-124.167,156.902 -123.147,157.63 -122.538,158.288C-121.958,158.914 -121.517,160.08 -120.886,160.811C-118.818,163.202 -113.931,164.523 -109.493,164.202C-106.257,163.966 -103.021,163.388 -99.841,162.635C-98.549,162.331 -96.896,162.082 -96.361,161.07C-96.008,160.402 -95.765,158.512 -95.841,157.677C-95.894,157.075 -96.317,156.67 -96.448,156.112C-96.586,155.527 -96.609,154.924 -96.797,154.375C-97.486,152.353 -99.495,151.469 -101.146,150.288C-101.792,149.825 -102.602,149.043 -103.492,148.461C-104.316,147.923 -105.765,147.645 -106.102,146.897C-106.437,146.15 -105.371,146.108 -105.754,144.984C-106.311,144.044 -107.687,144.357 -108.624,143.764C-109.086,143.472 -109.644,142.463 -110.103,141.766C-111.428,139.75 -113.133,137.591 -113.929,135.329C-115.248,131.578 -113.92,126.789 -112.885,123.503C-111.911,124.789 -111.643,126.784 -110.71,128.113C-110.236,125.573 -110.637,122.155 -110.275,119.503C-108.763,123.548 -106.393,127.316 -104.276,131.069C-102.668,133.918 -101.752,137.148 -100.449,140.374C-100.054,141.348 -99.58,142.563 -98.188,142.461C-97.668,142.256 -98.267,140.869 -97.927,140.287C-97.711,140.094 -97.702,140.595 -97.579,140.808C-97.205,141.449 -96.608,142.409 -95.926,142.809C-93.846,140.354 -92.611,137.457 -90.97,134.721C-89.361,132.042 -87.622,129.191 -87.579,125.156C-85.364,128.507 -83.7,132.408 -81.578,135.852C-81.009,135.485 -80.77,134.947 -80.535,134.461C-79.387,132.082 -78.774,128.981 -77.752,125.763C-77.306,124.363 -76.823,122.911 -76.273,121.502C-75.612,119.811 -74.943,118.312 -75.056,116.285C-75.101,115.496 -75.496,114.682 -75.49,113.937C-75.477,112.296 -74.575,111.219 -74.359,109.675C-74.074,107.633 -74.429,105.319 -74.621,102.98C-75.16,96.411 -75.583,89.393 -76.013,82.978C-76.626,73.848 -77.46,65.225 -78.273,56.715C-80.517,33.244 -82.234,9.9 -84.35,-13.417C-83.941,-13.711 -83.488,-14.299 -83.14,-15.044C-82.895,-15.567 -82.742,-16.081 -82.685,-16.514C-81.438,-16.997 -80.168,-17.684 -78.899,-18.55C-78.281,-11.959 -77.603,-3.259 -76.797,1.664C-76.33,4.517 -75.372,6.86 -75.658,9.771C-75.475,10.472 -74.955,10.521 -74.663,11.191C-72.818,15.447 -77.404,25.677 -73.241,28.398C-74.724,33.367 -76.795,42.316 -76.37,49.161C-75.86,57.367 -70.251,61.643 -61.012,59.827C-59.301,68.377 -57.448,78.798 -55.323,87.129C-54.551,90.161 -53.19,93.028 -52.906,95.805C-52.773,97.095 -53.203,98.441 -53.333,99.928C-53.414,100.86 -53.131,101.805 -53.333,102.487C-53.617,103.451 -55.181,104.122 -55.75,105.476C-56.372,106.952 -56.259,108.081 -56.604,109.742C-59.597,113.267 -61.365,117.438 -62.292,122.681C-62.59,124.371 -63.379,126.007 -63.571,127.66C-63.718,128.908 -63.372,130.06 -63.571,131.213C-63.877,132.986 -65.266,134.88 -65.989,136.903C-66.84,139.282 -67.429,142.191 -67.269,144.582C-67.106,147.012 -68.463,149.491 -67.695,152.261C-68.456,153.914 -68.786,156.283 -68.265,157.806C-68.02,158.521 -67.527,158.534 -66.842,159.229C-66.263,159.817 -66.121,160.511 -65.563,160.793C-64.044,161.558 -61.267,161.055 -59.021,160.935C-56.718,160.813 -54.381,160.467 -52.621,160.224C-51.832,159.465 -52.573,157.748 -52.053,156.953C-48.913,155.966 -44.09,156.681 -41.103,157.238C-41.269,157.973 -40.923,158.439 -40.96,159.086C-40.998,159.712 -41.404,159.981 -41.529,160.651C-41.868,162.46 -41.704,165.882 -41.103,167.191C-40.397,168.731 -37.009,169.056 -34.704,168.898C-32.444,168.744 -30.384,167.715 -28.589,167.334C-26.627,167.745 -25.736,169.723 -24.323,170.462C-22.411,171.463 -18.443,170.892 -15.933,170.605C-7.593,169.652 0.101,167.384 5.825,164.917C6.132,163.176 6.237,160.692 4.403,160.651C4.557,153.769 -3.838,156.697 -7.686,153.968C-8.434,153.498 -8.101,152.829 -8.538,152.261C-9.476,151.039 -11.886,151.029 -11.951,148.99C-14.389,148.679 -14.246,145.786 -16.502,145.293C-16.231,145.041 -15.591,145.16 -15.363,144.865C-13.337,140.241 -14.935,134.572 -16.502,130.503C-17.503,127.905 -19.422,125.568 -19.771,123.252C-20.249,120.088 -19.263,115.22 -19.487,111.164C-19.563,109.808 -19.95,108.535 -19.914,107.324C-19.893,106.595 -19.553,105.742 -19.487,104.906C-19.31,102.602 -20.035,100.143 -19.914,98.221C-19.758,95.74 -17.912,92.701 -16.644,90.544C-12.281,83.126 -11.878,73.103 -10.387,63.525C-4.647,60.755 -0.38,57.408 3.123,52.716C6.625,48.026 8.444,42.052 9.38,34.657C10.335,27.107 8.921,19.577 7.958,12.331C7.007,5.175 5.422,-1.613 3.91,-7.698C5.703,-7.612 7.248,-9.047 7.457,-10.953L8.795,-10.874C9.235,-10.848 9.614,-11.183 9.64,-11.623L9.766,-13.749L12.977,-13.56C13.479,-13.529 13.909,-13.913 13.94,-14.415L14.146,-17.899C14.176,-18.401 13.794,-18.832 13.291,-18.862L12.339,-18.918L12.998,-30.049L13.499,-30.019C13.663,-30.01 13.807,-30.193 13.821,-30.43L14.331,-39.054C14.346,-39.29 14.225,-39.49 14.062,-39.499L11.597,-39.645C11.433,-39.655 11.29,-39.472 11.275,-39.235L11.207,-38.068L8.978,-38.2C9.221,-39.083 11.193,-39.172 10.659,-41.14C9.941,-41.938 7.903,-41.416 6.536,-41.566C5.951,-41.836 5.539,-43.275 4.688,-43.699C4.182,-43.95 3.467,-43.577 2.839,-43.841C2.658,-43.917 2.281,-44.54 1.985,-44.837C0.635,-46.189 0.81,-46.893 0.705,-49.245C0.656,-50.346 0.158,-51.404 0.137,-51.947C0.062,-53.887 1.09,-56.375 1.559,-58.63C2.032,-60.91 2.668,-63.319 2.696,-65.599C2.727,-68.127 2.313,-70.944 2.128,-73.704C2.067,-74.603 2.234,-75.582 2.128,-76.549C1.853,-79.025 0.937,-81.357 -0.006,-83.09C-0.507,-84.011 -1.737,-84.663 -2.139,-85.649C-2.581,-86.737 -2.96,-91.554 -2.707,-92.76C-2.408,-94.185 -0.567,-95.392 0.279,-96.884C0.869,-97.926 1.092,-98.871 1.417,-100.013C5.584,-102.196 8.707,-105.426 9.664,-110.82C11.609,-111.737 11.825,-113.477 12.65,-115.655C13.034,-116.669 14.001,-117.697 14.073,-118.357C14.159,-119.145 13.462,-120.017 13.504,-120.774C13.562,-121.812 14.237,-123.069 14.499,-124.187C14.813,-125.52 15.033,-126.72 15.068,-128.169C15.187,-128.896 15.482,-127.742 15.779,-127.743C16.586,-130.816 14.746,-133.472 13.789,-135.706" style="fill:rgb(33,1,51);"/>
    </g>
    <g transform="matrix(1.06078,0,0,-1.03197,703.202,646.687)">
        <g>
            <path d="M158.804,48.164C150.077,60.177 139.564,70.896 128.284,80.517C112.592,93.901 93.523,102.255 73.479,106.638C74.544,105.576 75.081,104.123 76.153,103.065C77.112,102.118 78.324,101.471 79.298,100.539C81.115,98.801 82.799,96.899 84.221,94.824C84.584,94.298 84.685,93.647 85.034,93.114C88.582,87.689 93.006,82.827 97.652,78.329C100.613,75.463 102.646,71.887 105.256,68.732C106.726,66.955 108.274,65.166 109.406,63.144C109.965,62.147 110.494,60.978 110.384,59.805C112.783,59.268 115.355,59.621 117.684,58.749C121.356,55.372 125.14,52.113 128.696,48.611C130.833,46.506 133.11,44.24 134.514,41.554C135.015,41.19 135.505,40.782 136.094,40.566C138.031,37.945 140.329,35.607 142.209,32.941C143.039,31.764 144.092,30.259 144.018,28.742C147.684,28.13 151.395,27.438 154.818,25.935C157.023,26.118 159.156,26.679 161.38,26.676C161.241,26.91 161.118,27.157 161.038,27.419C160.532,29.073 162.485,29.594 163.721,29.771C163.026,30.255 163.527,30.873 164.095,31.181C158.893,35.261 153.692,39.344 148.493,43.429C148.015,43.804 148.065,44.235 148.716,44.259C151.909,44.38 155.102,44.501 158.295,44.622C157.527,45.25 155.907,46.879 157.283,47.755C157.465,47.871 157.669,47.951 157.876,48.01C158.178,48.097 158.491,48.141 158.804,48.164M-1.851,103.938C-2.209,103.814 -2.559,103.659 -2.877,103.452C-5.046,102.036 -3.405,99.318 -2.242,97.788C-1.983,97.448 -1.713,97.117 -1.434,96.793C-1.132,96.441 -0.82,96.097 -0.502,95.759C-0.091,95.322 0.331,94.895 0.761,94.476C1.298,93.951 1.847,93.438 2.404,92.933C3.165,92.244 3.94,91.57 4.723,90.907C5.814,89.985 6.921,89.083 8.038,88.194C9.516,87.016 11.011,85.86 12.51,84.711C14.427,83.241 16.361,81.79 18.242,80.274C17.795,82.939 16.698,85.53 16.61,88.253C16.584,89.019 16.906,89.833 16.638,90.582C16.15,91.963 14.979,93.046 14.2,94.255C12.119,97.494 10.271,100.87 8.459,104.264C6.406,104.384 4.346,104.514 2.288,104.478C0.915,104.455 -0.539,104.391 -1.851,103.938M37.181,54.216C37.114,54.322 36.729,54.488 36.84,54.35C40.51,49.801 43.827,44.98 47.303,40.284C48.632,38.492 49.864,36.627 51.172,34.819C53.654,33.856 56.11,32.825 58.541,31.74C59.646,32.503 60.939,33.227 62.33,33.123C61.674,33.846 61.017,34.568 60.36,35.291C58.5,35.633 56.646,36.066 54.871,36.726C48.787,42.364 43.034,48.343 37.181,54.216M134.483,-67.044C135.831,-68.787 137.533,-70.2 139.31,-71.486C141.387,-72.988 143.579,-74.3 145.908,-75.372C148.352,-76.496 150.831,-77.537 153.242,-78.729C146.98,-74.848 140.727,-70.954 134.483,-67.044ZM150.827,-90.821C150.935,-90.79 151.058,-90.764 151.167,-90.734C155.063,-89.149 158.955,-87.556 162.844,-85.954C161.083,-85.033 159.317,-84.124 157.561,-83.196C156.839,-83.504 156.07,-83.702 155.308,-83.885C154.787,-84.011 154.264,-84.124 153.741,-84.24C153.389,-84.317 153.031,-84.396 152.68,-84.477C152.263,-84.573 152.062,-84.622 151.649,-84.729C150.333,-85.068 147.594,-85.782 148.15,-87.681C148.219,-87.918 148.328,-88.142 148.454,-88.353C148.671,-88.717 148.941,-89.047 149.227,-89.357C149.717,-89.889 150.264,-90.368 150.827,-90.821M165.581,-84.823C166.965,-84.251 168.348,-83.678 169.731,-83.104C169.08,-82.706 168.43,-82.309 167.779,-81.912C166.393,-82.486 165.008,-83.059 163.621,-83.631C164.283,-84.013 164.949,-84.394 165.581,-84.823M23.751,80.517C23.993,78.562 25.027,76.805 25.412,74.883C26.986,73.65 28.547,72.402 30.094,71.136C29.911,72.409 29.133,73.601 28.422,74.633C27.002,76.696 25.32,78.57 23.751,80.517M200.877,-107.503C197.68,-104.987 193.444,-103.803 189.805,-102.129C187.603,-103.047 185.401,-103.962 183.197,-104.875C189.155,-105.249 194.957,-106.82 200.877,-107.503M-178.241,87.86C-176.856,84.812 -176.533,81.237 -174.476,78.514C-170.512,77.247 -166.584,75.862 -162.711,74.339C-166.392,81.127 -170.074,87.915 -173.751,94.706C-175.935,98.742 -178.106,102.786 -180.268,106.834C-180.842,106.728 -181.497,106.649 -182.021,106.367C-181.664,105.095 -180.806,104.06 -180.217,102.897C-179.633,101.746 -178.644,100.55 -178.625,99.192C-178.609,98.029 -179.795,97.102 -180.262,96.128C-180.715,95.178 -181.815,93.909 -181.55,92.751C-181.391,92.063 -180.896,91.467 -180.464,90.93C-179.68,89.955 -178.764,89.014 -178.241,87.86M-214.047,149.664C-214.589,151.172 -216.294,152.012 -217.121,153.351C-217.353,153.728 -217.399,154.186 -217.636,154.561C-218.256,155.548 -219.019,156.439 -219.609,157.446C-220.171,158.411 -220.535,159.494 -221.203,160.397C-221.98,161.448 -223.176,162.113 -224.124,162.989C-225.085,163.876 -226.248,164.516 -227.197,165.415C-227.408,165.615 -227.467,165.92 -227.681,166.117C-228.711,167.065 -230.201,167.445 -231.144,168.488C-230.856,167.778 -230.392,166.811 -230.834,166.059C-231.187,165.459 -231.939,165.245 -232.366,164.71C-232.48,164.565 -232.313,164.383 -232.403,164.237C-232.615,163.89 -233.184,163.897 -233.349,163.525C-233.174,163.249 -232.633,163.05 -232.619,162.69C-232.603,162.247 -233.388,162.173 -233.543,161.79C-233.663,161.501 -233.442,161.134 -233.509,160.823C-233.562,160.571 -233.832,160.301 -233.742,160.033C-233.596,159.6 -232.962,159.513 -232.751,159.114C-232.428,158.499 -232.933,157.675 -233.028,157.073C-233.472,154.296 -232.693,151.399 -231.948,148.744C-231.62,148.492 -231.02,148.682 -230.752,148.349C-231.537,146.563 -230.221,144.175 -229.795,142.491C-229.253,140.348 -228.59,138.236 -228.214,136.054C-227.866,135.664 -227.015,135.799 -226.568,135.696C-226.121,134.947 -224.962,134.834 -224.433,134.115C-224.156,133.737 -224.169,133.217 -223.934,132.811C-223.75,132.493 -223.522,132.202 -223.29,131.918C-222.449,130.884 -220.224,128.784 -222.192,127.703C-222.475,127.547 -222.781,127.434 -223.09,127.341C-222.716,126.952 -222.376,126.523 -222.116,126.049C-220.677,123.429 -222.746,120.829 -223.914,118.57C-225.184,116.114 -225.754,113.262 -228.584,112.158C-229.968,111.618 -231.486,111.54 -232.916,111.176C-232.765,108.498 -230.092,106.233 -230.693,103.494C-230.97,102.235 -232.259,101.329 -232.95,100.319C-233.68,99.255 -234.163,98.038 -234.944,97.007C-232.839,93.624 -231.554,89.832 -231.383,85.837C-228.357,85.985 -225.327,86.06 -222.298,86.021C-221.283,92.591 -221.277,99.733 -218.366,105.863C-217.49,107.704 -216.34,109.544 -216.535,111.668C-216.604,112.413 -216.901,113.117 -216.956,113.862C-217.05,115.151 -216.388,116.458 -216.987,117.701C-217.523,118.82 -219.655,119.465 -218.883,120.997C-218.397,121.961 -217.055,122.124 -216.323,122.854C-218.338,123.254 -220.147,126.067 -218.251,127.717C-217.048,128.761 -215.216,129.112 -213.682,129.283C-211.64,131.728 -212.952,135.694 -213.517,138.384C-213.668,139.104 -213.807,139.828 -213.895,140.559C-214.096,142.22 -214.014,143.727 -215.58,144.67C-214.907,145.049 -214.399,145.46 -213.608,145.549C-214.82,146.769 -213.544,148.26 -214.047,149.664M-329.518,43.261C-331.012,43.282 -332.508,42.662 -333.314,41.353C-334.476,39.468 -333.472,37.323 -331.328,37.015C-329.725,36.786 -327.975,37.213 -327.05,38.638C-325.659,40.782 -327.082,43.227 -329.518,43.261M-358.344,49.015C-360.091,48.929 -361.979,48.311 -363.135,46.933C-363.373,46.649 -363.576,46.332 -363.71,45.986C-364.55,43.831 -362.201,42.842 -360.498,42.655C-360.458,42.65 -360.411,42.539 -360.33,42.533C-358.456,42.403 -356.363,42.766 -354.955,44.106C-354.653,44.393 -354.391,44.724 -354.197,45.093C-354.052,45.37 -353.945,45.669 -353.896,45.979C-353.499,48.46 -356.495,49.107 -358.344,49.015M-469.299,-19.04C-468.616,-17.922 -467.645,-16.651 -467.491,-15.298C-467.368,-14.248 -468.425,-13.161 -468.8,-12.255C-469.321,-10.998 -469.809,-9.727 -470.28,-8.45C-470.752,-8.505 -471.225,-8.561 -471.698,-8.615C-473.611,-11.784 -475.526,-14.952 -477.443,-18.119C-474.726,-18.38 -472.001,-18.638 -469.299,-19.04M-417.8,39.481C-417.603,38.924 -417.852,38.323 -417.691,37.758C-417.296,36.35 -416.52,35.157 -416.901,33.653C-417.834,29.984 -419.904,26.728 -420.498,22.945C-419.387,23.494 -419.601,24.705 -418.863,25.529C-418.135,26.34 -416.959,26.614 -416.252,27.453C-415.741,28.061 -415.636,28.945 -415.055,29.491C-413.832,30.645 -411.937,30.544 -410.492,31.264C-409.544,33.877 -409.253,36.684 -408.105,39.236C-407.729,40.071 -406.686,40.946 -406.697,41.925C-406.701,42.325 -407.06,42.676 -407.327,42.932C-407.876,43.457 -408.697,43.972 -408.996,44.711C-410.03,47.243 -409.381,50.414 -409.261,53.019C-409.119,56.199 -408.772,59.366 -408.311,62.515C-408.678,62.086 -409.048,61.659 -409.414,61.23C-410.196,60.316 -411.405,59.599 -412.608,59.421C-413.828,59.265 -415.049,59.109 -416.269,58.954C-416.915,58.157 -417.561,57.362 -418.208,56.566C-416.607,56.071 -415.005,55.558 -413.44,54.957C-413.054,54.808 -412.664,54.658 -412.301,54.459C-412.254,54.433 -412.047,54.332 -412.08,54.25C-412.219,53.907 -412.562,53.552 -412.773,53.259C-413.377,52.418 -413.984,51.58 -414.592,50.743C-416.602,47.981 -418.623,45.228 -420.651,42.48C-419.596,41.739 -418.251,40.768 -417.8,39.481M-393.451,37.634C-391.58,37.402 -389.577,38.034 -388.377,39.537C-388.128,39.849 -387.919,40.196 -387.776,40.57C-387.666,40.856 -387.596,41.159 -387.584,41.466C-387.523,43.143 -389.222,43.725 -390.621,43.745C-392.371,43.77 -394.191,43.064 -395.25,41.622C-395.492,41.293 -395.689,40.927 -395.807,40.535C-396.317,38.83 -394.969,37.822 -393.451,37.634M378.508,-106.037C378.694,-106.152 378.955,-106.308 379.187,-106.25C379.66,-106.133 379.641,-105.702 380.124,-106.037C380.377,-106.261 380.621,-106.498 380.832,-106.762C380.978,-106.945 381.111,-107.143 381.197,-107.362C381.826,-108.953 378.901,-109.152 379.206,-110.655C379.348,-111.338 380.336,-112.072 380.797,-112.522C381.053,-112.771 381.313,-113.025 381.6,-113.239C381.601,-113.24 381.834,-113.419 381.831,-113.326C382.052,-113.968 381.646,-114.66 381.846,-115.318C382.113,-116.192 383.792,-118.195 382.306,-118.725C382.106,-118.796 381.896,-118.839 381.687,-118.871C381.394,-118.916 381.099,-118.938 380.803,-118.951C381.897,-119.898 383.085,-120.788 384.443,-121.317C377.926,-119.203 371.245,-120.32 364.527,-120.026C361.208,-119.88 357.924,-119.178 354.668,-118.563C352.612,-118.175 350.501,-117.687 348.398,-117.666C346.774,-117.65 345.327,-118.397 343.748,-118.641C342.241,-118.875 340.728,-118.582 339.299,-118.093C339.292,-117.903 339.661,-117.887 339.78,-117.875C340.161,-117.835 341.903,-117.934 340.991,-117.235C340.894,-117.16 340.791,-117.091 340.688,-117.025C338.735,-115.904 336.463,-115.211 334.292,-114.681C331.865,-114.085 329.324,-114.07 326.964,-113.194C323.013,-111.725 319.209,-109.548 316.118,-106.664C309.261,-103.956 302.45,-101.032 296.171,-97.136C295.942,-96.987 295.357,-96.671 295.378,-96.324C295.402,-95.94 296.189,-95.929 295.81,-95.453C295.764,-95.396 295.71,-95.342 295.656,-95.293C294.197,-94.595 292.822,-93.739 291.624,-92.646C290.478,-91.601 289.507,-90.38 288.294,-89.406C287.3,-88.609 286.088,-88.139 285.058,-87.394C282.281,-85.382 280.161,-82.849 278.571,-79.825C277.89,-78.522 277.869,-76.997 277.195,-75.697C276.306,-73.993 274.757,-72.717 273.203,-71.64C271.008,-70.119 268.625,-68.885 266.314,-67.554C265.98,-67.504 265.55,-67.492 265.357,-67.829C265.089,-68.297 265.317,-69.044 264.703,-69.286C264.503,-69.285 264.303,-69.292 264.104,-69.315C263.918,-69.337 263.731,-69.374 263.557,-69.447C262.752,-69.785 263.272,-70.743 262.691,-71.219C257.036,-70.807 251.827,-68.972 246.705,-66.595C245.649,-66.174 244.54,-65.887 243.431,-65.642C241.212,-66.639 238.991,-67.632 236.768,-68.621C240.34,-70.593 243.914,-72.56 247.49,-74.525C248.094,-74.857 248.698,-75.188 249.302,-75.52C249.473,-75.613 250.116,-76.059 249.688,-76.251C237.25,-81.824 224.762,-87.285 212.232,-92.649C212.622,-92.878 213.012,-93.106 213.402,-93.335C213.604,-93.452 214.169,-93.904 213.72,-94.095C212.683,-94.54 211.645,-94.985 210.607,-95.428C211.482,-95.944 212.357,-96.459 213.232,-96.974C213.436,-97.094 213.998,-97.548 213.548,-97.742C211.139,-98.77 208.729,-99.795 206.317,-100.816C205.872,-101.005 205.239,-100.765 204.855,-100.537C203.985,-100.017 203.116,-99.498 202.246,-98.978C201.183,-99.427 200.119,-99.876 199.055,-100.323C198.611,-100.51 197.982,-100.275 197.599,-100.045C197.213,-99.813 196.827,-99.581 196.441,-99.349C194.987,-99.96 193.531,-100.57 192.076,-101.179C194.86,-102.707 197.898,-103.72 200.771,-105.061C202.271,-105.761 204.129,-106.559 205.163,-107.922C205.276,-108.07 205.38,-108.227 205.456,-108.397C206.043,-109.716 203.731,-109.663 203.023,-109.644C202.767,-109.637 202.511,-109.623 202.255,-109.605C201.984,-109.585 201.708,-109.56 201.438,-109.532C201.01,-109.487 200.584,-109.433 200.158,-109.373C199.588,-109.294 199.018,-109.203 198.45,-109.107C197.804,-108.998 197.16,-108.881 196.516,-108.762C195.049,-108.49 193.583,-108.211 192.114,-107.947C190.939,-107.736 189.763,-107.534 188.582,-107.358C184.959,-106.816 180.291,-106.038 176.901,-107.922C176.929,-108.054 176.93,-108.189 176.926,-108.323C177.541,-108.706 178.155,-109.089 178.77,-109.471C177.009,-110.196 175.246,-110.92 173.484,-111.641C172.598,-111.085 171.712,-110.529 170.826,-109.972C170.247,-110.209 169.667,-110.445 169.087,-110.682C168.635,-110.866 168.007,-110.639 167.622,-110.396C167.056,-110.038 166.491,-109.681 165.925,-109.323C158.861,-104.859 151.807,-100.376 144.766,-95.874C144.224,-95.527 143.681,-95.181 143.139,-94.834C142.907,-94.685 142.483,-94.253 142.928,-94.072C144.083,-93.607 145.237,-93.14 146.391,-92.673C131.854,-83.432 117.367,-74.112 102.936,-64.705C103.462,-64.496 103.987,-64.288 104.513,-64.08C118.965,-73.474 133.472,-82.781 148.031,-92.009C148.361,-91.875 148.691,-91.741 149.021,-91.607L148.835,-91.428C148.133,-90.885 147.451,-90.309 146.836,-89.668C146.463,-89.278 146.111,-88.862 145.824,-88.405C145.648,-88.125 145.496,-87.829 145.394,-87.514C144.56,-84.942 148.14,-83.818 149.957,-83.286C150.344,-83.172 150.733,-83.068 151.124,-82.967C151.723,-82.814 152.325,-82.673 152.928,-82.535C153.709,-82.358 154.491,-82.186 155.271,-82.002C149.56,-78.207 142.924,-76.028 137.356,-71.995C133.975,-69.544 131.54,-66.137 128.518,-63.304C126.786,-62.216 125.055,-61.126 123.325,-60.036C122.278,-60.703 121.012,-61.485 119.724,-61.51C118.991,-61.524 118.181,-61.131 117.515,-60.877C115.924,-60.27 114.369,-59.564 112.829,-58.841C107.938,-56.547 102.994,-54.089 98.528,-51.025C95.222,-48.759 92.493,-45.77 89.652,-42.975C91.771,-46.44 94.458,-50.958 93.406,-55.204C94.937,-56.566 95.925,-58.286 94.546,-60.13C94.134,-60.681 93.634,-61.162 93.142,-61.641C91.402,-63.332 88.848,-64.171 86.589,-64.891C82.415,-66.222 78.089,-67.03 73.931,-68.413C72.527,-68.88 71.124,-69.347 69.727,-69.836C68.63,-70.22 67.539,-70.619 66.454,-71.037C65.543,-71.389 64.639,-71.764 63.747,-72.164C60.065,-73.815 55.261,-76.347 54.68,-80.826C54.44,-82.683 55.475,-84.733 56.304,-86.306C57.558,-88.688 58.894,-91 61.011,-92.722C62.442,-93.883 64.289,-94.44 65.877,-95.338C70.542,-97.968 74.977,-101.125 78.51,-105.184C80.979,-108.024 83.073,-111.165 85.468,-114.065C87.846,-116.947 90.71,-119.522 92.696,-122.713C93.788,-124.47 94.122,-126.577 95.021,-128.427C96.073,-130.587 97.837,-132.435 98.567,-134.747C98.835,-135.589 97.895,-136.547 97.522,-137.188C97.084,-137.947 96.848,-138.785 96.675,-139.641C96.331,-141.369 95.138,-143.51 96.035,-145.267C100.617,-154.195 105.219,-163.418 107.872,-173.142C108.538,-175.586 110.229,-178.882 109.065,-181.471C106.453,-179.751 104.905,-177.15 103.214,-174.595C98.365,-167.245 93.066,-160.201 87.746,-153.19C83.889,-154.815 79.451,-155.132 75.318,-155.271C67.794,-155.525 60.15,-154.847 52.777,-153.33C50.392,-152.838 48.073,-152.054 45.711,-151.463C44.419,-151.14 42.966,-150.685 41.613,-150.816C38.891,-151.077 39.488,-154.707 39.902,-156.521C40.023,-157.055 40.159,-157.585 40.305,-158.113C42.899,-167.53 46.496,-176.717 48.279,-186.347L48.052,-186.347C45.998,-184.86 44.239,-182.958 42.566,-181.068C39.925,-178.084 37.489,-174.916 35.148,-171.694C31.441,-166.59 28.03,-161.284 25.059,-155.717C19.369,-145.057 13.198,-134.626 8.139,-123.639C5.835,-118.632 2.979,-113.847 1.124,-108.641C-0.481,-104.139 -1.093,-99.387 -3.552,-95.213C-6.276,-90.597 -9.888,-86.433 -14.309,-83.374C-16.539,-81.83 -18.889,-80.46 -21.253,-79.134C-22.85,-78.236 -24.425,-77.296 -26.084,-76.514C-26.969,-76.096 -27.918,-75.651 -28.9,-75.531C-34.011,-74.905 -39.056,-73.84 -44.116,-72.907C-49.027,-72 -53.976,-71.279 -58.851,-70.181C-67.187,-68.304 -75.565,-65.321 -82.13,-59.675C-84.845,-57.339 -87.207,-54.624 -89.393,-51.794C-90.308,-55.313 -90.872,-59.408 -92.983,-62.495C-92.145,-64.518 -92.553,-66.351 -92.785,-68.468C-93.086,-71.26 -93.49,-74.038 -93.884,-76.817C-94.14,-78.608 -94.117,-80.912 -96.12,-81.647C-96.494,-81.784 -96.89,-81.861 -97.286,-81.903C-97.092,-82.482 -96.967,-83.085 -96.94,-83.695C-96.786,-87.265 -100.094,-89.686 -102.755,-91.422C-103.359,-91.816 -103.972,-92.195 -104.584,-92.575C-105.173,-92.941 -105.764,-93.303 -106.346,-93.68C-107.851,-96.545 -111.307,-97.913 -114.195,-98.842C-120.51,-100.872 -127.18,-101.486 -133.548,-103.321C-134.481,-103.351 -135.307,-103.067 -136.197,-102.833C-136.663,-103.687 -137.6,-103.662 -138.449,-103.808C-142.658,-104.53 -146.938,-104.749 -151.155,-105.434C-153.597,-105.833 -155.994,-106.474 -158.414,-106.981C-160.008,-107.314 -161.686,-107.668 -163.325,-107.559C-164.349,-107.492 -165.257,-106.6 -166.287,-106.742C-166.69,-106.797 -166.502,-107.345 -166.877,-107.559C-167.32,-107.814 -167.902,-107.668 -168.333,-107.886C-169.115,-108.29 -169.745,-108.887 -170.64,-109.037C-172.902,-109.413 -175.227,-108.857 -177.509,-109.037C-181.341,-109.336 -184.971,-110.823 -188.82,-109.858C-191.119,-110.922 -193.46,-111.893 -195.742,-112.992C-195.977,-116.285 -200.048,-117.189 -201.202,-119.997C-200.894,-120.569 -200.483,-121.086 -200.048,-121.565C-199.661,-121.993 -199.256,-122.402 -198.846,-122.808C-198.533,-123.116 -198.219,-123.422 -197.908,-123.731C-196.654,-124.977 -194.611,-127.016 -196.192,-128.8C-196.493,-129.139 -196.859,-129.417 -197.241,-129.659C-191.441,-135.665 -190.575,-144.971 -189.292,-152.746C-189.034,-153.401 -190.235,-153.323 -189.935,-153.999C-189.576,-157.338 -189.537,-160.742 -190.101,-164.061C-190.455,-166.148 -191.054,-168.197 -191.953,-170.116C-196.758,-180.371 -208.75,-183.637 -219.124,-184.593C-221.015,-184.767 -222.913,-184.872 -224.812,-184.923L-230.362,-184.923C-232.804,-184.788 -235.243,-184.588 -237.673,-184.301C-239.436,-184.092 -241.194,-183.838 -242.941,-183.526C-252.864,-181.753 -263.804,-177.902 -268.923,-168.52C-269.837,-166.845 -270.532,-165.055 -271.019,-163.21C-271.888,-159.906 -272.281,-156.487 -272.691,-153.103C-273.114,-149.658 -273.839,-146.143 -273.494,-142.654C-272.849,-136.276 -270.481,-130.135 -270.303,-123.705C-269.44,-123.208 -268.85,-122.427 -268.219,-121.679C-267.128,-120.381 -265.696,-119.509 -265.666,-117.651C-263.671,-116.083 -261.126,-115.286 -258.763,-114.485C-258.317,-113.044 -257.938,-111.576 -257.343,-110.187C-259.771,-108.483 -262.62,-107.47 -265.054,-105.761C-265.571,-105.398 -266.095,-105.042 -266.612,-104.678C-268.477,-103.365 -271.573,-101.223 -270.538,-98.491C-270.383,-98.08 -270.154,-97.701 -269.89,-97.352C-270.013,-97.02 -270.596,-97.126 -270.845,-97.159C-271.579,-97.253 -272.662,-97.604 -273.37,-97.192C-273.665,-96.638 -273.34,-96.237 -272.857,-95.958C-272.168,-95.561 -270.603,-95.218 -270.644,-94.157C-271.949,-94.266 -273.224,-94.042 -274.43,-93.538C-275.977,-92.892 -277.365,-91.891 -279.001,-91.459C-279.291,-90.006 -280.551,-89.125 -281.808,-88.527C-282.339,-88.275 -282.886,-88.061 -283.436,-87.856C-285.346,-87.145 -288.342,-86.481 -289.311,-84.391C-290.112,-84.345 -291.227,-84.656 -291.965,-84.234C-298.49,-81.501 -303.051,-75.883 -309.197,-72.548C-310.009,-70.214 -311.779,-68.269 -312.881,-66.07C-313.119,-65.597 -313.352,-65.121 -313.568,-64.638C-313.748,-64.238 -313.918,-63.834 -314.074,-63.424C-314.762,-61.609 -315.706,-58.319 -313.261,-57.338C-313.18,-56.056 -313.156,-54.771 -313.152,-53.487C-313.135,-48.813 -313.506,-43.433 -310.343,-39.568C-308.862,-37.754 -306.589,-35.478 -307.601,-32.898C-307.846,-32.267 -308.722,-31.979 -309.229,-31.634C-311.058,-32.399 -312.929,-33.057 -314.764,-33.807C-316.524,-34.523 -318.274,-35.266 -320.046,-35.953C-321.88,-36.666 -323.804,-37.145 -325.598,-37.96C-327.713,-38.915 -329.54,-40.39 -331.639,-41.376C-334.042,-42.507 -336.659,-43.077 -339.128,-44.037C-342.048,-45.173 -344.633,-46.667 -347.862,-46.242C-347.286,-47.266 -348.279,-48.536 -349.091,-49.094C-346.848,-49.831 -348.307,-52.916 -348.009,-54.536C-344.406,-56.478 -343.07,-60.342 -340.78,-63.496C-338.37,-62.544 -335.775,-62.071 -333.183,-62.279C-328.714,-62.639 -324.613,-64.974 -321.509,-68.131C-315.565,-74.181 -314.447,-82.914 -315.228,-91.016C-315.505,-93.919 -315.806,-96.843 -316.491,-99.684C-316.895,-101.36 -317.431,-103.059 -318.368,-104.52C-319.432,-106.183 -321.365,-107.218 -323.131,-107.966C-327.115,-109.655 -331.725,-110.39 -336.039,-109.97C-338.399,-109.74 -341.407,-109.089 -342.713,-106.87C-351.377,-114.556 -362.787,-119.072 -374.241,-120.274C-376.766,-120.54 -379.109,-119.849 -381.609,-119.716C-383.851,-119.599 -386.069,-120.083 -388.307,-120.088C-392.766,-120.098 -397.293,-119.491 -401.227,-117.261C-403.542,-115.949 -405.514,-114.155 -407.666,-112.607C-409.414,-111.35 -411.294,-110.31 -413.328,-109.596C-414.315,-110.819 -415.692,-111.685 -417.136,-112.271C-420.446,-113.615 -424.699,-113.792 -427.871,-111.97C-431.336,-109.98 -431.82,-105.425 -433.515,-102.184C-435.132,-99.094 -437.949,-95.471 -437.231,-91.717C-436.094,-85.751 -432.217,-81.074 -428.863,-76.194C-426.978,-73.454 -425.383,-70.353 -422.843,-68.131C-418.248,-64.112 -412.137,-62.513 -406.118,-63.167C-402.476,-63.562 -399.206,-65.851 -399.191,-69.798C-399.189,-70.8 -400.075,-72.049 -398.796,-72.626C-398.599,-72.715 -398.388,-72.774 -398.176,-72.817C-396.412,-69.835 -395.653,-66.191 -393.17,-63.661C-394.37,-63.661 -395.184,-63.18 -396.243,-62.674C-396.371,-60.972 -396.915,-59.326 -396.912,-57.611C-398.864,-56.376 -399.375,-53.853 -401.314,-52.608C-403.219,-52.661 -405.124,-52.511 -406.986,-52.09C-408.834,-51.673 -410.607,-50.986 -412.444,-50.528C-413.529,-50.258 -414.657,-50.194 -415.733,-49.889C-417.029,-49.523 -418.191,-48.795 -419.498,-48.458C-420.812,-48.119 -422.2,-48.196 -423.506,-47.824C-424.805,-47.453 -425.833,-46.492 -427.117,-46.084C-432.618,-44.329 -438.655,-44.712 -444.052,-42.627C-446.304,-41.756 -447.645,-39.628 -449.769,-38.579C-449.96,-39.015 -450.235,-39.414 -450.515,-39.798C-451.611,-41.866 -452.708,-43.933 -453.806,-46C-450.647,-46.358 -447.488,-46.716 -444.33,-47.073C-443.001,-47.726 -441.672,-48.378 -440.343,-49.029C-440.446,-49.804 -440.548,-50.58 -440.65,-51.355C-434.75,-52.671 -428.848,-53.983 -422.946,-55.289C-425.077,-58.953 -427.217,-62.613 -429.364,-66.269C-440.358,-65.059 -451.352,-63.844 -462.345,-62.625L-462.473,-62.923C-462.916,-63.621 -463.329,-64.508 -462.991,-65.333C-462.544,-66.427 -461.12,-66.971 -461.339,-68.318C-461.382,-68.579 -461.473,-68.831 -461.585,-69.07C-466.254,-78.97 -471.172,-88.762 -476.074,-98.549C-477.769,-101.932 -479.471,-105.313 -481.207,-108.676C-482.184,-110.57 -483.119,-112.514 -484.24,-114.33C-485.849,-116.927 -488.561,-118.535 -491.322,-119.669C-493.436,-123.434 -495.555,-127.195 -497.678,-130.955C-498.46,-131.098 -499.245,-131.222 -500.031,-131.341C-500.585,-132.344 -501.14,-133.347 -501.695,-134.349C-504.579,-135.471 -507.925,-135.783 -510.987,-135.783C-512.942,-135.783 -514.944,-135.486 -516.728,-134.653C-517.431,-134.324 -518.222,-133.892 -518.738,-133.292C-516.255,-129.024 -513.778,-124.754 -511.304,-120.481C-512.527,-119.146 -513.746,-117.808 -514.961,-116.467C-514.658,-116.134 -514.356,-115.801 -514.053,-115.468C-512.297,-115.263 -510.54,-115.057 -508.783,-114.852C-509.198,-112.973 -509.939,-110.115 -508.929,-108.252C-503.902,-98.988 -498.743,-89.791 -493.604,-80.59C-492.034,-77.779 -490.462,-74.968 -488.864,-72.173C-488.108,-70.851 -487.421,-69.368 -486.469,-68.167C-485.881,-67.422 -484.872,-67.036 -484.023,-66.698C-482.219,-65.98 -479.64,-65.339 -478.651,-63.433C-478.641,-63.417 -478.629,-63.402 -478.619,-63.385C-477.926,-62.158 -477.233,-60.932 -476.541,-59.704C-478.097,-59.611 -479.653,-59.517 -481.209,-59.423C-481.553,-59.268 -481.897,-59.112 -482.241,-58.956C-479.841,-56.792 -476.69,-55.131 -473.54,-54.387C-472.077,-51.792 -470.615,-49.195 -469.156,-46.597C-469.36,-44.687 -471.243,-43.442 -471.496,-41.532C-471.867,-38.744 -470.692,-35.986 -471.097,-33.194C-471.957,-32.781 -472.936,-32.683 -473.805,-32.283C-474.138,-32.13 -474.536,-31.903 -474.63,-31.518C-474.724,-31.128 -474.456,-30.669 -474.288,-30.343C-473.953,-29.693 -473.555,-29.055 -473.378,-28.338C-473.251,-27.839 -473.543,-27.318 -473.38,-26.832C-472.755,-25.017 -471.621,-23.403 -470.748,-21.705C-471.645,-22.04 -472.55,-22.354 -473.451,-22.677C-474.376,-23.008 -475.419,-23.1 -476.383,-23.244C-477.889,-23.47 -479.4,-23.661 -480.912,-23.841C-482.925,-27.157 -484.941,-30.471 -486.959,-33.783C-485.35,-33.984 -483.74,-34.186 -482.133,-34.408C-488.292,-41.19 -494.483,-47.944 -500.704,-54.669C-503.858,-57.001 -507.289,-58.999 -510.703,-60.919C-516.962,-64.44 -523.459,-67.537 -530.099,-70.267C-553.247,-79.785 -578.342,-84.974 -603.394,-84.974C-607.704,-84.974 -612.015,-84.849 -616.315,-84.563C-619.591,-84.345 -622.86,-84.033 -626.114,-83.603C-635.381,-82.377 -644.794,-80.267 -653.161,-75.967C-657.839,-73.562 -662.254,-70.382 -665.401,-66.117C-681.012,-66.761 -696.623,-67.404 -712.234,-68.046C-714.616,-69.928 -717.714,-71.887 -720.849,-72.017C-721.026,-72.024 -721.202,-72.02 -721.379,-72.008C-724.342,-73.88 -727.87,-75.705 -731.447,-75.851C-731.561,-75.856 -731.673,-75.846 -731.787,-75.846C-735.053,-77.397 -738.645,-78.694 -742.293,-78.844C-744.197,-78.922 -746.586,-78.681 -747.825,-77.026C-748.231,-77.088 -748.64,-77.135 -749.051,-77.153C-750.817,-77.226 -752.9,-76.691 -753.14,-74.643C-753.461,-74.618 -753.782,-74.564 -754.088,-74.46C-756.212,-73.738 -755.441,-71.244 -754.614,-69.783C-756.053,-69.842 -757.492,-69.902 -758.932,-69.961C-762.793,-72.875 -767.285,-75.053 -771.734,-76.902C-777.18,-79.164 -783.058,-81.088 -788.996,-81.332C-794.797,-81.569 -800.607,-81.372 -806.118,-79.406C-808.328,-78.617 -807.653,-75.715 -806.86,-74.174C-806.7,-73.864 -806.525,-73.562 -806.338,-73.267C-806.067,-72.837 -805.773,-72.423 -805.463,-72.021C-805.098,-71.548 -804.713,-71.092 -804.313,-70.649C-803.848,-70.132 -803.363,-69.633 -802.865,-69.148C-802.773,-69.055 -802.38,-68.676 -802.288,-68.585C-798.855,-65.238 -794.738,-62.579 -790.502,-60.366C-788.467,-59.302 -786.302,-58.16 -784.062,-57.586C-777.168,-55.815 -770.093,-54.843 -762.984,-54.552C-759.115,-54.395 -753.59,-55.267 -752.661,-59.818C-752.536,-60.43 -752.518,-61.062 -752.595,-61.681C-752.692,-62.462 -752.941,-63.221 -753.305,-63.918C-751.885,-63.86 -750.466,-63.802 -749.046,-63.744C-746.044,-61.376 -742.344,-59.046 -738.469,-58.518C-735.812,-57.087 -732.791,-55.722 -729.726,-55.597C-729.381,-55.583 -729.035,-55.593 -728.692,-55.627C-725.908,-54.437 -722.905,-53.454 -719.857,-53.33C-717.863,-53.248 -715.306,-53.57 -714.258,-55.533C-714.139,-55.524 -714.022,-55.504 -713.903,-55.5C-711.844,-55.416 -709.901,-56.316 -710.043,-58.638C-709.856,-58.614 -709.667,-58.594 -709.478,-58.587C-708.094,-58.53 -706.773,-59.156 -706.89,-60.739C-706.922,-61.182 -707.045,-61.616 -707.205,-62.028C-694.288,-61.499 -681.372,-60.968 -668.455,-60.437C-669.077,-58.673 -669.591,-56.645 -669.429,-54.763C-666.631,-48.316 -663.787,-41.889 -660.899,-35.482C-658.605,-35.206 -656.308,-34.948 -654.012,-34.692C-651.563,-31.335 -649.11,-27.981 -646.654,-24.63C-648.563,-24.384 -650.472,-24.123 -652.365,-23.775C-653.068,-23.646 -654.141,-23.597 -654.765,-23.161C-654.967,-23.019 -655.17,-22.879 -655.373,-22.738C-656.243,-22.13 -658.15,-20.853 -656.524,-19.972C-656.145,-19.767 -655.6,-19.753 -655.185,-19.691C-654.185,-19.542 -653.179,-19.43 -652.173,-19.321C-648.814,-18.958 -645.447,-18.672 -642.08,-18.399C-639.806,-15.302 -637.529,-12.208 -635.25,-9.116C-636.909,-8.896 -638.569,-8.664 -640.214,-8.355C-640.842,-8.237 -641.762,-8.191 -642.313,-7.806C-642.507,-7.67 -642.704,-7.536 -642.899,-7.4C-643.734,-6.82 -645.579,-5.595 -644.013,-4.749C-643.669,-4.563 -643.178,-4.548 -642.802,-4.492C-641.9,-4.356 -640.993,-4.254 -640.087,-4.155C-637.051,-3.823 -634.007,-3.563 -630.963,-3.313C-628.524,-0.013 -626.081,3.285 -623.636,6.58C-626.417,6.677 -629.299,6.603 -632.066,6.991C-632.246,7.116 -632.42,7.25 -632.586,7.393C-633.126,7.857 -634.394,9.299 -633.224,9.803C-632.282,10.206 -630.779,10.024 -629.821,10.051C-627.224,10.124 -624.624,10.137 -622.026,10.148C-623.267,10.335 -624.547,10.524 -625.735,10.945C-625.819,10.975 -626.815,11.329 -626.582,11.587C-625.718,12.912 -624.853,14.237 -623.987,15.56C-625.217,15.557 -626.446,15.551 -627.676,15.551C-627.835,15.551 -627.995,15.551 -628.154,15.552C-628.296,15.554 -628.438,15.556 -628.58,15.558C-628.706,15.561 -628.831,15.564 -628.957,15.568C-629.206,15.577 -630.849,15.506 -630.509,16.146C-630.222,16.69 -630.048,17.364 -629.84,17.933C-629.351,19.268 -628.866,20.605 -628.376,21.94C-626.76,26.343 -625.294,30.917 -623.321,35.187C-622.718,36.496 -621.21,37.302 -619.823,37.464C-619.581,38.067 -619.339,38.67 -619.096,39.273C-620.801,39.341 -622.507,39.416 -624.211,39.507C-625.081,39.553 -626.083,39.489 -626.94,39.708C-627.009,39.726 -626.833,40.07 -626.82,40.096C-626.711,40.325 -626.589,40.55 -626.467,40.772C-625.739,42.092 -624.945,43.376 -624.155,44.658C-623.893,45.083 -623.629,45.507 -623.365,45.93C-654.706,39.345 -686.069,32.86 -717.45,26.466C-718.386,26.275 -719.487,26.11 -720.406,26.454C-723.17,25.892 -725.934,25.33 -728.699,24.769C-732.061,20.795 -736.922,18.022 -741.66,16.027C-745.129,13.802 -748.988,12.014 -753.043,11.19C-753.619,11.073 -754.2,10.977 -754.784,10.908C-757.603,10.573 -761.799,10.761 -762.919,13.965C-763.065,14.382 -763.142,14.821 -763.161,15.262C-763.19,15.939 -763.087,16.617 -762.91,17.269C-762.632,18.289 -762.174,19.255 -761.639,20.164C-760.006,22.936 -757.651,25.269 -755.156,27.268C-750.765,30.787 -745.455,33.682 -739.884,34.793C-737.363,35.295 -734.209,35.589 -731.984,34.025C-729.323,33.792 -725.928,32.556 -726.357,29.285C-723.623,29.837 -720.89,30.391 -718.157,30.945C-717.049,31.557 -715.833,31.996 -714.593,32.247C-682.922,38.668 -651.27,45.18 -619.639,51.794C-617.821,54.61 -615.981,57.413 -614.105,60.191C-613.474,61.124 -612.841,62.056 -612.19,62.975C-611.979,63.272 -611.655,63.903 -611.316,64.12C-610.828,64.433 -610.137,64.559 -609.601,64.736C-608.394,65.134 -607.181,65.515 -605.968,65.896C-602.455,66.998 -598.935,68.078 -595.412,69.149C-594.984,70.286 -594.59,71.436 -594.205,72.588C-593.808,73.77 -592.275,74.446 -591.186,74.757C-589.655,75.253 -588.125,75.749 -586.594,76.246C-585.257,78.308 -583.916,80.367 -582.573,82.425C-582.651,82.424 -582.729,82.422 -582.806,82.422C-583.345,82.422 -583.884,82.441 -584.42,82.484C-586.788,82.676 -591.008,83.681 -590.213,86.947C-590.091,87.448 -589.866,87.92 -589.595,88.356C-589.206,88.982 -588.718,89.543 -588.194,90.058C-584.261,93.926 -578.328,96.029 -573.002,96.981C-571.322,99.519 -569.638,102.054 -567.949,104.587C-568.176,104.58 -568.403,104.576 -568.629,104.576C-569.13,104.576 -569.632,104.593 -570.131,104.633C-572.316,104.804 -576.414,105.737 -575.504,108.814C-575.387,109.211 -575.2,109.584 -574.979,109.933C-574.619,110.499 -574.169,111.005 -573.686,111.468C-569.903,115.098 -564.171,116.995 -559.096,117.791C-557.54,120.097 -555.98,122.402 -554.417,124.704C-554.759,124.689 -555.102,124.678 -555.444,124.678C-555.912,124.678 -556.379,124.694 -556.845,124.729C-558.794,124.877 -562.729,125.67 -561.901,128.492C-561.795,128.85 -561.625,129.186 -561.423,129.498C-561.093,130.01 -560.679,130.465 -560.236,130.88C-556.615,134.273 -551.1,135.966 -546.289,136.626C-544.881,138.68 -543.471,140.733 -542.059,142.784C-542.43,142.766 -542.8,142.755 -543.171,142.755C-543.608,142.755 -544.045,142.769 -544.481,142.801C-544.797,142.824 -545.112,142.856 -545.426,142.9C-547.051,143.13 -549.903,143.962 -549.268,146.182C-549.176,146.504 -549.022,146.806 -548.839,147.086C-548.538,147.548 -548.159,147.955 -547.753,148.327C-544.342,151.452 -539.136,152.939 -534.65,153.503C-534.312,153.99 -533.975,154.478 -533.637,154.965C-534.952,155.475 -536.267,155.987 -537.582,156.499C-536.514,158.348 -535.443,160.195 -534.37,162.042C-532.414,163.869 -530.459,165.696 -528.503,167.522C-527.963,167.598 -527.423,167.673 -526.883,167.749C-525.424,168.98 -523.924,170.181 -522.516,171.471C-522.187,171.772 -521.401,171.836 -521.007,171.94C-519.572,172.32 -518.127,172.663 -516.682,173.005C-513.3,173.804 -509.909,174.568 -506.511,175.304C-504.798,175.674 -502.946,176.268 -501.176,176.368C-495.799,176.673 -490.356,176.467 -484.976,176.5C-475.625,176.557 -466.273,176.65 -456.922,176.65C-451.76,176.65 -446.578,176.255 -441.42,176.047C-430.708,175.614 -419.996,175.175 -409.285,174.733C-399.465,173.718 -389.644,172.704 -379.824,171.692C-373.867,170.394 -367.909,169.098 -361.951,167.805C-359.996,170.419 -355.963,171.062 -352.985,171.595C-352.456,172.402 -352.899,173.562 -352.053,174.233C-351.51,174.664 -350.686,174.785 -350.026,174.9C-348.603,175.149 -347.147,175.234 -345.704,175.262C-341.463,175.344 -337.083,175.035 -332.987,173.869C-331.091,173.33 -329.212,172.831 -327.231,172.767C-322.353,172.61 -317.4,173.951 -312.553,173.074C-310.866,172.768 -309.204,172.251 -307.621,171.595C-304.845,170.444 -301.308,168.832 -300.347,165.696C-296.249,165.566 -292.174,165.85 -288.095,166.215C-287.178,164.206 -288.868,162.058 -289.047,160.07C-288.538,160.005 -288.027,159.945 -287.517,159.883C-287.172,159.841 -286.827,159.797 -286.483,159.75C-286.15,159.703 -285.816,159.653 -285.485,159.595C-284.571,159.434 -282.971,159.237 -282.47,158.303C-282.007,157.441 -283.169,156.156 -283.408,155.401C-283.753,154.319 -283.885,153.191 -284.112,152.083C-287.941,133.496 -290.618,114.686 -293.749,95.975C-293.274,95.913 -292.8,95.852 -292.326,95.784C-291.96,95.731 -291.594,95.674 -291.23,95.607C-289.84,95.349 -287.58,94.853 -287.662,93.021C-285.483,92.244 -285.638,90.041 -284.798,88.212C-284.304,87.137 -283.066,86.087 -283.014,84.845C-282.924,82.672 -285.208,81.038 -284.827,78.804C-283.712,78.453 -282.543,78.325 -281.416,78.024C-280.849,77.872 -280.171,77.672 -279.779,77.197C-279.746,77.446 -279.71,77.695 -279.661,77.942C-278.944,81.464 -278.481,85.031 -278.007,88.592C-277.807,90.077 -276.931,91.367 -276.696,92.84C-276.58,93.562 -276.456,94.29 -276.205,94.979C-275.959,95.651 -275.403,96.208 -275.269,96.92C-275.139,97.594 -275.561,98.211 -275.701,98.845C-276.275,101.434 -275.469,104.139 -275.164,106.702C-274.899,108.91 -274.732,111.195 -273.945,113.296C-272.366,117.52 -267.668,119.724 -263.855,121.463C-263.649,122.134 -263.107,122.622 -262.798,123.239C-263.769,124.166 -265.123,124.529 -266.247,125.216C-267.186,125.791 -267.704,126.614 -267.308,127.717C-266.02,131.306 -262.507,134.55 -258.839,135.554C-258.157,138.79 -257.962,142.119 -257.801,145.413C-257.757,146.295 -258.474,148.104 -257.348,148.612C-258.701,149.675 -257.198,150.786 -257.426,152.068C-257.478,152.361 -257.865,152.529 -257.842,152.84C-257.808,153.284 -257.117,153.47 -257.166,153.925C-257.204,154.309 -257.765,154.504 -257.955,154.814C-258.095,155.043 -258.003,155.279 -258.235,155.445C-258.813,155.858 -257.827,156.202 -257.814,156.637C-258.633,157 -258.418,157.955 -259.125,158.376C-258.658,158.783 -259.16,159.406 -259.088,159.909C-259.427,160.043 -259.734,160.266 -259.486,160.64C-260.303,161.052 -262.139,161.238 -262.432,162.331C-262.976,162.292 -263.467,162.499 -263.986,162.629C-264.795,162.832 -265.728,162.937 -266.272,163.644C-267.255,163.9 -268.269,164.044 -269.238,164.356C-269.4,164.583 -269.507,164.838 -269.481,165.122C-272.215,166.015 -274.909,166.764 -277.787,166.99C-282.372,167.349 -286.97,166.722 -291.556,166.99C-291.902,167.01 -292.255,167.035 -292.595,167.106C-293.511,167.296 -293.787,167.863 -294.45,168.431C-294.808,168.738 -295.406,168.909 -295.632,169.346C-296.266,170.574 -294.109,171.183 -293.327,171.411C-293.092,171.479 -292.855,171.542 -292.618,171.601C-292.302,171.68 -291.984,171.752 -291.666,171.821C-291.298,171.9 -290.93,171.975 -290.562,172.051C-285.091,173.186 -279.453,173.452 -273.882,173.493C-266.124,173.551 -258.482,171.834 -250.72,172.051C-250.889,172.57 -251.085,173.231 -250.88,173.769L-244.875,173.769C-244.928,174.02 -244.949,174.293 -244.855,174.538C-245.224,174.741 -246.473,175.334 -246.034,175.951C-245.877,176.173 -245.493,176.24 -245.254,176.301C-244.511,176.491 -243.745,176.582 -242.989,176.707C-239.141,177.341 -235.239,177.646 -231.349,177.884C-228.484,178.058 -225.604,178.306 -222.732,178.15C-220.196,178.012 -217.603,177.785 -215.141,177.136C-213.436,176.687 -212.152,175.531 -210.669,174.646C-210.027,174.261 -209.185,173.898 -208.423,173.879C-207.567,173.858 -206.778,174.266 -205.93,174.264C-204.647,174.259 -203.349,173.885 -202.11,173.603C-201.096,173.374 -199.733,173.234 -198.921,172.496C-198.453,172.073 -198.459,171.567 -198.323,170.987C-197.927,169.299 -197.357,167.321 -197.885,165.592C-198.012,165.178 -198.651,164.515 -198.465,164.059C-198.194,163.387 -197.049,163.335 -196.833,162.629C-196.637,161.989 -197.47,161.639 -197.675,161.125C-196.882,160.588 -196.416,159.833 -196.338,158.878C-196.265,157.985 -196.456,157.045 -196.111,156.191C-195.867,156.047 -195.618,155.911 -195.363,155.788C-194.102,155.18 -192.76,154.741 -191.433,154.304C-186.317,152.627 -181.105,151.24 -175.888,149.916C-175.136,149.726 -174.297,149.378 -173.51,149.353C-172.613,149.324 -171.745,150.43 -171.062,150.835C-170.257,151.312 -169.386,151.766 -168.688,152.404C-167.477,153.507 -166.755,155.023 -165.554,156.131C-164.353,155.853 -163.434,155.163 -162.492,154.403C-161.672,154.913 -161.249,155.659 -160.859,156.524C-160.766,156.728 -160.456,157.053 -160.547,157.305C-160.731,157.814 -161.436,158.03 -161.744,158.468C-162.171,159.081 -162.482,159.766 -162.897,160.387C-163.303,160.994 -163.776,161.576 -164.105,162.231C-164.268,162.551 -164.079,162.757 -164.023,163.075C-164.669,163.61 -165.423,164.045 -165.961,164.7C-166.23,165.027 -166.267,165.477 -166.547,165.802C-167.028,166.366 -167.824,166.554 -168.376,167.034C-169.14,167.694 -169.315,168.626 -169.885,169.416C-170.06,169.658 -170.365,169.78 -170.52,170.039C-170.841,170.576 -170.748,171.207 -170.847,171.8C-170.94,172.361 -171.1,172.92 -171.062,173.495C-167.735,173.767 -164.381,173.576 -161.05,173.538C-157.736,173.503 -154.421,173.641 -151.107,173.538C-149.892,173.501 -148.664,173.271 -147.733,172.436C-147.266,172.018 -146.875,171.526 -146.464,171.054C-146.193,170.742 -146.085,170.349 -145.886,169.995C-145.646,169.569 -145.227,169.253 -145.048,168.791C-144.894,168.398 -145.149,167.976 -145.02,167.576C-144.703,166.577 -144,165.75 -143.543,164.818C-143.293,164.308 -143.058,163.668 -143.338,163.121C-141.742,162.405 -141.48,160.779 -140.384,159.574C-139.946,159.095 -139.31,158.82 -138.806,158.419C-138.323,158.035 -137.981,157.511 -137.514,157.109C-137.212,156.846 -136.792,156.75 -136.498,156.475C-135.333,155.386 -134.648,153.899 -133.425,152.856C-132.165,154.036 -131.379,155.542 -130.51,157.012C-130.199,157.537 -129.804,158.024 -130.209,158.613C-129.093,158.127 -128.341,157.271 -127.496,156.425C-125.878,154.802 -124.543,152.901 -123.375,150.936C-122.773,149.925 -122.42,148.756 -121.573,147.906C-120.883,147.214 -119.72,146.99 -118.881,146.554C-117.997,146.093 -117.257,145.401 -116.26,145.186C-115.552,145.802 -116.05,146.838 -116.145,147.595C-116.251,148.424 -115.985,149.355 -116.426,150.121C-117.063,151.231 -118.378,152.006 -119.286,152.856C-121.595,155.017 -124.067,157.086 -125.668,159.861C-125.931,160.317 -125.965,160.904 -126.348,161.288C-126.655,161.596 -127.129,161.679 -127.431,161.996C-127.651,162.226 -127.864,162.463 -128.069,162.706C-128.24,162.909 -128.405,163.116 -128.564,163.328C-129.05,163.977 -130.324,165.647 -129.537,166.533C-129.373,166.718 -129.065,166.817 -128.844,166.897C-126.774,167.658 -124.397,167.758 -122.231,167.982C-120.811,168.132 -119.422,167.334 -117.993,167.486C-117.265,167.564 -116.463,167.825 -115.895,168.298C-115.488,168.637 -115.437,169.235 -115.05,169.595C-114.273,170.317 -113.043,170.579 -112.041,170.79C-109.569,171.31 -106.992,171.406 -104.475,171.319C-100.945,171.196 -97.422,170.9 -93.911,170.525C-92.558,170.382 -90.92,170.392 -89.682,169.728C-88.966,169.343 -88.182,168.674 -87.762,167.982C-87.595,167.71 -87.843,167.446 -87.756,167.169C-87.659,166.861 -87.44,166.586 -87.407,166.26C-87.301,165.225 -88.886,164.742 -89.579,164.441C-89.832,164.331 -90.084,164.221 -90.331,164.099C-90.932,163.8 -91.469,163.391 -92.086,163.121C-92.603,162.895 -93.177,162.828 -93.71,162.646C-93.877,162.59 -94.213,162.494 -94.245,162.279C-94.271,162.099 -94.051,161.996 -93.92,161.934C-93.621,161.792 -93.127,161.64 -93.098,161.241C-93.205,160.989 -93.584,160.931 -93.812,160.891C-94.43,160.783 -95.111,160.822 -95.698,160.576C-96.122,160.398 -96.291,159.841 -96.496,159.479C-97.115,158.385 -98.127,157.227 -98.094,155.885C-98.047,154.045 -96.09,152.391 -94.839,151.288C-94.423,150.921 -93.996,150.565 -93.564,150.218C-93.068,149.818 -92.564,149.429 -92.057,149.044C-91.477,149.836 -92.068,150.932 -91.556,151.749C-89.932,150.249 -88.92,148.228 -87.373,146.658C-87.412,149.041 -86.391,151.247 -85.645,153.457C-85.075,155.145 -85.477,156.975 -85.439,158.709C-85.414,159.687 -84.753,159.893 -83.879,159.861C-83.252,159.753 -83.189,158.936 -82.658,158.661C-82.373,158.565 -82.558,158.799 -82.506,158.95C-82.336,159.418 -82.064,159.864 -81.582,160.052C-78.458,158.782 -75.559,157.059 -72.555,155.541C-69.636,154.067 -66.412,152.571 -64.247,150.019C-63.39,151.976 -63.447,154.175 -62.755,156.181C-62.105,156.013 -61.517,155.719 -60.932,155.394C-58.314,153.938 -55.965,152.049 -53.488,150.376C-52.209,149.514 -50.921,148.664 -49.608,147.855C-48.155,146.96 -46.516,146.085 -45.445,144.711C-45.107,144.275 -45.049,143.689 -44.677,143.275C-43.665,142.146 -42.159,141.62 -41.026,140.634C-39.636,139.424 -38.659,137.871 -37.577,136.397C-34.281,131.908 -30.869,127.504 -27.501,123.068C-22.747,116.805 -18.213,110.381 -13.691,103.95C0.686,83.504 15.461,63.341 29.72,42.811C30.885,42.437 31.993,41.847 33.03,41.203C33.724,40.772 34.41,40.302 35.006,39.742C37.677,39.213 40.311,38.506 42.911,37.705C38.289,44.173 33.301,50.482 29.173,57.29C27.596,59.892 26.584,62.618 24.345,64.76C24.102,65.304 24.792,65.523 24.707,66.046C24.473,67.47 23.004,68.784 22.065,69.725C19.779,72.017 17.238,74.044 15.003,76.388C14.764,76.64 14.528,76.896 14.3,77.158C13.512,78.065 11.751,80.152 13.393,81.12C9.35,84.014 5.412,87.071 1.663,90.339C-1.066,92.719 -3.79,95.216 -6.008,98.092C-6.549,98.795 -7.047,99.543 -7.416,100.352C-7.63,100.823 -7.801,101.319 -7.881,101.832C-8.399,105.152 -4.453,106.14 -1.941,106.442C-1.45,106.501 -0.957,106.543 -0.464,106.572C0.165,106.61 0.794,106.626 1.424,106.628C2.217,106.63 3.011,106.608 3.803,106.568C4.899,106.514 5.992,106.427 7.083,106.316C3.201,112.818 -1.015,119.166 -4.464,125.919C-5.445,127.837 -5.834,130.018 -7.199,131.734C-8.058,132.814 -9.334,133.53 -10.362,134.429C-10.944,134.939 -11.329,135.653 -11.984,136.081C-13.401,137.009 -15.233,137.146 -16.711,137.99C-18.028,138.74 -19.104,139.781 -20.317,140.676C-25.35,142.645 -30.121,145.223 -34.384,148.557C-35.726,149.607 -37.281,150.37 -38.573,151.485C-39.29,152.102 -39.752,152.953 -40.497,153.54C-42.205,154.885 -44.329,155.637 -46.172,156.772C-48.058,157.934 -50.096,159.261 -51.482,161.022C-52.658,162.518 -55.046,163.275 -55.724,165.146C-56.613,165.63 -57.48,166.209 -58.204,166.92C-58.515,167.226 -58.883,167.607 -58.982,168.048C-59.068,168.432 -58.382,168.587 -58.171,168.783C-57.907,169.029 -57.966,169.462 -57.582,169.586C-56.806,169.836 -55.916,169.803 -55.115,169.798C-53.695,169.789 -52.276,169.695 -50.857,169.659C-48.519,169.599 -46.186,169.443 -43.853,169.294C-42.893,168.984 -42.487,167.993 -41.595,167.606C-37.855,167.101 -34.013,167.372 -30.277,167.754C-30.656,168.007 -30.787,168.422 -31.119,168.71C-31.535,169.068 -32.098,169.198 -32.544,169.513C-33.421,170.133 -34.231,170.897 -34.905,171.733C-35.143,172.028 -35.491,172.421 -35.529,172.819C-35.573,173.279 -34.614,173.41 -34.326,173.463C-32.872,173.728 -31.352,173.716 -29.88,173.668C-27.499,173.592 -25.158,173.111 -22.791,172.891C-22.278,172.95 -21.773,173.094 -21.373,173.433C-20.957,173.784 -20.682,174.253 -20.148,174.442C-19.183,174.782 -18.011,174.723 -17.009,174.72C-15.237,174.715 -13.466,174.604 -11.697,174.512C-3.107,174.065 5.471,173.095 13.954,171.679C14.134,171.568 14.312,171.453 14.488,171.336C14.62,171.248 14.75,171.158 14.879,171.066C15.189,170.843 16.725,169.72 15.556,169.54C15.431,169.521 15.305,169.515 15.179,169.513C15.393,169.347 15.601,169.171 15.792,168.978C15.912,168.856 16.026,168.726 16.12,168.584C16.88,167.432 14.908,167.156 14.196,167.058C12.623,166.84 11.03,166.823 9.451,166.668C8.581,166.583 7.509,166.519 6.733,166.047C6.243,165.803 7.012,165.465 6.899,165.146C6.658,164.464 4.153,164.461 5.319,163.405C4.923,163.377 4.413,163.322 4.137,162.995C3.929,162.748 3.947,162.411 3.862,162.117C3.718,161.619 3.223,161.469 2.755,161.409C3.24,161.261 3.771,161.355 4.249,161.176C7.756,159.439 10.764,156.819 12.251,153.132C12.814,151.736 12.381,150.116 13.412,148.895C14.282,147.864 15.389,147.022 16.437,146.187C18.329,144.68 20.309,143.249 22.048,141.562C22.832,140.8 23.431,139.866 24.27,139.159C24.962,138.575 25.796,138.184 26.509,137.628C28.131,136.356 29.278,134.603 30.881,133.318C33.707,131.053 37.384,129.701 40.643,128.231C51.566,123.305 60.984,115.859 70.786,109.091C80.288,107.119 89.614,104.437 98.643,100.87C108.111,97.129 116.966,92.067 125.386,86.374C133.591,80.825 140.534,73.933 147.637,67.074C153.714,61.206 159.313,54.884 164.713,48.393C167.99,48.492 171.639,47.082 174.295,45.23C174.975,45.255 175.655,45.281 176.335,45.307C177.106,45.336 177.993,45.028 178.611,44.574C179.559,43.877 180.508,43.18 181.457,42.484C183.1,42.546 184.743,42.608 186.386,42.67C187.278,42.706 188.301,42.344 189.019,41.826C190.614,40.67 192.21,39.514 193.806,38.358C194.35,37.965 194.463,37.423 193.651,37.392C193.157,37.373 192.663,37.355 192.169,37.336C197.39,33.533 202.613,29.732 207.837,25.933C208.105,25.943 208.373,25.953 208.64,25.964C209.016,25.977 209.44,25.748 209.733,25.534C213.941,22.483 218.149,19.432 222.358,16.383C222.472,16.301 222.894,15.917 222.51,15.903C221.156,15.851 219.803,15.798 218.449,15.746C218.065,15.731 217.63,15.97 217.33,16.188C216.759,16.606 216.188,17.025 215.617,17.443C214.397,17.396 213.178,17.348 211.958,17.301C214.173,16.001 217.111,16.247 218.88,14.129C218.793,13.623 217.603,13.657 217.304,13.645C215.636,13.577 213.963,13.791 212.298,13.666C212.017,13.54 212.1,13.16 212.149,12.925C212.25,12.446 212.565,11.642 211.973,11.341C211.073,10.887 209.881,11.556 208.931,11.186C208.659,11.08 208.866,10.334 208.78,10.094C208.161,8.401 210.405,7.014 211.455,6.118C211.852,5.779 212.106,5.563 212.505,5.217C213.534,4.325 214.173,3.07 215.192,2.192C218.738,-0.864 223.156,-2.895 227.074,-5.409C231.143,-8.022 235.359,-10.493 239.148,-13.517C242.935,-16.54 246.371,-19.968 249.989,-23.184C251.355,-24.398 252.912,-25.382 254.241,-26.638C256.622,-28.893 258.85,-31.589 259.994,-34.703C260.405,-35.823 259.055,-36.776 259.701,-37.905C260.443,-39.195 261.806,-40.276 262.867,-41.287C264.943,-43.265 267.095,-45.372 269.508,-46.941C271.03,-47.931 272.765,-48.593 274.447,-49.245C276.985,-50.229 279.573,-51.109 282.036,-52.277C284.574,-53.482 286.97,-54.932 289.379,-56.373C301.796,-59.324 313.855,-63.86 324.597,-70.832C329.983,-72.012 334.581,-74.883 339.395,-77.462C341,-78.322 342.689,-79.02 344.352,-79.756C345.329,-80.189 346.379,-80.601 347.266,-81.21C348.568,-82.106 349.103,-83.666 350.367,-84.59C352.964,-86.488 355.987,-87.743 358.731,-89.406C361.666,-91.183 364.566,-93.022 367.308,-95.089C367.395,-95.145 367.486,-95.202 367.575,-95.254C367.64,-95.292 367.71,-95.331 367.778,-95.363C368.479,-95.696 367.553,-94.477 368.102,-94.478C370.991,-96.178 373.691,-98.266 375.62,-101.039C376.724,-102.625 377.493,-104.399 378.508,-106.037" style="fill:url(#_Linear1);"/>
        </g>
    </g>
    <g transform="matrix(0.254586,0,0,0.254586,-6.67401,-367.505)">
        <path d="M1427.29,2552.35C1412.69,2551.15 1410.2,2528.08 1425.75,2525.17C1425.77,2525.17 1425.9,2524.7 1426.26,2524.66C1445.6,2522.47 1445.56,2553.85 1427.29,2552.35ZM1344.74,2504.15C1352.15,2502.71 1356.31,2509.04 1356.79,2515.76C1357.28,2522.49 1354.08,2529.62 1346.78,2529.79C1333.73,2530.09 1332.33,2506.55 1344.74,2504.15ZM1505.75,2527.74C1493.58,2528.01 1492.89,2504.04 1503.69,2501.58C1511.01,2499.92 1514.56,2506.39 1514.76,2513.31C1514.96,2520.23 1511.81,2527.6 1505.75,2527.74ZM1788.98,2232.32C1858.59,2229.01 1913.96,2257.54 1948.68,2291.57C1984.16,2326.35 2014.49,2374.11 2017.65,2441.09C2020.96,2511.17 1992.09,2565.71 1958.4,2600.78C1922.54,2638.11 1875.64,2666.09 1808.43,2669.29C1739.67,2672.56 1685.36,2645.35 1649.19,2610.5C1611.76,2574.45 1583.43,2528.94 1580.22,2460.99C1576.88,2390.24 1604.32,2337.49 1638.54,2301.29C1663.98,2274.38 1697.61,2251.19 1740.85,2239.72C1755.61,2235.81 1772.3,2233.12 1788.98,2232.32ZM1754.27,2295.27C1722.94,2304.28 1698.23,2321.44 1679.74,2341.57C1655.2,2368.26 1634.04,2408.13 1637.61,2460.07C1641.03,2509.55 1661.49,2544.72 1689,2569.77C1716.48,2594.8 1757.05,2615.14 1807.5,2611.89C1856.09,2608.76 1891,2588.9 1917.2,2560.51C1942.08,2533.56 1963.38,2494.97 1960.25,2442.01C1957.45,2394.59 1935.3,2356.49 1908.87,2332.31C1882.22,2307.91 1841.11,2286.42 1789.91,2289.72C1778.09,2290.48 1765.33,2292.09 1754.27,2295.27ZM1800.55,2346.19C1809.36,2369.16 1817.91,2392.4 1826.01,2416.09C1850.27,2416.99 1875.48,2416.92 1900.07,2417.48C1900.3,2418.75 1898.66,2419.52 1897.76,2420.26C1880.27,2434.57 1859.65,2449.05 1842.21,2463.77C1849.55,2487.29 1856.86,2510.84 1863.97,2534.59C1843.17,2521.14 1823.07,2506.97 1802.4,2493.39C1781.72,2506.8 1761.18,2522.84 1741.31,2535.51C1748,2511.97 1754.52,2488.24 1761.67,2465.16C1743.41,2448.86 1720.35,2434.87 1702.89,2419.33C1727.42,2418.71 1751.21,2417.36 1776.02,2417.01C1784.88,2394.09 1792.58,2370.01 1800.55,2346.19ZM2667.17,2268.13C2667.55,2268.42 2668.96,2269.79 2668.7,2270.63C2668.44,2271.45 2666.95,2271.51 2666.25,2271.41C2663.56,2271.06 2659.73,2268.09 2657.79,2270.26C2658.64,2270.8 2658.52,2271.74 2659.05,2272.49C2659.9,2273.67 2661.81,2274.48 2661.23,2276.54C2657.12,2277.13 2655.97,2271.89 2652.38,2270.63C2649.41,2269.59 2647.37,2271.74 2644.22,2270.09C2644.68,2269.64 2645.73,2270.11 2646.18,2269.63C2645.82,2268.65 2644.58,2268.99 2644.01,2269.07C2641.36,2269.39 2639.3,2271.09 2635.65,2270C2635.21,2269.47 2634.72,2269.16 2634.8,2268.4C2635.05,2265.54 2639.33,2264.89 2639.53,2262.01C2638.85,2261.85 2639,2262.96 2638.46,2262.98C2637.13,2262.49 2636.92,2260.16 2635.48,2260.61C2635.37,2261.76 2636.9,2262.61 2637.57,2263.55C2637.27,2264.36 2636.38,2264.82 2635.65,2265.43C2633.95,2266.85 2632.46,2270.43 2635.93,2271.26C2638.46,2271.86 2640.34,2270.5 2642.55,2270.28C2643.43,2270.84 2644.6,2271.22 2646,2271.45C2643.3,2278.66 2638.34,2283.46 2632.6,2286.87C2626.93,2290.23 2620.1,2291.97 2611.68,2290.57C2603.92,2289.27 2598.35,2285.41 2594.31,2281.2C2597.24,2279.37 2600.85,2278.56 2602.86,2275.3C2606.01,2277.3 2609.9,2280.5 2614.78,2281.11C2615.23,2281.16 2615.8,2281.22 2616.22,2280.98C2615.67,2280.37 2614.67,2280.38 2613.89,2280.16C2608.86,2278.69 2605.27,2275.6 2601.95,2272.93C2609.59,2269.98 2617.33,2267.07 2625.12,2264.27C2632.87,2261.5 2640.52,2258.38 2648.22,2255.93C2648.3,2256.87 2647.43,2256.36 2647.25,2256.91C2648.31,2257.94 2650.8,2256.68 2652.19,2257.75C2651.43,2257.97 2650.51,2257.93 2649.72,2258.09C2652.82,2258.97 2655.35,2257.72 2657.92,2256.91C2660.39,2256.13 2663.26,2254.94 2665.89,2255.24C2666.95,2255.35 2667.73,2255.72 2667.72,2256.39C2667.68,2257.79 2664.14,2258.85 2663.02,2259.52C2661.46,2260.44 2659.51,2261.9 2658.74,2263.28C2658.18,2264.27 2657.79,2265.74 2659.08,2266.29C2659.14,2265.85 2658.56,2265.03 2659.08,2264.22C2659.82,2264.27 2660.24,2264.9 2661.03,2265.29C2662.94,2266.24 2665.63,2266.96 2667.17,2268.13ZM2640.78,2242.91C2625.05,2248.94 2609.05,2254.56 2593.28,2260.53C2592.93,2259.47 2592.77,2258.29 2592.59,2257.12C2592.97,2257.14 2593.54,2257.48 2593.68,2257.13C2593.14,2256.31 2591.97,2256.54 2591.3,2256.51C2585.57,2256.34 2582.22,2260.26 2576.67,2260.36C2576.85,2259.67 2577.19,2259.23 2577.54,2258.8C2574.42,2259.3 2577.35,2263.21 2575.61,2264.81C2573.54,2264.38 2572.58,2262.21 2571.68,2260.82C2570.81,2259.48 2570.11,2258.24 2568.69,2257.46C2568.45,2257.49 2568.93,2258.04 2568.53,2258.19C2565.69,2257.07 2564.67,2254.77 2562.02,2253.53C2561.51,2253.54 2562.21,2254.02 2561.76,2254.24C2560.38,2254.13 2558.37,2255.51 2557.47,2253.97C2558.13,2251.92 2560.24,2252.08 2561,2250.16C2561.78,2250.58 2562.25,2251.2 2562.84,2251.75C2562.94,2250.35 2561,2248.92 2559.52,2248.43C2557.97,2247.91 2556.16,2248.26 2555.17,2247.39C2556.15,2245.31 2559.03,2244.96 2560.93,2243.83C2561.78,2244.15 2561.62,2245.12 2562.31,2245.54C2562.25,2243.38 2561.04,2241.74 2559.06,2240.39C2558.28,2239.85 2556.58,2239.25 2556.77,2238.38C2556.92,2237.65 2558.13,2237.61 2558.97,2237.76C2562.86,2238.47 2565.53,2241.47 2568.14,2243.74C2569.46,2244.89 2570.77,2246.12 2572.1,2247.09C2573.55,2248.15 2575.22,2249.3 2577.17,2249.37C2576.78,2248.99 2576.3,2248.66 2575.74,2248.41C2578.82,2245.95 2582.7,2244.77 2585.85,2242.29C2588.3,2240.38 2590.14,2237.42 2593.54,2236.87C2594.4,2237.67 2594.78,2238.81 2595.55,2239.69C2595.08,2235.83 2591.45,2232.93 2592.94,2227.92C2594.18,2223.75 2597.89,2221.72 2600.9,2219.17C2604.63,2216.03 2606.12,2210.75 2609.94,2208.91C2612.56,2207.67 2616.2,2207.84 2619.76,2208.29C2619.33,2207.83 2618.34,2207.72 2617.79,2207.33C2619.38,2206.36 2622.54,2205.17 2624.95,2205.37C2629.78,2205.78 2627,2211.07 2631.34,2212.17C2631.6,2212.03 2630.75,2211.47 2631.22,2211.17C2632.18,2211.44 2632.57,2210.84 2633.52,2211.12C2634.13,2215.39 2627.22,2211.97 2625.82,2214.59C2625.36,2213.87 2625.03,2213.07 2624.3,2212.52C2624.94,2214.18 2625.88,2216.33 2625.49,2218.65C2625.26,2220.02 2624.51,2221.36 2624.33,2223.09C2623.93,2227.01 2626.85,2230.44 2626.33,2234.61C2625.84,2238.63 2623.29,2241.26 2620.5,2243.59C2620.5,2243.69 2620.44,2243.68 2620.38,2243.67C2620.37,2243.71 2620.36,2243.74 2620.35,2243.78C2623.42,2242.56 2625.68,2240.11 2627.06,2236.29C2633.39,2236.66 2637.38,2240.04 2640.78,2242.91ZM2619.99,2216.64C2620.64,2215.93 2620.64,2214.77 2619.95,2214C2619.28,2213.26 2618.22,2213.18 2617.5,2213.78C2618.07,2213.86 2618.68,2214.18 2619.18,2214.73C2619.7,2215.32 2619.97,2216.01 2619.99,2216.64ZM2605.66,2240.21C2605.6,2241.4 2606.74,2242.1 2607.85,2242.2C2608.97,2242.29 2610.07,2241.79 2609.94,2240.58C2608.85,2241.38 2606.79,2241.34 2605.66,2240.21ZM2610.85,2213.01C2611.45,2212.66 2612.09,2212.54 2612.63,2212.63C2612.14,2211.92 2611.15,2211.71 2610.34,2212.17C2609.5,2212.66 2609.18,2213.66 2609.58,2214.44C2609.78,2213.9 2610.21,2213.37 2610.85,2213.01ZM2608.62,2237.04C2609.66,2237.11 2610.44,2235.77 2610.6,2234.44C2610.76,2233.1 2610.3,2231.77 2608.86,2231.86C2606.74,2232 2606.2,2236.86 2608.62,2237.04ZM2610.94,2215.66C2610.3,2215.41 2609.42,2216.08 2608.99,2217.16C2608.56,2218.25 2608.74,2219.34 2609.38,2219.59C2610.03,2219.85 2610.89,2219.17 2611.33,2218.09C2611.75,2217 2611.58,2215.92 2610.94,2215.66ZM2611.4,2226.79C2610.71,2226.68 2610.14,2226.32 2609.78,2225.85C2609.7,2226.89 2610.32,2227.83 2611.25,2227.97C2612.21,2228.12 2613.1,2227.37 2613.3,2226.3C2612.81,2226.69 2612.12,2226.89 2611.4,2226.79ZM2618.02,2217.6C2617.38,2217.35 2616.5,2218.02 2616.08,2219.11C2615.64,2220.19 2615.82,2221.28 2616.46,2221.53C2617.11,2221.79 2617.98,2221.12 2618.41,2220.03C2618.84,2218.94 2618.67,2217.86 2618.02,2217.6ZM2320.54,2164.38C2324.57,2168.63 2330.8,2177.36 2328.87,2185.75C2326.46,2196.29 2313.41,2200.22 2300.61,2200.97C2286.88,2201.78 2273,2198.74 2263.29,2195.54C2249.52,2191 2232.05,2182.41 2223.07,2170.54C2220.21,2166.75 2216.8,2161.29 2217.63,2154.23C2219.12,2141.77 2234.89,2137.79 2249.16,2137.57C2276.69,2137.13 2305.26,2148.27 2320.54,2164.38ZM2312.2,2192.64C2319.17,2190.84 2325.14,2186.95 2324.16,2178.51C2322.37,2162.99 2302.08,2154.27 2291.19,2149.52C2295.16,2152.56 2295.72,2160.15 2290.1,2160.75C2280.41,2161.79 2275.66,2149.98 2274.15,2143.72C2273.74,2145.35 2273.79,2147.17 2273.26,2147.65C2270.84,2147.72 2269.77,2147.47 2268.45,2147.29C2267.18,2146.4 2264.77,2142.47 2264.37,2142.27C2265.25,2146.38 2267.78,2149.07 2266.55,2153.14C2263.93,2161.8 2242.65,2150.26 2248.43,2141.55C2237.3,2143.05 2224.79,2144.97 2223.79,2155.68C2222.38,2170.89 2239.51,2178.88 2249.16,2184.31C2247.87,2182.78 2247.68,2182.14 2246.62,2180.68C2244.86,2178.25 2242.37,2173.11 2244.44,2171.62C2249.92,2168.14 2256.07,2173.13 2259.66,2175.97C2267.41,2166.27 2277.72,2183.09 2282.49,2188.65C2283.44,2183.67 2284.69,2177.66 2289.37,2176.7C2293.11,2175.94 2297.74,2181.4 2298.8,2181.41C2299.04,2181.41 2300.23,2179.83 2300.61,2179.6C2308.3,2174.87 2317.26,2185.48 2312.2,2192.64ZM1650.83,2114.15C1652.16,2113.85 1663.97,2111.52 1678.29,2108.77C1687.68,2088.56 1694.08,2077.24 1697.33,2076.79C1698.53,2076.63 1699.09,2078.19 1699.64,2081.17C1699.82,2082.13 1701.45,2090.77 1703.75,2103.01C1717.5,2100.47 1729.55,2099.33 1733.04,2099.04C1742.37,2098.3 1736.02,2103.34 1734.35,2105.76C1733.71,2106.68 1722.42,2116.98 1708.59,2129.3C1710.76,2140.86 1712.68,2151.01 1713.47,2154.98C1714.45,2159.87 1714.64,2162.99 1713.62,2163.89C1713.08,2164.36 1709.95,2163.61 1708.06,2162.24C1706.71,2161.27 1697.62,2156.04 1687.37,2148.64C1670.91,2163 1659.59,2175.11 1655.66,2173.99C1653.69,2173.43 1659.88,2155.64 1668.34,2133.56C1659.61,2127.3 1652.3,2122.1 1650.08,2120.67C1643.75,2116.57 1647.47,2114.89 1650.83,2114.15ZM641.717,2128.47C640.984,2139.44 635.409,2148 629.255,2147.59C623.105,2147.18 618.713,2137.95 619.442,2126.98C620.172,2116.02 625.747,2107.45 631.901,2107.86C638.051,2108.27 642.447,2117.5 641.717,2128.47ZM1727.41,1831.45C1731.72,1845.21 1736.79,1858.19 1741.31,1871.73L1732.05,1871.73C1730.86,1869.21 1730.36,1866.01 1729.28,1863.4L1715.38,1863.4C1713.89,1865.76 1713.07,1868.8 1712.14,1871.73L1702.89,1871.73C1708,1858.49 1712.13,1844.26 1717.7,1831.45L1727.41,1831.45ZM1717.23,1856.45L1726.95,1856.45C1725.16,1851.46 1724.07,1845.76 1721.86,1841.18C1720.61,1846.56 1718.73,1851.32 1717.23,1856.45Z" style="fill:white;"/>
    </g>
    <defs>
        <linearGradient id="_Linear1" x1="0" y1="0" x2="1" y2="0" gradientUnits="userSpaceOnUse" gradientTransform="matrix(8.14115e-15,-132.955,132.955,8.14115e-15,-228.544,178.196)"><stop offset="0" style="stop-color:rgb(33,1,51);stop-opacity:0.5"/><stop offset="1" style="stop-color:rgb(33,1,51);stop-opacity:0"/></linearGradient>
    </defs>
</svg>
