<?xml version="1.0" encoding="utf-8"?>
<!-- Generator: Adobe Illustrator 15.0.0, SVG Export Plug-In . SVG Version: 6.00 Build 0)  -->
<!DOCTYPE svg PUBLIC "-//W3C//DTD SVG 1.1//EN" "http://www.w3.org/Graphics/SVG/1.1/DTD/svg11.dtd">
<svg version="1.1" id="Layer_2" xmlns="http://www.w3.org/2000/svg" xmlns:xlink="http://www.w3.org/1999/xlink" x="0px" y="0px"
	 width="1000px" height="150px" viewBox="0 0 1000 150" enable-background="new 0 0 1000 150" xml:space="preserve">
<linearGradient id="SVGID_1_" gradientUnits="userSpaceOnUse" x1="500.0005" y1="149.5273" x2="500.0005" y2="0.4731">
	<stop  offset="0" style="stop-color:#1B7C55"/>
	<stop  offset="0.5" style="stop-color:#22B573"/>
	<stop  offset="1" style="stop-color:#1B7C55"/>
</linearGradient>
<path fill="url(#SVGID_1_)" d="M56.521,148.563c-1.114-11.596-2.229-43.928-4.013-55.3c-2.899,21.406-4.237,44.374-5.798,55.522
	l-14.717-0.223c0,0-4.46-36.346-6.467-48.833c-1.337,16.277-1.337,40.137-3.121,48.386c-8.696,0-15.832,0.447-20.96-0.892
	C3.007,99.284,1.892,51.79,1,4.295c7.358-1.783,16.501-0.669,26.312-1.783c2.453,12.932,8.474,48.163,11.818,74.475
	c4.905-20.068,9.365-53.738,13.379-73.806L74.36,3.403l1.115-0.223c-1.338,46.38,1.337,98.781,2.452,144.714
	C71.016,147.895,61.65,147.671,56.521,148.563z M136.572,147.225c-5.797,2.453-39.468,1.785-47.049,1.115
	c-0.223-41.028-0.892-96.327-0.223-145.382c13.156-2.007,29.656-0.669,42.589-0.446c-0.669,10.926,0.669,22.298-0.445,33.447
	c-6.021-1.338-13.825-0.223-19.399-0.223c0.223,4.014,0.445,8.473,0.445,15.385c6.021-0.669,11.818,0,18.062-0.446
	c2.229,8.473,1.561,16.277,1.561,26.088c-4.459-0.222-8.696,0.447-13.602,0c-0.669,12.934,0,25.42,0.224,39.245
	c5.797-0.668,12.71,0.224,18.507-0.446C137.465,122.92,137.019,143.435,136.572,147.225z M227.546,37.965
	c-2.452,29.656-2.007,77.151-2.007,109.706c-8.695,0.224-20.514,2.007-26.534,1.784c0-41.475-1.114-81.833-2.898-118.625
	c-7.358-1.337-40.582,0.223-50.84-0.223c-0.223-7.135-1.114-20.737,0.224-27.203c21.183-0.669,73.806-1.115,98.11-1.115
	c-1.114,9.365-0.445,22.075-0.892,33.893C238.026,35.289,231.561,35.735,227.546,37.965z M186.964,147.671
	c-11.818,1.115-31.217,0.669-39.467,0c-1.784-33.67-0.446-71.13-2.676-104.131c8.473-0.223,31.886-1.784,41.92-0.446
	c-0.893,5.128-0.223,21.852-0.223,22.298c-4.46,0.669-13.379-0.446-16.724,0.669c0.445,4.014,0.668,7.805,0.223,11.817
	c4.683,1.338,7.805-0.445,12.71,0c1.784,6.244,0.892,14.271,0.446,17.393c-4.46,1.784-10.48-1.115-13.379,1.784
	c0.892,5.574,0.445,12.71,2.452,17.17c6.244,1.115,10.48,0.892,15.386,0C187.41,126.042,187.633,136.522,186.964,147.671z
	 M293.398,148.34c0.892-22.743-0.446-49.947-0.669-71.13c-4.905-24.974-10.258-51.731-19.399-74.252
	c7.581-0.893,22.298-0.893,29.656-0.669c2.898,14.047,3.567,28.764,8.027,41.251c3.567-10.703,5.352-30.102,10.257-41.028
	c7.581-0.447,15.608-0.447,22.744,0.223c-5.129,21.629-14.271,55.299-19.845,77.597c-0.67,21.63-0.446,48.387-0.893,68.232
	C316.142,148.116,300.979,150.123,293.398,148.34z M344.906,68.291c0-23.859,0.223-44.596,7.358-65.333
	c12.71-1.338,27.872-3.345,40.806-1.338c8.919,20.738,8.25,49.056,7.804,71.354c-0.445,24.751-1.338,47.049-4.014,72.022
	c-12.041,4.46-27.872,4.46-42.812,2.008C346.467,123.366,344.906,103.298,344.906,68.291z M368.988,111.103
	c4.683-0.446,6.912,0.669,10.926-1.562c-1.338-24.305,0.223-51.508-2.676-74.698c-2.007,0.892-9.588,0.223-12.71,1.338
	C364.975,54.02,365.197,85.014,368.988,111.103z M413.136,135.185c-2.676-43.258-2.898-88.3-2.452-130.89
	c1.783-2.006,18.953-2.006,25.643,0.224c2.007,34.784,0,71.8,4.014,106.361l7.581-2.453v-0.223c0-33.67-2.007-68.009-2.007-104.578
	c8.25-0.223,17.615,1.115,25.197,0.669c1.337,42.813,0.668,92.313-1.115,132.896c-0.224,4.906-6.244,8.697-12.934,10.258
	c-7.135,1.562-26.088,1.562-33.446-1.561C420.271,142.097,418.265,140.759,413.136,135.185z M517.936,147.671
	c-0.892-7.581-0.224-32.555-2.898-41.697h-5.129c-0.893,12.487,0.445,37.684,0,41.475c-4.684,1.115-20.292,1.783-25.643-0.445
	c2.007-47.495,0.445-96.105-0.892-142.931c16.277-2.453,33-2.676,46.379-2.23c6.243,8.696,10.926,31.217,11.148,44.819
	c0.224,12.71-0.223,24.082-1.56,36.792l-7.359,6.688c3.567,2.007,11.372,6.021,10.926,12.041
	c-0.445,5.575-1.114,33.225-3.345,46.604C535.104,148.786,523.063,149.678,517.936,147.671z M518.381,72.75
	c0-13.825,0.446-28.542-2.007-42.144l-8.695,2.453c0.892,14.717,1.337,27.649,1.56,42.366L518.381,72.75z M617.264,149.455
	c-2.453-22.744-0.669-50.171-2.676-73.583h-8.027c0.446,33.448-0.669,49.501-0.224,72.023c-9.587,0.445-15.385-0.446-23.412,0
	c0.223-21.853-2.007-48.164-2.452-74.922c-0.447-22.521,0-53.961-1.339-67.786c3.791-1.115,17.17-2.229,24.975-1.115
	c0.668,10.034,0.222,25.197,2.898,36.569c4.683-1.115,7.358-1.561,7.581-3.122c1.562-10.034,0.669-23.19-0.223-33.447
	c5.129-0.446,23.858-2.899,29.655-1.115c-2.007,22.075-2.898,53.292-3.79,75.144c-0.445,21.183,0.446,51.509-0.445,70.908
	C634.879,150.347,624.399,148.563,617.264,149.455z M728.753,147.225c-5.797,2.453-64.441,1.785-72.021,1.115
	c-0.224-41.028-0.893-96.327-0.224-145.382c13.155-2.007,28.765-0.669,41.697-0.446c-0.669,10.926,0.669,22.298-0.445,33.447
	c-6.021-1.338-12.934-0.223-18.508-0.223c0.223,4.014-0.892,10.703,0.445,15.385c6.021-0.669,10.927,0,17.17-0.446
	c2.229,8.473,1.561,16.277,1.561,26.088c-4.46-0.222-7.804,0.447-12.71,0c-0.669,12.934,0,25.42,0.224,39.245
	c5.797-0.668,37.684,0.224,43.48-0.446C729.645,122.92,729.199,143.435,728.753,147.225z M741.909,147.671
	c-0.893-7.581,1.338-47.94-2.898-55.076h-6.021v12.71c-5.798,1.784-16.501,1.115-24.751,1.562
	c2.007-47.495,0.446-55.968-0.893-102.794c13.156-4.014,32.556-1.784,46.381-2.899c8.25,8.696,10.926,20.96,11.148,34.562
	c0.223,12.709-0.223,21.629-1.562,34.339l-7.358,6.688c4.237,4.46,13.603,6.021,13.157,12.042
	c-0.446,5.574-1.115,46.603-3.345,59.981C761.308,148.786,747.037,149.678,741.909,147.671z M743.692,59.371
	c-1.783-14.716-0.892-15.163-3.344-28.765l-8.697,2.453c0.893,14.717,0.447,14.271,0.67,28.987L743.692,59.371z M776.917,68.291
	c0-23.859,0.224-44.596,7.358-65.333c12.71-1.338,27.873-3.345,40.806-1.338c8.919,20.738,8.25,49.056,7.804,71.354
	c-0.445,24.751-1.337,47.049-4.014,72.022c-12.041,4.46-27.872,4.46-42.812,2.008C778.479,123.366,776.917,103.298,776.917,68.291z
	 M800.999,111.103c4.683-0.446,6.912,0.669,10.926-1.562c-1.338-24.305,0.224-51.508-2.675-74.698
	c-2.007,0.892-9.589,0.223-12.711,1.338C796.985,54.02,797.208,85.014,800.999,111.103z M890.857,147.225
	c-5.797,2.453-39.467,1.785-47.049,1.115c-0.223-41.028-0.892-96.327-0.223-145.382c13.156-2.007,29.657-0.669,42.589-0.446
	c-0.668,10.926,0.669,22.298-0.446,33.447c-6.021-1.338-13.824-0.223-19.399-0.223c0.224,4.014,0.447,8.473,0.447,15.385
	c6.02-0.669,11.817,0,18.061-0.446c2.23,8.473,1.562,16.277,1.562,26.088c-4.46-0.222-8.696,0.447-13.603,0
	c-0.668,12.934,0,25.42,0.224,39.245c5.797-0.668,12.709,0.224,18.508-0.446C891.749,122.92,891.304,143.435,890.857,147.225z
	 M954.182,141.874c-0.222,4.235-3.344,6.242-9.811,6.242c-10.034,0-28.095,2.453-37.015-1.113c-6.912-4.237-4.459-48.61-2.23-53.293
	c3.792,0,8.474,0.892,13.603,2.452c0.892,7.136,0.668,15.164,3.345,21.406h8.027c1.561-5.351,0.446-11.148,0.892-16.723
	c-6.912-7.358-17.615-15.163-27.427-26.089c-4.682-23.636-3.121-55.745,0.224-73.36c15.831-1.561,33-1.115,46.157,1.115
	c4.905,11.817,4.459,39.021,6.021,54.629c-1.562,4.237-20.515,4.46-21.63-0.668c0.224-8.028-0.669-16.055-0.892-24.305
	l-10.034,3.122c-0.669,7.136,0,14.271,0.223,21.406c8.25,5.798,23.413,13.602,31.887,22.521
	C955.967,101.291,954.852,121.582,954.182,141.874z M999,1.396c-3.568,47.495-4.684,77.151-6.913,110.375
	c-3.122-0.224-15.831-0.224-17.615-0.445c-1.562-28.542-5.574-65.334-7.581-110.153C977.147,2.065,990.972,1.396,999,1.396z
	 M996.323,121.582c0.224,6.243,0.892,16.056,0.67,24.751c-8.92,1.562-19.178,2.453-26.09,1.562
	c0.447-8.25-0.223-18.063-1.338-24.751C974.694,121.806,988.742,122.697,996.323,121.582z"/>
</svg>
