<?xml version="1.0" encoding="UTF-8" standalone="no"?>
<!DOCTYPE svg PUBLIC "-//W3C//DTD SVG 1.1//EN" "http://www.w3.org/Graphics/SVG/1.1/DTD/svg11.dtd">
<svg width="100%" height="100%" viewBox="0 0 2500 1584" version="1.1" xmlns="http://www.w3.org/2000/svg" xmlns:xlink="http://www.w3.org/1999/xlink" xml:space="preserve" xmlns:serif="http://www.serif.com/" style="fill-rule:evenodd;clip-rule:evenodd;stroke-linejoin:round;stroke-miterlimit:2;">
    <g id="LOW" transform="matrix(4.34032,0,0,4.34032,2430.65,808.806)">
        <path d="M13.789,-135.706C14.746,-133.472 16.586,-130.816 15.779,-127.743C15.482,-127.742 15.187,-128.896 15.068,-128.169C15.033,-126.72 14.813,-125.52 14.499,-124.187C14.237,-123.069 13.562,-121.812 13.504,-120.774C13.462,-120.017 14.159,-119.145 14.073,-118.357C14.001,-117.697 13.034,-116.669 12.65,-115.655C11.825,-113.477 11.609,-111.737 9.664,-110.82C8.707,-105.426 5.584,-102.196 1.417,-100.013C1.092,-98.871 0.869,-97.926 0.279,-96.884C-0.567,-95.392 -2.408,-94.185 -2.707,-92.76C-2.96,-91.554 -2.581,-86.737 -2.139,-85.649C-1.737,-84.663 -0.507,-84.011 -0.006,-83.09C0.937,-81.357 1.853,-79.025 2.128,-76.549C2.234,-75.582 2.067,-74.603 2.128,-73.704C2.313,-70.944 2.727,-68.127 2.696,-65.599C2.668,-63.319 2.032,-60.91 1.559,-58.63C1.09,-56.375 0.062,-53.887 0.137,-51.947C0.158,-51.404 0.656,-50.346 0.705,-49.245C0.81,-46.893 0.635,-46.189 1.985,-44.837C2.281,-44.54 2.658,-43.917 2.839,-43.841C3.467,-43.577 4.182,-43.95 4.688,-43.699C5.539,-43.275 5.951,-41.836 6.536,-41.566C7.903,-41.416 9.941,-41.938 10.659,-41.14C11.193,-39.172 9.221,-39.083 8.978,-38.2L11.207,-38.068L11.275,-39.235C11.29,-39.472 11.433,-39.655 11.597,-39.645L14.062,-39.499C14.225,-39.49 14.346,-39.29 14.331,-39.054L13.821,-30.43C13.807,-30.193 13.663,-30.01 13.499,-30.019L12.998,-30.049L12.339,-18.918L13.291,-18.862C13.794,-18.832 14.176,-18.401 14.146,-17.899L13.94,-14.415C13.909,-13.913 13.479,-13.529 12.977,-13.56L9.766,-13.749L9.64,-11.623C9.614,-11.183 9.235,-10.848 8.795,-10.874L7.457,-10.953C7.248,-9.047 5.703,-7.612 3.91,-7.698C5.422,-1.613 7.007,5.175 7.958,12.331C8.921,19.577 10.335,27.107 9.38,34.657C8.444,42.052 6.625,48.026 3.123,52.716C-0.38,57.408 -4.647,60.755 -10.387,63.525C-11.878,73.103 -12.281,83.126 -16.644,90.544C-17.912,92.701 -19.758,95.74 -19.914,98.221C-20.035,100.143 -19.31,102.602 -19.487,104.906C-19.553,105.742 -19.893,106.595 -19.914,107.324C-19.95,108.535 -19.563,109.808 -19.487,111.164C-19.263,115.22 -20.249,120.088 -19.771,123.252C-19.422,125.568 -17.503,127.905 -16.502,130.503C-14.935,134.572 -13.337,140.241 -15.363,144.865C-15.591,145.16 -16.231,145.041 -16.502,145.293C-14.246,145.786 -14.389,148.679 -11.951,148.99C-11.886,151.029 -9.476,151.039 -8.538,152.261C-8.101,152.829 -8.434,153.498 -7.686,153.968C-3.838,156.697 4.557,153.769 4.403,160.651C6.237,160.692 6.132,163.176 5.825,164.917C0.101,167.384 -7.593,169.652 -15.933,170.605C-18.443,170.892 -22.411,171.463 -24.323,170.462C-25.736,169.723 -26.627,167.745 -28.589,167.334C-30.384,167.715 -32.444,168.744 -34.704,168.898C-37.009,169.056 -40.397,168.731 -41.103,167.191C-41.704,165.882 -41.868,162.46 -41.529,160.651C-41.404,159.981 -40.998,159.712 -40.96,159.086C-40.923,158.439 -41.269,157.973 -41.103,157.238C-44.09,156.681 -48.913,155.966 -52.053,156.953C-52.573,157.748 -51.832,159.465 -52.621,160.224C-54.381,160.467 -56.718,160.813 -59.021,160.935C-61.267,161.055 -64.044,161.558 -65.563,160.793C-66.121,160.511 -66.263,159.817 -66.842,159.229C-67.527,158.534 -68.02,158.521 -68.265,157.806C-68.786,156.283 -68.456,153.914 -67.695,152.261C-68.463,149.491 -67.106,147.012 -67.269,144.582C-67.429,142.191 -66.84,139.282 -65.989,136.903C-65.266,134.88 -63.877,132.986 -63.571,131.213C-63.372,130.06 -63.718,128.908 -63.571,127.66C-63.379,126.007 -62.59,124.371 -62.292,122.681C-61.365,117.438 -59.597,113.267 -56.604,109.742C-56.259,108.081 -56.372,106.952 -55.75,105.476C-55.181,104.122 -53.617,103.451 -53.333,102.487C-53.131,101.805 -53.414,100.86 -53.333,99.928C-53.203,98.441 -52.773,97.095 -52.906,95.805C-53.19,93.028 -54.551,90.161 -55.323,87.129C-57.448,78.798 -59.301,68.377 -61.012,59.827C-70.251,61.643 -75.86,57.367 -76.37,49.161C-76.795,42.316 -74.724,33.367 -73.241,28.398C-77.404,25.677 -72.818,15.447 -74.663,11.191C-74.955,10.521 -75.475,10.472 -75.658,9.771C-75.372,6.86 -76.33,4.517 -76.797,1.664C-77.603,-3.259 -78.281,-11.959 -78.899,-18.55C-80.168,-17.684 -81.438,-16.997 -82.685,-16.514C-82.742,-16.081 -82.895,-15.567 -83.14,-15.044C-83.488,-14.299 -83.941,-13.711 -84.35,-13.417C-82.234,9.9 -80.517,33.244 -78.273,56.715C-77.46,65.225 -76.626,73.848 -76.013,82.978C-75.583,89.393 -75.16,96.411 -74.621,102.98C-74.429,105.319 -74.074,107.633 -74.359,109.675C-74.575,111.219 -75.477,112.296 -75.49,113.937C-75.496,114.682 -75.101,115.496 -75.056,116.285C-74.943,118.312 -75.612,119.811 -76.273,121.502C-76.823,122.911 -77.306,124.363 -77.752,125.763C-78.774,128.981 -79.387,132.082 -80.535,134.461C-80.77,134.947 -81.009,135.485 -81.578,135.852C-83.7,132.408 -85.364,128.507 -87.579,125.156C-87.622,129.191 -89.361,132.042 -90.97,134.721C-92.611,137.457 -93.846,140.354 -95.926,142.809C-96.608,142.409 -97.205,141.449 -97.579,140.808C-97.702,140.595 -97.711,140.094 -97.927,140.287C-98.267,140.869 -97.668,142.256 -98.188,142.461C-99.58,142.563 -100.054,141.348 -100.449,140.374C-101.752,137.148 -102.668,133.918 -104.276,131.069C-106.393,127.316 -108.763,123.548 -110.275,119.503C-110.637,122.155 -110.236,125.573 -110.71,128.113C-111.643,126.784 -111.911,124.789 -112.885,123.503C-113.92,126.789 -115.248,131.578 -113.929,135.329C-113.133,137.591 -111.428,139.75 -110.103,141.766C-109.644,142.463 -109.086,143.472 -108.624,143.764C-107.687,144.357 -106.311,144.044 -105.754,144.984C-105.371,146.108 -106.437,146.15 -106.102,146.897C-105.765,147.645 -104.316,147.923 -103.492,148.461C-102.602,149.043 -101.792,149.825 -101.146,150.288C-99.495,151.469 -97.486,152.353 -96.797,154.375C-96.609,154.924 -96.586,155.527 -96.448,156.112C-96.317,156.67 -95.894,157.075 -95.841,157.677C-95.765,158.512 -96.008,160.402 -96.361,161.07C-96.896,162.082 -98.549,162.331 -99.841,162.635C-103.021,163.388 -106.257,163.966 -109.493,164.202C-113.931,164.523 -118.818,163.202 -120.886,160.811C-121.517,160.08 -121.958,158.914 -122.538,158.288C-123.147,157.63 -124.167,156.902 -125.059,156.722C-126.248,156.484 -127.803,157.876 -128.799,157.677C-131.196,157.209 -133.936,156.691 -135.757,155.591C-136.053,155.414 -136.458,155.122 -136.626,154.896C-137.934,153.139 -137.695,148.966 -137.234,146.374C-137.145,145.867 -136.715,145.525 -136.626,145.07C-136.491,144.384 -136.786,143.29 -136.799,142.461C-136.876,137.414 -135.852,134.135 -134.887,130.025C-134.587,128.747 -133.814,126.503 -133.843,125.329C-133.872,124.075 -134.688,122.181 -134.973,121.067C-135.347,119.613 -135.433,118.069 -136.364,117.067C-137.195,117.457 -137.33,118.466 -137.93,119.33C-138.404,120.011 -139.417,120.802 -139.583,121.588C-139.894,123.065 -139.583,124.986 -139.583,126.72C-139.583,130.154 -139.795,133.552 -140.364,136.286C-140.662,137.708 -140.794,139.196 -141.669,140.201C-141.608,139.034 -142.296,138.169 -142.8,137.33C-144.351,134.744 -145.704,132.253 -147.582,130.025C-148.262,132.164 -148.007,134.359 -148.54,136.374C-148.641,136.757 -149.039,137.151 -149.147,137.503C-149.382,138.258 -149.397,139.095 -149.67,139.851C-149.935,140.586 -150.419,141.292 -150.54,141.939C-150.945,144.125 -150.174,146.903 -151.495,148.461C-150.294,150.732 -151.122,154.032 -150.8,156.895C-150.709,157.717 -150.251,158.477 -150.192,159.245C-150.126,160.086 -150.358,160.727 -150.365,161.593C-150.371,162.294 -150.253,162.975 -150.365,163.679C-150.809,166.463 -150.882,168.461 -153.584,168.636C-156.69,168.837 -160.149,168.565 -163.323,168.636C-166.386,168.707 -170.083,169.045 -173.149,168.548C-173.438,167.384 -173.524,166.25 -173.671,165.156C-173.828,163.99 -174.193,162.796 -174.106,161.68C-174.071,161.231 -173.817,160.882 -173.758,160.461C-173.537,158.857 -173.898,157.479 -173.322,155.853C-173.057,155.098 -172.275,154.341 -172.106,153.504C-171.955,152.765 -172.14,152.061 -172.02,151.418C-171.805,150.261 -171.302,149.465 -170.889,148.375C-171.072,147.796 -171.343,147.539 -171.323,146.809C-171.3,145.913 -171.111,144.656 -170.976,143.419C-170.845,142.217 -170.845,140.986 -170.716,139.94C-170.618,139.157 -170.077,138.447 -170.106,137.853C-170.124,137.486 -170.515,136.89 -170.716,136.461C-171.443,134.896 -171.996,133.728 -173.063,132.72C-173.56,133.933 -174.011,135.193 -175.15,135.763C-176.716,133.756 -177.728,131.387 -179.412,129.242C-180.149,128.301 -181.152,127.423 -182.107,126.546C-182.685,126.016 -184.231,123.989 -184.804,124.025C-185.08,124.042 -186.151,124.676 -186.718,124.981C-191.152,127.367 -195.496,129.883 -199.24,132.547C-200.383,133.363 -201.54,134.24 -202.37,135.156C-202.571,135.379 -202.758,135.62 -202.936,135.87C-203.074,138.722 -201.397,142.106 -202.967,144.771C-202.607,145.774 -201.75,146.383 -201.744,147.547C-201.74,148.427 -202.816,149.375 -202.855,150.214C-202.885,150.836 -202.176,152.071 -201.855,153.104C-200.938,156.068 -200.784,159.972 -200.633,163.546C-200.593,164.507 -200.355,165.527 -200.745,166.545C-201.198,167.734 -202.4,168.204 -203.522,168.767C-204.431,169.224 -206.048,170.093 -207.077,170.101C-207.82,170.105 -208.671,169.273 -209.632,169.324C-210.431,169.365 -211.395,170.528 -211.631,170.878C-212.822,172.628 -213.622,174.938 -215.41,175.989C-217.269,177.083 -220.053,177.79 -222.742,178.1C-225.455,178.412 -228.613,177.895 -231.406,177.544C-235.263,177.057 -239.481,176.342 -243.182,175.1C-244.324,174.716 -245.997,174.292 -246.293,173.544C-246.732,172.442 -245.866,171.356 -245.294,170.657C-245.403,170.21 -245.43,169.681 -245.404,169.101L-251.292,169.101C-251.516,168.129 -251.405,166.65 -251.292,165.656C-259.612,165.181 -265.306,168.676 -273.843,168.545C-280.105,168.45 -285.515,167.62 -290.064,165.656C-292.135,164.763 -295.664,163.39 -294.73,160.325C-294.517,159.629 -294.001,159.335 -293.508,158.546C-292.882,157.545 -292.783,156.47 -291.619,155.992C-291.365,155.887 -290.912,155.804 -290.62,155.77C-286.91,155.335 -281.648,156.421 -277.511,155.77C-274.044,155.223 -272.1,153.839 -269.622,152.214C-269.652,151.629 -269.545,151.18 -269.401,150.771C-268.568,150.233 -267.524,149.907 -266.624,149.437C-266.167,148.216 -265.597,148.093 -264.511,147.547C-264.026,147.304 -263.64,146.913 -263.069,146.993C-262.871,145.266 -261.353,144.855 -260.402,143.882C-260.556,143.456 -260.619,142.986 -260.069,142.548C-260.173,141.504 -259.72,140.522 -260.179,139.773C-259.416,138.855 -260.054,137.537 -259.068,136.662C-259.104,135.863 -260.043,135.318 -259.512,134.551C-259.232,134.144 -259.479,134.098 -259.291,133.44C-259.121,132.846 -258.636,132.402 -258.625,131.884C-258.609,131.223 -259.243,130.685 -259.291,129.997C-259.324,129.509 -258.989,129.168 -258.958,128.663C-258.844,126.824 -260.289,124.692 -259.068,122.774C-260.025,121.972 -259.523,119.266 -259.625,117.442C-259.922,112.062 -260.293,106.382 -260.957,101.667C-264.311,99.992 -267.256,94.239 -268.178,89.78C-268.984,85.889 -265.963,85.607 -264.623,83.225C-264.885,82.339 -265.331,81.636 -265.512,80.669C-269.103,77.766 -272.407,74.548 -273.51,69.228C-274.067,66.548 -274.201,63.519 -274.4,60.339C-274.597,57.148 -275.158,53.257 -274.734,50.12C-274.628,49.336 -274.311,48.515 -274.4,47.675C-274.481,46.889 -274.89,46.093 -275.066,45.231C-275.238,44.389 -275.32,43.505 -275.4,42.564C-275.544,40.849 -276.165,39.177 -276.289,37.344C-276.564,33.221 -276.839,28.896 -277.289,24.679C-277.318,24.4 -277.339,24.108 -277.358,23.815C-277.919,24.928 -279.623,25.026 -280.875,25.683C-281.195,28.25 -279.661,30.471 -279.767,32.821C-279.818,33.961 -280.708,35.475 -281.121,36.881C-281.835,39.319 -281.599,41.745 -283.335,42.789C-283.344,45.528 -285.642,45.981 -287.89,46.482C-286.39,73.396 -285.059,101.577 -282.843,128.689C-282.701,130.442 -282.631,132.472 -282.351,134.473C-282.12,136.128 -281.236,138.369 -281.613,139.642C-282.248,141.787 -285.306,142.224 -287.766,142.842C-287.728,146.644 -286.335,150.696 -287.274,154.288C-290.822,153.648 -294.375,153.018 -298.842,153.302C-299.937,158.447 -302.901,161.807 -306.596,164.749C-308.101,165.947 -309.968,167.098 -311.642,167.701C-316.115,169.313 -320.744,166.747 -325.917,167.086C-328.177,167.235 -330.039,168.331 -331.825,169.302C-335.13,171.103 -339.812,172.33 -344.746,172.132C-347.203,172.033 -350.048,171.416 -350.654,170.04C-351.277,168.622 -350.462,166.047 -350.654,164.749C-354.178,163.373 -357.197,161.491 -357.942,157.336L-376.765,164.942L-407.183,171.054C-407.183,171.054 -454.483,174.984 -455.648,174.984C-456.812,174.984 -498.145,174.547 -499.31,174.401C-500.474,174.256 -515.174,165.378 -515.174,164.504C-515.174,163.63 -515.464,157.228 -515.464,157.228L-516.774,156.792L-516.629,146.459L-514.009,136.416L-508.927,133.705L-508.44,131.149C-512.311,130.063 -515.149,126.511 -515.149,122.294C-515.149,117.213 -511.03,113.093 -505.949,113.093C-505.634,113.093 -505.323,113.11 -505.016,113.14L-503.151,103.336C-506.958,102.209 -509.737,98.687 -509.737,94.513C-509.737,89.432 -505.619,85.314 -500.537,85.314C-500.266,85.314 -499.997,85.329 -499.73,85.351L-497.851,75.463C-501.507,74.247 -504.145,70.799 -504.145,66.734C-504.145,61.654 -500.026,57.535 -494.946,57.535C-494.777,57.535 -494.61,57.54 -494.443,57.549L-492.58,47.752C-496.069,46.443 -498.553,43.08 -498.553,39.134C-498.553,34.054 -494.434,29.935 -489.354,29.935C-489.3,29.935 -489.246,29.938 -489.193,29.939L-487.819,22.716L-489.969,21.003C-489.969,21.003 -491.212,20.174 -490.577,18.527C-489.682,16.207 -489.122,14.646 -489.122,14.646C-489.122,14.646 -496.253,9.504 -496.398,9.067C-496.472,8.846 -495.156,2.274 -493.786,-4.156L-539.394,-23.938C-539.974,-24.19 -540.393,-24.659 -540.598,-25.209L-544.313,-26.821C-546.078,-24.208 -548.648,-22.527 -551.247,-22.194C-553.105,-21.069 -555.016,-20.734 -556.638,-21.438C-560.311,-23.031 -561.112,-29.336 -558.429,-35.522C-555.747,-41.707 -550.595,-45.43 -546.922,-43.837C-545.3,-43.134 -544.239,-41.51 -543.79,-39.384C-542.258,-37.259 -541.729,-34.233 -542.431,-31.161L-538.715,-29.549C-538.173,-29.775 -537.546,-29.79 -536.965,-29.538L-492.461,-10.235C-491.657,-13.832 -491.009,-16.5 -490.868,-16.548C-490.431,-16.693 -485.774,-16.984 -485.774,-16.984L-485.156,-18.79C-485.156,-18.79 -486.562,-19.092 -485.959,-21.049C-485.357,-23.008 -479.634,-38.873 -479.533,-39.274C-479.433,-39.675 -479.131,-39.826 -477.575,-39.826C-477.455,-39.826 -476.712,-39.823 -475.448,-39.817L-474.857,-43.474C-474.857,-43.474 -474.853,-44.08 -471.513,-44.788C-475.14,-44.812 -477.531,-44.895 -477.714,-45.102C-478.057,-45.494 -476.972,-46.713 -475.591,-47.649C-475.082,-47.75 -473.345,-47.873 -470.617,-48.02L-469.794,-56.802C-473.601,-57.337 -476.115,-57.81 -476.259,-58.056C-476.718,-58.835 -475.185,-59.771 -473.805,-60.707C-473.454,-60.945 -471.882,-61.356 -469.324,-61.836L-468.584,-69.719C-472.638,-70.278 -475.342,-70.78 -475.493,-71.035C-475.953,-71.814 -474.418,-72.75 -473.039,-73.685C-472.666,-73.937 -470.927,-74.383 -468.1,-74.898L-467.333,-83.081C-469.338,-83.47 -470.494,-83.715 -470.494,-83.715L-466.266,-98.787C-466.266,-98.787 -465.378,-100.551 -463.407,-103.088L-481.392,-104.284C-481.959,-102.68 -482.974,-101.62 -484.062,-101.692C-484.147,-101.697 -484.229,-101.712 -484.312,-101.731C-485.189,-100.197 -486.389,-99.265 -487.655,-99.349C-487.708,-99.352 -487.76,-99.367 -487.813,-99.374C-488.911,-98.233 -490.228,-97.599 -491.605,-97.691C-492.826,-97.772 -493.924,-98.413 -494.81,-99.446C-494.981,-99.422 -495.154,-99.411 -495.329,-99.423C-496.464,-99.498 -497.444,-100.334 -498.148,-101.64C-499.397,-101.948 -500.355,-103.502 -500.675,-105.568L-502.63,-105.698C-503.651,-102.594 -507.59,-98.326 -512.105,-98.626C-517.238,-98.969 -519.872,-100.437 -520.756,-100.934C-521.64,-101.43 -523.875,-104.665 -523.575,-109.164C-523.57,-109.234 -523.553,-109.511 -523.547,-109.58C-523.22,-114.508 -520.626,-116.685 -519.684,-117.059C-518.742,-117.433 -515.92,-118.786 -510.787,-118.444C-506.271,-118.143 -502.932,-113.391 -502.332,-110.179L-500.376,-110.048C-499.785,-112.053 -498.63,-113.467 -497.352,-113.608C-496.481,-114.808 -495.397,-115.507 -494.264,-115.431C-494.089,-115.419 -493.918,-115.386 -493.752,-115.339C-492.736,-116.245 -491.563,-116.735 -490.343,-116.654C-488.965,-116.562 -487.745,-115.76 -486.808,-114.483C-486.754,-114.483 -486.701,-114.491 -486.647,-114.487C-485.381,-114.403 -484.316,-113.321 -483.649,-111.683C-483.565,-111.691 -483.481,-111.695 -483.396,-111.689C-482.309,-111.616 -481.443,-110.43 -481.094,-108.766L-459.623,-107.336C-453.257,-113.612 -441.919,-121.047 -423.919,-121.047C-395.976,-121.047 -383.819,-98.715 -383.819,-98.715L-379.521,-82.853C-379.521,-82.853 -380.472,-82.66 -382.148,-82.351L-381.555,-74.247C-379.505,-73.839 -378.243,-73.495 -377.933,-73.284C-377.535,-73.014 -377.125,-72.744 -376.752,-72.478C-376.793,-73.966 -376.966,-75.478 -376.867,-76.708C-376.837,-77.059 -376.559,-77.494 -376.498,-77.939C-376.354,-78.958 -376.625,-79.969 -376.375,-80.523C-376.024,-81.296 -374.814,-81.472 -374.159,-81.877C-373.322,-84.054 -373.206,-86.455 -372.435,-88.523C-371.878,-90.019 -370.617,-91.111 -370.134,-92.492L-370.6,-98.5C-372.755,-99.387 -373.835,-101.971 -373.835,-101.971L-373.232,-102.324L-370.913,-102.536L-371.126,-105.3C-371.127,-105.311 -371.13,-105.324 -371.131,-105.336C-371.226,-107.334 -373.559,-107.524 -373.843,-108.855C-374.13,-110.188 -375.557,-135.308 -375.652,-137.21C-375.697,-138.122 -375.001,-139.971 -374.263,-141.651L-376.414,-142.063L-376.603,-142.729L-374.236,-145.393L-374.884,-153.755C-374.884,-153.755 -373.515,-155.357 -371.19,-155.357C-368.865,-155.357 -367.589,-154.436 -367.589,-154.436L-367.433,-152.495C-366.88,-152.356 -366.517,-152.245 -366.517,-152.245L-365.846,-144.856C-364.915,-144.14 -363.998,-143.098 -363.757,-141.302C-363.378,-138.448 -361.951,-111.71 -361.855,-109.522C-361.76,-107.333 -363.853,-107.618 -363.472,-104.954L-363.469,-104.731L-347.032,-107.449L-345.704,-99.188L-355.064,-96.175L-355.341,-94.38L-357.687,-92.862L-362.615,-92.027L-362.227,-87.152C-362.153,-86.795 -362.105,-86.467 -362.099,-86.185C-360.868,-86.98 -359.863,-88.618 -358.406,-89.385C-355.828,-90.742 -352.246,-90.768 -349.3,-92.092C-348.552,-92.427 -347.924,-93.154 -347.208,-93.446C-346.57,-93.705 -345.81,-93.679 -345.115,-93.938C-344.4,-94.204 -343.738,-94.755 -343.023,-95.045C-342.508,-95.254 -341.873,-95.331 -341.3,-95.538C-339.531,-96.177 -338.117,-97.251 -335.516,-97.138C-334.318,-98.154 -333.888,-99.94 -332.685,-100.953C-332.449,-102.316 -331.99,-103.457 -331.701,-104.768C-331.232,-105.078 -330.88,-105.506 -330.101,-105.506C-330.944,-107.329 -330.871,-110.069 -331.332,-112.275C-332.45,-111.941 -332.078,-110.715 -332.193,-110.059C-332.583,-107.842 -333.912,-105.541 -336.377,-105.137C-340.288,-104.495 -342.505,-106.682 -343.638,-108.829C-344.444,-110.356 -344.71,-112.451 -345.238,-114.736C-346.044,-118.232 -347.131,-121.344 -346.714,-125.812C-346.484,-128.291 -344.639,-131.01 -343.515,-133.073C-342.158,-135.565 -341.432,-138.408 -339.7,-139.719C-337.501,-141.384 -334.517,-140.593 -333.67,-138.119C-329.224,-140.322 -328.299,-145.155 -321.732,-145.133C-320.804,-145.13 -319.863,-144.81 -318.902,-144.887C-317.795,-144.977 -317.097,-145.488 -315.703,-145.256C-310.019,-144.314 -305.683,-140.436 -303.027,-136.272C-301.208,-140.143 -293.743,-138.346 -292.443,-134.672C-291.671,-132.493 -291.599,-128.701 -291.582,-125.32C-291.545,-118.588 -292.666,-112.912 -295.519,-108.829C-297.462,-106.05 -301.025,-102.787 -304.996,-105.383C-306.308,-103.044 -307.12,-100.204 -309.18,-98.614C-309.496,-97.207 -309.005,-94.994 -310.165,-94.43C-309.801,-93.987 -309.441,-92.974 -309.796,-92.215C-307.875,-92.602 -306.712,-91.204 -305.611,-90.492C-304.414,-89.718 -303.136,-89.261 -302.042,-88.4C-301.003,-87.583 -300.244,-86.468 -299.21,-85.693C-298.404,-85.085 -297.385,-84.653 -296.504,-84.092C-295.642,-83.544 -294.778,-82.942 -293.919,-82.37C-293.048,-81.788 -292.072,-81.226 -291.179,-80.617C-290.837,-80.963 -290.416,-81.208 -290.287,-81.638C-289.626,-83.827 -290.899,-85.9 -291.397,-86.97C-293.076,-90.568 -292.155,-95.436 -292.064,-100.746C-293.591,-101.738 -292.064,-105.831 -291.508,-107.301C-290.804,-109.164 -289.841,-110.863 -289.508,-112.078C-286.419,-114.58 -284.587,-118.339 -281.176,-120.52C-280.937,-120.727 -280.363,-120.596 -279.955,-120.632C-279.162,-123.098 -275.572,-122.767 -275.177,-125.631C-273.88,-126.16 -273.082,-127.738 -271.4,-127.519C-271.375,-128.615 -272.998,-128.543 -272.623,-129.63C-272.195,-130.015 -271.175,-129.285 -271.067,-129.741C-272.285,-132.22 -270.353,-133.983 -268.957,-135.518C-267.831,-136.755 -266.421,-137.633 -265.623,-138.518C-265.893,-139.432 -266.079,-140.431 -266.29,-141.406C-267.411,-141.989 -268.517,-142.586 -269.29,-143.517C-269.315,-144.869 -269.93,-145.328 -270.399,-146.184C-270.668,-146.673 -270.897,-147.167 -271.29,-147.517C-271.366,-151.306 -272.359,-155.59 -272.623,-159.737C-272.751,-161.792 -272.464,-164.106 -272.289,-166.291C-272.12,-168.425 -271.943,-170.625 -271.624,-172.513C-270.225,-180.742 -265.005,-184.758 -256.181,-185.511L-254.071,-185.511C-243.289,-185.069 -239.358,-177.781 -239.072,-166.847C-239.16,-166.387 -238.669,-166.51 -238.739,-166.069C-238.794,-160.606 -238.709,-155.003 -240.628,-151.405C-238.437,-149.434 -241.162,-147.297 -241.739,-145.073C-241.091,-143.239 -239.269,-142.581 -238.96,-140.406C-237.913,-139.677 -236.805,-139.007 -235.739,-138.296C-233.941,-139.024 -232.542,-137.956 -230.74,-137.741C-229.656,-137.611 -228.562,-137.946 -227.74,-137.741C-227.262,-137.621 -227.041,-137.259 -226.63,-136.962C-226.585,-136.93 -226.154,-136.892 -225.963,-136.74C-225.653,-136.495 -225.876,-136.236 -225.63,-136.185C-225.224,-136.101 -224.912,-136.688 -224.407,-136.74C-223.142,-136.872 -220.638,-135.73 -218.854,-135.295C-216.723,-134.779 -214.636,-134.582 -213.076,-134.185C-212.703,-134.09 -212.295,-134.143 -211.966,-133.518C-211.63,-133.665 -211.361,-133.877 -210.854,-133.852C-206.113,-131.89 -199.803,-131.498 -197.412,-127.186C-194.949,-125.155 -191.483,-122.962 -191.413,-118.854C-189.873,-118.606 -189.556,-116.959 -188.969,-115.188C-188.287,-113.128 -187.649,-111.237 -186.97,-109.078C-186.433,-107.376 -185.938,-106.364 -185.969,-104.634C-184.619,-102.667 -183.427,-99.476 -182.169,-96.513C-181.657,-98.68 -181.046,-100.742 -180.194,-102.514C-178.343,-106.361 -175.299,-108.755 -171.236,-110.341C-169.237,-111.121 -167.081,-111.65 -164.889,-112.341C-162.684,-113.035 -160.517,-113.817 -158.366,-114.254C-157.501,-114.43 -156.251,-116.146 -155.671,-116.863C-154.84,-117.888 -154.071,-118.927 -153.496,-119.906C-152.152,-122.192 -151.59,-125.254 -151.495,-128.255C-151.394,-131.516 -152.256,-134.272 -152.627,-137.473C-153.001,-140.694 -152.906,-144.206 -153.062,-147.474C-153.382,-154.196 -153.147,-160.939 -153.147,-167.911C-153.147,-171.271 -152.953,-174.282 -152.539,-177.65C-152.214,-180.293 -151.565,-184.612 -150.626,-186.347L-150.54,-186.347C-149.316,-181.096 -148.601,-174.949 -147.582,-169.389C-147.297,-167.827 -146.716,-165.051 -145.408,-164.867C-144.511,-164.74 -142.496,-166.069 -141.496,-166.432C-137.45,-167.895 -131.18,-168.274 -127.407,-166.345C-127.12,-170.393 -126.821,-175.028 -126.799,-179.389C-126.79,-180.806 -126.903,-182.356 -126.276,-183.477C-125.291,-182.098 -125.064,-180.265 -124.624,-178.519C-123.323,-173.35 -122.521,-167.082 -121.929,-161.388C-121.819,-160.346 -120.657,-158.795 -120.103,-157.823C-119.816,-157.321 -119.504,-156.8 -119.06,-156.257C-118.593,-155.688 -118.04,-155.152 -117.929,-154.692C-117.628,-153.456 -117.757,-151.921 -117.581,-150.604C-117.402,-149.268 -116.938,-147.964 -116.885,-146.865C-116.799,-145.074 -117.241,-143.072 -117.406,-141.125C-117.582,-139.056 -117.548,-136.936 -117.755,-135.125C-118.077,-132.319 -119.087,-130.155 -120.364,-128.342C-120.755,-127.785 -121.516,-127.184 -121.756,-126.516C-122.253,-125.127 -122.059,-123.362 -121.929,-121.994C-121.798,-120.606 -121.481,-119.059 -120.973,-118.081C-118.622,-113.559 -113.143,-111.242 -107.842,-109.037C-104.154,-107.503 -99.067,-106.462 -96.188,-103.993C-94.645,-102.668 -93.117,-101.353 -93.578,-99.123C-91.772,-96.435 -91.005,-93.198 -90.546,-89.659C-90.228,-92.126 -90.091,-94.24 -89.404,-95.921C-88.216,-98.832 -84.274,-103.923 -83.335,-103.895C-82.8,-103.879 -81.776,-103.29 -80.992,-102.786L-79.845,-105.239C-79.581,-107.257 -79.857,-109.727 -79.214,-111.673C-78.221,-114.675 -76.037,-116.193 -74.947,-118.925C-78.271,-119.932 -82.974,-120.863 -81.631,-125.609L-81.616,-125.735L-82.219,-126.017L-91.664,-105.819L-92.66,-106.285L-83.214,-126.482L-85.306,-127.46C-85.506,-127.554 -85.592,-127.791 -85.498,-127.991L-85.159,-128.715L-80.848,-137.935L-80.51,-138.659C-80.416,-138.859 -80.178,-138.945 -79.979,-138.852L-78.954,-138.373L-78.428,-139.498L-75.298,-138.035L-75.661,-137.258C-75.61,-137.171 -75.559,-137.083 -75.517,-136.986C-72.868,-135.456 -70.137,-136.564 -67.269,-137.555C-65.925,-138.018 -63.361,-138.872 -63.146,-136.986C-62.955,-135.328 -65.301,-133.843 -66.147,-132.383L-63.45,-131.122L-63.225,-131.602C-63.132,-131.801 -62.895,-131.888 -62.694,-131.794L-60.709,-130.866L-60.207,-131.941C-60.113,-132.141 -59.876,-132.227 -59.676,-132.133L-55.137,-130.011C-54.937,-129.917 -54.851,-129.679 -54.944,-129.479L-55.446,-128.405L-53.462,-127.476C-53.262,-127.383 -53.175,-127.145 -53.269,-126.945L-53.493,-126.465L-28.5,-114.777C-28.301,-114.684 -28.213,-114.446 -28.307,-114.246L-28.646,-113.522L-30.672,-109.191L-25.95,-106.983C-25.497,-107.189 -25.132,-107.424 -24.892,-107.691C-23.569,-109.662 -22.304,-110.791 -19.771,-111.104C-19.087,-110.652 -18.934,-109.668 -17.781,-109.682C-17.128,-109.405 -16.729,-108.217 -16.075,-108.402C-15.33,-110.376 -14.396,-111.991 -15.363,-114.375C-15.757,-115.342 -16.497,-116.282 -16.929,-117.361C-17.542,-118.899 -18.222,-120.831 -17.924,-122.765C-17.841,-123.3 -17.53,-123.69 -17.497,-124.187C-17.408,-125.519 -18.093,-126.865 -17.212,-128.311C-17.228,-128.96 -18.155,-128.695 -17.924,-129.591C-17.107,-132.283 -15.59,-134.273 -13.941,-136.132C-14.039,-137.876 -13.551,-139.494 -12.52,-140.541C-11.9,-141.169 -10.897,-141.113 -10.103,-141.537C-9.398,-141.911 -8.731,-142.566 -8.538,-143.101C-8.333,-143.922 -9.415,-143.456 -9.676,-143.811C-8.435,-144.91 -6.884,-143.507 -5.552,-143.527C-4.081,-143.55 -2.02,-144.937 0.137,-145.092C3.144,-145.307 6.146,-144.409 7.958,-145.945C7.675,-145.611 7.63,-145.04 7.673,-144.38C9.323,-144.274 9.275,-143.276 10.091,-141.963C10.384,-141.492 10.953,-141.004 11.177,-140.63C11.003,-140.847 11.299,-139.145 11.513,-138.834C12.343,-137.633 14.305,-137.63 14.499,-135.706C14.456,-135.275 13.9,-136.207 13.789,-135.706ZM-80.494,-125.183C-81.567,-120.808 -76.922,-121.002 -74.379,-119.779C-74.113,-120.19 -73.552,-121.028 -73.082,-121.744L-80.306,-125.122C-80.368,-125.143 -80.432,-125.161 -80.494,-125.183ZM-66.415,27.688C-66.682,23.831 -66.678,19.702 -67.979,16.882C-68.243,18.323 -68.529,19.744 -68.833,21.147C-67.944,23.244 -67.374,25.66 -66.415,27.688ZM-64.852,-136.702C-67.149,-136.242 -69.212,-135.156 -71.561,-134.914L-67.541,-133.035C-66.562,-134.243 -65.147,-135.36 -64.852,-136.702ZM-71.364,-120.94C-71.455,-120.692 -71.614,-120.382 -71.771,-120.09L-69.14,-118.86L-68.741,-119.713L-71.364,-120.94ZM-376.648,-70.256C-377.642,-70.038 -379.218,-69.772 -381.207,-69.484L-380.616,-61.405C-380.361,-61.356 -380.123,-61.309 -379.888,-61.263C-379.319,-62.32 -378.73,-63.401 -378.097,-64.525C-377.623,-65.367 -376.763,-66.472 -376.621,-67.109C-376.423,-67.989 -376.546,-69.115 -376.648,-70.256ZM-205.3,36.454C-205.498,38.653 -206.695,40.754 -206.633,42.454C-206.587,43.677 -205.571,45.338 -204.967,46.675C-204.386,47.958 -203.294,49.298 -203.078,50.563C-202.808,52.145 -203.239,53.839 -203.411,55.341C-203.574,56.773 -203.991,58.197 -203.967,59.895C-203.627,60.17 -203.095,60.341 -202.531,60.514C-201.868,55.285 -201.207,50.076 -200.543,44.889C-199.513,36.854 -198.482,28.699 -197.471,20.524C-199.731,22.241 -202.12,23.845 -204.633,25.345C-205.47,28.46 -204.944,32.529 -205.3,36.454ZM-220.63,124.552C-220.467,122.114 -221.973,119.888 -221.075,117.665C-221.997,117.475 -222.392,116.76 -222.964,116.219C-221.636,114.477 -222.161,112.043 -222.297,109.554C-222.621,103.628 -221.808,96.246 -224.186,92.113C-225.558,91.841 -227.217,91.086 -228.185,89.78C-229.631,87.827 -229.437,83.425 -227.407,82.669C-228.147,81.561 -229.277,81.2 -229.74,80.003C-230.593,77.796 -228.979,76.829 -228.741,75.337C-228.454,73.553 -229.183,71.683 -229.296,70.005C-229.36,69.038 -229.229,68.187 -229.296,67.005C-229.46,64.101 -230.524,61.873 -231.518,59.229C-234.285,51.86 -235.326,42.538 -236.851,34.232C-239.121,34.282 -241.241,34.181 -243.294,34.011C-243.021,39.392 -243.7,43.823 -244.848,47.785C-244.169,49.117 -243.773,50.516 -243.071,52.008C-242.455,53.32 -241.346,54.788 -241.072,56.119C-240.39,59.437 -242.126,62.623 -241.96,66.338C-241.059,66.729 -239.498,67.033 -238.517,67.672C-236.019,69.298 -235.336,73.275 -234.072,76.559C-232.442,80.798 -230.193,84.601 -232.185,89.224C-228.862,90.949 -231.468,94.666 -232.073,97.445C-232.232,98.176 -232.139,98.926 -232.295,99.444C-232.597,100.443 -233.688,101.18 -233.851,101.888C-234.288,102.083 -235.006,101.993 -235.183,102.445C-235.197,106.061 -235.461,109.154 -235.628,112.665C-235.795,116.155 -236.413,119.85 -235.628,122.331C-235.768,122.747 -236.42,122.649 -236.628,122.996C-236.938,127.863 -237.128,133.024 -236.405,137.439C-236.186,138.788 -235.669,140.127 -235.85,141.105C-235.958,141.684 -236.578,142.217 -236.628,142.773C-236.669,143.231 -236.412,143.597 -236.295,144.216C-236.177,144.84 -236.286,145.638 -236.183,145.994C-235.982,146.698 -235.228,146.972 -235.183,147.66C-235.151,148.168 -235.623,148.725 -235.739,149.214C-235.569,149.771 -234.978,149.935 -234.739,150.548C-234.641,150.799 -234.763,151.158 -234.63,151.438C-234.182,152.363 -233.35,152.973 -232.962,153.992C-232.446,155.35 -232.681,157.156 -232.851,158.657C-232.301,157.129 -230.68,155.708 -229.962,154.103C-229.783,153.703 -229.807,153.181 -229.629,152.77C-228.991,151.293 -227.927,149.887 -227.185,148.215C-226.496,146.661 -225.411,145.109 -224.963,143.438C-224.536,141.841 -224.419,139.934 -224.075,138.105C-223.746,136.369 -223.205,134.672 -222.853,132.996C-222.708,132.314 -222.768,131.558 -222.63,130.884C-222.205,128.81 -220.758,126.459 -220.63,124.552ZM-361.853,-16.775C-362.282,-15.849 -363.228,-14.771 -364.376,-13.753C-363.073,-7.174 -362.005,-1.731 -362.005,-1.57C-362.005,-1.169 -366.574,0.89 -366.574,0.89L-365.971,3.449L-363.712,3.952C-363.712,3.952 -362.557,4.253 -362.106,5.91C-362.039,6.157 -361.902,6.651 -361.722,7.309C-361.189,3.86 -360.589,0.455 -359.882,-2.869C-359.232,-5.936 -358.735,-9.283 -357.667,-11.483C-357.193,-12.465 -355.782,-13.443 -355.576,-14.314C-355.404,-15.039 -355.785,-16.208 -355.822,-17.021C-355.946,-19.76 -355.468,-22.833 -355.453,-24.898C-356.119,-25.558 -357.361,-25.593 -357.791,-26.621C-357.992,-27.1 -357.85,-27.927 -358.037,-28.589C-358.236,-29.293 -358.951,-29.817 -359.145,-30.435C-359.398,-31.244 -358.895,-32.287 -359.513,-32.896C-360.105,-28.852 -359.623,-25.554 -359.882,-22.56C-360.027,-20.901 -360.777,-19.887 -361.36,-18.498C-361.609,-17.907 -361.597,-17.326 -361.853,-16.775ZM-69.402,56.699C-67.173,57.72 -64.335,57.437 -61.438,57.126C-62.47,52.751 -63.411,48.646 -64.141,44.326C-64.384,42.883 -64.399,41.121 -64.852,39.776C-65.142,38.91 -65.901,37.917 -66.415,36.931C-67.877,34.131 -69.257,30.015 -70.397,27.403C-71.943,35.177 -77.881,52.809 -69.402,56.699ZM-73.384,-1.606C-73.001,-7.623 -72.748,-13.769 -72.104,-19.524C-71.408,-20.155 -70.521,-20.596 -69.545,-20.946L-69.545,-23.08C-70.319,-22.98 -71.482,-23.669 -72.59,-24.434C-73.503,-23.336 -74.441,-22.325 -75.396,-21.412C-75.187,-19.289 -74.888,-16.896 -74.806,-15.969C-74.377,-11.164 -73.749,-5.814 -73.526,-1.464C-73.518,-1.314 -73.343,-1.352 -73.384,-1.606ZM0,-7.935C-1.733,-8.122 -3.04,-9.698 -3.022,-11.574L-9.277,-11.944C-9.717,-11.97 -10.053,-12.348 -10.026,-12.789L-9.306,-24.979C-10.124,-25.416 -10.593,-25.954 -10.529,-26.35C-12.349,-26.71 -13.521,-27.718 -14.084,-29.336C-15.795,-29.332 -16.973,-29.861 -18.492,-30.047C-19.492,-28.63 -21.228,-27.948 -23.043,-27.346C-20.955,-24.456 -20.74,-19.693 -19.771,-15.685C-19.983,-15.47 -20.002,-15.06 -20.057,-14.689C-18.278,-9.926 -18.549,-3.114 -18.351,3.229C-19.171,4.114 -21.19,3.802 -22.332,4.367C-20.384,7.02 -19.723,10.599 -19.061,14.179C-18.396,17.777 -17.036,21.394 -16.786,25.129C-16.379,31.2 -15.289,37.366 -13.657,42.904C-13.438,43.648 -13.003,44.318 -12.805,45.037C-12.161,47.354 -11.694,49.917 -11.524,52.29C-11.438,53.49 -11.763,54.488 -11.666,55.56C-11.523,57.16 -10.681,58.699 -10.529,60.254C0.475,54.585 7.021,44.618 6.251,27.688C5.663,14.753 3.104,2.339 0,-7.935ZM-78.542,-108.024L-74.544,-116.571C-75.263,-115.588 -75.991,-114.847 -76.582,-114.139C-77.353,-113.213 -77.754,-112.306 -78.085,-111.3C-78.388,-110.378 -78.624,-109.369 -78.542,-108.024ZM-273.006,-112.221C-273.812,-112.042 -274.706,-111.639 -273.185,-110.656C-272.654,-110.312 -270.898,-109.064 -268.803,-107.561C-270.833,-102.263 -272.318,-97.992 -271.845,-97.858C-270.903,-97.59 -268.186,-100.497 -264.235,-103.944C-261.777,-102.167 -259.594,-100.911 -259.271,-100.678C-258.817,-100.35 -258.065,-100.171 -257.936,-100.283C-257.69,-100.498 -257.737,-101.248 -257.972,-102.422C-258.162,-103.374 -258.623,-105.811 -259.144,-108.585C-255.824,-111.542 -253.114,-114.013 -252.961,-114.234C-252.559,-114.816 -251.036,-116.025 -253.275,-115.846C-254.112,-115.778 -257.004,-115.504 -260.306,-114.894C-260.857,-117.832 -261.247,-119.906 -261.29,-120.135C-261.424,-120.85 -261.558,-121.226 -261.845,-121.187C-262.626,-121.08 -264.161,-118.361 -266.416,-113.511C-269.852,-112.852 -272.685,-112.292 -273.006,-112.221ZM-326.656,-7.053C-322.271,-6.693 -322.261,-14.223 -326.902,-13.699C-326.989,-13.689 -327.02,-13.576 -327.025,-13.575C-330.756,-12.878 -330.16,-7.341 -326.656,-7.053ZM-35.419,-81.318C-36.233,-82.006 -37.191,-82.818 -38.71,-82.908C-39.041,-81.991 -39.584,-81.402 -40.32,-81.11C-40.319,-81.118 -40.317,-81.126 -40.315,-81.135C-40.3,-81.133 -40.285,-81.132 -40.285,-81.154C-39.615,-81.713 -39.004,-82.346 -38.885,-83.31C-38.761,-84.312 -39.463,-85.134 -39.365,-86.076C-39.323,-86.49 -39.142,-86.811 -39.087,-87.14C-38.993,-87.698 -39.219,-88.213 -39.373,-88.611C-39.198,-88.48 -39.118,-88.289 -39.009,-88.115C-38.672,-88.743 -37.014,-87.923 -37.16,-88.949C-37.389,-89.015 -37.482,-88.87 -37.711,-88.936C-37.825,-88.863 -37.622,-88.73 -37.684,-88.695C-38.725,-88.96 -38.058,-90.229 -39.217,-90.327C-39.796,-90.376 -40.555,-90.09 -40.935,-89.858C-40.804,-89.764 -40.566,-89.738 -40.462,-89.626C-41.316,-89.736 -42.191,-89.776 -42.819,-89.477C-43.736,-89.037 -44.094,-87.77 -44.988,-87.015C-45.71,-86.405 -46.601,-85.917 -46.899,-84.915C-47.256,-83.714 -46.387,-83.017 -46.273,-82.092C-46.457,-82.303 -46.548,-82.575 -46.756,-82.769C-47.571,-82.635 -48.014,-81.925 -48.601,-81.466C-49.358,-80.872 -50.288,-80.589 -51.028,-79.999C-50.892,-79.937 -50.778,-79.86 -50.685,-79.769C-51.152,-79.784 -51.554,-80.061 -51.901,-80.316C-52.22,-80.549 -52.535,-80.843 -52.852,-81.119C-53.479,-81.665 -54.118,-82.384 -55.053,-82.555C-55.253,-82.591 -55.544,-82.581 -55.581,-82.406C-55.626,-82.196 -55.219,-82.052 -55.031,-81.924C-54.556,-81.6 -54.264,-81.206 -54.251,-80.686C-54.417,-80.787 -54.377,-81.02 -54.581,-81.097C-55.038,-80.827 -55.729,-80.743 -55.964,-80.242C-55.727,-80.035 -55.293,-80.117 -54.921,-79.994C-54.565,-79.875 -54.099,-79.532 -54.124,-79.197C-54.264,-79.329 -54.378,-79.477 -54.565,-79.578C-54.747,-79.117 -55.253,-79.156 -55.413,-78.663C-55.197,-78.295 -54.713,-78.625 -54.382,-78.599C-54.274,-78.652 -54.443,-78.767 -54.32,-78.769C-53.684,-78.471 -53.44,-77.919 -52.757,-77.652C-52.663,-77.688 -52.778,-77.819 -52.72,-77.827C-52.378,-77.639 -52.211,-77.341 -52.003,-77.021C-51.787,-76.687 -51.555,-76.166 -51.058,-76.062C-50.64,-76.446 -51.345,-77.384 -50.595,-77.504C-50.679,-77.402 -50.761,-77.296 -50.804,-77.131C-49.471,-77.153 -48.669,-78.095 -47.292,-78.053C-47.133,-78.048 -46.851,-78.102 -46.723,-77.905C-46.755,-77.821 -46.893,-77.904 -46.983,-77.909C-46.941,-77.627 -46.903,-77.344 -46.818,-77.09C-43.033,-78.522 -39.194,-79.871 -35.419,-81.318ZM-43.846,-81.966C-43.575,-81.695 -43.081,-81.686 -42.82,-81.878C-42.788,-81.587 -43.052,-81.466 -43.32,-81.49C-43.588,-81.513 -43.861,-81.681 -43.846,-81.966ZM-42.601,-88.495C-42.755,-88.408 -42.859,-88.28 -42.905,-88.151C-43.001,-88.339 -42.925,-88.579 -42.723,-88.695C-42.528,-88.807 -42.29,-88.755 -42.173,-88.586C-42.303,-88.606 -42.458,-88.578 -42.601,-88.495ZM-43.135,-82.728C-43.717,-82.771 -43.588,-83.937 -43.079,-83.97C-42.734,-83.992 -42.623,-83.672 -42.661,-83.351C-42.699,-83.031 -42.886,-82.709 -43.135,-82.728ZM-42.58,-87.857C-42.425,-87.796 -42.384,-87.536 -42.486,-87.275C-42.59,-87.015 -42.799,-86.853 -42.953,-86.915C-43.108,-86.976 -43.15,-87.237 -43.047,-87.497C-42.944,-87.757 -42.734,-87.919 -42.58,-87.857ZM-40.408,-87.623C-40.413,-87.773 -40.476,-87.941 -40.602,-88.081C-40.721,-88.213 -40.868,-88.29 -41.004,-88.31C-40.833,-88.454 -40.577,-88.435 -40.417,-88.256C-40.251,-88.072 -40.251,-87.793 -40.408,-87.623ZM-42.469,-85.188C-42.295,-85.163 -42.131,-85.211 -42.012,-85.305C-42.06,-85.048 -42.275,-84.869 -42.504,-84.903C-42.728,-84.937 -42.877,-85.162 -42.857,-85.413C-42.77,-85.299 -42.634,-85.213 -42.469,-85.188ZM-40.88,-87.392C-40.725,-87.331 -40.683,-87.07 -40.787,-86.809C-40.889,-86.549 -41.098,-86.387 -41.254,-86.449C-41.408,-86.51 -41.45,-86.77 -41.347,-87.031C-41.244,-87.291 -41.035,-87.453 -40.88,-87.392ZM-307.826,-12.96C-306.371,-12.993 -305.616,-14.762 -305.663,-16.423C-305.711,-18.083 -306.562,-19.637 -308.319,-19.237C-310.912,-18.648 -310.747,-12.894 -307.826,-12.96ZM-112.276,-100.166C-115.941,-104.032 -122.799,-106.706 -129.407,-106.601C-132.832,-106.548 -136.617,-105.592 -136.974,-102.601C-137.174,-100.908 -136.355,-99.596 -135.669,-98.688C-133.513,-95.838 -129.319,-93.777 -126.015,-92.687C-123.685,-91.919 -120.353,-91.189 -117.058,-91.383C-113.985,-91.563 -110.855,-92.507 -110.275,-95.036C-109.813,-97.05 -111.308,-99.146 -112.276,-100.166ZM-114.276,-93.383C-113.062,-95.101 -115.213,-97.649 -117.058,-96.513C-117.149,-96.458 -117.435,-96.078 -117.494,-96.079C-117.746,-96.081 -118.858,-97.392 -119.755,-97.21C-120.88,-96.979 -121.18,-95.536 -121.408,-94.34C-122.551,-95.675 -125.027,-99.711 -126.885,-97.384C-127.747,-98.065 -129.224,-99.262 -130.539,-98.427C-131.035,-98.071 -130.438,-96.837 -130.016,-96.253C-129.762,-95.903 -129.717,-95.75 -129.407,-95.383C-131.722,-96.686 -135.833,-98.603 -135.495,-102.254C-135.256,-104.825 -132.254,-105.284 -129.582,-105.645C-130.969,-103.554 -125.861,-100.784 -125.232,-102.862C-124.937,-103.84 -125.544,-104.485 -125.755,-105.471C-125.66,-105.424 -125.081,-104.48 -124.778,-104.268C-124.46,-104.225 -124.204,-104.164 -123.623,-104.181C-123.496,-104.295 -123.508,-104.732 -123.408,-105.123C-123.047,-103.621 -121.905,-100.788 -119.58,-101.036C-118.231,-101.18 -118.365,-103.002 -119.319,-103.732C-116.705,-102.591 -111.837,-100.499 -111.406,-96.775C-111.172,-94.75 -112.604,-93.815 -114.276,-93.383ZM-254.626,-180.068L-256.958,-180.068C-258.293,-176.995 -259.285,-173.58 -260.512,-170.402L-258.291,-170.402C-258.068,-171.105 -257.872,-171.835 -257.513,-172.401L-254.179,-172.401C-253.92,-171.775 -253.798,-171.007 -253.514,-170.402L-251.292,-170.402C-252.376,-173.651 -253.592,-176.766 -254.626,-180.068ZM-257.069,-174.068C-256.711,-175.301 -256.259,-176.443 -255.958,-177.734C-255.428,-176.635 -255.166,-175.267 -254.736,-174.068L-257.069,-174.068ZM-346.468,-18.621C-349.447,-18.045 -349.109,-12.395 -345.977,-12.468C-344.225,-12.509 -343.459,-14.219 -343.575,-15.833C-343.691,-17.447 -344.69,-18.965 -346.468,-18.621ZM-29.085,-75.266C-29.454,-75.546 -30.1,-75.718 -30.558,-75.946C-30.748,-76.04 -30.848,-76.191 -31.026,-76.203C-31.151,-76.009 -31.012,-75.813 -31.027,-75.706C-31.336,-75.84 -31.243,-76.191 -31.108,-76.429C-30.922,-76.76 -30.454,-77.112 -30.08,-77.332C-29.81,-77.492 -28.962,-77.747 -28.953,-78.084C-28.95,-78.243 -29.137,-78.333 -29.39,-78.36C-30.023,-78.43 -30.712,-78.146 -31.304,-77.959C-31.922,-77.765 -32.528,-77.464 -33.271,-77.674C-33.082,-77.713 -32.861,-77.705 -32.679,-77.756C-33.012,-78.013 -33.61,-77.71 -33.864,-77.957C-33.822,-78.091 -33.613,-77.968 -33.631,-78.194C-35.48,-77.606 -37.317,-76.857 -39.176,-76.191C-41.047,-75.521 -42.904,-74.821 -44.738,-74.113C-43.94,-73.472 -43.078,-72.73 -41.87,-72.379C-41.685,-72.325 -41.444,-72.327 -41.311,-72.182C-41.413,-72.124 -41.549,-72.137 -41.657,-72.151C-42.829,-72.297 -43.762,-73.064 -44.519,-73.544C-45.002,-72.763 -45.866,-72.568 -46.571,-72.128C-45.602,-71.117 -44.265,-70.191 -42.402,-69.881C-40.381,-69.545 -38.743,-69.962 -37.382,-70.769C-36.003,-71.586 -34.814,-72.738 -34.164,-74.469C-34.5,-74.524 -34.783,-74.614 -34.992,-74.75C-35.524,-74.696 -35.975,-74.37 -36.583,-74.515C-37.414,-74.714 -37.058,-75.572 -36.649,-75.914C-36.475,-76.06 -36.26,-76.171 -36.188,-76.364C-36.348,-76.591 -36.716,-76.795 -36.69,-77.071C-36.345,-77.178 -36.294,-76.619 -35.975,-76.501C-35.845,-76.507 -35.881,-76.773 -35.718,-76.733C-35.766,-76.044 -36.792,-75.888 -36.854,-75.2C-36.871,-75.018 -36.755,-74.944 -36.648,-74.816C-35.774,-74.556 -35.279,-74.963 -34.642,-75.041C-34.507,-75.058 -34.208,-75.14 -34.123,-74.905C-34.229,-74.791 -34.482,-74.903 -34.591,-74.795C-33.837,-74.399 -33.346,-74.915 -32.634,-74.665C-31.771,-74.364 -31.495,-73.106 -30.509,-73.246C-30.371,-73.742 -30.828,-73.935 -31.032,-74.219C-31.161,-74.399 -31.132,-74.625 -31.336,-74.754C-30.87,-75.275 -29.951,-74.562 -29.305,-74.477C-29.136,-74.455 -28.779,-74.469 -28.717,-74.665C-28.654,-74.866 -28.992,-75.196 -29.085,-75.266ZM-239.849,-83.859C-243.853,-83.669 -247.859,-83.022 -251.402,-82.083C-261.778,-79.331 -269.85,-73.765 -275.955,-67.307C-284.169,-58.619 -290.755,-45.96 -289.952,-28.98C-289.181,-12.671 -282.383,-1.749 -273.4,6.904C-264.718,15.267 -251.683,21.798 -235.182,21.013C-219.052,20.244 -207.795,13.529 -199.189,4.571C-191.103,-3.847 -184.175,-16.935 -184.969,-33.756C-185.728,-49.831 -193.006,-61.293 -201.522,-69.64C-209.854,-77.807 -223.144,-84.655 -239.849,-83.859ZM-248.181,-68.751C-245.526,-69.514 -242.464,-69.902 -239.627,-70.084C-227.339,-70.876 -217.473,-65.719 -211.076,-59.863C-204.734,-54.058 -199.417,-44.915 -198.745,-33.534C-197.993,-20.825 -203.107,-11.563 -209.077,-5.094C-215.365,1.72 -223.743,6.485 -235.406,7.237C-247.512,8.017 -257.249,3.135 -263.844,-2.871C-270.448,-8.884 -275.359,-17.324 -276.178,-29.201C-277.036,-41.666 -271.957,-51.234 -266.067,-57.641C-261.629,-62.471 -255.7,-66.59 -248.181,-68.751ZM-237.072,-56.53C-238.986,-50.814 -240.834,-45.035 -242.96,-39.533C-248.914,-39.451 -254.625,-39.126 -260.512,-38.977C-256.32,-35.247 -250.787,-31.891 -246.405,-27.979C-248.121,-22.439 -249.684,-16.744 -251.291,-11.093C-246.522,-14.136 -241.593,-17.984 -236.628,-21.202C-231.667,-17.943 -226.845,-14.542 -221.853,-11.315C-223.558,-17.016 -225.314,-22.666 -227.074,-28.312C-222.889,-31.845 -217.94,-35.319 -213.743,-38.755C-213.527,-38.932 -213.134,-39.116 -213.187,-39.422C-219.09,-39.555 -225.141,-39.539 -230.962,-39.755C-232.906,-45.44 -234.958,-51.017 -237.072,-56.53ZM-515.193,-108.785C-515.018,-111.418 -516.073,-113.632 -517.549,-113.73C-519.026,-113.828 -520.364,-111.773 -520.539,-109.141C-520.714,-106.508 -519.66,-104.294 -518.184,-104.196C-516.707,-104.098 -515.369,-106.152 -515.193,-108.785Z"/>
    </g>
</svg>
