<?xml version="1.0" encoding="UTF-8" standalone="no"?>
<!DOCTYPE svg PUBLIC "-//W3C//DTD SVG 1.1//EN" "http://www.w3.org/Graphics/SVG/1.1/DTD/svg11.dtd">
<svg width="100%" height="100%" viewBox="0 0 980 108" version="1.1" xmlns="http://www.w3.org/2000/svg" xmlns:xlink="http://www.w3.org/1999/xlink" xml:space="preserve" xmlns:serif="http://www.serif.com/" style="fill-rule:evenodd;clip-rule:evenodd;stroke-linejoin:round;stroke-miterlimit:2;">
    <g id="Artboard1" transform="matrix(1.22577,0,0,1,0,0)">
        <rect x="0" y="0" width="799.5" height="108" style="fill:none;"/>
        <g>
            <g>
                <clipPath id="_clip1">
                    <rect x="0" y="0" width="799.5" height="108"/>
                </clipPath>
                <g clip-path="url(#_clip1)">
                    <g transform="matrix(0.979592,0,0,1,147.255,0.0005)">
                        <g transform="matrix(0.832813,0,0,1,0,0)">
                            <path d="M218.311,101.828L217.998,101.828C220.035,68.161 215.333,37.379 217.37,6.166C223.01,5.589 230.214,7.035 236.953,6.746C237.425,38.102 236.796,71.767 236.796,101.25C230.528,101.828 220.503,100.814 218.311,101.828ZM244.315,53.709C243.845,37.814 246.194,21.629 247.133,6.456C258.571,5.155 271.103,6.891 282.228,6.748C287.869,19.03 288.652,36.656 288.652,50.24C288.652,65.844 288.337,81.885 285.046,99.081C273.611,102.691 261.077,101.391 249.168,100.814C245.251,88.82 244.783,69.027 244.315,53.709ZM260.139,31.31C260.452,49.808 258.882,53.854 262.8,75.094L271.26,73.938C272.198,59.635 271.415,42.872 268.596,29.142C262.8,29.576 260.139,30.299 260.139,31.31Z" style="fill:white;fill-rule:nonzero;"/>
                        </g>
                        <g transform="matrix(0.832813,0,0,1,0,0)">
                            <path d="M1.966,101.828L1.651,101.828C3.687,68.161 -1.013,37.381 1.024,6.168C6.665,5.591 13.87,7.037 20.608,6.748C21.075,38.104 20.45,71.769 20.45,101.252C14.184,101.828 4.157,100.814 1.966,101.828ZM43.633,7.322C46.299,19.606 48.49,35.933 54.132,53.565C55.23,46.048 55.23,20.329 54.444,6.6C60.398,6.891 65.727,6.312 71.209,7.615C69.486,34.782 70.896,73.941 70.896,100.965C61.179,100.382 60.241,100.382 56.012,100.674C52.877,94.165 48.96,83.188 45.515,73.363C45.044,81.308 46.141,93.882 45.985,101.103C37.056,102.118 34.076,101.103 30.944,101.103C30.474,66.572 29.69,33.622 29.375,7.322C34.705,6.891 38.779,7.469 43.633,7.322ZM89.693,101.396C86.56,81.6 84.836,68.882 82.331,51.254C80.763,40.561 78.726,20.621 75.75,8.189C80.919,6.457 89.379,6.313 94.234,6.313C96.588,19.751 98.153,38.827 100.032,49.662C102.539,35.358 103.949,31.888 106.769,7.18C110.686,7.18 117.422,6.314 123.219,6.314C119.145,22.929 117.108,42.728 114.915,60.068C113.193,73.941 111.471,84.777 109.275,102.119C103.013,100.814 96.274,101.252 89.693,101.396ZM155.179,7.037C159.253,39.115 164.266,68.161 167.553,100.381C162.541,100.381 153.455,100.673 147.657,100.529C146.405,96.34 145.621,88.385 142.958,71.484L138.729,70.765C136.85,78.857 136.85,93.453 135.595,101.398C130.74,100.965 125.569,101.546 121.339,101.253C123.062,68.451 126.038,37.382 129.328,7.181C136.221,6.748 148.443,6.456 155.179,7.037ZM146.404,51.253C145.151,42.003 144.681,35.933 142.175,24.953C140.607,35.935 140.607,48.364 139.981,51.109C141.393,51.829 144.837,52.12 146.404,51.253ZM193.56,37.236C193.873,35.358 193.716,30.88 193.873,28.998L188.859,28.855C187.294,31.599 188.234,37.668 188.234,40.847C191.993,43.014 196.067,45.037 203.585,48.363C205.937,49.376 207.505,50.24 207.505,53.998C207.818,71.627 209.229,85.936 205.78,100.381C197.789,101.973 179.931,103.418 173.664,98.072C171.313,88.82 171.313,78.56 171.941,65.419C174.291,63.973 180.872,65.127 183.691,65.273C184.316,69.605 184.63,74.951 185.101,78.13C187.14,78.997 191.209,80.443 191.681,77.56L191.681,63.686C184.475,58.338 177.581,56.313 172.098,50.969C169.747,36.954 169.281,23.081 171.317,8.631C175.703,6.315 181.029,5.881 187.609,5.881C192.309,5.881 205.939,7.039 206.566,9.062C210.48,16.431 208.758,31.312 207.036,38.105C202.804,38.536 197.788,39.261 193.56,37.236ZM309.797,7.322C312.459,19.606 314.653,35.933 320.295,53.565C321.392,46.048 321.392,20.329 320.608,6.6C326.561,6.891 331.89,6.312 337.372,7.615C335.647,34.782 337.058,73.941 337.058,100.965C327.348,100.382 326.408,100.382 322.176,100.674C319.042,94.165 315.127,83.188 311.678,73.363C311.208,81.308 312.306,93.882 312.15,101.103C303.217,102.118 300.245,101.103 297.11,101.103C296.64,66.572 295.854,33.622 295.543,7.322C300.866,6.891 304.939,7.469 309.797,7.322ZM372.057,100.259C370.505,93.401 369.419,86.104 368.798,75.661C367.403,51.21 366.162,30.619 370.505,7.879C378.721,5.593 395.313,6.737 403.22,8.023C405.076,21.324 405.699,32.19 404.768,46.773C400.581,48.346 392.056,47.777 390.041,46.06C389.884,41.343 390.041,33.191 387.558,27.613L382.751,28.758C382.128,36.623 381.82,60.649 385.699,74.949L390.97,74.088C390.97,68.371 390.038,60.508 389.574,55.787C393.451,55.787 397.947,55.357 400.737,55.93C403.682,55.93 405.077,57.79 404.925,61.653C404.765,68.66 404.459,91.253 401.821,100.115C391.744,101.116 381.821,100.259 372.057,100.259ZM410.656,53.64C410.192,37.91 412.512,21.894 413.444,6.878C424.765,5.593 437.168,7.308 448.173,7.166C453.754,19.323 454.528,36.766 454.528,50.208C454.528,65.654 454.215,81.523 450.962,98.546C439.64,102.118 427.24,100.832 415.455,100.256C411.587,88.387 411.12,68.8 410.656,53.64ZM426.315,31.475C426.624,49.78 425.073,53.783 428.948,74.807L437.322,73.662C438.254,59.51 437.481,42.919 434.686,29.33C428.948,29.761 426.315,30.474 426.315,31.475ZM492.823,101.116C486.774,100.259 474.529,100.972 462.901,100.544C462.588,70.945 460.573,36.914 461.817,6.594C467.863,6.74 474.992,6.023 481.809,6.594C481.193,28.903 479.796,54.643 480.107,77.237C483.211,77.093 488.169,76.239 493.128,76.381C493.13,85.24 493.596,93.251 492.823,101.116ZM501.654,100.259C500.105,93.401 499.021,86.104 498.404,75.661C497.005,51.21 495.762,30.619 500.11,7.879C508.326,5.593 524.918,6.737 532.824,8.023C534.682,21.324 535.305,32.19 534.379,46.773C530.192,48.346 521.662,47.777 519.65,46.06C519.49,41.343 519.65,33.191 517.169,27.613L512.36,28.758C511.742,36.623 511.429,60.649 515.304,74.949L520.575,74.088C520.575,68.371 519.645,60.508 519.178,55.787C523.056,55.787 527.558,55.357 530.343,55.93C533.286,55.93 534.685,57.79 534.531,61.653C534.371,68.66 534.062,91.253 531.425,100.115C521.346,101.116 511.425,100.259 501.654,100.259ZM564.757,53.783L560.882,53.351C560.11,73.372 559.795,81.954 560.262,101.258C554.837,100.975 549.098,101.827 543.983,101.113C543.364,69.367 543.83,35.048 541.662,6.446C546.004,7.303 555.93,6.158 558.098,7.303L558.558,23.892C561.202,24.18 563.369,24.038 565.54,24.038C566.161,20.891 566.004,16.6 566.625,5.874C572.982,6.159 577.323,6.159 584.146,7.303C584.921,38.192 583.212,68.796 584.611,99.68C580.27,100.538 571.431,99.825 566.322,100.112C566.153,84.387 567.237,69.082 564.757,53.783ZM628.939,7.879C628.003,12.885 629.403,19.323 628.164,23.325C622.429,22.895 616.534,22.895 610.802,23.038C610.031,27.755 610.647,32.62 611.889,37.05C616.852,36.622 622.281,36.909 628.946,37.341C628.79,44.204 627.39,49.348 626.155,56.07C626.467,56.214 617.164,55.638 612.351,56.504C612.202,64.082 612.202,70.656 613.287,78.236C618.401,78.806 622.899,79.092 627.704,78.953C627.704,84.959 627.392,94.535 626.617,100.974C619.019,101.828 603.054,101.402 595.456,101.541C592.509,72.651 591.886,37.34 592.041,7.874C603.201,7.879 619.017,8.311 628.939,7.879ZM657.307,37.341C657.619,35.48 657.463,31.047 657.619,29.187L652.654,29.045C651.101,31.76 652.032,37.767 652.032,40.913C655.755,43.056 659.784,45.059 667.233,48.348C669.549,49.349 671.103,50.206 671.103,53.925C671.413,71.37 672.808,85.529 669.399,99.828C661.493,101.396 643.821,102.832 637.62,97.541C635.294,88.389 635.294,78.236 635.916,65.225C638.242,63.795 644.75,64.94 647.543,65.081C648.163,69.371 648.472,74.661 648.939,77.809C650.959,78.668 654.987,80.096 655.452,77.244L655.452,63.514C648.327,58.217 641.502,56.215 636.075,50.926C633.755,37.053 633.287,23.326 635.302,9.026C639.648,6.739 644.915,6.312 651.428,6.312C656.077,6.312 669.571,7.454 670.189,9.456C674.064,16.749 672.362,31.477 670.653,38.199C666.456,38.625 661.492,39.34 657.307,37.341ZM685.055,100.831C685.055,76.234 685.218,50.351 684.286,25.898C679.637,25.898 683.973,25.755 675.603,25.755C675.603,19.892 674.825,11.884 675.906,7.45C691.411,6.308 696.994,7.45 713.743,6.449C713.743,12.03 714.514,18.748 714.363,28.185C708.779,28.331 706.3,29.186 703.352,29.471C703.818,53.924 704.593,78.236 704.593,100.398C698.39,100.544 693.891,100.831 685.055,100.831ZM754.976,7.879C754.049,12.885 755.444,19.323 754.205,23.325C748.472,22.895 742.576,22.895 736.843,23.038C736.072,27.755 736.688,32.62 737.929,37.05C742.891,36.622 748.321,36.909 754.987,37.341C754.828,44.204 753.431,49.348 752.196,56.07C752.504,56.214 743.204,55.638 738.393,56.504C738.241,64.082 738.241,70.656 739.33,78.236C744.444,78.806 748.937,79.092 753.747,78.953C753.747,84.959 753.434,94.535 752.661,100.974C745.061,101.828 729.097,101.402 721.492,101.541C718.549,72.651 717.929,37.34 718.086,7.874C729.237,7.879 745.053,8.311 754.976,7.879ZM797.143,51.637C796.372,55.212 792.342,54.64 790.016,56.501C792.654,58.65 798.39,59.505 798.39,63.084C798.39,75.377 799.322,88.82 797.614,100.406C793.432,100.26 785.833,100.693 781.493,100.839C780.563,91.401 783.348,74.096 779.94,66.233L777.152,66.805C777.617,76.809 777.462,88.397 778.081,99.835C773.435,100.839 766.612,101.409 762.74,102.125C761.181,70.52 760.412,41.495 762.112,8.89C763.818,8.46 790.635,4.174 797.463,11.32C799.785,13.752 799.169,18.47 799.322,21.475C799.777,32.046 799.468,40.627 797.143,51.637ZM776.369,24.897C777.296,33.191 777.296,41.628 777.14,49.924L781.945,51.068C784.276,44.206 783.807,29.187 782.88,23.754L776.369,24.897Z" style="fill:white;fill-rule:nonzero;"/>
                        </g>
                    </g>
                    <g transform="matrix(1.30933,0,0,1.60493,-0.133665,5.85)">
                        <path d="M94.541,8.334C94.561,8.251 94.65,8.404 94.658,8.334C94.626,8.018 94.303,8.018 94.166,7.818C94.131,7.767 94.082,7.487 94.111,7.523C94.074,7.46 93.98,7.379 93.931,7.303C93.796,7.086 93.804,6.921 93.534,6.906C93.527,6.797 93.534,6.703 93.581,6.648C93.283,6.901 92.789,6.752 92.294,6.789C91.94,6.814 91.6,7.043 91.357,7.046C91.138,7.05 90.882,6.819 90.679,6.999C90.722,7.059 90.9,6.981 90.867,7.116C90.835,7.204 90.724,7.312 90.609,7.374C90.478,7.443 90.312,7.436 90.212,7.538C90.042,7.71 89.962,7.976 89.979,8.265C89.708,8.571 89.458,8.898 89.324,9.34C89.286,9.487 89.438,9.444 89.44,9.551C89.295,9.789 89.409,10.01 89.393,10.231C89.387,10.313 89.336,10.377 89.324,10.464C89.274,10.781 89.387,11.101 89.487,11.354C89.559,11.532 89.68,11.687 89.745,11.846C89.905,12.238 89.751,12.503 89.629,12.827C89.521,12.858 89.455,12.662 89.349,12.617C89.16,12.619 89.133,12.457 89.021,12.383C88.605,12.436 88.396,12.62 88.178,12.946C88.138,12.99 88.078,13.029 88.003,13.063L87.226,12.699L87.56,11.986L87.617,11.867C87.633,11.835 87.618,11.796 87.585,11.78L83.473,9.856L83.509,9.777C83.526,9.744 83.51,9.705 83.477,9.69L83.151,9.537L83.235,9.36C83.25,9.327 83.235,9.288 83.203,9.272L82.456,8.922C82.423,8.906 82.384,8.92 82.369,8.953L82.283,9.13L81.956,8.979C81.924,8.962 81.885,8.978 81.869,9.009L81.832,9.088L81.389,8.881C81.528,8.642 81.913,8.397 81.882,8.123C81.848,7.812 81.425,7.953 81.203,8.029C80.73,8.192 80.282,8.375 79.846,8.123C79.839,8.106 79.831,8.093 79.824,8.078L79.884,7.95L79.364,7.709L79.276,7.896L79.108,7.817C79.076,7.801 79.037,7.816 79.02,7.849L78.964,7.967L78.254,9.486L78.198,9.605C78.181,9.637 78.197,9.676 78.228,9.692L78.574,9.853L77.02,13.176L77.184,13.253L78.738,9.93L78.837,9.976L78.835,9.997C78.613,10.778 79.389,10.933 79.936,11.099C79.756,11.547 79.397,11.797 79.233,12.291C79.129,12.611 79.172,13.019 79.129,13.351L78.94,13.754C78.811,13.671 78.643,13.574 78.555,13.571C78.401,13.566 77.752,14.404 77.558,14.884C77.445,15.16 77.421,15.509 77.37,15.914C77.295,15.332 77.169,14.799 76.871,14.356C76.947,13.989 76.695,13.773 76.441,13.554C75.966,13.148 75.129,12.977 74.523,12.724C73.65,12.362 72.749,11.98 72.361,11.236C72.277,11.075 72.226,10.821 72.205,10.591C72.184,10.365 72.15,10.074 72.232,9.847C72.273,9.738 72.398,9.639 72.461,9.546C72.671,9.247 72.837,8.892 72.89,8.43C72.924,8.131 72.919,7.784 72.949,7.443C72.976,7.123 73.049,6.794 73.035,6.499C73.025,6.318 72.949,6.103 72.921,5.884C72.893,5.667 72.913,5.414 72.863,5.211C72.843,5.135 72.754,5.047 72.676,4.953C72.603,4.863 72.551,4.778 72.504,4.695C72.412,4.536 72.222,4.281 72.203,4.108C72.104,3.17 71.974,2.139 71.76,1.29C71.689,1.003 71.65,0.701 71.488,0.474C71.385,0.66 71.404,0.913 71.402,1.147C71.398,1.866 71.349,2.627 71.302,3.294C70.681,2.977 69.65,3.038 68.984,3.278C68.818,3.339 68.488,3.556 68.339,3.537C68.123,3.507 68.026,3.05 67.982,2.793C67.813,1.876 67.696,0.865 67.495,0L67.479,0C67.326,0.285 67.218,0.996 67.166,1.431C67.099,1.986 67.065,2.481 67.065,3.035C67.065,4.181 67.026,5.291 67.08,6.397C67.104,6.935 67.09,7.513 67.151,8.043C67.213,8.569 67.354,9.023 67.338,9.561C67.321,10.055 67.23,10.559 67.009,10.935C66.914,11.096 66.787,11.268 66.652,11.436C66.556,11.554 66.351,11.835 66.209,11.866C65.855,11.938 65.498,12.067 65.135,12.18C64.776,12.293 64.42,12.38 64.091,12.509C63.422,12.771 62.921,13.163 62.615,13.797C62.474,14.088 62.375,14.429 62.291,14.784C62.084,14.297 61.889,13.771 61.666,13.447C61.671,13.163 61.589,12.996 61.501,12.716C61.389,12.362 61.284,12.05 61.172,11.711C61.075,11.419 61.024,11.148 60.77,11.107C60.758,10.43 60.188,10.07 59.784,9.735C59.389,9.026 58.35,8.962 57.572,8.638C57.488,8.633 57.445,8.668 57.388,8.693C57.333,8.59 57.266,8.6 57.204,8.584C56.947,8.52 56.603,8.486 56.253,8.401C55.96,8.33 55.548,8.141 55.339,8.163C55.256,8.172 55.205,8.268 55.139,8.255C55.098,8.246 55.134,8.204 55.083,8.163C55.052,8.14 54.98,8.132 54.975,8.127C54.905,8.079 54.869,8.02 54.789,7.999C54.654,7.965 54.475,8.02 54.296,7.999C53.999,7.963 53.77,7.787 53.473,7.907C53.298,7.79 53.115,7.68 52.943,7.56C52.892,7.203 52.591,7.093 52.486,6.791C52.581,6.425 53.029,6.073 52.669,5.749C52.984,5.156 52.971,4.234 52.981,3.336C52.994,3.264 52.913,3.284 52.926,3.208C52.878,1.408 52.233,0.209 50.457,0.136L50.109,0.136C48.656,0.26 47.797,0.921 47.566,2.276C47.513,2.588 47.485,2.95 47.457,3.3C47.429,3.659 47.381,4.04 47.402,4.378C47.445,5.061 47.609,5.766 47.622,6.39C47.686,6.448 47.724,6.529 47.768,6.61C47.845,6.751 47.946,6.826 47.951,7.048C48.077,7.201 48.259,7.3 48.445,7.397C48.48,7.557 48.509,7.722 48.554,7.873C48.422,8.019 48.191,8.163 48.005,8.366C47.775,8.619 47.458,8.909 47.658,9.317C47.64,9.392 47.472,9.272 47.402,9.336C47.34,9.516 47.607,9.503 47.603,9.684C47.327,9.648 47.195,9.908 46.981,9.996C46.917,10.467 46.326,10.413 46.195,10.818C46.128,10.824 46.034,10.801 45.994,10.837C45.432,11.196 45.132,11.816 44.623,12.228C44.568,12.427 44.41,12.707 44.294,13.013C44.202,13.255 43.951,13.929 44.202,14.092C44.187,14.966 44.036,15.767 44.312,16.359C44.394,16.537 44.603,16.878 44.495,17.237C44.474,17.308 44.404,17.348 44.348,17.405C44.202,17.305 44.04,17.214 43.897,17.118C43.756,17.022 43.614,16.925 43.472,16.835C43.326,16.742 43.159,16.671 43.027,16.57C42.857,16.442 42.732,16.258 42.56,16.126C42.38,15.982 42.17,15.908 41.974,15.78C41.792,15.664 41.601,15.432 41.286,15.498C41.345,15.373 41.285,15.206 41.225,15.133C41.415,15.04 41.334,14.676 41.386,14.445C41.726,14.183 41.86,13.716 42.075,13.331C42.728,13.759 43.314,13.222 43.635,12.764C44.105,12.092 44.289,11.16 44.282,10.05C44.279,9.493 44.267,8.869 44.14,8.511C43.926,7.907 42.698,7.612 42.398,8.247C41.961,7.561 41.248,6.924 40.312,6.768C40.083,6.73 39.967,6.814 39.786,6.829C39.628,6.842 39.473,6.789 39.32,6.789C38.239,6.785 38.087,7.581 37.355,7.943C37.215,7.536 36.724,7.406 36.363,7.678C36.078,7.895 35.958,8.363 35.735,8.773C35.549,9.113 35.246,9.56 35.208,9.967C35.14,10.702 35.318,11.215 35.451,11.79C35.538,12.166 35.582,12.511 35.715,12.762C35.902,13.116 36.267,13.477 36.91,13.37C37.315,13.303 37.534,12.925 37.598,12.559C37.617,12.452 37.556,12.248 37.74,12.195C37.816,12.557 37.803,13.008 37.942,13.308C37.814,13.308 37.756,13.378 37.679,13.429C37.631,13.646 37.556,13.832 37.517,14.058C37.319,14.225 37.248,14.519 37.051,14.686C36.622,14.666 36.39,14.843 36.099,14.949C36.005,14.982 35.9,14.996 35.816,15.03C35.698,15.078 35.588,15.169 35.471,15.213C35.357,15.256 35.232,15.251 35.126,15.294C35.008,15.342 34.905,15.462 34.782,15.517C34.297,15.735 33.708,15.74 33.283,15.963C33.043,16.089 32.878,16.359 32.676,16.488C32.675,16.441 32.666,16.387 32.655,16.33L32.591,15.526L33.403,15.389L33.79,15.139L33.835,14.843L35.376,14.348L35.157,12.989L32.452,13.436L32.451,13.399C32.388,12.961 32.733,13.006 32.718,12.648C32.702,12.288 32.467,7.885 32.405,7.417C32.366,7.122 32.216,6.95 32.062,6.832L31.952,5.616C31.952,5.616 31.892,5.596 31.801,5.575L31.773,5.254C31.773,5.254 31.563,5.104 31.18,5.104C30.798,5.104 30.573,5.368 30.573,5.368L30.679,6.744L30.289,7.182L30.32,7.29L30.674,7.357C30.553,7.633 30.439,7.938 30.445,8.087C30.461,8.4 30.696,12.534 30.743,12.754C30.79,12.974 31.174,13.004 31.189,13.333C31.189,13.335 31.19,13.337 31.19,13.339L31.225,13.794L30.843,13.829L30.743,13.887C30.743,13.887 30.921,14.314 31.276,14.458L31.352,15.446C31.273,15.675 31.065,15.853 30.973,16.099C30.847,16.439 30.827,16.834 30.69,17.193C30.583,17.259 30.383,17.29 30.326,17.417C30.284,17.509 30.329,17.675 30.305,17.843C30.294,17.916 30.249,17.988 30.244,18.045C30.227,18.247 30.256,18.496 30.263,18.741C30.201,18.696 30.134,18.652 30.069,18.607C30.018,18.574 29.81,18.516 29.472,18.45L29.375,17.116C29.65,17.064 29.807,17.033 29.807,17.033L29.1,14.423C29.1,14.423 27.099,10.747 22.499,10.747C19.538,10.747 17.671,11.971 16.624,13.004L13.09,12.77C13.032,12.497 12.89,12.3 12.711,12.289C12.697,12.288 12.684,12.289 12.669,12.29C12.56,12.02 12.384,11.843 12.176,11.829C12.167,11.828 12.158,11.829 12.15,11.829C11.997,11.619 11.796,11.487 11.568,11.474C11.368,11.459 11.174,11.539 11.007,11.69C10.98,11.682 10.951,11.676 10.922,11.674C10.735,11.661 10.558,11.778 10.414,11.975C10.204,11.997 10.014,12.231 9.916,12.561L9.595,12.54C9.495,12.011 8.947,11.229 8.203,11.18C7.357,11.123 6.893,11.346 6.738,11.409C6.583,11.471 6.156,11.829 6.102,12.639C6.101,12.652 6.098,12.697 6.098,12.707C6.049,13.447 6.416,13.979 6.562,14.061C6.708,14.143 7.141,14.383 7.985,14.441C8.728,14.491 9.377,13.788 9.545,13.277L9.867,13.298C9.92,13.638 10.077,13.895 10.283,13.944C10.398,14.159 10.56,14.297 10.747,14.309C10.775,14.311 10.804,14.309 10.832,14.304C10.978,14.475 11.159,14.579 11.36,14.593C11.587,14.609 11.803,14.503 11.984,14.317C11.993,14.318 12.001,14.321 12.009,14.321C12.217,14.335 12.415,14.18 12.56,13.928C12.574,13.932 12.587,13.934 12.601,13.935C12.78,13.948 12.947,13.773 13.04,13.507L16.004,13.706C15.68,14.124 15.533,14.414 15.533,14.414L14.838,16.893C14.838,16.893 15.027,16.933 15.358,16.997L15.232,18.344C14.767,18.429 14.48,18.502 14.419,18.544C14.191,18.696 13.94,18.852 14.015,18.98C14.039,19.022 14.485,19.105 15.152,19.197L15.031,20.496C14.61,20.574 14.351,20.642 14.294,20.682C14.066,20.836 13.814,20.99 13.89,21.12C13.913,21.16 14.328,21.237 14.953,21.326L14.818,22.77C14.369,22.794 14.083,22.815 13.999,22.833C13.772,22.985 13.594,23.187 13.65,23.252C13.68,23.286 14.074,23.3 14.671,23.304C14.121,23.42 14.12,23.52 14.12,23.52L14.023,24.124C13.815,24.123 13.692,24.122 13.672,24.122C13.416,24.122 13.366,24.146 13.35,24.213C13.333,24.278 12.392,26.891 12.292,27.212C12.193,27.534 12.424,27.583 12.424,27.583L12.322,27.881C12.322,27.881 11.555,27.929 11.485,27.953C11.462,27.961 11.355,28.399 11.222,28.991L3.896,25.81C3.8,25.769 3.697,25.771 3.608,25.808L2.997,25.542C3.112,25.036 3.025,24.539 2.773,24.188C2.699,23.837 2.524,23.572 2.257,23.456C1.653,23.193 0.804,23.807 0.363,24.825C-0.078,25.842 0.053,26.88 0.658,27.141C0.925,27.256 1.24,27.202 1.545,27.017C1.973,26.961 2.396,26.685 2.686,26.254L3.298,26.521C3.332,26.611 3.401,26.689 3.496,26.73L11.004,29.985C10.778,31.043 10.562,32.124 10.574,32.161C10.597,32.232 11.771,33.079 11.771,33.079C11.771,33.079 11.679,33.336 11.532,33.718C11.428,33.989 11.632,34.125 11.632,34.125L11.986,34.407L11.759,35.595L11.733,35.595C10.897,35.595 10.218,36.273 10.218,37.109C10.218,37.757 10.627,38.312 11.201,38.528L10.894,40.139C10.867,40.137 10.839,40.135 10.812,40.135C9.975,40.135 9.297,40.815 9.297,41.651C9.297,42.32 9.732,42.887 10.333,43.088L10.023,44.716C9.979,44.712 9.935,44.709 9.89,44.709C9.054,44.709 8.376,45.388 8.376,46.224C8.376,46.912 8.833,47.492 9.46,47.677L9.152,49.289C9.102,49.284 9.05,49.281 8.999,49.281C8.163,49.281 7.484,49.96 7.484,50.796C7.484,51.49 7.952,52.074 8.588,52.253L8.508,52.674L7.671,53.12L7.243,54.772L7.219,56.473L7.434,56.544C7.434,56.544 7.482,57.598 7.482,57.741C7.482,57.884 9.902,59.345 10.093,59.37C10.284,59.395 17.088,59.466 17.28,59.466C17.472,59.466 25.257,58.82 25.257,58.82L30.264,57.814C30.264,57.814 31.83,57.179 33.361,56.562C33.484,57.246 33.981,57.554 34.561,57.782C34.592,57.996 34.458,58.42 34.561,58.653C34.661,58.88 35.128,58.98 35.533,58.998C36.346,59.03 37.116,58.828 37.66,58.532C37.954,58.372 38.261,58.191 38.633,58.167C39.485,58.111 40.246,58.533 40.983,58.27C41.258,58.169 41.565,57.981 41.813,57.784C42.42,57.3 42.909,56.747 43.088,55.899C43.823,55.852 44.408,55.957 44.992,56.061C45.146,55.471 44.917,54.803 44.911,54.178C45.315,54.075 45.819,54.003 45.924,53.652C45.986,53.442 45.84,53.074 45.802,52.801C45.756,52.471 45.744,52.137 45.721,51.848C45.357,47.385 45.138,42.747 44.891,38.318C45.261,38.237 45.639,38.163 45.64,37.712C45.926,37.54 45.887,37.141 46.005,36.739C46.072,36.508 46.219,36.259 46.228,36.071C46.246,35.683 45.993,35.318 46.045,34.896C46.251,34.788 46.531,34.771 46.624,34.587C46.627,34.636 46.631,34.685 46.636,34.73C46.709,35.423 46.755,36.136 46.8,36.814C46.821,37.117 46.923,37.392 46.946,37.673C46.959,37.828 46.972,37.974 47.001,38.112C47.03,38.254 47.098,38.383 47.11,38.514C47.125,38.652 47.073,38.786 47.055,38.915C46.986,39.432 47.077,40.07 47.11,40.597C47.143,41.119 47.166,41.618 47.256,42.06C47.438,42.935 47.982,43.464 48.572,43.943C48.603,44.101 48.676,44.218 48.718,44.364C48.497,44.757 48.001,44.802 48.133,45.443C48.284,46.175 48.771,47.124 49.321,47.398C49.43,48.175 49.491,49.11 49.541,49.996C49.558,50.297 49.476,50.742 49.632,50.874C49.433,51.189 49.669,51.54 49.652,51.844C49.646,51.926 49.59,51.983 49.597,52.063C49.605,52.176 49.708,52.266 49.705,52.375C49.703,52.46 49.624,52.533 49.597,52.631C49.566,52.739 49.607,52.747 49.56,52.816C49.472,52.941 49.626,53.032 49.632,53.163C49.47,53.309 49.575,53.523 49.449,53.676C49.524,53.799 49.45,53.961 49.468,54.133C49.377,54.204 49.388,54.281 49.413,54.352C49.256,54.512 49.007,54.581 48.974,54.866C48.88,54.852 48.818,54.917 48.738,54.957C48.558,55.047 48.466,55.067 48.39,55.269C48.242,55.347 48.07,55.4 47.932,55.489C47.908,55.556 47.891,55.631 47.896,55.726C47.488,55.995 47.167,56.222 46.597,56.312C45.916,56.418 45.05,56.241 44.44,56.312C44.391,56.318 44.317,56.332 44.275,56.347C44.084,56.426 44.067,56.603 43.964,56.769C43.883,56.898 43.798,56.947 43.763,57.062C43.61,57.566 44.19,57.791 44.531,57.939C45.28,58.261 46.171,58.398 47.201,58.415C48.607,58.436 49.543,57.861 50.912,57.939C50.893,58.103 50.875,58.345 50.912,58.505L51.881,58.505C51.877,58.601 51.882,58.687 51.9,58.761C51.806,58.876 51.664,59.056 51.736,59.238C51.785,59.361 52.06,59.429 52.249,59.494C52.857,59.698 53.553,59.816 54.187,59.896C54.646,59.954 55.166,60.039 55.613,59.986C56.054,59.935 56.513,59.82 56.82,59.64C57.113,59.465 57.246,59.085 57.441,58.797C57.48,58.739 57.638,58.548 57.77,58.541C57.926,58.533 58.067,58.67 58.19,58.669C58.358,58.668 58.626,58.524 58.774,58.449C58.96,58.356 59.158,58.279 59.231,58.084C59.295,57.916 59.256,57.748 59.251,57.591C59.228,57.002 59.201,56.361 59.05,55.872C58.997,55.702 58.881,55.498 58.886,55.395C58.892,55.256 59.07,55.1 59.07,54.957C59.068,54.767 58.926,54.665 58.869,54.5C59.127,54.062 58.851,53.505 58.874,53.035C58.902,52.994 58.934,52.954 58.967,52.918C59.104,52.767 59.294,52.622 59.483,52.488C60.1,52.05 60.815,51.634 61.545,51.243C61.64,51.192 61.816,51.088 61.86,51.086C61.954,51.079 62.209,51.413 62.302,51.501C62.459,51.646 62.625,51.789 62.746,51.944C63.023,52.297 63.189,52.686 63.447,53.016C63.635,52.922 63.709,52.715 63.791,52.516C63.967,52.682 64.059,52.873 64.177,53.131C64.21,53.201 64.276,53.299 64.278,53.36C64.284,53.459 64.194,53.576 64.177,53.705C64.156,53.877 64.156,54.08 64.135,54.276C64.114,54.481 64.081,54.688 64.077,54.836C64.074,54.956 64.118,54.998 64.148,55.093C64.081,55.273 63.998,55.405 63.961,55.595C63.94,55.7 63.972,55.816 63.946,55.939C63.918,56.077 63.79,56.202 63.746,56.326C63.651,56.594 63.711,56.82 63.675,57.085C63.665,57.154 63.623,57.211 63.617,57.285C63.602,57.469 63.663,57.665 63.688,57.857C63.711,58.037 63.727,58.222 63.774,58.416C64.278,58.497 64.887,58.441 65.391,58.43C65.912,58.418 66.483,58.463 66.995,58.43C67.438,58.403 67.452,58.074 67.524,57.616C67.543,57.5 67.522,57.387 67.524,57.272C67.524,57.128 67.563,57.024 67.551,56.885C67.541,56.758 67.466,56.633 67.451,56.498C67.398,56.025 67.534,55.482 67.337,55.109C67.555,54.851 67.428,54.394 67.494,54.036C67.514,53.93 67.594,53.812 67.637,53.691C67.682,53.566 67.686,53.429 67.723,53.304C67.743,53.246 67.807,53.181 67.825,53.118C67.913,52.786 67.871,52.425 67.981,52.073C68.292,52.438 68.514,52.848 68.768,53.274C68.852,53.413 68.964,53.555 68.956,53.748C69.101,53.583 69.122,53.338 69.171,53.102C69.265,52.653 69.3,52.092 69.3,51.529C69.3,51.243 69.248,50.926 69.3,50.684C69.327,50.553 69.493,50.423 69.571,50.311C69.67,50.169 69.692,50.003 69.829,49.94C69.981,50.104 69.996,50.358 70.058,50.598C70.107,50.782 70.24,51.092 70.246,51.298C70.251,51.491 70.124,51.861 70.074,52.071C69.915,52.748 69.747,53.287 69.76,54.118C69.762,54.254 69.811,54.433 69.788,54.547C69.773,54.622 69.702,54.68 69.687,54.762C69.611,55.19 69.572,55.875 69.788,56.165C69.814,56.202 69.882,56.25 69.932,56.279C70.231,56.46 70.682,56.545 71.078,56.622C71.241,56.655 71.498,56.426 71.692,56.465C71.839,56.495 72.007,56.614 72.108,56.723C72.204,56.827 72.276,57.018 72.379,57.139C72.719,57.533 73.524,57.749 74.254,57.698C74.786,57.659 75.318,57.563 75.843,57.44C76.055,57.389 76.327,57.348 76.415,57.182C76.475,57.072 76.514,56.76 76.501,56.622C76.492,56.523 76.422,56.457 76.4,56.365C76.378,56.267 76.374,56.169 76.342,56.079C76.23,55.746 75.898,55.6 75.626,55.406C75.521,55.33 75.386,55.201 75.239,55.105C75.102,55.015 74.864,54.97 74.809,54.847C74.753,54.724 74.93,54.716 74.867,54.533C74.774,54.379 74.549,54.429 74.393,54.332C74.317,54.284 74.227,54.118 74.151,54.004C73.932,53.672 73.651,53.316 73.52,52.943C73.303,52.327 73.522,51.538 73.692,50.998C73.852,51.209 73.897,51.537 74.05,51.756C74.128,51.338 74.063,50.776 74.121,50.339C74.37,51.005 74.76,51.625 75.107,52.243C75.373,52.712 75.523,53.243 75.738,53.773C75.802,53.933 75.882,54.133 76.109,54.118C76.195,54.084 76.097,53.855 76.152,53.76C76.189,53.729 76.189,53.811 76.211,53.846C76.274,53.951 76.37,54.11 76.482,54.175C76.825,53.772 77.027,53.294 77.297,52.844C77.562,52.405 77.848,51.934 77.854,51.27C78.219,51.823 78.494,52.463 78.842,53.032C78.936,52.971 78.975,52.883 79.014,52.803C79.202,52.41 79.303,51.901 79.473,51.371C79.545,51.141 79.624,50.9 79.715,50.669C79.823,50.391 79.934,50.145 79.915,49.811C79.907,49.682 79.843,49.547 79.844,49.424C79.846,49.154 79.994,48.977 80.03,48.723C80.078,48.387 80.02,48.006 79.987,47.621C79.899,46.539 79.83,45.385 79.758,44.328C79.656,42.826 79.52,41.406 79.387,40.007C79.016,36.144 78.735,32.302 78.387,28.465C78.452,28.417 78.528,28.319 78.584,28.197C78.625,28.111 78.648,28.026 78.659,27.955C78.864,27.876 79.073,27.764 79.282,27.62C79.384,28.705 79.496,30.138 79.629,30.947C79.705,31.417 79.863,31.801 79.817,32.281C79.846,32.395 79.932,32.405 79.981,32.514C80.285,33.214 79.53,34.899 80.214,35.346C79.971,36.163 79.629,37.637 79.698,38.764C79.782,40.114 80.706,40.818 82.226,40.519C82.506,41.925 82.812,43.64 83.163,45.011C83.29,45.511 83.514,45.982 83.56,46.439C83.581,46.652 83.511,46.875 83.49,47.119C83.476,47.271 83.523,47.43 83.49,47.541C83.443,47.699 83.185,47.811 83.093,48.032C82.99,48.275 83.009,48.461 82.952,48.734C82.459,49.314 82.168,50.001 82.015,50.864C81.965,51.142 81.835,51.412 81.804,51.683C81.781,51.888 81.836,52.079 81.804,52.267C81.753,52.56 81.525,52.871 81.407,53.205C81.267,53.598 81.17,54.075 81.195,54.469C81.222,54.869 81,55.279 81.126,55.735C81.001,56.006 80.947,56.395 81.033,56.647C81.073,56.764 81.154,56.766 81.265,56.88C81.361,56.977 81.384,57.091 81.476,57.137C81.726,57.264 82.183,57.182 82.552,57.16C82.933,57.14 83.316,57.084 83.607,57.044C83.736,56.919 83.615,56.637 83.701,56.505C84.218,56.343 85.012,56.46 85.503,56.553C85.477,56.673 85.533,56.75 85.525,56.858C85.519,56.961 85.454,57.004 85.431,57.116C85.375,57.413 85.404,57.975 85.501,58.192C85.617,58.444 86.175,58.499 86.556,58.471C86.927,58.448 87.267,58.278 87.562,58.214C87.884,58.281 88.032,58.608 88.263,58.729C88.578,58.895 89.232,58.8 89.644,58.752C91.017,58.596 92.285,58.223 93.226,57.814C93.277,57.529 93.293,57.12 92.993,57.114C93.017,55.98 91.637,56.463 91.004,56.013C90.88,55.935 90.936,55.825 90.863,55.732C90.709,55.531 90.312,55.53 90.3,55.193C89.9,55.142 89.922,54.667 89.552,54.586C89.595,54.545 89.7,54.565 89.739,54.516C90.073,53.755 89.81,52.823 89.552,52.153C89.386,51.725 89.07,51.34 89.013,50.96C88.935,50.439 89.097,49.64 89.06,48.972C89.047,48.748 88.984,48.538 88.99,48.339C88.994,48.219 89.05,48.078 89.06,47.941C89.088,47.562 88.97,47.159 88.99,46.841C89.015,46.433 89.32,45.933 89.529,45.577C90.247,44.354 90.312,42.706 90.558,41.13C91.501,40.674 92.204,40.123 92.782,39.352C93.357,38.581 93.658,37.598 93.812,36.38C93.968,35.137 93.736,33.899 93.578,32.705C93.422,31.527 93.161,30.41 92.912,29.409C93.207,29.424 93.461,29.187 93.496,28.874L93.716,28.888C93.788,28.892 93.852,28.836 93.856,28.764L93.877,28.413L94.404,28.444C94.488,28.449 94.558,28.385 94.562,28.302L94.597,27.73C94.601,27.647 94.538,27.576 94.455,27.571L94.298,27.562L94.407,25.73L94.489,25.735C94.516,25.737 94.54,25.707 94.542,25.668L94.626,24.249C94.629,24.21 94.608,24.178 94.582,24.176L94.18,24.15C94.153,24.148 94.129,24.178 94.126,24.217L94.115,24.408L93.748,24.387C93.788,24.241 94.111,24.227 94.023,23.905C93.906,23.772 93.57,23.858 93.344,23.835C93.248,23.79 93.181,23.554 93.04,23.482C92.957,23.441 92.839,23.503 92.735,23.46C92.706,23.448 92.643,23.346 92.593,23.297C92.371,23.074 92.401,22.958 92.383,22.571C92.374,22.388 92.292,22.216 92.289,22.126C92.275,21.807 92.445,21.397 92.523,21.025C92.599,20.65 92.706,20.254 92.71,19.879C92.715,19.463 92.647,19 92.616,18.545C92.605,18.398 92.634,18.235 92.616,18.077C92.57,17.67 92.421,17.286 92.265,17C92.181,16.849 91.98,16.741 91.912,16.579C91.84,16.399 91.776,15.606 91.819,15.409C91.868,15.174 92.171,14.974 92.309,14.73C92.407,14.558 92.444,14.403 92.497,14.213C93.184,13.855 93.696,13.322 93.853,12.436C94.173,12.285 94.208,11.998 94.345,11.64C94.408,11.473 94.568,11.304 94.578,11.196C94.593,11.066 94.477,10.923 94.483,10.798C94.494,10.627 94.604,10.42 94.647,10.236C94.699,10.016 94.736,9.819 94.741,9.581C94.761,9.461 94.809,9.651 94.858,9.651C95.001,9.14 94.698,8.702 94.541,8.334ZM35.249,27.604C35.834,27.491 35.906,28.603 35.33,28.617C34.814,28.628 34.758,27.699 35.249,27.604ZM32.716,27.908C32.758,27.817 32.756,27.721 32.797,27.625C32.893,27.396 33.017,27.229 33.04,26.956C33.083,26.464 33.004,25.921 33.101,25.255C33.204,25.357 33.121,25.527 33.162,25.66C33.194,25.763 33.312,25.848 33.345,25.964C33.376,26.073 33.353,26.209 33.386,26.288C33.456,26.457 33.661,26.463 33.771,26.571C33.768,26.911 33.69,27.417 33.709,27.868C33.716,28.002 33.778,28.194 33.75,28.313C33.716,28.457 33.483,28.618 33.405,28.779C33.23,29.141 33.148,29.692 33.041,30.197C32.925,30.743 32.826,31.304 32.738,31.871C32.709,31.764 32.686,31.682 32.675,31.642C32.601,31.369 32.411,31.318 32.411,31.318L32.039,31.237L31.939,30.814C31.939,30.814 32.69,30.478 32.69,30.411C32.69,30.386 32.514,29.488 32.3,28.405C32.49,28.238 32.646,28.061 32.716,27.908ZM30.281,19.106C30.299,19.294 30.318,19.479 30.286,19.625C30.263,19.729 30.121,19.911 30.043,20.05C29.939,20.236 29.842,20.413 29.748,20.587C29.71,20.579 29.671,20.571 29.629,20.564L29.531,19.235C29.858,19.186 30.119,19.142 30.281,19.106ZM38.509,29.508C37.933,29.46 37.833,28.541 38.448,28.436C38.449,28.435 38.454,28.415 38.469,28.415C39.233,28.33 39.231,29.567 38.509,29.508ZM41.609,28.536C41.128,28.547 41.101,27.6 41.528,27.503C42.106,27.372 42.087,28.525 41.609,28.536ZM55.96,51.167C55.939,51.481 55.7,51.868 55.631,52.21C55.608,52.32 55.618,52.445 55.594,52.558C55.536,52.833 55.448,53.114 55.393,53.4C55.336,53.701 55.319,54.013 55.247,54.277C55.174,54.552 54.995,54.808 54.882,55.064C54.76,55.337 54.585,55.57 54.481,55.812C54.452,55.88 54.456,55.966 54.425,56.033C54.307,56.297 54.04,56.531 53.949,56.782C53.976,56.535 54.015,56.238 53.929,56.013C53.866,55.845 53.73,55.745 53.656,55.593C53.635,55.547 53.654,55.489 53.638,55.447C53.599,55.346 53.5,55.319 53.472,55.227C53.493,55.147 53.57,55.055 53.564,54.971C53.556,54.858 53.433,54.813 53.4,54.697C53.382,54.637 53.402,54.508 53.381,54.405C53.36,54.301 53.319,54.242 53.326,54.167C53.334,54.076 53.434,53.988 53.454,53.894C53.483,53.732 53.397,53.513 53.362,53.29C53.243,52.562 53.274,51.714 53.326,50.913C53.36,50.855 53.468,50.872 53.489,50.805C53.36,50.397 53.463,49.787 53.489,49.213C53.516,48.635 53.561,48.126 53.563,47.53C53.591,47.456 53.709,47.47 53.783,47.439C53.809,47.322 53.989,47.201 54.039,47.037C54.063,46.951 54.049,46.828 54.075,46.708C54.175,46.25 54.602,45.639 54.055,45.354C54.383,44.593 54.014,43.967 53.744,43.27C53.536,42.729 53.424,42.076 53.014,41.807C52.852,41.703 52.596,41.653 52.448,41.587C52.421,40.977 52.707,40.451 52.594,39.906C52.549,39.686 52.366,39.444 52.267,39.229C52.15,38.983 52.084,38.752 51.974,38.534C52.162,37.882 52.275,37.153 52.23,36.266C52.568,36.293 52.917,36.311 53.291,36.303C53.542,37.669 53.713,39.203 54.169,40.415C54.332,40.851 54.508,41.217 54.534,41.695C54.546,41.889 54.523,42.029 54.534,42.188C54.553,42.463 54.673,42.772 54.626,43.065C54.587,43.311 54.32,43.469 54.461,43.834C54.537,44.031 54.725,44.091 54.846,44.272C54.512,44.397 54.481,45.122 54.718,45.442C54.877,45.658 55.151,45.782 55.376,45.827C55.768,46.508 55.633,47.723 55.688,48.698C55.709,49.106 55.795,49.508 55.579,49.795C55.673,49.884 55.737,50.002 55.89,50.033C55.738,50.399 55.986,50.767 55.96,51.167ZM58.481,36.668C58.54,36.022 58.454,35.354 58.59,34.84C59.004,34.593 59.397,34.329 59.77,34.047C59.604,35.393 59.434,36.735 59.264,38.057C59.155,38.911 59.045,39.768 58.936,40.628C58.843,40.599 58.756,40.571 58.701,40.524C58.696,40.246 58.764,40.011 58.793,39.777C58.821,39.529 58.894,39.251 58.849,38.99C58.814,38.782 58.633,38.56 58.537,38.349C58.436,38.129 58.27,37.857 58.263,37.656C58.252,37.376 58.449,37.03 58.481,36.668ZM81.598,8.17C81.549,8.392 81.317,8.574 81.157,8.774L80.495,8.463C80.88,8.424 81.219,8.246 81.598,8.17ZM81.34,35.227C81.184,34.893 81.088,34.496 80.944,34.151C80.994,33.92 81.041,33.686 81.085,33.449C81.297,33.911 81.296,34.591 81.34,35.227ZM80.525,10.765L80.957,10.966L80.893,11.108L80.459,10.905C80.484,10.856 80.512,10.806 80.525,10.765ZM79.021,10.066C79.033,10.07 79.042,10.073 79.052,10.076L80.241,10.633C80.163,10.75 80.071,10.89 80.026,10.956C79.609,10.754 78.846,10.786 79.021,10.066ZM79.344,12.891C79.331,12.668 79.369,12.502 79.419,12.352C79.475,12.186 79.54,12.037 79.667,11.884C79.764,11.768 79.884,11.646 80.002,11.485L79.344,12.891ZM80.193,30.405C80.2,30.446 80.171,30.453 80.17,30.428C80.133,29.711 80.029,28.83 79.959,28.039C79.945,27.888 79.896,27.493 79.861,27.143C80.017,26.993 80.174,26.826 80.324,26.645C80.506,26.771 80.697,26.884 80.825,26.869L80.825,27.221C80.664,27.279 80.517,27.351 80.404,27.454C80.298,28.403 80.256,29.415 80.193,30.405ZM80.85,40C79.454,39.359 80.43,36.458 80.686,35.18C80.874,35.61 81.1,36.286 81.34,36.747C81.425,36.909 81.55,37.072 81.598,37.215C81.672,37.438 81.675,37.727 81.715,37.964C81.834,38.675 81.988,39.352 82.159,40.07C81.684,40.121 81.215,40.168 80.85,40ZM92.271,29.363C92.782,31.054 93.203,33.097 93.298,35.226C93.425,38.011 92.349,39.653 90.536,40.584C90.513,40.327 90.373,40.075 90.348,39.813C90.331,39.635 90.385,39.471 90.371,39.274C90.344,38.882 90.266,38.461 90.16,38.081C90.127,37.963 90.056,37.852 90.019,37.729C89.749,36.817 89.571,35.803 89.503,34.803C89.462,34.188 89.238,33.594 89.128,33C89.021,32.411 88.91,31.821 88.59,31.385C88.778,31.292 89.111,31.344 89.245,31.198C89.213,30.155 89.257,29.033 88.964,28.249C88.974,28.187 88.978,28.12 89.011,28.085C88.853,27.426 88.818,26.643 88.474,26.166C88.773,26.066 89.058,25.954 89.222,25.722C89.472,25.752 89.666,25.839 89.949,25.838C90.042,26.106 90.234,26.272 90.534,26.329C90.523,26.394 90.601,26.483 90.736,26.557L90.617,28.563C90.613,28.635 90.668,28.698 90.74,28.702L91.769,28.765C91.771,29.073 91.986,29.332 92.271,29.363Z" style="fill-rule:nonzero;"/>
                        <path d="M7.092,11.952C7.335,11.968 7.509,12.332 7.48,12.765C7.451,13.198 7.231,13.536 6.988,13.52C6.745,13.504 6.571,13.14 6.6,12.707C6.629,12.273 6.849,11.936 7.092,11.952ZM86.441,17.286C85.82,17.523 85.187,17.746 84.564,17.981C84.55,17.939 84.543,17.892 84.538,17.846C84.553,17.847 84.576,17.86 84.581,17.846C84.56,17.814 84.514,17.824 84.486,17.823C84.259,17.815 84.129,17.97 83.909,17.974C83.917,17.948 83.93,17.929 83.943,17.912C83.82,17.932 83.935,18.086 83.867,18.148C83.786,18.13 83.748,18.044 83.712,17.991C83.678,17.937 83.65,17.888 83.594,17.858C83.584,17.859 83.604,17.88 83.588,17.886C83.477,17.842 83.436,17.751 83.331,17.702C83.31,17.702 83.338,17.721 83.32,17.728C83.265,17.724 83.185,17.78 83.15,17.718C83.176,17.637 83.259,17.643 83.29,17.567C83.32,17.585 83.34,17.608 83.363,17.63C83.367,17.574 83.29,17.518 83.232,17.498C83.169,17.477 83.097,17.491 83.06,17.457C83.097,17.375 83.211,17.361 83.288,17.315C83.32,17.329 83.314,17.368 83.342,17.383C83.34,17.297 83.292,17.233 83.214,17.179C83.184,17.158 83.116,17.134 83.123,17.1C83.129,17.072 83.178,17.07 83.21,17.077C83.363,17.104 83.469,17.223 83.572,17.312C83.625,17.357 83.676,17.407 83.728,17.445C83.786,17.487 83.851,17.533 83.927,17.535C83.912,17.519 83.894,17.508 83.871,17.497C83.992,17.399 84.145,17.352 84.27,17.256C84.366,17.181 84.438,17.064 84.574,17.041C84.608,17.073 84.623,17.118 84.653,17.153C84.633,17.001 84.491,16.884 84.549,16.687C84.598,16.522 84.744,16.443 84.863,16.341C85.009,16.217 85.068,16.008 85.218,15.936C85.322,15.887 85.465,15.893 85.607,15.913C85.589,15.893 85.55,15.891 85.53,15.875C85.593,15.837 85.718,15.789 85.812,15.798C86.002,15.814 85.892,16.023 86.064,16.067C86.075,16.061 86.042,16.041 86.06,16.028C86.097,16.039 86.113,16.014 86.15,16.025C86.173,16.195 85.902,16.059 85.845,16.163C85.827,16.135 85.814,16.102 85.785,16.082C85.809,16.146 85.848,16.231 85.832,16.324C85.823,16.378 85.793,16.429 85.786,16.499C85.77,16.654 85.886,16.789 85.865,16.954C85.844,17.113 85.745,17.217 85.636,17.308C85.636,17.311 85.634,17.311 85.63,17.311C85.63,17.312 85.629,17.314 85.629,17.315C85.75,17.267 85.84,17.17 85.896,17.019C86.15,17.039 86.309,17.172 86.441,17.286ZM87.484,18.282C87.422,18.235 87.316,18.208 87.241,18.17C87.211,18.155 87.193,18.13 87.165,18.128C87.144,18.16 87.167,18.191 87.164,18.21C87.113,18.188 87.129,18.13 87.15,18.091C87.181,18.036 87.257,17.979 87.32,17.943C87.365,17.918 87.505,17.876 87.506,17.819C87.507,17.794 87.477,17.778 87.434,17.774C87.33,17.762 87.217,17.809 87.121,17.839C87.018,17.871 86.919,17.921 86.797,17.886C86.828,17.88 86.864,17.881 86.896,17.872C86.84,17.83 86.743,17.88 86.701,17.84C86.709,17.818 86.743,17.838 86.74,17.801C86.435,17.898 86.133,18.021 85.827,18.13C85.519,18.24 85.214,18.356 84.912,18.472C85.043,18.577 85.185,18.701 85.384,18.758C85.414,18.767 85.454,18.767 85.477,18.79C85.459,18.8 85.438,18.797 85.419,18.795C85.227,18.771 85.072,18.645 84.947,18.566C84.868,18.695 84.726,18.727 84.609,18.799C84.769,18.965 84.988,19.117 85.296,19.169C85.629,19.224 85.899,19.155 86.123,19.023C86.35,18.888 86.545,18.7 86.652,18.415C86.595,18.406 86.549,18.392 86.515,18.369C86.427,18.378 86.353,18.432 86.252,18.408C86.114,18.375 86.174,18.233 86.241,18.178C86.268,18.154 86.305,18.136 86.317,18.104C86.291,18.067 86.229,18.034 86.233,17.988C86.291,17.97 86.298,18.062 86.35,18.083C86.372,18.082 86.368,18.038 86.393,18.045C86.385,18.158 86.216,18.184 86.205,18.297C86.203,18.327 86.223,18.339 86.238,18.36C86.383,18.403 86.465,18.337 86.568,18.324C86.59,18.32 86.64,18.306 86.654,18.345C86.636,18.364 86.595,18.345 86.578,18.363C86.702,18.428 86.783,18.343 86.9,18.384C87.042,18.434 87.088,18.641 87.25,18.618C87.271,18.536 87.197,18.504 87.164,18.458C87.143,18.428 87.146,18.391 87.113,18.369C87.189,18.284 87.342,18.4 87.447,18.415C87.474,18.419 87.534,18.417 87.545,18.384C87.557,18.348 87.5,18.293 87.484,18.282ZM85.172,17.053C85.254,17.06 85.295,16.842 85.182,16.849C85.098,16.854 85.076,17.046 85.172,17.053ZM85.055,17.179C85.05,17.273 85.235,17.289 85.225,17.194C85.182,17.225 85.1,17.223 85.055,17.179ZM85.264,16.209C85.239,16.199 85.203,16.226 85.188,16.269C85.169,16.312 85.176,16.355 85.203,16.366C85.229,16.376 85.265,16.348 85.28,16.305C85.296,16.262 85.289,16.219 85.264,16.209ZM85.543,16.286C85.518,16.275 85.482,16.303 85.466,16.346C85.45,16.389 85.456,16.432 85.483,16.442C85.507,16.454 85.543,16.426 85.559,16.383C85.575,16.339 85.568,16.296 85.543,16.286ZM85.281,16.648C85.254,16.644 85.23,16.629 85.218,16.611C85.214,16.652 85.239,16.689 85.276,16.696C85.315,16.702 85.35,16.672 85.358,16.63C85.337,16.645 85.311,16.652 85.281,16.648ZM85.26,16.104C85.283,16.09 85.309,16.085 85.33,16.088C85.31,16.061 85.271,16.052 85.238,16.07C85.206,16.089 85.193,16.129 85.21,16.159C85.217,16.14 85.234,16.119 85.26,16.104ZM85.62,16.248C85.646,16.221 85.646,16.175 85.619,16.144C85.593,16.116 85.551,16.111 85.521,16.135C85.543,16.138 85.568,16.151 85.587,16.172C85.609,16.196 85.62,16.223 85.62,16.248ZM73.793,14.184C73.189,13.547 72.062,13.108 70.974,13.124C70.411,13.133 69.786,13.29 69.728,13.782C69.695,14.06 69.832,14.277 69.943,14.427C70.297,14.896 70.988,15.235 71.533,15.414C71.917,15.54 72.465,15.66 73.008,15.629C73.514,15.599 74.029,15.442 74.124,15.026C74.198,14.697 73.952,14.352 73.793,14.184ZM73.464,15.3C73.663,15.017 73.31,14.599 73.006,14.784C72.989,14.793 72.943,14.854 72.935,14.854C72.894,14.854 72.709,14.639 72.562,14.668C72.377,14.706 72.329,14.942 72.291,15.14C72.103,14.921 71.694,14.256 71.39,14.64C71.247,14.529 71.004,14.33 70.788,14.468C70.706,14.527 70.806,14.731 70.874,14.825C70.916,14.883 70.923,14.908 70.976,14.969C70.593,14.754 69.916,14.44 69.974,13.838C70.013,13.414 70.506,13.339 70.947,13.279C70.718,13.623 71.558,14.079 71.663,13.737C71.712,13.576 71.611,13.47 71.577,13.307C71.593,13.315 71.687,13.47 71.738,13.504C71.79,13.512 71.833,13.523 71.926,13.52C71.947,13.5 71.947,13.429 71.962,13.365C72.021,13.612 72.209,14.079 72.592,14.038C72.814,14.016 72.791,13.714 72.635,13.595C73.066,13.783 73.866,14.126 73.937,14.741C73.976,15.075 73.737,15.229 73.464,15.3ZM41.528,27.502C42.106,27.371 42.088,28.524 41.609,28.535C41.127,28.546 41.101,27.601 41.528,27.502ZM35.249,27.604C35.834,27.491 35.906,28.603 35.33,28.617C34.814,28.628 34.758,27.699 35.249,27.604ZM38.449,28.436C38.45,28.435 38.455,28.415 38.47,28.415C39.234,28.33 39.232,29.567 38.51,29.509C37.933,29.46 37.834,28.541 38.449,28.436ZM50.363,1.034C50.534,1.577 50.734,2.09 50.913,2.625L50.547,2.625C50.501,2.524 50.481,2.398 50.438,2.296L49.889,2.296C49.83,2.389 49.798,2.51 49.761,2.625L49.397,2.625C49.598,2.102 49.761,1.54 49.981,1.034L50.363,1.034ZM49.962,2.021L50.346,2.021C50.276,1.825 50.233,1.598 50.147,1.417C50.096,1.63 50.021,1.817 49.962,2.021ZM47.338,12.2C47.391,12.188 47.858,12.096 48.422,11.987C48.793,11.189 49.046,10.742 49.174,10.724C49.222,10.716 49.243,10.779 49.267,10.897C49.273,10.935 49.337,11.276 49.428,11.758C49.972,11.657 50.449,11.612 50.585,11.603C50.953,11.574 50.702,11.772 50.638,11.868C50.613,11.905 50.165,12.311 49.619,12.799C49.704,13.255 49.78,13.656 49.811,13.814C49.85,14.006 49.858,14.129 49.817,14.167C49.796,14.187 49.671,14.155 49.596,14.103C49.543,14.065 49.184,13.858 48.78,13.566C48.131,14.132 47.683,14.612 47.528,14.567C47.45,14.546 47.694,13.841 48.028,12.969C47.684,12.723 47.394,12.517 47.307,12.46C47.06,12.295 47.207,12.229 47.338,12.2ZM52.797,16.868C55.546,16.736 57.734,17.864 59.105,19.208C60.506,20.582 61.705,22.469 61.83,25.113C61.961,27.882 60.82,30.036 59.488,31.421C58.072,32.897 56.22,34 53.565,34.127C50.85,34.256 48.705,33.182 47.275,31.805C45.796,30.382 44.677,28.584 44.55,25.9C44.418,23.105 45.502,21.022 46.854,19.592C47.859,18.529 49.188,17.613 50.895,17.159C51.479,17.005 52.139,16.898 52.797,16.868ZM51.425,19.354C50.188,19.709 49.212,20.388 48.483,21.183C47.513,22.239 46.677,23.812 46.818,25.864C46.953,27.819 47.76,29.208 48.848,30.198C49.934,31.186 51.536,31.99 53.528,31.86C55.448,31.738 56.828,30.953 57.861,29.832C58.843,28.769 59.685,27.243 59.562,25.151C59.452,23.277 58.577,21.773 57.534,20.817C56.481,19.853 54.856,19.004 52.835,19.134C52.365,19.165 51.861,19.229 51.425,19.354ZM53.254,21.366C53.602,22.272 53.94,23.19 54.259,24.127C55.217,24.162 56.213,24.16 57.186,24.182C57.194,24.233 57.129,24.263 57.094,24.292C56.403,24.856 55.588,25.429 54.901,26.011C55.19,26.94 55.479,27.869 55.759,28.808C54.938,28.277 54.145,27.716 53.327,27.181C52.51,27.709 51.697,28.343 50.913,28.845C51.178,27.913 51.434,26.978 51.718,26.066C50.996,25.421 50.086,24.871 49.397,24.255C50.366,24.231 51.305,24.177 52.286,24.164C52.635,23.257 52.939,22.306 53.254,21.366Z" style="fill:white;fill-rule:nonzero;"/>
                    </g>
                </g>
            </g>
        </g>
    </g>
</svg>
