<?xml version="1.0" encoding="UTF-8" standalone="no"?>
<!DOCTYPE svg PUBLIC "-//W3C//DTD SVG 1.1//EN" "http://www.w3.org/Graphics/SVG/1.1/DTD/svg11.dtd">
<svg width="100%" height="100%" viewBox="0 0 2089 1124" version="1.1" xmlns="http://www.w3.org/2000/svg" xmlns:xlink="http://www.w3.org/1999/xlink" xml:space="preserve" xmlns:serif="http://www.serif.com/" style="fill-rule:evenodd;clip-rule:evenodd;stroke-linejoin:round;stroke-miterlimit:2;">
    <g id="WORDMARK" transform="matrix(1.17867,0,0,1.17867,-1135.2,-775.92)">
        <g transform="matrix(0.807159,0,0,0.807159,433.238,301.209)">
            <path d="M1237.62,1064.76C1217.21,935.766 1205.97,852.909 1189.65,738.051C1179.43,668.38 1166.16,538.455 1146.78,457.463C1180.46,446.172 1235.59,445.239 1267.22,445.239C1282.55,532.791 1292.75,657.074 1305,727.678C1321.33,634.477 1330.51,611.88 1348.88,450.881C1374.4,450.881 1418.3,445.239 1456.07,445.239C1429.53,553.492 1416.26,682.499 1401.97,795.491C1390.75,885.864 1379.52,956.475 1365.21,1069.45C1324.4,1060.98 1280.51,1063.81 1237.62,1064.76ZM1914.37,646.728C1916.41,634.475 1915.41,605.303 1916.41,593.049L1883.75,592.116C1873.54,609.997 1879.67,649.542 1879.67,670.258C1904.17,684.377 1930.72,697.564 1979.7,719.213C1995.03,725.817 2005.23,731.452 2005.23,755.929C2007.27,870.787 2016.46,964.003 1993.99,1058.16C1941.93,1068.52 1825.58,1077.93 1784.74,1043.09C1769.43,982.831 1769.43,915.996 1773.5,830.31C1788.81,820.899 1831.69,828.429 1850.06,829.377C1854.13,857.615 1856.18,892.451 1859.24,913.175C1872.53,918.824 1899.05,928.22 1902.12,909.399L1902.12,819.019C1855.16,784.168 1810.25,770.996 1774.52,736.161C1759.21,644.833 1756.16,554.453 1769.43,460.304C1798,445.237 1832.71,442.408 1875.58,442.408C1906.21,442.408 1995.03,449.946 1999.1,463.132C2024.61,511.139 2013.39,608.117 2002.17,652.37C1974.6,655.191 1941.93,659.9 1914.37,646.728ZM666.029,1067.58L663.979,1067.58C677.239,848.205 646.613,647.661 659.894,444.289C696.647,440.535 743.597,449.946 787.498,448.065C790.539,652.37 786.469,871.735 786.469,1063.81C745.632,1067.58 680.302,1060.99 666.029,1067.58ZM2671.73,451.81C2689.08,531.854 2703.39,638.234 2740.14,753.122C2747.27,704.152 2747.27,536.563 2742.17,447.101C2780.96,448.996 2815.68,445.235 2851.4,453.72C2840.17,630.719 2849.34,885.867 2849.34,1061.93C2786.06,1058.16 2779.94,1058.16 2752.39,1060.05C2731.96,1017.67 2706.45,946.114 2683.98,882.091C2680.92,933.89 2688.08,1015.8 2687.04,1062.85C2628.86,1069.45 2609.47,1062.85 2589.05,1062.85C2585.99,837.86 2580.88,623.167 2578.84,451.81C2613.55,448.996 2640.09,452.772 2671.73,451.81ZM937.522,451.81C954.881,531.854 969.169,638.234 1005.93,753.122C1013.07,704.152 1013.07,536.563 1007.96,447.101C1046.76,448.996 1081.46,445.235 1117.19,453.72C1105.96,630.719 1115.15,885.867 1115.15,1061.93C1051.85,1058.16 1045.72,1058.16 1018.18,1060.05C997.753,1017.67 972.24,946.114 949.783,882.091C946.712,933.89 953.867,1015.8 952.846,1062.85C894.664,1069.45 875.256,1062.85 854.855,1062.85C851.777,837.86 846.679,623.167 844.629,451.81C879.34,448.996 905.897,452.772 937.522,451.81ZM1664.3,449.943C1690.86,658.949 1723.51,848.202 1744.93,1058.16C1712.28,1058.16 1653.08,1060.05 1615.3,1059.1C1607.14,1031.8 1602.03,980.022 1584.68,869.851L1557.11,865.15C1544.86,917.881 1544.86,1012.96 1536.69,1064.76C1505.06,1061.93 1471.37,1065.71 1443.81,1063.81C1455.04,850.083 1474.44,647.658 1495.87,450.876C1540.8,448.062 1620.42,446.174 1664.3,449.943ZM1607.14,738.053C1598.98,677.792 1595.91,638.233 1579.58,566.681C1569.37,638.233 1569.37,719.217 1565.29,737.105C1574.47,741.814 1596.92,743.695 1607.14,738.053ZM2075.64,1067.58L2073.6,1067.58C2086.87,848.205 2056.24,647.661 2069.52,444.289C2106.26,440.535 2153.21,449.946 2197.11,448.065C2200.18,652.37 2196.09,871.735 2196.09,1063.81C2155.26,1067.58 2089.93,1060.99 2075.64,1067.58ZM2245.08,754.049C2242.01,650.49 2257.33,545.043 2263.45,446.17C2337.97,437.707 2419.63,448.999 2492.11,448.066C2528.86,528.095 2533.96,642.938 2533.96,731.453C2533.96,833.139 2531.91,937.646 2510.47,1049.67C2435.96,1073.23 2354.29,1064.76 2276.72,1060.98C2251.19,982.832 2248.14,853.855 2245.08,754.049ZM2348.18,608.117C2350.21,728.624 2340.01,754.997 2365.52,893.385L2420.64,885.87C2426.77,792.661 2421.66,683.445 2403.29,593.983C2365.52,596.811 2348.18,601.52 2348.18,608.117Z"/>
        </g>
        <g transform="matrix(1.08795,0,0,1.08795,-816.465,804.66)">
            <path d="M3255.27,551.457C3252.34,564.938 3237.14,562.779 3228.38,569.791C3238.33,577.888 3259.95,581.113 3259.95,594.586C3259.95,640.941 3263.45,691.605 3257.02,735.269C3241.24,734.738 3212.6,736.349 3196.24,736.889C3192.74,701.312 3203.25,636.091 3190.39,606.439L3179.89,608.598C3181.64,646.325 3181.05,689.99 3183.39,733.102C3165.86,736.889 3140.13,739.039 3125.53,741.742C3119.68,622.61 3116.77,513.198 3123.18,390.289C3129.62,388.678 3230.72,372.507 3256.43,399.452C3265.2,408.615 3262.87,426.405 3263.45,437.727C3265.2,477.613 3264.03,509.96 3255.27,551.457ZM3096.31,386.512C3092.81,405.377 3098.07,429.649 3093.39,444.732C3071.79,443.122 3049.55,443.122 3027.94,443.653C3025.01,461.443 3027.36,479.769 3032.03,496.472C3050.72,494.861 3071.19,495.949 3096.31,497.568C3095.73,523.442 3090.47,542.831 3085.79,568.173C3086.96,568.705 3051.9,566.554 3033.77,569.793C3033.19,598.357 3033.19,623.143 3037.29,651.72C3056.57,653.87 3073.52,654.95 3091.64,654.419C3091.64,677.054 3090.47,713.162 3087.55,737.425C3058.92,740.664 2998.73,739.036 2970.08,739.576C2958.98,630.704 2956.65,497.568 2957.23,386.512C2999.3,386.512 3058.92,388.139 3096.31,386.512ZM2621.23,386.512C2617.72,405.377 2622.98,429.649 2618.3,444.732C2596.68,443.122 2574.46,443.122 2552.84,443.653C2549.93,461.443 2552.26,479.769 2556.94,496.472C2575.63,494.861 2596.09,495.949 2621.23,497.568C2620.64,523.442 2615.38,542.831 2610.7,568.173C2611.87,568.705 2576.81,566.554 2558.68,569.793C2558.11,598.357 2558.11,623.143 2562.2,651.72C2581.48,653.87 2598.44,654.95 2616.54,654.419C2616.54,677.054 2615.38,713.162 2612.45,737.425C2583.82,740.664 2523.63,739.036 2495,739.576C2483.88,630.704 2481.55,497.568 2482.14,386.512C2524.21,386.512 2583.82,388.139 2621.23,386.512ZM2379.29,559.55L2364.68,557.922C2361.75,633.385 2360.58,665.74 2362.34,738.504C2341.89,737.429 2320.26,740.663 2300.97,737.965C2298.63,618.293 2300.39,488.936 2292.2,381.126C2308.57,384.361 2345.97,380.047 2354.16,384.361L2355.91,446.891C2365.85,447.97 2374.02,447.439 2382.21,447.439C2384.55,435.577 2383.96,419.406 2386.3,378.976C2410.26,380.047 2426.63,380.047 2452.35,384.361C2455.26,500.798 2448.83,616.143 2454.09,732.571C2437.73,735.818 2404.42,733.103 2385.13,734.191C2384.55,674.899 2388.64,617.222 2379.29,559.55ZM2728.16,497.568C2729.33,490.555 2728.74,473.844 2729.33,466.832L2710.62,466.301C2704.77,476.543 2708.28,499.179 2708.28,511.032C2722.31,519.115 2737.5,526.663 2765.56,539.065C2774.32,542.83 2780.17,546.069 2780.17,560.081C2781.33,625.841 2786.6,679.213 2773.74,733.103C2743.93,739.036 2677.31,744.442 2653.94,724.488C2645.17,689.986 2645.17,651.719 2647.51,602.67C2656.27,597.277 2680.81,601.595 2691.34,602.126C2693.68,618.293 2694.84,638.243 2696.6,650.104C2704.19,653.339 2719.39,658.728 2721.14,647.945L2721.14,596.206C2694.26,576.261 2668.55,568.704 2648.09,548.768C2639.32,496.471 2637.57,444.732 2645.17,390.829C2661.53,382.202 2681.4,380.595 2705.94,380.595C2723.47,380.595 2774.32,384.9 2776.67,392.448C2791.27,419.937 2784.84,475.455 2778.42,500.798C2762.64,502.409 2743.93,505.112 2728.16,497.568ZM2108.14,737.966C2085.33,734.736 2039.18,737.427 1995.34,735.816C1994.17,624.228 1986.57,495.95 1991.26,381.664C2014.05,382.203 2040.93,379.505 2066.63,381.664C2064.3,465.758 2059.05,562.777 2060.21,647.943C2071.9,647.412 2090.6,644.177 2109.3,644.717C2109.3,678.135 2111.05,708.306 2108.14,737.966ZM1798.4,559.009C1796.66,499.717 1805.42,439.346 1808.92,382.745C1851.59,377.896 1898.34,384.36 1939.84,383.82C1960.88,429.652 1963.8,495.399 1963.8,546.068C1963.8,604.284 1962.63,664.116 1950.36,728.261C1907.69,741.742 1860.93,736.889 1816.53,734.738C1801.91,689.99 1800.15,616.146 1798.4,559.009ZM2832.75,736.887C2832.75,644.178 2833.35,546.611 2829.83,454.437C2812.3,454.437 2828.66,453.897 2797.1,453.897C2797.1,431.801 2794.18,401.609 2798.27,384.903C2856.71,380.593 2877.76,384.903 2940.87,381.124C2940.87,402.158 2943.8,427.483 2943.21,463.06C2922.17,463.608 2912.82,466.83 2901.71,467.909C2903.46,560.079 2906.39,651.722 2906.39,735.268C2883.02,735.816 2866.06,736.887 2832.75,736.887ZM2141.43,734.738C2135.59,708.864 2131.5,681.37 2129.16,642.02C2123.89,549.846 2119.22,472.232 2135.59,386.51C2166.56,377.895 2229.1,382.205 2258.89,387.05C2265.91,437.195 2268.25,478.153 2264.74,533.126C2248.96,539.064 2216.82,536.905 2209.22,530.44C2208.64,512.658 2209.22,481.931 2199.87,460.902L2181.76,465.211C2179.42,494.864 2178.25,585.422 2192.86,639.329L2212.73,636.091C2212.73,614.535 2209.22,584.883 2207.47,567.097C2222.09,567.097 2239.03,565.477 2249.54,567.636C2260.65,567.636 2265.91,574.64 2265.33,589.192C2264.74,615.606 2263.57,700.763 2253.64,734.189C2215.65,737.968 2178.25,734.738 2141.43,734.738ZM1652.9,734.738C1647.06,708.864 1642.96,681.37 1640.62,642.02C1635.36,549.846 1630.69,472.232 1647.06,386.51C1678.02,377.895 1740.56,382.205 1770.37,387.05C1777.38,437.195 1779.71,478.153 1776.21,533.126C1760.43,539.064 1728.29,536.905 1720.7,530.44C1720.11,512.658 1720.7,481.931 1711.34,460.902L1693.22,465.211C1690.88,494.864 1689.71,585.422 1704.33,639.329L1724.2,636.091C1724.2,614.535 1720.7,584.883 1718.94,567.097C1733.55,567.097 1750.5,565.477 1761.01,567.636C1772.12,567.636 1777.38,574.64 1776.8,589.192C1776.21,615.606 1775.05,700.763 1765.11,734.189C1727.11,737.968 1689.71,734.738 1652.9,734.738ZM1857.43,475.454C1858.61,544.457 1852.76,559.549 1867.36,638.782L1898.93,634.481C1902.43,581.113 1899.51,518.592 1888.99,467.371C1867.36,468.99 1857.43,471.684 1857.43,475.454ZM3176.96,450.668C3180.47,481.927 3180.47,513.73 3179.89,544.997L3197.99,549.306C3206.76,523.441 3205.01,466.831 3201.5,446.35L3176.96,450.668Z"/>
        </g>
    </g>
</svg>
