<?xml version="1.0" encoding="UTF-8" standalone="no"?>
<!DOCTYPE svg PUBLIC "-//W3C//DTD SVG 1.1//EN" "http://www.w3.org/Graphics/SVG/1.1/DTD/svg11.dtd">
<svg width="100%" height="100%" viewBox="0 0 1200 1200" version="1.1" xmlns="http://www.w3.org/2000/svg" xmlns:xlink="http://www.w3.org/1999/xlink" xml:space="preserve" xmlns:serif="http://www.serif.com/" style="fill-rule:evenodd;clip-rule:evenodd;stroke-linejoin:round;stroke-miterlimit:2;">
    <g transform="matrix(0.574163,0,0,0.574163,5.68434e-14,179.699)">
        <path d="M1223,263.71C1224.62,265.896 1225,269.71 1225,269.71L1307,319.71L1396,298.71L1406,289.71C1406,289.71 1409.55,285.69 1413,285.71C1416.45,285.73 1423.05,287.357 1425,291.71C1429.62,291.063 1513,284.71 1513,284.71L1519,275.71C1519,275.71 1518.71,273.71 1523,273.71C1527.29,273.71 1531,277.71 1531,277.71L1537,282.71L1614,284.71L1620,279.71C1620,279.71 1622.55,276.69 1629,277.71C1635.45,278.73 1695,294.71 1695,294.71L1716,294.71C1716,294.71 1721.05,295.024 1733,297.71C1744.95,300.396 1816,317.71 1816,317.71C1816,317.71 1819.05,319.69 1820,322.71C1820.95,325.73 1821,329.71 1821,329.71L1862,353.71L1881,358.71C1881,358.71 1883.88,360.524 1882,365.71C1880.12,370.896 1880,370.71 1880,370.71L1893,410.71L1891,417.71L1878,430.71L1881,495.71C1881,495.71 1877.38,497.69 1879,500.71C1880.62,503.73 1881,505.71 1881,505.71L1881,508.71L1879,510.71L1880,512.71L1884,513.71L1881,518.71L1881,522.71L1879,525.71L1880,527.71L1880,530.71L1884,532.71L1884,537.71L1880.82,540.89L1882,544.71L1886,546.71L1887,558.71C1887,558.71 1881.21,567.19 1881,570.71C1880.79,574.23 1880.88,576.024 1882,578.71C1883.12,581.396 1884,582.71 1884,582.71L1888,583.71L1889,604.71L1886,609.71L1884,610.71L1886,612.71L1886,615.71L1885,616.71L1886,618.71L1889,619.71L1888,636.71C1888,636.71 1884.21,641.524 1885,643.71C1885.79,645.896 1887,646.71 1887,646.71C1887,646.71 1888.05,648.19 1887,649.71C1885.95,651.23 1887,652.71 1887,652.71L1891,653.71L1891,655.71L1894,655.71L1893,658.71L1889,659.71L1890,662.71L1894,661.71L1895,663.71L1956,673.71L1958,676.71L1995,701.71L1992,701.71L1992,708.71L1986,706.71L1990,751.71L1995,753.71L2009,737.71L2028,755.71L2029,771.71L2042,779.71L2049,782.71L2047,784.71L2044,784.71L2036,783.71L2060,1098.71L2090,1173.71L2090,1183.55L2021,1180.71L1940,1173.71C1940,1173.71 1951.8,1182.69 1928,1184.71C1904.2,1186.73 1871,1183.71 1871,1183.71C1871,1183.71 1847.13,1192.69 1826,1191.71C1804.87,1190.73 1782,1185.71 1782,1185.71C1782,1185.71 1691.13,1191.36 1656,1197.71C1620.87,1204.06 1524.46,1216.02 1488,1218.71C1451.54,1221.4 1379.8,1224.69 1338,1231.71C1296.2,1238.73 1204.46,1245.36 1149,1251.71C1136.41,1253.15 1076.15,1251.83 990.5,1248.92L982.543,1248.65L976.607,1248.44L971.96,1248.28C965.775,1248.06 959.476,1247.84 953.031,1247.61L947.606,1247.41L942.5,1247.22C639.001,1236.13 112,1210.71 112,1210.71L0,1205.71L78,1107.71L115,646.71L182,630.71L235,637.71L236,621.71L247,619.71C247,619.71 246.38,613.69 249,606.71C251.62,599.729 252.047,604.357 252,599.71C251.953,595.063 249.714,592.357 253,588.71C256.286,585.063 265,579.71 265,579.71C265,579.71 265.547,566.524 267,558.71C268.453,550.896 270.047,552.357 272,546.71C273.953,541.063 275,533.71 275,533.71L283,527.71L283,523.71C283,523.71 282.214,524.524 282,521.71C281.786,518.896 282,517.71 282,517.71L277,509.71C277,509.71 273.547,509.69 281,502.71C288.453,495.73 290,495.71 290,495.71L285,487.71C285,487.71 284.214,485.524 288,481.71C291.786,477.896 294,476.71 294,476.71C294,476.71 291.714,470.857 300,467.71C307.606,464.821 307.989,464.708 308.001,464.709C308.196,464.519 341.834,431.71 383,431.71C424.286,431.71 458,479.71 458,479.71C458,479.71 464.714,484.857 468,487.71C471.286,490.563 472,495.71 472,495.71C472,495.71 480.717,502.124 480.717,506.427C480.717,510.73 475,513.71 475,513.71L475,517.71C475,517.71 483,522.524 483,527.71C483,532.896 478,538.71 478,538.71C478,538.71 479.047,537.69 480,541.71C480.953,545.73 480.047,546.857 482,547.71C483.953,548.563 484,548.71 484,548.71L484,561.71L780,486.71L849,450.71L912,435.71C912,435.71 913.88,431.357 912,430.71C910.12,430.063 911.88,430.024 911,427.71C910.12,425.396 906.714,425.69 909,424.71C911.286,423.73 911,422.71 911,422.71L908,418.71L908,405.71L911,401.71C911,401.71 907.88,400.024 910,398.71C912.12,397.396 913,395.71 913,395.71L912,392.71L910,390.71L908,387.71L910,386.71C910,386.71 906.047,383.524 903,381.71C899.953,379.896 894,377.71 894,377.71L884,377.71L884,374.71L879.717,370.427L879.717,363.71L1150,258.71C1150,258.71 1150.88,255.024 1154,254.71C1157.12,254.396 1159,256.71 1159,256.71L1217,259.562L1223,263.71ZM1126,684.07C1126,684.07 1124.6,574.652 1124,565C1123.4,555.348 1117.6,521.652 1073,534C1028.4,546.348 1028,576 1028,576L1026,697L1126,684.07ZM904,739L907,593C907,593 902.6,590.152 892,593C873.4,595.848 859.6,609.152 858,625C856.4,640.848 855,748 855,748L904,739ZM425,819C425,819 428.596,725.652 430,704C431.404,682.348 412.596,680.652 398,688C383.404,695.348 382,709 382,709L374,824L425,819ZM660,790C660,790 666.596,674.652 666,657C665.404,639.348 657.596,633.652 637,637C616.404,640.348 607.596,653.152 607,666C606.404,678.848 601,799 601,799L660,790Z" style="fill:rgb(65,4,98);"/>
    </g>
    <g transform="matrix(3.31129,0,0,3.31129,373.894,-0.00329908)">
        <g transform="matrix(-1.53e-05,-362.341,-362.341,1.53e-05,68.309,362.342)">
            <path d="M1,-0.026C0.985,-0.023 0.968,-0.021 0.952,-0.018C0.948,-0.017 0.94,-0.016 0.94,-0.012C0.939,-0.009 0.943,-0.004 0.944,-0.001C0.948,0.011 0.949,0.028 0.944,0.039C0.955,0.04 0.968,0.041 0.98,0.041C0.984,0.041 0.989,0.04 0.992,0.042C0.988,0.045 0.983,0.045 0.978,0.047C0.963,0.05 0.946,0.053 0.93,0.054C0.927,0.055 0.922,0.058 0.92,0.059C0.918,0.06 0.917,0.061 0.915,0.062C0.914,0.064 0.912,0.065 0.911,0.066C0.907,0.066 0.903,0.066 0.899,0.067C0.896,0.067 0.892,0.068 0.889,0.068C0.884,0.069 0.878,0.067 0.873,0.067C0.867,0.067 0.861,0.067 0.856,0.066C0.848,0.065 0.842,0.062 0.837,0.059C0.835,0.058 0.833,0.055 0.832,0.055C0.828,0.053 0.823,0.054 0.819,0.054C0.815,0.055 0.811,0.056 0.808,0.057C0.795,0.064 0.789,0.079 0.782,0.094C0.778,0.104 0.775,0.119 0.768,0.127C0.764,0.131 0.761,0.135 0.754,0.134C0.746,0.14 0.735,0.142 0.723,0.143C0.686,0.147 0.648,0.148 0.61,0.151C0.598,0.151 0.586,0.153 0.574,0.155C0.562,0.156 0.55,0.157 0.537,0.158C0.464,0.165 0.39,0.17 0.316,0.177C0.292,0.179 0.267,0.182 0.242,0.184C0.224,0.185 0.204,0.186 0.185,0.187C0.179,0.188 0.172,0.189 0.167,0.188C0.162,0.188 0.159,0.185 0.155,0.185C0.152,0.185 0.15,0.186 0.148,0.186C0.142,0.187 0.138,0.185 0.133,0.183C0.129,0.181 0.125,0.18 0.121,0.179C0.112,0.176 0.103,0.174 0.097,0.171C0.095,0.17 0.094,0.169 0.093,0.168C0.103,0.162 0.113,0.157 0.123,0.151C0.112,0.151 0.104,0.146 0.096,0.141C0.088,0.137 0.08,0.133 0.073,0.127C0.074,0.126 0.077,0.124 0.079,0.123C0.079,0.122 0.081,0.122 0.08,0.122C0.079,0.121 0.075,0.123 0.074,0.121C0.074,0.117 0.077,0.116 0.08,0.115C0.089,0.111 0.098,0.109 0.106,0.104C0.117,0.098 0.127,0.091 0.139,0.087C0.131,0.086 0.122,0.087 0.115,0.086C0.118,0.083 0.124,0.082 0.128,0.08C0.118,0.077 0.105,0.073 0.094,0.077C0.088,0.079 0.082,0.084 0.076,0.088C0.074,0.089 0.071,0.09 0.071,0.092C0.069,0.094 0.07,0.098 0.067,0.1C0.064,0.101 0.064,0.098 0.062,0.099C0.06,0.1 0.059,0.104 0.057,0.106C0.056,0.109 0.053,0.111 0.052,0.113C0.049,0.117 0.046,0.123 0.041,0.125C0.039,0.126 0.037,0.126 0.036,0.126C0.034,0.126 0.033,0.128 0.031,0.128C0.029,0.128 0.024,0.127 0.022,0.126C0.019,0.125 0.018,0.12 0.017,0.116C0.015,0.108 0.014,0.098 0.013,0.089C0.012,0.077 0.016,0.063 0.023,0.057C0.025,0.055 0.028,0.054 0.03,0.053C0.031,0.051 0.034,0.048 0.034,0.045C0.034,0.044 0.034,0.042 0.033,0.04C0.032,0.038 0.031,0.036 0.031,0.035C0.033,0.028 0.034,0.02 0.037,0.015C0.038,0.015 0.039,0.013 0.039,0.013C0.044,0.009 0.056,0.01 0.063,0.011C0.065,0.011 0.066,0.013 0.067,0.013C0.069,0.013 0.072,0.012 0.074,0.012C0.088,0.012 0.098,0.015 0.109,0.018C0.113,0.019 0.119,0.021 0.122,0.021C0.126,0.021 0.131,0.018 0.134,0.018C0.139,0.017 0.143,0.016 0.146,0.014C0.145,0.011 0.142,0.011 0.139,0.009C0.137,0.008 0.135,0.005 0.133,0.005C0.129,0.004 0.123,0.005 0.119,0.005C0.109,0.005 0.099,0.004 0.092,0.002C0.088,0.002 0.083,0.001 0.081,-0.001C0.084,-0.001 0.086,-0.003 0.089,-0.004C0.096,-0.009 0.103,-0.013 0.109,-0.018C0.103,-0.02 0.097,-0.019 0.091,-0.021C0.09,-0.021 0.089,-0.022 0.088,-0.022C0.086,-0.023 0.084,-0.023 0.082,-0.024C0.079,-0.025 0.077,-0.026 0.076,-0.026C0.07,-0.027 0.062,-0.025 0.057,-0.029C0.051,-0.026 0.042,-0.028 0.034,-0.027C0.031,-0.027 0.029,-0.025 0.027,-0.025C0.025,-0.025 0.023,-0.026 0.02,-0.026C0.018,-0.026 0.016,-0.025 0.014,-0.026C0.007,-0.027 0.001,-0.027 0.001,-0.035C0,-0.04 0,-0.045 0,-0.051C0.001,-0.055 0.001,-0.059 0.001,-0.062C0,-0.071 -0.001,-0.081 0.001,-0.09C0.004,-0.091 0.007,-0.091 0.01,-0.091C0.014,-0.092 0.017,-0.093 0.02,-0.093C0.021,-0.093 0.022,-0.092 0.024,-0.092C0.028,-0.091 0.032,-0.092 0.036,-0.09C0.039,-0.09 0.041,-0.087 0.043,-0.087L0.049,-0.087C0.052,-0.086 0.054,-0.085 0.058,-0.084C0.059,-0.084 0.06,-0.085 0.062,-0.085C0.064,-0.085 0.068,-0.084 0.072,-0.084C0.075,-0.083 0.078,-0.083 0.081,-0.083C0.084,-0.083 0.086,-0.081 0.087,-0.081C0.088,-0.081 0.09,-0.083 0.091,-0.083C0.096,-0.085 0.099,-0.087 0.102,-0.09C0.098,-0.091 0.095,-0.092 0.093,-0.096C0.099,-0.1 0.105,-0.103 0.111,-0.108C0.114,-0.11 0.117,-0.112 0.119,-0.115C0.121,-0.117 0.126,-0.121 0.126,-0.123C0.126,-0.124 0.124,-0.127 0.123,-0.128C0.117,-0.141 0.11,-0.153 0.102,-0.163C0.1,-0.167 0.097,-0.17 0.095,-0.172C0.092,-0.175 0.088,-0.177 0.085,-0.178C0.077,-0.182 0.067,-0.182 0.061,-0.187C0.065,-0.187 0.07,-0.186 0.074,-0.186C0.079,-0.185 0.084,-0.184 0.088,-0.184C0.091,-0.185 0.093,-0.186 0.096,-0.186C0.099,-0.186 0.102,-0.186 0.105,-0.185C0.126,-0.182 0.146,-0.18 0.168,-0.178C0.172,-0.183 0.175,-0.187 0.181,-0.188C0.187,-0.189 0.195,-0.187 0.203,-0.186C0.252,-0.179 0.301,-0.173 0.349,-0.167C0.404,-0.16 0.462,-0.153 0.517,-0.147C0.559,-0.142 0.6,-0.134 0.642,-0.13C0.671,-0.127 0.7,-0.125 0.726,-0.12C0.739,-0.117 0.753,-0.115 0.764,-0.11C0.775,-0.105 0.782,-0.096 0.786,-0.085C0.788,-0.079 0.79,-0.073 0.792,-0.067C0.794,-0.06 0.796,-0.054 0.797,-0.048C0.798,-0.046 0.802,-0.042 0.804,-0.041C0.807,-0.038 0.81,-0.036 0.813,-0.035C0.819,-0.031 0.828,-0.029 0.836,-0.029C0.846,-0.029 0.853,-0.031 0.862,-0.032C0.871,-0.033 0.881,-0.033 0.891,-0.033C0.909,-0.034 0.928,-0.034 0.948,-0.034C0.958,-0.034 0.966,-0.033 0.976,-0.032C0.983,-0.031 0.995,-0.029 1,-0.027L1,-0.026Z" style="fill-rule:nonzero;"/>
        </g>
        <g transform="matrix(1,0,0,1,56.269,85.529)">
            <path d="M0,7.274C-0.18,6.997 0.363,6.744 0.622,6.386C1.055,5.791 1.43,5.034 1.155,4.168C-0.186,3.317 -1.691,4.538 -2.571,5.233C-4.468,2.858 -6.993,6.977 -8.16,8.338C-8.392,7.118 -8.698,5.645 -9.848,5.411C-10.761,5.224 -11.896,6.561 -12.154,6.564C-12.212,6.565 -12.504,6.177 -12.598,6.12C-14.479,4.962 -16.674,7.562 -15.436,9.314C-17.142,8.875 -18.602,7.92 -18.363,5.854C-17.926,2.054 -12.958,-0.08 -10.29,-1.244C-11.263,-0.499 -11.401,1.36 -10.024,1.506C-7.653,1.76 -6.486,-1.131 -6.12,-2.663C-6.017,-2.264 -5.942,-1.835 -5.678,-1.599C-4.577,-1.565 -4.301,-2.824 -3.726,-3.018C-3.837,-2.006 -4.56,-1.354 -4.258,-0.357C-3.615,1.763 1.596,-1.062 0.179,-3.196C2.904,-2.827 5.97,-2.359 6.213,0.265C6.557,3.989 2.363,5.945 0,7.274M7.721,-0.09C7.357,-3.142 3.496,-4.116 0,-4.172C-6.739,-4.278 -13.737,-1.55 -17.478,2.394C-18.465,3.435 -19.989,5.574 -19.517,7.628C-18.925,10.209 -15.732,11.17 -12.598,11.355C-9.235,11.552 -5.837,10.808 -3.459,10.024C-0.09,8.913 4.19,6.81 6.39,3.902C7.089,2.976 7.926,1.637 7.721,-0.09" style="fill:white;"/>
        </g>
    </g>
</svg>
