<?xml version="1.0" encoding="UTF-8" standalone="no"?>
<!DOCTYPE svg PUBLIC "-//W3C//DTD SVG 1.1//EN" "http://www.w3.org/Graphics/SVG/1.1/DTD/svg11.dtd">
<svg width="100%" height="100%" viewBox="0 0 5032 5032" version="1.1" xmlns="http://www.w3.org/2000/svg" xmlns:xlink="http://www.w3.org/1999/xlink" xml:space="preserve" xmlns:serif="http://www.serif.com/" style="fill-rule:evenodd;clip-rule:evenodd;stroke-linejoin:round;stroke-miterlimit:2;">
    <g transform="matrix(-4105.82,3.55564e-13,5.02818e-13,2903.4,2515.75,2473.49)">
        <path d="M0.612,-0.576C0.612,-0.576 0.612,-0.577 0.613,-0.577L0.613,-0.852L0.612,-0.852L0.612,-0.576ZM-0.613,0.881C-0.613,0.872 -0.613,0.6 -0.613,0.6C-0.57,0.561 -0.518,0.513 -0.466,0.465C-0.405,0.407 -0.344,0.349 -0.299,0.306C-0.254,0.262 -0.223,0.232 -0.223,0.232C-0.223,0.232 -0.253,0.263 -0.298,0.308C-0.343,0.353 -0.402,0.414 -0.461,0.476C-0.497,0.513 -0.532,0.55 -0.564,0.585C-0.537,0.559 -0.509,0.532 -0.48,0.504C-0.411,0.437 -0.342,0.369 -0.291,0.317C-0.24,0.265 -0.206,0.23 -0.206,0.23C-0.206,0.23 -0.214,0.239 -0.229,0.255C-0.243,0.271 -0.264,0.294 -0.289,0.321C-0.338,0.376 -0.404,0.451 -0.469,0.526C-0.472,0.53 -0.475,0.533 -0.478,0.537L-0.475,0.534C-0.475,0.534 -0.479,0.538 -0.485,0.545C-0.492,0.553 -0.499,0.562 -0.506,0.57C-0.505,0.568 -0.503,0.567 -0.502,0.565C-0.442,0.505 -0.383,0.443 -0.339,0.396C-0.295,0.349 -0.266,0.317 -0.266,0.317C-0.266,0.317 -0.294,0.351 -0.335,0.402C-0.363,0.436 -0.397,0.478 -0.432,0.524C-0.422,0.512 -0.413,0.502 -0.404,0.492C-0.369,0.453 -0.346,0.427 -0.346,0.427C-0.346,0.427 -0.354,0.437 -0.368,0.455C-0.361,0.446 -0.354,0.438 -0.347,0.431C-0.306,0.383 -0.279,0.352 -0.279,0.352C-0.279,0.352 -0.305,0.385 -0.344,0.435C-0.357,0.451 -0.37,0.469 -0.385,0.488C-0.384,0.487 -0.384,0.487 -0.384,0.487C-0.384,0.487 -0.385,0.488 -0.387,0.49C-0.415,0.527 -0.447,0.569 -0.478,0.611C-0.457,0.586 -0.443,0.569 -0.443,0.569C-0.443,0.569 -0.491,0.634 -0.54,0.7C-0.552,0.717 -0.564,0.734 -0.575,0.749L-0.574,0.747C-0.535,0.7 -0.483,0.636 -0.431,0.571C-0.379,0.507 -0.328,0.442 -0.29,0.393C-0.252,0.343 -0.226,0.311 -0.226,0.311C-0.226,0.311 -0.251,0.344 -0.288,0.395C-0.326,0.445 -0.375,0.513 -0.424,0.582C-0.456,0.626 -0.487,0.67 -0.515,0.71C-0.465,0.645 -0.424,0.591 -0.424,0.591C-0.424,0.591 -0.431,0.601 -0.444,0.619C-0.401,0.563 -0.359,0.507 -0.327,0.464C-0.295,0.42 -0.273,0.391 -0.273,0.391C-0.273,0.391 -0.294,0.421 -0.326,0.466C-0.357,0.512 -0.399,0.572 -0.44,0.633C-0.462,0.666 -0.484,0.698 -0.504,0.728C-0.491,0.712 -0.478,0.694 -0.465,0.677C-0.429,0.628 -0.393,0.579 -0.367,0.542C-0.34,0.505 -0.322,0.481 -0.322,0.481C-0.322,0.481 -0.339,0.507 -0.364,0.546C-0.39,0.585 -0.423,0.637 -0.456,0.69C-0.46,0.696 -0.464,0.702 -0.468,0.708C-0.428,0.654 -0.39,0.6 -0.361,0.558C-0.329,0.513 -0.308,0.483 -0.308,0.483C-0.308,0.483 -0.328,0.515 -0.357,0.563C-0.387,0.611 -0.425,0.675 -0.464,0.74C-0.471,0.752 -0.478,0.764 -0.485,0.776C-0.456,0.733 -0.425,0.688 -0.394,0.641C-0.337,0.554 -0.28,0.466 -0.238,0.4C-0.196,0.333 -0.168,0.288 -0.168,0.288C-0.168,0.288 -0.175,0.3 -0.187,0.32C-0.198,0.34 -0.215,0.369 -0.235,0.403C-0.273,0.467 -0.321,0.553 -0.369,0.64C-0.32,0.561 -0.273,0.484 -0.238,0.424C-0.198,0.357 -0.171,0.312 -0.171,0.312C-0.171,0.312 -0.197,0.358 -0.235,0.427C-0.272,0.496 -0.322,0.59 -0.371,0.684C-0.405,0.751 -0.464,0.875 -0.466,0.881L-0.466,0.881L-0.305,0.592C-0.305,0.592 -0.354,0.687 -0.408,0.796C-0.397,0.776 -0.386,0.755 -0.375,0.734C-0.34,0.67 -0.306,0.606 -0.28,0.557L-0.237,0.476L-0.278,0.559C-0.298,0.6 -0.324,0.653 -0.35,0.707C-0.312,0.638 -0.276,0.571 -0.248,0.518C-0.216,0.455 -0.194,0.412 -0.194,0.412C-0.194,0.412 -0.214,0.456 -0.244,0.522C-0.269,0.577 -0.3,0.648 -0.332,0.722C-0.302,0.661 -0.273,0.601 -0.251,0.554L-0.209,0.466L-0.249,0.556C-0.272,0.607 -0.367,0.853 -0.377,0.879L-0.303,0.735C-0.303,0.735 -0.308,0.748 -0.317,0.77C-0.312,0.76 -0.308,0.751 -0.304,0.742C-0.284,0.697 -0.271,0.668 -0.271,0.668C-0.271,0.668 -0.277,0.684 -0.287,0.711C-0.263,0.653 -0.246,0.614 -0.246,0.614C-0.246,0.614 -0.264,0.658 -0.289,0.723C-0.263,0.659 -0.244,0.615 -0.244,0.615C-0.244,0.615 -0.273,0.688 -0.309,0.782C-0.283,0.719 -0.257,0.658 -0.238,0.611C-0.216,0.559 -0.202,0.525 -0.202,0.525C-0.202,0.525 -0.216,0.56 -0.235,0.612C-0.248,0.646 -0.263,0.687 -0.279,0.73C-0.27,0.706 -0.264,0.691 -0.264,0.691C-0.264,0.691 -0.281,0.737 -0.305,0.801C-0.279,0.738 -0.262,0.693 -0.262,0.693C-0.262,0.693 -0.291,0.771 -0.326,0.868C-0.285,0.767 -0.246,0.669 -0.246,0.669C-0.246,0.669 -0.284,0.774 -0.32,0.881L-0.32,0.881C-0.317,0.875 -0.254,0.722 -0.236,0.677C-0.219,0.63 -0.207,0.598 -0.207,0.598L-0.216,0.626C-0.207,0.603 -0.202,0.588 -0.202,0.588C-0.202,0.588 -0.215,0.627 -0.233,0.685C-0.234,0.687 -0.235,0.69 -0.236,0.692C-0.223,0.657 -0.211,0.624 -0.2,0.594C-0.176,0.528 -0.16,0.483 -0.16,0.483C-0.16,0.483 -0.175,0.528 -0.196,0.597C-0.196,0.597 -0.197,0.598 -0.197,0.598C-0.19,0.58 -0.186,0.569 -0.186,0.569C-0.186,0.569 -0.199,0.61 -0.218,0.67C-0.226,0.698 -0.236,0.731 -0.246,0.765C-0.229,0.715 -0.218,0.682 -0.218,0.682C-0.218,0.682 -0.224,0.701 -0.234,0.732C-0.206,0.651 -0.18,0.572 -0.16,0.511C-0.138,0.443 -0.123,0.398 -0.123,0.398C-0.123,0.398 -0.137,0.443 -0.158,0.512C-0.178,0.577 -0.256,0.845 -0.265,0.878C-0.255,0.849 -0.187,0.649 -0.166,0.582C-0.144,0.511 -0.129,0.463 -0.129,0.463C-0.129,0.463 -0.142,0.512 -0.161,0.585C-0.179,0.655 -0.202,0.748 -0.224,0.841C-0.22,0.826 -0.215,0.81 -0.211,0.795C-0.177,0.683 -0.146,0.57 -0.123,0.485C-0.1,0.4 -0.085,0.343 -0.085,0.343C-0.085,0.343 -0.099,0.401 -0.119,0.487C-0.128,0.527 -0.138,0.572 -0.149,0.621C-0.131,0.553 -0.119,0.507 -0.119,0.507C-0.119,0.507 -0.13,0.555 -0.146,0.626C-0.146,0.627 -0.146,0.627 -0.146,0.628C-0.141,0.608 -0.138,0.597 -0.138,0.597C-0.138,0.597 -0.147,0.639 -0.161,0.703C-0.167,0.732 -0.174,0.765 -0.181,0.801C-0.154,0.693 -0.128,0.585 -0.109,0.503C-0.089,0.418 -0.077,0.361 -0.077,0.361L-0.085,0.401C-0.09,0.426 -0.097,0.462 -0.106,0.505C-0.123,0.591 -0.145,0.707 -0.166,0.823C-0.169,0.841 -0.173,0.86 -0.176,0.879C-0.175,0.874 -0.172,0.866 -0.171,0.862C-0.154,0.78 -0.136,0.699 -0.124,0.638C-0.111,0.576 -0.103,0.536 -0.103,0.536C-0.103,0.536 -0.11,0.577 -0.122,0.639C-0.129,0.677 -0.155,0.846 -0.16,0.877C-0.147,0.819 -0.11,0.637 -0.11,0.637C-0.11,0.637 -0.117,0.679 -0.126,0.741C-0.126,0.744 -0.127,0.746 -0.127,0.749C-0.12,0.71 -0.113,0.674 -0.107,0.642C-0.094,0.57 -0.085,0.521 -0.085,0.521C-0.085,0.521 -0.093,0.57 -0.103,0.644C-0.104,0.651 -0.105,0.659 -0.106,0.666C-0.094,0.597 -0.083,0.532 -0.074,0.478C-0.059,0.386 -0.049,0.325 -0.049,0.325C-0.049,0.325 -0.058,0.386 -0.071,0.479C-0.073,0.496 -0.076,0.514 -0.078,0.533C-0.068,0.468 -0.062,0.426 -0.062,0.426C-0.062,0.426 -0.068,0.475 -0.079,0.549C-0.089,0.623 -0.102,0.721 -0.115,0.819C-0.115,0.822 -0.115,0.825 -0.116,0.828C-0.118,0.845 -0.12,0.863 -0.122,0.881L-0.122,0.881C-0.12,0.868 -0.118,0.854 -0.115,0.841C-0.097,0.724 -0.08,0.606 -0.067,0.518C-0.055,0.43 -0.047,0.371 -0.047,0.371C-0.047,0.371 -0.048,0.386 -0.051,0.412C-0.054,0.438 -0.058,0.475 -0.063,0.519C-0.072,0.6 -0.092,0.833 -0.095,0.875C-0.083,0.775 -0.073,0.693 -0.073,0.693L-0.084,0.881L-0.083,0.881C-0.075,0.806 -0.067,0.732 -0.061,0.675C-0.055,0.614 -0.05,0.573 -0.05,0.573C-0.05,0.573 -0.053,0.614 -0.058,0.675C-0.06,0.701 -0.062,0.731 -0.064,0.762C-0.06,0.723 -0.056,0.687 -0.053,0.656C-0.046,0.582 -0.042,0.532 -0.042,0.532C-0.042,0.532 -0.045,0.582 -0.049,0.657C-0.053,0.719 -0.057,0.799 -0.061,0.881L-0.061,0.881C-0.06,0.872 -0.059,0.862 -0.058,0.853C-0.048,0.734 -0.039,0.614 -0.032,0.525C-0.026,0.436 -0.022,0.376 -0.022,0.376C-0.022,0.376 -0.023,0.391 -0.024,0.417C-0.025,0.443 -0.027,0.481 -0.029,0.526C-0.032,0.609 -0.036,0.719 -0.039,0.83C-0.032,0.725 -0.026,0.623 -0.022,0.544C-0.017,0.456 -0.015,0.398 -0.015,0.398C-0.015,0.398 -0.016,0.457 -0.018,0.544C-0.019,0.566 -0.019,0.59 -0.019,0.615C-0.019,0.602 -0.018,0.589 -0.018,0.577C-0.015,0.503 -0.014,0.455 -0.014,0.455C-0.014,0.455 -0.015,0.503 -0.016,0.577C-0.016,0.594 -0.016,0.613 -0.017,0.633C-0.017,0.63 -0.016,0.629 -0.016,0.629C-0.016,0.629 -0.015,0.805 -0.014,0.87C-0.012,0.814 -0.003,0.574 -0.002,0.489C-0.001,0.395 -0.001,0.332 -0.001,0.332C-0.001,0.332 -0,0.395 0.001,0.489C0.002,0.542 0.004,0.604 0.005,0.67C0.005,0.627 0.005,0.6 0.005,0.6C0.005,0.6 0.006,0.639 0.008,0.698C0.008,0.674 0.008,0.65 0.008,0.629C0.009,0.551 0.008,0.498 0.008,0.498C0.008,0.498 0.01,0.533 0.012,0.589C0.012,0.567 0.011,0.546 0.011,0.527C0.01,0.437 0.009,0.377 0.009,0.377C0.009,0.377 0.009,0.392 0.01,0.418L0.015,0.527C0.018,0.61 0.024,0.719 0.03,0.83C0.028,0.725 0.026,0.623 0.023,0.544C0.02,0.456 0.018,0.398 0.018,0.398C0.018,0.398 0.02,0.439 0.024,0.505C0.021,0.44 0.019,0.398 0.019,0.398L0.027,0.528C0.032,0.605 0.055,0.872 0.056,0.881L0.056,0.881C0.055,0.865 0.054,0.848 0.053,0.832C0.048,0.732 0.042,0.632 0.037,0.557C0.033,0.483 0.029,0.433 0.029,0.433L0.039,0.557C0.041,0.575 0.042,0.595 0.044,0.616C0.044,0.614 0.036,0.496 0.036,0.496C0.036,0.496 0.04,0.542 0.046,0.611C0.052,0.679 0.073,0.871 0.074,0.881L0.074,0.881L0.074,0.861L0.078,0.881L0.078,0.881C0.072,0.786 0.066,0.694 0.06,0.623C0.054,0.545 0.049,0.493 0.049,0.493C0.049,0.493 0.055,0.545 0.065,0.622C0.072,0.674 0.08,0.736 0.09,0.803C0.088,0.785 0.087,0.768 0.085,0.752C0.079,0.689 0.075,0.647 0.075,0.647C0.075,0.647 0.079,0.678 0.086,0.727C0.08,0.669 0.073,0.614 0.068,0.568C0.059,0.496 0.054,0.448 0.054,0.448C0.054,0.448 0.06,0.496 0.07,0.568C0.072,0.585 0.075,0.604 0.078,0.624C0.077,0.621 0.077,0.619 0.077,0.619L0.077,0.619L0.071,0.568C0.071,0.568 0.077,0.608 0.086,0.669C0.094,0.72 0.117,0.849 0.122,0.876C0.118,0.84 0.092,0.627 0.082,0.561C0.072,0.489 0.065,0.441 0.065,0.441L0.085,0.56C0.096,0.632 0.112,0.727 0.129,0.823C0.131,0.837 0.134,0.851 0.136,0.865C0.137,0.87 0.138,0.876 0.139,0.881L0.139,0.881C0.126,0.783 0.112,0.685 0.101,0.612C0.09,0.535 0.082,0.484 0.082,0.484C0.082,0.484 0.091,0.534 0.107,0.61C0.118,0.668 0.134,0.741 0.15,0.818C0.146,0.792 0.143,0.777 0.143,0.777C0.143,0.777 0.149,0.807 0.158,0.851C0.157,0.841 0.155,0.831 0.153,0.82C0.134,0.702 0.113,0.585 0.096,0.497C0.08,0.409 0.068,0.35 0.068,0.35C0.068,0.35 0.079,0.402 0.097,0.48C0.085,0.421 0.077,0.383 0.077,0.383C0.077,0.383 0.088,0.432 0.105,0.507C0.116,0.556 0.129,0.616 0.144,0.68C0.154,0.721 0.197,0.874 0.199,0.881C0.195,0.862 0.191,0.843 0.187,0.824C0.168,0.736 0.148,0.649 0.133,0.583C0.118,0.517 0.108,0.473 0.108,0.473C0.108,0.473 0.119,0.517 0.135,0.582C0.147,0.629 0.162,0.688 0.178,0.749C0.165,0.693 0.156,0.655 0.156,0.655C0.156,0.655 0.177,0.734 0.202,0.83C0.201,0.826 0.2,0.822 0.199,0.818C0.174,0.706 0.148,0.595 0.128,0.512C0.107,0.429 0.093,0.374 0.093,0.374C0.093,0.374 0.108,0.429 0.131,0.51C0.133,0.516 0.135,0.523 0.136,0.53C0.127,0.49 0.121,0.466 0.121,0.466C0.121,0.466 0.135,0.515 0.156,0.587C0.164,0.614 0.173,0.644 0.183,0.677C0.179,0.661 0.176,0.652 0.176,0.652C0.176,0.652 0.189,0.694 0.207,0.753C0.202,0.737 0.199,0.722 0.195,0.708C0.18,0.648 0.169,0.608 0.169,0.608C0.169,0.608 0.179,0.642 0.195,0.693C0.174,0.613 0.153,0.537 0.136,0.476C0.112,0.392 0.096,0.336 0.096,0.336C0.096,0.336 0.11,0.38 0.132,0.448C0.107,0.362 0.089,0.305 0.089,0.305C0.089,0.305 0.107,0.362 0.135,0.447C0.154,0.505 0.178,0.576 0.203,0.651C0.189,0.604 0.175,0.559 0.164,0.522C0.142,0.455 0.128,0.41 0.128,0.41C0.128,0.41 0.143,0.454 0.165,0.521C0.182,0.57 0.203,0.632 0.225,0.697C0.213,0.657 0.205,0.631 0.205,0.631C0.205,0.631 0.218,0.667 0.237,0.72C0.251,0.759 0.269,0.808 0.288,0.859C0.27,0.803 0.257,0.764 0.257,0.764L0.308,0.881L0.308,0.881C0.305,0.872 0.206,0.576 0.183,0.512C0.159,0.447 0.144,0.403 0.144,0.403C0.144,0.403 0.16,0.446 0.185,0.51C0.21,0.574 0.243,0.659 0.277,0.744C0.283,0.76 0.289,0.775 0.295,0.79C0.279,0.745 0.265,0.704 0.252,0.669C0.232,0.612 0.218,0.575 0.218,0.575C0.218,0.575 0.233,0.611 0.256,0.666C0.264,0.686 0.274,0.708 0.284,0.732C0.258,0.664 0.24,0.617 0.24,0.617C0.24,0.617 0.261,0.669 0.291,0.742C0.263,0.668 0.242,0.615 0.242,0.615C0.242,0.615 0.25,0.635 0.264,0.668C0.229,0.577 0.195,0.491 0.168,0.423C0.135,0.341 0.113,0.287 0.113,0.287C0.113,0.287 0.136,0.341 0.171,0.421C0.201,0.49 0.241,0.58 0.283,0.671C0.263,0.623 0.25,0.591 0.25,0.591C0.25,0.591 0.278,0.654 0.314,0.733C0.306,0.713 0.298,0.694 0.291,0.677C0.27,0.626 0.256,0.591 0.256,0.591C0.256,0.591 0.257,0.593 0.259,0.597C0.237,0.547 0.217,0.5 0.2,0.46C0.168,0.385 0.146,0.336 0.146,0.336C0.146,0.336 0.169,0.385 0.203,0.457C0.231,0.516 0.267,0.589 0.305,0.665C0.297,0.648 0.29,0.631 0.283,0.615C0.258,0.559 0.241,0.522 0.241,0.522C0.241,0.522 0.246,0.533 0.256,0.551C0.237,0.51 0.219,0.472 0.203,0.439C0.173,0.374 0.152,0.331 0.152,0.331C0.152,0.331 0.173,0.373 0.205,0.437C0.231,0.491 0.266,0.559 0.301,0.629C0.297,0.621 0.295,0.616 0.295,0.616C0.295,0.616 0.319,0.664 0.353,0.73C0.321,0.662 0.297,0.613 0.297,0.613C0.297,0.613 0.315,0.649 0.342,0.701C0.339,0.694 0.336,0.688 0.333,0.681C0.283,0.577 0.233,0.474 0.195,0.397C0.157,0.321 0.131,0.27 0.131,0.27C0.131,0.27 0.158,0.32 0.198,0.395C0.238,0.469 0.292,0.568 0.347,0.665C0.365,0.697 0.383,0.728 0.401,0.759C0.354,0.669 0.316,0.597 0.316,0.597C0.316,0.597 0.337,0.634 0.367,0.688C0.337,0.628 0.307,0.572 0.284,0.527C0.253,0.468 0.232,0.429 0.232,0.429C0.232,0.429 0.254,0.467 0.287,0.523C0.293,0.533 0.3,0.544 0.306,0.555C0.276,0.498 0.247,0.445 0.223,0.401C0.183,0.33 0.156,0.283 0.156,0.283C0.156,0.283 0.184,0.329 0.226,0.397C0.259,0.45 0.3,0.517 0.345,0.585C0.34,0.577 0.336,0.57 0.331,0.562C0.302,0.511 0.282,0.477 0.282,0.477C0.282,0.477 0.303,0.509 0.335,0.558C0.366,0.606 0.409,0.67 0.452,0.733C0.385,0.624 0.326,0.528 0.326,0.528C0.326,0.528 0.339,0.548 0.36,0.581C0.325,0.523 0.291,0.469 0.264,0.426C0.23,0.371 0.207,0.335 0.207,0.335C0.207,0.335 0.23,0.37 0.266,0.424C0.267,0.426 0.269,0.429 0.271,0.431C0.255,0.406 0.24,0.382 0.226,0.361C0.182,0.291 0.152,0.245 0.152,0.245C0.152,0.245 0.182,0.29 0.229,0.358C0.255,0.396 0.287,0.442 0.321,0.49C0.319,0.487 0.316,0.483 0.314,0.479C0.283,0.433 0.263,0.402 0.263,0.402C0.263,0.402 0.284,0.432 0.316,0.477C0.347,0.522 0.39,0.582 0.432,0.641C0.44,0.651 0.447,0.662 0.455,0.672C0.408,0.599 0.361,0.528 0.325,0.474C0.289,0.421 0.265,0.386 0.265,0.386C0.265,0.386 0.29,0.419 0.328,0.47C0.354,0.503 0.385,0.544 0.418,0.587C0.4,0.56 0.382,0.535 0.367,0.513C0.335,0.466 0.313,0.435 0.313,0.435C0.313,0.435 0.336,0.465 0.37,0.508C0.397,0.542 0.43,0.583 0.466,0.626C0.417,0.56 0.379,0.51 0.379,0.51C0.379,0.51 0.461,0.613 0.543,0.715C0.556,0.731 0.569,0.747 0.582,0.763C0.563,0.737 0.543,0.709 0.523,0.681C0.483,0.626 0.442,0.571 0.411,0.53L0.36,0.463C0.36,0.463 0.382,0.488 0.414,0.526C0.418,0.531 0.422,0.535 0.426,0.54C0.406,0.514 0.393,0.498 0.393,0.498C0.393,0.498 0.403,0.509 0.419,0.528C0.385,0.484 0.361,0.454 0.361,0.454C0.361,0.454 0.434,0.54 0.508,0.625C0.543,0.665 0.605,0.731 0.612,0.738L0.612,0.738C0.603,0.726 0.509,0.603 0.455,0.536C0.391,0.457 0.326,0.38 0.276,0.322C0.227,0.265 0.193,0.227 0.193,0.227C0.193,0.227 0.227,0.264 0.279,0.317C0.319,0.359 0.37,0.411 0.423,0.464C0.418,0.458 0.412,0.452 0.407,0.446C0.37,0.405 0.346,0.378 0.346,0.378C0.346,0.378 0.355,0.387 0.37,0.402C0.341,0.371 0.323,0.35 0.323,0.35C0.323,0.35 0.346,0.374 0.381,0.409C0.415,0.444 0.462,0.49 0.509,0.536C0.515,0.542 0.521,0.548 0.527,0.553C0.535,0.561 0.543,0.568 0.551,0.576C0.563,0.588 0.576,0.599 0.588,0.611C0.549,0.568 0.514,0.531 0.514,0.531C0.514,0.531 0.522,0.538 0.534,0.55C0.504,0.518 0.482,0.496 0.482,0.496L0.529,0.541C0.552,0.563 0.582,0.588 0.612,0.617L0.612,0.616C0.575,0.577 0.534,0.534 0.493,0.492C0.427,0.423 0.36,0.356 0.309,0.306C0.258,0.256 0.224,0.224 0.224,0.224C0.224,0.224 0.259,0.255 0.311,0.302C0.354,0.34 0.41,0.389 0.469,0.439C0.437,0.408 0.407,0.38 0.382,0.357C0.338,0.315 0.309,0.288 0.309,0.288C0.309,0.288 0.339,0.314 0.384,0.352C0.427,0.388 0.484,0.434 0.542,0.48C0.519,0.459 0.504,0.445 0.504,0.445L0.612,0.528L0.612,0.528L0.59,0.507L0.612,0.52L0.592,0.503L0.612,0.512L0.612,0.512C0.606,0.508 0.565,0.479 0.547,0.463C0.5,0.422 0.452,0.381 0.416,0.351L0.357,0.301C0.357,0.301 0.381,0.32 0.418,0.348C0.452,0.375 0.498,0.409 0.544,0.444C0.52,0.424 0.499,0.406 0.48,0.39C0.444,0.36 0.42,0.34 0.42,0.34L0.461,0.37C0.44,0.353 0.421,0.336 0.403,0.322C0.358,0.286 0.328,0.262 0.328,0.262C0.328,0.262 0.359,0.284 0.405,0.317C0.438,0.34 0.479,0.368 0.522,0.397C0.453,0.342 0.384,0.29 0.331,0.251C0.277,0.21 0.24,0.183 0.24,0.183C0.24,0.183 0.277,0.209 0.333,0.246C0.389,0.283 0.463,0.331 0.538,0.378C0.546,0.383 0.553,0.388 0.56,0.392C0.545,0.38 0.535,0.373 0.535,0.373C0.535,0.373 0.553,0.384 0.581,0.401C0.561,0.387 0.541,0.373 0.52,0.359C0.457,0.315 0.394,0.272 0.347,0.24C0.299,0.208 0.268,0.187 0.268,0.187C0.268,0.187 0.3,0.207 0.348,0.237C0.389,0.263 0.442,0.296 0.496,0.329C0.435,0.287 0.375,0.248 0.328,0.218C0.271,0.181 0.233,0.156 0.233,0.156C0.233,0.156 0.243,0.162 0.259,0.172C0.276,0.182 0.301,0.196 0.33,0.213C0.386,0.245 0.598,0.356 0.612,0.363L0.612,0.363C0.593,0.351 0.573,0.339 0.554,0.327C0.479,0.281 0.403,0.236 0.346,0.203C0.289,0.17 0.251,0.149 0.251,0.149C0.251,0.149 0.289,0.169 0.347,0.198C0.384,0.216 0.429,0.238 0.476,0.261C0.462,0.254 0.449,0.246 0.437,0.24L0.37,0.203C0.37,0.203 0.398,0.216 0.438,0.236C0.467,0.249 0.501,0.266 0.538,0.283C0.501,0.263 0.477,0.251 0.477,0.251L0.612,0.297C0.6,0.291 0.495,0.231 0.458,0.213C0.418,0.195 0.392,0.183 0.392,0.183L0.458,0.21C0.497,0.226 0.548,0.246 0.599,0.266C0.575,0.255 0.56,0.248 0.56,0.248C0.56,0.248 0.581,0.256 0.612,0.268L0.612,0.268C0.599,0.262 0.586,0.256 0.574,0.25C0.565,0.246 0.561,0.244 0.561,0.244C0.561,0.244 0.562,0.244 0.564,0.245C0.542,0.235 0.52,0.225 0.5,0.216C0.477,0.206 0.455,0.196 0.435,0.188C0.393,0.17 0.364,0.158 0.364,0.158C0.364,0.158 0.378,0.164 0.402,0.172C0.375,0.161 0.358,0.154 0.358,0.154C0.358,0.154 0.391,0.166 0.442,0.183C0.464,0.191 0.489,0.199 0.516,0.209C0.452,0.181 0.389,0.156 0.34,0.136C0.278,0.112 0.237,0.097 0.237,0.097C0.237,0.097 0.248,0.101 0.266,0.106C0.262,0.105 0.261,0.104 0.261,0.104C0.261,0.104 0.278,0.11 0.306,0.119C0.317,0.123 0.328,0.126 0.341,0.13C0.394,0.147 0.534,0.187 0.534,0.187L0.517,0.18C0.517,0.18 0.598,0.201 0.612,0.205L0.612,0.204C0.592,0.198 0.423,0.143 0.373,0.126C0.322,0.11 0.288,0.099 0.288,0.099C0.288,0.099 0.322,0.109 0.373,0.124C0.423,0.138 0.599,0.182 0.612,0.185L0.612,0.184L0.51,0.147L0.612,0.159L0.612,0.159L0.474,0.115L0.609,0.138C0.582,0.131 0.406,0.089 0.348,0.077C0.285,0.063 0.243,0.055 0.243,0.055C0.243,0.055 0.285,0.062 0.348,0.07C0.409,0.079 0.599,0.096 0.612,0.097L0.612,0.097C0.601,0.095 0.477,0.072 0.428,0.064C0.374,0.055 0.337,0.05 0.337,0.05C0.337,0.05 0.374,0.053 0.429,0.056C0.477,0.059 0.601,0.056 0.612,0.056L0.612,0.056C0.596,0.054 0.443,0.041 0.393,0.037C0.342,0.033 0.307,0.031 0.307,0.031C0.307,0.031 0.342,0.032 0.393,0.034C0.411,0.034 0.431,0.035 0.452,0.035C0.415,0.032 0.38,0.03 0.35,0.027C0.287,0.023 0.244,0.021 0.244,0.021C0.244,0.021 0.287,0.022 0.35,0.021C0.401,0.021 0.531,0.017 0.531,0.017L0.485,0.016L0.588,0.015L0.485,0.012L0.612,0.006L0.612,0.005C0.603,0.005 0.514,0.004 0.479,0.004C0.437,0.003 0.409,0.003 0.409,0.003C0.409,0.003 0.437,0.002 0.479,0C0.505,-0.001 0.572,-0.005 0.572,-0.005L0.54,-0.005L0.612,-0.009L0.612,-0.009L0.477,-0.013L0.612,-0.031L0.612,-0.032L0.447,-0.029C0.447,-0.029 0.468,-0.032 0.499,-0.036C0.486,-0.035 0.478,-0.035 0.478,-0.035C0.478,-0.035 0.484,-0.035 0.493,-0.036C0.444,-0.033 0.397,-0.029 0.359,-0.025C0.304,-0.02 0.268,-0.016 0.268,-0.016C0.268,-0.016 0.304,-0.021 0.359,-0.028C0.375,-0.03 0.392,-0.032 0.411,-0.035C0.422,-0.036 0.435,-0.038 0.45,-0.041C0.459,-0.042 0.469,-0.044 0.479,-0.045C0.431,-0.041 0.387,-0.037 0.349,-0.033C0.286,-0.027 0.243,-0.021 0.243,-0.021C0.243,-0.021 0.275,-0.026 0.324,-0.035C0.304,-0.032 0.292,-0.031 0.292,-0.031L0.379,-0.045C0.388,-0.047 0.396,-0.048 0.404,-0.05C0.363,-0.044 0.337,-0.04 0.337,-0.04C0.337,-0.04 0.369,-0.046 0.416,-0.054C0.453,-0.061 0.596,-0.089 0.612,-0.093L0.612,-0.093L0.473,-0.08C0.473,-0.08 0.491,-0.084 0.519,-0.091C0.495,-0.087 0.473,-0.084 0.453,-0.08C0.401,-0.072 0.367,-0.065 0.367,-0.065C0.367,-0.065 0.401,-0.074 0.452,-0.087C0.494,-0.097 0.598,-0.128 0.611,-0.132C0.595,-0.129 0.435,-0.098 0.387,-0.086C0.336,-0.074 0.303,-0.066 0.303,-0.066C0.303,-0.066 0.336,-0.075 0.387,-0.089C0.399,-0.093 0.412,-0.096 0.426,-0.1C0.401,-0.095 0.387,-0.091 0.387,-0.091C0.387,-0.091 0.415,-0.099 0.457,-0.112C0.475,-0.117 0.495,-0.123 0.516,-0.13C0.49,-0.124 0.465,-0.118 0.443,-0.112C0.391,-0.099 0.357,-0.09 0.357,-0.09C0.357,-0.09 0.391,-0.101 0.442,-0.118C0.473,-0.128 0.55,-0.155 0.55,-0.155C0.55,-0.155 0.428,-0.12 0.382,-0.107C0.331,-0.092 0.298,-0.082 0.298,-0.082C0.298,-0.082 0.331,-0.093 0.381,-0.11C0.388,-0.112 0.395,-0.114 0.402,-0.117C0.383,-0.111 0.365,-0.106 0.349,-0.101C0.288,-0.083 0.247,-0.07 0.247,-0.07C0.247,-0.07 0.257,-0.073 0.275,-0.08C0.293,-0.086 0.318,-0.095 0.348,-0.106C0.407,-0.128 0.599,-0.203 0.612,-0.208L0.612,-0.209L0.462,-0.161C0.462,-0.161 0.479,-0.168 0.507,-0.18C0.483,-0.172 0.461,-0.165 0.442,-0.158C0.391,-0.14 0.358,-0.128 0.358,-0.128C0.358,-0.128 0.391,-0.142 0.441,-0.164C0.485,-0.183 0.597,-0.235 0.611,-0.242C0.591,-0.234 0.395,-0.157 0.345,-0.136L0.257,-0.099C0.257,-0.099 0.292,-0.115 0.344,-0.139C0.378,-0.154 0.419,-0.173 0.463,-0.194C0.409,-0.171 0.358,-0.15 0.316,-0.131C0.253,-0.104 0.211,-0.085 0.211,-0.085C0.211,-0.085 0.253,-0.105 0.315,-0.136C0.351,-0.154 0.394,-0.176 0.439,-0.199C0.424,-0.192 0.41,-0.186 0.397,-0.18C0.351,-0.158 0.321,-0.144 0.321,-0.144C0.321,-0.144 0.351,-0.159 0.396,-0.183C0.429,-0.199 0.47,-0.221 0.513,-0.243C0.474,-0.225 0.447,-0.212 0.447,-0.212C0.447,-0.212 0.454,-0.216 0.465,-0.221C0.418,-0.2 0.374,-0.178 0.337,-0.161C0.278,-0.132 0.238,-0.112 0.238,-0.112L0.265,-0.126C0.282,-0.136 0.307,-0.149 0.336,-0.166C0.367,-0.183 0.403,-0.203 0.441,-0.226C0.437,-0.223 0.432,-0.221 0.428,-0.219C0.379,-0.195 0.347,-0.178 0.347,-0.178C0.347,-0.178 0.379,-0.196 0.426,-0.225C0.451,-0.24 0.512,-0.277 0.512,-0.277L0.445,-0.241L0.612,-0.344L0.612,-0.345L0.6,-0.342L0.612,-0.353L0.612,-0.354C0.601,-0.348 0.469,-0.279 0.431,-0.256C0.392,-0.233 0.366,-0.217 0.366,-0.217L0.43,-0.259C0.467,-0.284 0.601,-0.376 0.612,-0.383L0.612,-0.383C0.598,-0.375 0.4,-0.252 0.355,-0.223C0.308,-0.193 0.276,-0.173 0.276,-0.173C0.276,-0.173 0.307,-0.194 0.354,-0.226C0.398,-0.256 0.593,-0.397 0.611,-0.411L0.513,-0.35L0.588,-0.406L0.511,-0.353L0.612,-0.431L0.612,-0.431L0.577,-0.408C0.577,-0.408 0.452,-0.324 0.405,-0.291C0.373,-0.268 0.348,-0.251 0.336,-0.242C0.334,-0.241 0.333,-0.24 0.332,-0.239C0.295,-0.212 0.272,-0.195 0.272,-0.195C0.272,-0.195 0.302,-0.218 0.346,-0.253C0.357,-0.262 0.369,-0.271 0.381,-0.281C0.379,-0.28 0.378,-0.279 0.378,-0.279C0.378,-0.279 0.405,-0.301 0.445,-0.334C0.468,-0.353 0.524,-0.401 0.524,-0.401L0.514,-0.393L0.612,-0.476L0.612,-0.477L0.583,-0.46L0.612,-0.49L0.612,-0.49L0.457,-0.372L0.533,-0.442C0.533,-0.442 0.411,-0.347 0.366,-0.31C0.318,-0.271 0.287,-0.244 0.287,-0.244C0.287,-0.244 0.318,-0.272 0.363,-0.316C0.394,-0.345 0.431,-0.382 0.47,-0.421C0.458,-0.41 0.446,-0.4 0.436,-0.391L0.383,-0.344C0.383,-0.344 0.403,-0.364 0.434,-0.395C0.465,-0.425 0.505,-0.466 0.546,-0.507C0.568,-0.53 0.591,-0.554 0.612,-0.575L0.612,-0.576C0.569,-0.537 0.516,-0.488 0.464,-0.439C0.403,-0.382 0.342,-0.324 0.297,-0.28L0.221,-0.207C0.221,-0.207 0.251,-0.237 0.295,-0.282C0.34,-0.328 0.4,-0.389 0.459,-0.45C0.494,-0.488 0.53,-0.525 0.562,-0.559C0.535,-0.533 0.506,-0.506 0.478,-0.479C0.408,-0.412 0.34,-0.343 0.289,-0.291C0.237,-0.239 0.203,-0.204 0.203,-0.204C0.203,-0.204 0.212,-0.213 0.226,-0.229C0.241,-0.245 0.262,-0.268 0.286,-0.295C0.336,-0.351 0.402,-0.425 0.467,-0.501C0.469,-0.504 0.472,-0.507 0.475,-0.511C0.474,-0.509 0.473,-0.508 0.473,-0.508C0.473,-0.508 0.476,-0.512 0.482,-0.519C0.489,-0.527 0.496,-0.536 0.504,-0.544C0.502,-0.543 0.501,-0.541 0.499,-0.54C0.439,-0.479 0.38,-0.417 0.336,-0.37C0.292,-0.324 0.263,-0.292 0.263,-0.292C0.263,-0.292 0.291,-0.325 0.333,-0.376C0.361,-0.411 0.394,-0.453 0.43,-0.498C0.42,-0.487 0.41,-0.476 0.401,-0.467C0.366,-0.427 0.343,-0.401 0.343,-0.401C0.343,-0.401 0.352,-0.411 0.366,-0.429C0.358,-0.421 0.351,-0.413 0.344,-0.405C0.304,-0.358 0.277,-0.326 0.277,-0.326C0.277,-0.326 0.303,-0.359 0.342,-0.409C0.354,-0.425 0.368,-0.443 0.382,-0.462L0.381,-0.461C0.381,-0.461 0.382,-0.462 0.384,-0.464C0.412,-0.501 0.444,-0.543 0.476,-0.586C0.454,-0.561 0.44,-0.543 0.44,-0.543C0.44,-0.543 0.489,-0.608 0.537,-0.674C0.549,-0.691 0.562,-0.708 0.573,-0.724L0.571,-0.722C0.532,-0.674 0.48,-0.61 0.429,-0.546C0.377,-0.481 0.326,-0.416 0.287,-0.367L0.224,-0.285L0.286,-0.369C0.323,-0.42 0.373,-0.488 0.422,-0.556C0.453,-0.6 0.485,-0.644 0.513,-0.684C0.463,-0.619 0.422,-0.565 0.422,-0.565C0.422,-0.565 0.429,-0.576 0.441,-0.593C0.399,-0.537 0.356,-0.481 0.325,-0.438L0.271,-0.365C0.271,-0.365 0.292,-0.395 0.323,-0.441C0.355,-0.486 0.396,-0.547 0.438,-0.608C0.46,-0.64 0.481,-0.672 0.502,-0.703C0.489,-0.686 0.476,-0.669 0.463,-0.651C0.427,-0.603 0.391,-0.554 0.364,-0.517L0.32,-0.455L0.362,-0.52C0.387,-0.559 0.421,-0.611 0.454,-0.664C0.458,-0.67 0.462,-0.676 0.465,-0.683C0.426,-0.628 0.387,-0.574 0.358,-0.532C0.327,-0.487 0.306,-0.457 0.306,-0.457C0.306,-0.457 0.326,-0.489 0.355,-0.537C0.384,-0.585 0.423,-0.649 0.461,-0.715C0.468,-0.726 0.475,-0.738 0.482,-0.75C0.453,-0.708 0.423,-0.662 0.392,-0.616C0.334,-0.529 0.278,-0.441 0.236,-0.374C0.193,-0.307 0.166,-0.262 0.166,-0.262C0.166,-0.262 0.172,-0.274 0.184,-0.294C0.196,-0.314 0.213,-0.343 0.233,-0.377C0.27,-0.442 0.318,-0.527 0.367,-0.614C0.318,-0.536 0.271,-0.458 0.235,-0.398C0.195,-0.331 0.169,-0.286 0.169,-0.286C0.169,-0.286 0.195,-0.332 0.232,-0.401C0.27,-0.471 0.32,-0.564 0.368,-0.658C0.403,-0.725 0.434,-0.793 0.464,-0.852L0.612,-0.852L0.612,-0.852L-0.613,-0.852L-0.613,0.881L-0.613,0.881ZM-0.613,0.881C-0.613,0.881 -0.613,0.881 -0.613,0.881L-0.467,0.881C-0.467,0.881 -0.466,0.881 -0.466,0.881L-0.613,0.881ZM-0.466,0.881L-0.466,0.881L-0.378,0.881L-0.378,0.881L-0.466,0.881ZM-0.378,0.881L-0.377,0.879L-0.378,0.881L-0.378,0.881ZM-0.378,0.881L-0.378,0.881L-0.32,0.881C-0.32,0.881 -0.32,0.881 -0.32,0.881L-0.378,0.881ZM-0.32,0.881C-0.32,0.881 -0.32,0.881 -0.32,0.881L-0.266,0.881L-0.266,0.881L-0.32,0.881ZM-0.266,0.881L-0.265,0.878L-0.266,0.881L-0.266,0.881ZM-0.266,0.881L-0.266,0.881L-0.177,0.881C-0.177,0.881 -0.177,0.881 -0.177,0.881L-0.266,0.881ZM-0.176,0.881L-0.176,0.879C-0.176,0.88 -0.177,0.881 -0.177,0.881L-0.176,0.881ZM-0.176,0.881L-0.176,0.881L-0.16,0.881C-0.16,0.881 -0.16,0.881 -0.16,0.881L-0.176,0.881ZM-0.16,0.881C-0.16,0.88 -0.16,0.879 -0.16,0.877C-0.16,0.878 -0.16,0.88 -0.16,0.881L-0.16,0.881ZM-0.16,0.881C-0.16,0.881 -0.16,0.881 -0.16,0.881L-0.122,0.881C-0.122,0.881 -0.122,0.881 -0.122,0.881L-0.16,0.881ZM-0.122,0.881C-0.122,0.881 -0.122,0.881 -0.122,0.881L-0.096,0.881C-0.096,0.881 -0.096,0.881 -0.096,0.881L-0.122,0.881ZM-0.096,0.881C-0.096,0.88 -0.096,0.878 -0.095,0.875C-0.096,0.877 -0.096,0.879 -0.096,0.881L-0.096,0.881ZM-0.096,0.881C-0.096,0.881 -0.096,0.881 -0.096,0.881L-0.084,0.881L-0.084,0.881L-0.096,0.881ZM-0.083,0.881C-0.083,0.881 -0.083,0.881 -0.083,0.881L-0.061,0.881C-0.061,0.881 -0.061,0.881 -0.061,0.881L-0.083,0.881ZM-0.061,0.881C-0.061,0.881 -0.061,0.881 -0.061,0.881L-0.015,0.881C-0.015,0.881 -0.015,0.881 -0.015,0.881L-0.061,0.881ZM-0.014,0.881C-0.014,0.878 -0.014,0.874 -0.014,0.87C-0.014,0.876 -0.014,0.879 -0.015,0.881L-0.014,0.881ZM-0.014,0.881C-0.014,0.881 -0.014,0.881 -0.014,0.881L0.056,0.881C0.056,0.881 0.056,0.881 0.056,0.881L-0.014,0.881ZM0.056,0.881C0.056,0.881 0.056,0.881 0.056,0.881L0.074,0.881L0.074,0.881C0.074,0.881 0.074,0.881 0.074,0.881L0.056,0.881ZM0.074,0.881L0.074,0.881L0.078,0.881L0.078,0.881L0.074,0.881L0.074,0.881ZM0.078,0.881C0.078,0.881 0.078,0.881 0.078,0.881L0.123,0.881C0.123,0.881 0.123,0.881 0.123,0.881L0.078,0.881ZM0.123,0.881C0.123,0.88 0.123,0.879 0.122,0.876C0.122,0.879 0.123,0.88 0.123,0.881L0.123,0.881ZM0.123,0.881C0.123,0.881 0.123,0.881 0.123,0.881L0.139,0.881C0.139,0.881 0.139,0.881 0.139,0.881L0.123,0.881ZM0.139,0.881L0.199,0.881L0.199,0.881L0.139,0.881C0.139,0.881 0.139,0.881 0.139,0.881ZM0.199,0.881L0.199,0.881L0.199,0.881L0.199,0.881ZM0.199,0.881L0.199,0.881L0.308,0.881L0.308,0.881L0.199,0.881ZM0.308,0.881C0.308,0.881 0.308,0.881 0.308,0.881L0.613,0.881L0.613,0.739C0.613,0.739 0.612,0.739 0.612,0.738L0.612,0.881L0.308,0.881ZM0.612,0.738C0.612,0.739 0.613,0.739 0.613,0.739L0.613,0.617C0.612,0.617 0.612,0.617 0.612,0.617L0.612,0.738ZM0.612,0.616C0.612,0.617 0.612,0.617 0.613,0.617L0.613,0.529L0.613,0.529L0.612,0.528L0.612,0.616ZM0.613,0.529L0.613,0.529L0.613,0.521L0.612,0.521L0.612,0.528L0.613,0.529ZM0.612,0.521L0.612,0.52L0.612,0.521L0.612,0.521ZM0.612,0.521L0.613,0.521L0.613,0.513L0.612,0.512L0.612,0.521ZM0.613,0.513L0.613,0.363C0.613,0.363 0.612,0.363 0.612,0.363L0.612,0.512C0.612,0.513 0.613,0.513 0.613,0.513ZM0.612,0.363C0.612,0.363 0.613,0.363 0.613,0.363L0.613,0.298L0.612,0.297L0.612,0.363ZM0.612,0.297L0.612,0.297L0.612,0.297L0.612,0.297ZM0.612,0.297L0.613,0.298L0.613,0.268C0.612,0.268 0.612,0.268 0.612,0.268L0.612,0.297ZM0.612,0.268C0.612,0.268 0.612,0.268 0.613,0.268L0.613,0.205C0.613,0.205 0.612,0.205 0.612,0.205L0.612,0.268ZM0.613,0.205L0.613,0.185C0.613,0.185 0.612,0.185 0.612,0.185L0.612,0.204C0.612,0.205 0.613,0.205 0.613,0.205ZM0.612,0.184L0.613,0.185L0.613,0.159L0.613,0.159L0.612,0.159L0.612,0.184ZM0.613,0.159L0.613,0.159L0.613,0.139L0.612,0.139L0.612,0.159L0.613,0.159ZM0.612,0.138L0.609,0.138L0.612,0.139L0.612,0.138ZM0.612,0.138L0.613,0.139L0.613,0.098C0.613,0.098 0.612,0.098 0.612,0.097L0.612,0.138ZM0.612,0.097C0.612,0.097 0.613,0.097 0.613,0.097L0.613,0.056C0.613,0.056 0.612,0.056 0.612,0.056L0.612,0.097ZM0.612,0.056C0.612,0.056 0.613,0.056 0.613,0.056L0.613,0.006L0.612,0.006L0.612,0.056ZM0.612,0.005C0.612,0.005 0.613,0.005 0.613,0.005L0.613,-0.009L0.612,-0.009L0.612,0.005ZM0.612,-0.009L0.613,-0.009L0.613,-0.032L0.612,-0.031L0.612,-0.009ZM0.612,-0.032L0.613,-0.032L0.613,-0.093C0.613,-0.093 0.612,-0.093 0.612,-0.093L0.612,-0.032ZM0.612,-0.093L0.613,-0.093L0.613,-0.133L0.612,-0.132L0.612,-0.093ZM0.612,-0.132L0.611,-0.132L0.612,-0.132L0.612,-0.132ZM0.612,-0.132L0.613,-0.133L0.613,-0.209C0.613,-0.209 0.612,-0.209 0.612,-0.208L0.612,-0.132ZM0.612,-0.209L0.613,-0.209L0.613,-0.242L0.612,-0.242L0.612,-0.209ZM0.612,-0.242L0.611,-0.242L0.612,-0.242L0.612,-0.242ZM0.612,-0.242L0.613,-0.242L0.613,-0.345L0.613,-0.345L0.612,-0.344L0.612,-0.242ZM0.613,-0.345L0.613,-0.345L0.613,-0.354L0.612,-0.353L0.612,-0.345L0.613,-0.345ZM0.612,-0.354C0.612,-0.354 0.613,-0.354 0.613,-0.354L0.613,-0.384C0.613,-0.384 0.612,-0.383 0.612,-0.383L0.612,-0.354ZM0.612,-0.383C0.612,-0.384 0.613,-0.384 0.613,-0.384L0.613,-0.411L0.612,-0.411L0.612,-0.383ZM0.612,-0.411L0.611,-0.411L0.612,-0.411L0.612,-0.411ZM0.612,-0.411L0.613,-0.412L0.613,-0.432L0.612,-0.431L0.612,-0.411ZM0.612,-0.431L0.613,-0.432L0.613,-0.477L0.612,-0.476L0.612,-0.431ZM0.612,-0.477L0.613,-0.477L0.613,-0.491L0.612,-0.49L0.612,-0.477ZM0.612,-0.49L0.613,-0.491L0.613,-0.576C0.612,-0.576 0.612,-0.575 0.612,-0.575L0.612,-0.49ZM0.312,-0.849C0.303,-0.826 0.25,-0.694 0.234,-0.651C0.216,-0.604 0.205,-0.573 0.205,-0.573L0.214,-0.601C0.205,-0.577 0.2,-0.563 0.2,-0.563C0.2,-0.563 0.212,-0.601 0.231,-0.659C0.232,-0.662 0.233,-0.664 0.233,-0.667C0.22,-0.631 0.208,-0.598 0.198,-0.569C0.173,-0.502 0.158,-0.457 0.158,-0.457C0.158,-0.457 0.172,-0.503 0.194,-0.571L0.194,-0.572C0.188,-0.554 0.184,-0.544 0.184,-0.544C0.184,-0.544 0.197,-0.584 0.215,-0.645C0.224,-0.673 0.233,-0.705 0.244,-0.74C0.227,-0.689 0.215,-0.656 0.215,-0.656C0.215,-0.656 0.221,-0.675 0.231,-0.707C0.204,-0.626 0.178,-0.546 0.157,-0.485C0.135,-0.417 0.12,-0.372 0.12,-0.372C0.12,-0.372 0.134,-0.418 0.156,-0.486C0.175,-0.55 0.248,-0.808 0.259,-0.847C0.26,-0.85 0.26,-0.852 0.26,-0.852L0.314,-0.852L0.312,-0.849ZM0.375,-0.85L0.376,-0.852L0.464,-0.852C0.457,-0.84 0.303,-0.566 0.303,-0.566C0.303,-0.566 0.351,-0.661 0.406,-0.77C0.395,-0.75 0.384,-0.729 0.373,-0.709C0.338,-0.645 0.303,-0.58 0.278,-0.532L0.235,-0.45L0.276,-0.534C0.296,-0.575 0.321,-0.627 0.347,-0.682C0.31,-0.613 0.274,-0.545 0.246,-0.492C0.213,-0.429 0.192,-0.387 0.192,-0.387C0.192,-0.387 0.212,-0.43 0.242,-0.496C0.267,-0.552 0.298,-0.623 0.329,-0.697C0.3,-0.635 0.271,-0.575 0.249,-0.529L0.207,-0.441L0.375,-0.85ZM0.259,-0.847C0.248,-0.814 0.184,-0.622 0.164,-0.557C0.141,-0.485 0.127,-0.437 0.127,-0.437C0.127,-0.437 0.14,-0.486 0.159,-0.56C0.177,-0.63 0.2,-0.722 0.222,-0.816C0.217,-0.8 0.213,-0.785 0.208,-0.769C0.175,-0.657 0.143,-0.545 0.12,-0.46C0.097,-0.375 0.082,-0.318 0.082,-0.318C0.082,-0.318 0.096,-0.375 0.116,-0.462C0.125,-0.501 0.136,-0.547 0.146,-0.596C0.129,-0.527 0.117,-0.481 0.117,-0.481C0.117,-0.481 0.128,-0.529 0.143,-0.601C0.143,-0.601 0.144,-0.602 0.144,-0.602C0.139,-0.583 0.136,-0.572 0.136,-0.572C0.136,-0.572 0.145,-0.614 0.158,-0.677C0.164,-0.706 0.171,-0.739 0.178,-0.775C0.151,-0.667 0.126,-0.559 0.107,-0.478C0.087,-0.392 0.074,-0.335 0.074,-0.335C0.074,-0.335 0.077,-0.35 0.082,-0.375C0.087,-0.4 0.095,-0.436 0.103,-0.479C0.12,-0.566 0.172,-0.852 0.172,-0.852L0.26,-0.852C0.26,-0.852 0.259,-0.85 0.259,-0.847ZM0.375,-0.85L0.301,-0.71C0.301,-0.71 0.306,-0.723 0.314,-0.744C0.31,-0.734 0.305,-0.725 0.301,-0.716L0.268,-0.642L0.284,-0.685C0.26,-0.627 0.244,-0.588 0.244,-0.588C0.244,-0.588 0.261,-0.633 0.287,-0.697C0.26,-0.634 0.242,-0.59 0.242,-0.59C0.242,-0.59 0.27,-0.662 0.307,-0.756C0.28,-0.694 0.255,-0.632 0.235,-0.585L0.2,-0.499L0.233,-0.587C0.246,-0.62 0.261,-0.661 0.277,-0.704C0.267,-0.68 0.261,-0.665 0.261,-0.665C0.261,-0.665 0.278,-0.711 0.302,-0.775C0.277,-0.712 0.259,-0.667 0.259,-0.667C0.259,-0.667 0.288,-0.746 0.323,-0.842C0.283,-0.742 0.244,-0.643 0.244,-0.643L0.312,-0.849C0.313,-0.851 0.314,-0.852 0.314,-0.852L0.376,-0.852L0.375,-0.85ZM-0.594,0.28C-0.535,0.255 -0.492,0.236 -0.492,0.236L-0.613,0.297L-0.613,0.268C-0.589,0.259 -0.565,0.25 -0.541,0.24C-0.47,0.212 -0.4,0.184 -0.347,0.162L-0.26,0.125C-0.26,0.125 -0.294,0.141 -0.347,0.164C-0.399,0.188 -0.468,0.22 -0.538,0.253C-0.557,0.262 -0.576,0.271 -0.594,0.28ZM-0.426,-0.439C-0.42,-0.432 -0.414,-0.426 -0.409,-0.42C-0.373,-0.379 -0.348,-0.352 -0.348,-0.352C-0.348,-0.352 -0.357,-0.361 -0.373,-0.376L-0.325,-0.325C-0.325,-0.325 -0.348,-0.348 -0.383,-0.383C-0.418,-0.418 -0.465,-0.465 -0.511,-0.51C-0.517,-0.516 -0.523,-0.522 -0.529,-0.528C-0.537,-0.535 -0.545,-0.543 -0.553,-0.55C-0.565,-0.562 -0.578,-0.574 -0.59,-0.585C-0.552,-0.543 -0.516,-0.505 -0.516,-0.505C-0.516,-0.505 -0.524,-0.512 -0.537,-0.524C-0.506,-0.492 -0.485,-0.47 -0.485,-0.47C-0.485,-0.47 -0.504,-0.488 -0.532,-0.515C-0.554,-0.536 -0.583,-0.564 -0.613,-0.592L-0.613,-0.709C-0.613,-0.709 -0.513,-0.579 -0.458,-0.511C-0.393,-0.432 -0.328,-0.354 -0.279,-0.297C-0.229,-0.239 -0.196,-0.202 -0.196,-0.202C-0.196,-0.202 -0.23,-0.238 -0.281,-0.292C-0.321,-0.333 -0.372,-0.385 -0.426,-0.439ZM-0.613,-0.155C-0.557,-0.138 -0.513,-0.121 -0.513,-0.121L-0.613,-0.133L-0.613,-0.155ZM-0.075,-0.85C-0.075,-0.851 -0.075,-0.852 -0.075,-0.852L-0.056,-0.852C-0.055,-0.837 -0.044,-0.607 -0.04,-0.532C-0.035,-0.457 -0.032,-0.407 -0.032,-0.407L-0.042,-0.531C-0.043,-0.55 -0.045,-0.57 -0.046,-0.591C-0.046,-0.589 -0.038,-0.471 -0.038,-0.471C-0.038,-0.471 -0.042,-0.516 -0.048,-0.585C-0.054,-0.65 -0.073,-0.826 -0.075,-0.85ZM-0.124,-0.844C-0.118,-0.8 -0.094,-0.602 -0.085,-0.535C-0.074,-0.463 -0.068,-0.415 -0.068,-0.415C-0.068,-0.415 -0.075,-0.463 -0.087,-0.535C-0.099,-0.606 -0.115,-0.702 -0.131,-0.797C-0.134,-0.811 -0.136,-0.825 -0.139,-0.839C-0.139,-0.844 -0.14,-0.848 -0.141,-0.852L-0.125,-0.852C-0.125,-0.849 -0.124,-0.847 -0.124,-0.844ZM-0.075,-0.85C-0.074,-0.828 -0.068,-0.663 -0.062,-0.597C-0.056,-0.519 -0.052,-0.467 -0.052,-0.467C-0.052,-0.467 -0.058,-0.519 -0.068,-0.596C-0.074,-0.648 -0.083,-0.711 -0.092,-0.777C-0.091,-0.759 -0.089,-0.742 -0.087,-0.727C-0.081,-0.663 -0.077,-0.621 -0.077,-0.621C-0.077,-0.621 -0.081,-0.653 -0.088,-0.702C-0.082,-0.643 -0.076,-0.588 -0.07,-0.543L-0.056,-0.422L-0.072,-0.542C-0.075,-0.559 -0.077,-0.578 -0.08,-0.598C-0.08,-0.596 -0.074,-0.542 -0.074,-0.542C-0.074,-0.542 -0.08,-0.582 -0.088,-0.643C-0.096,-0.698 -0.112,-0.771 -0.124,-0.844C-0.124,-0.848 -0.124,-0.851 -0.125,-0.852L-0.076,-0.852C-0.076,-0.852 -0.076,-0.851 -0.075,-0.85ZM-0.611,-0.337C-0.612,-0.338 -0.612,-0.338 -0.613,-0.338L-0.613,-0.495C-0.601,-0.485 -0.594,-0.477 -0.594,-0.477C-0.594,-0.477 -0.599,-0.481 -0.607,-0.487C-0.588,-0.471 -0.569,-0.454 -0.55,-0.438C-0.502,-0.396 -0.455,-0.356 -0.419,-0.325C-0.383,-0.295 -0.359,-0.275 -0.359,-0.275C-0.359,-0.275 -0.383,-0.294 -0.42,-0.322C-0.455,-0.349 -0.5,-0.384 -0.546,-0.418C-0.523,-0.398 -0.501,-0.38 -0.482,-0.364C-0.446,-0.334 -0.422,-0.314 -0.422,-0.314C-0.422,-0.314 -0.438,-0.326 -0.464,-0.344C-0.443,-0.327 -0.423,-0.311 -0.406,-0.297C-0.361,-0.26 -0.331,-0.236 -0.331,-0.236C-0.331,-0.236 -0.361,-0.258 -0.408,-0.291C-0.441,-0.314 -0.481,-0.342 -0.524,-0.371C-0.455,-0.317 -0.386,-0.264 -0.334,-0.225C-0.279,-0.184 -0.243,-0.158 -0.243,-0.158C-0.243,-0.158 -0.28,-0.183 -0.335,-0.22C-0.391,-0.257 -0.466,-0.306 -0.541,-0.353C-0.548,-0.357 -0.555,-0.362 -0.563,-0.367C-0.547,-0.355 -0.538,-0.348 -0.538,-0.348C-0.538,-0.348 -0.556,-0.359 -0.583,-0.375C-0.564,-0.361 -0.543,-0.347 -0.523,-0.333C-0.46,-0.289 -0.397,-0.246 -0.349,-0.214C-0.302,-0.182 -0.27,-0.161 -0.27,-0.161C-0.27,-0.161 -0.302,-0.181 -0.35,-0.212C-0.391,-0.237 -0.444,-0.27 -0.499,-0.304C-0.437,-0.262 -0.378,-0.222 -0.331,-0.192C-0.274,-0.155 -0.235,-0.131 -0.235,-0.131L-0.262,-0.146C-0.279,-0.156 -0.303,-0.17 -0.332,-0.187C-0.389,-0.22 -0.583,-0.323 -0.611,-0.337ZM-0.611,-0.337C-0.586,-0.322 -0.404,-0.21 -0.349,-0.177C-0.292,-0.144 -0.253,-0.123 -0.253,-0.123C-0.253,-0.123 -0.292,-0.143 -0.35,-0.172C-0.387,-0.191 -0.431,-0.213 -0.479,-0.236C-0.465,-0.228 -0.452,-0.221 -0.44,-0.214C-0.4,-0.192 -0.373,-0.177 -0.373,-0.177C-0.373,-0.177 -0.4,-0.19 -0.441,-0.21C-0.469,-0.224 -0.504,-0.24 -0.541,-0.257C-0.504,-0.238 -0.479,-0.225 -0.479,-0.225L-0.613,-0.274L-0.613,-0.338L-0.611,-0.337ZM-0.613,0.406C-0.586,0.39 -0.558,0.374 -0.53,0.357C-0.467,0.318 -0.404,0.279 -0.357,0.249C-0.31,0.218 -0.279,0.198 -0.279,0.198C-0.279,0.198 -0.31,0.22 -0.356,0.251C-0.402,0.283 -0.464,0.326 -0.525,0.37C-0.555,0.391 -0.613,0.436 -0.613,0.436L-0.613,0.406ZM-0.613,0.156C-0.6,0.153 -0.44,0.124 -0.389,0.112C-0.339,0.099 -0.305,0.091 -0.305,0.091C-0.305,0.091 -0.339,0.101 -0.389,0.115C-0.401,0.118 -0.414,0.122 -0.428,0.126C-0.404,0.12 -0.389,0.117 -0.389,0.117C-0.389,0.117 -0.417,0.125 -0.459,0.138C-0.477,0.143 -0.497,0.149 -0.519,0.156C-0.492,0.149 -0.467,0.143 -0.445,0.138C-0.393,0.125 -0.359,0.116 -0.359,0.116C-0.359,0.116 -0.393,0.127 -0.444,0.143C-0.475,0.154 -0.513,0.166 -0.553,0.18C-0.491,0.163 -0.43,0.146 -0.384,0.133C-0.334,0.118 -0.3,0.108 -0.3,0.108C-0.3,0.108 -0.334,0.119 -0.384,0.136C-0.39,0.138 -0.397,0.14 -0.405,0.143C-0.386,0.137 -0.368,0.132 -0.352,0.127C-0.29,0.108 -0.249,0.095 -0.249,0.095C-0.249,0.095 -0.259,0.099 -0.277,0.105C-0.295,0.112 -0.32,0.121 -0.351,0.132C-0.412,0.154 -0.492,0.185 -0.573,0.218C-0.586,0.223 -0.6,0.228 -0.613,0.234L-0.613,0.156ZM0.119,-0.851C0.119,-0.851 0.119,-0.852 0.119,-0.852L0.16,-0.852C0.15,-0.801 0.136,-0.753 0.128,-0.714C0.116,-0.652 0.108,-0.611 0.108,-0.611C0.108,-0.611 0.114,-0.653 0.124,-0.715C0.124,-0.718 0.124,-0.721 0.125,-0.723C0.117,-0.685 0.111,-0.648 0.105,-0.617C0.091,-0.544 0.083,-0.495 0.083,-0.495C0.083,-0.495 0.09,-0.544 0.101,-0.618C0.102,-0.625 0.103,-0.633 0.104,-0.641C0.092,-0.571 0.081,-0.506 0.072,-0.452C0.056,-0.36 0.047,-0.299 0.047,-0.299C0.047,-0.299 0.056,-0.361 0.068,-0.453C0.071,-0.47 0.073,-0.488 0.076,-0.507C0.066,-0.442 0.059,-0.4 0.059,-0.4L0.076,-0.523C0.086,-0.595 0.116,-0.826 0.119,-0.851ZM0.119,-0.851C0.116,-0.828 0.077,-0.579 0.065,-0.493C0.052,-0.405 0.044,-0.346 0.044,-0.346C0.044,-0.346 0.046,-0.361 0.049,-0.386C0.052,-0.412 0.056,-0.449 0.061,-0.494C0.071,-0.582 0.094,-0.841 0.095,-0.852L0.119,-0.852C0.119,-0.852 0.119,-0.851 0.119,-0.851ZM-0.574,0.031C-0.555,0.03 -0.543,0.03 -0.543,0.03C-0.543,0.03 -0.571,0.032 -0.613,0.034L-0.613,0.016L-0.412,0.022C-0.412,0.022 -0.439,0.024 -0.481,0.026C-0.508,0.027 -0.54,0.029 -0.574,0.031ZM-0.613,-0.501C-0.6,-0.49 -0.592,-0.481 -0.592,-0.481C-0.592,-0.481 -0.6,-0.485 -0.613,-0.495L-0.613,-0.501ZM0.084,-0.847C0.075,-0.775 0.064,-0.704 0.058,-0.649C0.052,-0.588 0.048,-0.547 0.048,-0.547C0.048,-0.547 0.051,-0.588 0.056,-0.65C0.057,-0.676 0.059,-0.705 0.062,-0.736C0.058,-0.698 0.054,-0.662 0.051,-0.63C0.044,-0.556 0.039,-0.506 0.039,-0.506C0.039,-0.506 0.043,-0.556 0.047,-0.631C0.05,-0.692 0.055,-0.771 0.058,-0.852L0.084,-0.852C0.084,-0.85 0.084,-0.849 0.084,-0.847ZM0.084,-0.847C0.084,-0.849 0.084,-0.85 0.084,-0.852L0.095,-0.852C0.083,-0.751 0.07,-0.667 0.07,-0.667C0.07,-0.667 0.075,-0.748 0.084,-0.847ZM-0.196,-0.849C-0.197,-0.85 -0.197,-0.851 -0.197,-0.852L-0.141,-0.852C-0.128,-0.754 -0.115,-0.659 -0.104,-0.586C-0.092,-0.509 -0.084,-0.458 -0.084,-0.458C-0.084,-0.458 -0.094,-0.509 -0.109,-0.584C-0.121,-0.643 -0.136,-0.716 -0.152,-0.792C-0.148,-0.767 -0.145,-0.751 -0.145,-0.751C-0.145,-0.751 -0.152,-0.781 -0.161,-0.826C-0.159,-0.815 -0.157,-0.805 -0.156,-0.795C-0.136,-0.677 -0.115,-0.559 -0.099,-0.471C-0.082,-0.383 -0.071,-0.324 -0.071,-0.324C-0.071,-0.324 -0.082,-0.376 -0.1,-0.455C-0.087,-0.395 -0.08,-0.357 -0.08,-0.357C-0.08,-0.357 -0.091,-0.407 -0.107,-0.482C-0.118,-0.531 -0.131,-0.59 -0.146,-0.654C-0.156,-0.695 -0.189,-0.82 -0.196,-0.849ZM-0.196,-0.849C-0.19,-0.819 -0.15,-0.62 -0.136,-0.557L-0.111,-0.448C-0.111,-0.448 -0.122,-0.491 -0.138,-0.556C-0.149,-0.603 -0.164,-0.662 -0.18,-0.724C-0.167,-0.668 -0.159,-0.629 -0.159,-0.629C-0.159,-0.629 -0.179,-0.709 -0.205,-0.804L-0.202,-0.792C-0.177,-0.68 -0.15,-0.57 -0.13,-0.486C-0.11,-0.403 -0.096,-0.348 -0.096,-0.348C-0.096,-0.348 -0.111,-0.403 -0.133,-0.484C-0.135,-0.491 -0.137,-0.497 -0.139,-0.504C-0.129,-0.464 -0.123,-0.44 -0.123,-0.44C-0.123,-0.44 -0.137,-0.489 -0.158,-0.561C-0.166,-0.588 -0.176,-0.619 -0.185,-0.651C-0.181,-0.635 -0.179,-0.626 -0.179,-0.626C-0.179,-0.626 -0.191,-0.668 -0.209,-0.727C-0.205,-0.711 -0.201,-0.696 -0.197,-0.682C-0.182,-0.622 -0.172,-0.583 -0.172,-0.583C-0.172,-0.583 -0.182,-0.616 -0.198,-0.667C-0.176,-0.587 -0.156,-0.511 -0.139,-0.451C-0.115,-0.366 -0.099,-0.31 -0.099,-0.31C-0.099,-0.31 -0.116,-0.365 -0.143,-0.448C-0.169,-0.528 -0.204,-0.634 -0.241,-0.74C-0.214,-0.651 -0.187,-0.563 -0.166,-0.496L-0.131,-0.385C-0.131,-0.385 -0.146,-0.429 -0.168,-0.495C-0.185,-0.545 -0.206,-0.606 -0.228,-0.671C-0.215,-0.631 -0.208,-0.606 -0.208,-0.606C-0.208,-0.606 -0.22,-0.641 -0.239,-0.694C-0.254,-0.733 -0.271,-0.782 -0.29,-0.833C-0.272,-0.777 -0.26,-0.738 -0.26,-0.738C-0.26,-0.738 -0.282,-0.787 -0.306,-0.852L-0.197,-0.852C-0.197,-0.851 -0.197,-0.85 -0.196,-0.849ZM-0.613,0.035C-0.59,0.035 -0.48,0.039 -0.48,0.039C-0.48,0.039 -0.59,0.053 -0.613,0.056L-0.613,0.035ZM-0.613,-0.133L-0.476,-0.09C-0.476,-0.09 -0.539,-0.101 -0.613,-0.114L-0.613,-0.133ZM-0.613,0.37L-0.583,0.361L-0.613,0.385L-0.613,0.37ZM-0.444,0.251C-0.439,0.249 -0.435,0.247 -0.43,0.245C-0.381,0.22 -0.349,0.204 -0.349,0.204C-0.349,0.204 -0.381,0.222 -0.429,0.251C-0.454,0.266 -0.483,0.283 -0.515,0.303C-0.475,0.282 -0.448,0.267 -0.448,0.267C-0.448,0.267 -0.53,0.317 -0.613,0.369L-0.613,0.298C-0.613,0.298 -0.445,0.227 -0.399,0.205C-0.354,0.184 -0.323,0.17 -0.323,0.17C-0.323,0.17 -0.353,0.185 -0.399,0.208C-0.432,0.225 -0.473,0.246 -0.516,0.269C-0.477,0.251 -0.45,0.238 -0.45,0.238C-0.45,0.238 -0.456,0.241 -0.467,0.247C-0.42,0.225 -0.376,0.204 -0.339,0.186C-0.28,0.157 -0.241,0.137 -0.241,0.137L-0.267,0.152C-0.285,0.162 -0.309,0.175 -0.338,0.191C-0.369,0.208 -0.405,0.229 -0.444,0.251ZM0.01,-0.849C0.009,-0.814 0,-0.553 -0.001,-0.464C-0.002,-0.369 -0.002,-0.307 -0.002,-0.307C-0.002,-0.307 -0.002,-0.369 -0.004,-0.464C-0.005,-0.516 -0.006,-0.578 -0.008,-0.644C-0.008,-0.602 -0.008,-0.575 -0.008,-0.575C-0.008,-0.575 -0.009,-0.614 -0.01,-0.673C-0.01,-0.648 -0.011,-0.625 -0.011,-0.604C-0.011,-0.525 -0.011,-0.473 -0.011,-0.473C-0.011,-0.473 -0.012,-0.508 -0.014,-0.563C-0.014,-0.541 -0.014,-0.52 -0.014,-0.501C-0.012,-0.411 -0.011,-0.351 -0.011,-0.351C-0.011,-0.351 -0.012,-0.366 -0.013,-0.393L-0.017,-0.501C-0.021,-0.584 -0.026,-0.694 -0.033,-0.805C-0.031,-0.7 -0.028,-0.597 -0.025,-0.518C-0.022,-0.43 -0.02,-0.372 -0.02,-0.372C-0.02,-0.372 -0.022,-0.413 -0.027,-0.479L-0.022,-0.372C-0.022,-0.372 -0.025,-0.424 -0.03,-0.503C-0.035,-0.581 -0.055,-0.847 -0.056,-0.852L0.01,-0.852C0.01,-0.851 0.01,-0.85 0.01,-0.849ZM0.01,-0.849C0.01,-0.85 0.01,-0.851 0.01,-0.852L0.058,-0.852C0.057,-0.844 0.057,-0.835 0.056,-0.827C0.045,-0.708 0.036,-0.589 0.03,-0.499C0.023,-0.41 0.02,-0.35 0.02,-0.35C0.02,-0.35 0.02,-0.365 0.021,-0.392C0.023,-0.418 0.024,-0.455 0.026,-0.5C0.03,-0.583 0.033,-0.693 0.036,-0.804C0.029,-0.7 0.024,-0.597 0.019,-0.519C0.015,-0.431 0.012,-0.372 0.012,-0.372C0.012,-0.372 0.014,-0.431 0.016,-0.519C0.016,-0.541 0.017,-0.564 0.017,-0.589C0.016,-0.576 0.016,-0.563 0.016,-0.551C0.013,-0.478 0.011,-0.429 0.011,-0.429C0.011,-0.429 0.012,-0.478 0.013,-0.551C0.014,-0.569 0.014,-0.588 0.014,-0.608C0.014,-0.605 0.014,-0.603 0.014,-0.603C0.014,-0.603 0.01,-0.793 0.01,-0.849ZM-0.357,-0.852L-0.357,-0.852L-0.306,-0.852C-0.292,-0.811 -0.209,-0.551 -0.185,-0.486C-0.162,-0.421 -0.146,-0.378 -0.146,-0.378L-0.187,-0.485C-0.212,-0.549 -0.245,-0.634 -0.279,-0.719C-0.285,-0.734 -0.291,-0.749 -0.297,-0.765C-0.282,-0.72 -0.267,-0.678 -0.255,-0.643C-0.234,-0.587 -0.22,-0.549 -0.22,-0.549C-0.22,-0.549 -0.235,-0.586 -0.258,-0.64C-0.267,-0.66 -0.276,-0.682 -0.286,-0.706C-0.26,-0.639 -0.242,-0.592 -0.242,-0.592C-0.242,-0.592 -0.264,-0.644 -0.294,-0.716C-0.265,-0.642 -0.244,-0.59 -0.244,-0.59C-0.244,-0.59 -0.3,-0.718 -0.357,-0.852ZM-0.357,-0.852C-0.314,-0.745 -0.28,-0.652 -0.28,-0.652C-0.28,-0.652 -0.301,-0.701 -0.331,-0.768C-0.303,-0.699 -0.282,-0.65 -0.282,-0.65C-0.282,-0.65 -0.308,-0.709 -0.342,-0.785C-0.297,-0.673 -0.252,-0.565 -0.252,-0.565C-0.252,-0.565 -0.281,-0.628 -0.317,-0.707C-0.309,-0.687 -0.301,-0.668 -0.294,-0.651C-0.272,-0.6 -0.258,-0.566 -0.258,-0.566C-0.258,-0.566 -0.259,-0.568 -0.261,-0.572C-0.24,-0.521 -0.22,-0.474 -0.203,-0.435C-0.17,-0.36 -0.148,-0.31 -0.148,-0.31C-0.148,-0.31 -0.171,-0.359 -0.206,-0.432C-0.234,-0.49 -0.269,-0.564 -0.307,-0.64C-0.299,-0.622 -0.292,-0.605 -0.285,-0.59C-0.26,-0.534 -0.244,-0.497 -0.244,-0.497C-0.244,-0.497 -0.249,-0.507 -0.258,-0.525C-0.239,-0.484 -0.221,-0.446 -0.206,-0.413C-0.175,-0.348 -0.155,-0.305 -0.155,-0.305C-0.155,-0.305 -0.176,-0.348 -0.207,-0.412C-0.234,-0.465 -0.268,-0.533 -0.304,-0.604C-0.3,-0.595 -0.297,-0.59 -0.297,-0.59C-0.297,-0.59 -0.322,-0.638 -0.355,-0.704C-0.323,-0.636 -0.3,-0.588 -0.3,-0.588C-0.3,-0.588 -0.339,-0.665 -0.387,-0.758C-0.381,-0.744 -0.374,-0.73 -0.367,-0.717C-0.335,-0.65 -0.303,-0.583 -0.278,-0.533C-0.254,-0.483 -0.238,-0.45 -0.238,-0.45C-0.238,-0.45 -0.281,-0.533 -0.282,-0.534C-0.271,-0.511 -0.26,-0.49 -0.251,-0.471C-0.223,-0.415 -0.204,-0.378 -0.204,-0.378C-0.204,-0.378 -0.223,-0.415 -0.252,-0.47C-0.279,-0.519 -0.313,-0.582 -0.348,-0.647C-0.333,-0.616 -0.322,-0.595 -0.322,-0.595C-0.322,-0.595 -0.372,-0.686 -0.423,-0.775C-0.429,-0.784 -0.434,-0.793 -0.439,-0.802C-0.378,-0.684 -0.318,-0.572 -0.318,-0.572C-0.318,-0.572 -0.339,-0.609 -0.369,-0.662C-0.339,-0.603 -0.31,-0.546 -0.286,-0.501C-0.255,-0.442 -0.234,-0.403 -0.234,-0.403C-0.234,-0.403 -0.256,-0.441 -0.29,-0.497C-0.296,-0.507 -0.302,-0.518 -0.309,-0.529C-0.278,-0.472 -0.249,-0.419 -0.225,-0.376C-0.186,-0.304 -0.159,-0.257 -0.159,-0.257C-0.159,-0.257 -0.186,-0.303 -0.228,-0.371C-0.261,-0.425 -0.303,-0.491 -0.347,-0.56C-0.343,-0.552 -0.338,-0.544 -0.334,-0.537C-0.305,-0.485 -0.285,-0.451 -0.285,-0.451C-0.285,-0.451 -0.306,-0.484 -0.337,-0.532C-0.369,-0.58 -0.411,-0.644 -0.454,-0.707C-0.388,-0.599 -0.328,-0.502 -0.328,-0.502C-0.328,-0.502 -0.341,-0.523 -0.362,-0.555C-0.327,-0.498 -0.293,-0.443 -0.267,-0.4C-0.232,-0.346 -0.209,-0.309 -0.209,-0.309C-0.209,-0.309 -0.233,-0.345 -0.268,-0.398C-0.304,-0.452 -0.351,-0.522 -0.399,-0.593C-0.417,-0.62 -0.436,-0.647 -0.453,-0.673C-0.409,-0.603 -0.374,-0.55 -0.374,-0.55C-0.374,-0.55 -0.406,-0.596 -0.448,-0.657C-0.441,-0.646 -0.434,-0.636 -0.428,-0.625C-0.387,-0.562 -0.347,-0.5 -0.316,-0.454C-0.286,-0.407 -0.265,-0.376 -0.265,-0.376C-0.265,-0.376 -0.287,-0.406 -0.318,-0.451C-0.35,-0.496 -0.392,-0.556 -0.435,-0.615C-0.442,-0.626 -0.45,-0.636 -0.457,-0.646C-0.411,-0.574 -0.363,-0.502 -0.328,-0.449C-0.292,-0.395 -0.267,-0.36 -0.267,-0.36C-0.267,-0.36 -0.293,-0.394 -0.331,-0.444C-0.356,-0.478 -0.387,-0.518 -0.421,-0.561C-0.402,-0.534 -0.385,-0.509 -0.37,-0.487C-0.337,-0.44 -0.315,-0.409 -0.315,-0.409C-0.315,-0.409 -0.338,-0.439 -0.373,-0.483C-0.399,-0.516 -0.433,-0.557 -0.468,-0.601C-0.419,-0.534 -0.382,-0.484 -0.382,-0.484C-0.382,-0.484 -0.463,-0.587 -0.545,-0.689C-0.558,-0.705 -0.572,-0.721 -0.584,-0.737C-0.565,-0.711 -0.545,-0.683 -0.525,-0.655C-0.485,-0.6 -0.444,-0.545 -0.414,-0.505C-0.383,-0.464 -0.363,-0.437 -0.363,-0.437C-0.363,-0.437 -0.384,-0.462 -0.416,-0.5C-0.42,-0.505 -0.424,-0.51 -0.429,-0.515C-0.409,-0.489 -0.396,-0.472 -0.396,-0.472C-0.396,-0.472 -0.405,-0.484 -0.421,-0.502C-0.387,-0.459 -0.363,-0.428 -0.363,-0.428C-0.363,-0.428 -0.585,-0.678 -0.613,-0.71L-0.613,-0.852L-0.357,-0.852L-0.357,-0.852ZM-0.611,0.513C-0.575,0.487 -0.54,0.46 -0.513,0.44C-0.481,0.415 -0.459,0.398 -0.459,0.398C-0.459,0.398 -0.48,0.417 -0.511,0.445C-0.518,0.452 -0.527,0.46 -0.535,0.468C-0.474,0.421 -0.414,0.372 -0.368,0.335C-0.321,0.296 -0.289,0.269 -0.289,0.269C-0.289,0.269 -0.32,0.298 -0.366,0.342C-0.396,0.371 -0.433,0.407 -0.472,0.446C-0.46,0.435 -0.449,0.425 -0.438,0.416C-0.406,0.388 -0.385,0.37 -0.385,0.37C-0.385,0.37 -0.406,0.39 -0.436,0.42C-0.467,0.451 -0.508,0.491 -0.548,0.533C-0.57,0.555 -0.592,0.578 -0.613,0.599L-0.613,0.515L-0.611,0.513ZM-0.611,0.513L-0.613,0.514L-0.613,0.507L-0.596,0.498L-0.611,0.513ZM-0.609,-0.074C-0.539,-0.06 -0.34,-0.024 -0.34,-0.024C-0.34,-0.024 -0.546,-0.033 -0.613,-0.035L-0.613,-0.074L-0.609,-0.074ZM-0.609,-0.074C-0.611,-0.074 -0.612,-0.074 -0.613,-0.074L-0.613,-0.113C-0.602,-0.11 -0.591,-0.107 -0.58,-0.104C-0.497,-0.083 -0.413,-0.064 -0.35,-0.051C-0.287,-0.038 -0.245,-0.03 -0.245,-0.03C-0.245,-0.03 -0.287,-0.036 -0.351,-0.045C-0.414,-0.053 -0.499,-0.063 -0.583,-0.071C-0.592,-0.072 -0.601,-0.073 -0.609,-0.074ZM-0.326,0.061C-0.306,0.058 -0.295,0.057 -0.295,0.057L-0.382,0.071C-0.39,0.072 -0.398,0.074 -0.407,0.075C-0.366,0.07 -0.339,0.066 -0.339,0.066C-0.339,0.066 -0.371,0.072 -0.419,0.08C-0.457,0.087 -0.603,0.116 -0.613,0.118L-0.613,0.056C-0.58,0.055 -0.45,0.055 -0.45,0.055C-0.45,0.055 -0.47,0.057 -0.502,0.062C-0.488,0.061 -0.481,0.06 -0.481,0.06C-0.481,0.06 -0.486,0.061 -0.495,0.062C-0.446,0.058 -0.399,0.054 -0.362,0.051C-0.307,0.046 -0.27,0.042 -0.27,0.042C-0.27,0.042 -0.307,0.047 -0.361,0.054C-0.377,0.056 -0.394,0.058 -0.413,0.06C-0.424,0.062 -0.437,0.064 -0.452,0.066C-0.461,0.068 -0.471,0.069 -0.482,0.071C-0.434,0.067 -0.389,0.063 -0.352,0.059C-0.288,0.052 -0.246,0.047 -0.246,0.047C-0.246,0.047 -0.277,0.052 -0.326,0.061ZM-0.613,0.235C-0.583,0.226 -0.556,0.217 -0.532,0.209C-0.492,0.196 -0.464,0.187 -0.464,0.187C-0.464,0.187 -0.482,0.194 -0.509,0.205C-0.486,0.198 -0.464,0.19 -0.444,0.183C-0.394,0.166 -0.36,0.154 -0.36,0.154C-0.36,0.154 -0.393,0.168 -0.443,0.19C-0.49,0.21 -0.613,0.268 -0.613,0.268L-0.613,0.235ZM-0.534,0.008C-0.505,0.009 -0.487,0.01 -0.487,0.01C-0.487,0.01 -0.53,0.01 -0.59,0.011C-0.53,0.013 -0.487,0.013 -0.487,0.013C-0.487,0.013 -0.542,0.014 -0.613,0.016L-0.613,-0.035C-0.613,-0.035 -0.446,-0.015 -0.395,-0.011C-0.344,-0.007 -0.31,-0.005 -0.31,-0.005L-0.395,-0.008C-0.413,-0.009 -0.433,-0.009 -0.454,-0.01C-0.417,-0.007 -0.383,-0.004 -0.353,-0.002C-0.289,0.003 -0.247,0.005 -0.247,0.005C-0.247,0.005 -0.289,0.004 -0.353,0.004C-0.403,0.005 -0.467,0.006 -0.534,0.008ZM-0.471,-0.413C-0.439,-0.383 -0.41,-0.354 -0.385,-0.331C-0.341,-0.29 -0.311,-0.263 -0.311,-0.263C-0.311,-0.263 -0.341,-0.288 -0.387,-0.326C-0.43,-0.362 -0.487,-0.408 -0.545,-0.455C-0.522,-0.433 -0.506,-0.419 -0.506,-0.419C-0.506,-0.419 -0.558,-0.459 -0.613,-0.502L-0.613,-0.592C-0.576,-0.553 -0.362,-0.331 -0.311,-0.281C-0.261,-0.231 -0.227,-0.198 -0.227,-0.198C-0.227,-0.198 -0.261,-0.23 -0.313,-0.276C-0.357,-0.315 -0.413,-0.364 -0.471,-0.413ZM-0.601,-0.24C-0.578,-0.229 -0.563,-0.222 -0.563,-0.222C-0.563,-0.222 -0.583,-0.23 -0.613,-0.242L-0.613,-0.274C-0.613,-0.274 -0.5,-0.206 -0.46,-0.188C-0.421,-0.169 -0.394,-0.157 -0.394,-0.157C-0.394,-0.157 -0.421,-0.168 -0.461,-0.184C-0.499,-0.2 -0.55,-0.22 -0.601,-0.24ZM0.146,-0.764C0.144,-0.756 0.143,-0.751 0.143,-0.751L0.16,-0.852L0.172,-0.852C0.171,-0.847 0.17,-0.841 0.169,-0.836C0.151,-0.755 0.134,-0.673 0.121,-0.612C0.109,-0.551 0.1,-0.51 0.1,-0.51C0.1,-0.51 0.108,-0.551 0.119,-0.613C0.127,-0.656 0.136,-0.708 0.146,-0.764ZM-0.613,0.385C-0.605,0.381 -0.597,0.377 -0.589,0.372C-0.586,0.37 -0.582,0.368 -0.578,0.366C-0.526,0.336 -0.473,0.305 -0.434,0.282L-0.368,0.243C-0.368,0.243 -0.394,0.26 -0.433,0.285C-0.471,0.31 -0.523,0.345 -0.574,0.38C-0.587,0.388 -0.6,0.397 -0.613,0.406L-0.613,0.385ZM-0.613,0.118C-0.588,0.115 -0.476,0.106 -0.476,0.106C-0.476,0.106 -0.493,0.11 -0.522,0.117C-0.498,0.113 -0.475,0.109 -0.455,0.106C-0.404,0.097 -0.37,0.091 -0.37,0.091C-0.37,0.091 -0.404,0.099 -0.455,0.112C-0.498,0.123 -0.613,0.155 -0.613,0.155L-0.613,0.118ZM-0.613,-0.179L-0.613,-0.241C-0.601,-0.236 -0.588,-0.23 -0.576,-0.224C-0.568,-0.22 -0.563,-0.218 -0.563,-0.218C-0.563,-0.218 -0.564,-0.219 -0.566,-0.22C-0.544,-0.209 -0.523,-0.199 -0.503,-0.19C-0.479,-0.18 -0.457,-0.171 -0.438,-0.163C-0.395,-0.145 -0.367,-0.133 -0.367,-0.133C-0.367,-0.133 -0.381,-0.138 -0.404,-0.147C-0.377,-0.135 -0.36,-0.128 -0.36,-0.128C-0.36,-0.128 -0.394,-0.14 -0.444,-0.158C-0.466,-0.165 -0.492,-0.174 -0.519,-0.183C-0.454,-0.155 -0.392,-0.13 -0.342,-0.111C-0.281,-0.087 -0.24,-0.071 -0.24,-0.071C-0.24,-0.071 -0.25,-0.075 -0.269,-0.081C-0.265,-0.079 -0.263,-0.079 -0.263,-0.079C-0.263,-0.079 -0.28,-0.084 -0.309,-0.094C-0.319,-0.097 -0.331,-0.101 -0.343,-0.105C-0.396,-0.121 -0.465,-0.142 -0.536,-0.161C-0.525,-0.157 -0.519,-0.155 -0.519,-0.155C-0.519,-0.155 -0.543,-0.161 -0.58,-0.171C-0.589,-0.174 -0.602,-0.176 -0.613,-0.179ZM-0.613,-0.179C-0.597,-0.174 -0.579,-0.168 -0.563,-0.163C-0.495,-0.14 -0.427,-0.117 -0.375,-0.101C-0.324,-0.084 -0.29,-0.074 -0.29,-0.074C-0.29,-0.074 -0.324,-0.083 -0.376,-0.098C-0.427,-0.113 -0.597,-0.151 -0.613,-0.155L-0.613,-0.179ZM-0.612,0.455C-0.601,0.448 -0.59,0.441 -0.579,0.434C-0.517,0.392 -0.454,0.35 -0.408,0.317C-0.375,0.294 -0.35,0.276 -0.338,0.268C-0.337,0.267 -0.335,0.265 -0.334,0.264C-0.297,0.238 -0.274,0.22 -0.274,0.22C-0.274,0.22 -0.304,0.244 -0.349,0.279C-0.36,0.288 -0.371,0.297 -0.383,0.307L-0.381,0.305C-0.381,0.305 -0.408,0.326 -0.448,0.36C-0.47,0.379 -0.498,0.402 -0.527,0.427C-0.52,0.422 -0.516,0.419 -0.516,0.419L-0.613,0.506L-0.613,0.456L-0.612,0.455ZM-0.612,0.455L-0.613,0.456L-0.613,0.437C-0.597,0.426 -0.515,0.376 -0.515,0.376C-0.515,0.376 -0.547,0.399 -0.591,0.432C-0.546,0.401 -0.514,0.379 -0.514,0.379C-0.514,0.379 -0.557,0.413 -0.612,0.455Z" style="fill:white;fill-opacity:0.1;"/>
    </g>
</svg>
