<?xml version="1.0" encoding="UTF-8" standalone="no"?>
<!DOCTYPE svg PUBLIC "-//W3C//DTD SVG 1.1//EN" "http://www.w3.org/Graphics/SVG/1.1/DTD/svg11.dtd">
<svg width="100%" height="100%" viewBox="0 0 2176 2224" version="1.1" xmlns="http://www.w3.org/2000/svg" xmlns:xlink="http://www.w3.org/1999/xlink" xml:space="preserve" xmlns:serif="http://www.serif.com/" style="fill-rule:evenodd;clip-rule:evenodd;stroke-linejoin:round;stroke-miterlimit:2;">
    <g transform="matrix(4.25948e-14,1814.6,1255.12,-1.45371e-13,1069.27,1111.86)">
        <path d="M-0.602,-0.852C-0.605,-0.846 -0.609,-0.841 -0.613,-0.835L-0.613,-0.825C-0.607,-0.834 -0.601,-0.843 -0.595,-0.852L-0.602,-0.852ZM0.585,-0.852C0.594,-0.839 0.602,-0.827 0.607,-0.818C0.609,-0.815 0.61,-0.812 0.612,-0.809L0.612,-0.833C0.608,-0.839 0.604,-0.846 0.6,-0.852L0.585,-0.852ZM-0.613,-0.847C-0.612,-0.848 -0.611,-0.85 -0.609,-0.852L-0.613,-0.852L-0.613,-0.847ZM0.612,0.881C0.612,0.881 0.612,0.881 0.612,0.881L0.612,0.817C0.61,0.82 0.608,0.823 0.605,0.826C0.592,0.845 0.579,0.864 0.565,0.881L0.612,0.881ZM-0.588,0.881C-0.597,0.87 -0.605,0.858 -0.613,0.847L-0.613,0.881L-0.588,0.881ZM0.516,0.881C0.55,0.842 0.582,0.798 0.612,0.751L0.612,0.684C0.593,0.715 0.57,0.753 0.558,0.768C0.525,0.813 0.494,0.849 0.464,0.881L0.516,0.881ZM-0.587,-0.852C-0.596,-0.839 -0.605,-0.826 -0.613,-0.812L-0.613,-0.799C-0.605,-0.813 -0.592,-0.833 -0.578,-0.852L-0.587,-0.852ZM-0.613,0.792C-0.592,0.824 -0.57,0.853 -0.546,0.881L-0.501,0.881C-0.543,0.837 -0.58,0.79 -0.613,0.739L-0.613,0.792ZM0.612,-0.785C0.6,-0.807 0.587,-0.83 0.572,-0.852L0.556,-0.852C0.559,-0.846 0.563,-0.842 0.565,-0.838C0.582,-0.811 0.597,-0.784 0.612,-0.755L0.612,-0.785ZM0.406,0.881C0.407,0.88 0.422,0.866 0.432,0.856C0.499,0.792 0.56,0.709 0.612,0.616L0.612,0.549C0.542,0.688 0.449,0.801 0.343,0.881L0.406,0.881ZM-0.613,0.684C-0.604,0.699 -0.596,0.711 -0.589,0.719C-0.586,0.724 -0.576,0.738 -0.567,0.75C-0.534,0.796 -0.493,0.841 -0.45,0.881L-0.396,0.881C-0.432,0.854 -0.464,0.823 -0.5,0.785C-0.541,0.74 -0.579,0.688 -0.613,0.632L-0.613,0.684ZM-0.57,-0.852C-0.583,-0.832 -0.596,-0.812 -0.605,-0.797C-0.608,-0.792 -0.61,-0.788 -0.613,-0.783L-0.613,-0.766C-0.6,-0.789 -0.587,-0.811 -0.574,-0.831C-0.569,-0.838 -0.564,-0.845 -0.56,-0.852L-0.57,-0.852ZM0.612,-0.725C0.601,-0.747 0.59,-0.77 0.578,-0.792C0.567,-0.812 0.555,-0.832 0.542,-0.852L0.525,-0.852C0.55,-0.812 0.574,-0.769 0.596,-0.723C0.603,-0.707 0.61,-0.693 0.611,-0.69C0.611,-0.689 0.612,-0.688 0.612,-0.687L0.612,-0.725ZM0.27,0.881C0.366,0.824 0.451,0.741 0.523,0.635C0.558,0.584 0.586,0.534 0.612,0.479L0.612,0.408C0.563,0.525 0.492,0.634 0.416,0.715C0.407,0.723 0.4,0.732 0.398,0.733C0.397,0.735 0.384,0.747 0.368,0.76C0.353,0.773 0.339,0.785 0.338,0.787C0.336,0.788 0.322,0.799 0.305,0.811C0.274,0.833 0.237,0.855 0.208,0.869C0.199,0.873 0.183,0.881 0.182,0.881L0.27,0.881ZM-0.613,0.577C-0.592,0.612 -0.566,0.652 -0.547,0.678C-0.483,0.763 -0.409,0.832 -0.329,0.881L-0.247,0.881C-0.274,0.87 -0.3,0.856 -0.326,0.84C-0.361,0.819 -0.407,0.784 -0.425,0.766C-0.428,0.763 -0.43,0.761 -0.431,0.761C-0.434,0.761 -0.486,0.706 -0.509,0.678C-0.548,0.631 -0.583,0.58 -0.613,0.524L-0.613,0.577ZM-0.548,-0.852C-0.553,-0.845 -0.558,-0.837 -0.564,-0.828C-0.574,-0.812 -0.601,-0.765 -0.613,-0.743L-0.613,-0.718C-0.59,-0.766 -0.565,-0.81 -0.536,-0.852L-0.548,-0.852ZM0.612,-0.644C0.583,-0.719 0.548,-0.791 0.508,-0.852L0.49,-0.852C0.523,-0.8 0.556,-0.739 0.58,-0.68C0.587,-0.664 0.602,-0.623 0.612,-0.594L0.612,-0.644ZM-0.003,0.881C0.01,0.881 0.019,0.881 0.02,0.88C0.021,0.879 0.03,0.878 0.041,0.876C0.093,0.869 0.149,0.851 0.2,0.827C0.252,0.802 0.294,0.773 0.351,0.726C0.371,0.709 0.418,0.66 0.437,0.637C0.508,0.549 0.555,0.469 0.602,0.355C0.604,0.35 0.608,0.341 0.612,0.329L0.612,0.252C0.602,0.281 0.582,0.332 0.573,0.355C0.531,0.452 0.477,0.538 0.409,0.617C0.391,0.638 0.347,0.682 0.33,0.696C0.328,0.698 0.321,0.704 0.314,0.71C0.277,0.74 0.218,0.776 0.171,0.797C0.122,0.818 0.072,0.831 0.019,0.838C-0.004,0.841 -0.069,0.841 -0.089,0.839C-0.108,0.837 -0.148,0.83 -0.156,0.828C-0.161,0.826 -0.171,0.823 -0.18,0.821C-0.207,0.814 -0.242,0.8 -0.277,0.782C-0.354,0.743 -0.433,0.678 -0.49,0.606C-0.539,0.546 -0.578,0.484 -0.613,0.414L-0.613,0.468C-0.566,0.56 -0.507,0.639 -0.436,0.709C-0.338,0.805 -0.21,0.868 -0.087,0.88C-0.08,0.88 -0.063,0.881 -0.044,0.881L-0.003,0.881ZM-0.522,-0.852C-0.524,-0.85 -0.525,-0.848 -0.526,-0.846C-0.56,-0.796 -0.589,-0.745 -0.613,-0.69L-0.613,-0.662C-0.585,-0.73 -0.55,-0.795 -0.51,-0.852L-0.522,-0.852ZM0.612,-0.537C0.609,-0.548 0.606,-0.559 0.603,-0.57C0.579,-0.648 0.554,-0.709 0.508,-0.794C0.5,-0.81 0.487,-0.831 0.473,-0.852L0.454,-0.852C0.486,-0.804 0.515,-0.751 0.539,-0.695C0.566,-0.631 0.587,-0.569 0.603,-0.498C0.607,-0.484 0.609,-0.472 0.612,-0.459L0.612,-0.537ZM-0.613,0.357C-0.556,0.484 -0.472,0.598 -0.385,0.668C-0.342,0.703 -0.33,0.712 -0.295,0.731C-0.245,0.759 -0.212,0.773 -0.156,0.786C0.007,0.827 0.179,0.78 0.323,0.655C0.392,0.594 0.455,0.517 0.502,0.432C0.506,0.424 0.51,0.417 0.511,0.417C0.513,0.414 0.537,0.366 0.545,0.348C0.55,0.337 0.556,0.324 0.559,0.318C0.564,0.307 0.584,0.254 0.59,0.235C0.598,0.209 0.606,0.185 0.612,0.162L0.612,0.057C0.586,0.188 0.541,0.31 0.477,0.418C0.448,0.469 0.385,0.549 0.349,0.584C0.344,0.589 0.337,0.596 0.335,0.598C0.333,0.601 0.329,0.605 0.326,0.607C0.322,0.61 0.312,0.619 0.303,0.627C0.284,0.643 0.246,0.67 0.228,0.681C0.222,0.684 0.215,0.688 0.213,0.69C0.174,0.716 0.092,0.746 0.03,0.757C-0,0.762 -0.09,0.761 -0.12,0.755C-0.134,0.753 -0.147,0.75 -0.149,0.75C-0.152,0.749 -0.164,0.745 -0.177,0.742C-0.207,0.734 -0.248,0.718 -0.27,0.705C-0.272,0.704 -0.279,0.7 -0.284,0.697C-0.29,0.694 -0.301,0.688 -0.308,0.683C-0.315,0.678 -0.325,0.672 -0.33,0.669C-0.34,0.663 -0.365,0.644 -0.375,0.636C-0.395,0.619 -0.438,0.577 -0.445,0.569C-0.447,0.565 -0.45,0.562 -0.451,0.562C-0.452,0.562 -0.454,0.56 -0.456,0.558C-0.458,0.555 -0.464,0.547 -0.471,0.539C-0.509,0.493 -0.547,0.433 -0.576,0.378C-0.589,0.353 -0.601,0.326 -0.613,0.297L-0.613,0.357ZM-0.495,-0.852C-0.528,-0.805 -0.558,-0.754 -0.583,-0.699C-0.594,-0.675 -0.604,-0.651 -0.613,-0.626L-0.613,-0.587C-0.606,-0.609 -0.598,-0.631 -0.59,-0.651C-0.572,-0.695 -0.563,-0.714 -0.546,-0.747C-0.526,-0.784 -0.508,-0.813 -0.48,-0.852L-0.495,-0.852ZM0.612,-0.336C0.595,-0.51 0.546,-0.667 0.469,-0.801C0.461,-0.814 0.449,-0.833 0.436,-0.852L0.416,-0.852C0.435,-0.825 0.452,-0.797 0.468,-0.768C0.482,-0.742 0.485,-0.735 0.499,-0.704C0.537,-0.62 0.564,-0.527 0.582,-0.422C0.588,-0.39 0.594,-0.335 0.595,-0.306C0.596,-0.294 0.596,-0.283 0.597,-0.283C0.599,-0.28 0.596,-0.144 0.593,-0.119L0.589,-0.082C0.582,-0.014 0.565,0.067 0.543,0.139C0.501,0.272 0.431,0.4 0.354,0.486L0.339,0.503C0.325,0.518 0.306,0.536 0.284,0.555C0.2,0.627 0.105,0.671 0.006,0.682C-0.08,0.692 -0.168,0.677 -0.25,0.637C-0.286,0.62 -0.295,0.614 -0.329,0.589C-0.367,0.561 -0.372,0.557 -0.393,0.537C-0.441,0.49 -0.494,0.423 -0.525,0.369C-0.529,0.361 -0.534,0.354 -0.534,0.353C-0.535,0.352 -0.538,0.347 -0.54,0.341C-0.543,0.336 -0.547,0.33 -0.548,0.328C-0.549,0.326 -0.558,0.307 -0.568,0.285C-0.586,0.245 -0.601,0.208 -0.612,0.174L-0.613,0.171L-0.613,0.238C-0.595,0.286 -0.574,0.332 -0.549,0.377C-0.533,0.405 -0.488,0.472 -0.467,0.499C-0.414,0.564 -0.352,0.618 -0.29,0.654C-0.135,0.743 0.027,0.746 0.186,0.663C0.303,0.602 0.412,0.486 0.486,0.343C0.52,0.278 0.552,0.196 0.572,0.127C0.584,0.084 0.603,-0.009 0.607,-0.045C0.609,-0.062 0.611,-0.078 0.612,-0.093L0.612,-0.336ZM-0.463,-0.852C-0.48,-0.828 -0.499,-0.8 -0.513,-0.775C-0.517,-0.769 -0.521,-0.762 -0.522,-0.76C-0.524,-0.758 -0.535,-0.736 -0.536,-0.733C-0.541,-0.726 -0.568,-0.667 -0.577,-0.644C-0.584,-0.626 -0.598,-0.585 -0.605,-0.561C-0.607,-0.556 -0.613,-0.536 -0.613,-0.535L-0.613,-0.476C-0.598,-0.547 -0.576,-0.614 -0.548,-0.68C-0.521,-0.74 -0.486,-0.8 -0.447,-0.852L-0.463,-0.852ZM-0.613,0.102C-0.612,0.106 -0.611,0.109 -0.61,0.112C-0.609,0.114 -0.607,0.123 -0.605,0.13C-0.589,0.183 -0.563,0.245 -0.538,0.293C-0.533,0.304 -0.526,0.316 -0.524,0.32C-0.508,0.352 -0.463,0.418 -0.432,0.454C-0.407,0.483 -0.364,0.524 -0.339,0.543C-0.307,0.567 -0.254,0.599 -0.229,0.609L-0.207,0.618C-0.183,0.627 -0.15,0.636 -0.115,0.643C-0.084,0.649 -0.013,0.649 0.02,0.643C0.114,0.627 0.194,0.588 0.273,0.521C0.352,0.454 0.424,0.355 0.473,0.248C0.498,0.194 0.5,0.189 0.513,0.151C0.545,0.059 0.564,-0.03 0.573,-0.136C0.576,-0.166 0.579,-0.257 0.577,-0.26L0.577,-0.26C0.577,-0.261 0.576,-0.272 0.576,-0.286C0.575,-0.348 0.562,-0.446 0.543,-0.522C0.512,-0.646 0.46,-0.763 0.396,-0.852L0.375,-0.852C0.38,-0.845 0.385,-0.837 0.391,-0.829C0.424,-0.781 0.447,-0.739 0.474,-0.676C0.52,-0.569 0.551,-0.429 0.556,-0.309C0.557,-0.297 0.558,-0.286 0.558,-0.285C0.559,-0.283 0.557,-0.173 0.555,-0.155L0.555,-0.155C0.554,-0.146 0.553,-0.133 0.552,-0.126C0.551,-0.112 0.544,-0.062 0.539,-0.034C0.529,0.025 0.504,0.113 0.479,0.176C0.468,0.204 0.433,0.278 0.426,0.286C0.426,0.287 0.42,0.297 0.414,0.308C0.388,0.353 0.342,0.413 0.307,0.449C0.271,0.486 0.22,0.528 0.196,0.541C0.191,0.543 0.185,0.547 0.183,0.548C0.178,0.553 0.132,0.576 0.115,0.582C0.078,0.596 0.044,0.606 0.019,0.609C0.013,0.61 0.004,0.611 -0.002,0.612C-0.008,0.613 -0.025,0.614 -0.041,0.614C-0.11,0.616 -0.173,0.602 -0.24,0.57C-0.297,0.542 -0.345,0.506 -0.397,0.453C-0.434,0.415 -0.479,0.355 -0.503,0.31C-0.508,0.301 -0.513,0.292 -0.514,0.291C-0.518,0.284 -0.541,0.238 -0.547,0.225L-0.558,0.199C-0.576,0.159 -0.599,0.086 -0.613,0.023L-0.613,0.102ZM-0.428,-0.852C-0.452,-0.82 -0.477,-0.784 -0.497,-0.747C-0.523,-0.701 -0.555,-0.627 -0.569,-0.582C-0.571,-0.574 -0.575,-0.561 -0.577,-0.554C-0.591,-0.512 -0.605,-0.442 -0.613,-0.382L-0.613,-0.088C-0.613,-0.085 -0.608,-0.051 -0.607,-0.048C-0.605,-0.028 -0.597,0.01 -0.59,0.038C-0.575,0.1 -0.536,0.203 -0.512,0.247C-0.447,0.364 -0.389,0.435 -0.307,0.493C-0.248,0.535 -0.185,0.562 -0.119,0.574C-0.091,0.579 -0.033,0.581 -0.005,0.577C0.102,0.565 0.198,0.515 0.288,0.426C0.325,0.39 0.367,0.336 0.396,0.286C0.418,0.251 0.457,0.171 0.461,0.157C0.462,0.154 0.464,0.149 0.465,0.146C0.47,0.136 0.492,0.071 0.498,0.051C0.504,0.026 0.521,-0.048 0.522,-0.06C0.523,-0.065 0.525,-0.078 0.527,-0.089C0.537,-0.151 0.542,-0.258 0.536,-0.33L0.536,-0.33C0.53,-0.41 0.519,-0.48 0.498,-0.554C0.49,-0.585 0.47,-0.642 0.46,-0.666C0.456,-0.675 0.452,-0.685 0.45,-0.689C0.448,-0.695 0.427,-0.737 0.422,-0.747C0.405,-0.777 0.389,-0.803 0.379,-0.819C0.371,-0.83 0.363,-0.841 0.355,-0.852L0.33,-0.852C0.385,-0.785 0.429,-0.702 0.463,-0.607C0.474,-0.574 0.487,-0.526 0.495,-0.489C0.498,-0.475 0.501,-0.46 0.502,-0.456C0.504,-0.45 0.511,-0.396 0.514,-0.366C0.515,-0.357 0.517,-0.339 0.517,-0.327C0.518,-0.314 0.519,-0.304 0.519,-0.303C0.519,-0.303 0.519,-0.278 0.519,-0.249C0.518,-0.206 0.517,-0.185 0.514,-0.151L0.514,-0.151C0.507,-0.088 0.495,-0.024 0.481,0.027C0.473,0.055 0.454,0.113 0.446,0.13C0.443,0.138 0.44,0.144 0.44,0.145C0.44,0.147 0.414,0.203 0.407,0.216C0.381,0.262 0.371,0.279 0.352,0.307C0.296,0.386 0.243,0.437 0.172,0.481C0.116,0.516 0.043,0.541 -0.013,0.545C-0.072,0.548 -0.118,0.544 -0.171,0.528C-0.194,0.521 -0.245,0.498 -0.261,0.487C-0.266,0.484 -0.272,0.48 -0.274,0.479C-0.281,0.476 -0.318,0.449 -0.336,0.435C-0.416,0.368 -0.488,0.261 -0.536,0.138C-0.542,0.125 -0.547,0.11 -0.549,0.104C-0.551,0.098 -0.555,0.084 -0.559,0.073C-0.567,0.05 -0.583,-0.019 -0.589,-0.053C-0.61,-0.176 -0.61,-0.317 -0.587,-0.443C-0.566,-0.563 -0.527,-0.67 -0.47,-0.763C-0.451,-0.794 -0.43,-0.824 -0.407,-0.852L-0.428,-0.852ZM-0.387,-0.852C-0.469,-0.757 -0.531,-0.628 -0.562,-0.485C-0.575,-0.427 -0.581,-0.383 -0.585,-0.323C-0.588,-0.281 -0.588,-0.2 -0.584,-0.167C-0.584,-0.162 -0.583,-0.153 -0.583,-0.145C-0.581,-0.12 -0.573,-0.069 -0.568,-0.041C-0.537,0.109 -0.475,0.242 -0.389,0.342C-0.355,0.382 -0.314,0.418 -0.28,0.44C-0.271,0.445 -0.261,0.452 -0.259,0.453C-0.256,0.455 -0.242,0.463 -0.228,0.47C-0.186,0.49 -0.146,0.502 -0.097,0.51C-0.082,0.512 -0.022,0.511 -0,0.509C0.037,0.504 0.091,0.488 0.117,0.474C0.122,0.472 0.131,0.467 0.138,0.464C0.173,0.447 0.225,0.409 0.261,0.373C0.318,0.317 0.38,0.225 0.415,0.144C0.451,0.062 0.472,-0.012 0.486,-0.096C0.493,-0.137 0.493,-0.144 0.496,-0.173C0.499,-0.203 0.502,-0.303 0.5,-0.306L0.5,-0.306C0.499,-0.307 0.499,-0.313 0.498,-0.321C0.498,-0.334 0.496,-0.369 0.494,-0.381C0.494,-0.384 0.493,-0.392 0.492,-0.399C0.492,-0.406 0.489,-0.422 0.487,-0.436C0.484,-0.449 0.482,-0.465 0.481,-0.47C0.474,-0.514 0.444,-0.614 0.424,-0.658C0.423,-0.66 0.421,-0.665 0.42,-0.669C0.405,-0.709 0.364,-0.78 0.33,-0.824C0.323,-0.834 0.316,-0.843 0.308,-0.852L0.282,-0.852C0.325,-0.805 0.361,-0.749 0.395,-0.68C0.411,-0.646 0.437,-0.575 0.447,-0.534C0.45,-0.526 0.453,-0.513 0.455,-0.506C0.456,-0.499 0.458,-0.493 0.457,-0.492C0.457,-0.492 0.457,-0.489 0.458,-0.487C0.461,-0.478 0.468,-0.44 0.472,-0.412C0.482,-0.333 0.484,-0.265 0.478,-0.191C0.477,-0.172 0.474,-0.146 0.472,-0.134C0.47,-0.121 0.468,-0.108 0.467,-0.104C0.465,-0.083 0.45,-0.018 0.441,0.012C0.433,0.04 0.412,0.098 0.401,0.123C0.374,0.183 0.339,0.241 0.3,0.29C0.271,0.327 0.254,0.345 0.224,0.371C0.094,0.484 -0.062,0.512 -0.207,0.449C-0.287,0.414 -0.354,0.356 -0.416,0.269C-0.493,0.163 -0.544,0.026 -0.562,-0.122C-0.564,-0.137 -0.566,-0.156 -0.567,-0.165C-0.568,-0.174 -0.568,-0.185 -0.569,-0.19C-0.572,-0.231 -0.571,-0.314 -0.565,-0.37C-0.55,-0.516 -0.505,-0.649 -0.433,-0.764C-0.413,-0.794 -0.39,-0.824 -0.364,-0.852L-0.387,-0.852ZM-0.338,-0.852C-0.42,-0.77 -0.483,-0.656 -0.519,-0.524C-0.552,-0.405 -0.561,-0.266 -0.546,-0.141C-0.543,-0.121 -0.54,-0.098 -0.538,-0.09C-0.537,-0.082 -0.535,-0.072 -0.535,-0.07C-0.533,-0.056 -0.519,-0.001 -0.511,0.026C-0.466,0.172 -0.383,0.298 -0.282,0.371C-0.243,0.4 -0.207,0.418 -0.166,0.432C-0.125,0.445 -0.104,0.448 -0.054,0.448C0.005,0.448 0.038,0.442 0.088,0.422C0.203,0.375 0.308,0.266 0.377,0.121C0.398,0.076 0.416,0.024 0.43,-0.03C0.456,-0.126 0.467,-0.231 0.461,-0.329C0.46,-0.359 0.455,-0.401 0.449,-0.44C0.446,-0.46 0.434,-0.516 0.43,-0.529C0.429,-0.532 0.427,-0.54 0.425,-0.547C0.396,-0.655 0.335,-0.768 0.266,-0.841C0.263,-0.845 0.259,-0.849 0.256,-0.852L0.226,-0.852C0.232,-0.846 0.238,-0.84 0.244,-0.834C0.25,-0.828 0.257,-0.821 0.259,-0.819C0.266,-0.812 0.306,-0.759 0.312,-0.749C0.356,-0.678 0.377,-0.634 0.397,-0.573C0.422,-0.496 0.439,-0.406 0.443,-0.329C0.444,-0.304 0.442,-0.221 0.44,-0.198L0.44,-0.198C0.429,-0.075 0.397,0.037 0.343,0.138C0.324,0.174 0.281,0.239 0.259,0.263C0.244,0.281 0.215,0.309 0.213,0.309C0.212,0.309 0.211,0.311 0.209,0.313C0.199,0.326 0.148,0.362 0.119,0.378C0.082,0.397 0.068,0.402 0.025,0.413C0.001,0.42 -0.004,0.42 -0.053,0.42C-0.103,0.42 -0.108,0.42 -0.133,0.413C-0.228,0.388 -0.302,0.338 -0.374,0.249C-0.432,0.177 -0.479,0.078 -0.506,-0.026C-0.519,-0.078 -0.526,-0.119 -0.533,-0.189C-0.535,-0.208 -0.536,-0.301 -0.534,-0.33C-0.527,-0.456 -0.491,-0.587 -0.435,-0.691C-0.418,-0.722 -0.383,-0.774 -0.361,-0.8C-0.345,-0.819 -0.329,-0.836 -0.312,-0.852L-0.338,-0.852ZM-0.279,-0.852C-0.351,-0.794 -0.412,-0.709 -0.454,-0.607C-0.464,-0.582 -0.467,-0.573 -0.479,-0.534C-0.495,-0.483 -0.509,-0.415 -0.515,-0.346C-0.519,-0.301 -0.518,-0.216 -0.512,-0.161C-0.503,-0.077 -0.476,0.022 -0.441,0.097C-0.407,0.171 -0.358,0.24 -0.304,0.288C-0.201,0.381 -0.088,0.412 0.034,0.381C0.093,0.366 0.165,0.323 0.216,0.273L0.233,0.256C0.243,0.246 0.264,0.22 0.28,0.197C0.343,0.11 0.392,-0.009 0.411,-0.125C0.42,-0.177 0.423,-0.209 0.424,-0.267C0.424,-0.298 0.423,-0.332 0.423,-0.343L0.423,-0.343C0.42,-0.373 0.414,-0.424 0.41,-0.446C0.408,-0.456 0.405,-0.47 0.404,-0.475C0.404,-0.481 0.402,-0.489 0.401,-0.493C0.399,-0.497 0.397,-0.508 0.395,-0.516C0.384,-0.559 0.355,-0.633 0.334,-0.674C0.301,-0.737 0.252,-0.801 0.208,-0.84C0.203,-0.844 0.198,-0.848 0.193,-0.852L0.157,-0.852C0.159,-0.851 0.16,-0.85 0.161,-0.849C0.236,-0.794 0.3,-0.71 0.342,-0.611C0.376,-0.531 0.396,-0.449 0.404,-0.354C0.407,-0.32 0.406,-0.233 0.402,-0.196L0.402,-0.196C0.374,0.067 0.238,0.28 0.056,0.346C0.019,0.36 -0.012,0.365 -0.055,0.365C-0.128,0.365 -0.192,0.343 -0.26,0.294C-0.28,0.279 -0.324,0.239 -0.329,0.23C-0.33,0.23 -0.335,0.224 -0.34,0.218C-0.387,0.162 -0.427,0.092 -0.453,0.016C-0.483,-0.072 -0.498,-0.159 -0.5,-0.261C-0.501,-0.342 -0.492,-0.416 -0.472,-0.493C-0.443,-0.605 -0.403,-0.686 -0.337,-0.767C-0.312,-0.798 -0.278,-0.828 -0.244,-0.852L-0.279,-0.852ZM-0.202,-0.852C-0.227,-0.838 -0.25,-0.822 -0.273,-0.802C-0.373,-0.714 -0.443,-0.579 -0.47,-0.419C-0.489,-0.304 -0.485,-0.189 -0.459,-0.074C-0.429,0.054 -0.367,0.167 -0.285,0.241C-0.201,0.317 -0.102,0.35 -0.004,0.334C0.037,0.327 0.085,0.309 0.116,0.289C0.142,0.272 0.162,0.259 0.168,0.253C0.172,0.249 0.176,0.246 0.176,0.246C0.178,0.246 0.208,0.216 0.211,0.212C0.212,0.209 0.214,0.207 0.215,0.207C0.217,0.207 0.245,0.173 0.259,0.152C0.3,0.093 0.323,0.046 0.349,-0.031C0.368,-0.091 0.381,-0.155 0.386,-0.223C0.388,-0.239 0.389,-0.303 0.388,-0.316L0.388,-0.316C0.386,-0.343 0.383,-0.379 0.382,-0.389C0.381,-0.394 0.38,-0.406 0.379,-0.414C0.37,-0.476 0.342,-0.569 0.314,-0.627C0.295,-0.667 0.264,-0.717 0.236,-0.75C0.214,-0.777 0.179,-0.809 0.152,-0.829C0.142,-0.835 0.128,-0.844 0.114,-0.852L0.05,-0.852C0.111,-0.832 0.165,-0.795 0.219,-0.734C0.233,-0.719 0.268,-0.669 0.281,-0.646C0.329,-0.559 0.36,-0.451 0.368,-0.345C0.37,-0.319 0.371,-0.281 0.37,-0.277C0.37,-0.277 0.37,-0.266 0.37,-0.254C0.368,-0.16 0.342,-0.047 0.301,0.042C0.255,0.141 0.186,0.222 0.109,0.267C0.096,0.275 0.086,0.282 0.087,0.283C0.088,0.284 0.087,0.284 0.086,0.283C0.085,0.282 0.076,0.285 0.066,0.289C0.027,0.305 -0.018,0.314 -0.053,0.313C-0.073,0.312 -0.107,0.31 -0.109,0.308C-0.109,0.308 -0.114,0.307 -0.12,0.306C-0.153,0.3 -0.214,0.271 -0.251,0.242C-0.259,0.235 -0.266,0.231 -0.266,0.232C-0.267,0.232 -0.267,0.232 -0.267,0.231C-0.266,0.23 -0.271,0.225 -0.277,0.219C-0.335,0.166 -0.38,0.096 -0.414,0.009C-0.428,-0.026 -0.432,-0.041 -0.443,-0.088C-0.458,-0.151 -0.464,-0.209 -0.463,-0.279C-0.462,-0.416 -0.432,-0.537 -0.372,-0.644C-0.33,-0.721 -0.267,-0.786 -0.202,-0.823C-0.181,-0.835 -0.159,-0.845 -0.137,-0.852L-0.202,-0.852ZM0.389,0.269C0.388,0.269 0.387,0.268 0.387,0.266C0.387,0.265 0.388,0.263 0.389,0.262C0.39,0.261 0.391,0.262 0.391,0.265C0.391,0.267 0.39,0.269 0.389,0.269ZM0.351,-0.329C0.347,-0.378 0.34,-0.424 0.332,-0.459C0.305,-0.571 0.258,-0.66 0.19,-0.733C0.138,-0.787 0.07,-0.825 0,-0.837C-0.023,-0.84 -0.083,-0.838 -0.106,-0.833C-0.152,-0.822 -0.192,-0.803 -0.231,-0.773L-0.246,-0.763C-0.293,-0.727 -0.359,-0.636 -0.386,-0.569C-0.417,-0.493 -0.43,-0.446 -0.439,-0.376C-0.452,-0.269 -0.446,-0.168 -0.419,-0.066C-0.41,-0.034 -0.403,-0.012 -0.386,0.026C-0.327,0.164 -0.223,0.26 -0.107,0.283C-0.071,0.29 -0.003,0.288 0.022,0.279C0.025,0.278 0.031,0.276 0.034,0.275C0.061,0.268 0.1,0.248 0.134,0.223C0.211,0.167 0.277,0.069 0.313,-0.041C0.332,-0.1 0.34,-0.133 0.347,-0.191C0.35,-0.217 0.353,-0.307 0.351,-0.329L0.351,-0.329ZM0.332,-0.213C0.326,-0.154 0.316,-0.105 0.299,-0.054C0.27,0.033 0.241,0.084 0.181,0.155C0.179,0.156 0.171,0.164 0.163,0.172C0.133,0.201 0.104,0.22 0.068,0.237C0.024,0.258 -0.004,0.264 -0.051,0.264C-0.116,0.265 -0.169,0.246 -0.227,0.203C-0.296,0.153 -0.353,0.07 -0.386,-0.026C-0.409,-0.091 -0.42,-0.144 -0.426,-0.22C-0.427,-0.238 -0.427,-0.302 -0.426,-0.317C-0.419,-0.397 -0.41,-0.441 -0.389,-0.504C-0.337,-0.661 -0.232,-0.774 -0.108,-0.805C-0.064,-0.815 -0.008,-0.814 0.035,-0.801C0.147,-0.766 0.24,-0.665 0.293,-0.521C0.306,-0.487 0.322,-0.423 0.327,-0.39C0.335,-0.327 0.337,-0.265 0.332,-0.213ZM0.316,-0.307C0.314,-0.375 0.299,-0.451 0.277,-0.51C0.269,-0.532 0.248,-0.579 0.24,-0.591C0.207,-0.648 0.173,-0.688 0.138,-0.715C0.135,-0.718 0.131,-0.722 0.13,-0.723C0.125,-0.728 0.081,-0.754 0.066,-0.761C0,-0.79 -0.078,-0.791 -0.141,-0.765C-0.155,-0.759 -0.178,-0.747 -0.189,-0.741C-0.212,-0.727 -0.251,-0.695 -0.265,-0.677C-0.267,-0.675 -0.274,-0.667 -0.281,-0.659C-0.303,-0.633 -0.325,-0.599 -0.346,-0.556C-0.367,-0.514 -0.388,-0.447 -0.396,-0.398C-0.414,-0.289 -0.412,-0.202 -0.389,-0.103C-0.37,-0.021 -0.335,0.056 -0.292,0.109C-0.225,0.193 -0.147,0.238 -0.062,0.242C-0.002,0.244 0.059,0.225 0.114,0.187C0.146,0.163 0.191,0.119 0.188,0.112C0.188,0.111 0.188,0.11 0.189,0.111C0.194,0.115 0.234,0.054 0.253,0.015C0.299,-0.083 0.321,-0.191 0.316,-0.307L0.316,-0.307ZM0.298,-0.219C0.293,-0.156 0.282,-0.105 0.259,-0.044C0.233,0.029 0.195,0.089 0.143,0.139C0.128,0.153 0.099,0.176 0.085,0.183C0.034,0.211 -0,0.22 -0.047,0.221C-0.131,0.221 -0.208,0.182 -0.272,0.105C-0.281,0.095 -0.304,0.061 -0.313,0.045C-0.37,-0.051 -0.397,-0.181 -0.388,-0.314C-0.381,-0.404 -0.356,-0.495 -0.317,-0.564C-0.312,-0.573 -0.306,-0.584 -0.304,-0.587C-0.302,-0.591 -0.292,-0.605 -0.281,-0.62C-0.246,-0.667 -0.198,-0.707 -0.153,-0.728C-0.114,-0.746 -0.086,-0.753 -0.042,-0.753C0.064,-0.753 0.162,-0.685 0.229,-0.566C0.243,-0.54 0.254,-0.514 0.267,-0.478C0.295,-0.395 0.305,-0.307 0.298,-0.219L0.298,-0.219ZM0.281,-0.321C0.275,-0.384 0.259,-0.449 0.238,-0.5C0.228,-0.523 0.208,-0.561 0.204,-0.563C0.203,-0.563 0.202,-0.565 0.203,-0.566C0.204,-0.569 0.173,-0.61 0.153,-0.632C0.126,-0.661 0.064,-0.705 0.056,-0.7C0.055,-0.699 0.054,-0.7 0.054,-0.701C0.054,-0.704 0.028,-0.714 0.01,-0.718C0.006,-0.719 -0.001,-0.72 -0.005,-0.721C-0.017,-0.724 -0.071,-0.722 -0.09,-0.718C-0.128,-0.71 -0.173,-0.689 -0.203,-0.664C-0.236,-0.636 -0.255,-0.615 -0.282,-0.575C-0.367,-0.451 -0.394,-0.257 -0.35,-0.093C-0.333,-0.032 -0.313,0.013 -0.281,0.06C-0.222,0.149 -0.138,0.2 -0.05,0.2C0.05,0.2 0.137,0.143 0.203,0.035C0.242,-0.028 0.268,-0.107 0.279,-0.193C0.283,-0.224 0.284,-0.288 0.281,-0.321ZM0.26,-0.175C0.248,-0.09 0.219,-0.013 0.176,0.049C0.126,0.122 0.059,0.168 -0.011,0.179C-0.029,0.182 -0.081,0.182 -0.092,0.178C-0.095,0.177 -0.105,0.174 -0.115,0.171C-0.149,0.161 -0.187,0.137 -0.221,0.105C-0.248,0.079 -0.283,0.028 -0.301,-0.012C-0.328,-0.07 -0.343,-0.131 -0.35,-0.199C-0.351,-0.219 -0.351,-0.282 -0.349,-0.308C-0.342,-0.384 -0.318,-0.466 -0.284,-0.526C-0.264,-0.56 -0.231,-0.601 -0.206,-0.624C-0.185,-0.642 -0.152,-0.663 -0.122,-0.675C-0.087,-0.69 -0.033,-0.694 0.01,-0.685C0.057,-0.674 0.115,-0.637 0.154,-0.592C0.168,-0.576 0.196,-0.535 0.206,-0.515C0.234,-0.46 0.251,-0.404 0.26,-0.341C0.265,-0.304 0.265,-0.3 0.265,-0.247C0.264,-0.211 0.263,-0.194 0.26,-0.175L0.26,-0.175ZM0.248,-0.286C0.247,-0.309 0.24,-0.354 0.234,-0.381C0.2,-0.527 0.11,-0.632 -0,-0.654C-0.086,-0.671 -0.176,-0.631 -0.239,-0.546C-0.305,-0.459 -0.338,-0.339 -0.331,-0.213C-0.324,-0.073 -0.269,0.048 -0.182,0.115C-0.156,0.136 -0.111,0.156 -0.079,0.161C-0.018,0.172 0.054,0.149 0.108,0.103C0.13,0.083 0.141,0.071 0.162,0.041C0.202,-0.014 0.231,-0.091 0.244,-0.174C0.249,-0.204 0.251,-0.252 0.248,-0.286L0.248,-0.286ZM-0.221,-0.56C-0.222,-0.559 -0.223,-0.56 -0.223,-0.561C-0.223,-0.562 -0.222,-0.563 -0.221,-0.563C-0.219,-0.563 -0.218,-0.563 -0.218,-0.562C-0.218,-0.562 -0.219,-0.561 -0.221,-0.56ZM0.23,-0.193C0.222,-0.126 0.208,-0.075 0.182,-0.022C0.142,0.061 0.082,0.116 0.01,0.139C-0.004,0.143 -0.014,0.144 -0.042,0.145C-0.081,0.145 -0.099,0.141 -0.13,0.126C-0.172,0.106 -0.204,0.078 -0.237,0.03C-0.262,-0.007 -0.278,-0.04 -0.291,-0.086C-0.294,-0.095 -0.297,-0.105 -0.298,-0.108C-0.3,-0.117 -0.306,-0.151 -0.309,-0.175C-0.315,-0.22 -0.312,-0.288 -0.304,-0.33C-0.293,-0.393 -0.276,-0.439 -0.248,-0.486C-0.223,-0.527 -0.197,-0.556 -0.163,-0.581C-0.102,-0.625 -0.035,-0.635 0.033,-0.609C0.054,-0.601 0.058,-0.6 0.083,-0.582C0.161,-0.528 0.215,-0.423 0.229,-0.297C0.232,-0.274 0.232,-0.213 0.23,-0.193L0.23,-0.193ZM0.214,-0.275C0.213,-0.296 0.203,-0.347 0.198,-0.365C0.186,-0.406 0.174,-0.434 0.154,-0.466C0.124,-0.516 0.086,-0.551 0.04,-0.572C0.012,-0.585 0.001,-0.587 -0.034,-0.588C-0.081,-0.589 -0.111,-0.579 -0.152,-0.55C-0.182,-0.528 -0.197,-0.512 -0.221,-0.478C-0.249,-0.437 -0.267,-0.396 -0.28,-0.34C-0.289,-0.301 -0.293,-0.267 -0.292,-0.226C-0.292,-0.18 -0.29,-0.157 -0.28,-0.115C-0.257,-0.009 -0.198,0.075 -0.123,0.111C-0.095,0.124 -0.074,0.129 -0.043,0.129C-0.01,0.129 0.012,0.124 0.04,0.11C0.08,0.091 0.112,0.063 0.142,0.019C0.178,-0.033 0.203,-0.101 0.212,-0.172C0.215,-0.197 0.216,-0.249 0.214,-0.275L0.214,-0.275ZM0.198,-0.179C0.194,-0.134 0.179,-0.08 0.159,-0.036C0.126,0.034 0.071,0.087 0.013,0.106C-0.005,0.112 -0.008,0.113 -0.027,0.115C-0.08,0.119 -0.137,0.095 -0.181,0.048C-0.191,0.038 -0.221,-0.004 -0.226,-0.015C-0.245,-0.056 -0.255,-0.082 -0.263,-0.118C-0.271,-0.153 -0.272,-0.167 -0.272,-0.215C-0.272,-0.254 -0.271,-0.265 -0.268,-0.288C-0.248,-0.417 -0.178,-0.516 -0.085,-0.546C-0.061,-0.554 -0.017,-0.555 0.006,-0.548C0.024,-0.543 0.036,-0.538 0.048,-0.532C0.15,-0.476 0.21,-0.335 0.198,-0.179L0.198,-0.179ZM0.18,-0.265C0.175,-0.301 0.159,-0.358 0.147,-0.381C0.119,-0.434 0.099,-0.458 0.066,-0.482C0.043,-0.498 0.025,-0.506 -0,-0.512C-0.016,-0.516 -0.054,-0.516 -0.07,-0.512C-0.082,-0.509 -0.103,-0.501 -0.11,-0.497C-0.112,-0.496 -0.118,-0.492 -0.123,-0.489C-0.153,-0.471 -0.183,-0.438 -0.204,-0.399C-0.231,-0.352 -0.245,-0.303 -0.251,-0.241C-0.254,-0.214 -0.254,-0.206 -0.252,-0.177C-0.249,-0.141 -0.241,-0.099 -0.231,-0.071C-0.218,-0.031 -0.191,0.014 -0.167,0.04C-0.143,0.065 -0.118,0.082 -0.088,0.093C-0.073,0.098 -0.067,0.099 -0.037,0.099C-0.008,0.099 -0.002,0.098 0.011,0.093C0.057,0.075 0.09,0.049 0.12,0.004C0.153,-0.044 0.172,-0.097 0.18,-0.16C0.183,-0.185 0.183,-0.241 0.18,-0.265L0.18,-0.265ZM0.163,-0.145C0.157,-0.1 0.141,-0.053 0.122,-0.02C0.074,0.063 0.001,0.1 -0.073,0.082C-0.087,0.078 -0.111,0.068 -0.121,0.06C-0.124,0.058 -0.126,0.057 -0.127,0.057C-0.128,0.057 -0.129,0.056 -0.13,0.054C-0.132,0.053 -0.139,0.046 -0.146,0.039C-0.159,0.027 -0.179,-0 -0.19,-0.019C-0.218,-0.067 -0.234,-0.137 -0.232,-0.205C-0.231,-0.239 -0.228,-0.26 -0.22,-0.291C-0.196,-0.386 -0.134,-0.458 -0.065,-0.473C0.044,-0.497 0.144,-0.398 0.163,-0.249C0.167,-0.216 0.167,-0.175 0.163,-0.145L0.163,-0.145ZM0.149,-0.226C0.144,-0.268 0.128,-0.315 0.107,-0.351C0.088,-0.383 0.052,-0.416 0.019,-0.43C0.004,-0.436 0.001,-0.437 -0.03,-0.437C-0.062,-0.437 -0.065,-0.436 -0.08,-0.43C-0.152,-0.397 -0.202,-0.313 -0.211,-0.207C-0.222,-0.078 -0.161,0.043 -0.072,0.07C-0.05,0.076 -0.017,0.076 0.002,0.071C0.076,0.049 0.134,-0.035 0.148,-0.138C0.151,-0.159 0.151,-0.206 0.149,-0.226L0.149,-0.226ZM0.127,-0.098C0.118,-0.061 0.108,-0.038 0.089,-0.009C0.08,0.004 0.067,0.02 0.062,0.025C-0.003,0.085 -0.086,0.076 -0.141,0.003C-0.201,-0.076 -0.209,-0.208 -0.16,-0.302C-0.128,-0.365 -0.081,-0.398 -0.027,-0.398C-0.002,-0.397 0.002,-0.396 0.02,-0.388C0.041,-0.379 0.063,-0.362 0.08,-0.341C0.129,-0.281 0.147,-0.185 0.127,-0.098ZM0.116,-0.195C0.109,-0.247 0.087,-0.294 0.057,-0.322C-0.042,-0.415 -0.171,-0.316 -0.171,-0.149C-0.171,-0.092 -0.158,-0.048 -0.129,-0.006C-0.11,0.022 -0.091,0.037 -0.063,0.048C-0.047,0.055 -0.01,0.055 0.007,0.048C0.039,0.036 0.07,0.006 0.09,-0.03C0.1,-0.048 0.109,-0.076 0.112,-0.093C0.113,-0.1 0.115,-0.111 0.117,-0.118C0.12,-0.133 0.12,-0.174 0.116,-0.195L0.116,-0.195ZM0.097,-0.081C0.095,-0.072 0.091,-0.059 0.089,-0.053C0.087,-0.048 0.086,-0.043 0.087,-0.043C0.087,-0.043 0.087,-0.041 0.085,-0.04C0.084,-0.038 0.079,-0.03 0.074,-0.021C0.06,0.003 0.042,0.021 0.019,0.033C-0.005,0.047 -0.043,0.048 -0.066,0.035C-0.089,0.023 -0.099,0.014 -0.115,-0.009C-0.159,-0.071 -0.163,-0.174 -0.122,-0.248C-0.089,-0.308 -0.029,-0.332 0.022,-0.304C0.067,-0.28 0.098,-0.223 0.103,-0.158C0.105,-0.134 0.102,-0.099 0.097,-0.081L0.097,-0.081ZM0.086,-0.149C0.082,-0.181 0.073,-0.205 0.056,-0.229C0.035,-0.258 0.01,-0.273 -0.019,-0.273C-0.052,-0.273 -0.08,-0.255 -0.102,-0.221C-0.12,-0.193 -0.13,-0.152 -0.129,-0.109C-0.129,-0.084 -0.126,-0.071 -0.117,-0.044C-0.111,-0.025 -0.088,0.008 -0.073,0.018C-0.043,0.039 -0.011,0.042 0.018,0.024C0.068,-0.004 0.097,-0.078 0.086,-0.149L0.086,-0.149ZM0.069,-0.062C0.06,-0.028 0.046,-0.004 0.026,0.012C0.008,0.025 -0.006,0.03 -0.025,0.028C-0.072,0.024 -0.106,-0.025 -0.108,-0.09C-0.11,-0.143 -0.091,-0.191 -0.059,-0.214C0.003,-0.257 0.073,-0.197 0.073,-0.101C0.073,-0.084 0.072,-0.075 0.069,-0.062L0.069,-0.062ZM0.057,-0.105C0.048,-0.157 0.01,-0.193 -0.026,-0.183C-0.05,-0.176 -0.069,-0.156 -0.08,-0.126C-0.091,-0.094 -0.09,-0.059 -0.078,-0.028C-0.064,0.008 -0.034,0.029 -0.004,0.021C0.039,0.01 0.066,-0.047 0.057,-0.105L0.057,-0.105ZM0.04,-0.034C0.036,-0.017 0.026,-0.001 0.012,0.009C0.003,0.015 -0.001,0.017 -0.012,0.017C-0.023,0.017 -0.027,0.015 -0.035,0.01C-0.047,0.001 -0.054,-0.004 -0.052,-0.004C-0.051,-0.004 -0.053,-0.01 -0.056,-0.016C-0.068,-0.037 -0.069,-0.068 -0.06,-0.093C-0.044,-0.139 -0.002,-0.151 0.025,-0.118C0.032,-0.109 0.039,-0.095 0.042,-0.082C0.044,-0.073 0.043,-0.046 0.04,-0.034ZM0.027,-0.05C0.022,-0.08 -0.002,-0.098 -0.022,-0.085C-0.028,-0.082 -0.044,-0.059 -0.043,-0.056C-0.042,-0.056 -0.043,-0.051 -0.044,-0.045C-0.048,-0.014 -0.027,0.017 -0.004,0.013C0.016,0.009 0.031,-0.022 0.027,-0.05ZM0.008,0.001C-0.007,0.022 -0.032,-0.006 -0.019,-0.031C-0.013,-0.043 -0.005,-0.046 0.004,-0.039C0.011,-0.034 0.013,-0.029 0.013,-0.016C0.013,-0.009 0.012,-0.005 0.008,0.001L0.008,0.001Z" style="fill-opacity:0.1;"/>
    </g>
</svg>
