<?xml version="1.0" encoding="UTF-8" standalone="no"?>
<!DOCTYPE svg PUBLIC "-//W3C//DTD SVG 1.1//EN" "http://www.w3.org/Graphics/SVG/1.1/DTD/svg11.dtd">
<svg width="100%" height="100%" viewBox="0 0 3171 366" version="1.1" xmlns="http://www.w3.org/2000/svg" xmlns:xlink="http://www.w3.org/1999/xlink" xml:space="preserve" xmlns:serif="http://www.serif.com/" style="fill-rule:evenodd;clip-rule:evenodd;stroke-linejoin:round;stroke-miterlimit:2;">
    <g transform="matrix(4.16667,0,0,4.16667,1786.07,178.933)">
        <path d="M-390.72,44.74L-390.72,44.741L-428.657,44.741L-428.657,23.002L-391.423,23.002L-391.423,9.659L-391.812,9.659L-391.812,7.582L-391.141,7.582L-392.886,1.965L-393.231,1.965L-393.231,0.535L-392.886,0.535L-392.886,-4.659L-393.231,-4.659L-393.231,-6.089L-391.263,-6.089L-381.746,-12.091L-381.746,-14.964L-382.439,-14.964L-379.199,-17.009L-375.96,-14.964L-376.653,-14.964L-376.653,-12.091L-367.135,-6.089L-365.167,-6.089L-365.167,-4.659L-365.511,-4.659L-365.511,0.535L-365.167,0.535L-365.167,1.965L-365.511,1.965L-367.257,7.582L-366.585,7.582L-366.585,9.659L-366.976,9.659L-366.976,23.001L-363.987,23.001L-363.987,9.878L-269.49,9.878L-269.49,23.001L-264.982,23.001L-255.547,-10.858L-246.112,23.001L-238.881,23.001L-238.881,23.001L-235.69,23.001L-235.69,17.821L-204.652,17.821L-204.652,23.001L-200.973,23.001L-200.973,9.878L-169.934,9.878L-169.934,23.001L-166.255,23.001L-166.255,17.821L-135.216,17.821L-135.216,23.001L-131.537,23.001L-131.537,17.821L-100.498,17.821L-100.498,23.001L-97.394,23.001L-97.394,9.878L-90.475,9.878C-88.09,6.11 -83.899,3.601 -79.114,3.601C-74.33,3.601 -70.14,6.11 -67.755,9.878L-48.598,9.878L-48.598,2.282L-42.391,2.282L-42.391,7.368L-35.875,-3.933L-29.355,7.372L-29.355,2.282L-23.146,2.282L-23.146,9.878L-6.055,9.878L-6.055,-6.247L-6.176,-6.247C-6.268,-6.247 -6.342,-6.404 -6.342,-6.6C-6.342,-6.795 -6.268,-6.952 -6.176,-6.952L-6.055,-6.952L-6.055,-7.44L-6.176,-7.44C-6.268,-7.44 -6.342,-7.599 -6.342,-7.794C-6.342,-7.989 -6.268,-8.146 -6.176,-8.146L-6.055,-8.146L-6.055,-15.081C-6.055,-15.081 -6.342,-17.513 -6.342,-17.706C-6.342,-17.901 -6.268,-18.059 -6.176,-18.059L-6.055,-18.059L-6.055,-18.149L-6.176,-18.149C-6.268,-18.149 -6.342,-18.308 -6.342,-18.501C-6.342,-18.696 -6.268,-18.854 -6.176,-18.854L-4.314,-18.854L-4.314,-30.895L-5.426,-30.895L-3.912,-32.81L-4.16,-32.81L-3.777,-33.689C-3.516,-33.951 -3.979,-34.96 -3.986,-35.813L-3.986,-35.833C-3.986,-37.152 -3.793,-38.257 -3.531,-38.569C-3.656,-38.627 -3.744,-38.751 -3.744,-38.897C-3.744,-39.097 -3.582,-39.259 -3.383,-39.259C-3.186,-39.259 -3.023,-39.097 -3.023,-38.897C-3.023,-38.751 -3.111,-38.627 -3.234,-38.569C-2.975,-38.257 -2.781,-37.152 -2.781,-35.833L-2.781,-35.813C-2.789,-34.96 -3.252,-33.951 -2.99,-33.689L-2.963,-33.628L-2.51,-33.628L-1.727,-35.679L-1.223,-35.679L-1.223,-38.659L-1.754,-38.659L-0.916,-39.163L-0.518,-39.163C-0.436,-39.831 -0.402,-40.732 -0.49,-40.968C-0.629,-41.339 -0.789,-40.813 -1.039,-41.72C-1.162,-42.169 -0.65,-42.944 -0.512,-42.944C-0.373,-42.944 -0.9,-42.104 -0.814,-41.787C-0.781,-41.663 -0.699,-41.64 -0.291,-41.803C-0.332,-41.886 -0.355,-41.991 -0.355,-42.106C-0.355,-42.372 -0.229,-42.587 -0.072,-42.587C0.086,-42.587 0.215,-42.372 0.215,-42.106C0.215,-42.002 0.193,-41.905 0.16,-41.827C0.479,-41.683 0.756,-41.136 0.664,-40.84C0.541,-40.439 0.139,-40.179 0.322,-39.622C0.369,-39.482 0.424,-39.323 0.48,-39.163L0.92,-39.163L1.758,-38.659L1.227,-38.659L1.227,-35.679L1.73,-35.679L2.514,-33.628L2.969,-33.628L2.994,-33.689C3.256,-33.951 2.793,-34.96 2.785,-35.813L2.785,-35.833C2.785,-37.152 2.979,-38.257 3.24,-38.569C3.115,-38.627 3.027,-38.751 3.027,-38.897C3.027,-39.097 3.189,-39.259 3.389,-39.259C3.588,-39.259 3.748,-39.097 3.748,-38.897C3.748,-38.751 3.66,-38.627 3.535,-38.569C3.797,-38.257 3.992,-37.152 3.992,-35.833C3.992,-35.825 3.99,-35.819 3.99,-35.813C3.984,-34.96 3.52,-33.951 3.781,-33.689L4.162,-32.81L3.916,-32.81L5.43,-30.895L4.32,-30.895L4.32,-18.854L6.18,-18.854C6.27,-18.854 6.346,-18.696 6.346,-18.501C6.346,-18.308 6.27,-18.149 6.18,-18.149L6.059,-18.149L6.059,-18.059L6.18,-18.059C6.27,-18.059 6.346,-17.901 6.346,-17.706C6.346,-17.513 6.059,-15.081 6.059,-15.081L6.059,-8.146L6.18,-8.146C6.27,-8.146 6.346,-7.989 6.346,-7.794C6.346,-7.599 6.27,-7.44 6.18,-7.44L6.059,-7.44L6.059,-6.952L6.18,-6.952C6.27,-6.952 6.346,-6.795 6.346,-6.6C6.346,-6.404 6.27,-6.247 6.18,-6.247L6.059,-6.247L6.059,23.001L9.963,23.001L9.963,9.878L77.901,9.878L81.7,3.292L85.499,9.878L104.462,9.878L104.462,23.001L107.909,23.001L107.909,9.878L112.069,9.878C114.454,6.11 118.645,3.601 123.432,3.601C128.215,3.601 132.405,6.11 134.79,9.878L138.95,9.878L138.95,23.001L143.088,23.001L143.088,9.878L147.247,9.878C149.631,6.11 153.823,3.601 158.608,3.601C163.393,3.601 167.583,6.11 169.967,9.878L174.128,9.878L174.128,23.001L177.579,23.001L177.579,9.878L238.276,9.878L238.276,23.001L241.073,23.001L241.073,5.732L246.998,3.878L246.998,-2.062L245.682,-2.062L249.002,-6.122L258.42,-6.122L261.743,-2.062L260.422,-2.062L260.422,3.878L283.203,3.878L285.284,-0.501L298.362,-0.501L298.362,-9.159L298.828,-9.159L298.828,-8.676C300.873,-8.873 300.58,-6.104 304.065,-7.116C303.879,-6.637 302.629,-5.874 301.875,-5.717C299.821,-5.296 299.43,-6.768 298.828,-6.536L298.828,-0.501L311.86,-0.501L312.916,1.724L319.391,1.724L322.713,8.714L321.62,8.714L321.62,29.242L332.313,29.242L332.313,44.741L321.62,44.741L294.376,44.741L274.608,44.741L274.608,28.724C274.608,25.694 272.157,23.238 269.129,23.238C266.102,23.238 263.649,25.694 263.649,28.724L263.649,44.741L241.073,44.741L241.073,44.74L-238.881,44.74L-238.881,44.741L-367.866,44.741L-367.866,44.74L-373.088,44.74L-373.088,22.685C-373.088,19.305 -375.823,16.567 -379.199,16.567C-382.574,16.567 -385.31,19.305 -385.31,22.685L-385.31,44.74L-390.72,44.74ZM0,1.796C1.723,1.796 3.117,0.4 3.117,-1.324C3.117,-3.048 1.723,-4.443 0,-4.443C-1.719,-4.443 -3.113,-3.048 -3.113,-1.324C-3.113,0.4 -1.719,1.796 0,1.796ZM0.17,-4.204L0.17,-1.378L1.608,0.062L1.352,0.317L-0.191,-1.227L-0.189,-1.228L-0.191,-1.228L-0.191,-4.204L0.17,-4.204Z" style="fill:white;"/>
    </g>
</svg>
