<?xml version="1.0" encoding="UTF-8" standalone="no"?>
<!DOCTYPE svg PUBLIC "-//W3C//DTD SVG 1.1//EN" "http://www.w3.org/Graphics/SVG/1.1/DTD/svg11.dtd">
<svg width="100%" height="100%" viewBox="0 0 3838 1017" version="1.1" xmlns="http://www.w3.org/2000/svg" xmlns:xlink="http://www.w3.org/1999/xlink" xml:space="preserve" xmlns:serif="http://www.serif.com/" style="fill-rule:evenodd;clip-rule:evenodd;stroke-linejoin:round;stroke-miterlimit:2;">
    <g transform="matrix(1,0,0,1,-1,-541.736)">
        <path d="M2635.9,1543.94C2632.09,1543.3 2627.83,1542.69 2622.44,1541.88C2611.27,1540.22 2599.27,1539.88 2599.27,1539.88L2597.77,1536.55C2597.77,1536.55 2353.44,1537.22 2326.11,1537.22C2298.77,1537.22 2242.61,1538.88 2242.61,1538.88C2242.61,1538.88 2220.69,1544.05 2204.86,1544.55C2189.02,1545.05 2175.69,1546.88 2173.86,1545.88C2172.02,1544.88 2168.36,1536.72 2168.36,1536.72L2139.69,1536.38L2135.19,1541.05C2135.19,1541.05 2133.52,1538.72 2123.19,1538.38C2112.86,1538.05 2090.69,1537.55 2082.19,1537.88C2073.69,1538.22 2067.36,1538.88 2057.19,1541.22C2047.02,1543.55 2039.19,1545.05 2039.19,1545.05C2039.19,1545.05 2030.52,1536.88 2025.19,1536.88L1725.61,1536.88C1725.61,1536.88 1722.44,1554.13 1707.61,1555.63C1692.77,1557.13 1667.86,1557.8 1654.69,1557.8C1641.52,1557.8 1633.02,1555.97 1626.19,1551.8C1619.36,1547.63 1615.02,1542.97 1615.02,1540.63L1615.02,1537.3L1556.19,1537.3L1554.94,1538.63L1519.61,1538.63C1519.61,1538.63 1513.77,1537.8 1513.61,1534.13C1513.44,1530.47 1513.44,1529.97 1513.44,1529.97L1500.77,1529.3C1495.43,1529.02 1493.61,1530.63 1486.44,1530.63C1479.27,1530.63 1466.61,1526.97 1466.61,1526.97C1466.61,1526.97 1463.77,1532.3 1460.61,1536.63C1457.44,1540.97 1452.61,1546.3 1445.61,1546.3L1435.44,1546.3C1435.44,1546.3 1432.27,1541.97 1425.94,1539.63C1419.61,1537.3 1419.11,1536.63 1411.27,1536.63L1365.27,1536.63C1365.27,1536.63 1355.27,1540.13 1346.44,1540.47C1337.61,1540.8 1313.11,1543.63 1303.61,1541.63C1294.11,1539.63 1293.11,1535.8 1293.11,1535.8L1172.86,1536.97C1161.51,1537.08 1150.36,1539.13 1141.69,1539.13C1133.02,1539.13 1106.36,1537.13 1091.19,1537.13C1076.02,1537.13 1029.94,1537.63 1015.94,1539.13C1001.94,1540.63 978.605,1542.3 972.939,1542.3C967.272,1542.3 949.522,1538.13 925.522,1538.13C901.522,1538.13 716.522,1537.63 690.022,1537.63C663.522,1537.63 603.189,1537.07 586.689,1536.97C570.188,1536.86 517.855,1541.63 496.355,1542.47C474.855,1543.3 463.189,1543.8 463.189,1543.8L460.855,1539.8L433.272,1534.63L384.355,1534.63C377.439,1534.63 364.439,1536.97 354.105,1539.63C343.772,1542.3 327.022,1547.63 311.522,1547.63C296.022,1547.63 270.022,1548.8 270.022,1548.8C270.022,1548.8 271.022,1550.63 264.355,1550.63L250.689,1550.63C246.689,1550.63 246.522,1548.63 246.522,1548.63C246.522,1548.63 187.022,1552.3 161.522,1552.3C136.022,1552.3 116.355,1546.47 113.689,1546.13C111.022,1545.8 107.522,1547.8 99.689,1544.8C91.855,1541.8 84.105,1539.47 77.439,1538.3C70.772,1537.13 67.939,1536.13 60.772,1530.8C53.605,1525.47 50.439,1520.63 40.605,1512.97C30.772,1505.3 16.689,1491.47 11.522,1481.8C6.355,1472.13 1,1461.97 1,1455.3C1,1448.63 4.355,1446.47 4.355,1446.47C4.355,1446.47 4.689,1423.22 9.189,1407.55C13.689,1391.88 17.855,1387.22 21.189,1382.72C24.522,1378.22 30.355,1364.3 41.855,1337.97C53.355,1311.63 70.855,1270.72 88.855,1240.55C106.855,1210.38 129.189,1177.47 144.189,1157.8C159.189,1138.13 188.189,1104.47 206.355,1083.47C224.522,1062.47 227.022,1059.97 227.022,1059.97L107.939,1014.88C107.939,1014.88 103.105,1011.22 112.605,986.551C122.105,961.884 126.105,962.884 126.105,962.884L162.439,975.184C162.439,975.184 164.439,975.551 163.439,978.051C164.344,978.394 165.267,978.744 166.206,979.1L166.291,978.833C166.621,977.799 167.729,977.228 168.763,977.558L186.766,983.31C187.8,983.64 188.372,984.748 188.041,985.782L187.594,987.183C188.671,987.589 189.75,987.996 190.829,988.403L190.958,988C191.288,986.966 192.396,986.395 193.429,986.725L211.433,992.476C212.467,992.807 213.038,993.914 212.708,994.948L212.225,996.46C213.321,996.872 214.398,997.278 215.455,997.675L215.458,997.666C215.788,996.632 216.896,996.061 217.929,996.392L235.933,1002.14C236.967,1002.47 237.538,1003.58 237.208,1004.62L236.856,1005.72C238.571,1006.36 239.522,1006.72 239.522,1006.72C239.522,1006.72 239.689,1004.72 244.022,1006.55C248.355,1008.38 249.855,1009.38 249.855,1009.38C249.855,1009.38 258.022,986.551 262.689,979.218C267.355,971.884 270.022,969.218 270.022,969.218C270.022,969.218 255.439,960.801 243.272,928.134C231.105,895.468 224.939,884.468 222.939,878.634C220.939,872.801 221.772,868.634 221.772,854.801C221.772,840.968 222.605,837.468 224.105,834.301L225.605,831.134L220.939,813.384C220.939,813.384 218.939,808.551 222.605,804.884L226.272,801.218L226.605,797.551C226.605,797.551 221.272,790.301 221.272,780.301C221.272,770.301 230.272,757.301 233.105,749.468C235.939,741.634 237.772,731.384 240.939,715.384C244.105,699.384 245.772,695.718 247.939,691.218C250.105,686.718 251.772,681.884 251.772,681.884C251.772,681.884 252.605,677.634 252.939,672.301C253.272,666.968 259.939,664.134 266.355,664.134C272.772,664.134 276.189,669.301 276.189,674.301C276.189,674.301 276.522,673.468 278.355,672.968L280.189,672.468C280.189,672.468 299.689,639.134 314.689,625.634C329.689,612.134 362.855,585.218 402.189,576.884C441.522,568.551 464.855,569.551 492.189,569.718C494.189,570.051 501.689,568.384 511.022,570.884C520.355,573.384 533.189,582.634 538.022,588.634C542.855,594.634 545.189,596.968 545.189,596.968C545.189,596.968 571.689,614.134 591.022,644.801C610.355,675.468 615.189,689.968 629.189,714.134C643.189,738.301 655.439,757.468 663.439,780.301C671.439,803.134 673.439,813.134 676.105,829.968C678.772,846.801 679.939,856.968 679.939,856.968L696.477,840.121L693.359,827.541C693.138,826.649 693.566,825.746 694.343,825.332L693.844,823.373C692.895,823.457 691.999,822.84 691.762,821.886L686.992,802.635C686.768,801.733 687.207,800.822 687.999,800.414L687.387,798.012L687.287,798.037C686.234,798.298 685.166,797.654 684.905,796.601L680.135,777.349C679.877,776.311 680.498,775.26 681.523,774.979L681.002,772.93L680.573,773.037C679.519,773.298 678.452,772.654 678.191,771.601L673.42,752.349C673.159,751.296 673.803,750.228 674.856,749.967L675.138,749.897L674.411,747.043L673.859,747.179C672.805,747.44 671.738,746.797 671.477,745.743L666.706,726.492C666.445,725.438 667.088,724.371 668.142,724.11L668.547,724.01L667.914,721.525L667.002,721.751C665.948,722.012 664.881,721.368 664.62,720.315L659.849,701.063C659.588,700.01 660.231,698.942 661.285,698.681L662.05,698.492L661.494,696.309L660.287,696.608C659.234,696.869 658.166,696.226 657.905,695.172L653.135,675.921C652.874,674.867 653.517,673.8 654.571,673.539L655.63,673.276L654.92,670.488L653.859,670.751C652.805,671.012 651.738,670.368 651.477,669.315L646.706,650.063C646.445,649.01 647.088,647.942 648.142,647.681L649.056,647.455L648.389,644.834L647.573,645.037C646.519,645.298 645.452,644.654 645.191,643.601L640.42,624.349C640.159,623.296 640.803,622.228 641.856,621.967L642.525,621.801L642.106,620.155L641.43,620.322C640.377,620.583 639.309,619.94 639.048,618.886L634.277,599.635C634.016,598.581 634.66,597.514 635.713,597.253L636.242,597.122L635.439,593.968C635.439,593.968 633.939,595.134 632.939,592.301C631.939,589.468 624.772,560.301 624.272,557.634C623.772,554.968 622.939,551.468 648.605,545.634C674.272,539.801 678.439,541.468 679.272,544.468C680.105,547.468 745.272,802.718 745.272,802.718L755.605,802.718C760.105,802.718 763.439,803.384 763.439,803.384C763.439,803.384 774.439,789.218 780.605,784.384L786.772,779.551C786.772,779.551 786.772,775.551 791.939,773.051C797.105,770.551 798.105,770.218 798.105,770.218C798.105,770.218 843.522,737.801 883.522,735.634C923.522,733.468 972.855,733.301 1032.86,762.134C1092.86,790.968 1095.36,798.634 1137.52,798.468C1179.69,798.301 1182.86,796.968 1185.02,797.801C1187.19,798.634 1187.52,799.134 1187.52,799.134C1187.52,799.134 1187.69,798.634 1193.86,798.634C1200.02,798.634 1201.36,798.301 1204.19,799.301C1207.02,800.301 1208.52,801.468 1208.52,801.468C1208.52,801.468 1231.44,805.551 1256.27,810.718C1281.11,815.884 1285.44,817.718 1285.44,817.718C1285.44,817.718 1283.77,813.718 1294.11,815.718C1304.44,817.718 1306.61,817.218 1311.27,819.384C1315.94,821.551 1316.27,822.051 1316.27,822.051C1316.27,822.051 1328.69,814.884 1353.52,814.051C1378.36,813.218 1451.86,813.384 1496.52,815.884C1541.19,818.384 1605.02,819.051 1605.02,819.051C1605.02,819.051 1628.69,805.051 1641.52,805.051C1654.36,805.051 1661.36,807.218 1674.36,812.718C1687.36,818.218 1697.19,826.051 1697.19,826.051L1721.69,809.134C1721.69,809.134 1720.69,805.801 1722.36,804.634C1724.02,803.468 1732.86,793.968 1736.86,793.801C1740.86,793.634 1740.52,798.134 1740.52,798.134C1740.52,798.134 1746.36,793.301 1750.86,790.968C1755.36,788.634 1758.36,787.801 1758.36,787.801C1758.36,787.801 1758.69,784.968 1764.69,781.468C1770.69,777.968 1773.52,777.968 1773.52,777.968L1804.77,754.801C1804.77,754.801 1809.27,751.301 1816.77,750.634C1824.27,749.968 1839.77,745.634 1849.77,741.468C1859.77,737.301 1901.52,718.801 1917.69,713.634C1933.86,708.468 1943.02,707.301 1955.02,707.301C1967.02,707.301 1978.69,710.634 1984.69,710.134C1990.69,709.634 1990.36,707.968 1992.52,707.968C1994.69,707.968 1999.37,715.634 1999.37,715.634C1999.37,715.634 2084.11,671.134 2111.94,659.634C2139.77,648.134 2186.52,631.218 2212.02,621.218C2237.52,611.218 2299.02,580.301 2299.02,580.301C2299.02,580.301 2301.02,572.051 2317.86,568.718C2334.69,565.384 2337.86,565.218 2340.36,565.718C2342.86,566.218 2343.19,567.218 2343.19,567.218C2343.19,567.218 2354.11,558.551 2381.94,558.551C2409.77,558.551 2443.11,568.134 2463.11,582.801C2483.11,597.468 2485.27,603.468 2487.11,608.968C2488.94,614.468 2488.94,615.468 2488.94,615.468L2498.77,624.634C2498.77,624.634 2504.94,627.301 2509.61,644.634C2514.27,661.968 2514.11,670.134 2514.11,670.134C2514.11,670.134 2516.27,672.968 2516.44,680.468C2516.61,687.968 2514.94,694.468 2514.94,694.468C2514.94,694.468 2516.11,723.634 2513.27,742.801C2510.44,761.968 2510.61,786.801 2508.27,802.301C2505.94,817.801 2505.94,820.134 2505.94,820.134C2505.94,820.134 2517.44,831.718 2517.44,843.551L2517.44,858.884C2517.44,858.884 2522.77,868.968 2522.77,881.468L2522.77,909.301C2522.77,918.468 2516.77,927.634 2516.77,927.634C2516.77,927.634 2516.27,997.218 2514.27,1027.55C2512.27,1057.88 2510.44,1108.38 2510.44,1108.38C2510.44,1108.38 2516.94,1110.22 2516.94,1126.38L2516.94,1167.8C2516.94,1172.63 2515.44,1174.47 2515.44,1174.47C2515.44,1174.47 2515.27,1180.47 2517.27,1192.3C2519.27,1204.13 2519.11,1212.97 2519.11,1212.97C2519.11,1212.97 2549.94,1215.22 2581.61,1223.38C2613.27,1231.55 2619.27,1235.88 2619.27,1235.88C2619.27,1235.88 2622.19,1236.88 2627.19,1238.55C2632.04,1240.17 2631.87,1241.63 2631.86,1241.71C2631.88,1241.61 2632.55,1239.39 2647.86,1246.72C2663.52,1254.22 2670.36,1256.55 2672.52,1258.88C2674.69,1261.22 2674.69,1262.22 2674.69,1262.22C2674.69,1262.22 2675.52,1260.13 2680.19,1264.47C2684.86,1268.8 2684.86,1270.13 2684.86,1270.13C2684.86,1270.13 2688.86,1267.38 2699.19,1271.38C2709.52,1275.38 2718.52,1280.38 2743.86,1280.22C2769.19,1280.05 2785.02,1278.72 2812.02,1282.22C2839.02,1285.72 2889.86,1291.72 2920.19,1296.72C2950.52,1301.72 2991.86,1310.88 3013.02,1314.38C3034.19,1317.88 3093.61,1334.38 3100.94,1335.38L3108.27,1336.38C3108.27,1336.38 3109.02,1334.3 3115.86,1335.3C3122.69,1336.3 3125.02,1335.8 3131.69,1335.97C3138.36,1336.13 3146.86,1339.3 3146.86,1339.3C3146.86,1339.3 3198.11,1342.22 3225.27,1345.05C3252.44,1347.88 3286.27,1349.88 3300.27,1352.55C3314.27,1355.22 3315.44,1356.38 3315.44,1356.38L3355.11,1358.88C3355.11,1358.88 3365.52,1344.55 3386.69,1348.22C3407.86,1351.88 3409.19,1354.05 3419.02,1355.05C3428.86,1356.05 3436.69,1357.55 3444.02,1357.55C3451.36,1357.55 3457.52,1356.55 3462.02,1355.55C3466.52,1354.55 3469.52,1354.38 3469.52,1354.38C3469.52,1354.38 3467.02,1351.38 3471.02,1349.55C3475.02,1347.72 3483.02,1345.55 3483.02,1345.55C3483.02,1345.55 3480.86,1336.47 3493.02,1335.3C3505.19,1334.13 3605.02,1326.3 3613.02,1326.05C3621.02,1325.8 3623.86,1333.8 3624.02,1337.47L3632.36,1337.47C3632.36,1337.47 3636.94,1332.3 3653.11,1332.3C3669.27,1332.3 3683.11,1327.97 3699.11,1325.05C3715.11,1322.13 3762.77,1319.8 3781.94,1325.05C3801.11,1330.3 3803.61,1330.63 3805.94,1333.8C3808.27,1336.97 3806.77,1337.47 3806.77,1337.47C3806.77,1337.47 3817.27,1340.3 3817.77,1344.13L3818.27,1347.97C3818.27,1347.97 3825.77,1349.47 3826.11,1354.47C3826.44,1359.47 3826.27,1361.8 3826.27,1361.8C3826.27,1361.8 3833.77,1360.8 3836.77,1380.97C3839.77,1401.13 3837.94,1409.8 3837.94,1409.8L3832.77,1413.63C3832.77,1413.63 3835.11,1421.55 3835.11,1429.38C3835.11,1437.22 3834.94,1437.05 3832.94,1437.55C3830.94,1438.05 3827.44,1439.72 3828.77,1442.22C3830.11,1444.72 3830.11,1449.38 3829.11,1450.55C3828.11,1451.72 3821.77,1450.88 3820.61,1455.55C3819.44,1460.22 3819.27,1460.97 3819.77,1463.97C3820.27,1466.97 3820.11,1466.97 3817.94,1469.8C3815.77,1472.63 3809.77,1479.8 3807.11,1481.47C3804.44,1483.13 3803.11,1482.47 3799.94,1484.8C3796.77,1487.13 3794.94,1489.13 3794.94,1489.13L3795.27,1495.55C3795.27,1495.55 3787.11,1501.88 3784.44,1504.05C3781.77,1506.22 3777.27,1503.72 3777.27,1503.72L3771.27,1508.72L3771.27,1512.88C3771.27,1512.88 3765.94,1516.88 3762.44,1518.38C3758.94,1519.88 3753.44,1518.38 3753.44,1518.38C3753.44,1518.38 3748.61,1521.22 3748.44,1523.22L3748.27,1525.22C3748.27,1525.22 3726.61,1534.88 3706.94,1536.05C3687.27,1537.22 3676.11,1536.88 3657.44,1534.72C3638.77,1532.55 3619.11,1533.72 3619.11,1533.72C3619.11,1533.72 3618.86,1536.47 3614.02,1536.47L3488.69,1536.47C3484.19,1536.47 3481.77,1531.47 3481.77,1531.47C3481.77,1531.47 3472.61,1533.3 3467.27,1534.13C3461.94,1534.97 3460.77,1534.97 3460.77,1534.97L3459.44,1537.13L3383.44,1537.13C3383.44,1537.13 3379.11,1536.13 3373.44,1531.97C3366.44,1532.47 3328.86,1526.97 3312.19,1526.97C3295.52,1526.97 3276.02,1528.47 3276.02,1528.47C3276.02,1528.47 3269.52,1534.3 3265.19,1534.3C3260.86,1534.3 3231.19,1533.3 3226.36,1532.8C3221.52,1532.3 3221.52,1529.47 3221.52,1529.47L3173.19,1528.97C3173.19,1528.97 3171.02,1530.8 3168.02,1530.8L3095.86,1530.8C3092.69,1530.8 3091.02,1526.8 3091.02,1526.8L3040.77,1535.63L3038.44,1533.63C3038.44,1533.63 2996.77,1537.13 2982.61,1538.13C2968.44,1539.13 2900.61,1543.3 2864.27,1539.47C2827.94,1535.63 2771.69,1526.13 2771.69,1526.13C2771.69,1526.13 2771.77,1528.38 2772.11,1531.22C2772.44,1534.05 2772.27,1534.38 2769.11,1537.55C2765.94,1540.72 2759.27,1546.22 2742.11,1550.22C2741.05,1550.46 2740.01,1550.7 2738.96,1550.92C2737.41,1548.97 2735.71,1547.26 2734.5,1547.26C2732.96,1547.26 2729.28,1550.29 2726.22,1553.07C2723.99,1553.35 2721.73,1553.58 2719.45,1553.77L2719.47,1553.59C2719.67,1552.21 2718.71,1551.09 2717.33,1551.09C2715.95,1551.09 2714.67,1552.21 2714.47,1553.59L2714.4,1554.12C2712.11,1554.24 2709.78,1554.32 2707.41,1554.36L2707.64,1552.76C2707.84,1551.38 2706.88,1550.26 2705.5,1550.26C2704.12,1550.26 2702.84,1551.38 2702.64,1552.76L2702.41,1554.37C2700.63,1554.36 2698.82,1554.32 2696.97,1554.26L2697.31,1551.93C2697.51,1550.55 2696.55,1549.43 2695.16,1549.43C2693.78,1549.43 2692.51,1550.55 2692.31,1551.93L2692.01,1554.05C2690.24,1553.96 2688.44,1553.85 2686.61,1553.72C2686.05,1553.68 2685.49,1553.64 2684.95,1553.6L2685.31,1551.09C2685.51,1549.71 2684.55,1548.59 2683.16,1548.59C2681.78,1548.59 2680.51,1549.71 2680.31,1551.09L2680.01,1553.15C2677.7,1552.91 2675.54,1552.65 2673.51,1552.36L2673.81,1550.26C2674.01,1548.88 2673.05,1547.76 2671.66,1547.76C2670.28,1547.76 2669.01,1548.88 2668.81,1550.26L2668.62,1551.59C2666.52,1551.23 2664.59,1550.84 2662.8,1550.45L2663.57,1545.36C2663.9,1543.19 2662.4,1541.43 2660.23,1541.43L2658.26,1541.43C2656.09,1541.43 2654.07,1543.19 2653.74,1545.36L2653.33,1548.05C2651.14,1547.43 2649.21,1546.86 2647.44,1546.38C2645.17,1545.78 2643,1545.28 2640.77,1544.83L2640.97,1543.43C2641.17,1542.05 2640.21,1540.93 2638.83,1540.93C2637.45,1540.93 2636.17,1542.05 2635.97,1543.43L2635.9,1543.94ZM1999.37,1199.28L2069.57,1199.48C2069.57,1199.48 2071.97,1196.68 2074.77,1193.28C2077.57,1189.88 2079.97,1190.08 2079.97,1190.08L2147.77,1184.28C2147.77,1184.28 2149.17,1183.88 2150.97,1185.48C2152.77,1187.08 2153.77,1192.28 2153.77,1192.28C2153.77,1192.28 2160.37,1193.28 2164.77,1196.68C2169.17,1200.08 2176.37,1203.88 2176.37,1203.88C2176.37,1203.88 2187.17,1204.48 2192.17,1204.68C2194.57,1202.08 2197.37,1202.68 2197.37,1202.68L2229.17,1203.68L2235.17,1201.28C2235.17,1201.28 2301.57,1203.28 2305.37,1203.28C2309.17,1203.28 2309.37,1204.68 2309.37,1204.68L2313.77,1205.48C2313.77,1205.48 2304.37,1170.18 2302.97,1165.38C2301.57,1160.58 2300.17,1155.98 2301.17,1151.18C2300.17,1146.58 2296.17,1129.98 2281.97,1096.58C2267.77,1063.18 2257.77,1042.68 2253.17,1010.88C2248.57,979.084 2255.57,948.084 2255.57,948.084L2253.57,944.484L2260.37,918.884C2260.37,918.884 2251.17,927.884 2242.37,937.084C2233.57,946.284 2223.57,958.284 2217.77,966.084C2211.97,973.884 2190.87,1001.28 2190.87,1001.28L2189.47,1004.88L2146.07,1058.08L2143.47,1058.68C2143.47,1058.68 2105.37,1102.68 2078.17,1128.28C2050.97,1153.88 1999.37,1199.28 1999.37,1199.28ZM381.182,1067.53C380.764,1067.83 380.522,1067.98 380.522,1067.98L380.946,1068.15L381.17,1067.56C381.174,1067.55 381.178,1067.54 381.182,1067.53ZM476.53,1104.86L479.722,1106.08L477.522,1099.58C477.522,1099.58 459.322,1063.58 458.322,1057.78C457.322,1051.98 460.322,1045.78 460.122,1043.38C459.922,1040.98 447.322,1026.98 432.322,1008.98C417.322,990.984 404.722,976.184 404.722,976.184C404.722,976.184 401.922,980.184 399.522,984.384C397.122,988.584 394.722,995.384 394.722,995.384C394.722,995.384 396.922,997.384 398.522,1000.38C400.122,1003.38 399.922,1004.18 399.722,1009.58C399.522,1014.98 395.522,1037.78 392.922,1049.78C391.161,1057.91 386.098,1063.38 383.013,1066.06C383.408,1066 383.824,1066.03 384.224,1066.19L402.068,1072.97C403.289,1073.43 403.903,1074.8 403.439,1076.02L403.186,1076.69L405.394,1077.54L405.65,1076.86C406.115,1075.64 407.483,1075.03 408.704,1075.49L426.548,1082.28C427.769,1082.74 428.383,1084.11 427.919,1085.33L427.634,1086.08L429.842,1086.93L430.13,1086.17C430.594,1084.95 431.962,1084.33 433.183,1084.8L451.028,1091.58C452.249,1092.05 452.863,1093.41 452.399,1094.64L452.082,1095.47L454.291,1096.32L454.61,1095.48C455.074,1094.26 456.442,1093.64 457.663,1094.11L475.508,1100.89C476.729,1101.35 477.343,1102.72 476.879,1103.94L476.53,1104.86ZM346.355,1112.38C346.355,1112.38 330.689,1148.05 313.022,1192.72C295.355,1237.38 266.355,1325.05 266.355,1325.05C266.355,1325.05 308.689,1312.05 328.022,1310.38C347.355,1308.72 374.355,1309.38 374.355,1309.38C374.355,1309.38 392.355,1288.38 406.022,1279.38C419.689,1270.38 423.689,1265.38 435.022,1251.72C446.355,1238.05 457.689,1228.05 467.689,1219.05C477.689,1210.05 502.355,1201.05 502.355,1201.05L502.022,1173.38L346.355,1112.38Z"/>
        <path d="M462.129,850.081C470.181,847.304 475.986,846.652 483.986,846.652C491.986,846.652 496.701,847.509 499.558,847.509C502.415,847.509 504.272,848.938 500.558,853.652C496.844,858.366 489.558,864.509 478.272,869.938C466.986,875.366 457.844,876.224 452.701,875.938C447.558,875.652 443.415,873.224 442.701,870.938C441.986,868.652 445.272,860.795 450.272,856.938C455.272,853.081 457.986,851.509 462.129,850.081ZM595.701,786.009C605.798,779.683 618.701,776.724 620.986,779.866C623.272,783.009 615.558,789.152 604.986,797.295C598.742,802.105 590.129,808.152 587.129,811.009C584.129,813.866 576.774,815.225 575.415,813.866C574.415,812.866 583.844,793.438 595.701,786.009Z" style="fill:white;"/>
    </g>
</svg>
