<?xml version="1.0" encoding="UTF-8" standalone="no"?>
<!DOCTYPE svg PUBLIC "-//W3C//DTD SVG 1.1//EN" "http://www.w3.org/Graphics/SVG/1.1/DTD/svg11.dtd">
<svg width="100%" height="100%" viewBox="0 0 8 8" version="1.1" xmlns="http://www.w3.org/2000/svg" xmlns:xlink="http://www.w3.org/1999/xlink" xml:space="preserve" xmlns:serif="http://www.serif.com/" style="fill-rule:evenodd;clip-rule:evenodd;stroke-linejoin:round;stroke-miterlimit:2;">
    <g opacity="0.1">
        <g transform="matrix(2.28527,2.28527,-2.28527,2.28527,5.63608,-16.2411)">
            <path d="M3.821,3.286L3.821,4.537L2.57,4.537L2.82,4.286L3.571,4.286L3.571,3.536L3.821,3.286Z" style="fill:rgb(235,235,235);"/>
        </g>
        <g transform="matrix(0.457054,0.457054,-0.457054,0.457054,4.32722,-3.24821)">
            <path d="M3.821,3.286L3.821,4.537L2.57,4.537L3.821,3.286Z" style="fill:rgb(235,235,235);"/>
        </g>
        <g transform="matrix(-2.28527,-2.28527,2.28527,-2.28527,2.36392,24.2411)">
            <path d="M3.821,3.286L3.821,4.537L2.57,4.537L2.82,4.286L3.571,4.286L3.571,3.536L3.821,3.286Z" style="fill:rgb(235,235,235);"/>
        </g>
        <g transform="matrix(-0.457054,-0.457054,0.457054,-0.457054,3.67278,11.2482)">
            <path d="M3.821,3.286L3.821,4.537L2.57,4.537L3.821,3.286Z" style="fill:rgb(235,235,235);"/>
        </g>
        <g transform="matrix(3.19938,-3.19938,3.19938,3.19938,-22.7375,1.70949)">
            <path d="M3.821,3.286L3.821,4.537L2.57,4.537L2.749,4.358L3.642,4.358L3.642,3.465L3.821,3.286Z" style="fill:rgb(235,235,235);"/>
        </g>
        <g transform="matrix(1.37116,-1.37116,1.37116,1.37116,-9.74464,3.01835)">
            <path d="M3.821,3.286L3.821,4.537L2.57,4.537L2.987,4.12L3.404,4.12L3.404,3.703L3.821,3.286Z" style="fill:rgb(235,235,235);"/>
        </g>
        <g transform="matrix(-3.19938,3.19938,-3.19938,-3.19938,30.7375,6.29051)">
            <path d="M3.821,3.286L3.821,4.537L2.57,4.537L2.749,4.358L3.642,4.358L3.642,3.465L3.821,3.286Z" style="fill:rgb(235,235,235);"/>
        </g>
        <g transform="matrix(-1.37116,1.37116,-1.37116,-1.37116,17.7446,4.98165)">
            <path d="M3.821,3.286L3.821,4.537L2.57,4.537L2.987,4.12L3.404,4.12L3.404,3.703L3.821,3.286Z" style="fill:rgb(235,235,235);"/>
        </g>
    </g>
</svg>
