<?xml version="1.0" encoding="UTF-8" standalone="no"?>
<!DOCTYPE svg PUBLIC "-//W3C//DTD SVG 1.1//EN" "http://www.w3.org/Graphics/SVG/1.1/DTD/svg11.dtd">
<svg width="100%" height="100%" viewBox="0 0 8 8" version="1.1" xmlns="http://www.w3.org/2000/svg" xmlns:xlink="http://www.w3.org/1999/xlink" xml:space="preserve" xmlns:serif="http://www.serif.com/" style="fill-rule:evenodd;clip-rule:evenodd;stroke-linejoin:round;stroke-miterlimit:2;">
    <g transform="matrix(4.53302e-17,-0.740298,0.740298,4.53302e-17,-4.97289,12.8852)">
        <path d="M6.599,9.419L6.599,6.717L9.301,6.717C9.301,8.208 8.09,9.419 6.599,9.419Z" style="fill:white;fill-opacity:0.1;"/>
    </g>
    <g transform="matrix(0.740298,0,0,0.740298,-4.88517,-4.97289)">
        <circle cx="12.002" cy="12.121" r="2.702" style="fill:white;fill-opacity:0.1;"/>
    </g>
    <g transform="matrix(0.740298,0,0,0.740298,-4.88517,-4.97289)">
        <path d="M6.599,9.419L6.599,6.717L9.301,6.717C9.301,8.208 8.09,9.419 6.599,9.419Z" style="fill:white;fill-opacity:0.1;"/>
    </g>
    <g transform="matrix(2.77556e-17,0.740298,-0.740298,2.77556e-17,12.9729,-4.88517)">
        <path d="M6.599,9.419L6.599,6.717L9.301,6.717C9.301,8.208 8.09,9.419 6.599,9.419Z" style="fill:white;fill-opacity:0.1;"/>
    </g>
    <g transform="matrix(-0.740298,9.06603e-17,-9.06603e-17,-0.740298,12.8852,12.9729)">
        <path d="M6.599,9.419L6.599,6.717L9.301,6.717C9.301,8.208 8.09,9.419 6.599,9.419Z" style="fill:white;fill-opacity:0.1;"/>
    </g>
</svg>
