<?xml version="1.0" encoding="UTF-8" standalone="no"?>
<!DOCTYPE svg PUBLIC "-//W3C//DTD SVG 1.1//EN" "http://www.w3.org/Graphics/SVG/1.1/DTD/svg11.dtd">
<svg width="100%" height="100%" viewBox="0 0 2996 3075" version="1.1" xmlns="http://www.w3.org/2000/svg" xmlns:xlink="http://www.w3.org/1999/xlink" xml:space="preserve" xmlns:serif="http://www.serif.com/" style="fill-rule:evenodd;clip-rule:evenodd;stroke-linejoin:round;stroke-miterlimit:2;">
    <g transform="matrix(28.0709,0,0,28.0709,-3172.55,-3106.16)">
        <path d="M113.019,111.821L113.019,110.654L115.736,110.654C115.033,111.348 114.076,111.789 113.019,111.821ZM121.419,110.654C122.258,111.381 122.795,112.446 122.811,113.638C122.839,115.851 121.022,117.689 118.795,117.7C116.544,117.711 114.766,115.935 114.768,113.678C114.769,112.467 115.288,111.388 116.119,110.654L121.419,110.654ZM127.459,110.654C126.736,111.364 125.749,111.807 124.672,111.812C123.566,111.818 122.565,111.375 121.839,110.654L127.459,110.654ZM133.096,110.654C133.955,111.39 134.503,112.483 134.5,113.691C134.495,115.884 132.675,117.69 130.494,117.668C128.308,117.646 126.533,115.823 126.56,113.625C126.574,112.444 127.119,111.377 127.964,110.654L133.096,110.654ZM139.111,110.654C138.422,111.315 137.488,111.724 136.446,111.739C135.4,111.755 134.431,111.336 133.711,110.654L139.111,110.654ZM144.694,110.654C145.596,111.363 146.165,112.467 146.155,113.721C146.138,115.851 144.417,117.54 142.271,117.535C140.125,117.531 138.418,115.831 138.411,113.693C138.407,112.457 138.977,111.361 139.874,110.654L144.694,110.654ZM150.676,110.654C149.989,111.258 149.088,111.625 148.115,111.615C147.164,111.605 146.299,111.243 145.641,110.654L150.676,110.654ZM156.187,110.654C157.128,111.316 157.734,112.409 157.738,113.668C157.744,115.75 156.107,117.39 154.028,117.387C151.975,117.383 150.283,115.682 150.309,113.649C150.324,112.413 150.952,111.319 151.902,110.654L156.187,110.654ZM162.141,110.654C161.503,111.15 160.699,111.441 159.835,111.424C159.015,111.408 158.27,111.124 157.678,110.654L162.141,110.654ZM167.563,110.654C168.615,111.259 169.304,112.397 169.292,113.727C169.274,115.657 167.737,117.176 165.798,117.18C163.842,117.184 162.233,115.571 162.268,113.639C162.291,112.358 162.996,111.25 164.035,110.654L167.563,110.654ZM173.501,110.654C172.957,111.011 172.309,111.216 171.623,111.204C170.968,111.193 170.357,110.992 169.84,110.654L173.501,110.654ZM178.665,110.654C179.889,111.113 180.783,112.294 180.796,113.658C180.814,115.412 179.343,116.898 177.576,116.911C175.783,116.925 174.348,115.504 174.337,113.707C174.33,112.301 175.189,111.113 176.415,110.654L178.665,110.654ZM184.525,110.654C184.185,110.784 183.814,110.855 183.427,110.855C183.032,110.855 182.656,110.784 182.313,110.654L184.525,110.654ZM113.019,212.284C113.713,212.338 114.215,212.85 114.236,213.559C114.257,214.302 113.744,214.87 113.019,214.926L113.019,212.284ZM113.019,199.634C114.17,199.701 115.113,200.71 115.092,201.885C115.072,203.031 114.144,203.992 113.019,204.059L113.019,199.634ZM113.019,187.367C114.506,187.43 115.63,188.612 115.618,190.122C115.605,191.597 114.471,192.762 113.019,192.822L113.019,187.367ZM113.019,175.212C114.726,175.277 116.027,176.637 116.012,178.373C115.999,180.063 114.695,181.401 113.019,181.467L113.019,175.212ZM113.019,163.15C114.868,163.211 116.371,164.77 116.346,166.619C116.321,168.458 114.85,169.932 113.019,170.008L113.019,163.15ZM113.019,151.178C114.993,151.247 116.549,152.818 116.565,154.794C116.581,156.795 115.012,158.412 113.019,158.472L113.019,151.178ZM113.019,139.243C115.084,139.312 116.733,140.983 116.745,143.052C116.756,145.133 115.097,146.83 113.019,146.895L113.019,139.243ZM113.019,127.354C115.126,127.424 116.811,129.146 116.829,131.278C116.848,133.443 115.147,135.212 113.019,135.278L113.019,127.354ZM113.019,115.546C115.156,115.61 116.905,117.383 116.926,119.531C116.948,121.692 115.181,123.502 113.019,123.572L113.019,115.546ZM151.95,119.523C151.979,121.596 150.253,123.347 148.174,123.356C146.091,123.365 144.378,121.644 144.383,119.549C144.388,117.457 146.118,115.74 148.196,115.764C150.239,115.788 151.922,117.473 151.95,119.523ZM134.378,137.217C134.363,139.342 132.628,141.036 130.483,141.02C128.343,141.003 126.68,139.283 126.71,137.12C126.74,135.015 128.422,133.361 130.531,133.363C132.665,133.365 134.392,135.095 134.378,137.217ZM140.263,131.321C140.26,133.444 138.539,135.151 136.403,135.15C134.255,135.149 132.569,133.459 132.572,131.309C132.575,129.162 134.268,127.475 136.415,127.478C138.547,127.481 140.266,129.199 140.263,131.321ZM142.192,129.258C140.101,129.222 138.458,127.514 138.476,125.393C138.493,123.286 140.176,121.614 142.282,121.614C144.412,121.614 146.154,123.367 146.124,125.482C146.095,127.609 144.339,129.295 142.192,129.258ZM124.668,146.88C122.58,146.89 120.875,145.204 120.859,143.111C120.843,141.008 122.503,139.292 124.587,139.259C126.698,139.225 128.479,140.975 128.473,143.078C128.466,145.149 126.744,146.87 124.668,146.88ZM142.25,140.938C140.204,140.915 138.517,139.2 138.536,137.162C138.555,135.118 140.275,133.428 142.313,133.45C144.383,133.474 146.013,135.142 146,137.224C145.988,139.292 144.302,140.962 142.25,140.938ZM183.411,164.318C184.689,164.31 185.731,165.348 185.713,166.611C185.695,167.841 184.688,168.834 183.449,168.843C182.185,168.851 181.203,167.905 181.173,166.649C181.144,165.34 182.116,164.326 183.411,164.318ZM148.129,187.658C149.437,187.638 150.576,188.744 150.6,190.058C150.624,191.361 149.511,192.502 148.196,192.524C146.873,192.545 145.763,191.458 145.748,190.125C145.732,188.786 146.802,187.678 148.129,187.658ZM130.587,193.549C131.868,193.589 132.933,194.678 132.941,195.956C132.95,197.271 131.828,198.397 130.517,198.389C129.196,198.382 128.106,197.264 128.125,195.934C128.143,194.61 129.28,193.508 130.587,193.549ZM195.119,140.734C196.449,140.699 197.5,141.708 197.515,143.035C197.53,144.366 196.51,145.413 195.192,145.42C193.896,145.427 192.802,144.342 192.81,143.06C192.818,141.805 193.848,140.767 195.119,140.734ZM118.766,193.496C120.152,193.492 121.264,194.586 121.27,195.959C121.275,197.332 120.169,198.438 118.786,198.442C117.385,198.447 116.294,197.371 116.289,195.979C116.283,194.589 117.37,193.499 118.766,193.496ZM201.113,123.147C202.395,123.169 203.382,124.185 203.368,125.467C203.354,126.748 202.349,127.731 201.056,127.73C199.778,127.728 198.75,126.721 198.737,125.458C198.724,124.163 199.791,123.125 201.113,123.147ZM201.062,111.311C202.367,111.313 203.411,112.369 203.408,113.688C203.406,115.003 202.353,116.064 201.052,116.06C199.763,116.055 198.675,114.965 198.678,113.679C198.681,112.391 199.77,111.309 201.062,111.311ZM177.539,170.184C178.828,170.18 179.842,171.174 179.849,172.447C179.856,173.72 178.849,174.729 177.564,174.735C176.274,174.74 175.263,173.749 175.256,172.472C175.249,171.194 176.254,170.187 177.539,170.184ZM171.715,176.061C172.992,176.08 173.991,177.108 173.969,178.377C173.947,179.647 172.923,180.626 171.634,180.61C170.354,180.595 169.366,179.576 169.388,178.296C169.411,177.016 170.426,176.042 171.715,176.061ZM124.593,199.697C125.814,199.663 126.777,200.591 126.791,201.815C126.804,203.044 125.872,204.002 124.657,204.006C123.475,204.01 122.463,203.003 122.473,201.831C122.483,200.693 123.44,199.73 124.593,199.697ZM142.387,193.717C143.604,193.769 144.606,194.845 144.557,196.045C144.505,197.307 143.411,198.289 142.137,198.217C140.9,198.146 139.998,197.12 140.05,195.844C140.102,194.604 141.134,193.664 142.387,193.717ZM189.278,158.489C190.486,158.471 191.516,159.508 191.501,160.729C191.488,161.913 190.505,162.904 189.327,162.921C188.125,162.938 187.089,161.895 187.102,160.68C187.115,159.506 188.108,158.506 189.278,158.489ZM165.834,181.969C167.047,181.992 168.079,183.055 168.051,184.254C168.024,185.468 166.973,186.476 165.756,186.456C164.516,186.435 163.551,185.429 163.569,184.175C163.586,182.932 164.601,181.945 165.834,181.969ZM200.999,135.044C202.221,135.009 203.184,135.936 203.199,137.16C203.213,138.39 202.282,139.348 201.067,139.353C199.885,139.358 198.873,138.351 198.882,137.18C198.891,136.041 199.846,135.077 200.999,135.044ZM195.198,152.76C196.324,152.766 197.252,153.675 197.273,154.791C197.295,155.941 196.339,156.896 195.171,156.89C194.019,156.885 193.136,156.012 193.121,154.862C193.104,153.668 194.008,152.753 195.198,152.76ZM159.95,187.972C161.17,187.989 162.082,188.949 162.042,190.176C162.005,191.347 161.066,192.231 159.88,192.214C158.723,192.196 157.766,191.247 157.757,190.106C157.748,188.929 158.748,187.956 159.95,187.972ZM206.873,129.433C207.96,129.405 208.822,130.208 208.846,131.274C208.869,132.34 208.036,133.192 206.959,133.201C205.876,133.21 205.028,132.379 205.032,131.311C205.035,130.282 205.841,129.46 206.873,129.433ZM201.065,147.065C202.15,147.067 202.984,147.905 202.97,148.977C202.956,150.045 202.102,150.854 201.01,150.833C199.973,150.813 199.159,150 199.147,148.97C199.135,147.908 199.986,147.062 201.065,147.065ZM154.072,193.959C155.192,193.983 156.072,194.943 156.016,196.078C155.962,197.162 155.011,198.038 153.952,197.978C152.874,197.917 152.005,196.978 152.039,195.909C152.072,194.84 153.014,193.936 154.072,193.959ZM136.389,199.802C137.491,199.791 138.464,200.753 138.461,201.852C138.458,202.918 137.551,203.848 136.476,203.888C135.354,203.929 134.402,203.021 134.382,201.89C134.361,200.754 135.265,199.813 136.389,199.802ZM206.916,117.516C208.018,117.503 208.992,118.463 208.992,119.562C208.991,120.628 208.085,121.56 207.011,121.602C205.89,121.646 204.935,120.738 204.913,119.609C204.891,118.471 205.792,117.53 206.916,117.516ZM136.427,169.916C134.587,169.932 133.04,168.388 133.058,166.554C133.076,164.746 134.568,163.263 136.382,163.251C138.253,163.238 139.732,164.725 139.721,166.608C139.711,168.44 138.257,169.9 136.427,169.916ZM118.778,175.734C116.948,175.737 115.472,174.277 115.469,172.462C115.467,170.648 116.943,169.182 118.771,169.182C120.613,169.183 122.062,170.623 122.064,172.455C122.066,174.287 120.619,175.731 118.778,175.734ZM130.569,175.687C128.776,175.707 127.333,174.291 127.317,172.497C127.302,170.691 128.705,169.245 130.492,169.227C132.26,169.209 133.749,170.656 133.776,172.42C133.804,174.171 132.336,175.667 130.569,175.687ZM165.774,152.169C164.028,152.159 162.612,150.75 162.591,149.001C162.569,147.199 163.982,145.741 165.767,145.725C167.529,145.709 169.025,147.185 169.028,148.944C169.031,150.702 167.541,152.179 165.774,152.169ZM171.627,116.188C173.465,116.157 174.996,117.661 175.016,119.519C175.036,121.384 173.565,122.904 171.711,122.936C169.89,122.967 168.327,121.438 168.304,119.602C168.281,117.765 169.786,116.219 171.627,116.188ZM171.635,134.591C169.811,134.576 168.341,133.084 168.369,131.277C168.397,129.455 169.876,128.022 171.71,128.039C173.546,128.057 174.979,129.517 174.962,131.353C174.945,133.18 173.479,134.606 171.635,134.591ZM159.906,158.054C158.117,158.05 156.7,156.616 156.705,154.813C156.71,153.015 158.142,151.586 159.931,151.594C161.697,151.602 163.173,153.083 163.164,154.839C163.155,156.599 161.676,158.058 159.906,158.054ZM177.536,140.254C175.832,140.249 174.498,138.928 174.479,137.227C174.461,135.488 175.82,134.125 177.566,134.131C179.255,134.137 180.614,135.48 180.631,137.159C180.649,138.882 179.271,140.26 177.536,140.254ZM148.146,169.783C146.412,169.775 144.979,168.335 144.974,166.593C144.969,164.848 146.385,163.403 148.124,163.378C149.889,163.353 151.376,164.846 151.352,166.618C151.327,168.36 149.877,169.791 148.146,169.783ZM154.089,163.925C152.303,163.952 150.846,162.521 150.835,160.728C150.825,158.93 152.255,157.479 154.039,157.479C155.802,157.479 157.291,158.975 157.273,160.727C157.256,162.451 155.815,163.898 154.089,163.925ZM171.655,146.246C169.924,146.235 168.479,144.762 168.502,143.032C168.524,141.333 169.935,139.922 171.636,139.897C173.379,139.872 174.812,141.298 174.817,143.061C174.821,144.825 173.398,146.258 171.655,146.246ZM177.576,122.235C179.312,122.255 180.743,123.705 180.741,125.442C180.738,127.216 179.229,128.692 177.47,128.64C175.726,128.589 174.337,127.135 174.362,125.385C174.387,123.648 175.85,122.215 177.576,122.235ZM142.28,175.565C140.57,175.565 139.161,174.177 139.145,172.48C139.129,170.75 140.582,169.328 142.335,169.354C144.068,169.38 145.402,170.747 145.391,172.486C145.38,174.216 144.016,175.566 142.28,175.565ZM124.646,181.426C122.928,181.424 121.524,180.032 121.528,178.331C121.532,176.627 122.933,175.246 124.656,175.249C126.395,175.251 127.752,176.608 127.75,178.341C127.749,180.073 126.385,181.427 124.646,181.426ZM165.8,157.709C167.438,157.715 168.768,159.062 168.764,160.711C168.761,162.359 167.42,163.703 165.786,163.699C164.166,163.694 162.807,162.323 162.811,160.697C162.814,159.069 164.181,157.703 165.8,157.709ZM183.393,128.34C185.028,128.317 186.372,129.654 186.375,131.308C186.379,132.964 185.045,134.306 183.408,134.294C181.782,134.282 180.429,132.9 180.453,131.275C180.477,129.682 181.798,128.363 183.393,128.34ZM183.39,116.524C185.057,116.506 186.455,117.862 186.482,119.522C186.509,121.17 185.131,122.575 183.468,122.594C181.774,122.614 180.424,121.292 180.409,119.599C180.394,117.896 181.707,116.541 183.39,116.524ZM159.873,163.588C161.501,163.558 162.861,164.891 162.884,166.539C162.907,168.19 161.6,169.546 159.957,169.576C158.346,169.605 156.956,168.248 156.934,166.623C156.912,164.993 158.244,163.618 159.873,163.588ZM136.445,175.307C138.065,175.328 139.42,176.68 139.446,178.301C139.473,179.949 138.081,181.356 136.418,181.363C134.739,181.369 133.392,180.013 133.397,178.323C133.402,176.638 134.771,175.284 136.445,175.307ZM171.606,151.851C173.237,151.805 174.602,153.135 174.619,154.787C174.637,156.448 173.328,157.793 171.684,157.804C170.065,157.816 168.691,156.441 168.698,154.816C168.704,153.225 170.007,151.896 171.606,151.851ZM169.261,125.478C169.24,127.394 167.67,128.908 165.731,128.883C163.797,128.858 162.304,127.298 162.35,125.349C162.394,123.448 163.903,121.984 165.812,121.991C167.737,121.997 169.283,123.56 169.261,125.478ZM134.019,160.743C134.002,162.674 132.458,164.19 130.514,164.184C128.584,164.177 127.024,162.628 127.018,160.712C127.011,158.759 128.614,157.195 130.593,157.224C132.53,157.253 134.036,158.8 134.019,160.743ZM163.433,131.308C163.436,133.287 161.861,134.867 159.898,134.856C157.952,134.844 156.342,133.21 156.369,131.275C156.395,129.366 157.967,127.802 159.883,127.78C161.849,127.758 163.43,129.328 163.433,131.308ZM154.021,152.377C152.122,152.37 150.624,150.861 150.622,148.952C150.62,147.045 152.118,145.528 154.012,145.516C155.937,145.505 157.518,147.086 157.489,148.992C157.459,150.871 155.91,152.384 154.021,152.377ZM148.178,158.249C146.282,158.258 144.76,156.742 144.754,154.84C144.749,152.934 146.258,151.405 148.149,151.399C150.024,151.393 151.592,152.943 151.603,154.811C151.614,156.676 150.054,158.241 148.178,158.249ZM165.857,140.58C164.039,140.626 162.465,139.116 162.419,137.283C162.373,135.404 163.902,133.819 165.775,133.806C167.612,133.793 169.133,135.298 169.157,137.152C169.18,139.005 167.708,140.533 165.857,140.58ZM159.93,146.488C158.05,146.495 156.522,144.971 156.518,143.083C156.513,141.192 158.029,139.657 159.906,139.652C161.769,139.647 163.336,141.2 163.346,143.059C163.355,144.914 161.795,146.479 159.93,146.488ZM142.327,164.112C140.458,164.139 138.901,162.601 138.893,160.721C138.885,158.837 140.419,157.288 142.29,157.293C144.152,157.298 145.716,158.879 145.693,160.734C145.671,162.566 144.157,164.086 142.327,164.112ZM124.651,169.997C122.763,169.998 121.242,168.457 121.252,166.554C121.263,164.662 122.82,163.131 124.704,163.162C126.538,163.192 128.062,164.725 128.078,166.558C128.097,168.421 126.526,169.997 124.651,169.997ZM140.123,143.105C140.108,145.173 138.42,146.841 136.369,146.815C134.322,146.789 132.637,145.073 132.659,143.035C132.681,140.991 134.403,139.303 136.439,139.328C138.51,139.355 140.137,141.023 140.123,143.105ZM124.625,158.457C122.617,158.448 121.037,156.863 121.027,154.847C121.018,152.828 122.583,151.219 124.583,151.192C126.624,151.164 128.291,152.782 128.304,154.804C128.317,156.825 126.666,158.466 124.625,158.457ZM134.219,149.063C134.172,151.088 132.512,152.666 130.462,152.634C128.438,152.602 126.798,150.937 126.812,148.93C126.826,146.877 128.524,145.23 130.595,145.264C132.678,145.299 134.267,146.965 134.219,149.063ZM157.716,125.445C157.712,127.487 156.089,129.097 154.034,129.096C151.991,129.096 150.354,127.462 150.358,125.43C150.364,123.396 152.003,121.773 154.048,121.778C156.101,121.783 157.719,123.401 157.716,125.445ZM151.867,131.354C151.852,133.429 150.16,135.083 148.097,135.04C146.075,134.998 144.429,133.333 144.422,131.325C144.415,129.281 146.122,127.583 148.174,127.594C150.257,127.605 151.882,129.259 151.867,131.354ZM151.784,143.103C151.759,145.078 150.103,146.7 148.129,146.683C146.137,146.666 144.553,145.045 144.566,143.037C144.58,141.041 146.206,139.436 148.195,139.455C150.166,139.474 151.809,141.144 151.784,143.103ZM163.54,119.534C163.559,121.495 161.915,123.159 159.943,123.173C157.95,123.187 156.332,121.584 156.321,119.586C156.311,117.58 157.901,115.959 159.892,115.945C161.863,115.932 163.52,117.562 163.54,119.534ZM122.316,160.628C122.354,162.634 120.759,164.276 118.773,164.277C116.843,164.278 115.223,162.665 115.209,160.729C115.195,158.792 116.779,157.17 118.721,157.131C120.659,157.093 122.279,158.669 122.316,160.628ZM139.951,154.862C139.933,156.823 138.338,158.409 136.394,158.4C134.46,158.392 132.848,156.775 132.841,154.839C132.833,152.865 134.508,151.207 136.464,151.253C138.426,151.299 139.969,152.895 139.951,154.862ZM142.276,152.554C140.289,152.549 138.682,150.916 138.696,148.916C138.71,146.925 140.361,145.305 142.34,145.341C144.28,145.377 145.879,146.993 145.892,148.931C145.905,150.899 144.249,152.557 142.276,152.554ZM157.625,137.234C157.597,139.214 155.935,140.832 153.973,140.789C152.034,140.747 150.462,139.143 150.458,137.201C150.455,135.22 152.086,133.584 154.055,133.595C156.028,133.607 157.654,135.264 157.625,137.234ZM124.616,123.561C122.427,123.542 120.664,121.75 120.668,119.549C120.673,117.352 122.45,115.565 124.638,115.557C126.812,115.551 128.627,117.341 128.657,119.522C128.687,121.722 126.828,123.58 124.616,123.561ZM122.762,125.515C122.704,127.713 120.871,129.478 118.696,129.431C116.506,129.384 114.765,127.565 114.798,125.36C114.831,123.178 116.679,121.392 118.851,121.444C121.034,121.495 122.82,123.354 122.762,125.515ZM177.524,146.062C179.165,146.053 180.45,147.321 180.45,148.948C180.45,150.575 179.163,151.845 177.525,151.835C175.939,151.826 174.667,150.578 174.632,148.997C174.596,147.397 175.902,146.072 177.524,146.062ZM183.405,140.243C184.96,140.231 186.297,141.579 186.259,143.122C186.222,144.65 184.922,145.911 183.4,145.896C181.861,145.881 180.619,144.618 180.62,143.069C180.621,141.521 181.867,140.256 183.405,140.243ZM118.727,181.261C120.373,181.232 121.708,182.556 121.706,184.219C121.704,185.84 120.431,187.14 118.815,187.172C117.197,187.203 115.807,185.833 115.81,184.209C115.813,182.617 117.125,181.29 118.727,181.261ZM189.3,122.611C190.818,122.609 192.115,123.888 192.137,125.408C192.16,126.956 190.817,128.288 189.261,128.263C187.722,128.238 186.489,126.969 186.498,125.419C186.506,123.873 187.764,122.613 189.3,122.611ZM130.539,181.353C132.128,181.356 133.402,182.617 133.412,184.197C133.422,185.815 132.114,187.096 130.476,187.074C128.882,187.052 127.646,185.782 127.663,184.182C127.681,182.584 128.935,181.349 130.539,181.353ZM148.123,175.485C149.714,175.47 151.008,176.718 151.033,178.294C151.059,179.866 149.788,181.165 148.206,181.185C146.598,181.204 145.337,179.979 145.32,178.377C145.302,176.77 146.532,175.501 148.123,175.485ZM189.279,110.832C190.871,110.822 192.161,112.078 192.178,113.655C192.195,115.229 190.922,116.518 189.336,116.533C187.728,116.547 186.473,115.316 186.461,113.711C186.449,112.104 187.685,110.842 189.279,110.832ZM154.102,169.535C155.738,169.573 156.973,170.855 156.957,172.499C156.94,174.124 155.647,175.398 154.02,175.389C152.417,175.382 151.09,174.06 151.084,172.467C151.079,170.836 152.456,169.497 154.102,169.535ZM159.886,175.701C161.34,175.684 162.591,176.936 162.561,178.378C162.53,179.8 161.321,180.977 159.9,180.969C158.46,180.961 157.305,179.793 157.302,178.344C157.299,176.894 158.449,175.718 159.886,175.701ZM124.633,187.405C126.138,187.399 127.323,188.539 127.354,190.023C127.386,191.559 126.208,192.769 124.671,192.779C123.15,192.789 121.909,191.559 121.931,190.062C121.953,188.59 123.152,187.411 124.633,187.405ZM195.131,116.926C196.584,116.897 197.841,118.135 197.825,119.582C197.81,120.999 196.606,122.189 195.186,122.193C193.748,122.196 192.58,121.034 192.568,119.588C192.556,118.137 193.694,116.955 195.131,116.926ZM171.686,163.92C173.168,163.928 174.362,165.122 174.355,166.593C174.349,168.065 173.151,169.242 171.663,169.24C170.164,169.238 169.005,168.071 169.011,166.569C169.017,165.07 170.185,163.913 171.686,163.92ZM189.314,134.521C190.805,134.524 191.989,135.696 191.998,137.177C192.007,138.699 190.791,139.888 189.25,139.865C187.763,139.842 186.595,138.643 186.614,137.161C186.634,135.676 187.818,134.518 189.314,134.521ZM177.646,158.054C179.073,158.097 180.234,159.303 180.221,160.725C180.208,162.191 178.987,163.371 177.505,163.352C176.012,163.332 174.882,162.147 174.912,160.633C174.941,159.14 176.143,158.008 177.646,158.054ZM142.295,181.456C143.812,181.465 145.015,182.678 145.02,184.203C145.024,185.726 143.829,186.952 142.316,186.977C140.799,187.001 139.491,185.694 139.516,184.177C139.54,182.684 140.802,181.449 142.295,181.456ZM165.837,169.798C167.314,169.817 168.499,171.03 168.477,172.499C168.454,173.971 167.248,175.132 165.756,175.117C164.261,175.103 163.117,173.924 163.137,172.418C163.156,170.92 164.333,169.778 165.837,169.798ZM154.078,181.682C155.499,181.704 156.582,182.825 156.565,184.256C156.549,185.672 155.412,186.776 153.997,186.752C152.601,186.728 151.448,185.549 151.477,184.174C151.506,182.783 152.677,181.661 154.078,181.682ZM136.448,187.467C137.869,187.494 139.057,188.722 139.028,190.133C138.999,191.559 137.78,192.74 136.365,192.714C134.933,192.687 133.782,191.491 133.802,190.05C133.821,188.618 135.028,187.439 136.448,187.467ZM189.269,146.475C190.662,146.461 191.781,147.537 191.8,148.911C191.82,150.289 190.726,151.407 189.343,151.422C187.938,151.437 186.837,150.375 186.815,148.986C186.794,147.597 187.876,146.49 189.269,146.475ZM195.217,128.809C196.602,128.825 197.682,129.901 197.697,131.28C197.713,132.704 196.616,133.82 195.193,133.826C193.784,133.832 192.628,132.692 192.637,131.304C192.646,129.911 193.803,128.792 195.217,128.809ZM183.402,152.217C184.823,152.199 186.021,153.395 186.021,154.828C186.02,156.26 184.82,157.454 183.4,157.436C181.975,157.417 180.807,156.207 180.832,154.777C180.857,153.389 182.018,152.234 183.402,152.217ZM177.536,182.417C178.521,182.408 179.327,183.226 179.321,184.229C179.314,185.227 178.485,186.043 177.507,186.014C176.571,185.987 175.77,185.183 175.75,184.25C175.729,183.281 176.562,182.427 177.536,182.417ZM189.297,170.701C190.309,170.698 191.072,171.482 191.051,172.504C191.032,173.471 190.269,174.224 189.307,174.226C188.333,174.228 187.491,173.375 187.52,172.416C187.548,171.479 188.351,170.704 189.297,170.701ZM171.761,188.402C172.696,188.44 173.408,189.197 173.388,190.131C173.367,191.103 172.582,191.822 171.585,191.782C170.654,191.745 169.929,190.978 169.953,190.053C169.977,189.086 170.77,188.362 171.761,188.402ZM148.169,200.043C149.114,200.048 149.906,200.83 149.935,201.786C149.965,202.787 149.18,203.631 148.195,203.656C147.235,203.679 146.367,202.831 146.36,201.861C146.353,200.89 147.201,200.037 148.169,200.043ZM183.392,176.534C184.37,176.51 185.2,177.333 185.204,178.331C185.207,179.326 184.382,180.158 183.405,180.143C182.436,180.129 181.602,179.262 181.626,178.295C181.65,177.361 182.455,176.557 183.392,176.534ZM118.69,205.879C119.684,205.827 120.601,206.686 120.624,207.69C120.647,208.646 119.826,209.517 118.857,209.567C117.839,209.619 116.965,208.79 116.948,207.759C116.932,206.759 117.7,205.931 118.69,205.879ZM130.521,206.033C131.501,206.031 132.254,206.777 132.246,207.741C132.237,208.706 131.474,209.433 130.49,209.416C129.522,209.399 128.768,208.611 128.809,207.66C128.848,206.737 129.586,206.035 130.521,206.033ZM195.211,164.917C196.118,164.932 196.898,165.742 196.865,166.633C196.833,167.499 196.081,168.23 195.207,168.242C194.263,168.256 193.533,167.53 193.535,166.579C193.536,165.633 194.274,164.901 195.211,164.917ZM212.886,112.033C213.748,112.077 214.485,112.853 214.472,113.704C214.458,114.601 213.64,115.372 212.747,115.331C211.869,115.29 211.175,114.55 211.185,113.663C211.195,112.744 211.984,111.988 212.886,112.033ZM206.957,141.406C207.86,141.417 208.637,142.2 208.627,143.09C208.616,143.986 207.833,144.741 206.922,144.734C205.984,144.727 205.275,144 205.284,143.054C205.292,142.113 206.021,141.395 206.957,141.406ZM142.295,206.242C143.121,206.246 143.785,206.895 143.795,207.707C143.805,208.519 143.153,209.185 142.33,209.205C141.482,209.226 140.83,208.623 140.797,207.79C140.763,206.913 141.416,206.237 142.295,206.242ZM201.116,159.222C201.943,159.247 202.587,159.916 202.572,160.734C202.556,161.552 201.895,162.186 201.058,162.186C200.174,162.186 199.525,161.508 199.568,160.627C199.608,159.796 200.268,159.197 201.116,159.222ZM212.818,123.905C213.698,123.907 214.36,124.57 214.357,125.446C214.354,126.318 213.683,126.981 212.806,126.976C211.948,126.972 211.233,126.268 211.237,125.433C211.241,124.593 211.954,123.904 212.818,123.905ZM212.831,135.899C213.584,135.908 214.135,136.449 214.14,137.185C214.145,137.961 213.556,138.514 212.753,138.488C212.024,138.463 211.46,137.871 211.484,137.156C211.507,136.437 212.093,135.891 212.831,135.899ZM159.912,200.463C160.662,200.46 161.27,201.065 161.281,201.824C161.292,202.579 160.703,203.211 159.961,203.24C159.237,203.267 158.565,202.652 158.52,201.923C158.473,201.159 159.135,200.465 159.912,200.463ZM165.81,194.371C166.664,194.381 167.35,195.075 167.363,195.941C167.378,196.846 166.655,197.586 165.772,197.571C164.942,197.555 164.211,196.828 164.194,196C164.175,195.135 164.944,194.361 165.81,194.371ZM189.269,183.168C189.812,183.145 190.336,183.651 190.344,184.204C190.351,184.752 189.836,185.27 189.292,185.262C188.739,185.254 188.256,184.74 188.275,184.179C188.293,183.658 188.752,183.191 189.269,183.168ZM206.937,153.553C207.646,153.553 208.249,154.155 208.237,154.848C208.224,155.546 207.608,156.12 206.895,156.099C206.161,156.077 205.641,155.505 205.675,154.757C205.707,154.06 206.239,153.553 206.937,153.553ZM136.392,212.533C136.989,212.524 137.525,213.072 137.49,213.656C137.457,214.216 136.947,214.681 136.382,214.667C135.805,214.654 135.349,214.18 135.352,213.597C135.355,213.019 135.821,212.542 136.392,212.533ZM124.691,212.328C125.397,212.348 125.986,212.973 125.949,213.663C125.912,214.365 125.284,214.915 124.569,214.874C123.879,214.834 123.38,214.292 123.386,213.591C123.392,212.853 123.956,212.307 124.691,212.328ZM154.03,206.64C154.654,206.634 155.161,207.128 155.155,207.736C155.149,208.344 154.634,208.825 154.007,208.807C153.361,208.79 152.917,208.31 152.949,207.665C152.979,207.067 153.424,206.645 154.03,206.64ZM218.716,118.512C219.265,118.529 219.753,119.061 219.726,119.611C219.699,120.166 219.16,120.651 218.62,120.606C218.062,120.56 217.614,120.024 217.666,119.466C217.715,118.951 218.214,118.497 218.716,118.512ZM134.437,125.432C134.439,127.609 132.726,129.348 130.557,129.372C128.388,129.396 126.562,127.565 126.589,125.394C126.617,123.249 128.405,121.493 130.546,121.508C132.716,121.522 134.436,123.257 134.437,125.432ZM140.305,119.607C140.287,121.777 138.525,123.504 136.358,123.473C134.201,123.443 132.44,121.647 132.474,119.513C132.509,117.358 134.297,115.622 136.452,115.651C138.633,115.681 140.323,117.415 140.305,119.607ZM124.667,135.248C122.533,135.263 120.739,133.498 120.712,131.357C120.685,129.184 122.505,127.362 124.681,127.385C126.853,127.409 128.562,129.144 128.56,131.322C128.557,133.496 126.833,135.234 124.667,135.248ZM122.504,148.993C122.483,151.054 120.794,152.726 118.75,152.71C116.711,152.694 115.019,150.99 115.017,148.952C115.015,146.874 116.781,145.137 118.841,145.189C120.908,145.242 122.525,146.922 122.504,148.993ZM122.658,137.285C122.621,139.416 120.884,141.09 118.729,141.071C116.594,141.052 114.869,139.324 114.865,137.199C114.861,135.036 116.634,133.294 118.816,133.316C121.006,133.338 122.697,135.085 122.658,137.285ZM148.122,212.9C148.557,212.881 148.888,213.175 148.896,213.589C148.906,214.008 148.592,214.309 148.153,214.308C147.72,214.307 147.49,214.065 147.433,213.665C147.374,213.258 147.697,212.918 148.122,212.9ZM177.562,195.066C178.095,195.071 178.486,195.46 178.481,195.98C178.476,196.498 178.078,196.877 177.541,196.872C177.012,196.867 176.604,196.468 176.61,195.96C176.616,195.453 177.033,195.061 177.562,195.066ZM218.644,130.44C219.104,130.414 219.54,130.784 219.587,131.24C219.638,131.727 219.212,132.184 218.702,132.191C218.214,132.197 217.842,131.836 217.828,131.345C217.814,130.853 218.163,130.466 218.644,130.44ZM171.619,201.087C172.085,201.056 172.436,201.381 172.437,201.845C172.438,202.267 172.135,202.594 171.721,202.618C171.306,202.642 170.873,202.251 170.871,201.85C170.87,201.482 171.231,201.114 171.619,201.087ZM195.16,177.36C195.709,177.347 196.154,177.79 196.149,178.346C196.145,178.86 195.747,179.286 195.24,179.32C194.728,179.353 194.208,178.891 194.182,178.379C194.156,177.855 194.619,177.373 195.16,177.36ZM201.06,171.598C201.497,171.598 201.94,172.052 201.926,172.485C201.912,172.926 201.452,173.345 201.011,173.318C200.54,173.288 200.181,172.867 200.22,172.388C200.255,171.955 200.635,171.597 201.06,171.598ZM183.423,189.052C183.937,189.05 184.421,189.519 184.447,190.043C184.475,190.603 183.979,191.133 183.427,191.134C182.911,191.134 182.429,190.668 182.403,190.143C182.374,189.58 182.867,189.054 183.423,189.052ZM212.794,148.044C213.343,148.033 213.739,148.399 213.75,148.929C213.761,149.463 213.382,149.848 212.836,149.858C212.3,149.868 211.876,149.482 211.864,148.972C211.852,148.465 212.263,148.055 212.794,148.044ZM118.796,218.782C119.188,218.796 119.483,219.077 119.5,219.451C119.519,219.859 119.192,220.169 118.749,220.163C118.344,220.159 118.065,219.895 118.054,219.504C118.042,219.083 118.367,218.766 118.796,218.782ZM130.565,218.782C130.957,218.796 131.253,219.077 131.27,219.451C131.289,219.859 130.962,220.169 130.519,220.163C130.113,220.159 129.834,219.895 129.824,219.504C129.812,219.083 130.136,218.766 130.565,218.782Z" style="fill:white;fill-opacity:0.1;"/>
    </g>
</svg>
