<?xml version="1.0" encoding="UTF-8" standalone="no"?>
<!DOCTYPE svg PUBLIC "-//W3C//DTD SVG 1.1//EN" "http://www.w3.org/Graphics/SVG/1.1/DTD/svg11.dtd">
<svg width="100%" height="100%" viewBox="0 0 1000 1000" version="1.1" xmlns="http://www.w3.org/2000/svg" xmlns:xlink="http://www.w3.org/1999/xlink" xml:space="preserve" xmlns:serif="http://www.serif.com/" style="fill-rule:evenodd;clip-rule:evenodd;stroke-linejoin:round;stroke-miterlimit:2;">
    <g transform="matrix(0.0935061,0,0,0.0935061,-47.8395,-355.942)">
        <path d="M3924.8,6085C3858.45,6085 3796.28,6102.76 3742.7,6133.72C3790.77,6074.8 3819.63,5999.59 3819.63,5917.63C3819.63,5728.69 3666.47,5575.53 3477.53,5575.53C3296.88,5575.53 3149.03,5715.59 3136.41,5893.03C3061.1,5554.38 2758.95,5301.1 2397.58,5301.1C2034.39,5301.1 1730.93,5556.78 1657.49,5897.85C1583.49,5846.58 1493.88,5816.56 1397.02,5816.56C1144.3,5816.56 939.399,6021.46 939.399,6274.21C939.399,6331.34 949.904,6385.94 969.023,6436.39L4289.32,6436.39C4282.23,6241.11 4121.75,6085 3924.77,6085L3924.8,6085Z" style="fill:white;fill-opacity:0.1;fill-rule:nonzero;"/>
    </g>
    <g transform="matrix(0.13472,0,0,0.13472,-416.556,-570.113)">
        <path d="M4716.3,7451C4716.95,7447.05 4717.78,7443.14 4718.24,7439.1C4720.93,7443.17 4723.84,7447.07 4726.73,7451L5301.36,7451C5304.01,7447.4 5306.67,7443.84 5309.17,7440.12C5310.06,7443.78 5311.09,7447.37 5312.01,7451L8362.2,7451C8305.83,7322.58 8177.61,7232.86 8028.36,7232.86C7917.39,7232.86 7818.06,7282.53 7751.2,7360.77C7726.91,7117.85 7521.9,6928.2 7272.64,6928.2C7160.07,6928.2 7056.65,6966.93 6974.72,7031.69C6880.99,6659.78 6544.36,6384.45 6143.34,6384.45C5738.06,6384.45 5398.68,6665.73 5309.18,7043.64C5245.35,6948.78 5136.98,6886.34 5014.03,6886.34C4817.86,6886.34 4658.82,7045.23 4658.53,7241.31C4610.8,7184.88 4539.53,7149.01 4459.82,7149.01C4316.16,7149.01 4199.66,7265.49 4199.66,7409.19C4199.66,7423.41 4200.85,7437.4 4203.06,7450.99L4716.29,7450.99L4716.3,7451Z" style="fill:white;fill-opacity:0.1;fill-rule:nonzero;"/>
    </g>
    <g transform="matrix(0.893375,0,0,0.893375,222.685,-130.656)">
        <path d="M338.988,566.399C320.728,531.06 310.413,490.962 310.413,448.474C310.413,306.383 425.773,191.023 567.864,191.023C709.954,191.023 825.314,306.383 825.314,448.474C825.314,590.565 709.954,705.925 567.864,705.925C497.436,705.925 433.576,677.584 387.074,631.695L545.477,631.695C536.976,612.33 517.639,598.8 495.132,598.8C478.398,598.8 463.419,606.29 453.338,618.089C449.674,581.457 418.76,552.858 381.171,552.858C365.43,552.858 350.873,557.881 338.988,566.399Z" style="fill:white;fill-opacity:0.15;"/>
    </g>
</svg>
