<?xml version="1.0" encoding="UTF-8" standalone="no"?>
<!DOCTYPE svg PUBLIC "-//W3C//DTD SVG 1.1//EN" "http://www.w3.org/Graphics/SVG/1.1/DTD/svg11.dtd">
<svg width="100%" height="100%" viewBox="0 0 600 600" version="1.1" xmlns="http://www.w3.org/2000/svg" xmlns:xlink="http://www.w3.org/1999/xlink" xml:space="preserve" xmlns:serif="http://www.serif.com/" style="fill-rule:evenodd;clip-rule:evenodd;stroke-linejoin:round;stroke-miterlimit:2;">
    <g transform="matrix(0.694085,0,0,0.694085,20.7456,-125.629)">
        <path d="M124.611,415.601L203.611,332.601L291.611,381.101L335.111,385.101L325.611,334.601L346.111,349.101L364.111,342.101L366.611,314.101L396.111,353.601L412.611,323.101L447.611,223.101L570.111,203.601L527.111,247.601L523.111,295.101L483.611,322.601L467.111,387.601L432.111,408.601L425.611,456.101L352.111,432.601L292.111,469.101L253.611,422.601L200.111,445.101L178.111,409.101L124.611,415.601" style="fill-opacity:0.1;"/>
    </g>
    <g transform="matrix(0.694085,0,0,0.694085,167.746,238.371)">
        <path d="M124.611,415.601L203.611,332.601L291.611,381.101L335.111,385.101L325.611,334.601L346.111,349.101L364.111,342.101L366.611,314.101L396.111,353.601L412.611,323.101L447.611,223.101L570.111,203.601L527.111,247.601L523.111,295.101L483.611,322.601L467.111,387.601L432.111,408.601L425.611,456.101L352.111,432.601L292.111,469.101L253.611,422.601L200.111,445.101L178.111,409.101L124.611,415.601" style="fill-opacity:0.1;"/>
    </g>
    <g transform="matrix(0.356199,0,0,0.356199,-16.199,217.5)">
        <path d="M124.611,415.601L203.611,332.601L291.611,381.101L335.111,385.101L325.611,334.601L346.111,349.101L364.111,342.101L366.611,314.101L396.111,353.601L412.611,323.101L447.611,223.101L570.111,203.601L527.111,247.601L523.111,295.101L483.611,322.601L467.111,387.601L432.111,408.601L425.611,456.101L352.111,432.601L292.111,469.101L253.611,422.601L200.111,445.101L178.111,409.101L124.611,415.601" style="fill-opacity:0.1;"/>
    </g>
    <g transform="matrix(0.218692,0,0,0.218692,64.7918,162.206)">
        <path d="M124.611,415.601L203.611,332.601L291.611,381.101L335.111,385.101L325.611,334.601L346.111,349.101L364.111,342.101L366.611,314.101L396.111,353.601L412.611,323.101L447.611,223.101L570.111,203.601L527.111,247.601L523.111,295.101L483.611,322.601L467.111,387.601L432.111,408.601L425.611,456.101L352.111,432.601L292.111,469.101L253.611,422.601L200.111,445.101L178.111,409.101L124.611,415.601" style="fill-opacity:0.1;"/>
    </g>
    <g transform="matrix(0.218692,0,0,0.218692,223.043,194.828)">
        <path d="M124.611,415.601L203.611,332.601L291.611,381.101L335.111,385.101L325.611,334.601L346.111,349.101L364.111,342.101L366.611,314.101L396.111,353.601L412.611,323.101L447.611,223.101L570.111,203.601L527.111,247.601L523.111,295.101L483.611,322.601L467.111,387.601L432.111,408.601L425.611,456.101L352.111,432.601L292.111,469.101L253.611,422.601L200.111,445.101L178.111,409.101L124.611,415.601" style="fill-opacity:0.1;"/>
    </g>
    <g transform="matrix(0.218692,0,0,0.218692,74.0433,442.828)">
        <path d="M124.611,415.601L203.611,332.601L291.611,381.101L335.111,385.101L325.611,334.601L346.111,349.101L364.111,342.101L366.611,314.101L396.111,353.601L412.611,323.101L447.611,223.101L570.111,203.601L527.111,247.601L523.111,295.101L483.611,322.601L467.111,387.601L432.111,408.601L425.611,456.101L352.111,432.601L292.111,469.101L253.611,422.601L200.111,445.101L178.111,409.101L124.611,415.601" style="fill-opacity:0.1;"/>
    </g>
    <g transform="matrix(0.218692,0,0,0.218692,-27.2514,383.828)">
        <path d="M124.611,415.601L203.611,332.601L291.611,381.101L335.111,385.101L325.611,334.601L346.111,349.101L364.111,342.101L366.611,314.101L396.111,353.601L412.611,323.101L447.611,223.101L570.111,203.601L527.111,247.601L523.111,295.101L483.611,322.601L467.111,387.601L432.111,408.601L425.611,456.101L352.111,432.601L292.111,469.101L253.611,422.601L200.111,445.101L178.111,409.101L124.611,415.601" style="fill-opacity:0.1;"/>
    </g>
    <g transform="matrix(0.218692,0,0,0.218692,413.043,229.828)">
        <path d="M124.611,415.601L203.611,332.601L291.611,381.101L335.111,385.101L325.611,334.601L346.111,349.101L364.111,342.101L366.611,314.101L396.111,353.601L412.611,323.101L447.611,223.101L570.111,203.601L527.111,247.601L523.111,295.101L483.611,322.601L467.111,387.601L432.111,408.601L425.611,456.101L352.111,432.601L292.111,469.101L253.611,422.601L200.111,445.101L178.111,409.101L124.611,415.601" style="fill-opacity:0.1;"/>
    </g>
    <g transform="matrix(0.218692,0,0,0.218692,406.043,9.82832)">
        <path d="M124.611,415.601L203.611,332.601L291.611,381.101L335.111,385.101L325.611,334.601L346.111,349.101L364.111,342.101L366.611,314.101L396.111,353.601L412.611,323.101L447.611,223.101L570.111,203.601L527.111,247.601L523.111,295.101L483.611,322.601L467.111,387.601L432.111,408.601L425.611,456.101L352.111,432.601L292.111,469.101L253.611,422.601L200.111,445.101L178.111,409.101L124.611,415.601" style="fill-opacity:0.1;"/>
    </g>
    <g transform="matrix(0.356199,0,0,0.356199,187.862,235.546)">
        <path d="M124.611,415.601L203.611,332.601L291.611,381.101L335.111,385.101L325.611,334.601L346.111,349.101L364.111,342.101L366.611,314.101L396.111,353.601L412.611,323.101L447.611,223.101L570.111,203.601L527.111,247.601L523.111,295.101L483.611,322.601L467.111,387.601L432.111,408.601L425.611,456.101L352.111,432.601L292.111,469.101L253.611,422.601L200.111,445.101L178.111,409.101L124.611,415.601" style="fill-opacity:0.1;"/>
    </g>
    <g transform="matrix(0.356199,0,0,0.356199,396.927,70.5462)">
        <path d="M124.611,415.601L203.611,332.601L291.611,381.101L335.111,385.101L325.611,334.601L346.111,349.101L364.111,342.101L366.611,314.101L396.111,353.601L412.611,323.101L447.611,223.101L570.111,203.601L527.111,247.601L523.111,295.101L483.611,322.601L467.111,387.601L432.111,408.601L425.611,456.101L352.111,432.601L292.111,469.101L253.611,422.601L200.111,445.101L178.111,409.101L124.611,415.601" style="fill-opacity:0.1;"/>
    </g>
    <g transform="matrix(0.426828,0,0,0.426828,-53.1874,-86.9028)">
        <path d="M124.611,415.601L203.611,332.601L291.611,381.101L335.111,385.101L325.611,334.601L346.111,349.101L364.111,342.101L366.611,314.101L396.111,353.601L412.611,323.101L447.611,223.101L570.111,203.601L527.111,247.601L523.111,295.101L483.611,322.601L467.111,387.601L432.111,408.601L425.611,456.101L352.111,432.601L292.111,469.101L253.611,422.601L200.111,445.101L178.111,409.101L124.611,415.601" style="fill-opacity:0.1;"/>
    </g>
</svg>
