<?xml version="1.0" encoding="UTF-8" standalone="no"?>
<!DOCTYPE svg PUBLIC "-//W3C//DTD SVG 1.1//EN" "http://www.w3.org/Graphics/SVG/1.1/DTD/svg11.dtd">
<svg width="100%" height="100%" viewBox="0 0 400 400" version="1.1" xmlns="http://www.w3.org/2000/svg" xmlns:xlink="http://www.w3.org/1999/xlink" xml:space="preserve" xmlns:serif="http://www.serif.com/" style="fill-rule:evenodd;clip-rule:evenodd;stroke-linejoin:round;stroke-miterlimit:2;">
    <g>
        <g>
            <g transform="matrix(1,0,0,1,-106.93,0)">
                <path d="M106.93,0C162.121,0 206.93,44.808 206.93,100C206.93,155.192 162.121,200 106.93,200L106.93,0Z" style="fill:rgb(79,184,72);"/>
            </g>
            <g transform="matrix(-1,0,0,1,306.93,0)">
                <path d="M106.93,0C162.121,0 206.93,44.808 206.93,100C206.93,155.192 162.121,200 106.93,200L106.93,0Z" style="fill:rgb(79,184,72);"/>
            </g>
        </g>
        <g transform="matrix(6.12323e-17,1,-1,6.12323e-17,400,0)">
            <g transform="matrix(1,0,0,1,-106.93,0)">
                <path d="M106.93,0C162.121,0 206.93,44.808 206.93,100C206.93,155.192 162.121,200 106.93,200L106.93,0Z" style="fill:rgb(79,184,72);"/>
            </g>
            <g transform="matrix(-1,0,0,1,306.93,0)">
                <path d="M106.93,0C162.121,0 206.93,44.808 206.93,100C206.93,155.192 162.121,200 106.93,200L106.93,0Z" style="fill:rgb(79,184,72);"/>
            </g>
        </g>
    </g>
    <g transform="matrix(-1,0,0,1,400,200)">
        <g>
            <g transform="matrix(1,0,0,1,-106.93,0)">
                <path d="M106.93,0C162.121,0 206.93,44.808 206.93,100C206.93,155.192 162.121,200 106.93,200L106.93,0Z" style="fill:rgb(79,184,72);"/>
            </g>
            <g transform="matrix(-1,0,0,1,306.93,0)">
                <path d="M106.93,0C162.121,0 206.93,44.808 206.93,100C206.93,155.192 162.121,200 106.93,200L106.93,0Z" style="fill:rgb(79,184,72);"/>
            </g>
        </g>
        <g transform="matrix(6.12323e-17,1,-1,6.12323e-17,400,0)">
            <g transform="matrix(1,0,0,1,-106.93,0)">
                <path d="M106.93,0C162.121,0 206.93,44.808 206.93,100C206.93,155.192 162.121,200 106.93,200L106.93,0Z" style="fill:rgb(79,184,72);"/>
            </g>
            <g transform="matrix(-1,0,0,1,306.93,0)">
                <path d="M106.93,0C162.121,0 206.93,44.808 206.93,100C206.93,155.192 162.121,200 106.93,200L106.93,0Z" style="fill:rgb(79,184,72);"/>
            </g>
        </g>
    </g>
</svg>
