<?xml version="1.0" encoding="UTF-8" standalone="no"?>
<!DOCTYPE svg PUBLIC "-//W3C//DTD SVG 1.1//EN" "http://www.w3.org/Graphics/SVG/1.1/DTD/svg11.dtd">
<svg width="100%" height="100%" viewBox="0 0 340 1004" version="1.1" xmlns="http://www.w3.org/2000/svg" xmlns:xlink="http://www.w3.org/1999/xlink" xml:space="preserve" xmlns:serif="http://www.serif.com/" style="fill-rule:evenodd;clip-rule:evenodd;stroke-linejoin:round;stroke-miterlimit:2;">
    <g transform="matrix(0.965909,0,0,1.59453,-118.542,-463.273)">
        <rect x="122.726" y="290.54" width="352" height="629.107" style="fill:rgb(0,166,80);"/>
    </g>
    <g id="road" transform="matrix(1,0,0,1,-214,-91.7401)">
        <g transform="matrix(0.758288,0,0,0.925077,42.2598,-76.6775)">
            <path d="M477.049,1090.77L424.298,1090.77L424.298,1069.15C424.298,1057.21 436.107,1047.53 450.673,1047.53L622.112,1047.53L622.112,874.57L252.859,874.57C238.293,874.57 226.484,864.89 226.484,852.95L226.484,636.752C226.484,624.812 238.293,615.132 252.859,615.132L622.112,615.132L622.112,442.179L252.866,442.25C245.869,442.252 239.159,439.974 234.211,435.92C229.264,431.865 226.484,426.365 226.484,420.63L226.484,204.432C226.484,192.537 238.207,182.877 252.718,182.813L424.298,182.058L477.049,182.058L477.049,203.562C477.049,215.457 465.326,225.118 450.815,225.181L279.235,225.936L279.235,399.006L648.481,398.934C655.477,398.932 662.188,401.21 667.135,405.264C672.083,409.319 674.863,414.819 674.863,420.554L674.863,636.752C674.863,648.692 663.054,658.372 648.487,658.372L279.235,658.372L279.235,831.33L648.487,831.33C663.054,831.33 674.863,841.01 674.863,852.95L674.863,1069.15C674.863,1081.09 663.054,1090.77 648.487,1090.77L477.049,1090.77Z" style="fill:rgb(0,201,97);"/>
        </g>
        <g transform="matrix(0.758288,0,0,0.925077,42.2598,-76.6775)">
            <path d="M454.63,1077.01L446.717,1077.01L446.717,1069.15C446.717,1067.36 448.488,1065.9 450.673,1065.9L458.916,1065.9L458.916,1072.39L454.63,1072.39L454.63,1077.01ZM475.4,1072.39L475.4,1065.9L491.885,1065.9L491.885,1072.39L475.4,1072.39ZM508.369,1072.39L508.369,1065.9L524.853,1065.9L524.853,1072.39L508.369,1072.39ZM541.338,1072.39L541.338,1065.9L557.823,1065.9L557.823,1072.39L541.338,1072.39ZM574.307,1072.39L574.307,1065.9L590.792,1065.9L590.792,1072.39L574.307,1072.39ZM607.276,1072.39L607.276,1065.9L623.761,1065.9L623.761,1072.39L607.276,1072.39ZM640.245,1072.39L640.245,1065.9L644.531,1065.9L644.531,1062.39L652.444,1062.39L652.444,1069.15C652.444,1070.94 650.672,1072.39 648.487,1072.39L640.245,1072.39ZM652.444,1048.88L644.531,1048.88L644.531,1035.37L652.444,1035.37L652.444,1048.88ZM652.444,1021.86L644.531,1021.86L644.531,1008.34L652.444,1008.34L652.444,1021.86ZM652.444,994.83L644.531,994.83L644.531,981.318L652.444,981.318L652.444,994.83ZM652.444,967.805L644.531,967.805L644.531,954.293L652.444,954.293L652.444,967.805ZM652.444,940.78L644.531,940.78L644.531,927.268L652.444,927.268L652.444,940.78ZM652.444,913.756L644.531,913.756L644.531,900.243L652.444,900.243L652.444,913.756ZM652.444,886.731L644.531,886.731L644.531,873.219L652.444,873.219L652.444,886.731ZM652.444,859.706L644.531,859.706L644.531,856.193L640.245,856.193L640.245,849.707L648.487,849.707C650.672,849.707 652.444,851.159 652.444,852.95L652.444,859.706ZM623.76,849.707L623.76,856.193L607.276,856.193L607.276,849.707L623.76,849.707ZM590.791,849.707L590.791,856.193L574.307,856.193L574.307,849.707L590.791,849.707ZM557.823,849.707L557.823,856.193L541.338,856.193L541.338,849.707L557.823,849.707ZM524.854,849.707L524.854,856.193L508.369,856.193L508.369,849.707L524.854,849.707ZM491.884,849.707L491.884,856.193L475.4,856.193L475.4,849.707L491.884,849.707ZM458.915,849.707L458.915,856.193L442.431,856.193L442.431,849.707L458.915,849.707ZM425.946,849.707L425.946,856.193L409.462,856.193L409.462,849.707L425.946,849.707ZM392.978,849.707L392.978,856.193L376.493,856.193L376.493,849.707L392.978,849.707ZM360.009,849.707L360.009,856.193L343.525,856.193L343.525,849.707L360.009,849.707ZM327.04,849.707L327.04,856.193L310.555,856.193L310.555,849.707L327.04,849.707ZM294.071,849.707L294.071,856.193L277.586,856.193L277.586,849.707L294.071,849.707ZM261.101,849.707L261.101,856.193L252.859,856.193C250.674,856.193 248.903,854.741 248.903,852.95L248.903,846.194L256.816,846.194L256.816,849.707L261.101,849.707ZM256.816,832.681L248.903,832.681L248.903,819.169L256.816,819.169L256.816,832.681ZM256.816,805.657L248.903,805.657L248.903,792.144L256.816,792.144L256.816,805.657ZM256.816,778.632L248.903,778.632L248.903,765.119L256.816,765.119L256.816,778.632ZM256.816,751.607L248.903,751.607L248.903,738.095L256.816,738.095L256.816,751.607ZM256.816,724.582L248.903,724.582L248.903,711.07L256.816,711.07L256.816,724.582ZM256.816,697.557L248.903,697.557L248.903,684.045L256.816,684.045L256.816,697.557ZM256.816,670.533L248.903,670.533L248.903,657.02L256.816,657.02L256.816,670.533ZM256.816,643.508L248.903,643.508L248.903,636.752C248.903,634.961 250.674,633.509 252.859,633.509L261.101,633.509L261.101,639.995L256.816,639.995L256.816,643.508ZM277.586,639.995L277.586,633.509L294.071,633.509L294.071,639.995L277.586,639.995ZM310.555,639.995L310.555,633.509L327.04,633.509L327.04,639.995L310.555,639.995ZM343.524,639.995L343.524,633.509L360.009,633.509L360.009,639.995L343.524,639.995ZM376.493,639.995L376.493,633.509L392.978,633.509L392.978,639.995L376.493,639.995ZM409.462,639.995L409.462,633.509L425.947,633.509L425.947,639.995L409.462,639.995ZM442.431,639.995L442.431,633.509L458.916,633.509L458.916,639.995L442.431,639.995ZM475.4,639.995L475.4,633.509L491.885,633.509L491.885,639.995L475.4,639.995ZM508.369,639.995L508.369,633.509L524.854,633.509L524.854,639.995L508.369,639.995ZM541.338,639.995L541.338,633.509L557.822,633.509L557.822,639.995L541.338,639.995ZM574.307,639.995L574.307,633.509L590.792,633.509L590.792,639.995L574.307,639.995ZM607.276,639.995L607.276,633.509L623.761,633.509L623.761,639.995L607.276,639.995ZM640.245,639.995L640.245,633.509L644.531,633.509L644.531,629.996L652.444,629.996L652.444,636.752C652.444,638.543 650.672,639.995 648.487,639.995L640.245,639.995ZM652.444,616.483L644.531,616.483L644.531,602.971L652.444,602.971L652.444,616.483ZM652.444,589.458L644.531,589.458L644.531,575.946L652.444,575.946L652.444,589.458ZM652.444,562.433L644.531,562.433L644.531,548.921L652.444,548.921L652.444,562.433ZM652.444,535.409L644.531,535.409L644.531,521.896L652.444,521.896L652.444,535.409ZM652.444,508.384L644.531,508.384L644.531,494.872L652.444,494.872L652.444,508.384ZM652.444,481.359L644.531,481.359L644.531,467.847L652.444,467.847L652.444,481.359ZM652.444,454.335L644.531,454.335L644.531,440.822L652.444,440.822L652.444,454.335ZM652.444,427.31L644.531,427.31L644.531,423.797L640.246,423.798L640.244,417.312L648.486,417.311C649.536,417.31 650.542,417.652 651.285,418.26C652.027,418.868 652.444,419.693 652.444,420.554L652.444,427.31ZM623.759,417.315L623.761,423.801L607.277,423.805L607.275,417.319L623.759,417.315ZM590.79,417.322L590.792,423.808L574.308,423.811L574.306,417.325L590.79,417.322ZM557.822,417.328L557.824,423.814L541.339,423.817L541.337,417.331L557.822,417.328ZM524.853,417.335L524.855,423.821L508.37,423.824L508.368,417.338L524.853,417.335ZM491.884,417.341L491.885,423.827L475.401,423.83L475.399,417.344L491.884,417.341ZM458.915,417.347L458.916,423.833L442.432,423.837L442.43,417.351L458.915,417.347ZM425.945,417.354L425.947,423.84L409.463,423.843L409.461,417.357L425.945,417.354ZM392.977,417.36L392.978,423.846L376.494,423.849L376.492,417.364L392.977,417.36ZM360.008,417.367L360.01,423.853L343.525,423.856L343.524,417.37L360.008,417.367ZM327.039,417.373L327.04,423.859L310.556,423.862L310.554,417.376L327.039,417.373ZM294.07,417.38L294.071,423.865L277.587,423.869L277.585,417.383L294.07,417.38ZM261.101,417.386L261.102,423.872L252.86,423.873C251.811,423.874 250.804,423.532 250.062,422.924C249.32,422.316 248.903,421.491 248.903,420.63L248.903,413.874L256.816,413.874L256.816,417.387L261.101,417.386ZM256.816,400.362L248.903,400.362L248.903,386.85L256.816,386.85L256.816,400.362ZM256.816,373.337L248.903,373.337L248.903,359.825L256.816,359.825L256.816,373.337ZM256.816,346.312L248.903,346.312L248.903,332.8L256.816,332.8L256.816,346.312ZM256.816,319.288L248.903,319.288L248.903,305.775L256.816,305.775L256.816,319.288ZM256.816,292.263L248.903,292.263L248.903,278.75L256.816,278.75L256.816,292.263ZM256.816,265.238L248.903,265.238L248.903,251.726L256.816,251.726L256.816,265.238ZM256.816,238.213L248.903,238.213L248.903,224.701L256.816,224.701L256.816,238.213ZM256.816,211.189L248.903,211.189L248.903,204.432C248.903,202.648 250.661,201.199 252.838,201.189L261.08,201.153L261.123,207.639L256.816,207.658L256.816,211.189ZM277.607,207.566L277.565,201.081L294.049,201.008L294.092,207.494L277.607,207.566ZM310.576,207.421L310.534,200.936L327.018,200.863L327.061,207.349L310.576,207.421ZM343.545,207.276L343.503,200.79L359.988,200.718L360.03,207.204L343.545,207.276ZM376.514,207.131L376.472,200.645L392.956,200.573L392.999,207.059L376.514,207.131ZM409.483,206.986L409.441,200.5L425.925,200.428L425.968,206.914L409.483,206.986ZM442.452,206.841L442.41,200.355L446.717,200.336L446.717,195.701L454.63,195.701L454.63,203.562C454.63,205.346 452.871,206.795 450.695,206.805L442.452,206.841Z" style="fill:rgb(0,230,111);"/>
        </g>
    </g>
    <g id="connector" transform="matrix(1,0,0,1,-64,709.495)">
        <g transform="matrix(0.758288,0,0,0.938931,42.2598,-81.0065)">
            <path d="M279.235,399.006L226.484,399.006L226.484,225.936L279.235,215.286L279.235,399.006Z" style="fill:rgb(0,201,97);"/>
        </g>
        <g transform="matrix(0.758288,0,0,0.925077,42.2598,-76.7334)">
            <path d="M256.816,400.362L248.903,400.362L248.903,386.85L256.816,386.85L256.816,400.362ZM256.816,373.337L248.903,373.337L248.903,359.825L256.816,359.825L256.816,373.337ZM256.816,346.312L248.903,346.312L248.903,332.8L256.816,332.8L256.816,346.312ZM256.816,319.288L248.903,319.288L248.903,305.775L256.816,305.775L256.816,319.288ZM256.816,292.263L248.903,292.263L248.903,278.75L256.816,278.75L256.816,292.263ZM256.816,265.238L248.903,265.238L248.903,251.726L256.816,251.726L256.816,265.238ZM256.816,238.213L248.903,238.213L248.903,224.701L256.816,224.701L256.816,238.213Z" style="fill:rgb(0,230,111);"/>
        </g>
    </g>
</svg>
