<?xml version="1.0" encoding="UTF-8" standalone="no"?>
<!DOCTYPE svg PUBLIC "-//W3C//DTD SVG 1.1//EN" "http://www.w3.org/Graphics/SVG/1.1/DTD/svg11.dtd">
<svg width="100%" height="100%" viewBox="0 0 987 436" version="1.1" xmlns="http://www.w3.org/2000/svg" xmlns:xlink="http://www.w3.org/1999/xlink" xml:space="preserve" xmlns:serif="http://www.serif.com/" style="fill-rule:evenodd;clip-rule:evenodd;stroke-linejoin:round;stroke-miterlimit:2;">
    <g transform="matrix(6.12323e-17,1,-1,6.12323e-17,996.167,-293.209)">
        <path d="M484.241,238.049L487.909,182.667L528.109,182.467L547.109,459.467L676.309,512L636.709,653.967L728.709,801.367L678.909,937.567L504.609,996.167L332.209,911.667L293.209,792.167L381.809,645.067L347.409,504.267L469.909,454.467L474.556,384.304L517.642,385.667L516.427,376.667L475.114,375.864L476.703,351.872L517.642,352.667L517.642,344.334L477.287,343.057L479.067,316.184L517.642,317.667L516.642,308.667L479.623,307.793L481.211,283.807L517.642,284.667L517.642,276.334L481.797,274.955L483.658,246.865L517.642,247.667L517.642,239.334L484.241,238.049ZM466.965,64.345L461.709,28.467L512,9.667L559.509,28.267L554.456,61.478L563.509,64.267L566.309,59.867L577.709,66.267L568.309,85.467L559.509,80.667L561.709,71.467L552.986,71.14L548.884,98.097L559.509,99.867L562.109,92.067L571.309,96.667L564.709,115.067L559.509,115.067L556.309,110.067L552.909,106.667L547.552,106.852L544.46,127.173L552.509,132.267L564.509,132.067L559.509,152.667L549.909,149.267L549.909,143.867L547.309,141.067L542.532,139.843L540.109,155.767L524.309,174.467L494.309,174.467L480.109,154.067L478.279,141.573L469.509,141.867L464.709,151.467L456.309,150.867L452.509,133.267L465.909,132.267L476.41,128.817L473.379,108.127L461.709,108.267L459.509,113.867L452.709,114.267L448.909,101.467L461.709,97.867L471.586,95.892L467.968,71.193L459.309,71.067L456.109,74.067L459.109,82.867L450.509,83.667L442.509,65.067L454.509,61.667L458.109,65.267L466.965,64.345Z"/>
        <path d="M481.423,702.157C456.649,690.949 439.309,665.271 439.309,635.417C439.309,595.266 470.675,562.667 509.309,562.667C547.943,562.667 579.309,595.266 579.309,635.417C579.309,662.73 564.795,686.548 543.352,698.987L544.695,802.805L579.809,802.417L577.309,827.917L443.809,825.417L443.809,803.917L479.311,803.526L481.423,702.157ZM543.138,682.413C557.202,671.648 566.309,654.486 566.309,635.167C566.309,615.29 556.667,597.695 541.904,587.003L543.138,682.413ZM537.869,584.331C533.727,581.831 529.253,579.844 524.532,578.457L525.475,691.592C530.346,690.067 534.943,687.902 539.173,685.193L537.869,584.331ZM519.188,577.166C516.027,576.565 512.776,576.226 509.457,576.174L508.965,694.166C512.794,694.139 516.535,693.73 520.153,692.976L519.188,577.166ZM504.123,576.339C498.968,576.74 494.002,577.834 489.312,579.529L487.013,689.917C492.221,692.061 497.804,693.451 503.633,693.955L504.123,576.339ZM483.931,581.794C464.361,591.245 450.809,611.602 450.809,635.167C450.809,657.839 463.353,677.541 481.73,687.418L483.931,581.794ZM540.695,802.849L539.379,701.122C535.015,703.285 530.402,704.992 525.597,706.184L526.404,803.006L540.695,802.849ZM521.071,803.065L520.272,707.279C516.7,707.864 513.038,708.167 509.309,708.167C509.175,708.167 509.041,708.167 508.907,708.166L508.511,803.204L521.071,803.065ZM503.177,803.263L503.575,707.926C497.722,707.432 492.072,706.188 486.713,704.288L484.647,803.467L503.177,803.263Z" style="fill:white;"/>
    </g>
</svg>
