<?xml version="1.0" encoding="UTF-8" standalone="no"?><!DOCTYPE svg PUBLIC "-//W3C//DTD SVG 1.1//EN" "http://www.w3.org/Graphics/SVG/1.1/DTD/svg11.dtd"><svg width="100%" height="100%" viewBox="0 0 2176 2224" version="1.1" xmlns="http://www.w3.org/2000/svg" xmlns:xlink="http://www.w3.org/1999/xlink" xml:space="preserve" xmlns:serif="http://www.serif.com/" style="fill-rule:evenodd;clip-rule:evenodd;stroke-linejoin:round;stroke-miterlimit:2;"><g><g><path d="M-0.095,2222.39l2175.12,0l-0,-2222.89l-2175.12,0l-0,2222.89Z" style="fill:#b40000;"/></g><g><path d="M949.937,2687.59c-44.474,-3.342 -65.259,-5.763 -112.119,-13.082c-5.281,-0.822 -21.866,-3.762 -36.843,-6.532l-35.234,-6.443c-26.942,-4.736 -118.839,-30.078 -166.574,-45.939c-50.864,-16.907 -75.393,-26.183 -128.132,-48.451c-18.283,-7.712 -124.478,-60.988 -144.155,-72.318c-74.248,-42.732 -158.612,-100.681 -224.238,-154.038c-69.932,-56.85 -177.771,-165.028 -222.459,-223.165c-60.47,-78.663 -82.863,-110.538 -117.132,-166.709c-24.842,-40.73 -57.691,-104.666 -55.546,-108.133c1.161,-1.886 0.599,-2.485 -1.251,-1.341c-8.659,5.353 -82.863,-186.573 -101.36,-262.162c-2.583,-10.571 -7.569,-29.31 -11.063,-41.641c-17.55,-61.792 -40.882,-203.954 -43.643,-265.88l-1.421,-32.035l2.922,27.228c12.564,116.73 24.502,182.498 51.444,283.313c42.991,160.838 105.998,300.265 196.984,435.85c89.967,134.074 211.736,262.537 342.094,360.904c37.066,27.969 123.798,86.258 152.625,102.557c171.436,96.982 332.541,155.592 508.088,184.858c90.744,15.128 129.15,17.898 244.71,17.63c115.47,-0.259 148.899,-2.976 248.266,-20.186c218.805,-37.888 427.539,-124.62 613.451,-254.897c64.938,-45.502 136.765,-106.168 197.162,-166.521c177.369,-177.235 301.346,-377.016 381.761,-615.167c64.178,-190.067 92.96,-390.249 84.078,-584.623c-7.926,-173.464 -43.733,-341.576 -107.124,-502.932c-19.757,-50.3 -71.711,-158.04 -97.321,-201.818c-18.238,-31.177 -69.548,-108.714 -95.4,-144.154c-65.045,-89.171 -170.113,-199.146 -252.627,-264.423c-8.811,-6.961 -16.737,-13.493 -17.613,-14.503c-7.256,-8.337 -98.206,-71.889 -147.353,-102.968c-59.085,-37.361 -155.387,-86.285 -210.826,-107.097c-11.786,-4.423 -25.744,-9.928 -31.034,-12.233c-43.849,-19.105 -147.139,-51.632 -203.417,-64.053c-56.413,-12.448 -127.123,-24.94 -164.975,-29.131c-86.705,-9.606 -223.997,-11.912 -294.716,-4.951c-179.862,17.702 -347.553,60.845 -490.117,126.086c-20.285,9.284 -102.79,50.533 -118.526,59.254c-70.29,38.979 -169.148,105.515 -222.406,149.686c-114.023,94.569 -209.601,198.467 -293.161,318.699c-26.155,37.638 -35.127,49.577 -28.943,38.523c24.001,-42.91 109.313,-155.199 163.053,-214.632c23.698,-26.209 87.072,-88.599 112.262,-110.519c12.144,-10.571 28.676,-25.164 36.727,-32.429c15.691,-14.163 89.162,-70.495 122.502,-93.943c86.429,-60.773 218.466,-130.152 318.191,-167.191c14.092,-5.237 27.79,-10.08 30.435,-10.759c2.636,-0.679 12.734,-4.352 22.421,-8.167c27.817,-10.947 127.721,-39.113 176.189,-49.675c124.102,-27.04 270.607,-39.604 390.813,-33.528c274.109,13.869 535.306,97.438 756.872,242.182c56.189,36.708 136.139,96.061 171.543,127.354c141.384,124.969 238.035,242.083 327.269,396.541c30.337,52.516 73.123,140.035 89.86,183.794c7.407,19.382 16.066,41.007 19.248,48.057c9.588,21.294 48.423,146.835 53.999,174.581c1.591,7.926 7.364,35.315 12.814,60.863c9.097,42.615 23.18,137.541 27.335,184.196c4.585,51.614 5.675,180.514 2.029,240.251c-3.78,61.881 -15.692,152.876 -29.131,222.638c-42.526,220.682 -157.88,478.948 -291.124,651.769c-61.934,80.333 -82.541,103.746 -153.814,174.75c-73.578,73.302 -119.562,112.477 -195.66,166.7c-80.951,57.672 -187.574,118.321 -275.817,156.861c-151.535,66.197 -333.461,111.815 -496.202,124.433c-51.596,3.994 -177.664,3.351 -238.652,-1.233l-0.018,0.044Zm-38.442,-77.135c-5.281,-0.732 -30.507,-3.565 -56.055,-6.281c-149.355,-15.889 -311.256,-61.837 -450.076,-127.731c-40.354,-19.158 -89.216,-44.036 -108.928,-55.483c-85.794,-49.782 -156.996,-99.948 -237.035,-166.985c-54.661,-45.788 -145.825,-138.775 -179.978,-183.589c-4.968,-6.514 -20.713,-26.691 -34.993,-44.849c-91.96,-116.873 -172.892,-274.592 -220.637,-429.952c-9.257,-30.105 -17.872,-59.781 -19.141,-65.956c-1.277,-6.166 -4.208,-16.978 -6.523,-24.02c-10.205,-31.141 -32.267,-152.429 -38.46,-211.423c-4.808,-45.824 -7.953,-86.607 -7.98,-103.309c-0.018,-13.841 -1.26,-20.034 -4.03,-20.07c-3.083,-0.035 -3.119,-0.616 -0.134,-2.511c4.986,-3.172 3.717,-37.584 -1.591,-42.892c-2.18,-2.18 -3.654,-10.973 -3.359,-20.061l0.518,-16.174l2.162,17.621c2.449,20.008 2.922,19.15 4.924,-8.989c0.858,-11.939 0.232,-19.445 -1.519,-18.363c-1.626,1 -3.869,0.366 -4.977,-1.43c-1.1,-1.787 -0.84,-3.262 0.58,-3.28c1.43,-0.018 2.788,-17.326 3.03,-38.469c0.304,-27.156 1.715,-40.033 4.807,-43.839c2.404,-2.958 2.744,-4.415 0.76,-3.226c-4.084,2.448 -3.458,-7.748 3.905,-63.401c8.257,-62.399 13.439,-92.683 25.923,-151.267c5.067,-23.796 9.606,-38.362 11.572,-37.138c1.868,1.153 2.252,0.394 0.902,-1.787c-2.734,-4.432 7.998,-48.692 11.313,-46.636c1.242,0.759 1.582,-1.18 0.76,-4.316c-0.822,-3.137 0.277,-9.991 2.43,-15.218c2.163,-5.237 4.111,-10.241 4.334,-11.117l4.593,-18.417c2.583,-10.374 5.496,-15.995 7.614,-14.69c2.216,1.376 2.636,0.062 1.188,-3.718c-2.877,-7.497 9.964,-46.466 15.316,-46.466c2.226,-0 5.818,-5.916 7.98,-13.145c2.163,-7.229 4.799,-15.397 5.853,-18.149c1.26,-3.27 0.644,-4.2 -1.787,-2.699c-2.466,1.52 -3.038,0.537 -1.707,-2.948c1.618,-4.191 2.556,-4.388 4.727,-0.965c1.886,2.984 2.717,3.109 2.753,0.411c0.062,-4.62 25.762,-65.376 38.826,-91.772c9.678,-19.57 11.456,-26.227 6.112,-22.921c-1.858,1.144 -2.332,-0.223 -1.161,-3.279c1.43,-3.727 2.689,-4.147 4.352,-1.457c1.394,2.261 12.912,-16.049 28.55,-45.377c14.413,-27.049 29.31,-54.214 33.09,-60.38c233.281,-380.026 599.493,-632.368 1022.72,-704.704c118.302,-20.222 199.682,-26.022 309.281,-22.018c86.973,3.172 158.139,11.813 236.9,28.764l35.243,7.56c2.636,0.554 21.893,5.505 42.776,11.009c149.382,39.354 283.761,99.091 429.899,191.113c5.379,3.387 30.426,21.294 55.652,39.8c218.35,160.132 384.665,368.661 487.973,611.852c22.376,52.668 27.585,66.438 47.28,124.933c34.109,101.306 58.629,220.985 70.88,345.963c5.495,56.118 4.495,201.067 -1.832,265.191c-12.135,122.878 -33.849,235.203 -63.302,327.377c-21.884,68.485 -58.209,163.402 -74.803,195.473c-4.11,7.926 -12.376,25.226 -18.372,38.433c-18.631,41.034 -57.083,107.553 -98.143,169.774c-120.322,182.346 -298.71,352.415 -483.996,461.424c-181.507,106.784 -384.754,175.841 -589.771,200.379c-40.65,4.87 -242.467,9.249 -267.139,5.799l-0.045,-0.009Zm201.818,-40.863c5.29,-0.903 18.265,-2.386 28.836,-3.289c16.925,-1.448 34.51,-4.173 118.526,-18.336c39.372,-6.631 166.449,-40.802 189.004,-50.81c3.52,-1.564 14.333,-5.674 24.019,-9.141c146.648,-52.365 293.67,-135.228 420.114,-236.758c40.488,-32.5 113.897,-99.224 138.962,-126.291c120.019,-129.589 191.434,-231.521 261.894,-373.816c29.23,-59.022 40.766,-84.686 53.491,-119.018c5.549,-14.968 11.545,-30.766 13.323,-35.1c4.879,-11.876 30.016,-91.343 37.54,-118.66c24.323,-88.35 44.125,-202.247 51.801,-297.915c3.485,-43.437 4.638,-184.312 1.671,-203.015c-0.875,-5.505 -2.323,-20.106 -3.226,-32.437c-17.576,-241.574 -105.577,-495.184 -240.715,-693.758c-99.082,-145.602 -207.305,-260.08 -337.224,-356.731c-28.836,-21.456 -94.962,-65.706 -112.584,-75.348c-7.89,-4.325 -19.194,-11.134 -25.11,-15.146c-5.915,-4.013 -18.166,-10.992 -27.227,-15.513c-9.061,-4.522 -24.404,-12.359 -34.091,-17.416c-114.996,-60.014 -209.02,-93.533 -363.585,-129.616c-41.436,-9.668 -106.48,-19.409 -171.382,-25.664c-52.927,-5.102 -206.553,-4.584 -248.266,0.831c-14.101,1.832 -33.564,4.191 -43.25,5.246c-26.424,2.877 -39.014,4.798 -88.091,13.43c-243.673,42.866 -474.997,152.545 -676.332,320.675c-41.803,34.903 -123.691,116.56 -164.627,164.135c-30.159,35.055 -96.276,122.77 -110.546,146.647c-1.814,3.029 -10.33,16.326 -18.926,29.542c-30.016,46.128 -76.367,132.842 -101.638,190.112c-41.293,93.586 -80.62,221.906 -100.788,328.833c-22.411,118.776 -28.193,178.441 -28.094,289.908c0.134,163.438 17.505,286.182 63.248,446.876c47.664,167.468 135.576,337.519 245.086,474.105c13.421,16.737 25.261,31.15 26.316,32.026c1.054,0.885 14.941,16.746 30.856,35.243c29.953,34.823 87.795,92.38 120.786,120.188c10.411,8.775 24.101,20.419 30.427,25.888c21.107,18.22 91.173,70.299 125.925,93.594c61.229,41.034 147.336,88.493 207.367,114.273c13.306,5.71 30.668,13.404 38.594,17.094c33.59,15.638 120.716,45.493 182.597,62.57c63.561,17.541 133.342,30.543 208.091,38.782c23.859,2.636 48.423,5.388 54.589,6.139c14.95,1.796 210.388,-0.286 222.639,-2.377l-0,0.018Zm-232.245,-36.236c-68.637,-4.897 -104.157,-9.222 -156.968,-19.114c-146.103,-27.379 -263.815,-67.117 -392.421,-132.475c-73.757,-37.486 -146.487,-82.094 -198.61,-121.814l-48.048,-36.637c-125.666,-95.856 -264.513,-258.749 -342.72,-402.054c-38.299,-70.192 -76.08,-153.028 -91.361,-200.326c-3.985,-12.34 -8.122,-23.867 -9.195,-25.628c-1.081,-1.769 -3.565,-8.972 -5.54,-16.022c-1.966,-7.041 -9.365,-32.991 -16.433,-57.663c-31.633,-110.377 -46.19,-193.258 -55.135,-313.937c-5.531,-74.508 -1.733,-213.595 7.819,-286.7c3.959,-30.293 14.905,-95.445 19.65,-116.927c2.726,-12.331 6.845,-31.07 9.16,-41.641c36.217,-165.431 108.482,-334.856 204.972,-480.511c198.1,-299.059 492.789,-510.304 835.857,-599.198c24.493,-6.345 47.199,-10.84 50.452,-9.991c3.262,0.849 5.925,0.429 5.925,-0.938c-0,-1.367 4.682,-3.306 10.41,-4.316c5.728,-1.019 25.548,-4.665 44.045,-8.123c18.497,-3.449 44.447,-7.292 57.664,-8.525c13.207,-1.233 24.797,-2.716 25.744,-3.279c0.938,-0.572 14.637,-2.002 30.427,-3.19c15.798,-1.189 29.73,-2.788 30.981,-3.539c5.942,-3.628 184.419,-0.76 228.33,3.664c136.228,13.725 257.659,43.911 392.475,97.571c64.714,25.762 186.975,89.627 228.152,119.187c5.701,4.093 12.867,8.883 15.923,10.643c45.815,26.388 170.23,127.498 209.539,170.292c5.478,5.96 22.777,24.136 38.442,40.399c97.053,100.726 192.382,242.646 254.397,378.74c64.347,141.197 110.939,313.821 123.226,456.483c6.631,76.965 7.703,98.045 7.56,147.755c-0.277,97.42 -12.323,215.704 -30.445,299.112l-10.759,49.657c-7.613,35.199 -34.412,123.298 -52.266,171.856c-27.272,74.168 -67.948,160.614 -104.684,222.468c-10.553,17.783 -19.194,32.974 -19.194,33.76c-0,0.787 -2.717,5.335 -6.041,10.107c-3.315,4.781 -16.523,24.538 -29.337,43.92c-147.147,222.531 -373.566,412.446 -619.724,519.811c-38.263,16.693 -160.632,60.952 -181.399,65.617c-4.182,0.938 -24.171,6.005 -44.438,11.25c-56.18,14.548 -98.295,22.635 -161.776,31.07c-71.907,9.553 -189.853,13.806 -254.674,9.186l0.018,0Zm169.979,-41.176c194.062,-17.997 394.575,-79.923 557.191,-172.07c34.957,-19.811 34.045,-19.257 84.283,-51.847c287.174,-186.323 499.009,-477.062 593.041,-813.91c31.955,-114.487 45.788,-199.253 53.321,-326.751c3.065,-51.828 2.064,-146.924 -1.805,-172.249c-0.608,-3.931 -2.037,-19.4 -3.199,-34.376c-7.64,-99.126 -42.553,-255.076 -77.439,-345.963c-57.645,-150.186 -112.771,-250.992 -202.327,-369.992c-113.057,-150.24 -258.668,-276.424 -425.055,-368.348c-144.36,-79.762 -309.075,-135.763 -466.097,-158.478c-38.577,-5.576 -50.864,-7.015 -82.354,-9.642c-32.205,-2.681 -218.492,-2.011 -229.984,0.831c-3.52,0.876 -17.934,2.565 -32.035,3.753c-39.22,3.315 -147.264,22.849 -195.813,35.404c-39.666,10.259 -131.483,39.175 -146.951,46.288c-3.521,1.618 -24.422,10.5 -46.449,19.731c-126.818,53.16 -245.335,125.567 -352.37,215.302c-32.929,27.612 -120.358,113.933 -154.645,152.697c-24.198,27.362 -81.951,102.459 -105.22,136.809c-99.323,146.656 -174.063,322.855 -212.38,500.671c-10.473,48.629 -23.368,124.164 -25.968,152.16c-1.144,12.332 -2.806,26.746 -3.7,32.036c-0.893,5.281 -2.573,38.344 -3.726,73.462c-3.315,100.815 1.814,193.704 15.951,288.514c7.104,47.691 29.015,148.971 37.754,174.581c1.501,4.405 5.326,17.38 8.498,28.836c8.614,31.16 36.977,108.67 55.68,152.161c42.472,98.778 119.848,225.963 183.204,301.123c2.967,3.52 10.634,12.894 17.032,20.82c20.266,25.11 98.304,106.302 128.257,133.431c226.267,204.99 519.776,332.783 818.468,356.347c56.725,4.477 159.015,3.843 214.828,-1.34l0.009,0.009Zm-216.428,-35.44c-99.519,-7.238 -197.055,-24.931 -297.914,-54.045c-32.25,-9.302 -28.381,-7.979 -89.699,-30.802c-130.482,-48.566 -254.576,-119.107 -371.591,-211.218c-86.232,-67.877 -181.194,-167.745 -243.656,-256.247c-6.836,-9.686 -13.377,-18.336 -14.539,-19.221c-4.253,-3.235 -44.215,-66.751 -64.66,-102.763c-23.234,-40.935 -53.464,-103.397 -69.745,-144.1c-35.002,-87.51 -60.845,-173.929 -78.011,-260.876c-10.893,-55.125 -13.627,-74.49 -23.51,-166.574c-4.129,-38.425 -2.824,-217.724 1.85,-254.674c10.088,-79.744 16.549,-118.562 29.855,-179.388c29.551,-135.103 84.962,-281.268 147.558,-389.213c6.13,-10.572 14.503,-24.985 18.614,-32.027c25.717,-44.134 109.626,-161.302 119.848,-167.361c2.243,-1.331 4.647,-4.11 5.353,-6.165c5.004,-14.745 110.555,-122.36 164.644,-167.871c112.495,-94.64 235.98,-169.407 369.992,-224.023c78.797,-32.107 208.699,-69.191 273.895,-78.18c5.281,-0.724 24.744,-3.521 43.241,-6.202c110.26,-16.004 221.048,-18.301 329.95,-6.836c39.139,4.119 93.416,12.323 105.712,15.969c2.645,0.786 10.33,2.296 17.076,3.35c16.014,2.494 86.178,19.49 104.658,25.343c52.606,16.665 112.441,37.87 136.148,48.245l40.041,17.523c76.51,33.465 198.271,106.114 264.137,157.603c51.418,40.194 123.271,106.168 166.789,153.153c142.224,153.546 250.617,345.078 307.271,542.973c3.02,10.571 6.72,22.822 8.221,27.228c11.572,34.09 31.865,139.865 38.397,200.209c2.1,19.382 5.04,45.323 6.524,57.664c2.743,22.75 1.42,202.613 -1.689,229.045c-0.93,7.926 -3.19,27.389 -5.013,43.241c-4.191,36.378 -14.271,98.894 -20.66,128.132c-2.69,12.332 -6.228,28.917 -7.846,36.843c-8.927,43.625 -39.595,138.105 -66.537,205.017c-72.059,178.915 -176.904,336.339 -313.195,470.261c-82.925,81.478 -162.634,143.744 -259.472,202.658c-34.698,21.107 -104.434,58.155 -128.132,68.074c-10.571,4.423 -29.319,12.716 -41.651,18.435c-38.478,17.845 -142.304,53.124 -196.125,66.635c-60.702,15.236 -130.339,28.005 -188.28,34.51c-39.461,4.433 -183.392,8.177 -217.831,5.675l-0.018,-0Zm213.596,-45.868c174.67,-22.081 345.409,-79.941 502.994,-170.435c157.299,-90.333 306.957,-225.319 414.903,-374.21c10.956,-15.11 21.5,-29.309 23.439,-31.561c1.939,-2.261 17.175,-26.763 33.849,-54.465c16.684,-27.692 31.714,-52.516 33.403,-55.161c1.698,-2.645 15.325,-29.48 30.284,-59.638c27.603,-55.627 55.563,-123.45 72.479,-175.815c5.12,-15.852 11.447,-35.314 14.056,-43.25c5.29,-16.04 29.122,-113.807 32.026,-131.34c1.028,-6.165 2.476,-13.368 3.235,-16.013c3.682,-12.894 14.423,-96.499 17.711,-137.747c17.497,-220.119 -17.764,-440.496 -102.522,-640.679c-26.959,-63.659 -70.692,-147.934 -93.353,-179.889c-3.324,-4.673 -6.032,-9.374 -6.032,-10.437c0,-6.201 -69.048,-100.654 -104.184,-142.528c-159.533,-190.058 -362.601,-327.591 -594.801,-402.84c-30.481,-9.874 -58.298,-19.087 -61.819,-20.481c-3.53,-1.385 -10.732,-3.306 -16.022,-4.263c-5.281,-0.947 -28.345,-5.996 -51.248,-11.214c-125.701,-28.622 -290.06,-36.816 -424.447,-21.16c-111.064,12.939 -249.571,47.637 -334.757,83.854l-43.08,18.194c-130.34,54.795 -268.748,145.235 -368.071,240.519c-104.157,99.921 -168.29,178.12 -236.587,288.46c-34.69,56.055 -80.433,146.612 -99.52,197.011c-3.663,9.695 -11.018,29.158 -16.326,43.25c-5.317,14.091 -14.163,40.765 -19.668,59.263c-5.504,18.497 -11.268,37.236 -12.805,41.641c-8.569,24.565 -31.499,133.806 -39.666,189.004c-15.361,103.808 -17.622,246.47 -5.532,349.171c11.277,95.846 28.095,179.308 51.632,256.273c18.48,60.398 20.517,66.206 40.194,114.567c97.241,238.983 259.624,439.058 473.952,583.963c19.391,13.109 38.13,25.583 41.641,27.71c62.186,37.656 148.167,82.496 186.279,97.142l47.548,18.256c24.672,9.464 56.725,20.401 96.106,32.795c49.424,15.549 135.888,33.322 202.47,41.624c72.059,8.98 73.444,9.052 170.729,8.069c66.198,-0.67 101.369,-2.574 141.518,-7.649l-0.008,0.009Zm-296.879,-35.512c-54.92,-5.817 -96.534,-12.17 -137.747,-21.035c-28.085,-6.04 -106.748,-26.611 -115.318,-30.15c-3.521,-1.456 -24.422,-8.766 -46.449,-16.236c-198.511,-67.359 -403.582,-206.268 -538.952,-365.068c-50.166,-58.852 -66.081,-79.369 -92.406,-119.08c-120.474,-181.793 -187.235,-366.936 -212.934,-590.468c-6.157,-53.553 -8.65,-188.253 -4.575,-246.658c13.77,-197.073 75.499,-406.513 168.075,-570.21c23.85,-42.169 81.067,-130.277 93.667,-144.226c3.145,-3.476 12.135,-14.977 19.98,-25.548c34.404,-46.332 77.287,-92.88 144.986,-157.37c23.993,-22.849 98.009,-83.909 118.669,-97.884c55.188,-37.326 86.33,-57.396 98.482,-63.454c7.935,-3.95 16.585,-9.043 19.222,-11.322c9.096,-7.837 113.781,-58.495 152.16,-73.623c84.4,-33.277 160.954,-56.055 235.453,-70.049c107.642,-20.222 156.62,-24.359 267.488,-22.617c88.099,1.377 95.972,1.814 140.946,7.828l38.442,5.147c7.051,0.948 22.903,3.834 35.244,6.416c12.331,2.583 27.308,5.478 33.277,6.434c37.54,5.996 170.783,48.406 221.387,70.46c239.313,104.282 420.033,254.781 568.602,473.514c120.697,177.691 199.709,411.392 214.516,634.477c1.948,29.355 2.207,190.416 0.312,193.481c-0.804,1.305 -3.047,18.122 -4.986,37.388c-9.499,94.551 -31.561,197.314 -62.221,289.836c-31.043,93.667 -66.554,170.364 -126.318,272.868c-21.169,36.288 -82.693,122.663 -111.306,156.235c-110.322,129.464 -210.878,214.829 -353.665,300.238c-23.296,13.931 -105.418,55.135 -137.748,69.111c-97.526,42.15 -200.817,73.819 -283.501,86.928l-32.035,5.085c-96.57,15.343 -220.244,19.15 -310.729,9.561l-0.018,-0.009Zm208.878,-36.771c53.821,-5.174 95.069,-11.277 143.502,-21.232c70.531,-14.494 173.285,-47.208 231.672,-73.766c11.134,-5.066 21.571,-9.213 23.189,-9.213c6.55,0 116.399,-58.441 156.781,-83.416c120.992,-74.821 229.688,-172.714 328.877,-296.19c26.397,-32.867 81.46,-112.986 99.064,-144.155c1.984,-3.52 9.4,-16.495 16.478,-28.827c38.656,-67.386 83.649,-174.116 109.384,-259.472c26.745,-88.698 43.715,-179.049 51.757,-275.495c3.592,-43.044 4.495,-160.399 1.519,-197.01c-2.716,-33.411 -11.322,-106.051 -14.422,-121.725c-1.564,-7.926 -5.237,-27.389 -8.15,-43.25c-9.088,-49.407 -26.745,-112.887 -49.005,-176.189c-49.013,-139.365 -130.366,-281.839 -220.878,-386.792c-81.316,-94.292 -165.216,-170.086 -261.768,-236.471c-8.811,-6.059 -16.737,-11.733 -17.622,-12.609c-0.885,-0.884 -7.363,-4.619 -14.414,-8.31c-7.05,-3.682 -27.192,-14.932 -44.76,-24.994c-115.085,-65.911 -273.081,-124.298 -386.094,-142.697l-28.836,-4.781c-4.406,-0.769 -21.697,-2.985 -38.434,-4.933c-16.737,-1.939 -37.647,-4.539 -46.449,-5.781c-8.81,-1.233 -58.548,-2.154 -110.519,-2.047c-77.323,0.17 -104.693,1.493 -150.561,7.256c-284.225,35.717 -534.913,157.38 -733.63,356.034c-185.993,185.939 -302.892,405.396 -358.358,672.75c-18.417,88.742 -25.887,173.205 -24.377,275.494c1.323,90.119 4.388,127.784 16.398,201.818c30.65,188.852 102.682,369.205 207.277,518.954c22.197,31.776 57.279,78.287 62.838,83.282c0.974,0.885 11.062,12.412 22.42,25.629c74.454,86.642 187.449,181.14 292.33,244.46c26.995,16.299 113.2,60.942 138.694,71.826c71.192,30.392 103.898,41.901 185.724,65.349c53.008,15.191 130.786,29.381 198.69,36.262c57.128,5.79 162.902,5.906 221.692,0.25l-0.009,-0.009Zm-206.84,-34.064c-132.931,-9.561 -273.457,-44.465 -399.918,-99.34c-98.09,-42.562 -174.287,-88.841 -281.339,-170.855c-51.748,-39.649 -140.053,-130.411 -192.569,-197.949c-30.847,-39.675 -65.205,-88.662 -65.205,-92.987c-0,-1.537 -4.093,-8.811 -9.088,-16.174c-30.597,-45.082 -73.543,-135.236 -107.061,-224.819c-25.986,-69.441 -58.406,-211.129 -61.667,-269.543c-0.501,-9.061 -1.734,-19.158 -2.726,-22.429c-5.638,-18.578 -9.025,-169.157 -5.004,-222.183c3.423,-45.117 11.125,-107.695 17.747,-144.154c11.313,-62.301 38.558,-165.815 54.813,-208.225c20.821,-54.33 31.07,-79.52 37.138,-91.298c3.637,-7.041 6.961,-14.878 7.399,-17.407c1.465,-8.543 37.781,-78.493 58.306,-112.334c65.268,-107.561 121.359,-178.843 203.06,-258.06c125.058,-121.251 258.561,-207.707 414.135,-268.158c95.972,-37.29 201.175,-62.802 315.537,-76.509c53.186,-6.372 209.458,-5.55 265.879,1.412c185.054,22.813 352.093,82.29 504.54,179.647c162.857,104.014 310.318,258.65 400.562,420.069c43.33,77.492 54.384,100.359 78.993,163.375c35.449,90.754 52.007,150.758 69.513,251.904c51.238,295.967 -8.195,608.429 -165.413,869.599c-75.625,125.63 -173.25,239.107 -279.543,324.937c-9.686,7.828 -18.336,15.093 -19.221,16.147c-3.369,4.048 -63.561,47.182 -86.491,61.971c-13.216,8.533 -29.792,19.417 -36.833,24.198c-13.896,9.428 -80.79,45.975 -104.113,56.886c-97.491,45.6 -165.654,69.825 -257.873,91.638c-123.977,29.328 -236.31,39.059 -353.54,30.632l-0.018,0.009Zm186.475,-41.882c59.915,-6.264 83.184,-10.402 151.043,-26.835c183.857,-44.519 353.121,-131.367 503.566,-258.364c63.383,-53.5 164.466,-166.315 207.51,-231.583c6.97,-10.572 15.111,-22.099 18.078,-25.629c2.975,-3.52 8.239,-11.447 11.706,-17.612c3.467,-6.166 14.467,-24.914 24.448,-41.651c19.99,-33.536 54.367,-102.093 67.467,-134.539c4.619,-11.447 9.749,-23.698 11.375,-27.228c33.242,-71.657 70.835,-221.021 83.864,-333.158c6.362,-54.804 5.495,-216.928 -1.457,-272.286c-3.101,-24.663 -6.389,-48.451 -7.318,-52.856c-0.93,-4.405 -5.174,-26.745 -9.428,-49.648c-10.124,-54.446 -30.677,-129.472 -46.324,-169.068c-1.546,-3.913 -6.058,-15.771 -10.035,-26.343c-3.976,-10.571 -12.108,-29.944 -18.068,-43.044c-5.96,-13.1 -13.958,-31.124 -17.774,-40.042c-7.282,-17.058 -30.552,-62.855 -41.596,-81.889c-20.499,-35.323 -73.257,-114.665 -83.721,-125.898c-4.602,-4.932 -8.364,-10.071 -8.364,-11.411c-0,-1.331 -2.52,-5.236 -5.603,-8.659c-3.083,-3.422 -13.52,-15.584 -23.18,-27.031c-58.342,-69.066 -132.761,-139.418 -201.889,-190.862c-85.231,-63.419 -195.697,-124.147 -285.074,-156.71c-13.216,-4.816 -26.915,-9.981 -30.435,-11.491c-25.352,-10.839 -156.531,-44.635 -191.274,-49.273l-50.586,-6.889c-58.7,-8.016 -214.846,-8.168 -278.899,-0.26c-110.653,13.655 -201.916,36.673 -307.324,77.537c-185.42,71.89 -358.438,201.318 -490.287,366.793c-57.539,72.211 -90.387,123.316 -136.943,213.024c-63.74,122.851 -115.542,306.725 -127.248,451.684c-1.135,14.1 -2.654,29.238 -3.377,33.643c-1.94,11.876 -1.859,146.272 0.107,166.628c0.929,9.66 3.243,33.421 5.138,52.803c10.276,104.845 49.648,259.803 86.276,339.565c1.618,3.52 6.756,15.772 11.42,27.227c29.945,73.498 96.017,182.186 157.505,259.044c79.664,99.582 183.463,191.371 293.679,259.696c80.182,49.701 158.21,86.499 247.623,116.774c102.12,34.573 176.19,49.416 303.67,60.863c33.688,3.02 141.947,0.196 191.72,-5.013l0.009,-0.009Zm-198.128,-30.329c-255.227,-17.237 -485.095,-108.75 -677.521,-269.713c-37.701,-31.535 -117.802,-111.734 -139.347,-139.534c-5.281,-6.818 -16.987,-21.455 -26.003,-32.536c-25.289,-31.07 -71.559,-101.387 -94.739,-143.975c-77.608,-142.591 -120.456,-277.532 -140.893,-443.669c-6.657,-54.134 -5.674,-234.827 1.555,-286.7c25.441,-182.418 80.147,-343.014 163.76,-480.717c44.93,-73.989 60.523,-96.132 104.648,-148.649c76.403,-90.914 163.331,-168.978 259.151,-232.745c157.138,-104.568 349.118,-170.408 544.582,-186.769c73.337,-6.139 210.128,-0.679 277.094,11.053c200.254,35.101 368.124,110.52 528.559,237.464c35.574,28.148 119.679,110.037 152.474,148.452c82.077,96.151 150.409,208.868 195.178,321.943c111.226,280.937 115.068,575.375 11.278,864.023c-76.215,211.952 -221.727,408.872 -402.17,544.269c-81.702,61.31 -183.928,119.84 -270.75,155.03c-54.384,22.045 -170.622,56.323 -216.169,63.749c-40.676,6.63 -78.636,12.072 -103.799,14.878c-30.097,3.36 -138.623,6.05 -166.888,4.146Zm177.789,-43.822l46.449,-7.086c86.125,-13.091 188.012,-44.233 278.158,-85.007c166.118,-75.16 327.322,-202.05 435.17,-342.568l20.928,-27.192c18.756,-24.332 42.401,-60.174 66.01,-100.046c90.145,-152.286 144.654,-324.732 159.238,-503.798c12.742,-156.468 -6.577,-315.117 -56.538,-464.329c-21.759,-64.991 -29.122,-82.523 -60.469,-143.966c-34.609,-67.851 -40.587,-78.404 -65.456,-115.676c-58.575,-87.777 -142.983,-183.767 -210.039,-238.875c-10.571,-8.686 -19.936,-16.594 -20.82,-17.568c-0.885,-0.974 -7.372,-6.023 -14.414,-11.214c-7.05,-5.192 -14.539,-11.054 -16.639,-13.029c-2.1,-1.975 -26.602,-18.756 -54.455,-37.29c-49.434,-32.902 -96.749,-60.094 -138.73,-79.735l-40.042,-18.783c-37.826,-17.791 -140.151,-51.819 -177.789,-59.12c-6.166,-1.189 -28.229,-5.63 -49.023,-9.865c-20.803,-4.236 -46.743,-8.543 -57.663,-9.571c-10.92,-1.036 -31.383,-3.386 -45.475,-5.218c-50.649,-6.613 -151.607,-5.728 -229.734,1.992c-149.051,14.745 -310.612,67.091 -436.251,141.34c-54.679,32.321 -79.012,48.486 -120.448,80.057c-58.834,44.813 -101.127,84.748 -174.634,164.867c-51.989,56.672 -130.188,176.369 -167.343,256.166c-38.594,82.863 -68.905,172.75 -89.145,264.28c-33.536,151.714 -35.109,328.458 -4.289,483.711c10.249,51.596 41.731,161.418 54.196,189.003c1.591,3.521 8.9,20.821 16.246,38.443c71.165,170.72 192.882,329.36 339.395,442.337c32.437,25.002 40.864,30.971 79.664,56.332c105.837,69.199 222.772,119.044 354.336,151.07c40.265,9.803 108.526,20.821 145.19,23.439c15.29,1.09 28.417,2.538 29.185,3.217c4.039,3.592 174.823,-1.671 205.231,-6.318Zm-176.547,-29.22c-0.786,-0.786 -15.217,-1.689 -32.079,-2.002c-78.86,-1.465 -201.032,-26.343 -297.129,-60.496c-162.973,-57.914 -316.546,-159.122 -430.461,-283.644c-140.169,-153.233 -230.958,-335.133 -271.008,-542.973c-3.566,-18.498 -7.292,-40.837 -8.293,-49.648c-1.001,-8.811 -2.636,-22.51 -3.628,-30.436c-9.972,-79.36 -8.248,-228.545 3.503,-302.722c11.983,-75.714 49.97,-215.999 70.254,-259.472c2.466,-5.281 7.328,-16.836 10.795,-25.673c7.667,-19.498 48.683,-103.299 60.353,-123.28c12.358,-21.178 79.807,-122.261 86.589,-129.768c3.199,-3.538 11.581,-13.618 18.631,-22.384c33.993,-42.312 94.489,-103.058 145.951,-146.576c7.819,-6.613 16.379,-13.949 19.024,-16.299c2.645,-2.359 9.794,-7.756 15.897,-12.001c6.104,-4.254 13.985,-10.294 17.524,-13.422c9.784,-8.677 83.425,-56.895 112.342,-73.56c22.939,-13.225 73.855,-38.407 104.112,-51.498c6.166,-2.663 19.347,-8.427 29.292,-12.805c53.67,-23.609 180.309,-56.806 257.409,-67.466c49.621,-6.863 210.02,-9.589 254.673,-4.325c64.669,7.631 124.201,17.791 146.308,24.984c5.594,1.814 14.244,4.013 19.221,4.879c21.366,3.718 108.849,33.09 137.193,46.056c3.53,1.618 13.619,6.077 22.43,9.91c66.778,29.096 144.833,74.937 205.124,120.483c13.573,10.259 28.934,21.741 34.135,25.53c40.042,29.122 122.663,111.708 167.79,167.709c36.842,45.717 87.741,122.306 111.752,168.183c30.177,57.619 70.701,155.244 83.256,200.54l11.036,39.712c11.867,42.624 23.171,102.932 31.222,166.574c7.158,56.555 7.122,185.581 -0.062,245.452c-20.49,170.774 -68.843,315.911 -152.483,457.689c-84.757,143.689 -209.002,275.387 -342.818,363.379c-68.127,44.805 -74.909,48.835 -121.439,72.14c-116.453,58.342 -228.116,92.531 -360.671,110.448c-38.335,5.182 -152.367,10.151 -155.727,6.791l-0.018,-0.009Zm131.698,-39.854c11.456,-1.689 27.675,-3.941 36.048,-5.004c18.309,-2.342 80.682,-15.156 116.122,-23.868c73.846,-18.167 184.402,-63.901 263.082,-108.849c35.047,-20.025 127.775,-84.417 138.945,-96.481c0.876,-0.956 13.127,-11.304 27.228,-23.01c56.028,-46.511 131.438,-128.999 176.654,-193.239c46.511,-66.09 99.314,-158.711 115.041,-201.818c3.217,-8.811 7.595,-18.899 9.74,-22.42c5.478,-8.99 34.421,-94.122 42.481,-124.933c17.309,-66.153 29.525,-128.802 33.733,-172.982c1.01,-10.571 2.654,-27.871 3.655,-38.442c1.001,-10.571 2.225,-42.285 2.717,-70.478c2.189,-125.219 -15.584,-240.206 -55.832,-361.181c-34.26,-102.959 -79.565,-191.291 -146.102,-284.832c-47.718,-67.082 -123.629,-148.569 -180.05,-193.275c-11.116,-8.811 -21.893,-17.497 -23.939,-19.302c-9.043,-7.988 -66.215,-49.505 -82.211,-59.709l-32.857,-21.018c-61.006,-39.184 -182.078,-90.181 -268.256,-112.994c-128.49,-34.019 -295.699,-41.955 -430.855,-20.464c-145.914,23.198 -277.335,73.025 -403.626,153.01c-111.86,70.844 -221.459,175.376 -299.336,285.503c-19.284,27.263 -48.245,71.657 -48.245,73.953c0,1.064 -2.716,5.764 -6.041,10.438c-7.684,10.794 -44.232,82.013 -56.162,109.411c-62.167,142.814 -96.66,310.747 -94.408,459.691c2.306,152.473 24.851,268.515 78.753,405.226c54.607,138.488 128.007,249.249 237.856,358.875c59.647,59.531 113.531,101.78 192.381,150.847c133.726,83.221 309.692,140.321 459.691,149.194c15.861,0.939 29.542,2.377 30.418,3.2c2.654,2.502 141.16,-1.779 163.393,-5.049l-0.018,-0Zm-219.43,-34.287c-100.762,-10.786 -188.405,-32.295 -281.902,-69.173c-38.138,-15.039 -110.233,-50.953 -139.347,-69.415c-11.446,-7.256 -24.725,-15.387 -29.506,-18.068c-7.962,-4.459 -59.844,-41.159 -72.452,-51.247c-37.433,-29.963 -70.71,-58.736 -90.682,-78.422c-149.954,-147.8 -255.442,-348.215 -290.891,-552.669c-12.627,-72.846 -16.451,-118.49 -16.228,-193.802c0.545,-185.394 35.235,-332.282 117.633,-498.106c11.366,-22.894 21.651,-42.356 22.84,-43.25c1.188,-0.894 6.362,-9.553 11.5,-19.248c45.967,-86.75 144.923,-200.37 245.631,-282.036c57.878,-46.931 150.722,-105.211 207.546,-130.276c9.874,-4.352 25.154,-11.179 33.965,-15.173c56.314,-25.513 151.249,-53.285 229.046,-66.993c111.699,-19.686 262.894,-17.8 368.419,4.593c16.728,3.548 34.01,7.184 38.415,8.078c24.351,4.968 72.703,19.221 108.348,31.928c77.126,27.505 206.724,97.437 261.644,141.188c147.443,117.444 235.738,223.63 308.387,370.867c52.999,107.41 87.108,221.808 101.798,341.451c6.229,50.756 8.525,156.476 4.486,206.616c-15.691,194.821 -77.876,369.366 -189.718,532.527c-45.797,66.814 -113.719,142.957 -175.52,196.769c-44.206,38.505 -144.359,110.582 -162.839,117.213c-2.815,1.018 -8.936,4.476 -13.6,7.702c-12.216,8.463 -93.416,48.487 -118.991,58.665c-30.722,12.224 -123.959,42.481 -138.802,45.055c-6.836,1.179 -23.233,4.807 -36.449,8.06c-77.877,19.158 -212.684,26.807 -302.722,17.166l-0.009,-0Zm224.238,-41.061c78.832,-12.189 159.979,-33.724 224.238,-59.486c34.063,-13.663 107.91,-49.782 128.999,-63.097c9.284,-5.853 17.612,-10.652 18.497,-10.652c3.154,0 72.309,-47.029 89.761,-61.05c57.208,-45.921 78.574,-64.821 113.066,-100.019c99.207,-101.218 163.992,-197.627 218.957,-325.849c43.688,-101.914 75.017,-234.103 79.718,-336.357c4.905,-106.721 -1.243,-190.103 -21.116,-286.432c-8.346,-40.426 -37.415,-133.61 -50.979,-163.384c-4.075,-8.954 -8.454,-19.597 -9.723,-23.662c-3.78,-12.055 -38.165,-80.111 -56.162,-111.145c-84.123,-145.111 -217.59,-275.843 -371.672,-364.094c-16.737,-9.589 -36.199,-20.088 -43.241,-23.341c-7.05,-3.253 -24.627,-11.501 -39.059,-18.328c-29.032,-13.725 -115.818,-43.428 -157.584,-53.928c-154.592,-38.88 -331.764,-37.718 -489.448,3.199c-151.017,39.193 -284.85,109.858 -402.652,212.604c-92.335,80.539 -180.121,190.496 -229.242,287.137c-7.614,14.977 -14.914,28.667 -16.228,30.427c-1.322,1.77 -10.312,21.223 -19.99,43.25c-125.889,286.557 -118.266,615.891 20.607,890.545c25.065,49.568 29.068,56.502 58.083,100.592c95.087,144.493 225.436,260.142 383.369,340.136c40.632,20.58 101.709,44.957 147.353,58.817c18.498,5.611 37.236,11.482 41.642,13.046c8.301,2.94 75.115,16.103 112.932,22.251c11.903,1.939 34.242,4.369 49.657,5.397c15.405,1.036 28.559,2.386 29.22,2.993c0.67,0.608 31.669,0.599 68.878,-0.026c52.767,-0.885 79.646,-2.985 122.119,-9.553l-0,0.009Zm-193.99,-25.432c-0.983,-1.063 -9.633,-2.091 -19.221,-2.287c-16.157,-0.322 -60.291,-4.683 -75.089,-7.408c-3.53,-0.652 -13.618,-2.225 -22.429,-3.512c-8.811,-1.278 -29.712,-5.88 -46.449,-10.231c-16.737,-4.343 -36.199,-9.178 -43.241,-10.733c-54.554,-12.072 -179.925,-66.644 -235.453,-102.477c-2.645,-1.706 -9.132,-5.468 -14.422,-8.355c-50.032,-27.326 -139.186,-101.869 -194.285,-162.437c-172.937,-190.112 -261.921,-432.105 -254.638,-692.507c2.279,-81.236 11.125,-154.779 24.672,-205.017c1.904,-7.041 4.254,-16.415 5.219,-20.82c9.088,-41.132 39.863,-127.382 64.598,-180.989c113.763,-246.622 332.246,-440.612 585.696,-520.043c72.988,-22.876 128.355,-34.305 203.989,-42.115c51.855,-5.353 154.323,-4.504 195.821,1.626c5.282,0.778 17.542,2.306 27.228,3.396c30.802,3.467 94.801,16.826 129.741,27.085c189.129,55.527 355.712,167.512 481.154,323.435c50.354,62.596 95.954,136.371 122.744,198.61c7.203,16.737 14.995,34.037 17.309,38.442c2.323,4.406 11.474,29.632 20.356,56.055c25.307,75.375 40.775,148.426 50.175,237.052c2.967,27.952 2.118,136.282 -1.385,176.19c-5.844,66.68 -25.825,165.359 -43.133,213.023c-2.878,7.926 -8.856,25.226 -13.279,38.443c-21.018,62.828 -69.093,156.807 -114.148,223.13c-69.861,102.861 -184.83,214.345 -287.549,278.863c-102.593,64.437 -195.258,103.987 -301.122,128.552c-51.641,11.983 -59.388,13.457 -96.106,18.292c-38.308,5.057 -163.635,10.124 -166.762,6.755l0.009,-0.018Zm143.984,-39.094c23.591,-2.627 56.028,-7.721 72.077,-11.313c16.049,-3.592 32.795,-7.229 37.201,-8.087c25.726,-5.004 108.526,-32.169 145.753,-47.825c34.404,-14.467 107.169,-52.856 139.696,-73.695c75.026,-48.075 146.951,-110.805 209.189,-182.453c46.244,-53.24 68.923,-84.132 101.316,-137.962c141.965,-235.926 177.244,-518.069 97.723,-781.419c-43.732,-144.816 -115.872,-266.487 -225.373,-380.09c-133.583,-138.587 -305.447,-231.395 -490.832,-265.048c-18.453,-3.351 -42.91,-7.113 -54.366,-8.355c-11.447,-1.251 -25.146,-2.824 -30.427,-3.494c-52.516,-6.693 -156.727,-3.485 -226.695,6.97c-182.776,27.335 -349.681,108.402 -494.014,239.974c-86.455,78.815 -171.373,198.056 -220.145,309.129c-70.308,160.132 -97.062,321.354 -82.586,497.624c9.169,111.681 45.305,236.882 98.474,341.245c74.052,145.342 170.891,255.746 309.916,353.335c41.9,29.417 131.671,76.402 182.596,95.57c10.572,3.985 26.334,9.91 35.029,13.171c8.695,3.262 16.451,5.29 17.238,4.504c0.786,-0.787 4.11,0.009 7.381,1.76c10.696,5.728 58.146,18.355 94.113,25.057c98.214,18.291 183.356,21.794 276.736,11.402Zm-172.624,-30.767c-38.478,-3.038 -90.36,-11.044 -139.347,-21.499c-25.878,-5.523 -95.685,-27.693 -112.119,-35.601c-3.52,-1.698 -13.609,-5.871 -22.42,-9.267c-135.165,-52.15 -277.764,-162.937 -369.536,-287.111c-26.45,-35.788 -35.699,-48.969 -35.699,-50.872c0,-0.813 -6.344,-10.938 -14.092,-22.501c-28.121,-41.936 -72.926,-139.945 -90.199,-197.314c-9.418,-31.275 -21.089,-77.823 -25.7,-102.513c-0.822,-4.405 -2.877,-15.217 -4.566,-24.028c-9.115,-47.638 -11.697,-79.485 -12.448,-153.761c-0.866,-84.614 5.603,-141.214 26.004,-227.437c11.339,-47.896 37.861,-128.007 49.201,-148.559c4.253,-7.703 7.73,-15.504 7.73,-17.318c-0,-1.814 7.354,-17.845 16.334,-35.637c103.773,-205.418 273.976,-362.619 481.798,-444.999c149.552,-59.272 323.588,-76.858 480.512,-48.54c24.663,4.459 53.499,10.33 64.07,13.055c10.571,2.725 21.991,5.54 25.378,6.246c17.211,3.584 86.562,28.854 120.376,43.858c182.489,80.959 340.619,232.468 432.731,414.6c36.342,71.871 59.495,135.817 76.438,211.111c16.915,75.213 20.803,113.262 20.74,203.194c-0.08,106.587 -7.873,166.708 -33.42,257.872c-58.575,209.029 -195.179,398.31 -377.775,523.458c-55.6,38.102 -121.377,72.184 -188.727,97.785c-120.831,45.913 -252.44,65.474 -375.264,55.778Zm163.376,-37.924c154.743,-20.284 295.904,-78.993 422.847,-175.894c44.957,-34.314 126.238,-113.638 156.236,-152.474c22.045,-28.532 58.396,-80.798 58.396,-83.953c0,-1.117 1.993,-4.307 4.432,-7.086c16.237,-18.524 62.033,-111.065 80.987,-163.626c24.243,-67.269 30.802,-91.995 44.992,-169.782c7.926,-43.473 8.471,-52.615 8.525,-142.555c0.053,-90.78 -0.429,-98.769 -8.65,-144.154c-31.401,-173.25 -94.703,-307.449 -206.402,-437.547c-90.324,-105.203 -214.587,-191.613 -345.087,-239.975c-65.438,-24.252 -116.9,-36.69 -205.062,-49.576c-23.51,-3.431 -140.49,-4.334 -176.189,-1.358c-158.077,13.198 -323.034,78.806 -453.034,180.166c-38.96,30.382 -104.621,94.345 -136.978,133.44c-109.877,132.761 -180.158,299.13 -200.951,475.703c-5.871,49.827 -5.844,162.071 0.044,209.825c11.572,93.881 32.929,172.168 70.773,259.472c20.526,47.352 55.644,108.983 87.331,153.251c8.006,11.197 16.719,23.457 19.364,27.246c8.873,12.751 74.427,85.463 87.143,96.669c89.243,78.636 144.1,116.613 221.745,153.51c96.15,45.698 209.627,76.509 306.162,83.131c30.713,2.1 135.075,-0.733 163.376,-4.442l-0,0.009Zm-181.435,-32.035c-37.585,-3.95 -101.155,-15.298 -129.169,-23.055c-13.279,-3.672 -29.909,-8.131 -36.959,-9.918c-7.051,-1.779 -17.139,-4.969 -22.42,-7.087c-5.29,-2.126 -18.265,-7.032 -28.837,-10.893c-53.436,-19.542 -146.245,-71.299 -198.609,-110.76c-78.484,-59.156 -158.881,-147.452 -207.635,-228.072c-68.458,-113.191 -106.079,-223.684 -123.602,-363.03c-1.662,-13.217 -2.565,-60.068 -2.002,-104.113c1.493,-118.017 13.69,-184.58 53.705,-293.107c68.297,-185.242 197.43,-341.236 364.425,-440.237c31.49,-18.676 42.312,-24.198 91.298,-46.645c63.606,-29.149 150.043,-52.794 235.453,-64.42c56.966,-7.747 163.661,-5.227 232.244,5.496c106.016,16.567 230.654,65.742 323.802,127.748c93.631,62.319 180.372,152.206 240.207,248.892c116.453,188.2 155.467,393.091 116.998,614.443c-18.676,107.445 -72.435,237.66 -136.041,329.521l-21.115,30.471c-12.93,18.641 -44.894,55.993 -73.981,86.464c-109.098,114.273 -258.132,201.908 -403.823,237.472c-66.108,16.139 -106.042,21.134 -178.986,22.385c-37.88,0.652 -80.611,-0.045 -94.944,-1.555l-0.009,0Zm184.643,-36.718c329.967,-50.693 597.205,-297.512 680.595,-628.597c17.005,-67.502 23.492,-123.271 23.43,-201.228c-0.116,-133.199 -27.871,-248.231 -89.654,-371.591c-18.766,-37.46 -68.306,-116.569 -79.244,-126.533c-0.965,-0.884 -8.158,-9.534 -15.986,-19.221c-69.566,-86.115 -157.362,-157.219 -253.253,-205.106c-110.001,-54.929 -219.967,-81.8 -347.572,-84.927c-101.646,-2.493 -194.329,13.332 -291.507,49.755c-140.473,52.659 -242.369,125.443 -343.104,245.086c-67.886,80.628 -129.937,200.298 -159.479,307.529c-54.849,199.128 -34.225,419.327 55.974,597.554c68.592,135.531 174.867,251.948 299.246,327.805c100.485,61.283 202.98,97.161 321.944,112.7c43.384,5.666 152.268,3.905 198.61,-3.217l-0,-0.009Zm-150.562,-26.101c-34.457,-2.976 -79.476,-8.32 -91.298,-10.831c-7.042,-1.501 -21.464,-4.396 -32.035,-6.425c-77.841,-14.967 -194.258,-65.688 -267.488,-116.542c-49.568,-34.43 -112.182,-91.968 -153.832,-141.348c-33.599,-39.846 -74.704,-103.532 -98.93,-153.278c-20.123,-41.32 -52.042,-127.444 -55.983,-151.044c-0.876,-5.29 -3.101,-14.682 -4.942,-20.883c-1.832,-6.202 -3.869,-15.567 -4.512,-20.821c-0.653,-5.254 -2.735,-15.316 -4.638,-22.367c-1.903,-7.05 -5.067,-28.666 -7.033,-48.048c-18.47,-182.32 19.749,-357.776 110.681,-508.07c110.153,-182.06 279.426,-307.771 480.27,-356.668c144.431,-35.163 289.13,-28.711 433.472,19.346c161.052,53.607 302.392,166.351 395.227,315.233c95.579,153.287 136.389,332.443 116.381,510.947c-8.274,73.864 -30.82,161.588 -55.974,217.831c-21.134,47.253 -38.407,82.594 -45.672,93.478c-4.923,7.364 -8.945,14.262 -8.945,15.334c0,3.396 -37.387,57.709 -42.838,62.23c-2.869,2.377 -5.219,5.683 -5.219,7.328c0,4.503 -43.321,55.313 -69.057,80.977c-74.096,73.918 -134.003,116.131 -229.814,161.963c-75.589,36.155 -156.012,59.094 -240.751,68.655c-20.267,2.288 -101.316,4.379 -117.079,3.02l0.009,-0.017Zm77.171,-33.528c118.588,-2.851 260.571,-50.577 371.421,-124.844c124.451,-83.381 226.615,-209.136 283.215,-348.599c9.338,-23.001 18.113,-40.801 19.499,-39.55c1.394,1.251 1.554,0.581 0.366,-1.493c-1.189,-2.082 2.073,-18.658 7.256,-36.842c19.9,-69.826 31.472,-152.09 30.346,-215.66c-0.643,-35.895 -4.262,-97.991 -5.871,-100.726c-0.58,-0.983 -2.001,-10.079 -3.172,-20.213c-6.988,-60.916 -43.974,-170.193 -80.405,-237.57c-7.864,-14.539 -13.574,-27.398 -12.689,-28.568c0.875,-1.18 0.697,-1.475 -0.402,-0.67c-1.108,0.813 -7.793,-7.48 -14.852,-18.417c-67.672,-104.828 -155.503,-187.664 -264.494,-249.464c-43.652,-24.753 -61.855,-32.599 -121.967,-52.606c-78.484,-26.129 -151.106,-37.12 -238.973,-36.173c-171.82,1.85 -324.481,56.779 -458.18,164.868c-96.249,77.814 -178.853,191.104 -225.185,308.852c-46.378,117.856 -64.58,251.913 -50.479,371.69c17.46,148.354 67.725,270.445 162.061,393.6c19.034,24.86 81.719,87.76 110.466,110.841c110.055,88.404 245.139,145.004 378.034,158.39c32.518,3.279 80.915,5.781 85.035,4.396c0.965,-0.322 14.002,-0.876 28.97,-1.242Zm-93.184,-33.688c-62.203,-7.417 -119.572,-19.695 -163.375,-34.958c-140.705,-49.031 -253.128,-133.172 -344.552,-257.873c-68.029,-92.79 -115.041,-217.259 -129.66,-343.335c-4.888,-42.124 -2.377,-151.866 4.423,-193.24c13.556,-82.523 37.96,-156.763 74.749,-227.446l13.306,-25.628c44.572,-86.366 159.015,-206.536 243.272,-255.451c95.757,-55.59 154.403,-78.565 242.583,-95.034c133.958,-25.002 260.339,-13.171 389.213,36.441c39.952,15.379 66.796,29.149 114.835,58.897c173.992,107.767 294.073,296.136 322.953,506.613c9.017,65.741 6.193,188.432 -5.388,233.844c-1.573,6.166 -3.726,16.263 -4.781,22.429c-8.39,49.067 -33.563,119.312 -64.848,180.988c-71.317,140.598 -193.257,260.125 -331.388,324.83c-74.249,34.778 -116.203,48.477 -188.343,61.479c-32.5,5.862 -145.458,10.705 -172.981,7.426l-0.018,0.018Zm144.842,-35.038c73.704,-9.964 135.907,-28.354 199.209,-58.906c110.126,-53.142 173.777,-105.265 262.457,-214.9c2.135,-2.645 11.929,-17.058 21.759,-32.035c36.19,-55.144 60.639,-106.579 82.228,-172.981c25.727,-79.128 33.697,-129.973 33.885,-216.232c0.25,-117.355 -22.679,-212.621 -76.724,-318.735c-63.409,-124.504 -167.441,-229.028 -288.058,-289.426c-82.014,-41.06 -148.336,-60.389 -243.459,-70.942c-22.108,-2.448 -102.844,-2.591 -122.002,-0.214c-99.493,12.349 -155.271,28.032 -233.996,65.768c-197.788,94.819 -339.002,285.976 -377.525,511.045c-13.672,79.86 -11.769,180.515 4.87,258.391c43.545,203.766 170.059,373.236 350.663,469.726c42.509,22.715 123.495,52.186 165.145,60.094c78.636,14.941 156.03,18.202 221.548,9.347Zm-117.614,-27.612c-85.794,-4.62 -181.06,-31.124 -254.674,-70.844c-28.202,-15.218 -86.464,-53.517 -102.513,-67.386c-70.379,-60.836 -121.564,-121.627 -155.655,-184.848c-3.324,-6.166 -7.631,-13.377 -9.57,-16.014c-6.648,-9.052 -39.13,-88.215 -47.619,-116.023c-36.075,-118.276 -37.791,-260.965 -4.513,-375.702c7.301,-25.182 21.857,-67.145 29.998,-86.5c17.693,-42.061 58.012,-112.074 79.467,-138.006c2.797,-3.378 13.171,-16.228 23.055,-28.56c32.231,-40.22 75.562,-79.949 129.356,-118.615c52.141,-37.486 136.237,-75.946 198.94,-90.994c135.782,-32.599 245.738,-28.783 369.697,12.814c103.255,34.662 199.048,97.884 266.434,175.85c104.97,121.457 161.507,263.958 166.047,418.496c3.199,109.089 -20.723,219.242 -69.164,318.395c-29.024,59.424 -84.874,140.759 -93.13,135.657c-1.966,-1.207 -2.458,-0.581 -1.171,1.501c5.022,8.131 -71.943,81.612 -120.519,115.068c-123.235,84.873 -258.489,123.566 -404.466,115.702l-0,0.009Zm110.519,-33.358c79.315,-9.543 143.484,-30.025 219.431,-70.066c91.468,-48.21 166.61,-117.195 229.403,-210.584c18.336,-27.264 46.556,-80.969 56.117,-106.776c34.01,-91.798 46.244,-154.225 46.771,-238.651c0.938,-151.741 -49.085,-292.187 -145.727,-409.131c-12.671,-15.325 -54.634,-56.815 -74.445,-73.606c-121.288,-102.736 -284.466,-151.803 -450.54,-135.459c-112.897,11.116 -227.125,57.86 -313.857,128.436c-11.67,9.499 -24.868,20.15 -29.327,23.671c-4.46,3.521 -22.814,22.259 -40.775,41.641c-58.986,63.651 -109.769,150.07 -136.478,232.245c-22.823,70.218 -30.686,121.618 -30.874,201.818c-0.456,190.871 85.32,370.161 234.648,490.439c32.733,26.37 65.474,46.744 110.511,68.762c104.327,51.015 215.061,70.513 325.142,57.27l0,-0.009Zm-128.132,-31.651c-78.958,-10.241 -160.516,-38.541 -224.238,-77.805c-29.06,-17.899 -76.706,-54.357 -79.056,-60.478c-0.938,-2.44 -2.815,-3.744 -4.173,-2.904c-4.191,2.591 -55.912,-53.491 -83.113,-90.119c-36.476,-49.121 -90.968,-161.651 -85.356,-176.279c0.894,-2.341 0.465,-4.254 -0.956,-4.254c-4.307,0 -16.943,-46.833 -21.16,-78.484c-1.18,-8.802 -3.003,-21.062 -4.066,-27.228c-3.816,-22.232 -1.618,-120.161 3.485,-155.368c9.82,-67.717 37.28,-149.811 68.234,-204.025c34.574,-60.55 61.497,-95.472 111.565,-144.735c155.941,-153.43 399.311,-202.506 604.319,-121.877c76.634,30.14 133.1,66.438 192.247,123.583c112.244,108.438 175.761,260.286 175.761,420.185c-0,180.443 -71.246,338.806 -206.411,458.806c-79.53,70.612 -178.415,118.106 -286.763,137.756c-38.388,6.961 -118.999,8.588 -160.319,3.226Zm183.16,-36.798c107.115,-23.073 203.748,-75.839 281.562,-153.734c90.851,-90.941 148.523,-210.869 163.312,-339.565c3.753,-32.634 2.69,-125.469 -1.671,-146.013c-1.126,-5.29 -4.986,-24.028 -8.587,-41.65c-12.492,-61.157 -42.615,-130.893 -83.274,-192.792c-32.062,-48.817 -96.195,-112.343 -146.897,-145.513c-72.819,-47.637 -149.078,-76.152 -234.434,-87.652c-24.797,-3.342 -104.676,-2.413 -137.167,1.59c-95.712,11.805 -198.404,56.288 -272.867,118.196c-43.545,36.199 -94.917,94.881 -123.611,141.196c-22.902,36.986 -48.843,98.385 -64.276,152.161c-18.434,64.258 -23.251,161.758 -11.786,238.652c12.894,86.535 59.477,191.773 116.265,262.68c19.927,24.886 71.773,74.954 96.803,93.479c68.914,51.024 139.463,82.853 217.831,98.295c46.404,9.141 51.417,9.499 118.526,8.355c44.992,-0.769 66.724,-2.627 90.262,-7.694l0.009,0.009Zm-139.919,-21.696c-28.783,-2.592 -84.891,-15.129 -118.267,-26.415c-183.258,-61.971 -315.438,-225.641 -342.961,-424.653c-21.526,-155.664 29.283,-318.682 135.219,-433.866c108.875,-118.383 260.393,-178.781 418.397,-166.789c174.957,13.279 326.805,112.995 412.063,270.58c25.547,47.218 50.568,128.57 57.672,187.467c13.386,111.046 -14.932,240.868 -73.739,338.046c-24.61,40.658 -39.801,60.246 -76.751,98.929c-69.459,72.73 -166.029,125.881 -270.687,148.998c-37.441,8.265 -98.08,11.581 -140.946,7.711l-0,-0.008Zm117.892,-33.448c84.06,-13.725 147.952,-39.523 214.372,-86.571c103.38,-73.221 172.839,-181.051 201.89,-313.4c5.424,-24.717 6.728,-42.178 6.952,-92.898c0.304,-71.505 -4.406,-104.551 -22.805,-160.168c-25.512,-77.081 -60.943,-133.806 -121.028,-193.802c-46.038,-45.966 -87.5,-74.088 -145.807,-98.903c-11.456,-4.879 -23.707,-10.133 -27.237,-11.679c-11.67,-5.138 -54.018,-15.584 -84.882,-20.946c-56.136,-9.74 -141.045,-6.005 -193.803,8.525c-78.895,21.732 -137.068,52.311 -195.41,102.71c-52.311,45.189 -88.457,91.816 -120.027,154.823c-55.484,110.725 -67.44,231.092 -35.342,355.596c9.847,38.201 12.278,44.617 34.055,89.923c68.288,142.063 200.406,240.072 358.357,265.816c28.407,4.629 104.827,5.201 130.706,0.974l0.009,0Zm-103.773,-28.577c-25.459,-2.868 -89.771,-19.686 -112.798,-29.488c-51.945,-22.117 -86.205,-43.563 -126.658,-79.307c-62.435,-55.161 -106.436,-123.628 -132.761,-206.544c-16.621,-52.365 -19.454,-71.148 -20.24,-134.54c-1.09,-86.723 10.804,-139.99 47.977,-214.908c27.004,-54.438 46.869,-82.014 89.833,-124.719c52.15,-51.837 103.648,-83.596 173.419,-106.936c48.996,-16.389 91.084,-23.162 142.743,-22.957c58.199,0.233 86.321,4.62 138.998,21.688c133.422,43.232 239.688,150.159 284.859,286.619c16.246,49.068 22.259,88.743 22.027,145.2c-0.241,58.575 -6.541,98.438 -23.778,150.562c-23.806,71.925 -59.424,129.141 -114.729,184.303c-65.33,65.143 -150.561,110.323 -238.928,126.649c-31.794,5.871 -97.241,8.087 -129.946,4.387l-0.018,-0.009Zm120.42,-30.257c56.663,-6.496 125.219,-33.277 179.389,-70.084c88.144,-59.889 155.208,-158.952 179.156,-264.646c7.238,-31.937 8.042,-37.656 10.196,-72.077c6.041,-96.616 -24.744,-200.523 -82.997,-280.177c-13.582,-18.56 -65.33,-71.684 -79.127,-81.219c-51.498,-35.592 -84.043,-52.445 -129.741,-67.189c-44.09,-14.235 -61.015,-16.54 -121.725,-16.576c-48.737,-0.036 -62.838,1.108 -91.12,7.408c-162.356,36.172 -286.825,163.393 -324.106,331.308c-9.722,43.786 -11.098,124.826 -2.814,165.699c6.693,33.027 12.662,55.259 20.195,75.285c70.022,186.063 246.747,294.751 442.703,272.268l-0.009,0Zm-107.311,-31.776c-45.413,-8.391 -117.061,-37.969 -145.754,-60.174c-66.278,-51.284 -96.356,-86.268 -126.515,-147.184c-20.749,-41.891 -31.07,-74.016 -38.639,-120.215c-4.468,-27.29 -4.217,-97.366 0.447,-125.532c3.655,-22.027 13.922,-61.327 18.935,-72.488c1.582,-3.521 6.13,-14.333 10.098,-24.029c22.134,-53.99 63.865,-108.696 113.03,-148.13c59.415,-47.647 120.921,-73.945 197.645,-84.472c34.689,-4.762 44.832,-4.941 81.281,-1.429c44.251,4.271 97.053,18.944 133.145,37.03c50.041,25.057 106.847,72.774 138.793,116.605c31.347,42.991 52.445,88.948 66.305,144.476c6.666,26.683 7.604,37.915 7.595,91.298c0,53.214 -0.92,64.285 -7.301,88.091c-22.438,83.738 -55.42,142.215 -111.341,197.376c-60.237,59.433 -127.677,95.007 -205.973,108.661c-31.874,5.558 -101.977,5.621 -131.751,0.125l-0,-0.009Zm150.15,-30.918c56.35,-11.563 115.684,-39.845 157.272,-74.973c103.389,-87.312 150.865,-218.206 127.837,-352.432c-4.539,-26.477 -17.988,-69.575 -27.495,-88.091c-2.261,-4.405 -4.12,-9.15 -4.129,-10.544c-0.009,-1.403 -1.447,-4.28 -3.199,-6.407c-1.751,-2.127 -10.491,-15.021 -19.427,-28.657c-15.012,-22.912 -48.799,-60.273 -72.014,-79.655c-61.283,-51.141 -149.132,-79.458 -233.907,-75.393c-43.276,2.074 -69.012,7.212 -107.847,21.527c-119.223,43.956 -209.289,154.976 -228.492,281.642c-29.747,196.287 94.104,378.508 280.517,412.733c42.579,7.819 93.496,7.917 130.866,0.25l0.018,-0Zm-101.923,-25.736c-52.347,-8.918 -111.556,-37.522 -156.263,-75.481c-40.89,-34.716 -81.263,-99.681 -99.206,-159.614c-8.06,-26.915 -8.632,-32.875 -8.632,-89.698c-0,-57.307 0.518,-62.543 8.828,-89.699c40.471,-132.243 146.335,-222.764 279.114,-238.67c162.249,-19.444 314.652,91.54 347.58,253.128c7.927,38.916 8.552,98.474 1.403,133.833c-27.12,134.048 -132.269,240.207 -262.287,264.79c-26.075,4.932 -85.418,5.683 -110.537,1.402l-0,0.009Zm160.498,-39.309c47.646,-16.218 76.447,-34.028 111.922,-69.199c16.907,-16.764 36.244,-39.131 42.964,-49.702c75.035,-117.927 63.946,-268.096 -27.147,-367.508c-99.332,-108.401 -264.727,-123.771 -382.913,-35.574c-79.217,59.12 -121.144,143.86 -120.179,242.906c0.429,44.08 1.394,51.229 11.393,84.006c11.903,39.023 33.608,78.922 59.415,109.233c75.491,88.644 196.277,122.69 304.545,85.838Zm-120.635,-19.48c-65.911,-13.94 -125.192,-53.83 -160.15,-107.767c-115.872,-178.817 7.703,-413.832 217.805,-414.225c71.049,-0.134 126.908,23.671 179.388,76.456c35.011,35.207 53.92,68.815 67.895,120.662c7.855,29.122 7.712,95.954 -0.259,126.148c-15.611,59.111 -52.311,115.354 -98.438,150.847c-22.447,17.273 -57.619,35.163 -78.779,40.069c-8.444,1.957 -22.367,5.576 -30.936,8.033c-19.096,5.478 -70.138,5.362 -96.535,-0.223l0.009,-0Zm142.769,-34.698c11.572,-4.361 27.067,-11.009 34.439,-14.771c7.363,-3.762 13.395,-5.809 13.395,-4.558c0,1.251 1.805,0.09 4.004,-2.582c2.207,-2.672 12.447,-11.894 22.75,-20.499c30.141,-25.146 52.785,-57.807 68.771,-99.198c16.827,-43.571 17.809,-112.86 2.198,-155.369c-15.003,-40.864 -26.182,-58.825 -55.081,-88.519c-78.18,-80.334 -206.821,-85.972 -299.746,-13.136c-76.358,59.844 -105.891,169.032 -70.942,262.225c30.453,81.174 101.262,137.649 183.892,146.638c29.283,3.191 73.087,-1.465 96.32,-10.24l0,0.009Zm-85.409,-19.963c-40.686,-8.579 -70.147,-24.86 -100.717,-55.689c-36.351,-36.637 -54.733,-82.005 -54.643,-134.905c0.098,-60.166 22.045,-111.065 65.473,-151.813c34.413,-32.285 86.429,-50.362 139.856,-48.593c30.954,1.027 47.754,5.424 81.684,21.375c23.582,11.08 65.098,53.767 77.715,79.913c26.88,55.689 29.614,112.414 8.034,166.414c-35.726,89.386 -128.552,142.037 -217.393,123.298l-0.009,-0Zm108.66,-31.401c43.036,-15.62 73.436,-41.302 92.952,-78.538c17.023,-32.464 22.42,-57.261 20.177,-92.612c-5.326,-83.863 -66.554,-146.218 -147.809,-150.507c-67.162,-3.548 -126.238,30.704 -155.494,90.154c-54.714,111.19 20.526,237.964 141.733,238.777c21.518,0.152 32.571,-1.51 48.433,-7.265l0.008,-0.009Zm-53.892,-22.608c-65.536,-15.932 -110.377,-84.408 -97.786,-149.31c8.507,-43.866 33.948,-78.431 71.916,-97.705c40.096,-20.347 83.533,-19.624 122.36,2.046c45.922,25.628 71.568,81.496 62.149,135.37c-13.627,77.948 -85.275,127.444 -158.648,109.599l0.009,0Zm88.948,-29.435c21.241,-7.238 41.945,-26.861 53.839,-51.015c8.579,-17.425 10.08,-24.046 10.08,-44.411c-0,-19.391 -1.6,-27.174 -8.436,-41.016c-10.544,-21.348 -17.791,-33.823 -17.854,-30.713c-0.027,1.305 -6.416,-2.484 -14.208,-8.435c-26.343,-20.106 -65.867,-23.1 -96.713,-7.319c-58.352,29.846 -73.677,105.98 -31.303,155.485c10.634,12.421 28.827,24.583 44.474,29.73c12.171,3.994 45.359,2.725 60.121,-2.306Zm-19.319,-23.841c-37.907,-8.534 -60.041,-53.437 -44.394,-90.065c4.531,-10.625 33.295,-39.809 36.28,-36.825c0.697,0.697 7.059,-0.036 14.136,-1.626c38.675,-8.695 77.868,30.337 72.283,71.979c-4.852,36.217 -43.768,64.312 -78.305,56.537Zm63.552,-34.93c27.165,-27.165 -8.891,-72.319 -39.595,-49.604c-15.039,11.126 -18.748,26.603 -10.303,42.947c6.166,11.92 13.055,15.798 28.282,15.914c9.356,0.081 14.476,-2.117 21.616,-9.266l-0,0.009Zm-703.838,-415.083c1.019,-2.645 0.456,-4.807 -1.251,-4.807c-1.707,-0 -3.11,2.162 -3.11,4.807c0,2.636 0.572,4.799 1.26,4.799c0.697,-0 2.091,-2.163 3.101,-4.799Zm1039.96,1106.8c-0,-1.769 -1.35,-3.208 -3.012,-3.208c-1.653,0 -3.905,1.439 -4.995,3.208c-1.09,1.761 0.268,3.199 3.02,3.199c2.744,0 4.987,-1.438 4.987,-3.199Zm-1855.68,-788.836c-0.706,-5.728 -1.287,-1.045 -1.287,10.411c-0,11.446 0.581,16.138 1.287,10.41c0.715,-5.728 0.715,-15.102 -0,-20.821Zm86.616,-430.059c1.823,-5.29 4.396,-12.501 5.719,-16.022c1.617,-4.316 1.34,-5.361 -0.849,-3.199c-1.788,1.76 -5.621,10.357 -8.516,19.096c-2.904,8.739 -4.012,14.503 -2.467,12.814c1.537,-1.698 4.29,-7.408 6.113,-12.689Zm-90.995,608.644c0.009,-15.862 0.563,-21.947 1.224,-13.52c0.662,8.417 0.653,21.392 -0.018,28.827c-0.67,7.434 -1.215,0.545 -1.206,-15.307Zm-3.53,-67.279c-0.035,-7.041 0.59,-10.303 1.394,-7.238c0.796,3.056 0.831,8.829 0.063,12.814c-0.769,3.977 -1.421,1.474 -1.457,-5.576Zm117.821,-621.457c-0,-1.761 1.394,-5.362 3.1,-8.007c1.707,-2.645 3.11,-3.36 3.11,-1.6c0,1.761 -1.394,5.362 -3.11,8.007c-1.706,2.645 -3.1,3.369 -3.1,1.6Zm9.74,-25.629c-0,-1.76 2.055,-6.8 4.575,-11.205c2.52,-4.406 4.575,-6.568 4.575,-4.808c0,1.761 -2.055,6.809 -4.575,11.215c-2.52,4.405 -4.575,6.568 -4.575,4.807l-0,-0.009Zm19.087,-41.641c-0,-1.76 1.403,-5.362 3.11,-8.007c1.706,-2.645 3.1,-3.36 3.1,-1.599c0,1.76 -1.394,5.361 -3.1,8.006c-1.707,2.645 -3.11,3.36 -3.11,1.6Zm39.943,-81.683c7.971,-15.862 15.2,-28.837 16.085,-28.837c0.876,0 -4.915,12.975 -12.877,28.837c-7.962,15.852 -15.2,28.827 -16.084,28.827c-0.876,-0 4.914,-12.975 12.876,-28.827Zm24.029,-44.85c1.886,-3.52 4.146,-6.407 5.031,-6.407c0.885,0 0.054,2.887 -1.832,6.407c-1.885,3.521 -4.146,6.407 -5.031,6.407c-0.876,0 -0.053,-2.886 1.832,-6.407Zm9.606,-16.013c1.886,-3.53 4.155,-6.407 5.031,-6.407c0.885,0 0.063,2.877 -1.823,6.407c-1.885,3.521 -4.146,6.407 -5.031,6.407c-0.884,0 -0.062,-2.886 1.823,-6.407Zm9.615,-16.022c1.886,-3.521 4.146,-6.407 5.031,-6.407c0.885,-0 0.054,2.886 -1.832,6.407c-1.885,3.53 -4.146,6.407 -5.031,6.407c-0.875,0 -0.053,-2.877 1.832,-6.407Zm9.052,-14.825c1.814,-3.297 5.63,-8.882 8.489,-12.403c4.817,-5.951 4.835,-5.674 0.251,3.798c-2.708,5.621 -6.533,11.197 -8.481,12.403c-2.537,1.573 -2.609,0.492 -0.259,-3.798Z" style="fill:#f00;fill-rule:nonzero;"/></g></g></svg>