<?xml version="1.0" encoding="UTF-8" standalone="no"?>
<!DOCTYPE svg PUBLIC "-//W3C//DTD SVG 1.1//EN" "http://www.w3.org/Graphics/SVG/1.1/DTD/svg11.dtd">
<svg width="100%" height="100%" viewBox="0 0 2176 2224" version="1.1" xmlns="http://www.w3.org/2000/svg" xmlns:xlink="http://www.w3.org/1999/xlink" xml:space="preserve" xmlns:serif="http://www.serif.com/" style="fill-rule:evenodd;clip-rule:evenodd;stroke-linejoin:round;stroke-miterlimit:2;">
    <g transform="matrix(1,0,0,1,469.984,226.031)">
        <g transform="matrix(4.25948e-14,1814.6,1255.12,-1.45371e-13,599.283,885.828)">
            <rect x="-0.613" y="-0.852" width="1.225" height="1.733" style="fill:rgb(146,73,186);"/>
        </g>
        <g transform="matrix(8.93592,0,0,8.93592,-1067.48,-833.029)">
            <path d="M173.17,368.69C168.193,368.316 165.867,368.045 160.623,367.226C160.032,367.134 158.176,366.805 156.5,366.495L152.557,365.774C149.542,365.244 139.258,362.408 133.916,360.633C128.224,358.741 125.479,357.703 119.577,355.211C117.531,354.348 105.647,348.386 103.445,347.118C95.136,342.336 85.695,335.851 78.351,329.88C70.525,323.518 58.457,311.412 53.456,304.906C46.689,296.103 44.183,292.536 40.348,286.25C37.568,281.692 33.892,274.537 34.132,274.149C34.262,273.938 34.199,273.871 33.992,273.999C33.023,274.598 24.719,253.12 22.649,244.661C22.36,243.478 21.802,241.381 21.411,240.001C19.447,233.086 16.836,217.177 16.527,210.247L16.368,206.662L16.695,209.709C18.101,222.772 19.437,230.132 22.452,241.414C27.263,259.413 34.314,275.016 44.496,290.189C54.564,305.193 68.191,319.569 82.779,330.577C86.927,333.707 96.633,340.23 99.859,342.054C119.044,352.907 137.073,359.466 156.718,362.741C166.873,364.434 171.171,364.744 184.103,364.714C197.025,364.685 200.766,364.381 211.886,362.455C236.372,358.215 259.731,348.509 280.536,333.93C287.803,328.838 295.841,322.049 302.6,315.295C322.449,295.461 336.323,273.104 345.322,246.453C352.504,225.183 355.725,202.781 354.731,181.029C353.844,161.617 349.837,142.804 342.743,124.747C340.532,119.118 334.718,107.061 331.852,102.162C329.811,98.673 324.069,89.996 321.176,86.03C313.897,76.051 302.139,63.744 292.905,56.439C291.919,55.66 291.032,54.929 290.934,54.816C290.122,53.883 279.944,46.771 274.444,43.293C267.832,39.112 257.055,33.637 250.851,31.308C249.532,30.813 247.97,30.197 247.378,29.939C242.471,27.801 230.912,24.161 224.614,22.771C218.301,21.378 210.388,19.98 206.152,19.511C196.449,18.436 181.085,18.178 173.171,18.957C153.043,20.938 134.277,25.766 118.323,33.067C116.053,34.106 106.82,38.722 105.059,39.698C97.193,44.06 86.13,51.506 80.17,56.449C67.41,67.032 56.714,78.659 47.363,92.114C44.436,96.326 43.432,97.662 44.124,96.425C46.81,91.623 56.357,79.057 62.371,72.406C65.023,69.473 72.115,62.491 74.934,60.038C76.293,58.855 78.143,57.222 79.044,56.409C80.8,54.824 89.022,48.52 92.753,45.896C102.425,39.095 117.201,31.331 128.361,27.186C129.938,26.6 131.471,26.058 131.767,25.982C132.062,25.906 133.192,25.495 134.276,25.068C137.389,23.843 148.569,20.691 153.993,19.509C167.881,16.483 184.276,15.077 197.728,15.757C228.403,17.309 257.633,26.661 282.428,42.859C288.716,46.967 297.663,53.609 301.625,57.111C317.447,71.096 328.263,84.202 338.249,101.487C341.644,107.364 346.432,117.158 348.305,122.055C349.134,124.224 350.103,126.644 350.459,127.433C351.532,129.816 355.878,143.865 356.502,146.97C356.68,147.857 357.326,150.922 357.936,153.781C358.954,158.55 360.53,169.173 360.995,174.394C361.508,180.17 361.63,194.595 361.222,201.28C360.799,208.205 359.466,218.388 357.962,226.195C353.203,250.891 340.294,279.793 325.383,299.133C318.452,308.123 316.146,310.743 308.17,318.689C299.936,326.892 294.79,331.276 286.274,337.344C277.215,343.798 265.283,350.585 255.408,354.898C238.45,362.306 218.091,367.411 199.879,368.823C194.105,369.27 179.997,369.198 173.172,368.685L173.17,368.69ZM168.868,360.058C168.277,359.976 165.454,359.659 162.595,359.355C145.881,357.577 127.763,352.435 112.228,345.061C107.712,342.917 102.244,340.133 100.038,338.852C90.437,333.281 82.469,327.667 73.512,320.165C67.395,315.041 57.193,304.635 53.371,299.62C52.815,298.891 51.053,296.633 49.455,294.601C39.164,281.522 30.107,263.872 24.764,246.486C23.728,243.117 22.764,239.796 22.622,239.105C22.479,238.415 22.151,237.205 21.892,236.417C20.75,232.932 18.281,219.359 17.588,212.757C17.05,207.629 16.698,203.065 16.695,201.196C16.693,199.647 16.554,198.954 16.244,198.95C15.899,198.946 15.895,198.881 16.229,198.669C16.787,198.314 16.645,194.463 16.051,193.869C15.807,193.625 15.642,192.641 15.675,191.624L15.733,189.814L15.975,191.786C16.249,194.025 16.302,193.929 16.526,190.78C16.622,189.444 16.552,188.604 16.356,188.725C16.174,188.837 15.923,188.766 15.799,188.565C15.676,188.365 15.705,188.2 15.864,188.198C16.024,188.196 16.176,186.259 16.203,183.893C16.237,180.854 16.395,179.413 16.741,178.987C17.01,178.656 17.048,178.493 16.826,178.626C16.369,178.9 16.439,177.759 17.263,171.531C18.187,164.548 18.767,161.159 20.164,154.603C20.731,151.94 21.239,150.31 21.459,150.447C21.668,150.576 21.711,150.491 21.56,150.247C21.254,149.751 22.455,144.798 22.826,145.028C22.965,145.113 23.003,144.896 22.911,144.545C22.819,144.194 22.942,143.427 23.183,142.842C23.425,142.256 23.643,141.696 23.668,141.598L24.182,139.537C24.471,138.376 24.797,137.747 25.034,137.893C25.282,138.047 25.329,137.9 25.167,137.477C24.845,136.638 26.282,132.277 26.881,132.277C27.13,132.277 27.532,131.615 27.774,130.806C28.016,129.997 28.311,129.083 28.429,128.775C28.57,128.409 28.501,128.305 28.229,128.473C27.953,128.643 27.889,128.533 28.038,128.143C28.219,127.674 28.324,127.652 28.567,128.035C28.778,128.369 28.871,128.383 28.875,128.081C28.882,127.564 31.758,120.765 33.22,117.811C34.303,115.621 34.502,114.876 33.904,115.246C33.696,115.374 33.643,115.221 33.774,114.879C33.934,114.462 34.075,114.415 34.261,114.716C34.417,114.969 35.706,112.92 37.456,109.638C39.069,106.611 40.736,103.571 41.159,102.881C67.265,60.353 108.247,32.114 155.609,24.019C168.848,21.756 177.955,21.107 190.22,21.555C199.953,21.91 207.917,22.877 216.731,24.774L220.675,25.62C220.97,25.682 223.125,26.236 225.462,26.852C242.179,31.256 257.217,37.941 273.571,48.239C274.173,48.618 276.976,50.622 279.799,52.693C304.234,70.613 322.846,93.949 334.407,121.164C336.911,127.058 337.494,128.599 339.698,135.145C343.515,146.482 346.259,159.875 347.63,173.861C348.245,180.141 348.133,196.362 347.425,203.538C346.067,217.289 343.637,229.859 340.341,240.174C337.892,247.838 333.827,258.46 331.97,262.049C331.51,262.936 330.585,264.872 329.914,266.35C327.829,270.942 323.526,278.386 318.931,285.349C305.466,305.755 285.503,324.787 264.768,336.986C244.456,348.936 221.711,356.664 198.768,359.41C194.219,359.955 171.634,360.445 168.873,360.059L168.868,360.058ZM191.453,355.485C192.045,355.384 193.497,355.218 194.68,355.117C196.574,354.955 198.542,354.65 207.944,353.065C212.35,352.323 226.571,348.499 229.095,347.379C229.489,347.204 230.699,346.744 231.783,346.356C248.194,340.496 264.647,331.223 278.797,319.861C283.328,316.224 291.543,308.757 294.348,305.728C307.779,291.226 315.771,279.819 323.656,263.895C326.927,257.29 328.218,254.418 329.642,250.576C330.263,248.901 330.934,247.133 331.133,246.648C331.679,245.319 334.492,236.426 335.334,233.369C338.056,223.482 340.272,210.736 341.131,200.03C341.521,195.169 341.65,179.404 341.318,177.311C341.22,176.695 341.058,175.061 340.957,173.681C338.99,146.647 329.142,118.266 314.019,96.044C302.931,79.75 290.82,66.939 276.281,56.123C273.054,53.722 265.654,48.77 263.682,47.691C262.799,47.207 261.534,46.445 260.872,45.996C260.21,45.547 258.839,44.766 257.825,44.26C256.811,43.754 255.094,42.877 254.01,42.311C241.141,35.595 230.619,31.844 213.322,27.806C208.685,26.724 201.406,25.634 194.143,24.934C188.22,24.363 171.028,24.421 166.36,25.027C164.782,25.232 162.604,25.496 161.52,25.614C158.563,25.936 157.154,26.151 151.662,27.117C124.393,31.914 98.506,44.188 75.975,63.003C71.297,66.909 62.133,76.047 57.552,81.371C54.177,85.294 46.778,95.11 45.181,97.782C44.978,98.121 44.025,99.609 43.063,101.088C39.704,106.25 34.517,115.954 31.689,122.363C27.068,132.836 22.667,147.196 20.41,159.162C17.902,172.454 17.255,179.131 17.266,191.605C17.281,209.895 19.225,223.631 24.344,241.614C29.678,260.355 39.516,279.385 51.771,294.67C53.273,296.543 54.598,298.156 54.716,298.254C54.834,298.353 56.388,300.128 58.169,302.198C61.521,306.095 67.994,312.536 71.686,315.648C72.851,316.63 74.383,317.933 75.091,318.545C77.453,320.584 85.294,326.412 89.183,329.019C96.035,333.611 105.671,338.922 112.389,341.807C113.878,342.446 115.821,343.307 116.708,343.72C120.467,345.47 130.217,348.811 137.142,350.722C144.255,352.685 152.064,354.14 160.429,355.062C163.099,355.357 165.848,355.665 166.538,355.749C168.211,355.95 190.082,355.717 191.453,355.483L191.453,355.485ZM165.463,351.43C157.782,350.882 153.807,350.398 147.897,349.291C131.547,346.227 118.374,341.78 103.982,334.466C95.728,330.271 87.589,325.279 81.756,320.834L76.379,316.734C62.316,306.007 46.778,287.778 38.026,271.741C33.74,263.886 29.512,254.616 27.802,249.323C27.356,247.942 26.893,246.652 26.773,246.455C26.652,246.257 26.374,245.451 26.153,244.662C25.933,243.874 25.105,240.97 24.314,238.209C20.774,225.857 19.145,216.582 18.144,203.077C17.525,194.739 17.95,179.174 19.019,170.993C19.462,167.603 20.687,160.312 21.218,157.908C21.523,156.528 21.984,154.431 22.243,153.248C26.296,134.735 34.383,115.775 45.181,99.475C67.35,66.008 100.328,42.368 138.72,32.42C141.461,31.71 144.002,31.207 144.366,31.302C144.731,31.397 145.029,31.35 145.029,31.197C145.029,31.044 145.553,30.827 146.194,30.714C146.835,30.6 149.053,30.192 151.123,29.805C153.193,29.419 156.097,28.989 157.576,28.851C159.054,28.713 160.351,28.547 160.457,28.484C160.562,28.42 162.095,28.26 163.862,28.127C165.63,27.994 167.189,27.815 167.329,27.731C167.994,27.325 187.967,27.646 192.881,28.141C208.126,29.677 221.715,33.055 236.802,39.06C244.044,41.943 257.726,49.09 262.334,52.398C262.972,52.856 263.774,53.392 264.116,53.589C269.243,56.542 283.166,67.857 287.565,72.646C288.178,73.313 290.114,75.347 291.867,77.167C302.728,88.439 313.396,104.321 320.336,119.551C327.537,135.352 332.751,154.67 334.126,170.635C334.868,179.248 334.988,181.607 334.972,187.17C334.941,198.072 333.593,211.309 331.565,220.643L330.361,226.2C329.509,230.139 326.51,239.998 324.512,245.432C321.46,253.732 316.908,263.406 312.797,270.328C311.616,272.318 310.649,274.018 310.649,274.106C310.649,274.194 310.345,274.703 309.973,275.237C309.602,275.772 308.124,277.983 306.69,280.152C290.223,305.055 264.885,326.308 237.338,338.323C233.056,340.191 219.362,345.144 217.038,345.666C216.57,345.771 214.333,346.338 212.065,346.925C205.778,348.553 201.065,349.458 193.961,350.402C185.914,351.471 172.715,351.947 165.461,351.43L165.463,351.43ZM184.485,346.822C206.202,344.808 228.641,337.878 246.839,327.566C250.751,325.349 250.649,325.411 256.271,321.764C288.408,300.913 312.114,268.377 322.637,230.681C326.213,217.869 327.761,208.383 328.604,194.115C328.947,188.315 328.835,177.673 328.402,174.839C328.334,174.399 328.174,172.668 328.044,170.992C327.189,159.899 323.282,142.447 319.378,132.276C312.927,115.469 306.758,104.188 296.736,90.871C284.084,74.058 267.789,59.937 249.169,49.65C233.014,40.724 214.581,34.457 197.009,31.915C192.692,31.291 191.317,31.13 187.793,30.836C184.189,30.536 163.342,30.611 162.056,30.929C161.662,31.027 160.049,31.216 158.471,31.349C154.082,31.72 141.991,33.906 136.558,35.311C132.119,36.459 121.844,39.695 120.113,40.491C119.719,40.672 117.38,41.666 114.915,42.699C100.723,48.648 87.46,56.751 75.482,66.793C71.797,69.883 62.013,79.543 58.176,83.881C55.468,86.943 49.005,95.347 46.401,99.191C35.286,115.603 26.922,135.321 22.634,155.22C21.462,160.662 20.019,169.115 19.728,172.248C19.6,173.628 19.414,175.241 19.314,175.833C19.214,176.424 19.026,180.124 18.897,184.054C18.526,195.336 19.1,205.731 20.682,216.341C21.477,221.678 23.929,233.012 24.907,235.878C25.075,236.371 25.503,237.823 25.858,239.105C26.822,242.592 29.996,251.266 32.089,256.133C36.842,267.187 45.501,281.42 52.591,289.831C52.923,290.225 53.781,291.274 54.497,292.161C56.765,294.971 65.498,304.057 68.85,307.093C94.171,330.033 127.017,344.334 160.443,346.971C166.791,347.472 178.238,347.401 184.484,346.821L184.485,346.822ZM160.265,342.856C149.128,342.046 138.213,340.066 126.926,336.808C123.317,335.767 123.75,335.915 116.888,333.361C102.286,327.926 88.399,320.032 75.304,309.724C65.654,302.128 55.027,290.952 48.037,281.048C47.272,279.964 46.54,278.996 46.41,278.897C45.934,278.535 41.462,271.427 39.174,267.397C36.574,262.816 33.191,255.826 31.369,251.271C27.452,241.478 24.56,231.807 22.639,222.077C21.42,215.908 21.114,213.741 20.008,203.436C19.546,199.136 19.692,179.071 20.215,174.936C21.344,166.012 22.067,161.668 23.556,154.861C26.863,139.742 33.064,123.385 40.069,111.305C40.755,110.122 41.692,108.509 42.152,107.721C45.03,102.782 54.42,89.67 55.564,88.992C55.815,88.843 56.084,88.532 56.163,88.302C56.723,86.652 68.535,74.609 74.588,69.516C87.177,58.925 100.996,50.558 115.993,44.446C124.811,40.853 139.348,36.703 146.644,35.697C147.235,35.616 149.413,35.303 151.483,35.003C163.822,33.212 176.22,32.955 188.407,34.238C192.787,34.699 198.861,35.617 200.237,36.025C200.533,36.113 201.393,36.282 202.148,36.4C203.94,36.679 211.792,38.581 213.86,39.236C219.747,41.101 226.443,43.474 229.096,44.635L233.577,46.596C242.139,50.341 255.765,58.471 263.136,64.233C268.89,68.731 276.931,76.114 281.801,81.372C297.717,98.555 309.847,119.989 316.187,142.135C316.525,143.318 316.939,144.689 317.107,145.182C318.402,148.997 320.673,160.834 321.404,167.587C321.639,169.756 321.968,172.659 322.134,174.04C322.441,176.586 322.293,196.714 321.945,199.672C321.841,200.559 321.588,202.737 321.384,204.511C320.915,208.582 319.787,215.578 319.072,218.85C318.771,220.23 318.375,222.086 318.194,222.973C317.195,227.855 313.763,238.428 310.748,245.916C302.684,265.938 290.951,283.555 275.699,298.542C266.419,307.66 257.499,314.628 246.662,321.221C242.779,323.583 234.975,327.729 232.323,328.839C231.14,329.334 229.042,330.262 227.662,330.902C223.356,332.899 211.737,336.847 205.714,338.359C198.921,340.064 191.128,341.493 184.644,342.221C180.228,342.717 164.121,343.136 160.267,342.856L160.265,342.856ZM184.168,337.723C203.715,335.252 222.822,328.777 240.457,318.65C258.06,308.541 274.808,293.435 286.888,276.773C288.114,275.082 289.294,273.493 289.511,273.241C289.728,272.988 291.433,270.246 293.299,267.146C295.166,264.047 296.848,261.269 297.037,260.973C297.227,260.677 298.752,257.674 300.426,254.299C303.515,248.074 306.644,240.484 308.537,234.624C309.11,232.85 309.818,230.672 310.11,229.784C310.702,227.989 313.369,217.048 313.694,215.086C313.809,214.396 313.971,213.59 314.056,213.294C314.468,211.851 315.67,202.495 316.038,197.879C317.996,173.246 314.05,148.584 304.565,126.182C301.548,119.058 296.654,109.627 294.118,106.051C293.746,105.528 293.443,105.002 293.443,104.883C293.443,104.189 285.716,93.619 281.784,88.933C263.931,67.664 241.206,52.273 215.221,43.852C211.81,42.747 208.697,41.716 208.303,41.56C207.908,41.405 207.102,41.19 206.51,41.083C205.919,40.977 203.338,40.412 200.775,39.828C186.708,36.625 168.315,35.708 153.276,37.46C140.847,38.908 125.347,42.791 115.814,46.844L110.993,48.88C96.407,55.012 80.918,65.133 69.803,75.796C58.147,86.978 50.97,95.729 43.327,108.077C39.445,114.35 34.326,124.484 32.19,130.124C31.78,131.209 30.957,133.387 30.363,134.964C29.768,136.541 28.778,139.526 28.162,141.596C27.546,143.666 26.901,145.763 26.729,146.256C25.77,149.005 23.204,161.23 22.29,167.407C20.571,179.024 20.318,194.989 21.671,206.482C22.933,217.208 24.815,226.548 27.449,235.161C29.517,241.92 29.745,242.57 31.947,247.982C42.829,274.726 61.001,297.116 84.986,313.332C87.156,314.799 89.253,316.195 89.646,316.433C96.605,320.647 106.227,325.665 110.492,327.304L115.813,329.347C118.574,330.406 122.161,331.63 126.568,333.017C132.099,334.757 141.775,336.746 149.226,337.675C157.29,338.68 157.445,338.688 168.332,338.578C175.74,338.503 179.676,338.29 184.169,337.722L184.168,337.723ZM150.945,333.749C144.799,333.098 140.142,332.387 135.53,331.395C132.387,330.719 123.584,328.417 122.625,328.021C122.231,327.858 119.892,327.04 117.427,326.204C95.212,318.666 72.263,303.121 57.114,285.35C51.5,278.764 49.719,276.468 46.773,272.024C33.291,251.68 25.82,230.961 22.944,205.946C22.255,199.953 21.976,184.879 22.432,178.343C23.973,156.289 30.881,132.851 41.241,114.532C43.91,109.813 50.313,99.953 51.723,98.392C52.075,98.003 53.081,96.716 53.959,95.533C57.809,90.348 62.608,85.139 70.184,77.922C72.869,75.365 81.152,68.532 83.464,66.968C89.64,62.791 93.125,60.545 94.485,59.867C95.373,59.425 96.341,58.855 96.636,58.6C97.654,57.723 109.369,52.054 113.664,50.361C123.109,46.637 131.676,44.088 140.013,42.522C152.059,40.259 157.54,39.796 169.947,39.991C179.806,40.145 180.687,40.194 185.72,40.867L190.022,41.443C190.811,41.549 192.585,41.872 193.966,42.161C195.346,42.45 197.022,42.774 197.69,42.881C201.891,43.552 216.802,48.298 222.465,50.766C249.246,62.436 269.47,79.278 286.096,103.756C299.603,123.641 308.445,149.794 310.102,174.759C310.32,178.044 310.349,196.068 310.137,196.411C310.047,196.557 309.796,198.439 309.579,200.595C308.516,211.176 306.047,222.676 302.616,233.03C299.142,243.512 295.168,252.095 288.48,263.566C286.111,267.627 279.226,277.293 276.024,281.05C263.678,295.538 252.425,305.091 236.446,314.649C233.839,316.208 224.649,320.819 221.031,322.383C210.117,327.1 198.558,330.644 189.305,332.111L185.72,332.68C174.913,334.397 161.073,334.823 150.947,333.75L150.945,333.749ZM174.32,329.634C180.343,329.055 184.959,328.372 190.379,327.258C198.272,325.636 209.771,321.975 216.305,319.003C217.551,318.436 218.719,317.972 218.9,317.972C219.633,317.972 231.926,311.432 236.445,308.637C249.985,300.264 262.149,289.309 273.249,275.491C276.203,271.813 282.365,262.847 284.335,259.359C284.557,258.965 285.387,257.513 286.179,256.133C290.505,248.592 295.54,236.648 298.42,227.096C301.413,217.17 303.312,207.059 304.212,196.266C304.614,191.449 304.715,178.316 304.382,174.219C304.078,170.48 303.115,162.351 302.768,160.597C302.593,159.71 302.182,157.532 301.856,155.757C300.839,150.228 298.863,143.124 296.372,136.04C290.887,120.444 281.783,104.5 271.654,92.755C262.554,82.203 253.165,73.721 242.36,66.292C241.374,65.614 240.487,64.979 240.388,64.881C240.289,64.782 239.564,64.364 238.775,63.951C237.986,63.539 235.732,62.28 233.766,61.154C220.887,53.778 203.206,47.244 190.559,45.185L187.332,44.65C186.839,44.564 184.904,44.316 183.031,44.098C181.158,43.881 178.818,43.59 177.833,43.451C176.847,43.313 171.281,43.21 165.465,43.222C156.812,43.241 153.749,43.389 148.616,44.034C116.809,48.031 88.755,61.646 66.517,83.877C45.703,104.685 32.621,129.244 26.414,159.163C24.353,169.094 23.517,178.546 23.686,189.993C23.834,200.078 24.177,204.293 25.521,212.578C28.951,233.712 37.012,253.895 48.717,270.653C51.201,274.209 55.127,279.414 55.749,279.973C55.858,280.072 56.987,281.362 58.258,282.841C66.59,292.537 79.235,303.112 90.972,310.198C93.993,312.022 103.64,317.018 106.493,318.236C114.46,321.637 118.12,322.925 127.277,325.549C133.209,327.249 141.913,328.837 149.512,329.607C155.905,330.255 167.742,330.268 174.321,329.635L174.32,329.634ZM151.173,325.822C136.297,324.752 120.571,320.846 106.419,314.705C95.442,309.942 86.915,304.763 74.935,295.585C69.144,291.148 59.262,280.991 53.385,273.433C49.933,268.993 46.088,263.511 46.088,263.027C46.088,262.855 45.63,262.041 45.071,261.217C41.647,256.172 36.841,246.083 33.09,236.058C30.182,228.287 26.554,212.431 26.189,205.894C26.133,204.88 25.995,203.75 25.884,203.384C25.253,201.305 24.874,184.454 25.324,178.52C25.707,173.471 26.569,166.468 27.31,162.388C28.576,155.416 31.625,143.832 33.444,139.086C35.774,133.006 36.921,130.187 37.6,128.869C38.007,128.081 38.379,127.204 38.428,126.921C38.592,125.965 42.656,118.137 44.953,114.35C52.257,102.313 58.534,94.336 67.677,85.471C81.672,71.902 96.612,62.227 114.022,55.462C124.762,51.289 136.535,48.434 149.333,46.9C155.285,46.187 172.773,46.279 179.087,47.058C199.796,49.611 218.489,56.267 235.549,67.162C253.774,78.802 270.276,96.107 280.375,114.171C285.224,122.843 286.461,125.402 289.215,132.454C293.182,142.61 295.035,149.325 296.994,160.644C302.728,193.765 296.077,228.732 278.483,257.959C270.02,272.018 259.095,284.717 247.2,294.322C246.116,295.198 245.148,296.011 245.049,296.129C244.672,296.582 237.936,301.409 235.37,303.064C233.891,304.019 232.036,305.237 231.248,305.772C229.693,306.827 222.207,310.917 219.597,312.138C208.687,317.241 201.059,319.952 190.739,322.393C176.865,325.675 164.294,326.764 151.175,325.821L151.173,325.822ZM172.041,321.135C178.746,320.434 181.35,319.971 188.944,318.132C209.519,313.15 228.461,303.431 245.297,289.219C252.39,283.232 263.702,270.607 268.519,263.303C269.299,262.12 270.21,260.83 270.542,260.435C270.875,260.041 271.464,259.154 271.852,258.464C272.24,257.774 273.471,255.676 274.588,253.803C276.825,250.05 280.672,242.378 282.138,238.747C282.655,237.466 283.229,236.095 283.411,235.7C287.131,227.681 291.338,210.966 292.796,198.417C293.508,192.284 293.411,174.141 292.633,167.946C292.286,165.186 291.918,162.524 291.814,162.031C291.71,161.538 291.235,159.038 290.759,156.475C289.626,150.382 287.326,141.986 285.575,137.555C285.402,137.117 284.897,135.79 284.452,134.607C284.007,133.424 283.097,131.256 282.43,129.79C281.763,128.324 280.868,126.307 280.441,125.309C279.626,123.4 277.022,118.275 275.786,116.145C273.492,112.192 267.588,103.313 266.417,102.056C265.902,101.504 265.481,100.929 265.481,100.779C265.481,100.63 265.199,100.193 264.854,99.81C264.509,99.427 263.341,98.066 262.26,96.785C255.731,89.056 247.403,81.183 239.667,75.426C230.129,68.329 217.767,61.533 207.765,57.889C206.286,57.35 204.753,56.772 204.359,56.603C201.522,55.39 186.842,51.608 182.954,51.089L177.293,50.318C170.724,49.421 153.25,49.404 146.082,50.289C133.699,51.817 123.486,54.393 111.69,58.966C90.94,67.011 71.578,81.495 56.823,100.013C50.384,108.094 46.708,113.813 41.498,123.852C34.365,137.6 28.568,158.177 27.258,174.399C27.131,175.977 26.961,177.671 26.88,178.164C26.663,179.493 26.672,194.533 26.892,196.811C26.996,197.892 27.255,200.551 27.467,202.72C28.617,214.453 33.023,231.794 37.122,240.72C37.303,241.114 37.878,242.485 38.4,243.767C41.751,251.992 49.145,264.155 56.026,272.756C64.941,283.9 76.557,294.172 88.891,301.818C97.864,307.38 106.596,311.498 116.602,314.886C128.03,318.755 136.319,320.416 150.585,321.697C154.355,322.035 166.47,321.719 172.04,321.136L172.041,321.135ZM149.869,317.741C121.307,315.812 95.583,305.571 74.049,287.558C69.83,284.029 60.866,275.054 58.455,271.943C57.864,271.18 56.554,269.542 55.545,268.302C52.715,264.825 47.537,256.956 44.943,252.19C36.258,236.233 31.463,221.132 29.176,202.54C28.431,196.482 28.541,176.261 29.35,170.456C32.197,150.042 38.319,132.07 47.676,116.66C52.704,108.38 54.449,105.902 59.387,100.025C67.937,89.851 77.665,81.115 88.388,73.979C105.973,62.277 127.457,54.909 149.331,53.078C157.538,52.391 172.846,53.002 180.34,54.315C202.75,58.243 221.536,66.683 239.49,80.889C243.471,84.039 252.883,93.203 256.553,97.502C265.738,108.262 273.385,120.876 278.395,133.53C290.842,164.969 291.272,197.919 279.657,230.221C271.128,253.94 254.844,275.977 234.651,291.129C225.508,297.99 214.068,304.54 204.352,308.478C198.266,310.945 185.258,314.781 180.161,315.612C175.609,316.354 171.361,316.963 168.545,317.277C165.177,317.653 153.032,317.954 149.869,317.741ZM169.765,312.837L174.963,312.044C184.601,310.579 196.003,307.094 206.091,302.531C224.681,294.12 242.721,279.92 254.79,264.195L257.132,261.152C259.231,258.429 261.877,254.418 264.519,249.956C274.607,232.914 280.707,213.616 282.339,193.577C283.765,176.067 281.603,158.313 276.012,141.615C273.577,134.342 272.753,132.38 269.245,125.504C265.372,117.911 264.703,116.73 261.92,112.559C255.365,102.736 245.919,91.994 238.415,85.827C237.232,84.855 236.184,83.97 236.085,83.861C235.986,83.752 235.26,83.187 234.472,82.606C233.683,82.025 232.845,81.369 232.61,81.148C232.375,80.927 229.633,79.049 226.516,76.975C220.984,73.293 215.689,70.25 210.991,68.052L206.51,65.95C202.277,63.959 190.826,60.151 186.614,59.334C185.924,59.201 183.455,58.704 181.128,58.23C178.8,57.756 175.897,57.274 174.675,57.159C173.453,57.043 171.163,56.78 169.586,56.575C163.918,55.835 152.62,55.934 143.877,56.798C127.197,58.448 109.117,64.306 95.057,72.615C88.938,76.232 86.215,78.041 81.578,81.574C74.994,86.589 70.261,91.058 62.035,100.024C56.217,106.366 47.466,119.761 43.308,128.691C38.989,137.964 35.597,148.023 33.332,158.266C29.579,175.244 29.403,195.023 32.852,212.397C33.999,218.171 37.522,230.461 38.917,233.548C39.095,233.942 39.913,235.878 40.735,237.85C48.699,256.955 62.32,274.708 78.716,287.351C82.346,290.149 83.289,290.817 87.631,293.655C99.475,301.399 112.561,306.977 127.284,310.561C131.79,311.658 139.429,312.891 143.532,313.184C145.243,313.306 146.712,313.468 146.798,313.544C147.25,313.946 166.362,313.357 169.765,312.837ZM150.008,309.567C149.92,309.479 148.305,309.378 146.418,309.343C137.593,309.179 123.921,306.395 113.167,302.573C94.929,296.092 77.743,284.766 64.995,270.831C49.309,253.683 39.149,233.327 34.667,210.068C34.268,207.998 33.851,205.498 33.739,204.512C33.627,203.526 33.444,201.993 33.333,201.106C32.217,192.225 32.41,175.53 33.725,167.229C35.066,158.756 39.317,143.057 41.587,138.192C41.863,137.601 42.407,136.308 42.795,135.319C43.653,133.137 48.243,123.759 49.549,121.523C50.932,119.153 58.48,107.841 59.239,107.001C59.597,106.605 60.535,105.477 61.324,104.496C65.128,99.761 71.898,92.963 77.657,88.093C78.532,87.353 79.49,86.532 79.786,86.269C80.082,86.005 80.882,85.401 81.565,84.926C82.248,84.45 83.13,83.774 83.526,83.424C84.621,82.453 92.862,77.057 96.098,75.192C98.665,73.712 104.363,70.894 107.749,69.429C108.439,69.131 109.914,68.486 111.027,67.996C117.033,65.354 131.205,61.639 139.833,60.446C145.386,59.678 163.336,59.373 168.333,59.962C175.57,60.816 182.232,61.953 184.706,62.758C185.332,62.961 186.3,63.207 186.857,63.304C189.248,63.72 199.038,67.007 202.21,68.458C202.605,68.639 203.734,69.138 204.72,69.567C212.193,72.823 220.928,77.953 227.675,83.05C229.194,84.198 230.913,85.483 231.495,85.907C235.976,89.166 245.222,98.408 250.272,104.675C254.395,109.791 260.091,118.362 262.778,123.496C266.155,129.944 270.69,140.869 272.095,145.938L273.33,150.382C274.658,155.152 275.923,161.901 276.824,169.023C277.625,175.352 277.621,189.791 276.817,196.491C274.524,215.602 269.113,231.844 259.753,247.71C250.268,263.79 236.364,278.528 221.389,288.375C213.765,293.389 213.006,293.84 207.799,296.448C194.767,302.977 182.271,306.803 167.437,308.808C163.147,309.388 150.386,309.944 150.01,309.568L150.008,309.567ZM164.746,305.107C166.028,304.918 167.843,304.666 168.78,304.547C170.829,304.285 177.809,302.851 181.775,301.876C190.039,299.843 202.411,294.725 211.216,289.695C215.138,287.454 225.515,280.248 226.765,278.898C226.863,278.791 228.234,277.633 229.812,276.323C236.082,271.118 244.521,261.887 249.581,254.698C254.786,247.302 260.695,236.937 262.455,232.113C262.815,231.127 263.305,229.998 263.545,229.604C264.158,228.598 267.397,219.071 268.299,215.623C270.236,208.22 271.603,201.209 272.074,196.265C272.187,195.082 272.371,193.146 272.483,191.963C272.595,190.78 272.732,187.231 272.787,184.076C273.032,170.063 271.043,157.195 266.539,143.657C262.705,132.135 257.635,122.25 250.189,111.782C244.849,104.275 236.354,95.156 230.04,90.153C228.796,89.167 227.59,88.195 227.361,87.993C226.349,87.099 219.951,82.453 218.161,81.311L214.484,78.959C207.657,74.574 194.108,68.867 184.464,66.314C170.085,62.507 151.373,61.619 136.248,64.024C119.919,66.62 105.212,72.196 91.079,81.147C78.561,89.075 66.296,100.773 57.581,113.097C55.423,116.148 52.182,121.116 52.182,121.373C52.182,121.492 51.878,122.018 51.506,122.541C50.646,123.749 46.556,131.719 45.221,134.785C38.264,150.767 34.404,169.56 34.656,186.228C34.914,203.291 37.437,216.277 43.469,231.576C49.58,247.074 57.794,259.469 70.087,271.737C76.762,278.399 82.792,283.127 91.616,288.618C106.581,297.931 126.273,304.321 143.059,305.314C144.834,305.419 146.365,305.58 146.463,305.672C146.76,305.952 162.26,305.473 164.748,305.107L164.746,305.107ZM140.19,301.27C128.914,300.063 119.106,297.656 108.643,293.529C104.375,291.846 96.307,287.827 93.049,285.761C91.768,284.949 90.282,284.039 89.747,283.739C88.856,283.24 83.05,279.133 81.639,278.004C77.45,274.651 73.726,271.431 71.491,269.228C54.71,252.688 42.905,230.26 38.938,207.38C37.525,199.228 37.097,194.12 37.122,185.692C37.183,164.945 41.065,148.507 50.286,129.95C51.558,127.388 52.709,125.21 52.842,125.11C52.975,125.01 53.554,124.041 54.129,122.956C59.273,113.248 70.347,100.533 81.617,91.394C88.094,86.142 98.484,79.62 104.843,76.815C105.948,76.328 107.658,75.564 108.644,75.117C114.946,72.262 125.57,69.154 134.276,67.62C146.776,65.417 163.696,65.628 175.505,68.134C177.377,68.531 179.311,68.938 179.804,69.038C182.529,69.594 187.94,71.189 191.929,72.611C200.56,75.689 215.063,83.515 221.209,88.411C237.709,101.554 247.59,113.437 255.72,129.914C261.651,141.934 265.468,154.736 267.112,168.125C267.809,173.805 268.066,185.636 267.614,191.247C265.858,213.049 258.899,232.582 246.383,250.841C241.258,258.318 233.657,266.839 226.741,272.861C221.794,277.17 210.586,285.236 208.518,285.978C208.203,286.092 207.518,286.479 206.996,286.84C205.629,287.787 196.542,292.266 193.68,293.405C190.242,294.773 179.808,298.159 178.147,298.447C177.382,298.579 175.547,298.985 174.068,299.349C165.353,301.493 150.267,302.349 140.191,301.27L140.19,301.27ZM165.284,296.675C174.106,295.311 183.187,292.901 190.378,290.018C194.19,288.489 202.454,284.447 204.814,282.957C205.853,282.302 206.785,281.765 206.884,281.765C207.237,281.765 214.976,276.502 216.929,274.933C223.331,269.794 225.722,267.679 229.582,263.74C240.684,252.413 247.934,241.624 254.085,227.275C258.974,215.87 262.48,201.077 263.006,189.634C263.555,177.691 262.867,168.36 260.643,157.58C259.709,153.056 256.456,142.628 254.938,139.296C254.482,138.294 253.992,137.103 253.85,136.648C253.427,135.299 249.579,127.683 247.565,124.21C238.151,107.971 223.215,93.341 205.972,83.465C204.099,82.392 201.921,81.217 201.133,80.853C200.344,80.489 198.377,79.566 196.762,78.802C193.513,77.266 183.801,73.942 179.127,72.767C161.827,68.416 142,68.546 124.354,73.125C107.454,77.511 92.477,85.419 79.294,96.917C68.961,105.93 59.137,118.235 53.64,129.05C52.788,130.726 51.971,132.258 51.824,132.455C51.676,132.653 50.67,134.83 49.587,137.295C35.499,169.363 36.352,206.218 51.893,236.954C54.698,242.501 55.146,243.277 58.393,248.211C69.034,264.381 83.621,277.323 101.295,286.275C105.842,288.578 112.677,291.306 117.785,292.857C119.855,293.485 121.952,294.142 122.445,294.317C123.374,294.646 130.851,296.119 135.083,296.807C136.415,297.024 138.915,297.296 140.64,297.411C142.364,297.527 143.836,297.678 143.91,297.746C143.985,297.814 147.454,297.813 151.618,297.743C157.523,297.644 160.531,297.409 165.284,296.674L165.284,296.675ZM143.575,293.829C143.465,293.71 142.497,293.595 141.424,293.573C139.616,293.537 134.677,293.049 133.021,292.744C132.626,292.671 131.497,292.495 130.511,292.351C129.525,292.208 127.186,291.693 125.313,291.206C123.44,290.72 121.262,290.179 120.474,290.005C114.369,288.654 100.339,282.547 94.125,278.537C93.829,278.346 93.103,277.925 92.511,277.602C86.912,274.544 76.935,266.202 70.769,259.424C51.416,238.149 41.458,211.068 42.273,181.927C42.528,172.836 43.518,164.606 45.034,158.984C45.247,158.196 45.51,157.147 45.618,156.654C46.635,152.051 50.079,142.399 52.847,136.4C65.578,108.801 90.028,87.092 118.391,78.203C126.559,75.643 132.755,74.364 141.219,73.49C147.022,72.891 158.489,72.986 163.133,73.672C163.724,73.759 165.096,73.93 166.18,74.052C169.627,74.44 176.789,75.935 180.699,77.083C201.864,83.297 220.506,95.829 234.544,113.278C240.179,120.283 245.282,128.539 248.28,135.504C249.086,137.377 249.958,139.313 250.217,139.806C250.477,140.299 251.501,143.122 252.495,146.079C255.327,154.514 257.058,162.689 258.11,172.607C258.442,175.735 258.347,187.858 257.955,192.324C257.301,199.786 255.065,210.829 253.128,216.163C252.806,217.05 252.137,218.986 251.642,220.465C249.29,227.496 243.91,238.013 238.868,245.435C231.05,256.946 218.184,269.422 206.689,276.642C195.208,283.853 184.838,288.279 172.991,291.028C167.212,292.369 166.345,292.534 162.236,293.075C157.949,293.641 143.924,294.208 143.574,293.831L143.575,293.829ZM159.688,289.454C162.328,289.16 165.958,288.59 167.754,288.188C169.55,287.786 171.424,287.379 171.917,287.283C174.796,286.723 184.062,283.683 188.228,281.931C192.078,280.312 200.221,276.016 203.861,273.684C212.257,268.304 220.306,261.284 227.271,253.266C232.446,247.308 234.984,243.851 238.609,237.827C254.496,211.425 258.444,179.851 249.545,150.38C244.651,134.174 236.578,120.558 224.324,107.845C209.375,92.336 190.142,81.95 169.396,78.184C167.331,77.809 164.594,77.388 163.312,77.249C162.031,77.109 160.498,76.933 159.907,76.858C154.03,76.109 142.368,76.468 134.538,77.638C114.084,80.697 95.406,89.769 79.254,104.493C69.579,113.313 60.076,126.657 54.618,139.087C46.75,157.007 43.756,175.049 45.376,194.775C46.402,207.273 50.446,221.284 56.396,232.963C64.683,249.228 75.52,261.583 91.078,272.504C95.767,275.796 105.813,281.054 111.512,283.199C112.695,283.645 114.459,284.308 115.432,284.673C116.405,285.038 117.273,285.265 117.361,285.177C117.449,285.089 117.821,285.178 118.187,285.374C119.384,286.015 124.694,287.428 128.719,288.178C139.71,290.225 149.238,290.617 159.688,289.454ZM140.37,286.011C136.064,285.671 130.258,284.775 124.776,283.605C121.88,282.987 114.068,280.506 112.229,279.621C111.835,279.431 110.706,278.964 109.72,278.584C94.594,272.748 78.636,260.35 68.366,246.454C65.406,242.449 64.371,240.974 64.371,240.761C64.371,240.67 63.661,239.537 62.794,238.243C59.647,233.55 54.633,222.582 52.7,216.162C51.646,212.662 50.34,207.453 49.824,204.69C49.732,204.197 49.502,202.987 49.313,202.001C48.293,196.67 48.004,193.106 47.92,184.794C47.823,175.325 48.547,168.991 50.83,159.342C52.099,153.982 55.067,145.017 56.336,142.717C56.812,141.855 57.201,140.982 57.201,140.779C57.201,140.576 58.024,138.782 59.029,136.791C70.642,113.803 89.689,96.211 112.946,86.992C129.682,80.359 149.158,78.391 166.719,81.56C169.479,82.059 172.706,82.716 173.889,83.021C175.072,83.326 176.35,83.641 176.729,83.72C178.655,84.121 186.416,86.949 190.2,88.628C210.622,97.688 228.318,114.643 238.626,135.025C242.693,143.068 245.284,150.224 247.18,158.65C249.073,167.067 249.508,171.325 249.501,181.389C249.492,193.317 248.62,200.045 245.761,210.247C239.206,233.639 223.919,254.821 203.485,268.826C197.263,273.09 189.902,276.904 182.365,279.769C168.843,284.907 154.115,287.096 140.37,286.011ZM158.653,281.767C175.97,279.497 191.767,272.927 205.973,262.083C211.004,258.243 220.1,249.366 223.457,245.02C225.924,241.827 229.992,235.978 229.992,235.625C229.992,235.5 230.215,235.143 230.488,234.832C232.305,232.759 237.43,222.403 239.551,216.521C242.264,208.993 242.998,206.226 244.586,197.521C245.473,192.656 245.534,191.633 245.54,181.568C245.546,171.409 245.492,170.515 244.572,165.436C241.058,146.048 233.974,131.03 221.474,116.471C211.366,104.698 197.46,95.028 182.856,89.616C175.533,86.902 169.774,85.51 159.908,84.068C157.277,83.684 144.186,83.583 140.191,83.916C122.501,85.393 104.041,92.735 89.493,104.078C85.133,107.478 77.785,114.636 74.164,119.011C61.868,133.868 54.003,152.486 51.676,172.246C51.019,177.822 51.022,190.383 51.681,195.727C52.976,206.233 55.366,214.994 59.601,224.764C61.898,230.063 65.828,236.96 69.374,241.914C70.27,243.167 71.245,244.539 71.541,244.963C72.534,246.39 79.87,254.527 81.293,255.781C91.28,264.581 97.419,268.831 106.108,272.96C116.868,278.074 129.567,281.522 140.37,282.263C143.807,282.498 155.486,282.181 158.653,281.766L158.653,281.767ZM138.349,278.182C134.143,277.74 127.029,276.47 123.894,275.602C122.408,275.191 120.547,274.692 119.758,274.492C118.969,274.293 117.84,273.936 117.249,273.699C116.657,273.461 115.205,272.912 114.022,272.48C108.042,270.293 97.656,264.501 91.796,260.085C83.013,253.465 74.016,243.584 68.56,234.562C60.899,221.895 56.689,209.53 54.728,193.936C54.542,192.457 54.441,187.214 54.504,182.285C54.671,169.078 56.036,161.629 60.514,149.484C68.157,128.754 82.608,111.297 101.296,100.218C104.82,98.128 106.031,97.51 111.513,94.998C118.631,91.736 128.304,89.09 137.862,87.789C144.237,86.922 156.177,87.204 163.852,88.404C175.716,90.258 189.664,95.761 200.088,102.7C210.566,109.674 220.273,119.733 226.969,130.553C240.001,151.614 244.367,174.543 240.062,199.314C237.972,211.338 231.956,225.91 224.838,236.19L222.475,239.6C221.028,241.686 217.451,245.866 214.196,249.276C201.987,262.064 185.309,271.871 169.005,275.851C161.607,277.657 157.138,278.216 148.975,278.356C144.736,278.429 139.954,278.351 138.35,278.182L138.349,278.182ZM159.012,274.073C195.938,268.4 225.844,240.779 235.176,203.728C237.079,196.174 237.805,189.933 237.798,181.209C237.785,166.303 234.679,153.43 227.765,139.625C225.665,135.433 220.121,126.58 218.897,125.465C218.789,125.366 217.984,124.398 217.108,123.314C209.323,113.677 199.498,105.72 188.767,100.361C176.457,94.214 164.151,91.207 149.871,90.857C138.496,90.578 128.124,92.349 117.249,96.425C101.529,102.318 90.126,110.463 78.853,123.852C71.256,132.875 64.312,146.267 61.006,158.267C54.868,180.551 57.176,205.193 67.27,225.138C74.946,240.305 86.839,253.333 100.758,261.822C112.003,268.68 123.473,272.695 136.786,274.434C141.641,275.068 153.826,274.871 159.012,274.074L159.012,274.073ZM142.163,271.152C138.307,270.819 133.269,270.221 131.946,269.94C131.158,269.772 129.544,269.448 128.361,269.221C119.65,267.546 106.622,261.87 98.427,256.179C92.88,252.326 85.873,245.887 81.212,240.361C77.452,235.902 72.852,228.775 70.141,223.208C67.889,218.584 64.317,208.946 63.876,206.305C63.778,205.713 63.529,204.662 63.323,203.968C63.118,203.274 62.89,202.226 62.818,201.638C62.745,201.05 62.512,199.924 62.299,199.135C62.086,198.346 61.732,195.927 61.512,193.758C59.445,173.355 63.722,153.72 73.898,136.901C86.225,116.527 105.168,102.459 127.644,96.987C143.807,93.052 160,93.774 176.153,99.152C194.176,105.151 209.993,117.768 220.382,134.429C231.078,151.583 235.645,171.632 233.406,191.608C232.48,199.874 229.957,209.691 227.142,215.985C224.777,221.273 222.844,225.228 222.031,226.446C221.48,227.27 221.03,228.042 221.03,228.162C221.03,228.542 216.846,234.62 216.236,235.126C215.915,235.392 215.652,235.762 215.652,235.946C215.652,236.45 210.804,242.136 207.924,245.008C199.632,253.28 192.928,258.004 182.206,263.133C173.747,267.179 164.747,269.746 155.264,270.816C152.996,271.072 143.926,271.306 142.162,271.154L142.163,271.152ZM150.799,267.4C164.07,267.081 179.959,261.74 192.364,253.429C206.291,244.098 217.724,230.025 224.058,214.418C225.103,211.844 226.085,209.852 226.24,209.992C226.396,210.132 226.414,210.057 226.281,209.825C226.148,209.592 226.513,207.737 227.093,205.702C229.32,197.888 230.615,188.682 230.489,181.568C230.417,177.551 230.012,170.602 229.832,170.296C229.767,170.186 229.608,169.168 229.477,168.034C228.695,161.217 224.556,148.988 220.479,141.448C219.599,139.821 218.96,138.382 219.059,138.251C219.157,138.119 219.137,138.086 219.014,138.176C218.89,138.267 218.142,137.339 217.352,136.115C209.779,124.384 199.95,115.114 187.753,108.198C182.868,105.428 180.831,104.55 174.104,102.311C165.321,99.387 157.194,98.157 147.361,98.263C128.133,98.47 111.049,104.617 96.087,116.713C85.316,125.421 76.072,138.099 70.887,151.276C65.697,164.465 63.66,179.467 65.238,192.871C67.192,209.473 72.817,223.136 83.374,236.918C85.504,239.7 92.519,246.739 95.736,249.322C108.052,259.215 123.169,265.549 138.041,267.047C141.68,267.414 147.096,267.694 147.557,267.539C147.665,267.503 149.124,267.441 150.799,267.4ZM140.371,263.63C133.41,262.8 126.99,261.426 122.088,259.718C106.342,254.231 93.761,244.815 83.53,230.86C75.917,220.476 70.656,206.547 69.02,192.438C68.473,187.724 68.754,175.443 69.515,170.813C71.032,161.578 73.763,153.27 77.88,145.36L79.369,142.492C84.357,132.827 97.164,119.379 106.593,113.905C117.309,107.684 123.872,105.113 133.74,103.27C148.731,100.472 162.874,101.796 177.296,107.348C181.767,109.069 184.771,110.61 190.147,113.939C209.618,125.999 223.056,147.079 226.288,170.633C227.297,177.99 226.981,191.72 225.685,196.802C225.509,197.492 225.268,198.622 225.15,199.312C224.211,204.803 221.394,212.664 217.893,219.566C209.912,235.3 196.266,248.676 180.808,255.917C172.499,259.809 167.804,261.342 159.731,262.797C156.094,263.453 143.453,263.995 140.373,263.628L140.371,263.63ZM156.58,259.709C164.828,258.594 171.789,256.536 178.873,253.117C191.197,247.17 198.32,241.337 208.244,229.068C208.483,228.772 209.579,227.159 210.679,225.483C214.729,219.312 217.465,213.556 219.881,206.125C222.76,197.27 223.652,191.58 223.673,181.927C223.701,168.794 221.135,158.133 215.087,146.258C207.991,132.325 196.349,120.628 182.851,113.869C173.673,109.274 166.251,107.111 155.606,105.93C153.132,105.656 144.097,105.64 141.953,105.906C130.819,107.288 124.577,109.043 115.767,113.266C93.633,123.877 77.83,145.269 73.519,170.456C71.989,179.393 72.202,190.657 74.064,199.372C78.937,222.175 93.095,241.14 113.306,251.938C118.063,254.48 127.126,257.778 131.787,258.663C140.587,260.335 149.248,260.7 156.58,259.709ZM143.418,256.619C133.817,256.102 123.156,253.136 114.918,248.691C111.762,246.988 105.242,242.702 103.446,241.15C95.57,234.342 89.842,227.539 86.027,220.464C85.655,219.774 85.173,218.967 84.956,218.672C84.212,217.659 80.577,208.8 79.627,205.688C75.59,192.452 75.398,176.484 79.122,163.644C79.939,160.826 81.568,156.13 82.479,153.964C84.459,149.257 88.971,141.422 91.372,138.52C91.685,138.142 92.846,136.704 93.952,135.324C97.559,130.823 102.408,126.377 108.428,122.05C114.263,117.855 123.674,113.551 130.691,111.867C145.886,108.219 158.191,108.646 172.063,113.301C183.618,117.18 194.338,124.255 201.879,132.98C213.626,146.572 219.953,162.519 220.461,179.813C220.819,192.021 218.142,204.348 212.721,215.444C209.473,222.094 203.223,231.196 202.299,230.625C202.079,230.49 202.024,230.56 202.168,230.793C202.73,231.703 194.117,239.926 188.681,243.67C174.89,253.168 159.754,257.498 143.418,256.618L143.418,256.619ZM155.786,252.886C164.662,251.818 171.843,249.526 180.342,245.045C190.578,239.65 198.987,231.93 206.014,221.479C208.066,218.428 211.224,212.418 212.294,209.53C216.1,199.257 217.469,192.271 217.528,182.823C217.633,165.842 212.035,150.125 201.22,137.038C199.802,135.323 195.106,130.68 192.889,128.801C179.316,117.304 161.055,111.813 142.47,113.642C129.836,114.886 117.053,120.117 107.347,128.015C106.041,129.078 104.564,130.27 104.065,130.664C103.566,131.058 101.512,133.155 99.502,135.324C92.901,142.447 87.218,152.118 84.229,161.314C81.675,169.172 80.795,174.924 80.774,183.899C80.723,205.259 90.322,225.323 107.033,238.783C110.696,241.734 114.36,244.014 119.4,246.478C131.075,252.187 143.467,254.369 155.786,252.887L155.786,252.886ZM141.447,249.344C132.611,248.198 123.484,245.031 116.353,240.637C113.101,238.634 107.769,234.554 107.506,233.869C107.401,233.596 107.191,233.45 107.039,233.544C106.57,233.834 100.782,227.558 97.738,223.459C93.656,217.962 87.558,205.369 88.186,203.732C88.286,203.47 88.238,203.256 88.079,203.256C87.597,203.256 86.183,198.015 85.711,194.473C85.579,193.488 85.375,192.116 85.256,191.426C84.829,188.938 85.075,177.979 85.646,174.039C86.745,166.461 89.818,157.274 93.282,151.207C97.151,144.431 100.164,140.523 105.767,135.01C123.218,117.84 150.453,112.348 173.395,121.371C181.971,124.744 188.29,128.806 194.909,135.201C207.47,147.336 214.578,164.329 214.578,182.223C214.578,202.416 206.605,220.138 191.479,233.567C182.579,241.469 171.513,246.784 159.388,248.983C155.092,249.762 146.071,249.944 141.447,249.344ZM161.944,245.226C173.931,242.644 184.745,236.739 193.453,228.022C203.62,217.845 210.074,204.424 211.729,190.022C212.149,186.37 212.03,175.981 211.542,173.682C211.416,173.09 210.984,170.993 210.581,169.021C209.183,162.177 205.812,154.373 201.262,147.446C197.674,141.983 190.497,134.874 184.823,131.162C176.674,125.831 168.14,122.64 158.588,121.353C155.813,120.979 146.874,121.083 143.238,121.531C132.527,122.852 121.035,127.83 112.702,134.758C107.829,138.809 102.08,145.376 98.869,150.559C96.306,154.698 93.403,161.569 91.676,167.587C89.613,174.778 89.074,185.689 90.357,194.294C91.8,203.978 97.013,215.755 103.368,223.69C105.598,226.475 111.4,232.078 114.201,234.151C121.913,239.861 129.808,243.423 138.578,245.151C143.771,246.174 144.332,246.214 151.842,246.086C156.877,246 159.309,245.792 161.943,245.225L161.944,245.226ZM146.286,242.798C143.065,242.508 136.786,241.105 133.051,239.842C112.543,232.907 97.751,214.591 94.671,192.32C92.262,174.9 97.948,156.657 109.803,143.767C121.987,130.519 138.943,123.76 156.625,125.102C176.204,126.588 193.197,137.747 202.738,155.382C205.597,160.666 208.397,169.77 209.192,176.361C210.69,188.788 207.521,203.316 200.94,214.191C198.186,218.741 196.486,220.933 192.351,225.262C184.578,233.401 173.771,239.349 162.059,241.936C157.869,242.861 151.083,243.232 146.286,242.799L146.286,242.798ZM159.479,239.055C168.886,237.519 176.036,234.632 183.469,229.367C195.038,221.173 202.811,209.106 206.062,194.295C206.669,191.529 206.815,189.575 206.84,183.899C206.874,175.897 206.347,172.199 204.288,165.975C201.433,157.349 197.468,151.001 190.744,144.287C185.592,139.143 180.952,135.996 174.427,133.219C173.145,132.673 171.774,132.085 171.379,131.912C170.073,131.337 165.334,130.168 161.88,129.568C155.598,128.478 146.096,128.896 140.192,130.522C131.363,132.954 124.853,136.376 118.324,142.016C112.47,147.073 108.425,152.291 104.892,159.342C98.683,171.733 97.345,185.203 100.937,199.136C102.039,203.411 102.311,204.129 104.748,209.199C112.39,225.097 127.175,236.065 144.851,238.946C148.03,239.464 156.582,239.528 159.478,239.055L159.479,239.055ZM147.866,235.857C145.017,235.536 137.82,233.654 135.243,232.557C129.43,230.082 125.596,227.682 121.069,223.682C114.082,217.509 109.158,209.847 106.212,200.568C104.352,194.708 104.035,192.606 103.947,185.512C103.825,175.807 105.156,169.846 109.316,161.462C112.338,155.37 114.561,152.284 119.369,147.505C125.205,141.704 130.968,138.15 138.776,135.538C144.259,133.704 148.969,132.946 154.75,132.969C161.263,132.995 164.41,133.486 170.305,135.396C185.236,140.234 197.128,152.2 202.183,167.471C204.001,172.962 204.674,177.402 204.648,183.72C204.621,190.275 203.916,194.736 201.987,200.569C199.323,208.618 195.337,215.021 189.148,221.194C181.837,228.484 172.299,233.54 162.41,235.367C158.852,236.024 151.528,236.272 147.868,235.858L147.866,235.857ZM161.342,232.471C167.683,231.744 175.355,228.747 181.417,224.628C191.281,217.926 198.786,206.84 201.466,195.012C202.276,191.438 202.366,190.798 202.607,186.946C203.283,176.134 199.838,164.506 193.319,155.592C191.799,153.515 186.008,147.57 184.464,146.503C178.701,142.52 175.059,140.634 169.945,138.984C165.011,137.391 163.117,137.133 156.323,137.129C150.869,137.125 149.291,137.253 146.126,137.958C127.957,142.006 114.028,156.243 109.856,175.034C108.768,179.934 108.614,189.003 109.541,193.577C110.29,197.273 110.958,199.761 111.801,202.002C119.637,222.824 139.414,234.987 161.343,232.471L161.342,232.471ZM149.333,228.915C144.251,227.976 136.233,224.666 133.022,222.181C125.605,216.442 122.239,212.527 118.864,205.71C116.542,201.022 115.387,197.427 114.54,192.257C114.04,189.203 114.068,181.361 114.59,178.209C114.999,175.744 116.148,171.346 116.709,170.097C116.886,169.703 117.395,168.493 117.839,167.408C120.316,161.366 124.986,155.244 130.488,150.831C137.137,145.499 144.02,142.556 152.606,141.378C156.488,140.845 157.623,140.825 161.702,141.218C166.654,141.696 172.563,143.338 176.602,145.362C182.202,148.166 188.559,153.506 192.134,158.411C195.642,163.222 198.003,168.365 199.554,174.579C200.3,177.565 200.405,178.822 200.404,184.796C200.404,190.751 200.301,191.99 199.587,194.654C197.076,204.025 193.385,210.569 187.127,216.742C180.386,223.393 172.839,227.374 164.077,228.902C160.51,229.524 152.665,229.531 149.333,228.916L149.333,228.915ZM166.136,225.455C172.442,224.161 179.082,220.996 183.736,217.065C195.306,207.294 200.619,192.646 198.042,177.625C197.534,174.662 196.029,169.839 194.965,167.767C194.712,167.274 194.504,166.743 194.503,166.587C194.502,166.43 194.341,166.108 194.145,165.87C193.949,165.632 192.971,164.189 191.971,162.663C190.291,160.099 186.51,155.918 183.912,153.749C177.054,148.026 167.223,144.857 157.736,145.312C152.893,145.544 150.013,146.119 145.667,147.721C132.325,152.64 122.246,165.064 120.097,179.239C116.768,201.205 130.628,221.597 151.489,225.427C156.254,226.302 161.952,226.313 166.134,225.455L166.136,225.455ZM154.73,222.575C148.872,221.577 142.246,218.376 137.243,214.128C132.667,210.243 128.149,202.973 126.141,196.266C125.239,193.254 125.175,192.587 125.175,186.228C125.175,179.815 125.233,179.229 126.163,176.19C130.692,161.391 142.539,151.261 157.398,149.481C175.555,147.305 192.61,159.725 196.295,177.808C197.182,182.163 197.252,188.828 196.452,192.785C193.417,207.786 181.65,219.666 167.1,222.417C164.182,222.969 157.541,223.053 154.73,222.574L154.73,222.575ZM172.691,218.176C178.023,216.361 181.246,214.368 185.216,210.432C187.108,208.556 189.272,206.053 190.024,204.87C198.421,191.673 197.18,174.868 186.986,163.743C175.87,151.612 157.361,149.892 144.135,159.762C135.27,166.378 130.578,175.861 130.686,186.945C130.734,191.878 130.842,192.678 131.961,196.346C133.293,200.713 135.722,205.178 138.61,208.57C147.058,218.49 160.575,222.3 172.691,218.176ZM159.191,215.996C151.815,214.436 145.181,209.972 141.269,203.936C128.302,183.925 142.131,157.625 165.643,157.581C173.594,157.566 179.845,160.23 185.718,166.137C189.636,170.077 191.752,173.838 193.316,179.64C194.195,182.899 194.179,190.378 193.287,193.757C191.54,200.372 187.433,206.666 182.271,210.638C179.759,212.571 175.823,214.573 173.455,215.122C172.51,215.341 170.952,215.746 169.993,216.021C167.856,216.634 162.144,216.621 159.19,215.996L159.191,215.996ZM175.168,212.113C176.463,211.625 178.197,210.881 179.022,210.46C179.846,210.039 180.521,209.81 180.521,209.95C180.521,210.09 180.723,209.96 180.969,209.661C181.216,209.362 182.362,208.33 183.515,207.367C186.888,204.553 189.422,200.898 191.211,196.266C193.094,191.39 193.204,183.636 191.457,178.879C189.778,174.306 188.527,172.296 185.293,168.973C176.544,159.983 162.148,159.352 151.749,167.503C143.204,174.2 139.899,186.419 143.81,196.848C147.218,205.932 155.142,212.252 164.389,213.258C167.666,213.615 172.568,213.094 175.168,212.112L175.168,212.113ZM165.61,209.879C161.057,208.919 157.76,207.097 154.339,203.647C150.271,199.547 148.214,194.47 148.224,188.55C148.235,181.817 150.691,176.121 155.551,171.561C159.402,167.948 165.223,165.925 171.202,166.123C174.666,166.238 176.546,166.73 180.343,168.515C182.982,169.755 187.628,174.532 189.04,177.458C192.048,183.69 192.354,190.038 189.939,196.081C185.941,206.084 175.553,211.976 165.611,209.879L165.61,209.879ZM177.77,206.365C182.586,204.617 185.988,201.743 188.172,197.576C190.077,193.943 190.681,191.168 190.43,187.212C189.834,177.827 182.982,170.849 173.889,170.369C166.373,169.972 159.762,173.805 156.488,180.458C150.365,192.901 158.785,207.088 172.349,207.179C174.757,207.196 175.994,207.01 177.769,206.366L177.77,206.365ZM171.739,203.835C164.405,202.052 159.387,194.389 160.796,187.126C161.748,182.217 164.595,178.349 168.844,176.192C173.331,173.915 178.192,173.996 182.537,176.421C187.676,179.289 190.546,185.541 189.492,191.57C187.967,200.293 179.949,205.832 171.738,203.835L171.739,203.835ZM181.693,200.541C184.07,199.731 186.387,197.535 187.718,194.832C188.678,192.882 188.846,192.141 188.846,189.862C188.846,187.692 188.667,186.821 187.902,185.272C186.722,182.883 185.911,181.487 185.904,181.835C185.901,181.981 185.186,181.557 184.314,180.891C181.366,178.641 176.943,178.306 173.491,180.072C166.961,183.412 165.246,191.932 169.988,197.472C171.178,198.862 173.214,200.223 174.965,200.799C176.327,201.246 180.041,201.104 181.693,200.541ZM179.531,197.873C175.289,196.918 172.812,191.893 174.563,187.794C175.07,186.605 178.289,183.339 178.623,183.673C178.701,183.751 179.413,183.669 180.205,183.491C184.533,182.518 188.919,186.886 188.294,191.546C187.751,195.599 183.396,198.743 179.531,197.873ZM186.643,193.964C189.683,190.924 185.648,185.871 182.212,188.413C180.529,189.658 180.114,191.39 181.059,193.219C181.749,194.553 182.52,194.987 184.224,195C185.271,195.009 185.844,194.763 186.643,193.963L186.643,193.964ZM107.878,147.513C107.992,147.217 107.929,146.975 107.738,146.975C107.547,146.975 107.39,147.217 107.39,147.513C107.39,147.808 107.454,148.05 107.531,148.05C107.609,148.05 107.765,147.808 107.878,147.513ZM224.258,271.373C224.258,271.175 224.107,271.014 223.921,271.014C223.736,271.014 223.484,271.175 223.362,271.373C223.24,271.57 223.392,271.731 223.7,271.731C224.007,271.731 224.258,271.57 224.258,271.373ZM16.593,183.096C16.514,182.455 16.449,182.979 16.449,184.261C16.449,185.542 16.514,186.067 16.593,185.426C16.673,184.785 16.673,183.736 16.593,183.096ZM26.286,134.969C26.49,134.377 26.778,133.57 26.926,133.176C27.107,132.693 27.076,132.576 26.831,132.818C26.631,133.015 26.202,133.977 25.878,134.955C25.553,135.933 25.429,136.578 25.602,136.389C25.774,136.199 26.082,135.56 26.286,134.969ZM16.103,203.081C16.104,201.306 16.166,200.625 16.24,201.568C16.314,202.51 16.313,203.962 16.238,204.794C16.163,205.626 16.102,204.855 16.103,203.081ZM15.708,195.552C15.704,194.764 15.774,194.399 15.864,194.742C15.953,195.084 15.957,195.73 15.871,196.176C15.785,196.621 15.712,196.341 15.708,195.552ZM28.893,126.006C28.893,125.809 29.049,125.406 29.24,125.11C29.431,124.814 29.588,124.734 29.588,124.931C29.588,125.128 29.432,125.531 29.24,125.827C29.049,126.123 28.893,126.204 28.893,126.006ZM29.983,123.138C29.983,122.941 30.213,122.377 30.495,121.884C30.777,121.391 31.007,121.149 31.007,121.346C31.007,121.543 30.777,122.108 30.495,122.601C30.213,123.094 29.983,123.336 29.983,123.139L29.983,123.138ZM32.119,118.478C32.119,118.281 32.276,117.878 32.467,117.582C32.658,117.286 32.814,117.206 32.814,117.403C32.814,117.6 32.658,118.003 32.467,118.299C32.276,118.595 32.119,118.675 32.119,118.478ZM36.589,109.337C37.481,107.562 38.29,106.11 38.389,106.11C38.487,106.11 37.839,107.562 36.948,109.337C36.057,111.111 35.247,112.563 35.148,112.563C35.05,112.563 35.698,111.111 36.589,109.337ZM39.278,104.318C39.489,103.924 39.742,103.601 39.841,103.601C39.94,103.601 39.847,103.924 39.636,104.318C39.425,104.712 39.172,105.035 39.073,105.035C38.975,105.035 39.067,104.712 39.278,104.318ZM40.353,102.526C40.564,102.131 40.818,101.809 40.916,101.809C41.015,101.809 40.923,102.131 40.712,102.526C40.501,102.92 40.248,103.243 40.149,103.243C40.05,103.243 40.142,102.92 40.353,102.526ZM41.429,100.733C41.64,100.339 41.893,100.016 41.992,100.016C42.091,100.016 41.998,100.339 41.787,100.733C41.576,101.128 41.323,101.45 41.224,101.45C41.126,101.45 41.218,101.128 41.429,100.733ZM42.442,99.074C42.645,98.705 43.072,98.08 43.392,97.686C43.931,97.02 43.933,97.051 43.42,98.111C43.117,98.74 42.689,99.364 42.471,99.499C42.187,99.675 42.179,99.554 42.442,99.074Z" style="fill:rgb(105,8,158);fill-rule:nonzero;"/>
        </g>
    </g>
</svg>
