<?xml version="1.0" standalone="no"?>
<!DOCTYPE svg PUBLIC "-//W3C//DTD SVG 20010904//EN"
 "http://www.w3.org/TR/2001/REC-SVG-20010904/DTD/svg10.dtd">
<svg version="1.0" xmlns="http://www.w3.org/2000/svg"
 width="1000.000000pt" height="1000.000000pt" viewBox="0 0 1000.000000 1000.000000"
 preserveAspectRatio="xMidYMid meet">
<metadata>
Created by potrace 1.11, written by Peter Selinger 2001-2013
</metadata>
<g transform="translate(0.000000,1000.000000) scale(0.100000,-0.100000)"
fill="#000000" stroke="none">
<path d="M4689 9945 c-2 -2 -44 -6 -94 -10 -49 -3 -101 -8 -115 -10 -14 -3
-52 -7 -85 -10 -33 -4 -125 -18 -205 -31 -80 -14 -158 -27 -175 -30 -199 -33
-698 -185 -900 -274 -11 -5 -63 -27 -115 -50 -145 -64 -282 -131 -315 -154
-16 -11 -32 -20 -35 -19 -5 1 -87 -45 -205 -115 -97 -57 -306 -197 -391 -262
-130 -99 -136 -103 -209 -163 -277 -231 -542 -505 -757 -782 -126 -163 -280
-389 -358 -525 -5 -8 -24 -42 -43 -75 -134 -234 -307 -623 -387 -870 -23 -72
-78 -258 -85 -285 -1 -8 -10 -42 -19 -75 -26 -103 -68 -309 -91 -455 -3 -19
-8 -48 -10 -65 -3 -16 -8 -52 -10 -80 -3 -27 -8 -68 -10 -90 -15 -146 -19
-243 -20 -500 0 -251 6 -413 20 -530 2 -16 6 -51 9 -76 10 -92 17 -144 21
-159 2 -8 7 -35 10 -60 17 -124 96 -477 125 -560 5 -14 21 -65 36 -115 15 -49
48 -148 74 -220 212 -578 539 -1124 955 -1591 90 -102 310 -322 399 -399 38
-33 74 -65 80 -71 36 -35 250 -201 347 -270 104 -74 334 -224 343 -224 3 0 40
-21 83 -47 120 -71 364 -192 523 -258 36 -15 76 -32 90 -38 14 -6 27 -11 30
-12 3 -1 14 -5 25 -9 29 -11 112 -42 177 -65 70 -25 324 -99 398 -116 120 -28
257 -57 285 -61 17 -3 50 -9 75 -14 25 -5 65 -12 90 -15 25 -4 56 -8 70 -10
224 -32 362 -40 685 -40 261 0 412 6 505 20 14 2 52 6 85 10 164 17 381 56
565 101 153 37 414 114 490 143 25 10 95 37 155 60 61 23 124 48 140 55 238
107 486 232 493 249 2 4 8 7 13 7 27 0 372 226 539 353 202 154 319 257 515
452 586 585 1017 1311 1250 2110 15 50 28 97 30 105 2 8 10 42 19 75 8 33 18
75 21 94 3 19 8 38 10 41 3 4 7 25 11 45 3 21 8 47 10 59 18 82 48 268 59 366
3 25 7 61 10 80 21 188 28 746 12 915 -5 44 -10 98 -12 120 -1 22 -6 59 -9 83
-3 23 -8 61 -11 85 -3 23 -10 67 -15 97 -5 30 -12 71 -15 90 -87 546 -332
1193 -647 1707 -279 456 -635 871 -1042 1212 -376 315 -781 567 -1211 751 -66
28 -129 56 -140 61 -53 23 -212 80 -320 113 -66 21 -131 41 -145 46 -14 5 -37
12 -52 14 -15 3 -31 7 -36 10 -10 6 -202 50 -333 76 -168 33 -282 49 -544 76
-65 7 -710 15 -716 9z"/>
</g>
</svg>
