<?xml version="1.0" standalone="no"?>
<!DOCTYPE svg PUBLIC "-//W3C//DTD SVG 20010904//EN"
 "http://www.w3.org/TR/2001/REC-SVG-20010904/DTD/svg10.dtd">
<svg version="1.0" xmlns="http://www.w3.org/2000/svg"
 width="1709.000000pt" height="1709.000000pt" viewBox="0 0 1709.000000 1709.000000"
 preserveAspectRatio="xMidYMid meet">
<metadata>
Created by potrace 1.14, written by Peter Selinger 2001-2017
</metadata>
<g transform="translate(0.000000,1709.000000) scale(0.100000,-0.100000)"
fill="#000000" stroke="none">
<path d="M8190 17069 c-846 -48 -1559 -162 -2150 -345 -947 -293 -1820 -736
-2599 -1322 -664 -499 -1283 -1121 -1781 -1792 -1245 -1674 -1797 -3594 -1630
-5665 161 -1989 851 -3664 2075 -5040 839 -942 1924 -1725 3075 -2218 1345
-575 2773 -777 4295 -606 1677 188 3109 768 4350 1763 459 368 957 864 1351
1346 1039 1269 1660 2691 1849 4233 49 401 59 582 59 1052 0 537 -19 813 -90
1305 -286 1980 -1283 3841 -2754 5136 -1220 1075 -2703 1791 -4245 2048 -587
98 -1246 136 -1805 105z m945 -1704 c1425 -117 2733 -658 3805 -1574 166 -142
545 -519 704 -701 1044 -1193 1589 -2458 1728 -4010 20 -228 17 -958 -6 -1185
-39 -394 -104 -768 -191 -1098 -386 -1453 -1208 -2686 -2440 -3658 -1199 -947
-2617 -1422 -4245 -1423 -506 0 -844 32 -1320 125 -993 194 -1925 611 -2720
1218 -429 327 -941 831 -1306 1286 -467 581 -827 1225 -1065 1909 -390 1117
-485 2491 -253 3671 200 1016 608 1924 1232 2740 775 1012 1800 1794 2939
2241 693 272 1444 431 2238 474 211 11 674 4 900 -15z"/>
<path d="M8145 13574 c-647 -54 -1101 -164 -1630 -394 -422 -184 -827 -435
-1205 -748 -148 -123 -517 -493 -645 -646 -881 -1061 -1270 -2294 -1149 -3646
123 -1370 671 -2486 1649 -3355 742 -660 1673 -1095 2630 -1230 435 -61 963
-60 1440 5 1144 155 2111 640 2905 1456 863 887 1343 1915 1441 3084 16 183
16 654 0 825 -64 705 -231 1306 -528 1900 -482 963 -1247 1728 -2224 2225
-589 299 -1172 467 -1828 525 -204 18 -635 18 -856 -1z m683 -2369 c216 -578
332 -898 487 -1342 l77 -221 47 -6 c47 -6 765 -21 1719 -35 299 -5 546 -11
549 -15 3 -3 0 -14 -8 -25 -18 -25 -363 -298 -802 -633 -689 -528 -993 -770
-991 -792 1 -6 76 -254 169 -551 198 -641 505 -1648 502 -1651 -3 -3 -659 435
-1377 918 l-545 366 -190 -127 c-105 -70 -422 -291 -705 -491 -561 -396 -998
-695 -1007 -687 -8 8 375 1355 548 1926 44 145 79 264 77 265 -2 1 -48 41
-103 87 -183 156 -299 245 -816 630 -283 210 -557 416 -609 457 -115 91 -294
243 -298 252 -1 3 172 12 385 18 214 7 564 19 778 27 215 8 551 19 749 24 197
5 361 13 366 18 25 29 321 870 590 1676 95 285 176 515 180 510 5 -4 107 -273
228 -598z"/>
</g>
</svg>
