<?xml version="1.0" encoding="UTF-8" standalone="no"?>
<!DOCTYPE svg PUBLIC "-//W3C//DTD SVG 1.1//EN" "http://www.w3.org/Graphics/SVG/1.1/DTD/svg11.dtd">
<svg width="100%" height="100%" viewBox="0 0 870 870" version="1.1" xmlns="http://www.w3.org/2000/svg" xmlns:xlink="http://www.w3.org/1999/xlink" xml:space="preserve" xmlns:serif="http://www.serif.com/" style="fill-rule:evenodd;clip-rule:evenodd;stroke-linejoin:round;stroke-miterlimit:2;">
    <g id="Artboard1" transform="matrix(1,0,0,1.45,0,0)">
        <rect x="0" y="0" width="870" height="600" style="fill:none;"/>
        <g>
            <g id="LOGO" transform="matrix(0.334818,0,0,0.230909,-147.065,-221.66)">
                <g>
                    <g id="LOW" transform="matrix(4.16667,0,0,4.16667,2788.35,2276.14)">
                        <path d="M0,-7.935C3.104,2.339 5.663,14.753 6.251,27.688C7.021,44.618 0.475,54.585 -10.529,60.254C-10.681,58.699 -11.523,57.16 -11.666,55.56C-11.763,54.488 -11.438,53.49 -11.524,52.29C-11.694,49.917 -12.161,47.354 -12.805,45.037C-13.003,44.318 -13.438,43.648 -13.657,42.904C-15.289,37.366 -16.379,31.2 -16.786,25.129C-17.036,21.394 -18.396,17.777 -19.061,14.179C-19.723,10.599 -20.384,7.02 -22.332,4.367C-21.19,3.802 -19.171,4.114 -18.351,3.229C-18.549,-3.114 -18.278,-9.926 -20.057,-14.689C-20.002,-15.06 -19.983,-15.47 -19.771,-15.685C-20.74,-19.693 -20.955,-24.456 -23.043,-27.346C-21.228,-27.948 -19.492,-28.63 -18.492,-30.047C-16.973,-29.861 -15.795,-29.332 -14.084,-29.336C-13.521,-27.718 -12.349,-26.71 -10.529,-26.35C-10.593,-25.954 -10.124,-25.416 -9.306,-24.979L-10.026,-12.789C-10.053,-12.348 -9.717,-11.97 -9.277,-11.944L-3.022,-11.574C-3.04,-9.698 -1.733,-8.122 0,-7.935M-69.402,56.699C-77.881,52.809 -71.943,35.177 -70.397,27.403C-69.257,30.015 -67.877,34.131 -66.415,36.931C-65.901,37.917 -65.142,38.91 -64.852,39.776C-64.399,41.121 -64.384,42.883 -64.141,44.326C-63.411,48.646 -62.47,52.751 -61.438,57.126C-64.335,57.437 -67.173,57.72 -69.402,56.699M-73.384,-1.606C-73.343,-1.352 -73.518,-1.314 -73.526,-1.464C-73.749,-5.814 -74.377,-11.164 -74.806,-15.969C-74.888,-16.896 -75.187,-19.289 -75.396,-21.412C-74.441,-22.325 -73.503,-23.336 -72.59,-24.434C-71.482,-23.669 -70.319,-22.98 -69.545,-23.08L-69.545,-20.946C-70.521,-20.596 -71.408,-20.155 -72.104,-19.524C-72.748,-13.769 -73.001,-7.623 -73.384,-1.606M-78.542,-108.024C-78.624,-109.369 -78.388,-110.378 -78.085,-111.3C-77.754,-112.306 -77.353,-113.213 -76.582,-114.139C-75.991,-114.847 -75.263,-115.588 -74.544,-116.571L-78.542,-108.024ZM-80.494,-125.183C-80.432,-125.161 -80.368,-125.143 -80.306,-125.122L-73.082,-121.744C-73.552,-121.028 -74.113,-120.19 -74.379,-119.779C-76.922,-121.002 -81.567,-120.808 -80.494,-125.183M-71.364,-120.94L-68.741,-119.713L-69.14,-118.86L-71.771,-120.09C-71.614,-120.382 -71.455,-120.692 -71.364,-120.94M-66.415,27.688C-67.374,25.66 -67.944,23.244 -68.833,21.147C-68.529,19.744 -68.243,18.323 -67.979,16.882C-66.678,19.702 -66.682,23.831 -66.415,27.688M-64.852,-136.702C-65.147,-135.36 -66.562,-134.243 -67.541,-133.035L-71.561,-134.914C-69.212,-135.156 -67.149,-136.242 -64.852,-136.702M-205.3,36.454C-204.944,32.529 -205.47,28.46 -204.633,25.345C-202.12,23.845 -199.731,22.241 -197.471,20.524C-198.482,28.699 -199.513,36.854 -200.543,44.889C-201.207,50.076 -201.868,55.285 -202.531,60.514C-203.095,60.341 -203.627,60.17 -203.967,59.895C-203.991,58.197 -203.574,56.773 -203.411,55.341C-203.239,53.839 -202.808,52.145 -203.078,50.563C-203.294,49.298 -204.386,47.958 -204.967,46.675C-205.571,45.338 -206.587,43.677 -206.633,42.454C-206.695,40.754 -205.498,38.653 -205.3,36.454M-220.63,124.552C-220.758,126.459 -222.205,128.81 -222.63,130.884C-222.768,131.558 -222.708,132.314 -222.853,132.996C-223.205,134.672 -223.746,136.369 -224.075,138.105C-224.419,139.934 -224.536,141.841 -224.963,143.438C-225.411,145.109 -226.496,146.661 -227.185,148.215C-227.927,149.887 -228.991,151.293 -229.629,152.77C-229.807,153.181 -229.783,153.703 -229.962,154.103C-230.68,155.708 -232.301,157.129 -232.851,158.657C-232.681,157.156 -232.446,155.35 -232.962,153.992C-233.35,152.973 -234.182,152.363 -234.63,151.438C-234.763,151.158 -234.641,150.799 -234.739,150.548C-234.978,149.935 -235.569,149.771 -235.739,149.214C-235.623,148.725 -235.151,148.168 -235.183,147.66C-235.228,146.972 -235.982,146.698 -236.183,145.994C-236.286,145.638 -236.177,144.84 -236.295,144.216C-236.412,143.597 -236.669,143.231 -236.628,142.773C-236.578,142.217 -235.958,141.684 -235.85,141.105C-235.669,140.127 -236.186,138.788 -236.405,137.439C-237.128,133.024 -236.938,127.863 -236.628,122.996C-236.42,122.649 -235.768,122.747 -235.628,122.331C-236.413,119.85 -235.795,116.155 -235.628,112.665C-235.461,109.154 -235.197,106.061 -235.183,102.445C-235.006,101.993 -234.288,102.083 -233.851,101.888C-233.688,101.18 -232.597,100.443 -232.295,99.444C-232.139,98.926 -232.232,98.176 -232.073,97.445C-231.468,94.666 -228.862,90.949 -232.185,89.224C-230.193,84.601 -232.442,80.798 -234.072,76.559C-235.336,73.275 -236.019,69.298 -238.517,67.672C-239.498,67.033 -241.059,66.729 -241.96,66.338C-242.126,62.623 -240.39,59.437 -241.072,56.119C-241.346,54.788 -242.455,53.32 -243.071,52.008C-243.773,50.516 -244.169,49.117 -244.848,47.785C-243.7,43.823 -243.021,39.392 -243.294,34.011C-241.241,34.181 -239.121,34.282 -236.851,34.232C-235.326,42.538 -234.285,51.86 -231.518,59.229C-230.524,61.873 -229.46,64.101 -229.296,67.005C-229.229,68.187 -229.36,69.038 -229.296,70.005C-229.183,71.683 -228.454,73.553 -228.741,75.337C-228.979,76.829 -230.593,77.796 -229.74,80.003C-229.277,81.2 -228.147,81.561 -227.407,82.669C-229.437,83.425 -229.631,87.827 -228.185,89.78C-227.217,91.086 -225.558,91.841 -224.186,92.113C-221.808,96.246 -222.621,103.628 -222.297,109.554C-222.161,112.043 -221.636,114.477 -222.964,116.219C-222.392,116.76 -221.997,117.475 -221.075,117.665C-221.973,119.888 -220.467,122.114 -220.63,124.552M-307.826,-12.96C-310.747,-12.894 -310.912,-18.647 -308.319,-19.237C-304.805,-20.035 -304.916,-13.026 -307.826,-12.96M-326.656,-7.053C-330.16,-7.341 -330.765,-12.925 -327.025,-13.575C-327.02,-13.576 -326.989,-13.689 -326.902,-13.699C-322.26,-14.213 -322.271,-6.693 -326.656,-7.053M-376.648,-70.256C-376.546,-69.115 -376.423,-67.989 -376.621,-67.109C-376.763,-66.472 -377.623,-65.367 -378.097,-64.525C-378.73,-63.401 -379.319,-62.32 -379.888,-61.263C-380.123,-61.309 -380.361,-61.356 -380.616,-61.405L-381.207,-69.484C-379.218,-69.772 -377.642,-70.038 -376.648,-70.256M-361.853,-16.775C-361.597,-17.326 -361.609,-17.907 -361.36,-18.498C-360.777,-19.887 -360.027,-20.901 -359.882,-22.56C-359.623,-25.554 -360.105,-28.852 -359.513,-32.896C-358.895,-32.287 -359.398,-31.244 -359.145,-30.435C-358.951,-29.817 -358.236,-29.293 -358.037,-28.589C-357.85,-27.927 -357.992,-27.1 -357.791,-26.621C-357.361,-25.593 -356.119,-25.558 -355.453,-24.898C-355.468,-22.833 -355.946,-19.76 -355.822,-17.021C-355.785,-16.208 -355.404,-15.039 -355.576,-14.314C-355.782,-13.443 -357.193,-12.465 -357.667,-11.483C-358.735,-9.283 -359.232,-5.936 -359.882,-2.869C-360.589,0.455 -361.189,3.86 -361.722,7.309C-361.902,6.651 -362.039,6.157 -362.106,5.91C-362.557,4.253 -363.712,3.952 -363.712,3.952L-365.971,3.449L-366.574,0.89C-366.574,0.89 -362.005,-1.169 -362.005,-1.57C-362.005,-1.731 -363.073,-7.174 -364.376,-13.753C-363.228,-14.771 -362.282,-15.849 -361.853,-16.775M-346.468,-18.621C-342.912,-19.31 -342.473,-12.549 -345.977,-12.468C-349.109,-12.394 -349.447,-18.045 -346.468,-18.621M13.789,-135.706C13.9,-136.207 14.456,-135.275 14.499,-135.706C14.305,-137.63 12.343,-137.633 11.513,-138.834C11.299,-139.145 11.003,-140.847 11.177,-140.63C10.953,-141.004 10.384,-141.492 10.091,-141.963C9.275,-143.276 9.323,-144.274 7.673,-144.38C7.63,-145.04 7.675,-145.611 7.958,-145.945C6.146,-144.409 3.144,-145.307 0.137,-145.092C-2.02,-144.937 -4.081,-143.55 -5.552,-143.527C-6.884,-143.507 -8.435,-144.91 -9.676,-143.811C-9.415,-143.456 -8.333,-143.922 -8.538,-143.101C-8.731,-142.566 -9.398,-141.911 -10.103,-141.537C-10.897,-141.113 -11.9,-141.169 -12.52,-140.541C-13.551,-139.494 -14.039,-137.876 -13.941,-136.132C-15.59,-134.273 -17.107,-132.283 -17.924,-129.591C-18.155,-128.695 -17.228,-128.96 -17.212,-128.311C-18.093,-126.865 -17.408,-125.519 -17.497,-124.187C-17.53,-123.69 -17.841,-123.3 -17.924,-122.765C-18.222,-120.831 -17.542,-118.899 -16.929,-117.361C-16.497,-116.282 -15.757,-115.342 -15.363,-114.375C-14.396,-111.991 -15.33,-110.376 -16.075,-108.402C-16.729,-108.217 -17.128,-109.405 -17.781,-109.682C-18.934,-109.668 -19.087,-110.652 -19.771,-111.104C-22.304,-110.791 -23.569,-109.662 -24.892,-107.691C-25.132,-107.424 -25.497,-107.189 -25.95,-106.983L-30.672,-109.191L-28.646,-113.522L-28.307,-114.246C-28.213,-114.446 -28.301,-114.684 -28.5,-114.777L-53.493,-126.465L-53.269,-126.945C-53.175,-127.145 -53.262,-127.383 -53.462,-127.476L-55.446,-128.405L-54.944,-129.479C-54.851,-129.679 -54.937,-129.917 -55.137,-130.011L-59.676,-132.133C-59.876,-132.227 -60.113,-132.141 -60.207,-131.941L-60.709,-130.866L-62.694,-131.794C-62.895,-131.888 -63.132,-131.801 -63.225,-131.602L-63.45,-131.122L-66.147,-132.383C-65.301,-133.843 -62.955,-135.328 -63.146,-136.986C-63.361,-138.872 -65.925,-138.018 -67.269,-137.555C-70.137,-136.564 -72.868,-135.456 -75.517,-136.986C-75.559,-137.083 -75.61,-137.171 -75.661,-137.258L-75.298,-138.035L-78.428,-139.498L-78.954,-138.373L-79.979,-138.852C-80.178,-138.945 -80.416,-138.859 -80.51,-138.659L-80.848,-137.935L-85.159,-128.715L-85.498,-127.991C-85.592,-127.791 -85.506,-127.554 -85.306,-127.46L-83.214,-126.482L-92.66,-106.285L-91.664,-105.819L-82.219,-126.017L-81.616,-125.735L-81.631,-125.609C-82.974,-120.863 -78.271,-119.932 -74.947,-118.925C-76.037,-116.193 -78.221,-114.675 -79.214,-111.673C-79.857,-109.727 -79.581,-107.257 -79.845,-105.239L-80.992,-102.786C-81.776,-103.29 -82.8,-103.879 -83.335,-103.895C-84.274,-103.923 -88.216,-98.832 -89.404,-95.921C-90.091,-94.24 -90.228,-92.126 -90.546,-89.659C-91.005,-93.198 -91.772,-96.435 -93.578,-99.123C-93.117,-101.353 -94.645,-102.668 -96.188,-103.993C-99.067,-106.462 -104.154,-107.503 -107.842,-109.037C-113.143,-111.242 -118.622,-113.559 -120.973,-118.081C-121.481,-119.059 -121.798,-120.606 -121.929,-121.994C-122.059,-123.362 -122.253,-125.127 -121.756,-126.516C-121.516,-127.184 -120.755,-127.785 -120.364,-128.342C-119.087,-130.155 -118.077,-132.319 -117.755,-135.125C-117.548,-136.936 -117.582,-139.056 -117.406,-141.125C-117.241,-143.072 -116.799,-145.074 -116.885,-146.865C-116.938,-147.964 -117.402,-149.268 -117.581,-150.604C-117.757,-151.921 -117.628,-153.456 -117.929,-154.692C-118.04,-155.152 -118.593,-155.688 -119.06,-156.257C-119.504,-156.8 -119.816,-157.321 -120.103,-157.823C-120.657,-158.795 -121.819,-160.346 -121.929,-161.388C-122.521,-167.082 -123.323,-173.35 -124.624,-178.519C-125.064,-180.265 -125.291,-182.098 -126.276,-183.477C-126.903,-182.356 -126.79,-180.806 -126.799,-179.389C-126.821,-175.028 -127.12,-170.393 -127.407,-166.345C-131.18,-168.274 -137.45,-167.895 -141.496,-166.432C-142.496,-166.069 -144.511,-164.74 -145.408,-164.867C-146.716,-165.051 -147.297,-167.827 -147.582,-169.389C-148.601,-174.949 -149.316,-181.096 -150.54,-186.347L-150.626,-186.347C-151.565,-184.612 -152.214,-180.293 -152.539,-177.65C-152.953,-174.282 -153.147,-171.271 -153.147,-167.911C-153.147,-160.939 -153.382,-154.196 -153.062,-147.474C-152.906,-144.206 -153.001,-140.694 -152.627,-137.473C-152.256,-134.272 -151.394,-131.516 -151.495,-128.255C-151.59,-125.254 -152.152,-122.192 -153.496,-119.906C-154.071,-118.927 -154.84,-117.888 -155.671,-116.863C-156.251,-116.146 -157.501,-114.43 -158.366,-114.254C-160.517,-113.817 -162.684,-113.035 -164.889,-112.341C-167.081,-111.65 -169.237,-111.121 -171.236,-110.341C-175.299,-108.755 -178.343,-106.361 -180.194,-102.514C-181.046,-100.742 -181.657,-98.68 -182.169,-96.513C-183.427,-99.476 -184.619,-102.667 -185.969,-104.634C-185.938,-106.364 -186.433,-107.376 -186.97,-109.078C-187.649,-111.237 -188.287,-113.128 -188.969,-115.188C-189.556,-116.959 -189.873,-118.606 -191.413,-118.854C-191.483,-122.962 -194.949,-125.155 -197.412,-127.186C-199.803,-131.498 -206.113,-131.89 -210.854,-133.852C-211.361,-133.877 -211.63,-133.665 -211.966,-133.518C-212.295,-134.143 -212.703,-134.09 -213.076,-134.185C-214.636,-134.582 -216.723,-134.779 -218.854,-135.295C-220.638,-135.73 -223.142,-136.872 -224.407,-136.74C-224.912,-136.688 -225.224,-136.101 -225.63,-136.185C-225.876,-136.236 -225.653,-136.495 -225.963,-136.74C-226.154,-136.892 -226.585,-136.93 -226.63,-136.962C-227.041,-137.259 -227.262,-137.621 -227.74,-137.741C-228.562,-137.946 -229.656,-137.611 -230.74,-137.741C-232.542,-137.956 -233.941,-139.024 -235.739,-138.296C-236.805,-139.007 -237.913,-139.677 -238.96,-140.406C-239.269,-142.581 -241.091,-143.239 -241.739,-145.073C-241.162,-147.297 -238.437,-149.434 -240.628,-151.405C-238.709,-155.003 -238.794,-160.606 -238.739,-166.069C-238.669,-166.51 -239.16,-166.387 -239.072,-166.847C-239.358,-177.781 -243.289,-185.069 -254.071,-185.511L-256.181,-185.511C-265.005,-184.758 -270.225,-180.742 -271.624,-172.513C-271.943,-170.625 -272.12,-168.425 -272.289,-166.291C-272.464,-164.106 -272.751,-161.792 -272.623,-159.737C-272.359,-155.59 -271.366,-151.306 -271.29,-147.517C-270.897,-147.167 -270.668,-146.673 -270.399,-146.184C-269.93,-145.328 -269.315,-144.869 -269.29,-143.517C-268.517,-142.586 -267.411,-141.989 -266.29,-141.406C-266.079,-140.431 -265.893,-139.432 -265.623,-138.518C-266.421,-137.633 -267.831,-136.755 -268.957,-135.518C-270.353,-133.983 -272.285,-132.22 -271.067,-129.741C-271.175,-129.285 -272.195,-130.015 -272.623,-129.63C-272.998,-128.543 -271.375,-128.615 -271.4,-127.519C-273.082,-127.738 -273.88,-126.16 -275.177,-125.631C-275.572,-122.767 -279.162,-123.098 -279.955,-120.632C-280.363,-120.596 -280.937,-120.727 -281.176,-120.52C-284.587,-118.339 -286.419,-114.58 -289.508,-112.078C-289.841,-110.863 -290.804,-109.164 -291.508,-107.301C-292.064,-105.831 -293.591,-101.738 -292.064,-100.746C-292.155,-95.436 -293.076,-90.568 -291.397,-86.97C-290.899,-85.9 -289.626,-83.827 -290.287,-81.638C-290.416,-81.208 -290.837,-80.963 -291.179,-80.617C-292.072,-81.226 -293.048,-81.788 -293.919,-82.37C-294.778,-82.942 -295.642,-83.544 -296.504,-84.092C-297.385,-84.653 -298.404,-85.085 -299.21,-85.693C-300.244,-86.468 -301.003,-87.583 -302.042,-88.4C-303.136,-89.261 -304.414,-89.718 -305.611,-90.492C-306.712,-91.204 -307.875,-92.602 -309.796,-92.215C-309.441,-92.974 -309.801,-93.987 -310.165,-94.43C-309.005,-94.994 -309.496,-97.207 -309.18,-98.614C-307.12,-100.204 -306.308,-103.044 -304.996,-105.383C-301.025,-102.787 -297.462,-106.05 -295.519,-108.829C-292.666,-112.912 -291.545,-118.588 -291.582,-125.32C-291.599,-128.701 -291.671,-132.493 -292.443,-134.672C-293.743,-138.346 -301.208,-140.143 -303.027,-136.272C-305.683,-140.436 -310.019,-144.314 -315.703,-145.256C-317.097,-145.488 -317.795,-144.977 -318.902,-144.887C-319.863,-144.81 -320.804,-145.13 -321.732,-145.133C-328.299,-145.155 -329.224,-140.322 -333.67,-138.119C-334.517,-140.593 -337.501,-141.384 -339.7,-139.719C-341.432,-138.408 -342.158,-135.565 -343.515,-133.073C-344.639,-131.01 -346.484,-128.291 -346.714,-125.812C-347.131,-121.344 -346.044,-118.232 -345.238,-114.736C-344.71,-112.451 -344.444,-110.356 -343.638,-108.829C-342.505,-106.682 -340.288,-104.495 -336.377,-105.137C-333.912,-105.541 -332.583,-107.842 -332.193,-110.059C-332.078,-110.715 -332.45,-111.941 -331.332,-112.275C-330.871,-110.069 -330.944,-107.329 -330.101,-105.506C-330.88,-105.506 -331.232,-105.078 -331.701,-104.768C-331.99,-103.457 -332.449,-102.316 -332.685,-100.953C-333.888,-99.94 -334.318,-98.154 -335.516,-97.138C-338.117,-97.251 -339.531,-96.177 -341.3,-95.538C-341.873,-95.331 -342.508,-95.254 -343.023,-95.045C-343.738,-94.755 -344.4,-94.204 -345.115,-93.938C-345.81,-93.679 -346.57,-93.705 -347.208,-93.446C-347.924,-93.154 -348.552,-92.427 -349.3,-92.092C-352.246,-90.768 -355.828,-90.742 -358.406,-89.385C-359.863,-88.618 -360.868,-86.98 -362.099,-86.185C-362.105,-86.467 -362.153,-86.795 -362.227,-87.152L-362.615,-92.027L-357.687,-92.862L-355.341,-94.38L-355.064,-96.175L-345.704,-99.188L-347.032,-107.449L-363.469,-104.731L-363.472,-104.954C-363.853,-107.618 -361.76,-107.333 -361.855,-109.522C-361.951,-111.71 -363.378,-138.448 -363.757,-141.302C-363.998,-143.098 -364.915,-144.14 -365.846,-144.856L-366.517,-152.245C-366.517,-152.245 -366.88,-152.356 -367.433,-152.495L-367.589,-154.436C-367.589,-154.436 -368.865,-155.357 -371.19,-155.357C-373.515,-155.357 -374.884,-153.755 -374.884,-153.755L-374.236,-145.393L-376.603,-142.729L-376.414,-142.063L-374.263,-141.651C-375.001,-139.971 -375.697,-138.122 -375.652,-137.21C-375.557,-135.308 -374.13,-110.188 -373.843,-108.855C-373.559,-107.524 -371.226,-107.334 -371.131,-105.336C-371.13,-105.324 -371.127,-105.311 -371.126,-105.3L-370.913,-102.536L-373.232,-102.324L-373.835,-101.971C-373.835,-101.971 -372.755,-99.387 -370.6,-98.5L-370.134,-92.492C-370.617,-91.111 -371.878,-90.019 -372.435,-88.523C-373.206,-86.455 -373.322,-84.054 -374.159,-81.877C-374.814,-81.472 -376.024,-81.296 -376.375,-80.523C-376.625,-79.969 -376.354,-78.958 -376.498,-77.939C-376.559,-77.494 -376.837,-77.059 -376.867,-76.708C-376.966,-75.478 -376.793,-73.966 -376.752,-72.478C-377.125,-72.744 -377.535,-73.014 -377.933,-73.284C-378.243,-73.495 -379.505,-73.839 -381.555,-74.247L-382.148,-82.351C-380.472,-82.66 -379.521,-82.853 -379.521,-82.853L-383.819,-98.715C-383.819,-98.715 -395.976,-121.047 -423.919,-121.047C-441.919,-121.047 -453.257,-113.612 -459.623,-107.336L-481.094,-108.766C-481.443,-110.43 -482.309,-111.616 -483.396,-111.689C-483.481,-111.695 -483.565,-111.691 -483.649,-111.683C-484.316,-113.321 -485.381,-114.403 -486.647,-114.487C-486.701,-114.491 -486.754,-114.483 -486.808,-114.483C-487.745,-115.76 -488.965,-116.562 -490.343,-116.654C-491.563,-116.735 -492.736,-116.245 -493.752,-115.339C-493.918,-115.386 -494.089,-115.419 -494.264,-115.431C-495.397,-115.507 -496.481,-114.808 -497.352,-113.608C-498.63,-113.467 -499.785,-112.053 -500.376,-110.048L-502.332,-110.179C-502.932,-113.391 -506.271,-118.143 -510.787,-118.444C-515.92,-118.786 -518.742,-117.433 -519.684,-117.059C-520.626,-116.685 -523.22,-114.508 -523.547,-109.58C-523.553,-109.511 -523.57,-109.234 -523.575,-109.164C-523.875,-104.665 -521.64,-101.43 -520.756,-100.934C-519.872,-100.437 -517.238,-98.969 -512.105,-98.626C-507.59,-98.326 -503.651,-102.594 -502.63,-105.698L-500.675,-105.568C-500.355,-103.502 -499.397,-101.948 -498.148,-101.64C-497.444,-100.334 -496.464,-99.498 -495.329,-99.423C-495.154,-99.411 -494.981,-99.422 -494.81,-99.446C-493.924,-98.413 -492.826,-97.772 -491.605,-97.691C-490.228,-97.599 -488.911,-98.233 -487.813,-99.374C-487.76,-99.367 -487.708,-99.352 -487.655,-99.349C-486.389,-99.265 -485.189,-100.197 -484.312,-101.731C-484.229,-101.712 -484.147,-101.697 -484.062,-101.692C-482.974,-101.62 -481.959,-102.68 -481.392,-104.284L-463.407,-103.088C-465.378,-100.551 -466.266,-98.787 -466.266,-98.787L-470.494,-83.715C-470.494,-83.715 -469.338,-83.47 -467.333,-83.081L-468.1,-74.898C-470.927,-74.383 -472.666,-73.937 -473.039,-73.685C-474.418,-72.75 -475.953,-71.814 -475.493,-71.035C-475.342,-70.78 -472.638,-70.278 -468.584,-69.719L-469.324,-61.836C-471.882,-61.356 -473.454,-60.945 -473.805,-60.707C-475.185,-59.771 -476.718,-58.835 -476.259,-58.056C-476.115,-57.81 -473.601,-57.337 -469.794,-56.802L-470.617,-48.02C-473.345,-47.873 -475.082,-47.75 -475.591,-47.649C-476.972,-46.713 -478.057,-45.494 -477.714,-45.102C-477.531,-44.895 -475.14,-44.812 -471.513,-44.788C-474.853,-44.08 -474.857,-43.474 -474.857,-43.474L-475.448,-39.817C-476.712,-39.823 -477.455,-39.826 -477.575,-39.826C-479.131,-39.826 -479.433,-39.675 -479.533,-39.274C-479.634,-38.873 -485.357,-23.008 -485.959,-21.049C-486.562,-19.092 -485.156,-18.79 -485.156,-18.79L-485.774,-16.984C-485.774,-16.984 -490.431,-16.693 -490.868,-16.548C-491.009,-16.5 -491.657,-13.832 -492.461,-10.235L-536.965,-29.538C-537.546,-29.79 -538.173,-29.775 -538.715,-29.549L-542.431,-31.161C-541.729,-34.233 -542.258,-37.259 -543.79,-39.384C-544.239,-41.51 -545.3,-43.134 -546.922,-43.837C-550.595,-45.43 -555.747,-41.707 -558.429,-35.522C-561.112,-29.336 -560.311,-23.031 -556.638,-21.438C-555.016,-20.734 -553.105,-21.069 -551.247,-22.194C-548.648,-22.527 -546.078,-24.208 -544.313,-26.821L-540.598,-25.209C-540.393,-24.659 -539.974,-24.19 -539.394,-23.938L-493.786,-4.156C-495.156,2.274 -496.472,8.846 -496.398,9.067C-496.253,9.504 -489.122,14.646 -489.122,14.646C-489.122,14.646 -489.682,16.207 -490.577,18.527C-491.212,20.174 -489.969,21.003 -489.969,21.003L-487.819,22.716L-489.193,29.939C-489.246,29.938 -489.3,29.935 -489.354,29.935C-494.434,29.935 -498.553,34.054 -498.553,39.134C-498.553,43.08 -496.069,46.443 -492.58,47.752L-494.443,57.549C-494.61,57.54 -494.777,57.535 -494.946,57.535C-500.026,57.535 -504.145,61.654 -504.145,66.734C-504.145,70.799 -501.507,74.247 -497.851,75.463L-499.73,85.351C-499.997,85.329 -500.266,85.314 -500.537,85.314C-505.619,85.314 -509.737,89.432 -509.737,94.513C-509.737,98.687 -506.958,102.209 -503.151,103.336L-505.016,113.14C-505.323,113.11 -505.634,113.093 -505.949,113.093C-511.03,113.093 -515.149,117.213 -515.149,122.294C-515.149,126.511 -512.311,130.063 -508.44,131.149L-508.927,133.705L-514.009,136.416L-516.629,146.459L-516.774,156.792L-515.464,157.228C-515.464,157.228 -515.174,163.63 -515.174,164.504C-515.174,165.378 -500.474,174.256 -499.31,174.401C-498.145,174.547 -456.812,174.984 -455.648,174.984C-454.483,174.984 -407.183,171.054 -407.183,171.054L-376.765,164.942C-376.765,164.942 -367.244,161.095 -357.942,157.336C-357.197,161.491 -354.178,163.373 -350.654,164.749C-350.462,166.047 -351.277,168.622 -350.654,170.04C-350.048,171.416 -347.203,172.033 -344.746,172.132C-339.812,172.33 -335.13,171.103 -331.825,169.302C-330.039,168.331 -328.177,167.235 -325.917,167.086C-320.744,166.747 -316.115,169.313 -311.642,167.701C-309.968,167.098 -308.101,165.947 -306.596,164.749C-302.901,161.807 -299.937,158.447 -298.842,153.302C-294.375,153.018 -290.822,153.648 -287.274,154.288C-286.335,150.696 -287.728,146.644 -287.766,142.842C-285.306,142.224 -282.248,141.787 -281.613,139.642C-281.236,138.369 -282.12,136.128 -282.351,134.473C-282.631,132.472 -282.701,130.442 -282.843,128.689C-285.059,101.577 -286.39,73.396 -287.89,46.482C-285.642,45.981 -283.344,45.528 -283.335,42.789C-281.599,41.745 -281.835,39.319 -281.121,36.881C-280.708,35.475 -279.818,33.961 -279.767,32.821C-279.661,30.471 -281.195,28.25 -280.875,25.683C-279.623,25.026 -277.919,24.928 -277.358,23.815C-277.339,24.108 -277.318,24.4 -277.289,24.679C-276.839,28.896 -276.564,33.221 -276.289,37.344C-276.165,39.177 -275.544,40.849 -275.4,42.564C-275.32,43.505 -275.238,44.389 -275.066,45.231C-274.89,46.093 -274.481,46.889 -274.4,47.675C-274.311,48.515 -274.628,49.336 -274.734,50.12C-275.158,53.257 -274.597,57.148 -274.4,60.339C-274.201,63.519 -274.067,66.548 -273.51,69.228C-272.407,74.548 -269.103,77.766 -265.512,80.669C-265.331,81.636 -264.885,82.339 -264.623,83.225C-265.963,85.607 -268.984,85.889 -268.178,89.78C-267.256,94.239 -264.311,99.992 -260.957,101.667C-260.293,106.382 -259.922,112.062 -259.625,117.442C-259.523,119.266 -260.025,121.972 -259.068,122.774C-260.289,124.692 -258.844,126.824 -258.958,128.663C-258.989,129.168 -259.324,129.509 -259.291,129.997C-259.243,130.685 -258.609,131.223 -258.625,131.884C-258.636,132.402 -259.121,132.846 -259.291,133.44C-259.479,134.098 -259.232,134.144 -259.512,134.551C-260.043,135.318 -259.104,135.863 -259.068,136.662C-260.054,137.537 -259.416,138.855 -260.179,139.773C-259.72,140.522 -260.173,141.504 -260.069,142.548C-260.619,142.986 -260.556,143.456 -260.402,143.882C-261.353,144.855 -262.871,145.266 -263.069,146.993C-263.64,146.913 -264.026,147.304 -264.511,147.547C-265.597,148.093 -266.167,148.216 -266.624,149.437C-267.524,149.907 -268.568,150.233 -269.401,150.771C-269.545,151.18 -269.652,151.629 -269.622,152.214C-272.1,153.839 -274.044,155.223 -277.511,155.77C-281.648,156.421 -286.91,155.335 -290.62,155.77C-290.912,155.804 -291.365,155.887 -291.619,155.992C-292.783,156.47 -292.882,157.545 -293.508,158.546C-294.001,159.335 -294.517,159.629 -294.73,160.325C-295.664,163.39 -292.135,164.763 -290.064,165.656C-285.515,167.62 -280.105,168.45 -273.843,168.545C-265.306,168.676 -259.612,165.181 -251.292,165.656C-251.405,166.65 -251.516,168.129 -251.292,169.101L-245.404,169.101C-245.43,169.681 -245.403,170.21 -245.294,170.657C-245.866,171.356 -246.732,172.442 -246.293,173.544C-245.997,174.292 -244.324,174.716 -243.182,175.1C-239.481,176.342 -235.263,177.057 -231.406,177.544C-228.613,177.895 -225.455,178.412 -222.742,178.1C-220.053,177.79 -217.269,177.083 -215.41,175.989C-213.622,174.938 -212.822,172.628 -211.631,170.878C-211.395,170.528 -210.431,169.365 -209.632,169.324C-208.671,169.273 -207.82,170.105 -207.077,170.101C-206.048,170.093 -204.431,169.224 -203.522,168.767C-202.4,168.204 -201.198,167.734 -200.745,166.545C-200.355,165.527 -200.593,164.507 -200.633,163.546C-200.784,159.972 -200.938,156.068 -201.855,153.104C-202.176,152.071 -202.885,150.836 -202.855,150.214C-202.816,149.375 -201.74,148.427 -201.744,147.547C-201.75,146.383 -202.607,145.774 -202.967,144.771C-201.397,142.106 -203.074,138.722 -202.936,135.87C-202.758,135.62 -202.571,135.379 -202.37,135.156C-201.54,134.24 -200.383,133.363 -199.24,132.547C-195.496,129.883 -191.152,127.367 -186.718,124.981C-186.151,124.676 -185.08,124.042 -184.804,124.025C-184.231,123.989 -182.685,126.016 -182.107,126.546C-181.152,127.423 -180.149,128.301 -179.412,129.242C-177.728,131.387 -176.716,133.756 -175.15,135.763C-174.011,135.193 -173.56,133.933 -173.063,132.72C-171.996,133.728 -171.443,134.896 -170.716,136.461C-170.515,136.89 -170.124,137.486 -170.106,137.853C-170.077,138.447 -170.618,139.157 -170.716,139.94C-170.845,140.986 -170.845,142.217 -170.976,143.419C-171.111,144.656 -171.3,145.913 -171.323,146.809C-171.343,147.539 -171.072,147.796 -170.889,148.375C-171.302,149.465 -171.805,150.261 -172.02,151.418C-172.14,152.061 -171.955,152.765 -172.106,153.504C-172.275,154.341 -173.057,155.098 -173.322,155.853C-173.898,157.479 -173.537,158.857 -173.758,160.461C-173.817,160.882 -174.071,161.231 -174.106,161.68C-174.193,162.796 -173.828,163.99 -173.671,165.156C-173.524,166.25 -173.438,167.384 -173.149,168.548C-170.083,169.045 -166.386,168.707 -163.323,168.636C-160.149,168.565 -156.69,168.837 -153.584,168.636C-150.882,168.461 -150.809,166.463 -150.365,163.679C-150.253,162.975 -150.371,162.294 -150.365,161.593C-150.358,160.727 -150.126,160.086 -150.192,159.245C-150.251,158.477 -150.709,157.717 -150.8,156.895C-151.122,154.032 -150.294,150.732 -151.495,148.461C-150.174,146.903 -150.945,144.125 -150.54,141.939C-150.419,141.292 -149.935,140.586 -149.67,139.851C-149.397,139.095 -149.382,138.258 -149.147,137.503C-149.039,137.151 -148.641,136.757 -148.54,136.374C-148.007,134.359 -148.262,132.164 -147.582,130.025C-145.704,132.253 -144.351,134.744 -142.8,137.33C-142.296,138.169 -141.608,139.034 -141.669,140.201C-140.794,139.196 -140.662,137.708 -140.364,136.286C-139.795,133.552 -139.583,130.154 -139.583,126.72C-139.583,124.986 -139.894,123.065 -139.583,121.588C-139.417,120.802 -138.404,120.011 -137.93,119.33C-137.33,118.466 -137.195,117.457 -136.364,117.067C-135.433,118.069 -135.347,119.613 -134.973,121.067C-134.688,122.181 -133.872,124.075 -133.843,125.329C-133.814,126.503 -134.587,128.747 -134.887,130.025C-135.852,134.135 -136.876,137.414 -136.799,142.461C-136.786,143.29 -136.491,144.384 -136.626,145.07C-136.715,145.525 -137.145,145.867 -137.234,146.374C-137.695,148.966 -137.934,153.139 -136.626,154.896C-136.458,155.122 -136.053,155.414 -135.757,155.591C-133.936,156.691 -131.196,157.209 -128.799,157.677C-127.803,157.876 -126.248,156.484 -125.059,156.722C-124.167,156.902 -123.147,157.63 -122.538,158.288C-121.958,158.914 -121.517,160.08 -120.886,160.811C-118.818,163.202 -113.931,164.523 -109.493,164.202C-106.257,163.966 -103.021,163.388 -99.841,162.635C-98.549,162.331 -96.896,162.082 -96.361,161.07C-96.008,160.402 -95.765,158.512 -95.841,157.677C-95.894,157.075 -96.317,156.67 -96.448,156.112C-96.586,155.527 -96.609,154.924 -96.797,154.375C-97.486,152.353 -99.495,151.469 -101.146,150.288C-101.792,149.825 -102.602,149.043 -103.492,148.461C-104.316,147.923 -105.765,147.645 -106.102,146.897C-106.437,146.15 -105.371,146.108 -105.754,144.984C-106.311,144.044 -107.687,144.357 -108.624,143.764C-109.086,143.472 -109.644,142.463 -110.103,141.766C-111.428,139.75 -113.133,137.591 -113.929,135.329C-115.248,131.578 -113.92,126.789 -112.885,123.503C-111.911,124.789 -111.643,126.784 -110.71,128.113C-110.236,125.573 -110.637,122.155 -110.275,119.503C-108.763,123.548 -106.393,127.316 -104.276,131.069C-102.668,133.918 -101.752,137.148 -100.449,140.374C-100.054,141.348 -99.58,142.563 -98.188,142.461C-97.668,142.256 -98.267,140.869 -97.927,140.287C-97.711,140.094 -97.702,140.595 -97.579,140.808C-97.205,141.449 -96.608,142.409 -95.926,142.809C-93.846,140.354 -92.611,137.457 -90.97,134.721C-89.361,132.042 -87.622,129.191 -87.579,125.156C-85.364,128.507 -83.7,132.408 -81.578,135.852C-81.009,135.485 -80.77,134.947 -80.535,134.461C-79.387,132.082 -78.774,128.981 -77.752,125.763C-77.306,124.363 -76.823,122.911 -76.273,121.502C-75.612,119.811 -74.943,118.312 -75.056,116.285C-75.101,115.496 -75.496,114.682 -75.49,113.937C-75.477,112.296 -74.575,111.219 -74.359,109.675C-74.074,107.633 -74.429,105.319 -74.621,102.98C-75.16,96.411 -75.583,89.393 -76.013,82.978C-76.626,73.848 -77.46,65.225 -78.273,56.715C-80.517,33.244 -82.234,9.9 -84.35,-13.417C-83.941,-13.711 -83.488,-14.299 -83.14,-15.044C-82.895,-15.567 -82.742,-16.081 -82.685,-16.514C-81.438,-16.997 -80.168,-17.684 -78.899,-18.55C-78.281,-11.959 -77.603,-3.259 -76.797,1.664C-76.33,4.517 -75.372,6.86 -75.658,9.771C-75.475,10.472 -74.955,10.521 -74.663,11.191C-72.818,15.447 -77.404,25.677 -73.241,28.398C-74.724,33.367 -76.795,42.316 -76.37,49.161C-75.86,57.367 -70.251,61.643 -61.012,59.827C-59.301,68.377 -57.448,78.798 -55.323,87.129C-54.551,90.161 -53.19,93.028 -52.906,95.805C-52.773,97.095 -53.203,98.441 -53.333,99.928C-53.414,100.86 -53.131,101.805 -53.333,102.487C-53.617,103.451 -55.181,104.122 -55.75,105.476C-56.372,106.952 -56.259,108.081 -56.604,109.742C-59.597,113.267 -61.365,117.438 -62.292,122.681C-62.59,124.371 -63.379,126.007 -63.571,127.66C-63.718,128.908 -63.372,130.06 -63.571,131.213C-63.877,132.986 -65.266,134.88 -65.989,136.903C-66.84,139.282 -67.429,142.191 -67.269,144.582C-67.106,147.012 -68.463,149.491 -67.695,152.261C-68.456,153.914 -68.786,156.283 -68.265,157.806C-68.02,158.521 -67.527,158.534 -66.842,159.229C-66.263,159.817 -66.121,160.511 -65.563,160.793C-64.044,161.558 -61.267,161.055 -59.021,160.935C-56.718,160.813 -54.381,160.467 -52.621,160.224C-51.832,159.465 -52.573,157.748 -52.053,156.953C-48.913,155.966 -44.09,156.681 -41.103,157.238C-41.269,157.973 -40.923,158.439 -40.96,159.086C-40.998,159.712 -41.404,159.981 -41.529,160.651C-41.868,162.46 -41.704,165.882 -41.103,167.191C-40.397,168.731 -37.009,169.056 -34.704,168.898C-32.444,168.744 -30.384,167.715 -28.589,167.334C-26.627,167.745 -25.736,169.723 -24.323,170.462C-22.411,171.463 -18.443,170.892 -15.933,170.605C-7.593,169.652 0.101,167.384 5.825,164.917C6.132,163.176 6.237,160.692 4.403,160.651C4.557,153.769 -3.838,156.697 -7.686,153.968C-8.434,153.498 -8.101,152.829 -8.538,152.261C-9.476,151.039 -11.886,151.029 -11.951,148.99C-14.389,148.679 -14.246,145.786 -16.502,145.293C-16.231,145.041 -15.591,145.16 -15.363,144.865C-13.337,140.241 -14.935,134.572 -16.502,130.503C-17.503,127.905 -19.422,125.568 -19.771,123.252C-20.249,120.088 -19.263,115.22 -19.487,111.164C-19.563,109.808 -19.95,108.535 -19.914,107.324C-19.893,106.595 -19.553,105.742 -19.487,104.906C-19.31,102.602 -20.035,100.143 -19.914,98.221C-19.758,95.74 -17.912,92.701 -16.644,90.544C-12.281,83.126 -11.878,73.103 -10.387,63.525C-4.647,60.755 -0.38,57.408 3.123,52.716C6.625,48.026 8.444,42.052 9.38,34.657C10.335,27.107 8.921,19.577 7.958,12.331C7.007,5.175 5.422,-1.613 3.91,-7.698C5.703,-7.612 7.248,-9.047 7.457,-10.953L8.795,-10.874C9.235,-10.848 9.614,-11.183 9.64,-11.623L9.766,-13.749L12.977,-13.56C13.479,-13.529 13.909,-13.913 13.94,-14.415L14.146,-17.899C14.176,-18.401 13.794,-18.832 13.291,-18.862L12.339,-18.918L12.998,-30.049L13.499,-30.019C13.663,-30.01 13.807,-30.193 13.821,-30.43L14.331,-39.054C14.346,-39.29 14.225,-39.49 14.062,-39.499L11.597,-39.645C11.433,-39.655 11.29,-39.472 11.275,-39.235L11.207,-38.068L8.978,-38.2C9.221,-39.083 11.193,-39.172 10.659,-41.14C9.941,-41.938 7.903,-41.416 6.536,-41.566C5.951,-41.836 5.539,-43.275 4.688,-43.699C4.182,-43.95 3.467,-43.577 2.839,-43.841C2.658,-43.917 2.281,-44.54 1.985,-44.837C0.635,-46.189 0.81,-46.893 0.705,-49.245C0.656,-50.346 0.158,-51.404 0.137,-51.947C0.062,-53.887 1.09,-56.375 1.559,-58.63C2.032,-60.91 2.668,-63.319 2.696,-65.599C2.727,-68.127 2.313,-70.944 2.128,-73.704C2.067,-74.603 2.234,-75.582 2.128,-76.549C1.853,-79.025 0.937,-81.357 -0.006,-83.09C-0.507,-84.011 -1.737,-84.663 -2.139,-85.649C-2.581,-86.737 -2.96,-91.554 -2.707,-92.76C-2.408,-94.185 -0.567,-95.392 0.279,-96.884C0.869,-97.926 1.092,-98.871 1.417,-100.013C5.584,-102.196 8.707,-105.426 9.664,-110.82C11.609,-111.737 11.825,-113.477 12.65,-115.655C13.034,-116.669 14.001,-117.697 14.073,-118.357C14.159,-119.145 13.462,-120.017 13.504,-120.774C13.562,-121.812 14.237,-123.069 14.499,-124.187C14.813,-125.52 15.033,-126.72 15.068,-128.169C15.187,-128.896 15.482,-127.742 15.779,-127.743C16.586,-130.816 14.746,-133.472 13.789,-135.706"/>
                    </g>
                    <g id="HIGH" transform="matrix(1,0,0,1,3.9443e-31,-305.598)">
                        <path d="M1427.29,2552.35C1412.69,2551.15 1410.2,2528.08 1425.75,2525.17C1425.77,2525.17 1425.9,2524.7 1426.26,2524.66C1445.6,2522.47 1445.56,2553.85 1427.29,2552.35ZM1344.74,2504.15C1352.15,2502.71 1356.31,2509.04 1356.79,2515.76C1357.28,2522.49 1354.08,2529.62 1346.78,2529.79C1333.73,2530.09 1332.33,2506.55 1344.74,2504.15ZM1505.75,2527.74C1493.58,2528.01 1492.89,2504.04 1503.69,2501.58C1511.01,2499.92 1514.56,2506.39 1514.76,2513.31C1514.96,2520.23 1511.81,2527.6 1505.75,2527.74ZM1788.98,2232.32C1858.59,2229.01 1913.96,2257.54 1948.68,2291.57C1984.16,2326.35 2014.49,2374.11 2017.65,2441.09C2020.96,2511.17 1992.09,2565.71 1958.4,2600.78C1922.54,2638.11 1875.64,2666.09 1808.43,2669.29C1739.67,2672.56 1685.36,2645.35 1649.19,2610.5C1611.76,2574.45 1583.43,2528.94 1580.22,2460.99C1576.88,2390.24 1604.32,2337.49 1638.54,2301.29C1663.98,2274.38 1697.61,2251.19 1740.85,2239.72C1755.61,2235.81 1772.3,2233.12 1788.98,2232.32ZM1754.27,2295.27C1722.94,2304.28 1698.23,2321.44 1679.74,2341.57C1655.2,2368.26 1634.04,2408.13 1637.61,2460.07C1641.03,2509.55 1661.49,2544.72 1689,2569.77C1716.48,2594.8 1757.05,2615.14 1807.5,2611.89C1856.09,2608.76 1891,2588.9 1917.2,2560.51C1942.08,2533.56 1963.38,2494.97 1960.25,2442.01C1957.45,2394.59 1935.3,2356.49 1908.87,2332.31C1882.22,2307.91 1841.11,2286.42 1789.91,2289.72C1778.09,2290.48 1765.33,2292.09 1754.27,2295.27ZM1800.55,2346.19C1809.36,2369.16 1817.91,2392.4 1826.01,2416.09C1850.27,2416.99 1875.48,2416.92 1900.07,2417.48C1900.3,2418.75 1898.66,2419.52 1897.76,2420.26C1880.27,2434.57 1859.65,2449.05 1842.21,2463.77C1849.55,2487.29 1856.86,2510.84 1863.97,2534.59C1843.17,2521.14 1823.07,2506.97 1802.4,2493.39C1781.72,2506.8 1761.18,2522.84 1741.31,2535.51C1748,2511.97 1754.52,2488.24 1761.67,2465.16C1743.41,2448.86 1720.35,2434.87 1702.89,2419.33C1727.42,2418.71 1751.21,2417.36 1776.02,2417.01C1784.88,2394.09 1792.58,2370.01 1800.55,2346.19ZM2667.17,2268.13C2667.55,2268.42 2668.96,2269.79 2668.7,2270.63C2668.44,2271.45 2666.95,2271.51 2666.25,2271.41C2663.56,2271.06 2659.73,2268.09 2657.79,2270.26C2658.64,2270.8 2658.52,2271.74 2659.05,2272.49C2659.9,2273.67 2661.81,2274.48 2661.23,2276.54C2657.12,2277.13 2655.97,2271.89 2652.38,2270.63C2649.41,2269.59 2647.37,2271.74 2644.22,2270.09C2644.68,2269.64 2645.73,2270.11 2646.18,2269.63C2645.82,2268.65 2644.58,2268.99 2644.01,2269.07C2641.36,2269.39 2639.3,2271.09 2635.65,2270C2635.21,2269.47 2634.72,2269.16 2634.8,2268.4C2635.05,2265.54 2639.33,2264.89 2639.53,2262.01C2638.85,2261.85 2639,2262.96 2638.46,2262.98C2637.13,2262.49 2636.92,2260.16 2635.48,2260.61C2635.37,2261.76 2636.9,2262.61 2637.57,2263.55C2637.27,2264.36 2636.38,2264.82 2635.65,2265.43C2633.95,2266.85 2632.46,2270.43 2635.93,2271.26C2638.46,2271.86 2640.34,2270.5 2642.55,2270.28C2643.43,2270.84 2644.6,2271.22 2646,2271.45C2643.3,2278.66 2638.34,2283.46 2632.6,2286.87C2626.93,2290.23 2620.1,2291.97 2611.68,2290.57C2603.92,2289.27 2598.35,2285.41 2594.31,2281.2C2597.24,2279.37 2600.85,2278.56 2602.86,2275.3C2606.01,2277.3 2609.9,2280.5 2614.78,2281.11C2615.23,2281.16 2615.8,2281.22 2616.22,2280.98C2615.67,2280.37 2614.67,2280.38 2613.89,2280.16C2608.86,2278.69 2605.27,2275.6 2601.95,2272.93C2609.59,2269.98 2617.33,2267.07 2625.12,2264.27C2632.87,2261.5 2640.52,2258.38 2648.22,2255.93C2648.3,2256.87 2647.43,2256.36 2647.25,2256.91C2648.31,2257.94 2650.8,2256.68 2652.19,2257.75C2651.43,2257.97 2650.51,2257.93 2649.72,2258.09C2652.82,2258.97 2655.35,2257.72 2657.92,2256.91C2660.39,2256.13 2663.26,2254.94 2665.89,2255.24C2666.95,2255.35 2667.73,2255.72 2667.72,2256.39C2667.68,2257.79 2664.14,2258.85 2663.02,2259.52C2661.46,2260.44 2659.51,2261.9 2658.74,2263.28C2658.18,2264.27 2657.79,2265.74 2659.08,2266.29C2659.14,2265.85 2658.56,2265.03 2659.08,2264.22C2659.82,2264.27 2660.24,2264.9 2661.03,2265.29C2662.94,2266.24 2665.63,2266.96 2667.17,2268.13ZM2640.78,2242.91C2625.05,2248.94 2609.05,2254.56 2593.28,2260.53C2592.93,2259.47 2592.77,2258.29 2592.59,2257.12C2592.97,2257.14 2593.54,2257.48 2593.68,2257.13C2593.14,2256.31 2591.97,2256.54 2591.3,2256.51C2585.57,2256.34 2582.22,2260.26 2576.67,2260.36C2576.85,2259.67 2577.19,2259.23 2577.54,2258.8C2574.42,2259.3 2577.35,2263.21 2575.61,2264.81C2573.54,2264.38 2572.58,2262.21 2571.68,2260.82C2570.81,2259.48 2570.11,2258.24 2568.69,2257.46C2568.45,2257.49 2568.93,2258.04 2568.53,2258.19C2565.69,2257.07 2564.67,2254.77 2562.02,2253.53C2561.51,2253.54 2562.21,2254.02 2561.76,2254.24C2560.38,2254.13 2558.37,2255.51 2557.47,2253.97C2558.13,2251.92 2560.24,2252.08 2561,2250.16C2561.78,2250.58 2562.25,2251.2 2562.84,2251.75C2562.94,2250.35 2561,2248.92 2559.52,2248.43C2557.97,2247.91 2556.16,2248.26 2555.17,2247.39C2556.15,2245.31 2559.03,2244.96 2560.93,2243.83C2561.78,2244.15 2561.62,2245.12 2562.31,2245.54C2562.25,2243.38 2561.04,2241.74 2559.06,2240.39C2558.28,2239.85 2556.58,2239.25 2556.77,2238.38C2556.92,2237.65 2558.13,2237.61 2558.97,2237.76C2562.86,2238.47 2565.53,2241.47 2568.14,2243.74C2569.46,2244.89 2570.77,2246.12 2572.1,2247.09C2573.55,2248.15 2575.22,2249.3 2577.17,2249.37C2576.78,2248.99 2576.3,2248.66 2575.74,2248.41C2578.82,2245.95 2582.7,2244.77 2585.85,2242.29C2588.3,2240.38 2590.14,2237.42 2593.54,2236.87C2594.4,2237.67 2594.78,2238.81 2595.55,2239.69C2595.08,2235.83 2591.45,2232.93 2592.94,2227.92C2594.18,2223.75 2597.89,2221.72 2600.9,2219.17C2604.63,2216.03 2606.12,2210.75 2609.94,2208.91C2612.56,2207.67 2616.2,2207.84 2619.76,2208.29C2619.33,2207.83 2618.34,2207.72 2617.79,2207.33C2619.38,2206.36 2622.54,2205.17 2624.95,2205.37C2629.78,2205.78 2627,2211.07 2631.34,2212.17C2631.6,2212.03 2630.75,2211.47 2631.22,2211.17C2632.18,2211.44 2632.57,2210.84 2633.52,2211.12C2634.13,2215.39 2627.22,2211.97 2625.82,2214.59C2625.36,2213.87 2625.03,2213.07 2624.3,2212.52C2624.94,2214.18 2625.88,2216.33 2625.49,2218.65C2625.26,2220.02 2624.51,2221.36 2624.33,2223.09C2623.93,2227.01 2626.85,2230.44 2626.33,2234.61C2625.84,2238.63 2623.29,2241.26 2620.5,2243.59C2620.5,2243.69 2620.44,2243.68 2620.38,2243.67C2620.37,2243.71 2620.36,2243.74 2620.35,2243.78C2623.42,2242.56 2625.68,2240.11 2627.06,2236.29C2633.39,2236.66 2637.38,2240.04 2640.78,2242.91ZM2619.99,2216.64C2620.64,2215.93 2620.64,2214.77 2619.95,2214C2619.28,2213.26 2618.22,2213.18 2617.5,2213.78C2618.07,2213.86 2618.68,2214.18 2619.18,2214.73C2619.7,2215.32 2619.97,2216.01 2619.99,2216.64ZM2605.66,2240.21C2605.6,2241.4 2606.74,2242.1 2607.85,2242.2C2608.97,2242.29 2610.07,2241.79 2609.94,2240.58C2608.85,2241.38 2606.79,2241.34 2605.66,2240.21ZM2610.85,2213.01C2611.45,2212.66 2612.09,2212.54 2612.63,2212.63C2612.14,2211.92 2611.15,2211.71 2610.34,2212.17C2609.5,2212.66 2609.18,2213.66 2609.58,2214.44C2609.78,2213.9 2610.21,2213.37 2610.85,2213.01ZM2608.62,2237.04C2609.66,2237.11 2610.44,2235.77 2610.6,2234.44C2610.76,2233.1 2610.3,2231.77 2608.86,2231.86C2606.74,2232 2606.2,2236.86 2608.62,2237.04ZM2610.94,2215.66C2610.3,2215.41 2609.42,2216.08 2608.99,2217.16C2608.56,2218.25 2608.74,2219.34 2609.38,2219.59C2610.03,2219.85 2610.89,2219.17 2611.33,2218.09C2611.75,2217 2611.58,2215.92 2610.94,2215.66ZM2611.4,2226.79C2610.71,2226.68 2610.14,2226.32 2609.78,2225.85C2609.7,2226.89 2610.32,2227.83 2611.25,2227.97C2612.21,2228.12 2613.1,2227.37 2613.3,2226.3C2612.81,2226.69 2612.12,2226.89 2611.4,2226.79ZM2618.02,2217.6C2617.38,2217.35 2616.5,2218.02 2616.08,2219.11C2615.64,2220.19 2615.82,2221.28 2616.46,2221.53C2617.11,2221.79 2617.98,2221.12 2618.41,2220.03C2618.84,2218.94 2618.67,2217.86 2618.02,2217.6ZM2320.54,2164.38C2324.57,2168.63 2330.8,2177.36 2328.87,2185.75C2326.46,2196.29 2313.41,2200.22 2300.61,2200.97C2286.88,2201.78 2273,2198.74 2263.29,2195.54C2249.52,2191 2232.05,2182.41 2223.07,2170.54C2220.21,2166.75 2216.8,2161.29 2217.63,2154.23C2219.12,2141.77 2234.89,2137.79 2249.16,2137.57C2276.69,2137.13 2305.26,2148.27 2320.54,2164.38ZM2312.2,2192.64C2319.17,2190.84 2325.14,2186.95 2324.16,2178.51C2322.37,2162.99 2302.08,2154.27 2291.19,2149.52C2295.16,2152.56 2295.72,2160.15 2290.1,2160.75C2280.41,2161.79 2275.66,2149.98 2274.15,2143.72C2273.74,2145.35 2273.79,2147.17 2273.26,2147.65C2270.84,2147.72 2269.77,2147.47 2268.45,2147.29C2267.18,2146.4 2264.77,2142.47 2264.37,2142.27C2265.25,2146.38 2267.78,2149.07 2266.55,2153.14C2263.93,2161.8 2242.65,2150.26 2248.43,2141.55C2237.3,2143.05 2224.79,2144.97 2223.79,2155.68C2222.38,2170.89 2239.51,2178.88 2249.16,2184.31C2247.87,2182.78 2247.68,2182.14 2246.62,2180.68C2244.86,2178.25 2242.37,2173.11 2244.44,2171.62C2249.92,2168.14 2256.07,2173.13 2259.66,2175.97C2267.41,2166.27 2277.72,2183.09 2282.49,2188.65C2283.44,2183.67 2284.69,2177.66 2289.37,2176.7C2293.11,2175.94 2297.74,2181.4 2298.8,2181.41C2299.04,2181.41 2300.23,2179.83 2300.61,2179.6C2308.3,2174.87 2317.26,2185.48 2312.2,2192.64ZM1650.83,2114.15C1652.16,2113.85 1663.97,2111.52 1678.29,2108.77C1687.68,2088.56 1694.08,2077.24 1697.33,2076.79C1698.53,2076.63 1699.09,2078.19 1699.64,2081.17C1699.82,2082.13 1701.45,2090.77 1703.75,2103.01C1717.5,2100.47 1729.55,2099.33 1733.04,2099.04C1742.37,2098.3 1736.02,2103.34 1734.35,2105.76C1733.71,2106.68 1722.42,2116.98 1708.59,2129.3C1710.76,2140.86 1712.68,2151.01 1713.47,2154.98C1714.45,2159.87 1714.64,2162.99 1713.62,2163.89C1713.08,2164.36 1709.95,2163.61 1708.06,2162.24C1706.71,2161.27 1697.62,2156.04 1687.37,2148.64C1670.91,2163 1659.59,2175.11 1655.66,2173.99C1653.69,2173.43 1659.88,2155.64 1668.34,2133.56C1659.61,2127.3 1652.3,2122.1 1650.08,2120.67C1643.75,2116.57 1647.47,2114.89 1650.83,2114.15ZM641.717,2128.47C640.984,2139.44 635.409,2148 629.255,2147.59C623.105,2147.18 618.713,2137.95 619.442,2126.98C620.172,2116.02 625.747,2107.45 631.901,2107.86C638.051,2108.27 642.447,2117.5 641.717,2128.47ZM1727.41,1831.45C1731.72,1845.21 1736.79,1858.19 1741.31,1871.73L1732.05,1871.73C1730.86,1869.21 1730.36,1866.01 1729.28,1863.4L1715.38,1863.4C1713.89,1865.76 1713.07,1868.8 1712.14,1871.73L1702.89,1871.73C1708,1858.49 1712.13,1844.26 1717.7,1831.45L1727.41,1831.45ZM1717.23,1856.45L1726.95,1856.45C1725.16,1851.46 1724.07,1845.76 1721.86,1841.18C1720.61,1846.56 1718.73,1851.32 1717.23,1856.45Z" style="fill:white;"/>
                    </g>
                </g>
            </g>
        </g>
    </g>
</svg>
