<?xml version="1.0" encoding="utf-8"?>
<!-- Generator: Adobe Illustrator 15.0.0, SVG Export Plug-In . SVG Version: 6.00 Build 0)  -->
<!DOCTYPE svg PUBLIC "-//W3C//DTD SVG 1.1//EN" "http://www.w3.org/Graphics/SVG/1.1/DTD/svg11.dtd">
<svg version="1.1" id="Layer_2" xmlns="http://www.w3.org/2000/svg" xmlns:xlink="http://www.w3.org/1999/xlink" x="0px" y="0px"
	 width="18px" height="15px" viewBox="0 0 18 15" enable-background="new 0 0 18 15" xml:space="preserve">
<path d="M17.443,12.359L11.375,7.5l6.068-4.859c0.641-0.513,0.743-1.447,0.229-2.086c-0.514-0.639-1.448-0.741-2.09-0.228L9,5.598
	L2.418,0.327c-0.642-0.513-1.576-0.411-2.09,0.228c-0.515,0.639-0.412,1.573,0.229,2.086L6.625,7.5l-6.068,4.859
	c-0.641,0.513-0.743,1.445-0.229,2.085c0.514,0.64,1.45,0.742,2.09,0.229L9,9.402l6.582,5.271c0.641,0.514,1.576,0.411,2.091-0.229
	C18.187,13.805,18.084,12.872,17.443,12.359z"/>
</svg>
