<?xml version="1.0" encoding="UTF-8" standalone="no"?>
<!DOCTYPE svg PUBLIC "-//W3C//DTD SVG 1.1//EN" "http://www.w3.org/Graphics/SVG/1.1/DTD/svg11.dtd">
<svg width="100%" height="100%" viewBox="0 0 500 500" version="1.1" xmlns="http://www.w3.org/2000/svg" xmlns:xlink="http://www.w3.org/1999/xlink" xml:space="preserve" xmlns:serif="http://www.serif.com/" style="fill-rule:evenodd;clip-rule:evenodd;stroke-linejoin:round;stroke-miterlimit:2;">
    <g id="Artboard" transform="matrix(0.909035,0,0,1,30.3322,41.6667)">
        <rect x="-33.367" y="-41.667" width="550.034" height="500" style="fill:none;"/>
        <g id="social_facebook" transform="matrix(5.40867,0,0,4.91667,283.258,-37.5)">
            <path d="M0,100L-20.69,100L-20.69,50.005L-31.028,50.005L-31.028,32.762L-20.69,32.762L-20.69,22.419C-20.69,8.37 -14.839,0 1.74,0L15.541,0L15.541,17.233L6.922,17.233C0.469,17.233 0.033,19.638 0.033,24.135L0,32.762L15.642,32.762L13.813,50.005L0,50.005L0,100Z"/>
        </g>
    </g>
</svg>