<?xml version="1.0" encoding="UTF-8" standalone="no"?>
<!DOCTYPE svg PUBLIC "-//W3C//DTD SVG 1.1//EN" "http://www.w3.org/Graphics/SVG/1.1/DTD/svg11.dtd">
<svg width="100%" height="100%" viewBox="0 0 500 500" version="1.1" xmlns="http://www.w3.org/2000/svg" xmlns:xlink="http://www.w3.org/1999/xlink" xml:space="preserve" xmlns:serif="http://www.serif.com/" style="fill-rule:evenodd;clip-rule:evenodd;stroke-linejoin:round;stroke-miterlimit:2;">
    <g id="Artboard" transform="matrix(0.909035,0,0,1,30.3322,41.6667)">
        <rect x="-33.367" y="-41.667" width="550.034" height="500" style="fill:none;"/>
        <g id="social_instagram" transform="matrix(1.18,0,0,1.18,-33.5007,-37.8928)">
            <g transform="matrix(4.58362,0,0,4.16667,420.149,117.504)">
                <path d="M0,43.758C0,54.34 -8.577,62.917 -19.16,62.917L-62.422,62.917C-73.004,62.917 -81.582,54.34 -81.582,43.758L-81.582,0.496C-81.582,-10.084 -73.004,-18.664 -62.422,-18.664L-19.16,-18.664C-8.577,-18.664 0,-10.084 0,0.496L0,43.758ZM-19.652,-28.121L-61.924,-28.121C-77.871,-28.121 -90.791,-15.201 -90.791,0.743L-90.791,43.016C-90.791,58.959 -77.871,71.879 -61.924,71.879L-19.652,71.879C-3.711,71.879 9.209,58.959 9.209,43.016L9.209,0.743C9.209,-15.201 -3.711,-28.121 -19.652,-28.121"/>
            </g>
            <g transform="matrix(4.58362,0,0,4.16667,233.178,139.605)">
                <path d="M0,33.645C-9.287,33.645 -16.816,26.112 -16.816,16.822C-16.816,7.535 -9.287,0.002 0,0.002C9.287,0.002 16.822,7.535 16.822,16.822C16.822,26.112 9.287,33.645 0,33.645M0,-9.125C-14.326,-9.125 -25.947,2.493 -25.947,16.822C-25.947,31.155 -14.326,42.77 0,42.77C14.33,42.77 25.947,31.155 25.947,16.822C25.947,2.493 14.33,-9.125 0,-9.125"/>
            </g>
            <g transform="matrix(-4.58362,0,0,4.16667,356.09,122.662)">
                <path d="M0.005,-12.09C3.339,-12.09 6.048,-9.382 6.048,-6.045C6.048,-2.705 3.339,0 0.005,0C-3.335,0 -6.043,-2.705 -6.043,-6.045C-6.043,-9.382 -3.335,-12.09 0.005,-12.09"/>
            </g>
        </g>
    </g>
</svg>