<?xml version="1.0" encoding="UTF-8" standalone="no"?>
<!DOCTYPE svg PUBLIC "-//W3C//DTD SVG 1.1//EN" "http://www.w3.org/Graphics/SVG/1.1/DTD/svg11.dtd">
<svg width="100%" height="100%" viewBox="0 0 500 168" version="1.1" xmlns="http://www.w3.org/2000/svg" xmlns:xlink="http://www.w3.org/1999/xlink" xml:space="preserve" xmlns:serif="http://www.serif.com/" style="fill-rule:evenodd;clip-rule:evenodd;stroke-linejoin:round;stroke-miterlimit:2;">
    <g>
        <path d="M113.097,166.882L113.04,166.882C97.566,166.852 85.003,154.237 85.032,138.765C85.032,123.307 97.622,110.719 113.096,110.719C128.57,110.719 141.159,123.307 141.159,138.782C141.128,154.319 128.538,166.882 113.097,166.882ZM128.983,138.785C128.983,130.011 121.87,122.897 113.096,122.897C104.322,122.897 97.208,130.01 97.208,138.785C97.191,147.558 104.289,154.684 113.063,154.703C121.836,154.721 128.963,147.621 128.982,138.848C128.983,138.825 128.983,138.805 128.983,138.785Z" style="fill:rgb(0,34,84);fill-rule:nonzero;"/>
        <path id="path719" d="M37.89,26.47L55.508,26.47C59.422,26.47 62.571,29.619 62.571,33.532L62.571,122.473C62.571,126.386 59.423,129.536 55.508,129.536L37.89,129.536C33.978,129.536 30.827,126.387 30.827,122.473L30.827,33.532C30.827,29.619 33.978,26.47 37.89,26.47ZM401.524,26.175L460.936,26.175C472.899,26.175 481.342,33.558 481.342,41.074L481.342,62.222C481.342,66.134 478.193,69.284 474.28,69.284L401.523,69.284C397.61,69.284 394.46,66.135 394.46,62.222L394.46,33.238C394.461,29.325 397.611,26.175 401.524,26.175ZM298.496,26.175L371.214,26.175C375.128,26.175 378.277,29.325 378.277,33.238L378.277,62.223C378.277,66.135 375.128,69.285 371.214,69.285L298.496,69.285C294.583,69.285 291.434,66.136 291.434,62.223L291.434,33.238C291.435,29.325 294.583,26.175 298.496,26.175ZM194.842,26.175L267.6,26.175C271.51,26.175 274.663,29.325 274.663,33.238L274.663,62.223C274.663,66.135 271.511,69.285 267.6,69.285L194.842,69.285C190.93,69.285 187.779,66.136 187.779,62.223L187.779,33.238C187.779,29.325 190.93,26.175 194.842,26.175ZM90.894,26.175L163.65,26.175C167.563,26.175 170.713,29.325 170.713,33.238L170.713,62.223C170.713,66.135 167.563,69.285 163.65,69.285L90.894,69.285C86.981,69.285 83.831,66.136 83.831,62.223L83.831,33.238C83.831,29.325 86.98,26.175 90.894,26.175ZM472.993,1.126L377.211,1.273L316.188,1.42L255.129,1.53L194.068,1.677L133.046,1.787L17.77,1.348C13.849,1.636 10.701,4.164 10.523,7.821L7.583,74.066L1,79.142L1,111.548L1.11,136.412C0.989,143.012 5.969,146.534 10.931,146.673L83.49,146.673C82.41,143.66 81.687,142.187 81.687,138.806C81.387,121.672 95.232,107.791 112.962,107.791C131.292,107.791 143.376,123.17 143.227,138.806C143.227,142.185 142.539,143.665 141.461,146.673L248.874,146.673L333.351,146.887C332.272,143.874 331.549,142.4 331.549,139.018C331.336,121.75 345.231,107.859 363.344,108.07C381.667,108.07 393.405,123.02 393.405,138.806C393.511,143.295 393.093,144.939 393.093,147.175L498.409,126.247L498.998,23.894C499.165,12.271 484.658,0.77 472.993,1.126Z" style="fill:rgb(0,34,84);fill-rule:nonzero;"/>
        <path d="M363.027,166.882L362.97,166.882C347.497,166.852 334.932,154.237 334.964,138.765C334.964,123.307 347.552,110.719 363.027,110.719C378.501,110.719 391.089,123.307 391.089,138.782C391.058,154.319 378.468,166.882 363.027,166.882ZM378.912,138.785C378.912,130.011 371.801,122.897 363.027,122.897C354.253,122.897 347.138,130.01 347.138,138.785C347.122,147.558 354.219,154.684 362.994,154.703C371.767,154.721 378.894,147.621 378.911,138.848C378.912,138.825 378.912,138.805 378.912,138.785Z" style="fill:rgb(0,34,84);fill-rule:nonzero;"/>
    </g>
</svg>
