
<?xml version="1.0" encoding="UTF-8" standalone="no"?>
<!DOCTYPE svg PUBLIC "-//W3C//DTD SVG 1.1//EN" "http://www.w3.org/Graphics/SVG/1.1/DTD/svg11.dtd">
<svg width="100%" height="100%" viewBox="0 0 401 241" version="1.1" xmlns="http://www.w3.org/2000/svg" xmlns:xlink="http://www.w3.org/1999/xlink" xml:space="preserve" xmlns:serif="http://www.serif.com/" style="fill-rule:evenodd;clip-rule:evenodd;stroke-linejoin:round;stroke-miterlimit:2;">
    <g transform="matrix(0.134886,0,0,0.134886,-36.5808,-47.1562)">
        <path d="M689.168,1923.73C688.093,1928.27 687.468,1932.98 687.468,1937.84C687.468,1954.5 694.143,1969.58 704.939,1980.61C683.714,1983.3 647.035,1986.99 605.435,1986.99C533.96,1986.99 448.214,1976.08 402.493,1930.35C395.71,1923.57 389.148,1917.12 382.823,1910.9C318.018,1847.23 271.198,1801.21 271.198,1674.88C271.198,1639.9 272.193,1602.39 273.248,1562.68C274.335,1521.44 275.468,1478.8 275.468,1437.56C275.468,1382.41 290.289,1362.28 314.693,1335.68C336.635,1311.78 369.789,1275.65 406.793,1150.78C432.131,1065.3 658.406,824.583 761.989,736.7C878.935,637.467 1313.7,544.588 1461.48,544.588L1749.17,544.588L1749.17,602.921L1461.48,602.921C1323.21,602.921 902.152,694.271 799.727,781.179C682.335,880.783 481.123,1105.27 462.723,1167.36C421.885,1305.15 383.243,1347.26 357.673,1375.12C339.814,1394.59 333.802,1401.14 333.802,1437.56C333.802,1479.57 332.656,1522.61 331.556,1564.23C330.518,1603.54 329.531,1640.67 329.531,1674.88C329.531,1776.75 362.985,1809.62 423.706,1869.3C430.152,1875.63 436.835,1882.2 443.743,1889.1C489.981,1935.34 620.131,1931.45 689.168,1923.73ZM3234.63,1562.68C3235.68,1602.39 3236.67,1639.89 3236.67,1674.88C3236.67,1801.21 3189.85,1847.22 3125.05,1910.9C3118.72,1917.12 3112.16,1923.57 3105.38,1930.35C3059.66,1976.07 2973.91,1986.99 2902.43,1986.99C2860.83,1986.99 2824.16,1983.3 2802.93,1980.61C2813.73,1969.58 2820.41,1954.5 2820.41,1937.84C2820.41,1932.97 2819.78,1928.27 2818.71,1923.73C2887.74,1931.46 3017.89,1935.34 3064.13,1889.11C3071.03,1882.2 3077.72,1875.63 3084.16,1869.3C3144.89,1809.62 3178.34,1776.75 3178.34,1674.88C3178.34,1640.67 3177.36,1603.54 3176.32,1564.23C3175.21,1522.61 3174.07,1479.57 3174.07,1437.56C3174.07,1401.14 3168.06,1394.59 3150.2,1375.12C3124.63,1347.26 3085.99,1305.15 3045.15,1167.36C3026.74,1105.27 2825.53,880.778 2708.15,781.178C2605.72,694.274 2184.66,602.92 2046.39,602.92L1758.69,602.92L1758.69,544.586L2046.39,544.586C2194.18,544.586 2628.94,637.47 2745.89,736.699C2849.46,824.578 3075.74,1065.29 3101.08,1150.78C3138.09,1275.64 3171.24,1311.78 3193.18,1335.69C3217.59,1362.28 3232.41,1382.41 3232.41,1437.56C3232.41,1478.8 3233.53,1521.44 3234.63,1562.68Z" style="fill:white;"/>
    </g>
    <g transform="matrix(0.134886,0,0,0.134886,-36.5808,-47.1562)">
        <path d="M394.032,1839.57C393.94,1827.09 394.307,1819.26 394.307,1819.26C394.307,1819.26 416.628,1814.41 385.573,1778.51C354.523,1742.61 331.236,1692.15 331.236,1651.4L331.236,1460.24C331.236,1399.11 380.723,1369.03 380.723,1369.03C380.723,1369.03 392.366,1339.92 403.04,1312.75C413.712,1285.58 413.711,1253.56 413.711,1253.56C413.711,1253.56 389.043,1233.12 381.756,1225.28C378.064,1221.74 375.586,1219.09 375.586,1218.35C375.586,1215.44 380.44,1200.88 385.29,1197C390.14,1193.12 432.152,1203.11 432.152,1203.11C432.152,1203.11 441.854,1188.56 457.382,1163.33C472.908,1138.1 518.511,1088.61 518.511,1088.61L515.602,1081.82C512.69,1075.03 513.661,1059.5 521.423,1044.95C529.186,1030.39 565.086,1011.96 565.086,1011.96L567.998,1002.25C567.998,1002.25 564.115,994.488 557.323,984.784C550.532,975.08 537.919,937.242 540.827,929.475C543.736,921.713 644.082,822.571 660.578,813.838C677.073,805.105 736.832,830.505 736.832,830.505C736.832,830.505 744.611,821.98 757.453,809.171C757.911,789.28 758.797,767.7 760.286,744.438C769.243,604.521 778.222,362.354 785.398,355.18C792.576,348.004 993.482,349.8 1059.85,349.8L1059.87,349.8C1126.26,349.8 1325.34,348.01 1334.31,356.975L1410.58,607.413C1432.61,604.7 1451.47,602.846 1460.54,603.634C1483.57,605.634 1499.59,606.634 1499.59,606.634L1510.6,610.638C1510.6,610.638 1509.6,606.634 1525.62,595.621C1541.64,584.609 1547.99,581.605 1547.99,581.605C1547.99,581.605 1556,558.58 1561.01,558.58C1566.02,558.58 1591.53,548.242 1591.53,548.242L1594.7,526.217L1621.89,521.371C1621.89,521.371 1621.88,521.063 1621.9,520.521C1621.99,516.717 1622.86,501.513 1630.74,501.513L1664.65,501.513L1664.65,463.038C1664.65,458.438 1668.38,454.705 1672.99,454.705L1834.89,454.705C1839.49,454.705 1843.22,458.438 1843.22,463.038L1843.22,501.513L1877.14,501.513C1885.02,501.513 1885.87,516.717 1885.97,520.521C1885.99,521.063 1885.99,521.371 1885.99,521.371L1913.18,526.217L1916.34,548.242C1916.34,548.242 1941.86,558.58 1946.87,558.58C1951.87,558.58 1959.88,581.605 1959.88,581.605C1959.88,581.605 1966.25,584.608 1982.26,595.621C1998.27,606.633 1997.28,610.638 1997.28,610.638L2008.29,606.634C2008.29,606.634 2024.31,605.635 2047.34,603.634C2056.4,602.847 2075.27,604.7 2097.29,607.413L2173.57,356.975C2182.54,348.009 2381.66,349.8 2448.02,349.8C2514.39,349.8 2715.3,348.005 2722.48,355.18C2729.66,362.355 2738.62,604.521 2747.59,744.438C2749.08,767.7 2749.97,789.28 2750.42,809.171C2763.26,821.98 2771.04,830.505 2771.04,830.505C2771.04,830.505 2830.8,805.105 2847.3,813.838C2863.79,822.571 2964.14,921.713 2967.04,929.475C2969.95,937.242 2957.34,975.08 2950.55,984.784C2943.76,994.488 2939.88,1002.25 2939.88,1002.25L2942.79,1011.96C2942.79,1011.96 2978.68,1030.39 2986.45,1044.95C2994.21,1059.5 2995.18,1075.03 2992.27,1081.82L2989.37,1088.61C2989.37,1088.61 3034.97,1138.1 3050.49,1163.33C3066.02,1188.55 3075.72,1203.11 3075.72,1203.11C3075.72,1203.11 3117.73,1193.12 3122.58,1197C3127.43,1200.88 3132.29,1215.44 3132.29,1218.35C3132.29,1219.09 3129.81,1221.74 3126.12,1225.28C3118.83,1233.12 3094.16,1253.56 3094.16,1253.56C3094.16,1253.56 3094.16,1285.58 3104.84,1312.75C3115.51,1339.92 3127.15,1369.03 3127.15,1369.03C3127.15,1369.03 3176.64,1399.11 3176.64,1460.24L3176.64,1651.4C3176.64,1692.15 3153.35,1742.61 3122.3,1778.51C3116.2,1785.56 3112.16,1791.41 3109.61,1796.27C3104.85,1805.3 3105.24,1810.87 3107.08,1814.26C3109.28,1818.33 3113.57,1819.26 3113.57,1819.26C3113.57,1819.26 3113.93,1827.09 3113.84,1839.57C3104.83,1848.99 3094.92,1858.73 3084.16,1869.3C3077.72,1875.63 3071.03,1882.2 3064.13,1889.11C3017.89,1935.34 2887.74,1931.46 2818.71,1923.73C2819.78,1928.27 2820.41,1932.97 2820.41,1937.84C2820.41,1954.5 2813.73,1969.58 2802.93,1980.61C2824.16,1983.3 2860.83,1986.99 2902.43,1986.99C2973.56,1986.99 3058.83,1976.17 3104.71,1931.02C3104.43,1932.26 3104.15,1933.49 3103.86,1934.73C3091.25,1988.09 3075.72,2130.73 3016.53,2130.73L2771.04,2130.73C2722.53,2130.73 2698.26,2034.67 2698.26,2034.67L2574.07,2034.67C2560.48,2034.67 2560.48,1999.73 2535.25,1992.94C2510.03,1986.15 2496.44,2008.47 2457.62,1999.74C2418.82,1991.01 2379.03,1965.78 2355.74,1965.78L2306.26,1965.78C2300.43,1965.78 2285.88,2033.7 2249.01,2033.7L2055.91,2033.7C2018.07,2033.7 2017.1,2010.42 1973.43,2010.42L1534.45,2010.42C1490.78,2010.42 1489.81,2033.7 1451.97,2033.7L1258.87,2033.7C1222,2033.7 1207.44,1965.78 1201.62,1965.78L1152.13,1965.78C1128.84,1965.78 1089.06,1991.01 1050.25,1999.74C1011.44,2008.47 997.853,1986.15 972.623,1992.94C947.394,1999.73 947.39,2034.67 933.811,2034.67L809.607,2034.67C809.607,2034.67 785.353,2130.73 736.832,2130.73L491.34,2130.73C432.148,2130.73 416.628,1988.09 404.011,1934.73C403.719,1933.49 403.436,1932.25 403.161,1931.01C449.045,1976.18 534.307,1986.99 605.435,1986.99C647.035,1986.99 683.714,1983.3 704.939,1980.61C694.143,1969.58 687.468,1954.5 687.468,1937.84C687.468,1932.98 688.093,1928.27 689.168,1923.73C620.131,1931.45 489.981,1935.34 443.743,1889.1C436.835,1882.2 430.152,1875.63 423.706,1869.3C412.947,1858.73 403.044,1848.99 394.032,1839.57Z"/>
    </g>
</svg>
