<?xml version="1.0" encoding="UTF-8" standalone="no"?><!DOCTYPE svg PUBLIC "-//W3C//DTD SVG 1.1//EN" "http://www.w3.org/Graphics/SVG/1.1/DTD/svg11.dtd"><svg width="100%" height="100%" viewBox="0 0 300 210" version="1.1" xmlns="http://www.w3.org/2000/svg" xmlns:xlink="http://www.w3.org/1999/xlink" xml:space="preserve" xmlns:serif="http://www.serif.com/" style="fill-rule:evenodd;clip-rule:evenodd;stroke-linejoin:round;stroke-miterlimit:2;"><rect x="0" y="0" width="300" height="210"/><g><path d="M0,123.331l0,-35.64l9.357,0c2.898,0 4.994,0.137 6.29,0.409c1.295,0.273 2.42,0.682 3.375,1.228c0.034,-0 0.068,0.008 0.102,0.025c0.034,0.017 0.068,0.043 0.102,0.077c1.671,0.92 2.94,2.173 3.81,3.758c0.869,1.585 1.304,3.401 1.304,5.446c-0,2.352 -0.537,4.449 -1.611,6.289c-1.074,1.841 -2.582,3.222 -4.525,4.142c-0.035,0 -0.069,0.009 -0.103,0.026c-0.034,0.017 -0.068,0.042 -0.102,0.076c-0.784,0.341 -1.662,0.605 -2.633,0.793c-0.972,0.187 -2.395,0.281 -4.27,0.281l-3.937,0l-0,13.09l-7.159,0Zm11.71,-29.862l-4.551,0l-0,10.943l3.732,-0c1.398,-0 2.404,-0.111 3.017,-0.332c0.614,-0.222 1.142,-0.657 1.585,-1.304c0.034,-0.034 0.06,-0.069 0.077,-0.103c0.017,-0.034 0.043,-0.068 0.077,-0.102c0.307,-0.477 0.528,-1.014 0.665,-1.611c0.136,-0.596 0.204,-1.32 0.204,-2.173c0,-1.67 -0.426,-2.974 -1.278,-3.911c-0.852,-0.938 -2.029,-1.407 -3.528,-1.407Z" style="fill:#fff;fill-rule:nonzero;"/><path d="M29.913,105.179l-2.915,-4.909c0.375,-0.238 0.716,-0.452 1.023,-0.639c0.307,-0.188 0.614,-0.349 0.921,-0.486c0.102,-0.068 0.221,-0.136 0.357,-0.204c0.137,-0.068 0.273,-0.137 0.41,-0.205c0.204,-0.068 0.434,-0.162 0.69,-0.281c0.256,-0.119 0.537,-0.23 0.844,-0.332c0.818,-0.341 1.602,-0.623 2.352,-0.844c0.75,-0.222 1.5,-0.384 2.25,-0.486c0.409,-0.068 0.826,-0.119 1.252,-0.153c0.426,-0.034 0.861,-0.051 1.304,-0.051c2.216,-0 4.048,0.392 5.497,1.176c1.449,0.784 2.429,1.909 2.94,3.374c0.034,0.069 0.06,0.128 0.077,0.179c0.017,0.051 0.025,0.111 0.025,0.179c0.137,0.478 0.231,1.006 0.282,1.586c0.051,0.579 0.076,1.499 0.076,2.761l-0.153,8.795l0,0.46c0,1.125 0.102,2.02 0.307,2.684c0.204,0.665 0.596,1.287 1.176,1.867c0.136,0.136 0.281,0.272 0.435,0.409c0.153,0.136 0.332,0.273 0.536,0.409l-3.63,4.193c-0.784,-0.375 -1.508,-0.835 -2.173,-1.381c-0.665,-0.545 -1.168,-1.142 -1.509,-1.789c-0.341,0.306 -0.588,0.536 -0.741,0.69c-0.153,0.153 -0.298,0.281 -0.435,0.383l-0.102,0.103c-0.034,0.034 -0.077,0.068 -0.128,0.102c-0.051,0.034 -0.111,0.068 -0.179,0.102c-0.647,0.443 -1.414,0.784 -2.301,1.023c-0.886,0.238 -1.875,0.358 -2.965,0.358c-2.898,-0 -5.122,-0.708 -6.673,-2.122c-1.552,-1.415 -2.327,-3.418 -2.327,-6.008c-0,-3.069 1.057,-5.335 3.17,-6.801c2.114,-1.466 5.25,-2.199 9.409,-2.199l0.92,0c0.171,0 0.375,0.017 0.614,0.051l-0,-1.074c-0,-1.465 -0.196,-2.48 -0.588,-3.042c-0.392,-0.563 -1.219,-0.844 -2.48,-0.844c-1.091,0 -2.276,0.256 -3.554,0.767c-1.278,0.512 -2.616,1.244 -4.014,2.199Zm10.431,12.323l0.103,-5.625l-0.307,0c-2.386,0 -4.048,0.273 -4.986,0.819c-0.937,0.545 -1.406,1.602 -1.406,3.17c0,1.023 0.29,1.849 0.869,2.48c0.58,0.63 1.296,0.946 2.148,0.946c0.648,-0 1.278,-0.162 1.892,-0.486c0.613,-0.324 1.176,-0.758 1.687,-1.304Z" style="fill:#fff;fill-rule:nonzero;"/><path d="M53.843,105.844c0,-1.773 -0.093,-3.307 -0.281,-4.602c-0.187,-1.296 -0.417,-2.318 -0.69,-3.068l6.136,-1.637c0.307,0.546 0.554,1.117 0.741,1.713c0.188,0.597 0.299,1.27 0.333,2.02c0.034,-0.034 0.068,-0.077 0.102,-0.128c0.034,-0.051 0.068,-0.093 0.102,-0.128c0.307,-0.374 0.657,-0.758 1.049,-1.15c0.392,-0.392 0.792,-0.741 1.201,-1.048c0.239,-0.171 0.477,-0.333 0.716,-0.486c0.239,-0.153 0.477,-0.281 0.716,-0.383c0.204,-0.103 0.443,-0.179 0.716,-0.231c0.273,-0.051 0.545,-0.093 0.818,-0.127c0.136,-0.035 0.264,-0.052 0.383,-0.052l0.333,0c0.238,0 0.452,0.009 0.639,0.026c0.187,0.017 0.384,0.043 0.588,0.077c0.17,0.034 0.366,0.085 0.588,0.153c0.222,0.068 0.469,0.171 0.741,0.307l-1.891,6.034c-0.103,-0.069 -0.205,-0.128 -0.307,-0.179c-0.103,-0.051 -0.222,-0.094 -0.358,-0.128c-0.205,-0.068 -0.409,-0.12 -0.614,-0.154c-0.204,-0.034 -0.443,-0.051 -0.716,-0.051c-0.75,0 -1.474,0.179 -2.173,0.537c-0.699,0.358 -1.372,0.912 -2.02,1.662l0,18.51l-6.852,0l0,-17.487Z" style="fill:#fff;fill-rule:nonzero;"/><path d="M70.666,123.331l0,-30.705c0,-0.392 -0.017,-0.776 -0.051,-1.151c0,-0.682 -0.034,-1.372 -0.102,-2.071c-0.068,-0.699 -0.17,-1.491 -0.307,-2.377l6.903,-1.688c0.171,0.955 0.281,2.173 0.333,3.656c0.051,1.483 0.076,3.094 0.076,4.832l0,29.504l-6.852,0Zm7.006,-14.828l6.698,-11.454l8.233,-0l-8.335,11.045l10.278,15.237l-8.079,0l-8.795,-14.828Z" style="fill:#fff;fill-rule:nonzero;"/><path d="M112.647,105.179l-2.914,-4.909c0.375,-0.238 0.716,-0.452 1.022,-0.639c0.307,-0.188 0.614,-0.349 0.921,-0.486c0.102,-0.068 0.221,-0.136 0.358,-0.204c0.136,-0.068 0.272,-0.137 0.409,-0.205c0.204,-0.068 0.434,-0.162 0.69,-0.281c0.256,-0.119 0.537,-0.23 0.844,-0.332c0.818,-0.341 1.602,-0.623 2.352,-0.844c0.75,-0.222 1.5,-0.384 2.25,-0.486c0.409,-0.068 0.826,-0.119 1.253,-0.153c0.426,-0.034 0.86,-0.051 1.303,-0.051c2.216,-0 4.049,0.392 5.497,1.176c1.449,0.784 2.429,1.909 2.941,3.374c0.034,0.069 0.059,0.128 0.076,0.179c0.017,0.051 0.026,0.111 0.026,0.179c0.136,0.478 0.23,1.006 0.281,1.586c0.051,0.579 0.077,1.499 0.077,2.761l-0.154,8.795l0,0.46c0,1.125 0.103,2.02 0.307,2.684c0.205,0.665 0.597,1.287 1.176,1.867c0.137,0.136 0.281,0.272 0.435,0.409c0.153,0.136 0.332,0.273 0.537,0.409l-3.631,4.193c-0.784,-0.375 -1.508,-0.835 -2.173,-1.381c-0.665,-0.545 -1.167,-1.142 -1.508,-1.789c-0.341,0.306 -0.588,0.536 -0.742,0.69c-0.153,0.153 -0.298,0.281 -0.434,0.383l-0.103,0.103c-0.034,0.034 -0.076,0.068 -0.128,0.102c-0.051,0.034 -0.11,0.068 -0.179,0.102c-0.647,0.443 -1.414,0.784 -2.301,1.023c-0.886,0.238 -1.874,0.358 -2.965,0.358c-2.898,-0 -5.122,-0.708 -6.673,-2.122c-1.551,-1.415 -2.327,-3.418 -2.327,-6.008c0,-3.069 1.057,-5.335 3.171,-6.801c2.113,-1.466 5.249,-2.199 9.408,-2.199l0.92,0c0.171,0 0.375,0.017 0.614,0.051l0,-1.074c0,-1.465 -0.196,-2.48 -0.588,-3.042c-0.392,-0.563 -1.219,-0.844 -2.48,-0.844c-1.091,0 -2.275,0.256 -3.554,0.767c-1.278,0.512 -2.616,1.244 -4.014,2.199Zm10.432,12.323l0.102,-5.625l-0.307,0c-2.386,0 -4.048,0.273 -4.985,0.819c-0.938,0.545 -1.407,1.602 -1.407,3.17c0,1.023 0.29,1.849 0.87,2.48c0.579,0.63 1.295,0.946 2.147,0.946c0.648,-0 1.279,-0.162 1.892,-0.486c0.614,-0.324 1.176,-0.758 1.688,-1.304Z" style="fill:#fff;fill-rule:nonzero;"/><path d="M136.424,104.322c-0,-1.127 -0.077,-2.22 -0.23,-3.279c-0.153,-1.059 -0.384,-2.016 -0.69,-2.869l6.085,-1.739c0.17,0.273 0.315,0.546 0.434,0.818c0.119,0.273 0.213,0.546 0.281,0.818c0.069,0.273 0.128,0.546 0.179,0.819c0.052,0.272 0.077,0.545 0.077,0.818c0.477,-0.341 0.861,-0.614 1.151,-0.818c0.289,-0.205 0.553,-0.375 0.792,-0.512c0.034,-0.034 0.068,-0.059 0.102,-0.076c0.034,-0.018 0.069,-0.026 0.103,-0.026c0.136,-0.102 0.272,-0.188 0.409,-0.256c0.136,-0.068 0.289,-0.153 0.46,-0.255c0.409,-0.205 0.861,-0.392 1.355,-0.563c0.494,-0.17 0.997,-0.307 1.508,-0.409c0.307,-0.034 0.614,-0.068 0.921,-0.102c0.307,-0.034 0.613,-0.051 0.92,-0.051c1.466,-0 2.778,0.35 3.938,1.05c1.158,0.7 1.943,1.614 2.352,2.741c0.17,0.478 0.298,1.016 0.383,1.614c0.085,0.597 0.128,1.306 0.128,2.126l-0,19.16l-6.75,0l0,-17.027c0,-1.5 -0.162,-2.514 -0.485,-3.043c-0.324,-0.528 -0.929,-0.792 -1.816,-0.792c-0.443,-0 -0.937,0.094 -1.483,0.281c-0.545,0.188 -1.09,0.469 -1.636,0.844c-0.273,0.17 -0.545,0.358 -0.818,0.562c-0.273,0.205 -0.545,0.426 -0.818,0.665l-0,18.51l-6.852,0l-0,-19.009Z" style="fill:#fff;fill-rule:nonzero;"/><path d="M178.098,85.493l6.801,1.073l-0,27.203c-0,2.932 0.085,5.063 0.255,6.392c0.171,1.33 0.375,2.284 0.614,2.864c-0,0.068 0.008,0.127 0.025,0.179c0.017,0.051 0.043,0.093 0.077,0.127l-6.136,0c-0.102,-0.204 -0.179,-0.426 -0.23,-0.664c-0.051,-0.239 -0.111,-0.529 -0.179,-0.87c-0.852,0.75 -1.773,1.296 -2.761,1.637c-0.989,0.34 -2.08,0.511 -3.273,0.511c-3.306,-0 -5.94,-1.193 -7.9,-3.579c-1.96,-2.387 -2.94,-5.608 -2.94,-9.665c-0,-4.09 1.04,-7.414 3.119,-9.971c2.08,-2.556 4.773,-3.835 8.079,-3.835c0.955,0 1.807,0.12 2.557,0.358c0.75,0.239 1.449,0.614 2.096,1.125c-0.034,-0.238 -0.068,-0.647 -0.102,-1.227c-0.034,-0.579 -0.068,-1.193 -0.102,-1.841l-0,-9.817Zm0.102,31.038l0,-12.477c-0.648,-0.579 -1.278,-1.006 -1.892,-1.278c-0.613,-0.273 -1.227,-0.409 -1.841,-0.409c-1.534,-0 -2.65,0.664 -3.349,1.994c-0.699,1.329 -1.048,3.46 -1.048,6.391c-0,2.796 0.349,4.739 1.048,5.83c0.699,1.091 1.935,1.636 3.707,1.636c0.102,0 0.205,-0.009 0.307,-0.026c0.102,-0.017 0.222,-0.025 0.358,-0.025c0.511,-0.102 0.997,-0.298 1.457,-0.588c0.46,-0.29 0.844,-0.588 1.151,-0.895c-0,-0.034 0.008,-0.06 0.025,-0.077c0.017,-0.017 0.043,-0.042 0.077,-0.076Z" style="fill:#fff;fill-rule:nonzero;"/><path d="M208.829,123.331l-0,-35.589l13.243,0.052c3.136,-0 5.659,0.954 7.568,2.863c1.909,1.909 2.863,4.432 2.863,7.568c0,2.659 -0.767,4.943 -2.301,6.852c-1.534,1.909 -3.408,2.897 -5.624,2.965c0.17,0.137 0.315,0.256 0.434,0.358c0.12,0.103 0.23,0.205 0.333,0.307l0.358,0.358c0.068,0.068 0.127,0.145 0.179,0.23c0.051,0.085 0.11,0.162 0.179,0.23c0.409,0.512 0.98,1.33 1.713,2.455c0.733,1.125 1.491,2.335 2.275,3.63c0.034,0.102 0.085,0.196 0.153,0.281c0.069,0.086 0.12,0.179 0.154,0.282c1.091,1.772 2.071,3.409 2.94,4.908c0.869,1.5 1.304,2.25 1.304,2.25l-8.437,0c-0.341,-0.545 -0.631,-1.031 -0.869,-1.457c-0.239,-0.426 -0.478,-0.844 -0.716,-1.253c-0,-0.034 -0.009,-0.059 -0.026,-0.076c-0.017,-0.018 -0.025,-0.043 -0.025,-0.077c-0.273,-0.409 -0.537,-0.852 -0.793,-1.33c-0.256,-0.477 -0.554,-1.022 -0.895,-1.636c-1.704,-3.068 -2.94,-5.181 -3.707,-6.34c-0.767,-1.159 -1.44,-1.909 -2.02,-2.25c-0.034,-0.034 -0.059,-0.06 -0.076,-0.077c-0.017,-0.017 -0.043,-0.026 -0.077,-0.026c-0.068,-0.034 -0.119,-0.059 -0.154,-0.076c-0.034,-0.017 -0.085,-0.026 -0.153,-0.026c-0.102,-0.068 -0.213,-0.111 -0.332,-0.128c-0.12,-0.017 -0.282,-0.042 -0.486,-0.076l-0,14.828l-7.005,0Zm9.562,-29.81l-2.506,-0l-0.051,9.613l2.403,-0c1.534,-0 2.693,-0.086 3.477,-0.256c0.784,-0.171 1.415,-0.477 1.892,-0.92c0.443,-0.409 0.784,-0.921 1.023,-1.534c0.238,-0.614 0.358,-1.296 0.358,-2.046c-0,-1.091 -0.213,-2.002 -0.639,-2.735c-0.427,-0.733 -1.066,-1.27 -1.918,-1.611c-0.409,-0.171 -0.963,-0.298 -1.662,-0.384c-0.699,-0.085 -1.491,-0.127 -2.377,-0.127Z" style="fill:#fff;fill-rule:nonzero;"/><path d="M237.821,123.331l0,-25.72l6.852,-1.074l0,26.794l-6.852,0Zm-0.767,-33.39c0,-1.193 0.426,-2.199 1.279,-3.017c0.852,-0.818 1.857,-1.227 3.017,-1.227c1.159,0 2.139,0.409 2.94,1.227c0.801,0.818 1.201,1.824 1.201,3.017c0,1.159 -0.409,2.156 -1.227,2.991c-0.818,0.836 -1.824,1.253 -3.017,1.253c-1.159,0 -2.147,-0.417 -2.965,-1.253c-0.819,-0.835 -1.228,-1.832 -1.228,-2.991Z" style="fill:#fff;fill-rule:nonzero;"/><path d="M265.434,85.493l6.801,1.073l-0,27.203c-0,2.932 0.085,5.063 0.256,6.392c0.17,1.33 0.375,2.284 0.613,2.864c0,0.068 0.009,0.127 0.026,0.179c0.017,0.051 0.042,0.093 0.076,0.127l-6.136,0c-0.102,-0.204 -0.179,-0.426 -0.23,-0.664c-0.051,-0.239 -0.11,-0.529 -0.179,-0.87c-0.852,0.75 -1.772,1.296 -2.761,1.637c-0.988,0.34 -2.079,0.511 -3.272,0.511c-3.307,-0 -5.94,-1.193 -7.901,-3.579c-1.96,-2.387 -2.94,-5.608 -2.94,-9.665c0,-4.09 1.04,-7.414 3.119,-9.971c2.08,-2.556 4.773,-3.835 8.079,-3.835c0.955,0 1.807,0.12 2.557,0.358c0.75,0.239 1.449,0.614 2.097,1.125c-0.034,-0.238 -0.069,-0.647 -0.103,-1.227c-0.034,-0.579 -0.068,-1.193 -0.102,-1.841l0,-9.817Zm0.102,31.038l0,-12.477c-0.647,-0.579 -1.278,-1.006 -1.892,-1.278c-0.613,-0.273 -1.227,-0.409 -1.84,-0.409c-1.534,-0 -2.651,0.664 -3.35,1.994c-0.698,1.329 -1.048,3.46 -1.048,6.391c0,2.796 0.35,4.739 1.048,5.83c0.699,1.091 1.935,1.636 3.708,1.636c0.102,0 0.204,-0.009 0.306,-0.026c0.103,-0.017 0.222,-0.025 0.358,-0.025c0.512,-0.102 0.997,-0.298 1.458,-0.588c0.46,-0.29 0.843,-0.588 1.15,-0.895c0,-0.034 0.009,-0.06 0.026,-0.077c0.017,-0.017 0.042,-0.042 0.076,-0.076Z" style="fill:#fff;fill-rule:nonzero;"/><path d="M290.387,118.985c1.193,-0 2.335,-0.222 3.426,-0.665c1.091,-0.443 2.164,-1.091 3.221,-1.943l2.659,4.091c-1.5,1.227 -3.059,2.13 -4.679,2.71c-1.619,0.579 -3.349,0.869 -5.19,0.869c-3.749,0 -6.749,-1.218 -8.999,-3.656c-2.25,-2.437 -3.375,-5.718 -3.375,-9.843c0,-2.352 0.256,-4.355 0.767,-6.008c0.511,-1.654 1.347,-3.111 2.506,-4.372c1.091,-1.193 2.301,-2.08 3.63,-2.659c1.33,-0.58 2.864,-0.869 4.602,-0.869c1.5,-0 2.923,0.238 4.27,0.716c1.346,0.477 2.446,1.159 3.298,2.045c1.193,1.227 2.071,2.761 2.633,4.602c0.563,1.841 0.844,4.125 0.844,6.852l0,1.585l-15.135,-0l-0,0.204c-0,2.012 0.477,3.571 1.431,4.679c0.955,1.108 2.318,1.662 4.091,1.662Zm-5.42,-11.658l-0,0.102l7.925,-0l0,-0.307c0,-0.989 -0.059,-1.773 -0.179,-2.352c-0.119,-0.58 -0.332,-1.108 -0.639,-1.585c-0.341,-0.512 -0.758,-0.895 -1.252,-1.151c-0.495,-0.255 -1.083,-0.383 -1.765,-0.383c-1.295,-0 -2.301,0.494 -3.016,1.483c-0.716,0.988 -1.074,2.386 -1.074,4.193Z" style="fill:#fff;fill-rule:nonzero;"/></g></svg>