<?xml version="1.0" encoding="UTF-8" standalone="no"?><!DOCTYPE svg PUBLIC "-//W3C//DTD SVG 1.1//EN" "http://www.w3.org/Graphics/SVG/1.1/DTD/svg11.dtd"><svg width="100%" height="100%" viewBox="0 0 303 118" version="1.1" xmlns="http://www.w3.org/2000/svg" xmlns:xlink="http://www.w3.org/1999/xlink" xml:space="preserve" xmlns:serif="http://www.serif.com/" style="fill-rule:evenodd;clip-rule:evenodd;stroke-linejoin:round;stroke-miterlimit:2;"><g id="Layer_2"><g id="Layer_1-2"><path d="M118.44,69.03l-0.23,0.28l-0.4,0.5l-0.22,0.31c-0.05,0.064 -0.097,0.131 -0.14,0.2c-0.07,0.09 -0.13,0.19 -0.19,0.28l-0.13,0.2l-0.13,0.23c-0.233,0.381 -0.444,0.775 -0.63,1.18c-0.09,0.18 -0.17,0.37 -0.25,0.55c-0.08,0.19 -0.16,0.37 -0.23,0.56l-0.08,0.21c-0.13,0.37 -0.26,0.74 -0.38,1.1l-0.15,0.5l0,0.09c-0.05,0.17 -0.1,0.34 -0.16,0.51c-0.17,0.57 -0.34,1.15 -0.54,1.72c-0.2,0.57 -0.34,1 -0.55,1.43c0,0.09 -0.08,0.19 -0.13,0.28c-0.05,0.09 -0.18,0.38 -0.27,0.57l-0.15,0.28c-0.269,0.476 -0.57,0.934 -0.9,1.37c-0.209,0.278 -0.433,0.545 -0.67,0.8c-0.25,0.26 -0.51,0.52 -0.8,0.78c-0.29,0.26 -0.39,0.33 -0.6,0.5c-0.448,0.364 -0.919,0.698 -1.41,1l-0.6,0.34l-0.2,0.1c-0.131,0.08 -0.268,0.15 -0.41,0.21l-0.24,0.12l-0.37,0.17l-0.26,0.1l-0.35,0.15l-0.27,0.1l-0.35,0.12l-0.28,0.09l-0.34,0.11l-0.28,0.08l-0.34,0.09l-0.28,0.07l-0.33,0.08l-0.29,0.06l-0.32,0.07l-0.29,-0l-0.3,-0.52l-3.56,-0c-0.2,0.74 -0.39,1.4 -0.58,2c-0.29,0.86 -0.55,1.54 -0.75,2l-0.18,0.41l-0.19,0.4c-0.16,0.35 -0.34,0.72 -0.53,1.1c-0.33,0.64 -0.69,1.32 -1.1,2l-3.93,6.3l-0.08,-3.21c-0.58,0.491 -1.188,0.948 -1.82,1.37c-0.785,3.03 -3.292,5.325 -6.38,5.84c-0.456,1.003 -1.037,1.944 -1.73,2.8c-0.336,0.418 -0.693,0.818 -1.07,1.2c-0.424,0.431 -0.871,0.838 -1.34,1.22c-0.33,0.27 -0.68,0.54 -1.06,0.8c-0.603,0.415 -1.227,0.799 -1.87,1.15c-0.723,0.395 -1.467,0.748 -2.23,1.06c-0.54,0.22 -1.1,0.43 -1.7,0.63c-0.6,0.2 -1.22,0.39 -1.88,0.56c-0.66,0.17 -1.34,0.33 -2.07,0.48c-1.567,0.301 -3.149,0.514 -4.74,0.64l-1.32,0.08l-3.17,-0c-2.957,-0.205 -5.879,-0.77 -8.7,-1.68c-2.278,-0.729 -4.423,-1.823 -6.35,-3.24c-0.947,-0.712 -1.816,-1.523 -2.59,-2.42c-0.23,-0.27 -0.44,-0.53 -0.63,-0.79c-0.573,-0.771 -1.06,-1.602 -1.45,-2.48c-0.887,-0.126 -1.744,-0.411 -2.53,-0.84c-0.353,-0.192 -0.688,-0.416 -1,-0.67c-0.736,-0.581 -1.363,-1.289 -1.85,-2.09c-0.1,-0.15 -0.19,-0.31 -0.27,-0.46c-0.307,-0.566 -0.555,-1.163 -0.74,-1.78c-0.641,-0.427 -1.258,-0.887 -1.85,-1.38l-0.07,3.54l-3.93,-6.3c-0.466,-0.765 -0.893,-1.552 -1.28,-2.36l-0.35,-0.72c0,-0.07 -0.22,-0.43 -0.47,-1.07c-0.25,-0.64 -0.5,-1.28 -0.79,-2.21c-0.1,-0.31 -0.19,-0.64 -0.29,-1l-0.15,-0.54l-3.04,-0l-0.39,-0.34l-0.11,-0l-1.1,-0.21l-0.19,-0.05l-0.43,-0.1l-0.15,-0c-0.36,-0.1 -0.72,-0.21 -1.08,-0.33l-0.16,-0.06c-0.36,-0.12 -0.72,-0.26 -1.08,-0.41l-0.11,-0c-0.587,-0.263 -1.158,-0.56 -1.71,-0.89c-0.82,-0.494 -1.587,-1.07 -2.29,-1.72c-0.09,-0.09 -0.18,-0.17 -0.26,-0.26c-0.08,-0.09 -0.34,-0.35 -0.49,-0.52c-0.15,-0.17 -0.3,-0.36 -0.44,-0.54c-0.14,-0.18 -0.27,-0.36 -0.39,-0.54l-0.22,-0.37c-0.17,-0.27 -0.33,-0.55 -0.47,-0.83c-0.291,-0.551 -0.542,-1.123 -0.75,-1.71c0,-0.09 -0.07,-0.19 -0.11,-0.28c-0.1,-0.29 -0.19,-0.58 -0.29,-0.86c-0.1,-0.28 -0.24,-0.77 -0.35,-1.15l-0.21,-0.67c-0.019,-0.075 -0.042,-0.148 -0.07,-0.22l-0.12,-0.4c-0.028,-0.068 -0.051,-0.139 -0.07,-0.21l-0.18,-0.52c0,-0.1 -0.08,-0.2 -0.11,-0.3c-0.03,-0.1 -0.06,-0.25 -0.13,-0.35c-0.07,-0.1 -0.09,-0.23 -0.14,-0.35c-0.029,-0.075 -0.063,-0.149 -0.1,-0.22c-0.06,-0.16 -0.14,-0.31 -0.21,-0.47l-0.05,-0.11c-0.019,-0.045 -0.043,-0.089 -0.07,-0.13l-0.15,-0.31c0,-0 0,-0.09 -0.08,-0.14l-0.13,-0.31l-0.07,-0.13l-0.27,-0.43l-0.21,-0.33l-0.09,-0.12l-0.36,-0.37l0,-0.08c-0.11,-0.15 -0.23,-0.3 -0.35,-0.44l-0.23,-0.28c-0.14,-0.16 -0.27,-0.32 -0.4,-0.49l-0.4,-0.56l-0.07,-0.1c-0.119,-0.171 -0.23,-0.348 -0.33,-0.53l-0.07,-0.12c-0.095,-0.155 -0.182,-0.315 -0.26,-0.48c-0.078,-0.165 -0.05,-0.09 -0.08,-0.14c-0.03,-0.05 -0.18,-0.37 -0.26,-0.56c-0.08,-0.18 -0.15,-0.36 -0.22,-0.54c-0.07,-0.18 0,-0.1 -0.05,-0.15c-0.07,-0.173 -0.131,-0.35 -0.18,-0.53c-0.004,-0.02 -0.004,-0.04 0,-0.06c-0.06,-0.21 -0.12,-0.41 -0.17,-0.62l0,-0.12c0,-0.17 -0.08,-0.35 -0.11,-0.52c-0.03,-0.17 0,-0.08 0,-0.12c0,-0.21 -0.07,-0.42 -0.1,-0.63l0,-0.05c-0.03,-0.196 -0.05,-0.392 -0.06,-0.59c-0.01,-0.198 0,-0.08 0,-0.12l0,-1.31c-0.004,-0.023 -0.004,-0.047 0,-0.07c0.018,-0.409 0.061,-0.816 0.13,-1.22c0,-0.23 0.09,-0.47 0.14,-0.7c0.16,-0.687 0.388,-1.357 0.68,-2c0.09,-0.2 0.19,-0.39 0.29,-0.58c0.256,-0.489 0.55,-0.958 0.88,-1.4c0.324,-0.422 0.678,-0.819 1.06,-1.19l0.16,-0.27l0.19,-0.18l0.28,-0.22l0.07,-0.06l0.19,-0.15l0.55,-0.37l0.1,-0.07l0.07,-0c0.083,-0.056 0.17,-0.106 0.26,-0.15l0.17,-0.1l0.35,-0.21l0.11,-0l0.52,-0.23l0.12,-0l0.52,-0.19l0.15,-0.05l0.52,-0.15l0.16,-0l0.52,-0.11l0.19,-0l0.52,-0.08l0.21,-0c0.18,-0 0.36,-0 0.55,-0.06l2.52,-0l4.16,-9.94c0.38,-0.88 0.81,-1.85 1.32,-2.84c0.31,-0.59 0.65,-1.19 1,-1.78c0.21,-0.36 0.43,-0.71 0.67,-1.06l-5.79,2.94l8.58,-9.14c0.53,-0.56 1.11,-1.17 1.75,-1.77l-6.33,1.58l10.39,-7c0.49,-0.33 1,-0.69 1.59,-1l-5.39,0.1l3.83,-1.47l6.15,-2.35l-6.64,0.33l-0.35,-0l5.12,-1.64l10.8,-3.51c1.453,-0.46 2.952,-0.759 4.47,-0.89c0.533,-0.047 1.063,-0.077 1.59,-0.09l3.06,-0l0.35,0.05l0.44,0.07l0.39,0.28l0.46,0.09l0.3,0.07l0.51,0.13l0.24,0.06l0.74,0.22l0.81,0.29c0.53,0.21 1.06,0.44 1.57,0.69l0.76,0.4l0.38,0.23c0.569,-1.217 1.321,-2.34 2.23,-3.33l3.43,-3.62l0.12,-0.13l0.66,-0.69l0.13,-0.14l0.32,-0.34l0.21,-0.22l2.05,-2.17l-0.79,2.34l-0.08,0.23l-0.12,0.36l0,0.15l-0.25,0.74l0,0.13l-1.75,5.16c0.22,-0.05 0.43,-0.08 0.62,-0.11l0.45,-0l0.83,-0.07l0.33,-0l13.13,-1.13l0.23,-0l1.61,-0.14l0.35,-0l0.69,-0.06l0.5,-0l1.33,-0.32l-0.94,0.33l-0.34,0.12l-0.46,0.15l-0.26,0.08l-1,0.36l-0.14,0.05l-4.09,1.39l-3.77,1.29c0.91,0.1 1.79,0.23 2.63,0.4c0.28,-0 0.56,0.11 0.83,0.18c1.707,0.366 3.38,0.878 5,1.53l11.7,4.48l-5.39,-0.1c0.57,0.35 1.1,0.71 1.59,1l10.39,7l-6.33,-1.58c0.64,0.6 1.23,1.21 1.75,1.77l8.58,9.14l-5.78,-2.94c0.23,0.35 0.45,0.7 0.66,1.06c0.909,1.473 1.695,3.018 2.35,4.62l4.15,9.71l0.98,-0c0.19,-0.01 0.38,-0.01 0.57,-0l1.51,-0c0.208,0.019 0.415,0.05 0.62,0.09c0.26,-0 0.52,0.1 0.77,0.16l0.23,0.06l0.51,0.15l0.26,0.09l0.49,0.18l0.22,0.09c0.23,0.1 0.45,0.2 0.67,0.32c0.107,0.051 0.21,0.107 0.31,0.17l0.27,0.15l0.1,0.07c0.167,0.095 0.328,0.202 0.48,0.32l0.08,0.06l0.18,0.14l0.07,-0l0.24,0.18l0.4,0.37l0.13,0.12c0.18,0.17 0.34,0.35 0.51,0.53c0.324,0.375 0.622,0.773 0.89,1.19c0.14,0.23 0.28,0.47 0.41,0.71c0.13,0.24 0.22,0.42 0.31,0.64c0.502,1.114 0.817,2.303 0.93,3.52c0.303,3.223 -0.712,6.435 -2.81,8.9l-0.02,0.96Z"/><path d="M3.9,51l0.1,-0.11l-0.1,0.11" style="fill:#fff;fill-rule:nonzero;"/><path d="M42.93,26.58l2.61,-0c0.87,-0 1.74,0.05 2.6,0.12c0.876,0.049 1.745,0.173 2.6,0.37c-0.393,-0.209 -0.805,-0.38 -1.23,-0.51c-0.42,-0.14 -0.85,-0.26 -1.29,-0.36c-0.864,-0.207 -1.738,-0.364 -2.62,-0.47c-0.83,-0.11 -1.66,-0.17 -2.5,-0.23c0.48,-0.17 1,-0.33 1.44,-0.47c1.369,-0.401 2.766,-0.698 4.18,-0.89c1.425,-0.193 2.862,-0.287 4.3,-0.28c1.44,-0 2.89,0.11 4.36,0.26c-1.396,-0.488 -2.841,-0.824 -4.31,-1c-0.37,-0.05 -0.74,-0.12 -1.07,-0.12l-1.12,-0c-0.744,-0.023 -1.488,-0.007 -2.23,0.05c-1.496,0.11 -2.977,0.371 -4.42,0.78c-0.72,0.2 -1.43,0.45 -2.13,0.72c-0.35,0.14 -0.7,0.3 -1,0.46c-0.3,0.16 -0.67,0.33 -1,0.54l-2,1.23l2.35,-0.09c0.87,-0 1.74,-0.06 2.61,-0.07" style="fill:#fff;fill-rule:nonzero;"/><path d="M47.34,20.62l1.17,0.11c0.39,0.05 0.78,0.08 1.17,0.14c0.39,0.06 0.78,0.11 1.16,0.17c0.78,0.13 1.55,0.29 2.31,0.49c0.773,0.192 1.532,0.44 2.27,0.74l-0,-0.09c-0.641,-0.509 -1.347,-0.93 -2.1,-1.25c-0.751,-0.329 -1.527,-0.6 -2.32,-0.81c-0.795,-0.207 -1.604,-0.361 -2.42,-0.46c0.38,-0.1 0.76,-0.2 1.14,-0.28c1.179,-0.246 2.377,-0.396 3.58,-0.45c1.234,-0.06 2.47,-0.036 3.7,0.07c1.212,0.111 2.417,0.288 3.61,0.53l-0,-0.1c-1.182,-0.339 -2.385,-0.603 -3.6,-0.79c-1.218,-0.187 -2.448,-0.284 -3.68,-0.29c-1.242,-0.007 -2.483,0.087 -3.71,0.28c-0.617,0.092 -1.228,0.219 -1.83,0.38c-0.307,0.071 -0.611,0.158 -0.91,0.26c-0.31,0.1 -0.59,0.19 -0.92,0.33l-1.78,0.78l2,0.15l1.16,0.09Z" style="fill:#fff;fill-rule:nonzero;"/><path d="M39.9,33.11c0.749,-0.04 1.501,-0.04 2.25,0c0.6,0 1.2,0.11 1.79,0.21c-0.805,0.359 -1.572,0.798 -2.29,1.31c-0.734,0.529 -1.423,1.118 -2.06,1.76c-0.641,0.638 -1.23,1.327 -1.76,2.06l-1.21,1.68l1.85,-0.93c0.953,-0.479 1.96,-0.842 3,-1.08c0.523,-0.128 1.054,-0.222 1.59,-0.28c0.54,-0.07 1.09,-0.11 1.63,-0.13c1.092,-0.047 2.185,-0.003 3.27,0.13c0.7,0.08 1.4,0.19 2.09,0.33c-0.649,0.144 -1.28,0.362 -1.88,0.65c-0.481,0.238 -0.931,0.533 -1.34,0.88c-0.416,0.337 -0.772,0.743 -1.05,1.2l0.14,0.08c0.301,-0.412 0.666,-0.773 1.08,-1.07c0.411,-0.307 0.857,-0.562 1.33,-0.76c0.951,-0.403 1.968,-0.626 3,-0.66l1.25,-0.07l-1.22,-0.42c-2.156,-0.671 -4.402,-1.008 -6.66,-1c-0.57,-0 -1.14,-0 -1.7,0.07c-0.571,0.05 -1.138,0.13 -1.7,0.24c-0.445,0.083 -0.886,0.19 -1.32,0.32l0.39,-0.37c0.62,-0.577 1.289,-1.099 2,-1.56c0.687,-0.458 1.421,-0.84 2.19,-1.14c0.733,-0.304 1.509,-0.493 2.3,-0.56l3.14,-0.12l-2.93,-1.22c-0.392,-0.162 -0.793,-0.302 -1.2,-0.42c-0.39,-0.12 -0.79,-0.23 -1.19,-0.32c-0.8,-0.182 -1.612,-0.309 -2.43,-0.38c-0.682,-0.057 -1.366,-0.073 -2.05,-0.05l0.07,-0c0.864,-0.48 1.78,-0.859 2.73,-1.13c0.47,-0.14 1,-0.24 1.43,-0.35c0.43,-0.11 1,-0.16 1.47,-0.21c0.996,-0.112 1.998,-0.159 3,-0.14l0,-0.15c-1.005,-0.231 -2.03,-0.361 -3.06,-0.39c-1.041,-0.045 -2.084,0.026 -3.11,0.21c-0.52,0.1 -1,0.22 -1.54,0.37c-0.508,0.159 -1.006,0.349 -1.49,0.57c-0.494,0.217 -0.969,0.474 -1.42,0.77c-0.23,0.15 -0.45,0.31 -0.67,0.48l-0.33,0.26c-0.11,0.1 -0.2,0.18 -0.33,0.32l-1.52,1.59l2.23,-0.35c0.741,-0.122 1.489,-0.198 2.24,-0.23" style="fill:#fff;fill-rule:nonzero;"/><path d="M26.1,66.92c-0.17,0.3 -0.33,0.6 -0.48,0.91c-0.15,0.31 -0.29,0.63 -0.42,1c-0.06,0.12 -0.11,0.24 -0.16,0.37l-0.27,0.74c0,0.13 -0.08,0.25 -0.13,0.38l-0.12,0.38l-0.21,0.78c0,0.13 -0.07,0.26 -0.11,0.39c-0.07,-0.4 -0.15,-0.8 -0.21,-1.21l0,-0.41c-0.06,-0.54 -0.13,-1.1 -0.14,-1.66l0,-1.87l-0.14,0.15l-0.25,0.32l-0.12,0.17c-0.139,0.199 -0.253,0.414 -0.34,0.64c0,0.13 -0.05,0.26 -0.07,0.4c-0.005,0.067 -0.005,0.133 0,0.2c-0.005,0.067 -0.005,0.133 0,0.2c0.006,0.209 0.036,0.417 0.09,0.62c0.036,0.139 0.079,0.276 0.13,0.41c0.043,0.141 0.096,0.278 0.16,0.41l0.09,0.21c0.2,0.41 0.43,0.81 0.66,1.23c0.08,0.14 0.16,0.28 0.23,0.43c0.07,0.15 0.07,0.14 0.11,0.22c0.04,0.08 0.14,0.29 0.21,0.45c0.07,0.16 0.07,0.15 0.1,0.23c0.03,0.08 0.05,0.16 0.08,0.25l0.06,0.25c0.04,0.174 0.06,0.352 0.06,0.53c0.01,0.317 -0.041,0.632 -0.15,0.93c-0.109,0.298 0,0.09 -0.05,0.13c-0.037,0.086 -0.081,0.17 -0.13,0.25c-0.15,0.252 -0.347,0.473 -0.58,0.65c-0.365,0.257 -0.795,0.406 -1.24,0.43c-0.261,0.011 -0.523,-0.01 -0.78,-0.06c-0.578,-0.133 -1.114,-0.408 -1.56,-0.8l-0.19,-0.16l-0.23,-0.2c-0.401,-0.422 -0.738,-0.9 -1,-1.42c-0.06,-0.14 -0.13,-0.29 -0.19,-0.44l-0.17,-0.45c-0.11,-0.29 -0.21,-0.59 -0.34,-0.88c-0.121,-0.284 -0.257,-0.561 -0.41,-0.83l-0.24,-0.41l-0.28,-0.38c-0.285,-0.378 -0.622,-0.715 -1,-1l-0.39,-0.26c-0.303,-0.187 -0.634,-0.326 -0.98,-0.41c-0.235,-0.035 -0.475,-0.035 -0.71,-0c0.639,-0.054 1.281,0.086 1.84,0.4c0.142,0.074 0.279,0.157 0.41,0.25c0.394,0.284 0.747,0.621 1.05,1l0.3,0.38l0.26,0.4c0.092,0.133 0.172,0.273 0.24,0.42l0.23,0.42l0.09,0.22l0.29,0.66l0.09,0.22l0.09,0.21l0.2,0.42c0.216,0.405 0.481,0.781 0.79,1.12c0.103,0.114 0.213,0.221 0.33,0.32c0.219,0.199 0.465,0.367 0.73,0.5c0.261,0.135 0.541,0.229 0.83,0.28c0.421,0.075 0.856,0.027 1.25,-0.14c0.126,-0.053 0.244,-0.123 0.35,-0.21c0.105,-0.08 0.2,-0.175 0.28,-0.28l0.11,-0.16c0.06,-0.119 0.11,-0.243 0.15,-0.37c0.032,-0.131 0.049,-0.265 0.05,-0.4c0.005,-0.067 0.005,-0.133 0,-0.2c0.006,-0.067 0.006,-0.133 0,-0.2c-0.018,-0.14 -0.051,-0.277 -0.1,-0.41c-0.074,-0.205 -0.161,-0.406 -0.26,-0.6c-0.07,-0.14 -0.15,-0.27 -0.23,-0.4c-0.08,-0.13 -0.27,-0.46 -0.41,-0.69l-0.42,-0.71c-0.34,-0.045 -0.675,-0.122 -1,-0.23c-0.185,-0.068 -0.366,-0.148 -0.54,-0.24c-0.167,-0.088 -0.328,-0.188 -0.48,-0.3c-0.14,-0.109 -0.274,-0.226 -0.4,-0.35c-0.121,-0.121 -0.231,-0.251 -0.33,-0.39c-0.099,-0.13 -0.189,-0.267 -0.27,-0.41c-0.079,-0.141 -0.146,-0.288 -0.2,-0.44c-0.083,-0.216 -0.143,-0.441 -0.18,-0.67c-0.096,-0.562 -0.023,-1.14 0.21,-1.66c0.059,-0.114 0.126,-0.225 0.2,-0.33c0.156,-0.199 0.349,-0.366 0.57,-0.49l0.29,-0.14l0.28,-0.11c0.497,-0.16 1.024,-0.201 1.54,-0.12l0,-3.23l-0.19,-0.18c0.004,0.04 0.004,0.08 0,0.12c-0.11,0.24 -0.2,0.49 -0.29,0.73c-0.09,0.24 -0.18,0.5 -0.26,0.76c-0.08,0.26 -0.09,0.25 -0.13,0.38c-0.11,0.38 -0.21,0.77 -0.32,1.17c-0.08,-0.53 -0.2,-1.07 -0.26,-1.62c-0.06,-0.55 -0.13,-1.1 -0.14,-1.66l0,-1.17c-0.952,-0.761 -1.989,-1.409 -3.09,-1.93c-0.24,-0.12 -0.49,-0.22 -0.74,-0.32c-0.377,-0.143 -0.761,-0.266 -1.15,-0.37c-0.26,-0.072 -0.524,-0.129 -0.79,-0.17c-0.534,-0.098 -1.077,-0.142 -1.62,-0.13c-0.539,-0.008 -1.077,0.056 -1.6,0.19c-0.515,0.109 -0.996,0.342 -1.4,0.68c-0.301,0.275 -0.53,0.618 -0.67,1c0,0.12 -0.09,0.25 -0.13,0.38c-0.129,0.53 -0.163,1.078 -0.1,1.62c0.056,0.556 0.166,1.105 0.33,1.64c0.327,1.078 0.77,2.117 1.32,3.1c-0.496,-0.756 -0.927,-1.552 -1.29,-2.38c-0.11,-0.26 -0.21,-0.53 -0.31,-0.79c-0.141,-0.406 -0.258,-0.82 -0.35,-1.24c0,-0.14 -0.06,-0.28 -0.08,-0.43c-0.044,-0.285 -0.067,-0.572 -0.07,-0.86c-0.004,-0.295 0.023,-0.59 0.08,-0.88c0.119,-0.527 0.371,-1.016 0.73,-1.42c0.048,-0.061 0.102,-0.118 0.16,-0.17c0.107,-0.11 0.224,-0.211 0.35,-0.3c0.245,-0.178 0.51,-0.325 0.79,-0.44l0.42,-0.15c0.285,-0.089 0.576,-0.159 0.87,-0.21c0.287,-0.053 0.578,-0.086 0.87,-0.1l0.44,-0c0.441,-0.01 0.882,0.01 1.32,0.06c0.292,0.032 0.583,0.079 0.87,0.14c0.864,0.171 1.706,0.439 2.51,0.8l0.61,0.28c0.4,0.2 0.79,0.41 1.17,0.64l0.56,0.35l0.09,-0.89c0,-0.24 0.06,-0.48 0.1,-0.72c0.04,-0.24 0.08,-0.48 0.13,-0.72c0.07,-0.39 0.16,-0.79 0.26,-1.18l-0.69,-0.38l-0.68,-0.37c-0.42,-0.23 -0.84,-0.43 -1.25,-0.62c-0.411,-0.188 -0.832,-0.355 -1.26,-0.5c-1.347,-0.471 -2.763,-0.714 -4.19,-0.72l-0.1,-0c-0.625,0.003 -1.248,0.066 -1.86,0.19c-0.321,0.069 -0.638,0.156 -0.95,0.26c-0.19,0.06 -0.38,0.14 -0.57,0.22c-0.176,0.071 -0.346,0.155 -0.51,0.25c-0.464,0.252 -0.897,0.557 -1.29,0.91c-0.177,0.157 -0.343,0.323 -0.5,0.5c-0.147,0.173 -0.287,0.343 -0.42,0.51l-0.25,0.23l0,0.09c-0.07,0.11 -0.14,0.22 -0.2,0.33c-0.06,0.11 -0.12,0.21 -0.17,0.32l-0.14,0.29c-0.06,0.12 -0.11,0.25 -0.16,0.37c-0.139,0.375 -0.249,0.759 -0.33,1.15l0,0.17c-0.1,0.517 -0.15,1.043 -0.15,1.57c-0.005,0.073 -0.005,0.147 0,0.22c0.004,0.504 0.057,1.006 0.16,1.5c0.152,0.788 0.411,1.552 0.77,2.27c0.08,0.15 0.16,0.3 0.25,0.45c0.158,0.276 0.332,0.543 0.52,0.8l0.38,0.48c0.16,0.18 0.31,0.36 0.45,0.54l0.41,0.54c0.27,0.35 0.51,0.71 0.73,1.06c0.318,0.5 0.609,1.018 0.87,1.55c0.653,1.4 1.188,2.851 1.6,4.34c0.22,0.7 0.42,1.36 0.65,2c0.11,0.32 0.24,0.62 0.37,0.92c0.13,0.3 0.28,0.59 0.45,0.88c0.755,1.281 1.835,2.34 3.13,3.07l0.41,0.23c0.278,0.159 0.566,0.303 0.86,0.43l0.44,0.19c0.304,0.13 0.614,0.243 0.93,0.34l0.47,0.15c0.494,0.14 0.994,0.254 1.5,0.34l0.52,0.09c0.907,0.131 1.823,0.194 2.74,0.19l1.56,-0c0,-0.19 -0.07,-0.38 -0.1,-0.57l-0.09,-0.58c0,-0.24 -0.07,-0.49 -0.1,-0.74c-0.254,-1.953 -0.371,-3.921 -0.35,-5.89c0,-0.633 0.02,-1.273 0.06,-1.92c0.104,-2.128 0.352,-4.246 0.74,-6.34" style="fill:#fff;fill-rule:nonzero;"/><path d="M32.16,61.55c0.133,-0.167 0.273,-0.337 0.42,-0.51c0.147,-0.173 0.307,-0.343 0.48,-0.51l0.27,-0.26c0.273,-0.26 0.573,-0.52 0.9,-0.78c0.22,-0.18 0.45,-0.35 0.69,-0.52c0.24,-0.17 0.76,-0.52 1.19,-0.77c0.43,-0.25 0.88,-0.51 1.38,-0.76c1.861,-0.953 3.91,-1.479 6,-1.54l1.21,-0c0.585,0.046 1.166,0.13 1.74,0.25c0.545,0.112 1.083,0.259 1.61,0.44c1.286,0.428 2.521,0.998 3.68,1.7c0.93,0.55 1.72,1.1 2.36,1.56c0.248,0.178 0.537,0.291 0.84,0.33c0.282,0.03 0.568,-0.011 0.83,-0.12c0.289,-0.124 0.551,-0.304 0.77,-0.53c0.256,-0.262 0.475,-0.558 0.65,-0.88c0.068,-0.116 0.128,-0.236 0.18,-0.36c0.123,-0.266 0.227,-0.54 0.31,-0.82c0.153,-0.445 0.263,-0.904 0.33,-1.37l-0,-0.52c0.024,-0.363 0.024,-0.727 -0,-1.09c-0.051,-0.586 -0.158,-1.165 -0.32,-1.73c-0.113,-0.409 -0.253,-0.81 -0.42,-1.2c-0.371,-0.87 -0.844,-1.693 -1.41,-2.45c-0.313,-0.42 -0.647,-0.824 -1,-1.21c-0.601,-0.629 -1.296,-1.162 -2.06,-1.58c-0.392,-0.214 -0.796,-0.404 -1.21,-0.57c-0.431,-0.165 -0.872,-0.306 -1.32,-0.42c-0.726,-0.171 -1.465,-0.281 -2.21,-0.33c-0.498,-0.049 -0.999,-0.072 -1.5,-0.07c-0.779,0.005 -1.557,0.058 -2.33,0.16c-0.73,0.14 -1.5,0.32 -2.3,0.55c-0.533,0.153 -1.073,0.333 -1.62,0.54l-0.82,0.32c-0.55,0.23 -1.1,0.5 -1.64,0.79l-0.56,0.31c-1.909,1.054 -3.605,2.454 -5,4.13c-0.3,0.38 -0.58,0.77 -0.84,1.17l-0.37,0.76l-0.26,0.53l-0.22,0.54c-0.07,0.18 -0.14,0.36 -0.22,0.54l-0.21,0.55l-0.35,1.1c-0.16,0.56 -0.31,1.12 -0.44,1.68c-0.09,0.37 -0.17,0.75 -0.24,1.12c-0.07,0.37 -0.13,0.76 -0.18,1.14c-0,0.19 -0.05,0.38 -0.08,0.57c-0.03,0.19 -0.07,0.67 -0.1,1c-0.03,0.33 -0.08,1 -0.1,1.42l-0,0.77c-0,-0.13 0.06,-0.26 0.08,-0.38l0.05,-0.22l-0,-0.32l0.07,-0.25l0.06,-0.25l0.11,-0.42l0.16,-0.59l0.32,-1c0.099,-0.339 0.216,-0.673 0.35,-1c0.13,-0.33 0.26,-0.65 0.38,-1c0.12,-0.35 0.28,-0.64 0.43,-0.95c0.15,-0.31 0.3,-0.63 0.44,-1l-0.33,1c-0.12,0.33 -0.23,0.65 -0.32,1c-0.09,0.35 -0.19,0.66 -0.28,1c-0.09,0.34 -0.19,0.76 -0.19,1.06l-0.21,1l-0.15,1l-0.07,0.5l-0.05,0.51l-0,1.31c-0,-0.17 0.09,-0.35 0.13,-0.53l0.05,-0.21l0.06,-0.21l0.14,-0.42l0.28,-0.82l0.35,-0.81l0.17,-0.4l0.2,-0.39l0.41,-0.78c0.15,-0.25 0.3,-0.5 0.46,-0.75c0.16,-0.25 0.32,-0.49 0.47,-0.74c-0.06,0.13 -0.11,0.27 -0.17,0.4l-0.18,0.39c-0.11,0.27 -0.23,0.53 -0.33,0.8l-0.28,0.8l-0.13,0.4l-0.11,0.41l-0.21,0.82l-0.14,0.83l-0.07,0.41l-0,0.18c-0,-0.16 0.09,-0.34 0.15,-0.53c0.06,-0.19 0.08,-0.26 0.13,-0.4c0.05,-0.14 0.15,-0.41 0.25,-0.63c0.311,-0.679 0.701,-1.32 1.16,-1.91" style="fill:#fff;fill-rule:nonzero;"/><path d="M75.32,23c-0.746,-0.04 -1.494,-0.04 -2.24,0l-1.11,0c-0.37,0 -0.75,0.07 -1.11,0.12c-1.469,0.174 -2.914,0.51 -4.31,1c1.46,-0.15 2.91,-0.25 4.35,-0.26c1.438,-0.007 2.875,0.086 4.3,0.28c1.414,0.191 2.811,0.488 4.18,0.89c0.48,0.14 1,0.3 1.44,0.47c-0.83,0.06 -1.67,0.12 -2.5,0.23c-0.882,0.106 -1.756,0.263 -2.62,0.47c-0.43,0.1 -0.86,0.22 -1.28,0.36c-0.427,0.127 -0.839,0.297 -1.23,0.51c0.851,-0.198 1.718,-0.322 2.59,-0.37c0.87,-0.07 1.73,-0.12 2.6,-0.12l2.61,0c0.87,0 1.74,0 2.61,0.07l2.35,0.09l-2,-1.23c-0.36,-0.21 -0.68,-0.37 -1,-0.54c-0.32,-0.17 -0.68,-0.32 -1,-0.46c-0.701,-0.276 -1.415,-0.516 -2.14,-0.72c-1.465,-0.418 -2.97,-0.683 -4.49,-0.79" style="fill:#fff;fill-rule:nonzero;"/><path d="M21.69,54.87l0,0.13c0.004,-0.026 0.004,-0.054 0,-0.08" style="fill:#fff;fill-rule:nonzero;"/><path d="M84.23,30.27c-0.488,-0.219 -0.989,-0.41 -1.5,-0.57c-0.5,-0.15 -1,-0.27 -1.53,-0.37c-1.029,-0.184 -2.075,-0.254 -3.12,-0.21c-1.03,0.029 -2.055,0.16 -3.06,0.39l0,0.15c1.002,-0.019 2.004,0.028 3,0.14c0.5,0.047 0.99,0.117 1.47,0.21c0.49,0.11 1,0.21 1.44,0.35c0.931,0.268 1.829,0.637 2.68,1.1l0.06,0c-0.667,-0.022 -1.335,-0.005 -2,0.05c-0.818,0.071 -1.63,0.198 -2.43,0.38c-0.4,0.09 -0.8,0.2 -1.19,0.32c-0.405,0.116 -0.802,0.257 -1.19,0.42l-2.93,1.22l3.15,0.15c0.801,0.04 1.591,0.205 2.34,0.49c0.77,0.298 1.505,0.68 2.19,1.14c0.709,0.464 1.378,0.986 2,1.56l0.38,0.37c-0.434,-0.13 -0.875,-0.237 -1.32,-0.32c-0.575,-0.111 -1.156,-0.191 -1.74,-0.24c-0.57,-0.05 -1.14,-0.07 -1.7,-0.07c-1.132,0.008 -2.262,0.102 -3.38,0.28c-1.112,0.179 -2.208,0.443 -3.28,0.79l-1.2,0.39l1.25,0.07c1.032,0.036 2.048,0.259 3,0.66c0.47,0.196 0.914,0.452 1.32,0.76c0.416,0.308 0.775,0.687 1.06,1.12l0.14,-0.08c-0.275,-0.46 -0.631,-0.866 -1.05,-1.2c-0.406,-0.347 -0.852,-0.642 -1.33,-0.88c-0.604,-0.286 -1.238,-0.504 -1.89,-0.65c0.69,-0.14 1.39,-0.25 2.09,-0.33c1.085,-0.133 2.178,-0.177 3.27,-0.13c0.55,0 1.09,0.06 1.63,0.13c0.536,0.058 1.067,0.151 1.59,0.28c1.04,0.236 2.048,0.599 3,1.08l1.85,0.93l-1.21,-1.68c-1.065,-1.466 -2.354,-2.755 -3.82,-3.82c-0.712,-0.507 -1.472,-0.943 -2.27,-1.3c0.59,-0.1 1.19,-0.16 1.79,-0.21c0.753,-0.04 1.507,-0.04 2.26,0c0.747,0.032 1.492,0.108 2.23,0.23l2.23,0.35l-1.51,-1.62l-0.34,-0.32l-0.32,-0.26c-0.22,-0.17 -0.45,-0.33 -0.67,-0.48c-0.452,-0.293 -0.927,-0.551 -1.42,-0.77" style="fill:#fff;fill-rule:nonzero;"/><path d="M67,19c1.207,-0.103 2.42,-0.127 3.63,-0.07c1.203,0.054 2.401,0.204 3.58,0.45c0.39,0.08 0.76,0.18 1.14,0.28c-0.813,0.098 -1.618,0.252 -2.41,0.46c-0.793,0.21 -1.569,0.481 -2.32,0.81c-0.756,0.32 -1.466,0.741 -2.11,1.25l0.06,0.09c0.735,-0.299 1.49,-0.546 2.26,-0.74c0.76,-0.2 1.54,-0.36 2.31,-0.49c0.39,-0.06 0.77,-0.13 1.16,-0.17c0.39,-0.04 0.78,-0.09 1.17,-0.14l1.17,-0.11l1.18,-0.09l2,-0.15l-1.82,-0.78c-0.301,-0.126 -0.608,-0.236 -0.92,-0.33c-0.3,-0.1 -0.6,-0.19 -0.9,-0.26c-0.61,-0.16 -1.22,-0.28 -1.84,-0.38c-1.224,-0.193 -2.461,-0.286 -3.7,-0.28c-1.235,0.006 -2.469,0.103 -3.69,0.29c-1.212,0.186 -2.411,0.45 -3.59,0.79l-0,0.1c1.203,-0.242 2.418,-0.419 3.64,-0.53" style="fill:#fff;fill-rule:nonzero;"/><path d="M92,63.7c-0.195,-0.378 -0.415,-0.742 -0.66,-1.09c-0.488,-0.679 -1.055,-1.297 -1.69,-1.84c-2.08,-1.63 -4.603,-2.596 -7.24,-2.77l-0.69,-0.06l-2.12,0c-0.187,-0.01 -0.373,-0.01 -0.56,0l-0.76,0l-0.28,0.06l-0.72,0l-0.28,0.07l-0.33,0.08l-0.26,0.08l-0.23,0.07l-0.19,0.06l-0.23,0.09l-0.17,0.06l-0.23,0.09l-0.15,0.07l-0.23,0.1c-2.57,1.2 -4,3.13 -5.52,4.36c-0.507,0.564 -1.35,0.69 -2,0.3l-0.18,-0.14l-0.05,0l-0.14,-0.13c-0.059,-0.059 -0.112,-0.122 -0.16,-0.19c-0.048,-0.056 -0.092,-0.117 -0.13,-0.18l-0.12,-0.2l-0.12,-0.23l-0.09,-0.19l0,-0.05c0,-0.05 -0.12,-0.31 -0.18,-0.45c-0.06,-0.14 0,0 0,-0.05l-0.06,-0.17l-0.23,-0.29l0,-0.14c0,-0.04 0,0 0,0l0,-0.23c-0.435,0.995 -0.647,2.074 -0.62,3.16c0.007,0.677 0.108,1.351 0.3,2l-0.2,-0.09l-0.22,-0.09c-0.141,-0.324 -0.258,-0.658 -0.35,-1c-0.09,-0.328 -0.157,-0.662 -0.2,-1c-0.05,-0.331 -0.08,-0.665 -0.09,-1c-0.016,-0.521 0.004,-1.042 0.06,-1.56c0,-0.2 0,-0.39 0.08,-0.57c0.08,-0.18 0.09,-0.54 0.14,-0.78c0.05,-0.24 0.07,-0.32 0.11,-0.46c0.106,-0.435 0.24,-0.862 0.4,-1.28l0,-0.49c0,-0.32 0,-0.63 -0.06,-0.93c-0.036,-0.686 -0.036,-1.374 0,-2.06c0.07,-0.37 0.16,-0.74 0.26,-1.11c0.1,-0.37 0.23,-0.73 0.37,-1.09c0.08,-0.19 0.15,-0.38 0.24,-0.57c0.09,-0.19 0.17,-0.37 0.26,-0.56c0.09,-0.19 0.29,-0.55 0.45,-0.82l0.15,-0.27c0.21,-0.36 0.46,-0.69 0.69,-1c0.12,-0.17 0.25,-0.34 0.38,-0.5c0.13,-0.16 0.25,-0.33 0.38,-0.5c-0.28,0.31 -0.58,0.61 -0.85,0.92c-0.27,0.31 -0.41,0.49 -0.6,0.74c-0.069,0.079 -0.132,0.163 -0.19,0.25l-0.19,0.26l-0.18,0.26c-0.12,0.17 -0.24,0.35 -0.35,0.53l0,0.07c0.002,0.027 0.002,0.053 0,0.08c-0.19,0.31 -0.36,0.63 -0.54,1c-0.18,0.37 -0.19,0.41 -0.29,0.62c-0.1,0.21 -0.18,0.43 -0.26,0.65l0.06,-0.78c0,-0.34 0.07,-0.68 0.11,-1l0.15,-1l0.09,-0.53c0.093,-0.5 0.193,-1 0.3,-1.5l-0.3,0.8l-0.28,0.81l-0.06,0.18l-0.06,0.17l-0.15,0.5c-0.15,0.49 -0.29,1 -0.42,1.5c-0.13,0.5 -0.27,1.15 -0.37,1.73l0,-0.48c-0.005,-0.093 -0.005,-0.187 0,-0.28l0,-1.32c0,-0.26 0,-0.52 0.06,-0.78c0.06,-0.26 0,-0.39 0.08,-0.59c0.08,-0.2 0.06,-0.39 0.1,-0.58l0.06,-0.37c0,0.13 -0.1,0.26 -0.16,0.39c-0.06,0.13 -0.14,0.36 -0.2,0.54c-0.07,0.18 -0.131,0.363 -0.18,0.55c-0.08,0.25 -0.16,0.51 -0.23,0.76c-0.07,0.25 -0.13,0.52 -0.19,0.78c-0.06,0.26 -0.11,0.48 -0.15,0.72c-0.04,0.24 -0.09,0.48 -0.13,0.73l0,-2.51c-0.197,0.503 -0.364,1.017 -0.5,1.54c0,0.18 -0.09,0.36 -0.13,0.53c-0.04,0.17 0,0.14 0,0.2l0,0.21l-0.28,-2.82l-0.29,2.82c0,-0.14 0,-0.27 -0.09,-0.41c-0.09,-0.14 -0.08,-0.35 -0.13,-0.53c-0.136,-0.523 -0.303,-1.037 -0.5,-1.54l0,2.51c0,-0.25 -0.08,-0.49 -0.13,-0.73c-0.05,-0.24 -0.09,-0.48 -0.15,-0.72c-0.06,-0.24 -0.12,-0.52 -0.19,-0.78c-0.07,-0.26 -0.14,-0.51 -0.22,-0.76c-0.08,-0.25 -0.6,-0.4 -0.6,-0.56c0,-0.16 -0.13,-0.36 -0.2,-0.54c-0.07,-0.18 -0.11,-0.26 -0.16,-0.39c0,0.12 0,0.24 0.07,0.37l0.09,0.58c0,0.2 0.06,0.4 0.08,0.59c0.02,0.19 0,0.52 0.06,0.78c0.06,0.26 0,0.52 0,0.78l0,0.83c-0.005,0.09 -0.005,0.18 0,0.27c-0.1,-0.58 -0.23,-1.16 -0.37,-1.73c-0.14,-0.57 -0.27,-1 -0.42,-1.5l-0.15,-0.5l-0.12,-0.35c-0.18,-0.54 -0.37,-1.08 -0.58,-1.61c0.107,0.5 0.207,1 0.3,1.5l0.09,0.53l0.15,1c0,0.34 0.08,0.68 0.11,1l0.06,0.78c-0.08,-0.22 -0.17,-0.43 -0.26,-0.65c-0.09,-0.22 -0.19,-0.42 -0.29,-0.62c-0.1,-0.2 -0.35,-0.65 -0.54,-1c-0.019,-0.025 -0.036,-0.052 -0.05,-0.08l0,-0.07c-0.11,-0.18 -0.23,-0.36 -0.35,-0.53l-0.18,-0.26l-0.23,-0.18c-0.058,-0.087 -0.121,-0.171 -0.19,-0.25c-0.19,-0.25 -0.4,-0.49 -0.59,-0.74c-0.19,-0.25 -0.34,-0.37 -0.52,-0.55l-0.34,-0.37l0.29,0.38l0.29,0.37l0.18,0.25c0.23,0.35 0.48,0.68 0.69,1l0.15,0.27c0.16,0.27 0.32,0.54 0.45,0.82c0.13,0.28 0.18,0.37 0.26,0.56c0.08,0.19 0.17,0.38 0.24,0.57c0.14,0.36 0.26,0.72 0.37,1.09c0.11,0.37 0.19,0.74 0.26,1.11c0.041,0.686 0.041,1.374 0,2.06c0,0.3 -0.02,0.61 -0.06,0.93c0,0.16 0,0.32 -0.05,0.49c0.16,0.418 0.294,0.845 0.4,1.28c0,0.14 0.07,0.3 0.11,0.46c0.04,0.16 0.1,0.5 0.14,0.78c0.04,0.28 0.05,0.37 0.08,0.57c0.056,0.518 0.076,1.039 0.06,1.56c-0.01,0.335 -0.04,0.669 -0.09,1c-0.043,0.338 -0.11,0.672 -0.2,1c-0.092,0.342 -0.209,0.676 -0.35,1l-0.22,0.09l-0.2,0.09c0.191,-0.65 0.295,-1.323 0.31,-2c0.044,-1.1 -0.154,-2.195 -0.58,-3.21l0,0.1c-0.006,0.023 -0.006,0.047 0,0.07c0.006,0.023 0,-0 0,-0c0.001,0.017 0.001,0.033 0,0.05c-0.001,0.017 0,-0 0,0.06l0,0.06c-0.006,0.043 -0.006,0.087 0,0.13l0,0.23c0,0.11 -0.08,0.22 -0.13,0.33l0,0.06c-0.004,0.033 -0.004,0.067 0,0.1c0.005,0.036 0.005,0.074 0,0.11l-0.11,0.22l-0.06,0.11l0,0.05l-0.06,0.1c-0.071,0.107 -0.148,0.211 -0.23,0.31l-0.07,0.09l-0.08,0.08c-0.045,0.046 -0.095,0.086 -0.15,0.12l-0.37,-0c-0.594,0.14 -1.219,-0.038 -1.65,-0.47c-1.76,-1.4 -3.35,-3.72 -6.68,-4.82c-0.29,-0.09 -0.59,-0.18 -0.91,-0.25l-0.09,-0c-0.29,-0.07 -0.6,-0.13 -0.91,-0.18l-4.4,-0l-0.66,0.06c-2.628,0.186 -5.141,1.158 -7.21,2.79c-0.635,0.543 -1.202,1.161 -1.69,1.84c-0.245,0.348 -0.465,0.712 -0.66,1.09c-0.169,0.323 -0.316,0.657 -0.44,1c-0.284,0.762 -0.433,1.567 -0.44,2.38c0.123,-0.342 0.267,-0.675 0.43,-1c0.19,-0.372 0.408,-0.73 0.65,-1.07c0.11,-0.16 0.22,-0.3 0.33,-0.44c0.11,-0.14 0.22,-0.26 0.33,-0.37c0.303,-0.306 0.638,-0.577 1,-0.81c0.275,-0.183 0.57,-0.334 0.88,-0.45c0.136,-0.055 0.277,-0.098 0.42,-0.13c-0.266,0.345 -0.5,0.713 -0.7,1.1c-0.207,0.403 -0.384,0.821 -0.53,1.25c-0.194,0.592 -0.331,1.202 -0.41,1.82c-0.45,3.45 0.77,7.37 3.91,9.25c0.416,0.246 0.863,0.434 1.33,0.56c0.23,0.069 0.463,0.122 0.7,0.16c0.363,0.067 0.731,0.104 1.1,0.11l1.12,-0c0.25,-0 0.51,-0 0.76,-0.09c0.25,-0.09 0.75,-0.13 1.12,-0.22l0.73,-0.19l0.71,-0.21l0.68,-0.24c0.67,-0.25 1.3,-0.51 1.84,-0.77l0.52,-0.24l0.24,-0.12c-0.071,-0.334 -0.044,-0.682 0.08,-1c0.053,-0.156 0.127,-0.304 0.22,-0.44c0.044,-0.077 0.094,-0.151 0.15,-0.22c0.122,-0.16 0.256,-0.31 0.4,-0.45c0.462,-0.402 0.977,-0.738 1.53,-1l0.4,-0.2c0.4,-0.18 0.78,-0.34 1.14,-0.48l0.53,-0.2l0.5,-0.17c0.005,-0.233 0.035,-0.464 0.09,-0.69l0.06,-0.21c0.102,-0.288 0.254,-0.556 0.45,-0.79c0.138,-0.178 0.303,-0.333 0.49,-0.46l0.32,-0.2c0.315,-0.17 0.651,-0.298 1,-0.38l0,-0.12c-0.004,-0.037 -0.004,-0.073 0,-0.11c0.008,-0.083 0.04,-0.163 0.09,-0.23c0.031,-0.045 0.064,-0.089 0.1,-0.13c0.084,-0.076 0.179,-0.14 0.28,-0.19c0.043,-0.029 0.091,-0.053 0.14,-0.07l1.76,-0l-0.23,-0c-0.16,-0 -0.32,0.07 -0.48,0.12l-0.35,0.1l-0.17,0.06l-0.16,0.07c-0.108,0.043 -0.212,0.097 -0.31,0.16c-0.09,0.054 -0.171,0.121 -0.24,0.2c-0.032,0.032 -0.059,0.069 -0.08,0.11l0,0.12c-0.005,0.033 -0.005,0.067 0,0.1c-0.007,0.03 -0.007,0.06 0,0.09l0.18,0.23l-0.3,0.09l-0.36,0.13c-0.241,0.082 -0.472,0.19 -0.69,0.32l-0.3,0.21c-0.187,0.147 -0.346,0.327 -0.47,0.53c-0.127,0.202 -0.216,0.426 -0.26,0.66c-0.031,0.118 -0.051,0.238 -0.06,0.36l0.39,-0.1c0.26,-0.07 0.5,-0.12 0.72,-0.16c0.22,-0.04 0.43,-0.08 0.62,-0.1l0.75,-0.08l0.88,-0l-0.59,0.13l-0.56,0.13l-0.61,0.16c-0.59,0.16 -1.12,0.33 -1.6,0.5l-0.31,0.12l-0.29,0.11c-0.494,0.197 -0.972,0.431 -1.43,0.7c-0.497,0.289 -0.945,0.653 -1.33,1.08c-0.096,0.113 -0.183,0.233 -0.26,0.36c-0.04,0.058 -0.077,0.118 -0.11,0.18c-0.085,0.167 -0.156,0.341 -0.21,0.52c-0.043,0.167 -0.066,0.338 -0.07,0.51c-0.02,0.156 -0.02,0.314 0,0.47c0.046,0.276 0.137,0.543 0.27,0.79c0.07,0.148 0.154,0.288 0.25,0.42l0.07,0.11l0.17,0.19l-0.24,-0c-0.22,-0.047 -0.437,-0.107 -0.65,-0.18c-0.131,-0.047 -0.258,-0.104 -0.38,-0.17c-0.31,0.13 -0.61,0.28 -0.9,0.43c-0.918,0.471 -1.781,1.045 -2.57,1.71c-0.56,0.464 -1.079,0.976 -1.55,1.53c-0.507,0.588 -0.966,1.217 -1.37,1.88c-1.033,1.643 -1.936,3.365 -2.7,5.15c-0.12,0.3 -0.23,0.59 -0.33,0.89c-0.06,0.14 -0.11,0.29 -0.16,0.43c-0.1,0.29 -0.19,0.58 -0.28,0.86c-0.22,0.71 -0.4,1.4 -0.55,2.06c-0.06,0.26 -0.11,0.52 -0.15,0.78c-0.04,0.26 -0.08,0.51 -0.12,0.75c-0.08,0.57 -0.124,1.144 -0.13,1.72c-0.021,0.31 -0.021,0.62 0,0.93l0,0.29c0.035,0.356 0.106,0.708 0.21,1.05c0.019,0.081 0.042,0.161 0.07,0.24c0.05,0.147 0.11,0.291 0.18,0.43c0.149,0.322 0.356,0.613 0.61,0.86c0.095,0.089 0.196,0.172 0.3,0.25l0.17,0.1c0.24,0.13 0.5,0.218 0.77,0.26c0.146,0.011 0.294,0.011 0.44,-0c0.765,-0.011 1.517,-0.196 2.2,-0.54c0.598,0.548 1.308,0.961 2.08,1.21l0.68,0.25c1.106,0.357 2.24,0.621 3.39,0.79l1.28,0.17c1.598,0.169 3.204,0.246 4.81,0.23c-0.677,0.077 -1.346,0.211 -2,0.4l-0.49,0.17l-0.5,0.19c-0.16,0.08 -0.32,0.15 -0.48,0.24c-0.306,0.165 -0.592,0.367 -0.85,0.6c-0.181,0.17 -0.336,0.365 -0.46,0.58c-0.183,0.302 -0.283,0.647 -0.29,1c-0.024,0.186 -0.024,0.374 0,0.56c0.053,0.288 0.169,0.561 0.34,0.8c0.124,0.171 0.264,0.328 0.42,0.47c0.167,0.156 0.348,0.296 0.54,0.42c0.444,0.277 0.912,0.511 1.4,0.7c0.26,0.1 0.54,0.19 0.82,0.28c5.209,1.413 10.701,1.413 15.91,-0c0.28,-0.09 0.56,-0.18 0.82,-0.28c0.488,-0.189 0.956,-0.423 1.4,-0.7c0.192,-0.124 0.373,-0.264 0.54,-0.42c0.156,-0.142 0.296,-0.299 0.42,-0.47c0.171,-0.239 0.287,-0.512 0.34,-0.8c0.024,-0.186 0.024,-0.374 -0,-0.56c-0.007,-0.353 -0.107,-0.698 -0.29,-1c-0.124,-0.215 -0.279,-0.41 -0.46,-0.58c-0.258,-0.233 -0.544,-0.435 -0.85,-0.6c-0.16,-0.09 -0.32,-0.16 -0.48,-0.24l-0.5,-0.19l-0.49,-0.17c-0.654,-0.19 -1.323,-0.324 -2,-0.4c1.606,0.016 3.212,-0.061 4.81,-0.23l1.28,-0.17c1.15,-0.169 2.284,-0.433 3.39,-0.79l0.68,-0.25c0.808,-0.236 1.553,-0.649 2.18,-1.21c0.662,0.334 1.389,0.519 2.13,0.54c0.146,0.011 0.294,0.011 0.44,-0c0.27,-0.042 0.53,-0.13 0.77,-0.26l0.17,-0.1c0.106,-0.075 0.207,-0.159 0.3,-0.25c0.257,-0.244 0.464,-0.536 0.61,-0.86c0.07,-0.139 0.13,-0.283 0.18,-0.43c-0,-0.08 -0,-0.16 0.08,-0.24c0.096,-0.344 0.163,-0.695 0.2,-1.05l-0,-0.29c0.021,-0.31 0.021,-0.62 -0,-0.93c-0.006,-0.576 -0.05,-1.15 -0.13,-1.72c-0,-0.247 -0.04,-0.497 -0.12,-0.75c-0.08,-0.253 -0.13,-0.513 -0.15,-0.78c-0.15,-0.66 -0.33,-1.35 -0.55,-2.06c-0.09,-0.28 -0.18,-0.57 -0.28,-0.86c-0,-0.14 -0.1,-0.29 -0.16,-0.43c-0.1,-0.3 -0.21,-0.59 -0.33,-0.89c-0.772,-1.932 -1.706,-3.795 -2.79,-5.57c-0.404,-0.663 -0.863,-1.292 -1.37,-1.88c-0.468,-0.557 -0.987,-1.069 -1.55,-1.53c-0.773,-0.644 -1.615,-1.201 -2.51,-1.66c-0.29,-0.15 -0.59,-0.3 -0.89,-0.43c-0.126,0.064 -0.257,0.121 -0.39,0.17c-0.213,0.073 -0.43,0.133 -0.65,0.18l-0.23,-0l0.16,-0.19l0.07,-0.11c0.096,-0.134 0.183,-0.274 0.26,-0.42c0.125,-0.249 0.213,-0.515 0.26,-0.79c0.02,-0.156 0.02,-0.314 0,-0.47c-0.004,-0.172 -0.027,-0.343 -0.07,-0.51c-0.054,-0.179 -0.125,-0.353 -0.21,-0.52l-0.1,-0.18c-0.084,-0.125 -0.174,-0.245 -0.27,-0.36c-0.385,-0.427 -0.833,-0.791 -1.33,-1.08c-0.458,-0.269 -0.936,-0.503 -1.43,-0.7l-0.29,-0.11l-0.31,-0.12c-0.48,-0.17 -1,-0.34 -1.6,-0.5l-0.54,-0.16l-0.56,-0.13l-0.59,-0.13l0.88,-0l0.75,0.08c0.19,-0 0.4,0.06 0.62,0.1c0.22,0.04 0.46,0.09 0.72,0.16l0.39,0.1c-0.009,-0.122 -0.029,-0.242 -0.06,-0.36c-0.044,-0.234 -0.133,-0.458 -0.26,-0.66c-0.124,-0.203 -0.283,-0.383 -0.47,-0.53l-0.3,-0.21c-0.216,-0.129 -0.443,-0.236 -0.68,-0.32l-0.44,-0.15l-0.3,-0.09l0.18,-0.23c0.007,-0.03 0.007,-0.06 -0,-0.09c0.005,-0.033 0.005,-0.067 -0,-0.1l-0,-0.12c-0.017,-0.043 -0.045,-0.08 -0.08,-0.11c-0.069,-0.079 -0.15,-0.146 -0.24,-0.2c-0.098,-0.063 -0.202,-0.117 -0.31,-0.16l-0.16,-0.07l-0.09,-0.06l-0.35,-0.1c-0.15,-0 -0.32,-0.08 -0.48,-0.12l-0.23,-0l1.76,-0c0.049,0.017 0.097,0.041 0.14,0.07c0.101,0.05 0.196,0.114 0.28,0.19c0.039,0.039 0.072,0.083 0.1,0.13c0.05,0.067 0.082,0.147 0.09,0.23c0.004,0.037 0.004,0.073 -0,0.11l-0,0.12c0.349,0.082 0.685,0.21 1,0.38l0.32,0.2c0.187,0.127 0.352,0.282 0.49,0.46c0.199,0.232 0.352,0.5 0.45,0.79l0.06,0.21c0.055,0.226 0.085,0.457 0.09,0.69l0.5,0.17l0.53,0.2c0.36,0.14 0.74,0.3 1.14,0.48l0.4,0.2c0.553,0.262 1.068,0.598 1.53,1c0.144,0.14 0.278,0.29 0.4,0.45c0.056,0.069 0.106,0.143 0.15,0.22c0.092,0.138 0.169,0.286 0.23,0.44c0.121,0.319 0.145,0.667 0.07,1l0.24,0.12l0.52,0.24c0.54,0.26 1.17,0.52 1.84,0.77l0.68,0.24l0.71,0.21l0.73,0.19c0.37,0.09 0.75,0.16 1.12,0.22l0.76,0.09l1.12,-0c0.369,-0.006 0.737,-0.043 1.1,-0.11c0.237,-0.038 0.47,-0.091 0.7,-0.16c0.467,-0.126 0.914,-0.314 1.33,-0.56c3.14,-1.88 4.36,-5.8 3.91,-9.25c-0.079,-0.618 -0.216,-1.228 -0.41,-1.82c-0.146,-0.429 -0.323,-0.847 -0.53,-1.25c-0.2,-0.387 -0.434,-0.755 -0.7,-1.1c0.143,0.032 0.284,0.075 0.42,0.13c0.31,0.116 0.605,0.267 0.88,0.45c0.362,0.233 0.697,0.504 1,0.81c0.11,0.11 0.22,0.24 0.33,0.37c0.11,0.13 0.22,0.28 0.33,0.44c0.246,0.338 0.463,0.696 0.65,1.07c0.163,0.325 0.307,0.658 0.43,1c-0.075,-0.597 -0.226,-1.182 -0.45,-1.74c-0.124,-0.343 -0.271,-0.677 -0.44,-1m-39.61,5.06c-2.109,0.631 -4.257,1.125 -6.43,1.48c-0.35,0.06 -0.69,0.1 -1,0.14l-0.48,-0c-0.46,-0 -0.9,0.08 -1.3,0.1l-1.8,-0c-0.295,-0.019 -0.589,-0.055 -0.88,-0.11l-0.5,-0.1l-0.45,-0.13c-0.196,-0.064 -0.387,-0.144 -0.57,-0.24c-0.108,-0.049 -0.211,-0.105 -0.31,-0.17c-0.095,-0.055 -0.186,-0.119 -0.27,-0.19l-0.12,-0.09c-0.261,-0.223 -0.473,-0.499 -0.62,-0.81c-0.044,-0.097 -0.081,-0.197 -0.11,-0.3l-0,-0.18c-0.013,-0.136 -0.013,-0.274 -0,-0.41c-0.011,-0.126 -0.011,-0.254 -0,-0.38c0.113,0.148 0.241,0.286 0.38,0.41c0.153,0.151 0.317,0.292 0.49,0.42l0.33,0.24l0.39,0.24l0.45,0.24c0.16,0.08 0.33,0.16 0.51,0.23c0.505,0.204 1.027,0.361 1.56,0.47c0.23,0.05 0.48,0.1 0.74,0.13c0.719,0.1 1.445,0.137 2.17,0.11l0.7,-0c1.895,-0.101 3.78,-0.341 5.64,-0.72l1,-0.24l0.5,-0.13l0.41,-0.11c-0,-0 -0.11,-0 -0.45,0.12m-6.2,-4.71c0.024,0.095 0.061,0.185 0.11,0.27c0.045,0.085 0.099,0.166 0.16,0.24l0.1,0.11c0.069,0.065 0.143,0.125 0.22,0.18c0.245,0.164 0.535,0.251 0.83,0.25c0.153,0.003 0.305,-0.021 0.45,-0.07l0.21,-0.08l0.19,-0.11c-0,1.646 -1.354,3 -3,3c-0.707,0.001 -1.393,-0.243 -1.94,-0.69c-0.222,-0.192 -0.42,-0.41 -0.59,-0.65c-0.33,-0.506 -0.51,-1.096 -0.52,-1.7l-0,-0.31c0.048,-0.498 0.22,-0.976 0.5,-1.39c0.112,-0.159 0.236,-0.309 0.37,-0.45l0.22,-0.2c0.547,-0.447 1.233,-0.691 1.94,-0.69c0.136,-0.01 0.274,-0.01 0.41,-0c0.268,0.035 0.531,0.105 0.78,0.21c0.122,0.05 0.239,0.11 0.35,0.18c-0.124,0.059 -0.239,0.137 -0.34,0.23c-0.262,0.229 -0.432,0.545 -0.48,0.89c-0.004,0.073 -0.004,0.147 -0,0.22c-0.003,0.15 0.021,0.299 0.07,0.44m7.92,2.71c-0.35,0.058 -0.705,0.089 -1.06,0.09c-0.563,0.015 -1.126,-0.028 -1.68,-0.13l0.36,-0.24l0.37,-0.24l-1.57,-2l-1.56,-2c-0.192,-0.076 -0.389,-0.14 -0.59,-0.19c-0.608,-0.181 -1.236,-0.289 -1.87,-0.32l-1.08,-0c-0.261,0.016 -0.522,0.046 -0.78,0.09l-0.41,0.08c-0.427,0.095 -0.845,0.225 -1.25,0.39c-1.747,0.755 -3.221,2.03 -4.22,3.65l0.16,0.18l0.27,0.27c0.208,0.203 0.429,0.394 0.66,0.57l0.29,0.21c0.21,0.158 0.431,0.302 0.66,0.43c0.251,0.156 0.512,0.296 0.78,0.42c0.451,0.207 0.92,0.375 1.4,0.5c-0.317,0.016 -0.634,0.01 -0.95,-0.02c-0.192,-0.028 -0.383,-0.068 -0.57,-0.12c-0.269,-0.07 -0.532,-0.157 -0.79,-0.26c-0.467,-0.181 -0.915,-0.405 -1.34,-0.67c-0.19,-0.12 -0.38,-0.25 -0.54,-0.37c-0.16,-0.12 -0.32,-0.24 -0.46,-0.36c-0.307,-0.245 -0.588,-0.519 -0.84,-0.82c-0,-0.12 0.1,-0.23 0.16,-0.35c0.159,-0.342 0.336,-0.676 0.53,-1c0.287,-0.47 0.622,-0.909 1,-1.31c0.689,-0.724 1.506,-1.314 2.41,-1.74l0.51,-0.21l0.51,-0.17l0.51,-0.15l0.51,-0.11c0.34,-0.06 0.68,-0.1 1,-0.13l1.21,-0c1.318,0.024 2.625,0.239 3.88,0.64c0.16,0.24 0.33,0.47 0.49,0.69l0.5,0.64l0.49,0.58c0.924,1.054 1.979,1.985 3.14,2.77c0.2,0.14 0.37,0.24 0.51,0.32c0.122,0.079 0.249,0.149 0.38,0.21c-0.379,0.124 -0.767,0.218 -1.16,0.28m-1.7,8.83c0.077,-0.186 0.205,-0.345 0.37,-0.46c0.114,-0.089 0.234,-0.169 0.36,-0.24l0.23,-0.12l0.25,-0.11c0.548,-0.208 1.135,-0.296 1.72,-0.26l0.25,-0c0.361,0.033 0.719,0.097 1.07,0.19c0.227,0.051 0.45,0.115 0.67,0.19l0.33,0.12c0.21,0.07 0.41,0.16 0.6,0.24c0.342,0.142 0.676,0.302 1,0.48c0.27,0.14 0.46,0.26 0.57,0.33c0.037,0.014 0.07,0.034 0.1,0.06c-0.02,0.006 -0.04,0.006 -0.06,-0l-0.26,-0.1l-0.39,-0.13c-0.752,-0.242 -1.548,-0.31 -2.33,-0.2c-0.216,0.034 -0.427,0.091 -0.63,0.17c-0.208,0.092 -0.406,0.206 -0.59,0.34c-0.158,0.116 -0.33,0.213 -0.51,0.29c-0.116,0.05 -0.237,0.091 -0.36,0.12l-0.37,0.08l-0.37,-0c-0.434,0.02 -0.866,-0.077 -1.25,-0.28c-0.072,-0.038 -0.139,-0.085 -0.2,-0.14c-0.053,-0.052 -0.097,-0.113 -0.13,-0.18c-0.03,-0.06 -0.051,-0.124 -0.06,-0.19c-0.014,-0.069 -0.014,-0.141 -0,-0.21m21.54,20.12l0.72,-0.08c0.69,-0.07 1.28,-0.12 1.81,-0.14l3.66,-0c0.074,-0.079 0.155,-0.153 0.24,-0.22c0.121,-0.097 0.256,-0.174 0.4,-0.23l0.13,-0.05c0.094,-0.03 0.191,-0.051 0.29,-0.06c0.11,-0.015 0.22,-0.015 0.33,-0l0.17,-0c0.125,0.021 0.245,0.069 0.35,0.14c0.16,0.111 0.299,0.25 0.41,0.41c0.15,0.215 0.268,0.451 0.35,0.7c0.072,0.202 0.106,0.416 0.1,0.63c0.011,0.101 -0.026,0.201 -0.1,0.27c-0.079,0.062 -0.163,0.119 -0.25,0.17l-0.1,-0c-0.106,0.017 -0.214,0.017 -0.32,-0l-0.24,-0.07l-0.15,-0l-0.38,-0.13l-0.23,-0.08l-0.6,-0.15c-0.23,-0 -0.49,-0.09 -0.79,-0.13c-0.3,-0.04 -0.62,-0.07 -1,-0.09l-0.87,-0c-2.112,0.004 -4.22,0.192 -6.3,0.56c-4.84,0.8 -6.14,1.18 -9.67,1.18c-3.53,-0 -4.85,-0.4 -9.65,-1.2c-2.08,-0.368 -4.188,-0.555 -6.3,-0.56l-0.9,-0c-0.37,-0 -0.69,-0 -1,0.09c-0.31,0.09 -0.56,0.08 -0.79,0.13l-0.6,0.15l-0.23,0.08l-0.38,0.13l-0.15,-0l-0.24,0.07c-0.106,0.017 -0.214,0.017 -0.32,-0l-0.11,-0c-0.084,-0.051 -0.164,-0.108 -0.24,-0.17c-0.074,-0.069 -0.111,-0.169 -0.1,-0.27c-0.006,-0.214 0.028,-0.428 0.1,-0.63c0.078,-0.251 0.196,-0.487 0.35,-0.7c0.111,-0.16 0.25,-0.299 0.41,-0.41c0.103,-0.069 0.218,-0.117 0.34,-0.14l0.18,-0c0.11,-0.015 0.22,-0.015 0.33,-0c0.099,0.009 0.196,0.03 0.29,0.06l0.13,0.05c0.144,0.056 0.279,0.133 0.4,0.23c0.085,0.067 0.166,0.141 0.24,0.22l3.66,-0c0.53,-0 1.12,0.07 1.81,0.14l0.72,0.08c1.14,0.13 2.53,0.34 4.32,0.64c1.09,0.18 2.09,0.32 3,0.43l1.31,0.13l1.18,0.09l0.24,-0c0.75,0.05 1.41,0.07 2,0.07c0.59,-0 1.21,-0 2,-0.07l0.24,-0l1.18,-0.09l1.31,-0.13c0.92,-0.11 1.92,-0.25 3,-0.43c1.79,-0.3 3.18,-0.51 4.32,-0.64m-7.64,-20.74c0.438,-0.167 0.89,-0.298 1.35,-0.39c0.238,-0.051 0.478,-0.088 0.72,-0.11l0.25,-0c0.581,-0.041 1.163,0.04 1.71,0.24l0.25,0.11l0.23,0.12c0.126,0.071 0.246,0.151 0.36,0.24c0.165,0.115 0.293,0.274 0.37,0.46c0.014,0.069 0.014,0.141 -0,0.21c-0.009,0.066 -0.03,0.13 -0.06,0.19c-0.033,0.067 -0.077,0.128 -0.13,0.18c-0.059,0.057 -0.126,0.104 -0.2,0.14c-0.381,0.202 -0.809,0.299 -1.24,0.28l-0.38,-0l-0.37,-0.08c-0.11,-0.035 -0.217,-0.078 -0.32,-0.13c-0.18,-0.077 -0.352,-0.174 -0.51,-0.29c-0.271,-0.2 -0.576,-0.349 -0.9,-0.44c-0.416,-0.114 -0.85,-0.155 -1.28,-0.12c-0.688,0.053 -1.363,0.215 -2,0.48l-0.06,-0l0.06,-0l0.23,-0.14l0.25,-0.14c0.539,-0.299 1.101,-0.557 1.68,-0.77m4.19,-8.09l-0.28,-0c-0.632,-0.045 -1.257,-0.166 -1.86,-0.36c-0.603,-0.194 0.13,-0.06 0.38,-0.21c0.25,-0.15 0.31,-0.18 0.51,-0.32c1.16,-0.783 2.212,-1.714 3.13,-2.77l0.5,-0.58c0.16,-0.2 0.33,-0.42 0.49,-0.64c0.16,-0.22 0.34,-0.45 0.5,-0.69c1.255,-0.401 2.562,-0.616 3.88,-0.64l0.71,-0c0.167,-0.01 0.333,-0.01 0.5,-0c0.33,-0 0.67,0.07 1,0.13l0.51,0.11l0.51,0.15l0.51,0.17l0.55,0.16c0.257,0.119 0.508,0.253 0.75,0.4c0.598,0.356 1.143,0.794 1.62,1.3c0.372,0.406 0.706,0.845 1,1.31c0.194,0.324 0.371,0.658 0.53,1c-0,0.12 0.11,0.23 0.16,0.35c-0.236,0.273 -0.494,0.527 -0.77,0.76c-0.521,0.452 -1.095,0.838 -1.71,1.15c-0.294,0.15 -0.598,0.28 -0.91,0.39c-0.541,0.178 -1.102,0.292 -1.67,0.34c0.339,-0.08 0.673,-0.18 1,-0.3c0.143,-0.055 0.284,-0.119 0.42,-0.19c0.599,-0.27 1.166,-0.605 1.69,-1l0.46,-0.39c0.211,-0.192 0.412,-0.395 0.6,-0.61c-0.827,-1.312 -1.955,-2.409 -3.29,-3.2c-0.173,-0.212 -0.402,-0.371 -0.66,-0.46c-0.16,-0.06 -0.329,-0.091 -0.5,-0.09l-0.56,-0.18c-0.19,-0 -0.37,-0.1 -0.55,-0.13l-0.28,-0c-0.258,-0.047 -0.518,-0.081 -0.78,-0.1c-0.736,-0.052 -1.476,-0.005 -2.2,0.14l-0.34,0.07l-0.15,-0l-0.27,0.08c-0.2,0.052 -0.397,0.116 -0.59,0.19l-1.56,2l-1.57,2l0.33,0.22l0.32,0.21c-0.26,-0 -0.59,0.11 -1,0.15c-0.163,0.01 -0.327,0.01 -0.49,-0l-0.54,-0m8.81,-2.8c0.028,0.095 0.068,0.186 0.12,0.27c0.041,0.087 0.095,0.168 0.16,0.24l0.09,0.11l0.23,0.18c0.245,0.166 0.534,0.253 0.83,0.25c0.153,0.003 0.305,-0.021 0.45,-0.07l0.2,-0.08c0.067,-0.031 0.13,-0.068 0.19,-0.11c0.06,-0.042 -0,-0 -0,-0c-0.01,0.604 -0.19,1.194 -0.52,1.7c-0.17,0.24 -0.368,0.458 -0.59,0.65c-1.122,0.916 -2.748,0.916 -3.87,-0c-0.225,-0.19 -0.423,-0.408 -0.59,-0.65c-0.33,-0.506 -0.51,-1.096 -0.52,-1.7l-0,-0.31c0.048,-0.498 0.22,-0.976 0.5,-1.39c0.112,-0.159 0.236,-0.309 0.37,-0.45l0.22,-0.2c0.542,-0.449 1.226,-0.694 1.93,-0.69c0.14,-0.01 0.28,-0.01 0.42,-0c0.265,0.033 0.525,0.104 0.77,0.21c0.125,0.05 0.245,0.11 0.36,0.18c-0.124,0.059 -0.239,0.137 -0.34,0.23c-0.264,0.229 -0.438,0.545 -0.49,0.89c-0.005,0.073 -0.005,0.147 -0,0.22c-0.001,0.149 0.019,0.297 0.06,0.44m-7.87,4.68l-0.32,-0.09l0.41,0.11l-0.13,-0m14.87,-0.07c-0.144,0.313 -0.356,0.59 -0.62,0.81l-0.12,0.09c-0.084,0.071 -0.175,0.135 -0.27,0.19c-0.099,0.065 -0.202,0.121 -0.31,0.17c-0.183,0.096 -0.374,0.176 -0.57,0.24l-0.22,0.06c-0.238,0.076 -0.482,0.133 -0.73,0.17c-0.291,0.055 -0.585,0.091 -0.88,0.11l-1.8,-0c-0.4,-0 -0.84,-0 -1.3,-0.1c-1.27,-0.137 -2.532,-0.344 -3.78,-0.62c-0.41,-0.08 -0.84,-0.18 -1.28,-0.29c-0.89,-0.21 -1.84,-0.46 -2.86,-0.76l0.81,0.21l0.35,0.07l0.82,0.17c1.72,0.333 3.461,0.547 5.21,0.64l0.71,-0c0.722,0.027 1.445,-0.01 2.16,-0.11c0.26,-0 0.51,-0.08 0.74,-0.13c0.533,-0.109 1.055,-0.266 1.56,-0.47c0.18,-0.07 0.35,-0.15 0.51,-0.23l0.45,-0.24l0.39,-0.24l0.33,-0.24c0.173,-0.128 0.337,-0.269 0.49,-0.42c0.139,-0.124 0.267,-0.262 0.38,-0.41c0.011,0.126 0.011,0.254 -0,0.38c-0.005,0.307 -0.074,0.61 -0.2,0.89" style="fill:#fff;fill-rule:nonzero;"/><path d="M123.86,59.13c-0.143,-1.492 -0.528,-2.952 -1.14,-4.32c-0.12,-0.273 -0.25,-0.533 -0.39,-0.78c-0.16,-0.3 -0.33,-0.6 -0.51,-0.88c-0.339,-0.525 -0.713,-1.026 -1.12,-1.5c-0.2,-0.23 -0.42,-0.45 -0.63,-0.67l-0.17,-0.16l-0.51,-0.46l-0.3,-0.24l-0.08,-0.06l-0.15,-0.13l-0.14,-0.1c-0.19,-0.14 -0.38,-0.27 -0.58,-0.39l-0.14,-0.09l-0.29,-0.17l-0.07,0l-0.24,-0.18l-0.31,-0.18c-0.273,-0.14 -0.553,-0.27 -0.84,-0.39l-0.21,-0.09l-0.67,-0.25l-0.31,-0.11l-0.63,-0.18l-0.29,-0.08l-0.93,-0.2l-0.75,-0.1l-1.72,0l-3.12,-7.42l0.09,0c1.393,0 2.54,-1.147 2.54,-2.54c0,-0.646 -0.247,-1.269 -0.69,-1.74l-4.91,-5.23c0.609,-0.251 1.094,-0.733 1.35,-1.34c0.509,-1.121 0.125,-2.459 -0.9,-3.14l-6.1,-4.13c0.412,-0.466 0.639,-1.067 0.639,-1.688c0,-1.055 -0.654,-2.005 -1.639,-2.382l-11.7,-4.49l-0.3,-0.12l0.85,-0.29l0.24,-0.09l0.46,-0.15l0.34,-0.12l0.89,-0.3c1.122,-0.286 1.913,-1.304 1.913,-2.461c0,-1.394 -1.147,-2.54 -2.54,-2.54c-0.028,0 -0.055,0 -0.083,0.001l-0.3,0l-1.34,0.11l-0.5,0l-0.68,0.06l-0.36,0l-1.6,0.14l-0.23,0l-11.53,1l0.47,-1.26l0,-0.13l0.25,-0.73l0,-0.15l0.2,-0.6l0.8,-2.33c0.09,-0.264 0.136,-0.542 0.136,-0.821c0,-1.362 -1.095,-2.494 -2.456,-2.539c-0.696,-0.002 -1.362,0.284 -1.84,0.79l-2.09,2.21l-0.21,0.22l-0.32,0.34l-0.14,0.14l-0.65,0.7l-0.12,0.12l-3.39,3.58c-0.5,0.533 -0.961,1.101 -1.38,1.7l-0.87,-0.36c-0.31,-0.11 -0.61,-0.23 -0.92,-0.33l-0.85,-0.25l-0.21,-0.06l-0.07,0l-0.57,-0.14l-0.3,-0.08l-0.09,0l-0.52,-0.11l-0.37,0l-0.51,-0.09l-0.39,0l-0.5,-0.06l-0.35,0l-0.55,-0.05l-2,0c-0.61,0 -1.2,0 -1.78,0.1c-1.698,0.149 -3.375,0.485 -5,1l-10.8,3.27l-5.14,1.65c-1.21,0.385 -1.955,1.621 -1.73,2.87l0,0.11l-1.43,0.54c-0.991,0.366 -1.653,1.317 -1.653,2.373c0,0.627 0.233,1.232 0.653,1.697l-6.05,4.12c-0.702,0.471 -1.124,1.263 -1.124,2.109c0,1.039 0.638,1.978 1.604,2.361l-4.91,5.23c-0.455,0.473 -0.709,1.104 -0.709,1.76c0,1.394 1.147,2.54 2.54,2.54l0.119,0l-3.12,7.3l-1.04,0l-0.69,0.07c-0.07,-0.01 -0.14,-0.01 -0.21,0l-0.67,0.1l-0.19,0l-0.67,0.15l-0.18,0l-0.67,0.38l-0.15,0l-0.67,0.24l-0.13,0.06l-0.66,0.29l-0.12,0.06l-0.1,0l-0.34,0.17l-0.19,0.1l-0.13,0l-0.35,0.21l-0.16,0.1c-0.23,0.14 -0.44,0.29 -0.66,0.45l-0.21,0.32l-0.14,0.11l-0.06,0.05l-0.28,0.24l-0.22,0.19l-0.21,0.19l-0.09,0.1c-0.475,0.451 -0.91,0.943 -1.3,1.47c-0.417,0.548 -0.788,1.13 -1.11,1.74c-0.12,0.24 -0.24,0.47 -0.35,0.72c-0.363,0.793 -0.645,1.62 -0.84,2.47c-0.07,0.27 -0.12,0.54 -0.17,0.82c0.006,0.03 0.006,0.06 0,0.09c-0.08,0.5 -0.13,1 -0.16,1.5l0,1.85c0,0.23 0,0.47 0.06,0.7l0,0.07c0,0.25 0.07,0.51 0.12,0.76l0,0.11c0,0.24 0.09,0.45 0.14,0.66l0,0.15c0.07,0.25 0.13,0.5 0.21,0.74l0,0.1c0.06,0.19 0.13,0.41 0.21,0.62l0.06,0.18c0.09,0.22 0.17,0.44 0.26,0.65l0,0.07l0.32,0.68l0.08,0.14c0.1,0.21 0.2,0.39 0.3,0.57l0.09,0.15c0.13,0.22 0.26,0.43 0.4,0.64l0.08,0.11l0.37,0.53l0.13,0.17c0.16,0.2 0.32,0.41 0.49,0.6l0.13,0.16l0.06,0.07l0.29,0.37l0,0.06l0.21,0.3c0,0 0,0.07 0.06,0.07l0,0.08l0.15,0.22c0.07,0.13 0.15,0.24 0.22,0.36l0,0.06c0.08,0.13 0.12,0.22 0.17,0.3l0.06,0.12c0.049,0.08 0.093,0.164 0.13,0.25l0,0.2l0.18,0.38l0.08,0.2l0.12,0.29l0.11,0.28l0.09,0.26c0.06,0.16 0.12,0.32 0.17,0.48l0,0.19l0.12,0.37l0,0.16l0.22,0.71l0.36,1.18c0.1,0.32 0.21,0.63 0.32,0.94l0.12,0.32c0.251,0.683 0.541,1.351 0.87,2c0.18,0.35 0.38,0.69 0.58,1c0.07,0.12 0.15,0.23 0.22,0.34c0.07,0.11 0.31,0.45 0.48,0.67c0.17,0.22 0.35,0.44 0.54,0.66c0.19,0.22 0.39,0.44 0.6,0.65l0.32,0.32c0.462,0.432 0.95,0.836 1.46,1.21c0.4,0.29 0.83,0.57 1.27,0.84c0.647,0.371 1.315,0.705 2,1l0.12,0.06c0.39,0.16 0.8,0.32 1.24,0.48l0.18,0.06c0.42,0.15 0.83,0.27 1.24,0.38l0.18,0l0.43,0.1l0.27,0l1.25,0.24l0.12,0l0.46,0.07l1.46,0c0.25,0.79 0.52,1.54 0.8,2.23c0.28,0.69 0.45,1 0.54,1.21l0.36,0.75c0.424,0.89 0.898,1.754 1.42,2.59l3.92,6.3c0.466,0.743 1.283,1.197 2.16,1.2c0.23,-0.001 0.458,-0.031 0.68,-0.09c0.211,-0.06 0.412,-0.147 0.6,-0.26c0.576,0.752 1.248,1.424 2,2c0.428,0.337 0.883,0.638 1.36,0.9c0.634,0.35 1.305,0.629 2,0.83c0.33,0.593 0.697,1.164 1.1,1.71c0.23,0.3 0.47,0.6 0.74,0.92c0.897,1.038 1.902,1.977 3,2.8c2.143,1.579 4.527,2.801 7.06,3.62c3.016,0.974 6.139,1.579 9.3,1.8l0.8,0.06l2.68,0c0.53,0 1,-0.06 1.42,-0.09c1.678,-0.132 3.347,-0.359 5,-0.68c0.76,-0.15 1.51,-0.32 2.23,-0.51c0.72,-0.19 1.38,-0.39 2,-0.61c0.62,-0.22 1.26,-0.44 1.86,-0.69c0.988,-0.199 1.963,-0.456 2.92,-0.77c0.727,-0.393 1.432,-0.827 2.11,-1.3c0.42,-0.29 0.83,-0.6 1.22,-0.91c0.55,-0.443 1.078,-0.913 1.58,-1.41c0.443,-0.443 0.86,-0.91 1.25,-1.4c0.544,-0.679 1.033,-1.402 1.46,-2.16c2.141,-0.605 4.015,-1.921 5.31,-3.73c0.176,0.093 0.36,0.17 0.55,0.23c0.222,0.059 0.45,0.089 0.68,0.09c0.877,-0.003 1.694,-0.457 2.16,-1.2l3.92,-6.3c0.41,-0.65 0.81,-1.36 1.22,-2.18c0.2,-0.4 0.39,-0.8 0.56,-1.16c0.081,-0.146 0.155,-0.296 0.22,-0.45c0.06,-0.13 0.12,-0.28 0.2,-0.47c0.29,-0.67 0.56,-1.42 0.82,-2.21l0.09,-0.29l2.42,0l0.55,-0.11l0.15,0l0.24,-0.05l0.31,-0.07l0.14,0l0.25,-0.06l0.31,-0.08l0.16,0l0.24,-0.07l0.32,-0.1l0.15,0l0.24,-0.07l0.32,-0.12l0.16,0l0.23,-0.08l0.33,-0.14l0.16,0l0.22,-0.09l0.35,-0.16l0.15,0l0.21,-0.1l0.43,-0.22l0.1,0l0.18,-0.09l0.7,-0.4c0.575,-0.347 1.129,-0.728 1.66,-1.14c0.26,-0.2 0.5,-0.4 0.73,-0.6c0.23,-0.2 0.67,-0.62 1,-1c0.33,-0.38 0.57,-0.65 0.83,-1c0.407,-0.533 0.774,-1.094 1.1,-1.68l0.18,-0.34c0.12,-0.22 0.23,-0.45 0.33,-0.67l0.15,-0.34c0.21,-0.49 0.42,-1 0.62,-1.62c0.2,-0.62 0.39,-1.2 0.58,-1.8l0.15,-0.51l0,-0.08l0.14,-0.47c0.12,-0.36 0.23,-0.7 0.36,-1l0.06,-0.18c0.06,-0.16 0.13,-0.32 0.2,-0.48l0.22,-0.5c0.17,-0.36 0.34,-0.68 0.52,-1l0.11,-0.18l0.11,-0.17c-0.002,-0.02 -0.002,-0.04 0,-0.06l0.12,-0.17l0.05,-0.08l0.07,-0.09l0.18,-0.26l0.33,-0.42l0.06,-0.07l0.13,-0.16c2.563,-2.986 3.799,-6.893 3.42,-10.81m-5.34,9.15l-0.23,0.28l-0.4,0.5l-0.22,0.31c-0.05,0.064 -0.097,0.131 -0.14,0.2c-0.07,0.09 -0.13,0.19 -0.19,0.28l-0.13,0.2l-0.13,0.23c-0.233,0.381 -0.444,0.775 -0.63,1.18c-0.09,0.18 -0.17,0.37 -0.25,0.55c-0.08,0.19 -0.16,0.37 -0.23,0.56l-0.08,0.21c-0.13,0.37 -0.26,0.74 -0.38,1.1l-0.15,0.5l0,0.09c-0.05,0.17 -0.1,0.34 -0.16,0.51c-0.17,0.57 -0.34,1.15 -0.54,1.72c-0.2,0.57 -0.34,1 -0.55,1.43c0,0.09 -0.08,0.19 -0.13,0.28c-0.05,0.09 -0.18,0.38 -0.27,0.57l-0.15,0.28c-0.269,0.476 -0.57,0.934 -0.9,1.37c-0.209,0.278 -0.433,0.545 -0.67,0.8c-0.25,0.26 -0.51,0.52 -0.8,0.78c-0.29,0.26 -0.39,0.33 -0.6,0.5c-0.448,0.364 -0.919,0.698 -1.41,1l-0.6,0.34l-0.2,0.1c-0.131,0.08 -0.268,0.15 -0.41,0.21l-0.24,0.12l-0.37,0.17l-0.26,0.1l-0.35,0.15l-0.27,0.1l-0.35,0.12l-0.28,0.09l-0.34,0.11l-0.28,0.08l-0.34,0.09l-0.28,0.07l-0.33,0.08l-0.29,0.06l-0.32,0.07l-0.29,0l-0.3,-0.52l-3.56,0c-0.2,0.74 -0.39,1.4 -0.58,2c-0.29,0.86 -0.55,1.54 -0.75,2l-0.18,0.41l-0.19,0.4c-0.16,0.35 -0.34,0.72 -0.53,1.1c-0.33,0.64 -0.69,1.32 -1.1,2l-3.93,6.3l-0.08,-3.21c-0.58,0.491 -1.188,0.948 -1.82,1.37c-0.785,3.03 -3.292,5.325 -6.38,5.84c-0.456,1.003 -1.037,1.944 -1.73,2.8c-0.336,0.418 -0.693,0.818 -1.07,1.2c-0.424,0.431 -0.871,0.838 -1.34,1.22c-0.33,0.27 -0.68,0.54 -1.06,0.8c-0.603,0.415 -1.227,0.799 -1.87,1.15c-0.723,0.395 -1.467,0.748 -2.23,1.06c-0.54,0.22 -1.1,0.43 -1.7,0.63c-0.6,0.2 -1.22,0.39 -1.88,0.56c-0.66,0.17 -1.34,0.33 -2.07,0.48c-1.567,0.301 -3.149,0.514 -4.74,0.64l-1.32,0.08l-3.17,0c-2.957,-0.205 -5.879,-0.77 -8.7,-1.68c-2.278,-0.729 -4.423,-1.823 -6.35,-3.24c-0.947,-0.712 -1.816,-1.523 -2.59,-2.42c-0.23,-0.27 -0.44,-0.53 -0.63,-0.79c-0.573,-0.771 -1.06,-1.602 -1.45,-2.48c-0.887,-0.126 -1.744,-0.411 -2.53,-0.84c-0.353,-0.192 -0.688,-0.416 -1,-0.67c-0.736,-0.581 -1.363,-1.289 -1.85,-2.09c-0.1,-0.15 -0.19,-0.31 -0.27,-0.46c-0.307,-0.566 -0.555,-1.163 -0.74,-1.78c-0.641,-0.427 -1.258,-0.887 -1.85,-1.38l-0.07,3.54l-3.93,-6.3c-0.466,-0.765 -0.893,-1.552 -1.28,-2.36l-0.35,-0.72c0,-0.07 -0.22,-0.43 -0.47,-1.07c-0.25,-0.64 -0.5,-1.28 -0.79,-2.21c-0.1,-0.31 -0.19,-0.64 -0.29,-1l-0.15,-0.54l-3.04,0l-0.39,-0.34l-0.11,0l-1.1,-0.21l-0.19,-0.05l-0.43,-0.1l-0.15,0c-0.36,-0.1 -0.72,-0.21 -1.08,-0.33l-0.16,-0.06c-0.36,-0.12 -0.72,-0.26 -1.08,-0.41l-0.11,0c-0.587,-0.263 -1.158,-0.56 -1.71,-0.89c-0.82,-0.494 -1.587,-1.07 -2.29,-1.72c-0.09,-0.09 -0.18,-0.17 -0.26,-0.26c-0.08,-0.09 -0.34,-0.35 -0.49,-0.52c-0.15,-0.17 -0.3,-0.36 -0.44,-0.54c-0.14,-0.18 -0.27,-0.36 -0.39,-0.54l-0.22,-0.37c-0.17,-0.27 -0.33,-0.55 -0.47,-0.83c-0.291,-0.551 -0.542,-1.123 -0.75,-1.71c0,-0.09 -0.07,-0.19 -0.11,-0.28c-0.1,-0.29 -0.19,-0.58 -0.29,-0.86c-0.1,-0.28 -0.24,-0.77 -0.35,-1.15l-0.21,-0.67c-0.019,-0.075 -0.042,-0.148 -0.07,-0.22l-0.12,-0.4c-0.028,-0.068 -0.051,-0.139 -0.07,-0.21l-0.18,-0.52c0,-0.1 -0.08,-0.2 -0.11,-0.3c-0.03,-0.1 -0.06,-0.25 -0.13,-0.35c-0.07,-0.1 -0.09,-0.23 -0.14,-0.35c-0.029,-0.075 -0.063,-0.149 -0.1,-0.22c-0.06,-0.16 -0.14,-0.31 -0.21,-0.47l-0.05,-0.11c-0.019,-0.045 -0.043,-0.089 -0.07,-0.13l-0.15,-0.31c0,0 0,-0.09 -0.08,-0.14l-0.13,-0.31l-0.07,-0.13l-0.27,-0.43l-0.21,-0.33l-0.09,-0.12l-0.36,-0.37l0,-0.08c-0.11,-0.15 -0.23,-0.3 -0.35,-0.44l-0.23,-0.28c-0.14,-0.16 -0.27,-0.32 -0.4,-0.49l-0.4,-0.56l-0.07,-0.1c-0.119,-0.171 -0.23,-0.348 -0.33,-0.53l-0.07,-0.12c-0.095,-0.155 -0.182,-0.315 -0.26,-0.48c-0.078,-0.165 -0.05,-0.09 -0.08,-0.14c-0.03,-0.05 -0.18,-0.37 -0.26,-0.56c-0.08,-0.18 -0.15,-0.36 -0.22,-0.54c-0.07,-0.18 0,-0.1 -0.05,-0.15c-0.07,-0.173 -0.131,-0.35 -0.18,-0.53c-0.004,-0.02 -0.004,-0.04 0,-0.06c-0.06,-0.21 -0.12,-0.41 -0.17,-0.62l0,-0.12c0,-0.17 -0.08,-0.35 -0.11,-0.52c-0.03,-0.17 0,-0.08 0,-0.12c0,-0.21 -0.07,-0.42 -0.1,-0.63l0,-0.05c-0.03,-0.196 -0.05,-0.392 -0.06,-0.59c-0.01,-0.198 0,-0.08 0,-0.12l0,-1.31c-0.004,-0.023 -0.004,-0.047 0,-0.07c0.018,-0.409 0.061,-0.816 0.13,-1.22c0,-0.23 0.09,-0.47 0.14,-0.7c0.16,-0.687 0.388,-1.357 0.68,-2c0.09,-0.2 0.19,-0.39 0.29,-0.58c0.256,-0.489 0.55,-0.958 0.88,-1.4c0.324,-0.422 0.678,-0.819 1.06,-1.19l0.16,-0.27l0.19,-0.18l0.28,-0.22l0.07,-0.06l0.19,-0.15l0.55,-0.37l0.1,-0.07l0.07,0c0.083,-0.056 0.17,-0.106 0.26,-0.15l0.17,-0.1l0.35,-0.21l0.11,0l0.52,-0.23l0.12,0l0.52,-0.19l0.15,-0.05l0.52,-0.15l0.16,0l0.52,-0.11l0.19,0l0.52,-0.08l0.21,0c0.18,0 0.36,0 0.55,-0.06l2.52,0l4.16,-9.94c0.38,-0.88 0.81,-1.85 1.32,-2.84c0.31,-0.59 0.65,-1.19 1,-1.78c0.21,-0.36 0.43,-0.71 0.67,-1.06l-5.79,2.94l8.58,-9.14c0.53,-0.56 1.11,-1.17 1.75,-1.77l-6.33,1.58l10.39,-7c0.49,-0.33 1,-0.69 1.59,-1l-5.39,0.1l3.83,-1.47l6.15,-2.35l-6.64,0.33l-0.35,0l5.12,-1.64l10.8,-3.51c1.453,-0.46 2.952,-0.759 4.47,-0.89c0.533,-0.047 1.063,-0.077 1.59,-0.09l3.06,0l0.35,0.05l0.44,0.07l0.39,0.28l0.46,0.09l0.3,0.07l0.51,0.13l0.24,0.06l0.74,0.22l0.81,0.29c0.53,0.21 1.06,0.44 1.57,0.69l0.76,0.4l0.38,0.23c0.569,-1.217 1.321,-2.34 2.23,-3.33l3.43,-3.62l0.12,-0.13l0.66,-0.69l0.13,-0.14l0.32,-0.34l0.21,-0.22l2.05,-2.17l-0.79,2.34l-0.08,0.23l-0.12,0.36l0,0.15l-0.25,0.74l0,0.13l-1.75,5.16c0.22,-0.05 0.43,-0.08 0.62,-0.11l0.45,0l0.83,-0.07l0.33,0l13.13,-1.13l0.23,0l1.61,-0.14l0.35,0l0.69,-0.06l0.5,0l1.33,-0.32l-0.94,0.33l-0.34,0.12l-0.46,0.15l-0.26,0.08l-1,0.36l-0.14,0.05l-4.09,1.39l-3.77,1.29c0.91,0.1 1.79,0.23 2.63,0.4c0.28,0 0.56,0.11 0.83,0.18c1.707,0.366 3.38,0.878 5,1.53l11.7,4.48l-5.39,-0.1c0.57,0.35 1.1,0.71 1.59,1l10.39,7l-6.33,-1.58c0.64,0.6 1.23,1.21 1.75,1.77l8.58,9.14l-5.78,-2.94c0.23,0.35 0.45,0.7 0.66,1.06c0.909,1.473 1.695,3.018 2.35,4.62l4.15,9.71l0.98,0c0.19,-0.01 0.38,-0.01 0.57,0l1.51,0c0.208,0.019 0.415,0.05 0.62,0.09c0.26,0 0.52,0.1 0.77,0.16l0.23,0.06l0.51,0.15l0.26,0.09l0.49,0.18l0.22,0.09c0.23,0.1 0.45,0.2 0.67,0.32c0.107,0.051 0.21,0.107 0.31,0.17l0.27,0.15l0.1,0.07c0.167,0.095 0.328,0.202 0.48,0.32l0.08,0.06l0.18,0.14l0.07,0l0.24,0.18l0.4,0.37l0.13,0.12c0.18,0.17 0.34,0.35 0.51,0.53c0.324,0.375 0.622,0.773 0.89,1.19c0.14,0.23 0.28,0.47 0.41,0.71c0.13,0.24 0.22,0.42 0.31,0.64c0.502,1.114 0.817,2.303 0.93,3.52c0.303,3.223 -0.712,6.435 -2.81,8.9" style="fill:#fff;fill-rule:nonzero;"/><path d="M95.11,62.4c0,-0.34 -0.06,-0.68 -0.1,-1c-0.179,-1.528 -0.494,-3.037 -0.94,-4.51l-0.35,-1.1l-0.21,-0.55c-0.08,-0.18 -0.15,-0.36 -0.22,-0.54l-0.22,-0.54l-0.26,-0.53l-0.37,-0.76c-0.26,-0.401 -0.54,-0.788 -0.84,-1.16c-1.392,-1.682 -3.088,-3.086 -5,-4.14l-0.6,-0.32c-0.54,-0.29 -1.09,-0.55 -1.64,-0.79l-0.82,-0.32c-0.54,-0.21 -1.09,-0.39 -1.62,-0.54c-0.8,-0.23 -1.57,-0.41 -2.3,-0.55c-0.773,-0.102 -1.551,-0.155 -2.33,-0.16c-0.501,-0.002 -1.002,0.021 -1.5,0.07c-0.722,0.066 -1.438,0.189 -2.14,0.37c-0.448,0.114 -0.889,0.255 -1.32,0.42c-0.414,0.166 -0.818,0.356 -1.21,0.57c-0.762,0.42 -1.456,0.953 -2.06,1.58c-0.353,0.386 -0.687,0.79 -1,1.21c-0.562,0.76 -1.036,1.582 -1.41,2.45c-0.167,0.39 -0.307,0.791 -0.42,1.2c-0.162,0.565 -0.269,1.144 -0.32,1.73c-0.024,0.363 -0.024,0.727 -0,1.09l-0,0.52c0.045,0.478 0.135,0.95 0.27,1.41c0.083,0.28 0.187,0.554 0.31,0.82c-0,0.12 0.12,0.24 0.18,0.36c0.175,0.322 0.394,0.618 0.65,0.88c0.219,0.226 0.481,0.406 0.77,0.53c0.262,0.109 0.548,0.15 0.83,0.12c0.303,-0.039 0.592,-0.152 0.84,-0.33c0.64,-0.46 1.44,-1 2.36,-1.56c1.159,-0.702 2.394,-1.272 3.68,-1.7c0.527,-0.181 1.065,-0.328 1.61,-0.44c0.574,-0.12 1.155,-0.204 1.74,-0.25l1.22,-0c2.091,0.062 4.141,0.592 6,1.55c1.026,0.502 2.004,1.097 2.92,1.78c0.34,0.26 0.66,0.52 0.95,0.78c0.352,0.314 0.686,0.648 1,1c0.22,0.26 0.43,0.51 0.61,0.76l0.34,0.49c0.15,0.25 0.29,0.48 0.41,0.71c0.331,0.633 0.583,1.305 0.75,2l-0,-0.2l-0.07,-0.41l-0.14,-0.83l-0.21,-0.82l-0.11,-0.41l-0.12,-0.34l-0.28,-0.8c-0.1,-0.27 -0.21,-0.53 -0.33,-0.8l-0.18,-0.4c-0,-0.13 -0.11,-0.27 -0.17,-0.4c0.15,0.25 0.31,0.49 0.47,0.74c0.16,0.25 0.32,0.5 0.46,0.75l0.41,0.78l0.2,0.39l0.18,0.4l0.34,0.81l0.28,0.82l0.14,0.42l0.06,0.21l-0,0.21c-0,0.18 0.09,0.36 0.13,0.53l-0,-1.31l-0.05,-0.51l-0.07,-0.5l-0.15,-1l-0.21,-1c-0.06,-0.33 -0.14,-0.66 -0.23,-1c-0.09,-0.34 -0.19,-0.66 -0.28,-1c-0.09,-0.34 -0.2,-0.65 -0.31,-1c-0.11,-0.35 -0.23,-0.65 -0.34,-1c0.14,0.32 0.29,0.63 0.44,1c0.15,0.37 0.3,0.63 0.43,0.95c0.13,0.32 0.26,0.64 0.38,1c0.134,0.327 0.251,0.661 0.35,1l0.32,1l0.16,0.59l0.11,0.42l0.06,0.25l0.07,0.25l-0,0.51c-0,0.12 -0,0.25 0.08,0.38l-0,-0.77c-0,-0.47 -0.06,-1 -0.1,-1.42" style="fill:#fff;fill-rule:nonzero;"/><path d="M118,58.88c0.003,-0.063 0.003,-0.127 0,-0.19c-0.11,-0.516 -0.274,-1.019 -0.49,-1.5c0,-0.09 -0.09,-0.19 -0.15,-0.29c-0.06,-0.1 -0.11,-0.21 -0.17,-0.32c-0.06,-0.11 -0.13,-0.22 -0.2,-0.33c0.003,-0.02 0.003,-0.04 0,-0.06l-0.17,-0.25c-0.127,-0.167 -0.267,-0.337 -0.42,-0.51c-0.157,-0.177 -0.323,-0.343 -0.5,-0.5c-0.389,-0.353 -0.819,-0.658 -1.28,-0.91c-0.168,-0.093 -0.342,-0.177 -0.52,-0.25c-0.185,-0.085 -0.376,-0.159 -0.57,-0.22c-0.328,-0.108 -0.662,-0.194 -1,-0.26c-0.612,-0.124 -1.235,-0.187 -1.86,-0.19l-0.93,-0c-1.738,0.142 -3.435,0.61 -5,1.38c-0.28,0.13 -0.56,0.27 -0.84,0.43l-1.43,0.78c0.05,0.2 0.1,0.4 0.14,0.59l0.12,0.6l0.06,0.35c0.07,0.35 0.12,0.7 0.16,1.05c0.04,0.35 0.06,0.59 0.09,0.89l0.56,-0.35c0.38,-0.23 0.77,-0.44 1.17,-0.64l0.61,-0.28c0.804,-0.361 1.646,-0.629 2.51,-0.8c0.287,-0.061 0.578,-0.108 0.87,-0.14c0.412,-0.046 0.826,-0.066 1.24,-0.06l0.44,-0c0.292,0.014 0.583,0.047 0.87,0.1c0.294,0.051 0.585,0.121 0.87,0.21l0.42,0.15c0.28,0.115 0.545,0.262 0.79,0.44c0.126,0.089 0.243,0.19 0.35,0.3c0.058,0.052 0.112,0.109 0.16,0.17c0.345,0.408 0.582,0.896 0.69,1.42c0.057,0.29 0.084,0.585 0.08,0.88c0.002,0.288 -0.021,0.576 -0.07,0.86c-0,0.15 -0,0.29 -0.08,0.43c-0.087,0.421 -0.204,0.835 -0.35,1.24c-0.1,0.26 -0.2,0.53 -0.31,0.79c-0.34,0.78 -0.741,1.533 -1.2,2.25c0.554,-0.982 1,-2.022 1.33,-3.1c0.156,-0.536 0.263,-1.085 0.32,-1.64c0.063,-0.542 0.029,-1.09 -0.1,-1.62c-0.033,-0.13 -0.076,-0.257 -0.13,-0.38c-0.14,-0.382 -0.369,-0.725 -0.67,-1c-0.404,-0.338 -0.885,-0.571 -1.4,-0.68c-0.522,-0.135 -1.061,-0.199 -1.6,-0.19c-0.543,-0.012 -1.086,0.032 -1.62,0.13c-0.266,0.041 -0.53,0.098 -0.79,0.17c-0.389,0.104 -0.773,0.227 -1.15,0.37c-0.38,0.15 -0.74,0.31 -1.11,0.49l-0.36,0.19c-0.35,0.19 -0.7,0.4 -1,0.62l-0.67,0.46c-0.22,0.16 -0.44,0.32 -0.65,0.49l0,1.17c0,0.56 -0.08,1.12 -0.14,1.66c-0.06,0.54 -0.18,1.09 -0.26,1.62c-0.11,-0.4 -0.21,-0.79 -0.32,-1.17l-0.12,-0.38l-0.27,-0.76c-0.09,-0.24 -0.18,-0.49 -0.29,-0.73l0,-0.12l-0.1,0.09l-0.09,0.09c0.05,0.65 0.08,1.3 0.07,1.94l0,1.29c0.516,-0.081 1.043,-0.04 1.54,0.12l0.28,0.11l0.29,0.14c0.223,0.121 0.417,0.288 0.57,0.49c0.074,0.105 0.141,0.216 0.2,0.33c0.233,0.52 0.306,1.098 0.21,1.66c-0.032,0.23 -0.092,0.455 -0.18,0.67c-0.312,0.813 -0.91,1.485 -1.68,1.89c-0.469,0.242 -0.977,0.401 -1.5,0.47l-0.42,0.71c-0.14,0.23 -0.28,0.46 -0.41,0.69c-0.083,0.128 -0.157,0.261 -0.22,0.4c-0.106,0.192 -0.197,0.393 -0.27,0.6c-0.044,0.134 -0.077,0.271 -0.1,0.41l0,0.2c-0.01,0.202 0.01,0.404 0.06,0.6c0.031,0.13 0.081,0.255 0.15,0.37c0.03,0.056 0.063,0.109 0.1,0.16c0.08,0.105 0.175,0.2 0.28,0.28c0.106,0.087 0.224,0.157 0.35,0.21c0.394,0.167 0.829,0.215 1.25,0.14c0.289,-0.051 0.569,-0.145 0.83,-0.28c0.265,-0.133 0.511,-0.301 0.73,-0.5c0.117,-0.099 0.227,-0.206 0.33,-0.32c0.309,-0.339 0.574,-0.715 0.79,-1.12l0.2,-0.42l0.09,-0.21l0.09,-0.22l0.29,-0.66c0.029,-0.075 0.063,-0.149 0.1,-0.22c0.07,-0.14 0.14,-0.28 0.22,-0.42c0.068,-0.147 0.148,-0.287 0.24,-0.42l0.26,-0.4l0.3,-0.38c0.288,-0.376 0.624,-0.712 1,-1c0.131,-0.093 0.268,-0.176 0.41,-0.25c0.559,-0.314 1.201,-0.454 1.84,-0.4c-0.235,-0.035 -0.475,-0.035 -0.71,-0c-0.385,0.076 -0.754,0.218 -1.09,0.42l-0.39,0.26c-0.378,0.285 -0.715,0.622 -1,1l-0.28,0.38c-0.08,0.13 -0.16,0.27 -0.23,0.41c-0.156,0.268 -0.296,0.545 -0.42,0.83c-0.13,0.29 -0.23,0.59 -0.34,0.88l-0.17,0.45c-0.06,0.15 -0.13,0.3 -0.19,0.44c-0.262,0.52 -0.599,0.998 -1,1.42l-0.17,0.18l-0.19,0.16c-0.446,0.392 -0.982,0.667 -1.56,0.8c-0.257,0.05 -0.519,0.071 -0.78,0.06c-0.463,0.043 -0.929,-0.051 -1.34,-0.27c-0.224,-0.161 -0.417,-0.36 -0.57,-0.59c0,-0.08 -0.09,-0.16 -0.13,-0.25c-0.04,-0.09 0,-0.08 0,-0.13c-0.109,-0.298 -0.16,-0.613 -0.15,-0.93c0,-0.178 0.02,-0.356 0.06,-0.53l0.06,-0.25l0.09,-0.25c0.026,-0.078 0.056,-0.155 0.09,-0.23c0.073,-0.16 0.143,-0.31 0.21,-0.45c0,-0.08 0.07,-0.15 0.11,-0.22l0.23,-0.43c0.23,-0.42 0.46,-0.82 0.66,-1.23l0.09,-0.21c0.06,-0.13 0.12,-0.27 0.17,-0.41c0.05,-0.14 0.09,-0.28 0.12,-0.41c0.054,-0.203 0.084,-0.411 0.09,-0.62c0.005,-0.067 0.005,-0.133 0,-0.2c0.005,-0.067 0.005,-0.133 0,-0.2c-0.013,-0.135 -0.036,-0.269 -0.07,-0.4c-0.08,-0.258 -0.194,-0.503 -0.34,-0.73c-0.069,-0.118 -0.149,-0.228 -0.24,-0.33c-0.082,-0.11 -0.172,-0.214 -0.27,-0.31l-0,1.87c-0,0.56 -0.08,1.12 -0.13,1.66l-0.06,0.41c-0.06,0.41 -0.14,0.81 -0.21,1.21c-0,-0.13 -0.07,-0.26 -0.11,-0.39l-0.21,-0.78l-0.12,-0.38c-0,-0.13 -0.09,-0.25 -0.13,-0.38l-0.27,-0.74c-0,-0.13 -0.1,-0.25 -0.16,-0.37c-0.13,-0.32 -0.27,-0.64 -0.42,-1c-0.15,-0.36 -0.31,-0.61 -0.48,-0.91c0.386,2.092 0.636,4.206 0.75,6.33l-0,1.92c-0,0.94 -0,1.83 -0.06,2.69c-0,0.57 -0.07,1.12 -0.12,1.66c-0,0.27 -0.05,0.53 -0.08,0.79c-0.05,0.51 -0.12,1 -0.19,1.49l-0.09,0.59c-0,0.19 -0.06,0.38 -0.1,0.56l1.63,0c0.92,0.004 1.839,-0.059 2.75,-0.19l0.51,-0.09c0.506,-0.085 1.007,-0.199 1.5,-0.34l0.48,-0.15c0.31,-0.1 0.62,-0.21 0.92,-0.34l0.44,-0.19c0.294,-0.127 0.582,-0.271 0.86,-0.43l0.41,-0.23c1.28,-0.698 2.355,-1.719 3.12,-2.96c0.168,-0.284 0.318,-0.578 0.45,-0.88c0.14,-0.3 0.263,-0.607 0.37,-0.92c0.24,-0.63 0.44,-1.29 0.65,-2c0.411,-1.49 0.95,-2.942 1.61,-4.34c0.258,-0.532 0.545,-1.05 0.86,-1.55c0.22,-0.35 0.47,-0.71 0.73,-1.06l0.41,-0.54l0.45,-0.54c0.14,-0.16 0.26,-0.32 0.38,-0.48c0.192,-0.254 0.366,-0.522 0.52,-0.8c0.478,-0.825 0.816,-1.724 1,-2.66c0.102,-0.497 0.158,-1.003 0.17,-1.51l-0,-0.22c-0,-0.527 -0.05,-1.053 -0.15,-1.57" style="fill:#fff;fill-rule:nonzero;"/><path d="M146,10.79c2.833,-0 4.763,0.513 5.79,1.54c1.027,1.027 1.537,2.967 1.53,5.82l0,17.09c0,2.83 -0.51,4.76 -1.53,5.77c-1.02,1.01 -3,1.55 -5.79,1.55l-8.58,0c-2.85,0 -4.78,-0.51 -5.8,-1.55c-1.02,-1.04 -1.54,-2.94 -1.54,-5.77l0,-17.09c0,-2.86 0.513,-4.8 1.54,-5.82c1.027,-1.02 2.96,-1.533 5.8,-1.54l8.58,-0Zm-2.51,6.21c0,-0.33 -0.17,-0.5 -0.52,-0.5l-2.53,-0c-0.35,-0 -0.52,0.17 -0.52,0.5l0,19.31c0,0.36 0.17,0.54 0.52,0.54l2.56,0c0.35,0 0.52,-0.18 0.52,-0.54l-0.03,-19.31Z" style="fill:#fff;fill-rule:nonzero;"/><path d="M155.42,10.79l23.59,-0l-0,5.71l-6.88,0l-0,26.06l-9.83,0l0,-26.06l-6.88,0l-0,-5.71Z" style="fill:#fff;fill-rule:nonzero;"/><path d="M181.11,10.79l9.83,-0l-0,13.05l3.57,-0l-0,-13.05l9.84,-0l-0,31.77l-9.84,0l-0,-13.03l-3.57,0l-0,13.03l-9.83,0l0,-31.77Z" style="fill:#fff;fill-rule:nonzero;"/><path d="M207.28,10.79l17.71,-0l0,5.71l-7.88,0l0,6.65l7.88,0l0,5.63l-7.88,0l0,8.07l7.88,0l0,5.71l-17.71,0l0,-31.77Z" style="fill:#fff;fill-rule:nonzero;"/><path d="M243.84,10.79c2.827,-0 4.757,0.513 5.79,1.54c1.033,1.027 1.543,2.967 1.53,5.82l0,0.92c0,2.48 -0.31,4.17 -0.92,5.06c-0.61,0.89 -2.1,1.5 -4.5,1.89c2.4,0.4 3.9,1.04 4.5,1.92c0.612,0.88 0.934,1.929 0.92,3l0,6.66c-0.07,1.683 0.105,3.367 0.52,5l-9.83,-0c-0.411,-1.725 -0.586,-3.498 -0.52,-5.27l0,-6.78c0.004,-0.214 -0.129,-0.407 -0.33,-0.48l-3.25,-0l0,12.49l-9.83,0l0,-31.77l15.92,-0Zm-2.51,6.21c0,-0.36 -0.17,-0.54 -0.52,-0.54l-3.06,-0l0,8.24l3.06,-0c0.021,0.003 0.043,0.005 0.065,0.005c0.252,-0 0.46,-0.208 0.46,-0.46c0,-0.022 -0.002,-0.044 -0.005,-0.065l0,-7.18Z" style="fill:#fff;fill-rule:nonzero;"/><path d="M142.34,75.3l-2.42,-10.67l-0,14.04l-9.83,0l0,-31.78l9.83,0l4.7,17.72l4.75,-17.72l9.83,0l-0,31.78l-9.83,0l0,-14.04l-2.42,10.67l-4.61,0Z" style="fill:#fff;fill-rule:nonzero;"/><path d="M178.05,46.89c2.827,0 4.76,0.517 5.8,1.55c1.04,1.033 1.547,2.97 1.52,5.81l-0,17.09c-0,2.84 -0.51,4.76 -1.52,5.78c-1.01,1.02 -3,1.55 -5.8,1.55l-8.57,0c-2.853,0 -4.787,-0.517 -5.8,-1.55c-1,-1 -1.55,-2.94 -1.55,-5.78l0,-17.09c0,-2.853 0.517,-4.79 1.55,-5.81c1.033,-1.02 2.967,-1.537 5.8,-1.55l8.57,0Zm-2.51,6.21c-0,-0.33 -0.17,-0.5 -0.52,-0.5l-2.53,0c-0.35,0 -0.53,0.17 -0.53,0.5l0,19.31c-0.004,0.024 -0.006,0.049 -0.006,0.073c0,0.264 0.217,0.48 0.48,0.48c0.019,0 0.038,-0.001 0.056,-0.003l2.51,0c0.35,0 0.52,-0.19 0.52,-0.55l0.02,-19.31Z" style="fill:#fff;fill-rule:nonzero;"/><path d="M202.97,78.67l-4.84,-14.21l0,14.21l-9.83,-0l0,-31.78l9.42,-0l4.83,14.23l0,-14.23l9.83,-0l0,31.78l-9.41,-0Z" style="fill:#fff;fill-rule:nonzero;"/><path d="M215.31,46.89l9.83,0l-0,10.56l4.14,-10.56l9.27,0l-5.88,14.73l6.63,17.05l-10.31,0l-3.85,-11.76l-0,11.76l-9.83,0l0,-31.78Z" style="fill:#fff;fill-rule:nonzero;"/><path d="M240.97,46.89l17.72,0l0,5.71l-7.88,0l0,6.66l7.88,-0l0,5.62l-7.88,-0l0,8.08l7.88,-0l0,5.71l-17.72,0l0,-31.78Z" style="fill:#fff;fill-rule:nonzero;"/><path d="M267.92,64.86l-7.55,-17.97l9.3,0l3.18,10.5l3.16,-10.5l9.31,0l-7.55,17.97l-0,13.81l-9.85,0l0,-13.81Z" style="fill:#fff;fill-rule:nonzero;"/><path d="M146,83c2.833,0 4.763,0.513 5.79,1.54c1.003,0.978 1.558,2.329 1.53,3.73l0,3.6c0,4 -2.157,6 -6.47,6c4.307,0 6.463,1.973 6.47,5.92l0,5.73c0.022,1.385 -0.532,2.719 -1.53,3.68c-1,1 -3,1.55 -5.79,1.55l-15.91,-0l0,-31.75l15.91,-0Zm-2.51,6.25c0.004,-0.025 0.006,-0.05 0.006,-0.075c0,-0.257 -0.212,-0.47 -0.47,-0.47c-0.022,-0 -0.044,0.002 -0.066,0.005l-3.05,-0l0,6.29l3.09,-0c0.025,0.004 0.05,0.006 0.075,0.006c0.252,-0 0.46,-0.208 0.46,-0.46c0,-0.022 -0.002,-0.044 -0.005,-0.066l-0.04,-5.23Zm-3.58,11.44l0,8.37l3.09,-0c0.35,-0 0.53,-0.17 0.53,-0.5l0,-7.36c0.002,-0.019 0.003,-0.037 0.003,-0.056c0,-0.252 -0.207,-0.46 -0.46,-0.46c-0.024,-0 -0.049,0.002 -0.073,0.006l-3.09,-0Z" style="fill:#fff;fill-rule:nonzero;"/><path d="M172.17,83c2.83,0 4.77,0.51 5.8,1.54c1.03,1.03 1.53,3 1.53,5.82l-0,0.92c-0,2.48 -0.31,4.17 -0.93,5.06c-0.62,0.89 -2.09,1.49 -4.49,1.88c2.4,0.407 3.897,1.05 4.49,1.93c0.619,0.877 0.945,1.927 0.93,3l-0,6.69c-0.075,1.683 0.1,3.368 0.52,5l-9.83,-0c-0.415,-1.724 -0.594,-3.497 -0.53,-5.27l-0,-6.74c0.004,-0.214 -0.129,-0.407 -0.33,-0.48l-3.24,-0l0,12.49l-9.84,-0l0,-31.84l15.92,-0Zm-2.51,6.25c0,-0.36 -0.17,-0.54 -0.52,-0.54l-3,-0l0,8.29l3,-0c0.021,0.003 0.043,0.005 0.065,0.005c0.252,-0 0.46,-0.208 0.46,-0.46c0,-0.022 -0.002,-0.044 -0.005,-0.065l0,-7.23Z" style="fill:#fff;fill-rule:nonzero;"/><path d="M182.95,83l17.71,0l-0,5.71l-7.88,0l-0,6.65l7.88,0l-0,5.63l-7.88,0l-0,8.07l7.88,0l-0,5.71l-17.71,0l-0,-31.77Z" style="fill:#fff;fill-rule:nonzero;"/><path d="M222.75,114.77l-2.8,-14.35l-2.82,14.35l-10.44,0l-4.35,-31.77l9.31,0l1.27,19.28l3.39,-19.28l7.26,0l3.39,19.28l1.28,-19.28l9.3,0l-4.31,31.77l-10.48,0Z" style="fill:#fff;fill-rule:nonzero;"/><rect x="239.22" y="83" width="9.83" height="31.77" style="fill:#fff;"/><path d="M266.64,114.77l-4.83,-14.2l0,14.2l-9.83,0l0,-31.77l9.41,0l4.83,14.22l0,-14.22l9.84,0l0,31.77l-9.42,0Z" style="fill:#fff;fill-rule:nonzero;"/><path d="M294.9,83c2.833,0 4.767,0.513 5.8,1.54c1.033,1.027 1.54,2.967 1.52,5.82l0,4.89l-9.83,-0l-0,-5.92c-0,-0.36 -0.17,-0.54 -0.52,-0.54l-2.53,0c-0.022,-0.003 -0.044,-0.005 -0.066,-0.005c-0.258,-0 -0.47,0.213 -0.47,0.47c-0,0.025 0.002,0.05 0.006,0.075l-0,19.31c-0,0.34 0.18,0.5 0.53,0.5l2.53,-0c0.35,-0 0.52,-0.16 0.52,-0.5l0,-6.25l-1.78,-0l0,-3.56l11.61,-0l0,15.94l-2.84,-0l-1,-3c-0.3,1.91 -2.14,2.91 -5.55,3l-6.55,-0c-2.84,-0 -4.77,-0.51 -5.79,-1.53c-1.02,-1.02 -1.517,-2.95 -1.49,-5.79l0,-17.09c0,-2.84 0.517,-4.78 1.55,-5.82c1.033,-1.04 2.957,-1.553 5.77,-1.54l8.58,0Z" style="fill:#fff;fill-rule:nonzero;"/><path d="M281.33,10c0.001,0.06 0.002,0.12 0.002,0.18c0,4.613 -3.796,8.41 -8.41,8.41c-4.614,0 -8.41,-3.797 -8.41,-8.41c0,-4.614 3.796,-8.41 8.41,-8.41l0.168,0c4.517,0 8.235,3.713 8.24,8.23m-14.72,0c-0.001,0.04 -0.001,0.08 -0.001,0.12c0,3.495 2.875,6.37 6.37,6.37l0.021,0c3.426,-0.02 6.234,-2.844 6.234,-6.27c0,-0.073 -0.001,-0.147 -0.004,-0.22c0,-3.462 -2.848,-6.31 -6.31,-6.31c-3.462,0 -6.31,2.848 -6.31,6.31m5,4.24l-1.9,0l0,-8.24c1.043,-0.158 2.095,-0.242 3.15,-0.25c0.977,-0.105 1.96,0.125 2.79,0.65c0.558,0.404 0.877,1.062 0.85,1.75c-0.059,0.955 -0.761,1.756 -1.7,1.94l0,0.1c0.8,0.25 1.2,0.9 1.45,2c0.103,0.692 0.305,1.365 0.6,2l-2,0c-0.326,-0.626 -0.545,-1.302 -0.65,-2c-0.15,-0.85 -0.65,-1.25 -1.69,-1.25l-0.9,0l-0,3.3Zm0.05,-4.59l0.9,0c1,0 1.89,-0.35 1.89,-1.19c-0,-0.84 -0.55,-1.25 -1.74,-1.25c-0.353,-0.007 -0.705,0.026 -1.05,0.1l0,2.34Z" style="fill:#fff;fill-rule:nonzero;"/></g></g></svg>