<?xml version="1.0" encoding="utf-8"?>
<!-- Generator: Adobe Illustrator 15.0.0, SVG Export Plug-In . SVG Version: 6.00 Build 0)  -->
<!DOCTYPE svg PUBLIC "-//W3C//DTD SVG 1.1//EN" "http://www.w3.org/Graphics/SVG/1.1/DTD/svg11.dtd">
<svg version="1.1" xmlns="http://www.w3.org/2000/svg" xmlns:xlink="http://www.w3.org/1999/xlink" x="0px" y="0px" width="95px"
	 height="60px" viewBox="0 0 95 60" enable-background="new 0 0 95 60" xml:space="preserve">
<g id="Layer_3" display="none">
	<rect x="-29.667" y="-9.833" display="inline" width="146.667" height="85"/>
</g>
<g id="Layer_1">
	<g id="Layer_1_1_" display="none">
		<g display="inline">
			<path fill="#535456" d="M94.484,8.302c0.018-0.083,0.105,0.071,0.117,0c-0.031-0.317-0.355-0.318-0.494-0.516
				c-0.035-0.051-0.084-0.333-0.059-0.296c-0.031-0.063-0.131-0.142-0.178-0.22c-0.139-0.217-0.127-0.381-0.396-0.399
				c-0.012-0.108,0.002-0.203,0.047-0.258c-0.299,0.253-0.793,0.105-1.289,0.141c-0.355,0.025-0.695,0.254-0.938,0.258
				c-0.222,0.003-0.478-0.228-0.683-0.047c0.043,0.059,0.224-0.018,0.188,0.117c-0.029,0.088-0.14,0.196-0.257,0.258
				c-0.131,0.07-0.297,0.061-0.397,0.164c-0.17,0.173-0.25,0.439-0.231,0.727c-0.271,0.307-0.521,0.635-0.656,1.079
				c-0.039,0.147,0.115,0.104,0.117,0.211c-0.146,0.239-0.033,0.46-0.047,0.68c-0.009,0.082-0.06,0.146-0.07,0.235
				c-0.049,0.319,0.063,0.638,0.164,0.891c0.067,0.178,0.19,0.333,0.259,0.493c0.159,0.393,0.008,0.66-0.115,0.985
				c-0.106,0.031-0.174-0.165-0.281-0.211c-0.19,0.003-0.215-0.16-0.327-0.234c-0.418,0.052-0.576,0.362-0.847,0.563
				c-0.142,0.543-0.698,0.075-0.844-0.188c0.104-0.382,0.09-0.522-0.144-0.75c-0.289-0.287-0.662-0.653-1.011-0.844
				c-0.28-0.156-0.639-0.199-0.916-0.352c-0.159-0.089-0.276-0.248-0.422-0.328c-0.418-0.238-0.979-0.349-1.338-0.563
				c-0.026-0.146-0.138-0.261-0.306-0.328c-0.073-0.073,0.088-0.149,0.022-0.211c-0.209-0.135-0.455-0.232-0.702-0.328
				c-0.115-0.009-0.107,0.086-0.212,0.093c-0.098,0.007-0.221-0.105-0.327-0.117c-0.103-0.022-0.091,0.191-0.142,0.141
				C81.572,9.11,81.447,9,81.256,8.958c0.057-0.276,0.574-0.553,0.539-0.868c-0.035-0.312-0.459-0.17-0.68-0.094
				c-0.475,0.164-0.924,0.346-1.361,0.094c-0.074-0.169-0.236-0.248-0.398-0.328c-0.168,0.037-0.137,0.341-0.375,0.234
				c-0.254,0.568-0.518,1.125-0.799,1.665c0.055,0.126,0.205,0.156,0.305,0.235c-0.381,0.841-0.793,1.7-1.172,2.51
				c-0.127,0.271-0.295,0.563-0.328,0.868c0.207,0.051,0.25-0.208,0.309-0.328c0.332-0.724,0.684-1.452,1.008-2.158
				c0.139-0.287,0.229-0.642,0.447-0.821c-0.227,0.783,0.553,0.937,1.104,1.103c-0.183,0.451-0.539,0.701-0.703,1.196
				c-0.162,0.49,0.029,1.183-0.28,1.5c-0.146-0.025-0.238-0.106-0.377-0.141c-0.354,0.133-0.525,0.479-0.728,0.798
				c-0.244,0.39-0.328,0.87-0.425,1.402c-0.073-0.555-0.2-1.063-0.485-1.487c0.074-0.367-0.176-0.583-0.433-0.8
				c-0.473-0.406-1.312-0.577-1.916-0.83c-0.87-0.362-1.771-0.743-2.155-1.486c-0.082-0.161-0.138-0.416-0.156-0.644
				c-0.021-0.225-0.055-0.515,0.025-0.743c0.038-0.11,0.163-0.209,0.229-0.3c0.209-0.298,0.375-0.654,0.428-1.115
				c0.035-0.297,0.026-0.646,0.06-0.986c0.024-0.32,0.101-0.649,0.086-0.944c-0.008-0.181-0.084-0.396-0.112-0.615
				c-0.029-0.216-0.011-0.468-0.06-0.671c-0.021-0.076-0.108-0.164-0.188-0.258c-0.072-0.089-0.125-0.175-0.172-0.257
				c-0.094-0.16-0.281-0.415-0.303-0.586c-0.098-0.936-0.229-1.966-0.439-2.816C71.674,1,71.637,0.698,71.475,0.472
				c-0.104,0.184-0.086,0.439-0.086,0.672c-0.004,0.717-0.053,1.479-0.1,2.145c-0.621-0.317-1.652-0.255-2.316-0.014
				c-0.164,0.06-0.496,0.278-0.643,0.257c-0.217-0.03-0.311-0.486-0.359-0.744C67.805,1.874,67.688,0.863,67.484,0
				c-0.004,0-0.008,0-0.014,0c-0.154,0.285-0.264,0.995-0.314,1.43c-0.068,0.554-0.1,1.048-0.1,1.601
				c0,1.146-0.039,2.254,0.014,3.359c0.027,0.538,0.01,1.114,0.072,1.644c0.061,0.526,0.203,0.98,0.186,1.516
				c-0.016,0.494-0.107,0.997-0.328,1.373c-0.096,0.161-0.223,0.332-0.357,0.5c-0.096,0.118-0.301,0.4-0.439,0.429
				c-0.354,0.071-0.709,0.2-1.072,0.314c-0.357,0.113-0.715,0.201-1.043,0.329c-0.668,0.261-1.17,0.654-1.477,1.287
				c-0.146,0.313-0.256,0.679-0.344,1.063c-0.195-0.465-0.383-0.954-0.594-1.26c0.006-0.285-0.074-0.451-0.164-0.729
				c-0.111-0.354-0.215-0.665-0.328-1.003c-0.096-0.291-0.146-0.561-0.396-0.602c-0.016-0.674-0.58-1.034-0.984-1.367
				c-0.396-0.708-1.428-0.772-2.207-1.094c-0.08-0.004-0.127,0.03-0.182,0.055c-0.057-0.103-0.121-0.094-0.186-0.109
				c-0.256-0.065-0.6-0.098-0.949-0.183c-0.291-0.071-0.699-0.258-0.906-0.237c-0.084,0.008-0.139,0.104-0.201,0.091
				c-0.041-0.009-0.004-0.051-0.059-0.091C55.08,8.29,55.01,8.284,55.002,8.278c-0.068-0.049-0.104-0.108-0.182-0.127
				c-0.135-0.034-0.314,0.021-0.494,0c-0.295-0.036-0.525-0.211-0.818-0.091c-0.176-0.117-0.357-0.227-0.529-0.347
				c-0.051-0.356-0.35-0.464-0.455-0.766c0.098-0.365,0.541-0.716,0.186-1.039c0.313-0.59,0.301-1.51,0.313-2.407
				c0.012-0.072-0.068-0.052-0.057-0.127c-0.05-1.794-0.691-2.991-2.464-3.063c-0.114,0-0.229,0-0.349,0
				c-1.446,0.124-2.302,0.783-2.532,2.133c-0.053,0.31-0.08,0.671-0.109,1.021c-0.027,0.359-0.076,0.739-0.055,1.076
				c0.045,0.681,0.207,1.384,0.219,2.006c0.064,0.057,0.102,0.138,0.146,0.218c0.077,0.14,0.177,0.216,0.181,0.438
				c0.127,0.153,0.311,0.25,0.492,0.346c0.033,0.16,0.064,0.324,0.107,0.474c-0.129,0.145-0.359,0.29-0.547,0.492
				c-0.229,0.252-0.547,0.542-0.348,0.948c-0.018,0.075-0.186-0.045-0.256,0.018c-0.061,0.179,0.205,0.167,0.201,0.347
				c-0.275-0.036-0.406,0.223-0.619,0.31c-0.064,0.47-0.654,0.416-0.785,0.82c-0.066,0.006-0.16-0.016-0.201,0.019
				c-0.559,0.357-0.859,0.975-1.367,1.385c-0.055,0.199-0.211,0.478-0.328,0.784c-0.09,0.241-0.34,0.914-0.09,1.076
				c-0.016,0.871-0.166,1.67,0.109,2.26c0.082,0.176,0.289,0.516,0.182,0.875c-0.016,0.05-0.055,0.085-0.098,0.122
				c-0.158-0.112-0.336-0.214-0.494-0.32c-0.141-0.094-0.283-0.192-0.424-0.283c-0.145-0.092-0.313-0.163-0.445-0.262
				c-0.168-0.127-0.293-0.31-0.465-0.444c-0.18-0.141-0.389-0.216-0.584-0.343c-0.182-0.117-0.373-0.346-0.688-0.283
				c0.059-0.125-0.002-0.291-0.061-0.364c0.189-0.092,0.109-0.455,0.162-0.687c0.338-0.261,0.471-0.727,0.686-1.11
				c0.652,0.426,1.236-0.11,1.555-0.565c0.469-0.67,0.652-1.602,0.646-2.707c-0.002-0.555-0.014-1.177-0.141-1.535
				c-0.213-0.603-1.439-0.897-1.736-0.262c-0.436-0.683-1.148-1.32-2.08-1.474c-0.229-0.038-0.344,0.046-0.525,0.061
				c-0.158,0.013-0.313-0.04-0.465-0.041c-1.078-0.003-1.229,0.79-1.959,1.151c-0.139-0.406-0.629-0.536-0.988-0.263
				c-0.285,0.215-0.404,0.682-0.627,1.09c-0.184,0.339-0.486,0.785-0.525,1.191c-0.068,0.733,0.111,1.244,0.242,1.818
				c0.088,0.375,0.131,0.719,0.264,0.969c0.186,0.352,0.549,0.711,1.191,0.605c0.404-0.066,0.621-0.444,0.686-0.808
				c0.02-0.107-0.041-0.309,0.143-0.363c0.074,0.362,0.063,0.812,0.201,1.11c-0.127,0-0.186,0.07-0.262,0.121
				c-0.049,0.215-0.123,0.402-0.162,0.626c-0.197,0.167-0.268,0.459-0.465,0.626c-0.426-0.019-0.658,0.157-0.949,0.263
				c-0.094,0.033-0.197,0.046-0.283,0.081c-0.117,0.048-0.225,0.138-0.342,0.182c-0.115,0.042-0.24,0.038-0.344,0.081
				c-0.117,0.048-0.221,0.167-0.344,0.222c-0.482,0.217-1.07,0.222-1.494,0.444c-0.238,0.126-0.404,0.395-0.605,0.525
				c-0.008-0.317-0.041-0.606-0.041-0.929c0.25-0.06,0.508-0.111,0.768-0.162c0.082-0.126,0.254-0.163,0.424-0.202
				c-0.014-0.114-0.025-0.23-0.041-0.343c0.623-0.111,1.086-0.383,1.678-0.525c-0.09-0.483-0.23-0.915-0.404-1.313
				c-0.848,0.167-1.725,0.225-2.586,0.404c-0.135-0.369,0.205-0.45,0.242-0.687c0.029-0.178-0.021-0.454-0.039-0.707
				c-0.084-1.236-0.145-2.343-0.223-3.575c-0.039-0.624,0.033-1.453-0.404-1.595c-0.016-0.395-0.074-0.746-0.08-1.151
				c-0.002-0.099-0.156-0.045-0.182-0.121c-0.01-0.099,0.021-0.237-0.02-0.303c-0.195-0.17-0.826-0.221-1.031-0.021
				c-0.063,0.212-0.121,0.42-0.121,0.687c0,0.288,0.104,0.651,0.041,0.889c-0.055,0.206-0.314,0.262-0.344,0.464
				c0.113,0.028,0.273,0.009,0.344,0.081c-0.006,0.165-0.152,0.331-0.182,0.505C30.52,8.24,30.61,8.663,30.634,9.098
				c0.041,0.782,0.09,1.641,0.141,2.362c0.029,0.418-0.002,0.826,0.061,1.192c0.049,0.276,0.287,0.413,0.344,0.585
				c0.068,0.206-0.004,0.479,0.041,0.667c-0.109,0.032-0.244,0.039-0.344,0.081c0.09,0.239,0.301,0.358,0.525,0.465
				c0.012,0.352,0.023,0.702,0.061,1.03c-0.076,0.234-0.291,0.415-0.385,0.666c-0.125,0.339-0.145,0.733-0.281,1.091
				c-0.109,0.066-0.307,0.095-0.363,0.222c-0.043,0.091,0.002,0.257-0.021,0.424c-0.01,0.073-0.055,0.144-0.061,0.202
				c-0.014,0.166,0.004,0.365,0.014,0.566c-0.211-0.138-0.506-0.222-0.766-0.289c-0.049-0.391-0.006-0.874-0.055-1.265
				c0.158-0.036,0.303-0.083,0.412-0.165c-0.105-0.463-0.238-0.887-0.357-1.32c-0.119-0.436-0.178-0.921-0.357-1.32
				c-0.207-0.463-0.715-0.908-1.1-1.292c-1.213-1.213-2.863-2.098-4.949-2.282c-0.375,0-0.75,0-1.127,0
				c-2.098,0.194-3.631,0.73-4.895,1.813c-0.182,0.156-0.348,0.408-0.494,0.44c-0.199,0.044-0.623-0.062-0.879-0.083
				c-0.879-0.071-1.734-0.13-2.613-0.192c-0.082-0.208-0.238-0.466-0.439-0.467c-0.027-0.074-0.039-0.194-0.109-0.275
				c-0.066-0.077-0.199-0.056-0.303-0.138c-0.109-0.086-0.148-0.259-0.303-0.33c-0.102-0.046-0.256-0.081-0.357-0.083
				c-0.16-0.002-0.246,0.099-0.439,0.166c-0.348,0.118-0.428,0.078-0.688,0.302c-0.182,0.156-0.404,0.297-0.496,0.522
				c-0.109,0-0.219,0-0.33,0c-0.332-0.976-1.609-1.57-2.748-1.045c-0.977,0.451-1.055,2.26-0.111,2.833
				c0.371,0.224,0.92,0.243,1.32,0.22c0.783-0.045,1.105-0.679,1.457-1.182c0.158,0.018,0.271,0.077,0.439,0.083
				c0.072,0.313,0.193,0.577,0.578,0.578c0.039,0.272,0.162,0.461,0.496,0.44c0.205,0.491,0.725,0.05,1.1,0
				c0.221-0.155,0.32-0.43,0.658-0.468c0.131-0.108,0.178-0.3,0.303-0.412c0.961,0.066,2,0.105,2.859,0.192
				c0.053,0.114-0.096,0.23-0.164,0.33c-0.467,0.68-0.719,1.831-0.936,2.832c0.115,0.123,0.314,0.163,0.523,0.192
				c-0.045,0.423-0.076,0.859-0.111,1.292c-0.402,0.001-0.744,0.127-0.988,0.33c-0.053,0.043-0.285,0.198-0.275,0.248
				c0.043,0.224,0.955,0.181,1.182,0.248c-0.055,0.449-0.102,0.906-0.164,1.347c-0.514,0.083-0.986,0.206-1.184,0.605
				c0.311,0.104,0.703,0.123,1.045,0.192c-0.02,0.512-0.078,0.984-0.109,1.485c-0.572-0.041-0.979,0.085-1.1,0.495
				c0.324,0.015,0.639,0.04,0.99,0.027c-0.162,0.068-0.375,0.083-0.523,0.165c-0.037,0.21-0.064,0.429-0.082,0.66
				c-0.248,0.011-0.412-0.051-0.633,0c-0.313,0.683-0.592,1.558-0.879,2.392c-0.082,0.239-0.281,0.606-0.275,0.797
				c0.008,0.203,0.232,0.373,0.082,0.577c-0.311-0.017-0.564,0.022-0.852,0.028c-0.125,0.305-0.162,0.698-0.248,1.044
				c-2.512-1.063-4.99-2.159-7.479-3.244c-0.381,0.084-0.549-0.103-0.824-0.193c-0.004-0.323,0.018-0.65-0.055-0.907
				c-0.041-0.141-0.164-0.269-0.221-0.413c-0.139-0.348-0.162-0.646-0.439-0.743c-0.279-0.096-0.686,0.003-0.936,0.138
				c-0.643,0.345-1.154,1.424-1.264,2.227c0,0.073,0,0.147,0,0.22c0.109,0.502,0.256,1.098,0.715,1.183
				c0.201,0.037,0.447-0.076,0.715-0.165c0.541-0.181,0.973-0.437,1.209-0.797c0.26,0.116,0.568,0.183,0.715,0.413
				c2.508,1.176,5.121,2.249,7.645,3.409c-0.162,0.672-0.309,1.361-0.414,2.09c0.344,0.345,0.809,0.566,1.127,0.935
				c-0.016,0.318-0.285,0.602-0.219,0.884c0.059,0.246,0.363,0.229,0.494,0.438c-0.121,0.383-0.135,0.873-0.275,1.236
				c-0.977-0.006-1.662,0.695-1.539,1.678c0.08,0.625,0.521,0.959,1.018,1.211c-0.121,0.527-0.195,1.104-0.33,1.621
				c-1.918-0.141-2.061,2.504-0.549,2.889c-0.098,0.58-0.197,1.158-0.33,1.703c-1.98-0.189-2.148,2.563-0.551,2.889
				c-0.094,0.586-0.197,1.158-0.33,1.703c-1.949-0.164-2.104,2.533-0.549,2.889c-0.008,0.168-0.045,0.307-0.084,0.438
				c-0.273,0.143-0.549,0.275-0.824,0.414c-0.307,0.967-0.502,2.045-0.439,3.381c0.012,0.08,0.207-0.021,0.221,0.061
				c0.016,0.412-0.035,0.896,0.027,1.268c0.809,0.563,1.701,1.047,2.557,1.564c2.168,0.076,4.381,0.045,6.543,0.139
				c0.311,0.016,0.652,0.018,0.963,0c1.789-0.094,3.555-0.301,5.252-0.438c0.891-0.074,1.768-0.119,2.611-0.248
				c0.811-0.125,1.611-0.302,2.393-0.468c0.799-0.17,1.57-0.313,2.309-0.522c0.711-0.198,1.404-0.506,2.09-0.771
				c0.264-0.104,0.525-0.203,0.787-0.305c-0.004,0.146-0.004,0.286,0.09,0.401c0.141-0.086,0.145-0.313,0.178-0.506
				c0.033-0.017,0.064-0.025,0.098-0.039c0.148,0.623,0.625,0.914,1.178,1.131c0.031,0.213-0.102,0.635,0,0.869
				c0.1,0.226,0.566,0.323,0.971,0.342c0.809,0.033,1.576-0.168,2.119-0.463c0.293-0.16,0.6-0.34,0.971-0.363
				c0.848-0.057,1.607,0.365,2.342,0.103c0.273-0.103,0.58-0.286,0.828-0.483c0.605-0.481,1.092-1.034,1.271-1.879
				c0.732-0.045,1.316,0.06,1.898,0.162c0.154-0.589-0.074-1.255-0.08-1.877c0.402-0.104,0.906-0.175,1.01-0.524
				c0.061-0.21-0.084-0.576-0.121-0.851c-0.047-0.328-0.059-0.66-0.082-0.947c-0.363-4.448-0.582-9.073-0.826-13.489
				c0.367-0.082,0.744-0.156,0.746-0.604c0.285-0.173,0.246-0.569,0.363-0.973c0.068-0.229,0.213-0.479,0.223-0.666
				c0.018-0.385-0.234-0.75-0.182-1.17c0.201-0.104,0.471-0.125,0.568-0.299c0.004,0.072,0.01,0.146,0.016,0.213
				c0.074,0.69,0.119,1.401,0.164,2.078c0.021,0.301,0.123,0.575,0.146,0.856c0.012,0.153,0.025,0.299,0.055,0.438
				c0.029,0.141,0.096,0.271,0.109,0.398c0.014,0.141-0.037,0.271-0.055,0.4c-0.07,0.516,0.021,1.15,0.055,1.68
				c0.033,0.521,0.055,1.02,0.146,1.457c0.18,0.875,0.723,1.4,1.313,1.879c0.028,0.156,0.103,0.271,0.146,0.42
				c-0.22,0.393-0.715,0.438-0.582,1.073c0.149,0.729,0.633,1.677,1.187,1.95c0.106,0.771,0.17,1.707,0.222,2.591
				c0.018,0.3-0.064,0.741,0.092,0.875c-0.199,0.313,0.037,0.663,0.021,0.966c-0.006,0.084-0.062,0.143-0.056,0.222
				c0.007,0.11,0.109,0.2,0.104,0.31c0,0.086-0.08,0.158-0.104,0.257c-0.03,0.106,0.011,0.114-0.037,0.183
				c-0.088,0.127,0.066,0.217,0.072,0.35c-0.162,0.145-0.06,0.357-0.185,0.512c0.074,0.123,0,0.284,0.021,0.454
				c-0.09,0.069-0.08,0.146-0.058,0.22c-0.153,0.16-0.401,0.229-0.438,0.514c-0.094-0.016-0.154,0.051-0.234,0.09
				c-0.18,0.09-0.271,0.109-0.35,0.313c-0.146,0.074-0.316,0.131-0.457,0.219c-0.023,0.066-0.041,0.144-0.037,0.237
				c-0.406,0.267-0.725,0.491-1.293,0.582c-0.68,0.106-1.543-0.071-2.152,0c-0.049,0.007-0.123,0.021-0.164,0.036
				c-0.191,0.078-0.207,0.255-0.311,0.421c-0.08,0.13-0.164,0.177-0.199,0.29c-0.154,0.503,0.426,0.729,0.766,0.875
				c0.746,0.322,1.635,0.46,2.66,0.477c1.402,0.021,2.341-0.553,3.703-0.477c-0.021,0.162-0.037,0.406,0,0.566
				c0.322,0,0.646,0,0.965,0c-0.004,0.094,0,0.182,0.021,0.254c-0.096,0.115-0.234,0.293-0.162,0.476
				c0.049,0.123,0.32,0.19,0.51,0.255c0.605,0.204,1.301,0.32,1.936,0.4c0.457,0.059,0.979,0.143,1.422,0.093
				c0.438-0.054,0.896-0.169,1.203-0.349c0.293-0.172,0.424-0.551,0.619-0.838c0.037-0.061,0.195-0.248,0.326-0.256
				c0.158-0.01,0.299,0.129,0.42,0.127c0.17,0,0.436-0.145,0.584-0.221c0.186-0.092,0.383-0.17,0.455-0.361
				c0.063-0.168,0.025-0.336,0.02-0.492c-0.021-0.588-0.049-1.229-0.197-1.715c-0.055-0.168-0.171-0.371-0.164-0.477
				c0.006-0.139,0.182-0.293,0.182-0.438c-0.002-0.189-0.143-0.291-0.199-0.455c0.279-0.479-0.068-1.098,0.021-1.586
				c0.021-0.023,0.037-0.055,0.061-0.076c0.138-0.148,0.324-0.295,0.518-0.428c0.613-0.438,1.327-0.854,2.061-1.244
				c0.092-0.051,0.268-0.152,0.313-0.158c0.094-0.006,0.348,0.328,0.441,0.416c0.154,0.146,0.318,0.287,0.441,0.441
				c0.273,0.354,0.439,0.74,0.698,1.07c0.188-0.095,0.263-0.302,0.345-0.5c0.178,0.166,0.268,0.355,0.387,0.614
				c0.031,0.069,0.099,0.168,0.104,0.229c0.004,0.101-0.087,0.216-0.104,0.347c-0.021,0.172-0.021,0.375-0.043,0.567
				c-0.021,0.205-0.055,0.41-0.059,0.562c-0.005,0.117,0.041,0.162,0.07,0.259c-0.066,0.178-0.148,0.31-0.188,0.5
				c-0.021,0.104,0.012,0.221-0.016,0.344c-0.027,0.138-0.156,0.263-0.199,0.386c-0.098,0.269-0.035,0.493-0.07,0.758
				c-0.012,0.067-0.053,0.127-0.059,0.201c-0.016,0.185,0.045,0.379,0.068,0.569c0.023,0.181,0.039,0.367,0.088,0.56
				c0.506,0.08,1.111,0.024,1.613,0.015c0.521-0.013,1.092,0.032,1.604,0c0.443-0.025,0.457-0.354,0.527-0.813
				c0.021-0.115,0-0.229,0-0.345c0.002-0.146,0.039-0.248,0.027-0.39c-0.01-0.125-0.086-0.25-0.1-0.385
				c-0.055-0.472,0.08-1.015-0.115-1.388c0.221-0.256,0.09-0.713,0.154-1.071c0.021-0.105,0.104-0.224,0.146-0.345
				c0.046-0.123,0.048-0.262,0.087-0.385c0.02-0.06,0.082-0.123,0.102-0.188c0.088-0.332,0.045-0.69,0.154-1.045
				c0.313,0.366,0.529,0.776,0.787,1.2c0.082,0.142,0.193,0.281,0.188,0.476c0.146-0.166,0.166-0.409,0.215-0.646
				c0.096-0.448,0.129-1.01,0.129-1.571c0-0.283-0.051-0.601,0-0.845c0.027-0.129,0.191-0.259,0.271-0.371
				c0.101-0.145,0.121-0.311,0.259-0.37c0.151,0.163,0.166,0.418,0.229,0.655c0.047,0.185,0.182,0.492,0.186,0.699
				c0.005,0.192-0.123,0.563-0.172,0.771c-0.157,0.676-0.328,1.215-0.313,2.045c0.002,0.137,0.052,0.315,0.028,0.428
				c-0.016,0.076-0.086,0.135-0.102,0.216c-0.074,0.43-0.115,1.112,0.102,1.401c0.027,0.037,0.095,0.084,0.144,0.112
				c0.3,0.183,0.75,0.267,1.144,0.345c0.164,0.03,0.423-0.196,0.615-0.158c0.146,0.029,0.313,0.149,0.414,0.259
				c0.096,0.104,0.168,0.297,0.272,0.414c0.34,0.396,1.144,0.61,1.87,0.561c0.533-0.038,1.064-0.135,1.589-0.258
				c0.213-0.053,0.481-0.094,0.571-0.26c0.06-0.107,0.099-0.42,0.086-0.558c-0.01-0.101-0.08-0.166-0.102-0.259
				c-0.021-0.096-0.025-0.194-0.06-0.284c-0.113-0.332-0.44-0.479-0.718-0.672c-0.104-0.076-0.237-0.205-0.387-0.302
				c-0.136-0.088-0.373-0.136-0.429-0.258c-0.056-0.121,0.119-0.13,0.058-0.313c-0.092-0.154-0.315-0.104-0.472-0.199
				c-0.075-0.049-0.168-0.215-0.243-0.328c-0.218-0.331-0.498-0.688-0.629-1.059c-0.218-0.617,0.002-1.404,0.172-1.945
				c0.159,0.214,0.205,0.539,0.356,0.759c0.077-0.416,0.012-0.979,0.069-1.413c0.25,0.663,0.642,1.281,0.987,1.898
				c0.265,0.47,0.413,1,0.63,1.528c0.063,0.16,0.144,0.36,0.37,0.345c0.087-0.033-0.016-0.263,0.044-0.356
				c0.032-0.029,0.034,0.053,0.057,0.088c0.063,0.104,0.16,0.265,0.271,0.326c0.343-0.4,0.546-0.88,0.815-1.326
				c0.265-0.44,0.55-0.91,0.558-1.574c0.363,0.552,0.64,1.191,0.986,1.761c0.094-0.062,0.133-0.147,0.172-0.229
				c0.188-0.394,0.289-0.899,0.457-1.431c0.073-0.23,0.151-0.473,0.241-0.7c0.108-0.278,0.222-0.524,0.201-0.856
				c-0.008-0.131-0.071-0.265-0.071-0.388c0.004-0.271,0.149-0.446,0.188-0.698c0.047-0.336-0.015-0.718-0.044-1.104
				c-0.092-1.079-0.157-2.232-0.229-3.288c-0.102-1.5-0.237-2.918-0.372-4.315c-0.371-3.881-0.654-7.74-1.005-11.596
				c0.06-0.05,0.111-0.118,0.15-0.216c0.237-0.135,0.5-0.25,0.75-0.375c0.122,1.061,0.11,2.169,0.278,3.19
				c0.076,0.471,0.231,0.854,0.188,1.338c0.028,0.113,0.114,0.123,0.164,0.232c0.306,0.7-0.451,2.391,0.231,2.839
				c-0.242,0.818-0.586,2.295-0.517,3.425c0.084,1.354,1.011,2.059,2.531,1.76c0.28,1.41,0.588,3.129,0.938,4.504
				c0.127,0.498,0.354,0.976,0.396,1.432c0.022,0.214-0.049,0.438-0.068,0.682c-0.014,0.152,0.031,0.313,0,0.422
				c-0.045,0.16-0.307,0.271-0.396,0.494c-0.104,0.243-0.084,0.433-0.143,0.702c-0.492,0.582-0.785,1.271-0.938,2.136
				c-0.05,0.278-0.181,0.551-0.211,0.819c-0.023,0.207,0.032,0.396,0,0.586c-0.052,0.293-0.279,0.604-0.396,0.938
				c-0.143,0.395-0.237,0.873-0.211,1.268c0.023,0.4-0.198,0.811-0.071,1.268c-0.125,0.271-0.181,0.664-0.095,0.914
				c0.041,0.119,0.123,0.121,0.234,0.234c0.098,0.098,0.116,0.213,0.211,0.258c0.25,0.127,0.707,0.045,1.078,0.021
				c0.381-0.02,0.768-0.075,1.057-0.113c0.131-0.128,0.011-0.41,0.097-0.541c0.521-0.162,1.313-0.046,1.808,0.047
				c-0.027,0.121,0.028,0.198,0.021,0.305c-0.007,0.104-0.072,0.148-0.097,0.263c-0.056,0.298-0.024,0.858,0.069,1.078
				c0.117,0.254,0.677,0.308,1.058,0.278c0.371-0.022,0.713-0.192,1.011-0.258c0.321,0.066,0.471,0.396,0.702,0.516
				c0.313,0.166,0.972,0.072,1.386,0.023c1.375-0.156,2.646-0.531,3.588-0.938c0.054-0.287,0.067-0.697-0.231-0.703
				c0.022-1.139-1.358-0.651-1.994-1.104c-0.123-0.076-0.067-0.188-0.142-0.281c-0.153-0.2-0.553-0.203-0.563-0.539
				c-0.401-0.053-0.381-0.527-0.75-0.609c0.045-0.041,0.148-0.021,0.188-0.066c0.334-0.766,0.068-1.697-0.188-2.369
				c-0.166-0.431-0.481-0.813-0.539-1.195c-0.079-0.521,0.084-1.323,0.048-1.994c-0.017-0.223-0.076-0.436-0.068-0.633
				c0.003-0.121,0.06-0.264,0.068-0.397c0.026-0.381-0.093-0.784-0.068-1.104c0.023-0.405,0.328-0.907,0.537-1.267
				c0.722-1.227,0.785-2.877,1.031-4.457c0.944-0.457,1.647-1.008,2.229-1.783c0.577-0.771,0.879-1.758,1.028-2.979
				c0.158-1.242-0.071-2.486-0.231-3.684c-0.158-1.197-0.427-2.336-0.681-3.354c0.231-0.046,0.466-0.197,0.537-0.469
				c0.062-0.059,0.119,0.118,0.215,0.023c0.101-0.109,0.142-0.28,0.16-0.469c0.113-0.06,0.354,0.011,0.474-0.047
				c0.106-0.179,0.094-0.485,0.094-0.774c0.005-0.098-0.151-0.035-0.188-0.094c-0.005-0.501,0.088-0.951,0.142-1.383
				c0.018-0.133-0.029-0.291,0-0.422c0.028-0.13,0.188-0.225,0.211-0.352c0.061-0.288-0.062-0.576,0.022-0.868
				c-0.132-0.116-0.087-0.365-0.327-0.352c-0.125,0.007-0.201,0.058-0.212,0.258c-0.095,0-0.188,0-0.282,0
				c0-0.176,0.377-0.169,0.282-0.516c-0.118-0.132-0.454-0.046-0.683-0.07c-0.098-0.044-0.164-0.282-0.307-0.352
				c-0.082-0.042-0.201,0.02-0.306-0.023c-0.028-0.013-0.093-0.116-0.142-0.165c-0.225-0.223-0.192-0.339-0.211-0.727
				c-0.01-0.182-0.092-0.356-0.096-0.445c-0.013-0.32,0.155-0.731,0.232-1.103c0.078-0.376,0.186-0.774,0.188-1.149
				c0.006-0.417-0.063-0.882-0.094-1.337c-0.013-0.148,0.018-0.31,0-0.47c-0.046-0.408-0.197-0.792-0.354-1.079
				c-0.082-0.152-0.285-0.259-0.354-0.422c-0.071-0.179-0.137-0.974-0.094-1.173c0.049-0.235,0.354-0.434,0.492-0.68
				c0.098-0.172,0.133-0.328,0.188-0.516c0.688-0.36,1.202-0.893,1.36-1.783c0.319-0.151,0.354-0.438,0.491-0.797
				c0.064-0.167,0.224-0.337,0.234-0.446c0.014-0.13-0.104-0.274-0.095-0.399c0.011-0.171,0.121-0.378,0.164-0.563
				c0.052-0.22,0.089-0.417,0.095-0.656c0.021-0.12,0.066,0.07,0.116,0.07C94.945,9.108,94.643,8.67,94.484,8.302z M32.814,27.924
				c0.043-0.09,0.041-0.186,0.082-0.282c0.096-0.228,0.219-0.395,0.242-0.667c0.043-0.492-0.037-1.033,0.061-1.697
				c0.102,0.1,0.02,0.271,0.061,0.404c0.031,0.102,0.148,0.188,0.182,0.303c0.031,0.108,0.008,0.244,0.041,0.323
				c0.07,0.168,0.273,0.174,0.383,0.282c-0.002,0.339-0.08,0.843-0.061,1.292c0.006,0.134,0.068,0.325,0.041,0.444
				c-0.035,0.143-0.266,0.303-0.344,0.464c-0.176,0.361-0.256,0.911-0.363,1.414c-0.104,0.489-0.193,0.989-0.273,1.495
				c-0.123-0.313-0.316-0.545-0.68-0.521c-0.002-0.173-0.082-0.266-0.082-0.438c0.287-0.068,0.547-0.168,0.77-0.303
				c-0.145-0.684-0.281-1.376-0.416-2.069C32.621,28.216,32.752,28.06,32.814,27.924z M30.383,19.094
				c0.018,0.206,0.045,0.412,0.01,0.57c-0.023,0.104-0.164,0.286-0.242,0.424c-0.1,0.176-0.191,0.346-0.281,0.511
				c-0.061-0.003-0.123-0.005-0.186-0.006c-0.049-0.474-0.121-0.924-0.166-1.402C29.803,19.155,30.111,19.144,30.383,19.094z
				 M55.986,51.195c-0.021,0.313-0.258,0.699-0.328,1.039c-0.021,0.108-0.014,0.231-0.037,0.349
				c-0.057,0.274-0.146,0.554-0.199,0.838c-0.059,0.3-0.076,0.613-0.146,0.875c-0.07,0.274-0.252,0.529-0.361,0.783
				c-0.121,0.274-0.295,0.506-0.396,0.748c-0.029,0.067-0.025,0.153-0.059,0.219c-0.117,0.265-0.383,0.496-0.479,0.748
				c0.029-0.246,0.066-0.543-0.018-0.767c-0.064-0.168-0.199-0.271-0.273-0.42c-0.021-0.045-0.002-0.104-0.02-0.146
				c-0.039-0.102-0.135-0.127-0.162-0.219c0.018-0.08,0.096-0.174,0.09-0.254c-0.008-0.113-0.131-0.158-0.164-0.273
				c-0.016-0.059,0.002-0.188-0.018-0.293c-0.02-0.104-0.063-0.162-0.055-0.234c0.008-0.09,0.109-0.18,0.127-0.271
				c0.031-0.16-0.055-0.381-0.09-0.604c-0.119-0.727-0.088-1.57-0.037-2.371c0.033-0.059,0.141-0.041,0.164-0.107
				c-0.129-0.404-0.027-1.016,0-1.586c0.023-0.576,0.07-1.082,0.072-1.678c0.025-0.072,0.146-0.063,0.219-0.092
				c0.023-0.117,0.207-0.236,0.256-0.4c0.025-0.084,0.01-0.207,0.037-0.328c0.098-0.455,0.521-1.063-0.021-1.35
				c0.326-0.76-0.041-1.383-0.311-2.08c-0.205-0.538-0.318-1.189-0.729-1.456c-0.157-0.104-0.416-0.155-0.563-0.22
				c-0.025-0.607,0.26-1.137,0.146-1.68c-0.047-0.219-0.229-0.459-0.33-0.674c-0.113-0.246-0.18-0.479-0.289-0.691
				c0.188-0.648,0.301-1.377,0.256-2.264c0.336,0.027,0.686,0.045,1.059,0.037c0.25,1.361,0.422,2.895,0.875,4.104
				c0.162,0.436,0.338,0.801,0.363,1.275c0.012,0.191-0.01,0.334,0,0.492c0.02,0.273,0.141,0.582,0.094,0.875
				c-0.041,0.244-0.307,0.4-0.164,0.766c0.072,0.195,0.26,0.258,0.383,0.438c-0.334,0.122-0.363,0.847-0.129,1.166
				c0.16,0.216,0.434,0.339,0.654,0.384c0.393,0.682,0.26,1.893,0.313,2.861c0.021,0.408,0.107,0.811-0.107,1.096
				c0.095,0.088,0.16,0.207,0.313,0.234C55.766,50.432,56.014,50.796,55.986,51.195z M58.502,36.738
				c0.059-0.646-0.027-1.313,0.109-1.823c0.4-0.239,0.781-0.493,1.141-0.767c-0.16,1.297-0.324,2.59-0.486,3.86
				c-0.113,0.888-0.227,1.773-0.34,2.664c-0.08-0.022-0.154-0.051-0.205-0.092c-0.004-0.274,0.064-0.515,0.092-0.748
				c0.027-0.246,0.104-0.521,0.059-0.783c-0.035-0.207-0.219-0.428-0.313-0.639c-0.101-0.222-0.267-0.492-0.271-0.688
				C58.273,37.443,58.469,37.1,58.502,36.738z M81.514,8.138c-0.057,0.257-0.363,0.464-0.518,0.704
				c-0.326-0.143-0.641-0.297-0.984-0.422C80.578,8.52,81.012,8.238,81.514,8.138z M80.996,33.471
				c0.217,0.465,0.215,1.146,0.26,1.782c-0.158-0.334-0.252-0.733-0.4-1.08C80.906,33.941,80.953,33.707,80.996,33.471z
				 M80.809,11.234c-0.121-0.074-0.203-0.188-0.328-0.258c0.021-0.059,0.064-0.092,0.07-0.164c0.162,0.018,0.258,0.103,0.398,0.141
				C80.902,11.046,80.855,11.14,80.809,11.234z M78.934,10.038c0.447,0.153,0.846,0.358,1.219,0.586
				c-0.063,0.107-0.143,0.201-0.211,0.305C79.521,10.727,78.756,10.759,78.934,10.038z M79.262,12.946
				c-0.059-0.519,0.213-0.83,0.422-1.173c0.117-0.192,0.203-0.413,0.375-0.54C79.867,11.785,79.518,12.38,79.262,12.946z
				 M80.105,30.42c0.008,0.042-0.021,0.048-0.023,0.023c-0.037-0.717-0.141-1.6-0.211-2.393c-0.025-0.273-0.105-0.616-0.07-0.797
				c0.047-0.247,0.379-0.346,0.445-0.563c0.176,0.053,0.232,0.221,0.492,0.188c0,0.117,0,0.235,0,0.352
				c-0.16,0.058-0.307,0.13-0.422,0.235C80.211,28.415,80.17,29.428,80.105,30.42z M80.762,40.038
				c-1.398-0.644-0.418-3.552-0.164-4.832c0.188,0.431,0.416,1.108,0.658,1.569c0.084,0.162,0.209,0.328,0.258,0.472
				c0.074,0.222,0.076,0.512,0.117,0.75c0.119,0.713,0.275,1.39,0.445,2.11C81.598,40.159,81.131,40.206,80.762,40.038z
				 M91.904,29.271c0.057,0.045,0.188,0.015,0.281,0.023c0.521,1.71,0.957,3.79,1.055,5.958c0.127,2.793-0.951,4.436-2.768,5.371
				c-0.023-0.256-0.164-0.51-0.188-0.775c-0.017-0.176,0.038-0.34,0.022-0.539c-0.027-0.391-0.104-0.813-0.211-1.192
				c-0.033-0.118-0.104-0.229-0.144-0.354c-0.271-0.914-0.449-1.932-0.519-2.933c-0.041-0.616-0.267-1.214-0.375-1.806
				c-0.106-0.592-0.219-1.186-0.539-1.619c0.188-0.094,0.521-0.041,0.656-0.188c-0.033-1.046,0.012-2.169-0.281-2.955
				c0.01-0.063,0.015-0.129,0.047-0.164c-0.157-0.661-0.192-1.447-0.537-1.923c0.3-0.1,0.584-0.212,0.75-0.446
				c0.25,0.031,0.443,0.118,0.728,0.117c0.097,0.267,0.287,0.433,0.589,0.493c-0.025,0.158,0.088,0.18,0.114,0.281
				c-0.094,0.593-0.065,1.307-0.067,1.994c0.231,0.001,0.666,0.284,0.772-0.024c0.097,0.131,0.188,0.261,0.422,0.258
				C91.641,29.128,91.957,29.015,91.904,29.271z"/>
			<g>
				<path fill="#FFFFFF" d="M43.418,27.863c-0.25-0.115-0.266-0.861,0.02-0.949C43.625,27.094,43.643,27.712,43.418,27.863z"/>
				<path fill="#FFFFFF" d="M41.6,27.52c0.576-0.131,0.559,1.019,0.082,1.03C41.201,28.561,41.174,27.617,41.6,27.52z"/>
				<path fill="#FFFFFF" d="M35.34,27.621c0.584-0.113,0.656,0.996,0.08,1.01C34.906,28.643,34.852,27.716,35.34,27.621z"/>
				<path fill="#FFFFFF" d="M38.529,28.449c0.002,0,0.008-0.019,0.021-0.02c0.762-0.084,0.76,1.149,0.041,1.091
					C38.016,29.472,37.916,28.556,38.529,28.449z"/>
				<path fill="#FFFFFF" d="M86.088,18.083c-0.021,0.104-0.154,0.098-0.141,0.234c0.029,0.193,0.291,0.014,0.422,0.094
					c-0.113,0.725-1.463,1.056-1.83,0.329c0.115-0.041,0.24-0.072,0.281-0.188c0.164,0.07,0.264,0.206,0.469,0.235
					c-0.135-0.131-0.363-0.168-0.445-0.352c0.365-0.159,0.771-0.277,1.127-0.446C86.059,17.972,86.021,18.079,86.088,18.083z"/>
				<path fill="#FFFFFF" d="M86.463,17.802c0.025,0.004,0.012,0.023,0,0.023c-0.023,0.085,0.092,0.033,0.141,0.047
					c-0.004,0.028-0.043,0.02-0.066,0.023c0.215,0.088,0.42-0.154,0.633-0.07c-0.078,0.173-0.359,0.137-0.354,0.399
					c0.063-0.125,0.31,0.073,0.354,0.188c-0.146,0.08-0.23-0.118-0.375-0.047c0.002,0.123,0.104,0.142,0.098,0.282
					c-0.211-0.077-0.213-0.361-0.539-0.258c0.105-0.161-0.252,0.043-0.354-0.047c-0.017-0.171,0.151-0.161,0.188-0.282
					c-0.021-0.02-0.127,0.011-0.117-0.094C86.197,17.912,86.354,17.879,86.463,17.802z"/>
				<path fill="#FFFFFF" d="M85.805,16.089c-0.086,0.354,0.094,1.025-0.234,1.22c0.117-0.057,0.203-0.143,0.234-0.281
					c0.203,0.039,0.367,0.118,0.447,0.281c-0.561,0.214-1.123,0.426-1.689,0.633c0.033-0.067-0.068-0.128,0.023-0.118
					c-0.191-0.179-0.439,0.188-0.586,0.047c-0.078,0.008-0.037,0.136-0.047,0.211c-0.24-0.143-0.244-0.454-0.611-0.399
					c0-0.096,0.135-0.195,0.164-0.117c0.037-0.069-0.105-0.159-0.234-0.141c0.021-0.107,0.188-0.184,0.258-0.094
					c0.021-0.167-0.191-0.203-0.158-0.305c0.322,0.04,0.354,0.376,0.633,0.469c0.117-0.153,0.418-0.313,0.605-0.469
					c0.063-0.007,0.063,0.049,0.07,0.094c-0.02-0.229-0.104-0.435,0.07-0.634c0.043-0.047,0.16-0.083,0.258-0.188
					c0.215-0.228,0.225-0.482,0.633-0.375c-0.014-0.023-0.053-0.024-0.047-0.07c0.121-0.011,0.195-0.06,0.307-0.023
					c0.033,0.083,0.043,0.189,0.096,0.258c0.068,0.018,0.025-0.081,0.115-0.047C86.127,16.162,85.789,16.19,85.805,16.089z
					 M85.242,16.347c0.064-0.014,0.092-0.064,0.094-0.141C85.238,16.188,85.199,16.297,85.242,16.347z M85.453,16.441
					c0.086,0.009,0.164-0.136,0.07-0.165C85.5,16.331,85.443,16.353,85.453,16.441z M85.359,16.629c-0.039,0-0.078,0-0.117,0
					C85.234,16.739,85.352,16.692,85.359,16.629z M85.172,17.051c0.068-0.025,0.082-0.105,0.07-0.211
					C85.084,16.805,85.072,17.02,85.172,17.051z M85.195,17.191c-0.057,0.003-0.113,0.004-0.141-0.023
					C85.059,17.268,85.178,17.281,85.195,17.191z"/>
				<path fill="#FFFFFF" d="M7.109,12.098c0.582-0.149,0.621,1.465,0.082,1.485C6.656,13.603,6.648,12.217,7.109,12.098z"/>
				<path fill="#FFFFFF" d="M70.959,13.109c1.086-0.017,2.215,0.422,2.816,1.058c0.16,0.168,0.404,0.513,0.328,0.843
					c-0.098,0.416-0.607,0.571-1.113,0.601c-0.543,0.032-1.09-0.088-1.473-0.214c-0.543-0.179-1.232-0.518-1.588-0.986
					c-0.111-0.149-0.246-0.365-0.219-0.644C69.773,13.276,70.396,13.118,70.959,13.109z M72.574,14.024
					c-0.383,0.041-0.568-0.425-0.629-0.672c-0.016,0.064-0.027,0.133-0.07,0.172c-0.178,0.005-0.223-0.198-0.314-0.229
					c0.021,0.163,0.133,0.268,0.086,0.429c-0.104,0.342-0.939-0.114-0.715-0.458c-0.438,0.06-0.934,0.135-0.973,0.558
					c-0.057,0.6,0.619,0.916,1,1.129c0.029-0.044-0.059-0.085-0.1-0.143c-0.068-0.096-0.131-0.218-0.086-0.357
					c0.215-0.137,0.459,0.06,0.602,0.172c0.305-0.383,0.711,0.281,0.9,0.5c0.037-0.196,0.086-0.434,0.271-0.472
					c0.146-0.03,0.33,0.186,0.371,0.186c0.011,0,0.058-0.063,0.071-0.071c0.304-0.187,0.656,0.232,0.457,0.514
					c0.275-0.07,0.511-0.224,0.472-0.557c-0.069-0.612-0.871-0.956-1.301-1.144C72.775,13.701,72.797,14.001,72.574,14.024z"/>
				<path fill="#FFFFFF" d="M50.408,1.204c0.168,0.542,0.367,1.053,0.547,1.586c-0.121,0-0.244,0-0.365,0
					c-0.047-0.099-0.066-0.226-0.109-0.328c-0.182,0-0.361,0-0.547,0c-0.059,0.093-0.092,0.213-0.129,0.328
					c-0.121,0-0.242,0-0.363,0c0.201-0.522,0.363-1.082,0.584-1.586C50.152,1.204,50.279,1.204,50.408,1.204z M50.006,2.189
					c0.129,0,0.256,0,0.383,0c-0.07-0.197-0.113-0.421-0.199-0.602C50.139,1.799,50.064,1.986,50.006,2.189z"/>
				<path fill="#FFFFFF" d="M49.514,11.888c0.207-0.02,0.438-0.061,0.656-0.091c0.209-0.028,0.449-0.103,0.621,0
					c0.01,0.142-0.148,0.225-0.238,0.311c-0.279,0.269-0.609,0.558-0.875,0.856c0.041,0.452,0.195,0.885,0.182,1.331
					c-0.395-0.073-0.688-0.402-1.02-0.602c-0.215,0.152-0.4,0.365-0.602,0.547c-0.195,0.176-0.391,0.412-0.656,0.456
					c-0.037-0.27,0.104-0.548,0.199-0.802c0.1-0.262,0.213-0.52,0.311-0.766c-0.104-0.137-0.23-0.227-0.4-0.346
					c-0.1-0.069-0.432-0.19-0.42-0.328c0.012-0.145,0.41-0.168,0.564-0.201c0.254-0.052,0.42-0.075,0.621-0.127
					c0.281-0.393,0.387-0.962,0.766-1.258C49.393,11.134,49.436,11.528,49.514,11.888z"/>
				<path fill="#FFFFFF" d="M52.832,16.993c2.742-0.13,4.924,0.994,6.291,2.334c1.396,1.37,2.592,3.25,2.715,5.888
					c0.133,2.761-1.006,4.909-2.332,6.291c-1.412,1.471-3.26,2.572-5.908,2.697c-2.707,0.13-4.848-0.941-6.271-2.314
					c-1.475-1.419-2.59-3.211-2.717-5.889c-0.131-2.787,0.949-4.865,2.297-6.29c1.002-1.06,2.325-1.974,4.028-2.425
					C51.518,17.13,52.176,17.024,52.832,16.993z M51.465,19.473c-1.234,0.355-2.207,1.031-2.936,1.823
					c-0.967,1.052-1.801,2.623-1.658,4.668c0.135,1.949,0.939,3.334,2.023,4.321c1.082,0.984,2.68,1.787,4.668,1.658
					c1.914-0.123,3.289-0.904,4.316-2.022c0.979-1.062,1.816-2.582,1.695-4.668c-0.109-1.867-0.984-3.368-2.021-4.321
					c-1.054-0.961-2.673-1.807-4.688-1.677C52.402,19.284,51.9,19.348,51.465,19.473z"/>
				<path fill="#FFFFFF" d="M53.287,21.478c0.348,0.905,0.686,1.82,1.004,2.753c0.955,0.036,1.949,0.033,2.916,0.055
					c0.01,0.05-0.055,0.081-0.09,0.109c-0.689,0.564-1.502,1.134-2.188,1.714c0.283,0.926,0.572,1.854,0.854,2.79
					c-0.818-0.529-1.609-1.088-2.426-1.623c-0.813,0.528-1.625,1.16-2.404,1.659c0.264-0.928,0.521-1.862,0.801-2.771
					c-0.719-0.642-1.627-1.193-2.313-1.805c0.967-0.024,1.898-0.078,2.879-0.091C52.67,23.365,52.975,22.416,53.287,21.478z"/>
			</g>
		</g>
	</g>
	<g id="Layer_2">
		<g>
			<linearGradient id="SVGID_1_" gradientUnits="userSpaceOnUse" x1="47.5005" y1="60" x2="47.5005" y2="4.882813e-004">
				<stop  offset="0" style="stop-color:#1B7C55"/>
				<stop  offset="0.5" style="stop-color:#22B573"/>
				<stop  offset="1" style="stop-color:#1B7C55"/>
			</linearGradient>
			<path fill="url(#SVGID_1_)" d="M94.541,8.334c0.02-0.083,0.109,0.07,0.117,0c-0.032-0.316-0.355-0.316-0.492-0.516
				c-0.035-0.051-0.084-0.331-0.055-0.295c-0.037-0.063-0.131-0.144-0.18-0.22c-0.135-0.217-0.127-0.382-0.397-0.397
				c-0.007-0.109,0-0.203,0.047-0.258c-0.298,0.253-0.792,0.104-1.287,0.141c-0.354,0.025-0.694,0.254-0.937,0.257
				c-0.219,0.004-0.475-0.227-0.678-0.047c0.043,0.06,0.221-0.018,0.188,0.117c-0.032,0.088-0.143,0.196-0.258,0.258
				c-0.131,0.069-0.297,0.062-0.397,0.164c-0.17,0.172-0.25,0.438-0.233,0.727c-0.271,0.306-0.521,0.633-0.655,1.075
				c-0.038,0.147,0.114,0.104,0.116,0.211c-0.145,0.238-0.031,0.459-0.047,0.68c-0.006,0.082-0.057,0.146-0.069,0.233
				c-0.05,0.317,0.063,0.637,0.163,0.89c0.072,0.178,0.193,0.333,0.258,0.492c0.16,0.392,0.006,0.657-0.116,0.981
				c-0.108,0.031-0.174-0.165-0.28-0.21c-0.189,0.002-0.216-0.16-0.328-0.234c-0.416,0.053-0.625,0.237-0.843,0.563
				c-0.04,0.044-0.1,0.083-0.175,0.117l-0.777-0.364l0.334-0.713l0.057-0.119c0.016-0.032,0.001-0.071-0.032-0.087l-4.112-1.924
				l0.036-0.079c0.017-0.033,0.001-0.072-0.032-0.087l-0.326-0.153l0.084-0.177c0.015-0.033,0-0.072-0.032-0.088l-0.747-0.35
				c-0.033-0.016-0.072-0.002-0.087,0.031L82.283,9.13l-0.327-0.151c-0.032-0.017-0.071-0.001-0.087,0.03l-0.037,0.079l-0.443-0.207
				c0.139-0.239,0.524-0.484,0.493-0.758c-0.034-0.311-0.457-0.17-0.679-0.094c-0.473,0.163-0.921,0.346-1.357,0.094
				c-0.007-0.017-0.015-0.03-0.022-0.045l0.06-0.128l-0.52-0.241l-0.088,0.187l-0.168-0.079c-0.032-0.016-0.071-0.001-0.088,0.032
				l-0.056,0.118l-0.71,1.519l-0.056,0.119c-0.017,0.032-0.001,0.071,0.03,0.087l0.346,0.161l-1.554,3.323l0.164,0.077l1.554-3.323
				l0.099,0.046l-0.002,0.021c-0.222,0.781,0.554,0.936,1.101,1.102c-0.18,0.448-0.539,0.698-0.703,1.192
				c-0.104,0.32-0.061,0.728-0.104,1.06l-0.189,0.403c-0.129-0.083-0.297-0.18-0.385-0.183c-0.154-0.005-0.803,0.833-0.997,1.313
				c-0.113,0.276-0.137,0.625-0.188,1.03c-0.075-0.582-0.201-1.115-0.499-1.558c0.076-0.367-0.176-0.583-0.43-0.802
				c-0.475-0.406-1.312-0.577-1.918-0.83c-0.873-0.362-1.774-0.744-2.162-1.488c-0.084-0.161-0.135-0.415-0.156-0.645
				c-0.021-0.226-0.055-0.517,0.027-0.744c0.041-0.109,0.166-0.208,0.229-0.301c0.21-0.299,0.376-0.654,0.429-1.116
				c0.034-0.299,0.029-0.646,0.059-0.987c0.027-0.32,0.1-0.649,0.086-0.944c-0.01-0.181-0.086-0.396-0.114-0.615
				c-0.028-0.217-0.008-0.47-0.058-0.673c-0.02-0.076-0.109-0.164-0.187-0.258c-0.073-0.09-0.125-0.175-0.172-0.258
				c-0.092-0.159-0.282-0.414-0.301-0.587c-0.099-0.938-0.229-1.969-0.443-2.818c-0.071-0.287-0.11-0.589-0.272-0.816
				c-0.103,0.186-0.084,0.439-0.086,0.673c-0.004,0.719-0.053,1.48-0.1,2.147c-0.621-0.317-1.652-0.256-2.318-0.016
				c-0.166,0.061-0.496,0.278-0.645,0.259c-0.216-0.03-0.313-0.487-0.357-0.744C67.813,1.876,67.696,0.865,67.495,0
				c-0.006,0-0.01,0-0.016,0c-0.153,0.285-0.261,0.996-0.313,1.431c-0.067,0.555-0.101,1.05-0.101,1.604
				c0,1.146-0.039,2.256,0.015,3.362c0.024,0.538,0.01,1.116,0.071,1.646c0.062,0.526,0.203,0.98,0.187,1.518
				c-0.017,0.494-0.108,0.998-0.329,1.374c-0.095,0.161-0.222,0.333-0.357,0.501c-0.096,0.118-0.301,0.399-0.443,0.43
				c-0.354,0.072-0.711,0.201-1.074,0.314c-0.359,0.113-0.715,0.2-1.044,0.329c-0.669,0.262-1.17,0.654-1.476,1.288
				c-0.141,0.291-0.24,0.632-0.324,0.987c-0.207-0.487-0.402-1.013-0.625-1.337c0.005-0.284-0.077-0.451-0.165-0.731
				c-0.112-0.354-0.217-0.666-0.329-1.005c-0.097-0.292-0.148-0.563-0.402-0.604c-0.012-0.677-0.582-1.037-0.986-1.372
				c-0.395-0.709-1.434-0.773-2.212-1.097c-0.084-0.005-0.127,0.03-0.184,0.055C57.333,8.59,57.266,8.6,57.204,8.584
				c-0.257-0.064-0.601-0.098-0.951-0.183c-0.293-0.071-0.705-0.26-0.914-0.238c-0.083,0.009-0.134,0.105-0.2,0.092
				c-0.041-0.009-0.005-0.051-0.056-0.092c-0.031-0.023-0.103-0.031-0.108-0.036c-0.07-0.048-0.106-0.107-0.186-0.128
				c-0.135-0.034-0.314,0.021-0.493,0c-0.297-0.036-0.526-0.212-0.823-0.092C53.298,7.79,53.115,7.68,52.943,7.56
				c-0.051-0.357-0.352-0.467-0.457-0.769c0.095-0.366,0.543-0.718,0.183-1.042c0.315-0.593,0.302-1.515,0.312-2.413
				c0.013-0.072-0.068-0.052-0.055-0.128c-0.048-1.8-0.693-2.999-2.469-3.072c-0.116,0-0.23,0-0.348,0
				c-1.453,0.124-2.312,0.785-2.543,2.14c-0.053,0.312-0.081,0.674-0.109,1.024c-0.028,0.359-0.076,0.74-0.055,1.078
				c0.043,0.683,0.207,1.388,0.22,2.012c0.064,0.058,0.102,0.139,0.146,0.22c0.077,0.141,0.178,0.216,0.183,0.438
				c0.126,0.153,0.308,0.252,0.494,0.349c0.035,0.16,0.064,0.325,0.109,0.476c-0.132,0.146-0.363,0.29-0.549,0.493
				c-0.23,0.253-0.547,0.543-0.347,0.951c-0.018,0.075-0.186-0.045-0.256,0.019c-0.062,0.18,0.205,0.167,0.201,0.348
				c-0.276-0.036-0.408,0.224-0.622,0.312c-0.064,0.471-0.655,0.417-0.786,0.822c-0.067,0.006-0.161-0.017-0.201,0.019
				c-0.562,0.359-0.862,0.979-1.371,1.391c-0.055,0.199-0.213,0.479-0.329,0.785c-0.092,0.242-0.343,0.916-0.092,1.079
				c-0.015,0.874-0.166,1.675,0.11,2.267c0.082,0.178,0.291,0.519,0.183,0.878c-0.021,0.071-0.091,0.111-0.147,0.168
				c-0.146-0.1-0.308-0.191-0.451-0.287c-0.141-0.096-0.283-0.193-0.425-0.283c-0.146-0.093-0.313-0.164-0.445-0.265
				c-0.17-0.128-0.295-0.312-0.467-0.444c-0.18-0.144-0.39-0.218-0.586-0.346c-0.182-0.116-0.373-0.348-0.688-0.282
				c0.059-0.125-0.001-0.292-0.061-0.365c0.19-0.093,0.109-0.457,0.161-0.688c0.34-0.262,0.474-0.729,0.689-1.114
				c0.653,0.428,1.239-0.109,1.56-0.567c0.47-0.672,0.654-1.604,0.647-2.714c-0.003-0.557-0.015-1.181-0.142-1.539
				c-0.214-0.604-1.442-0.899-1.742-0.264c-0.437-0.686-1.15-1.323-2.086-1.479c-0.229-0.038-0.345,0.046-0.526,0.061
				c-0.158,0.013-0.313-0.04-0.466-0.04c-1.081-0.004-1.233,0.792-1.965,1.154c-0.14-0.407-0.631-0.537-0.992-0.265
				c-0.285,0.217-0.405,0.685-0.628,1.095c-0.186,0.34-0.489,0.787-0.527,1.194c-0.068,0.735,0.11,1.248,0.243,1.823
				c0.087,0.376,0.131,0.721,0.264,0.972c0.187,0.354,0.552,0.715,1.195,0.608c0.405-0.067,0.624-0.445,0.688-0.811
				c0.019-0.107-0.042-0.311,0.142-0.364c0.076,0.362,0.063,0.813,0.202,1.113c-0.128,0-0.186,0.07-0.263,0.121
				c-0.048,0.217-0.123,0.403-0.162,0.629c-0.198,0.167-0.269,0.461-0.466,0.628c-0.429-0.02-0.661,0.157-0.952,0.263
				c-0.094,0.033-0.199,0.047-0.283,0.081c-0.118,0.048-0.228,0.139-0.345,0.183c-0.114,0.043-0.239,0.038-0.345,0.081
				c-0.118,0.048-0.221,0.168-0.344,0.223c-0.485,0.218-1.074,0.223-1.499,0.446c-0.24,0.126-0.405,0.396-0.607,0.525
				c-0.001-0.047-0.01-0.101-0.021-0.158l-0.064-0.804l0.812-0.137l0.387-0.25l0.045-0.296l1.541-0.495l-0.219-1.359l-2.705,0.447
				l-0.001-0.037c-0.063-0.438,0.282-0.393,0.267-0.751c-0.016-0.36-0.251-4.763-0.313-5.231c-0.039-0.295-0.189-0.467-0.343-0.585
				l-0.11-1.216c0,0-0.06-0.02-0.151-0.041l-0.028-0.321c0,0-0.21-0.15-0.593-0.15c-0.382,0-0.607,0.264-0.607,0.264l0.106,1.376
				l-0.39,0.438l0.031,0.108l0.354,0.067c-0.121,0.276-0.235,0.581-0.229,0.73c0.016,0.313,0.251,4.447,0.298,4.667
				c0.047,0.22,0.431,0.25,0.446,0.579c0,0.002,0.001,0.004,0.001,0.006l0.035,0.455l-0.382,0.035l-0.1,0.058
				c0,0,0.178,0.427,0.533,0.571l0.076,0.988c-0.079,0.229-0.287,0.407-0.379,0.653c-0.126,0.34-0.146,0.735-0.283,1.094
				c-0.107,0.066-0.307,0.097-0.364,0.224c-0.042,0.092,0.003,0.258-0.021,0.426c-0.011,0.073-0.056,0.145-0.061,0.202
				c-0.017,0.202,0.012,0.451,0.019,0.696c-0.062-0.045-0.129-0.089-0.194-0.134c-0.051-0.033-0.259-0.091-0.597-0.157l-0.097-1.334
				c0.275-0.052,0.432-0.083,0.432-0.083l-0.707-2.61c0,0-2.001-3.676-6.601-3.676c-2.961,0-4.828,1.224-5.875,2.257l-3.534-0.234
				c-0.058-0.273-0.2-0.47-0.379-0.481c-0.014-0.001-0.027,0-0.042,0.001c-0.109-0.27-0.285-0.447-0.493-0.461
				c-0.009-0.001-0.018,0-0.026,0c-0.153-0.21-0.354-0.342-0.582-0.355c-0.2-0.015-0.394,0.065-0.561,0.216
				c-0.027-0.008-0.056-0.014-0.085-0.016c-0.187-0.013-0.364,0.104-0.508,0.301c-0.21,0.022-0.4,0.256-0.498,0.586l-0.321-0.021
				c-0.1-0.529-0.648-1.311-1.392-1.36c-0.846-0.057-1.31,0.166-1.465,0.229c-0.155,0.062-0.582,0.42-0.636,1.23
				c-0.001,0.013-0.004,0.058-0.004,0.068c-0.049,0.74,0.318,1.272,0.464,1.354s0.579,0.322,1.423,0.38
				c0.743,0.05,1.392-0.653,1.56-1.164l0.322,0.021c0.053,0.34,0.21,0.597,0.416,0.646c0.115,0.215,0.277,0.353,0.464,0.365
				c0.028,0.002,0.057,0,0.085-0.005c0.146,0.171,0.327,0.275,0.528,0.289c0.227,0.016,0.443-0.09,0.624-0.276
				c0.009,0.001,0.017,0.004,0.025,0.004c0.208,0.014,0.406-0.141,0.551-0.393c0.014,0.004,0.027,0.006,0.041,0.007
				c0.179,0.013,0.346-0.162,0.439-0.428l2.964,0.199c-0.324,0.418-0.471,0.708-0.471,0.708l-0.695,2.479c0,0,0.189,0.04,0.52,0.104
				l-0.126,1.347c-0.465,0.085-0.752,0.158-0.813,0.2c-0.228,0.152-0.479,0.308-0.404,0.436c0.024,0.042,0.47,0.125,1.137,0.217
				l-0.121,1.299c-0.421,0.078-0.68,0.146-0.737,0.186c-0.228,0.154-0.48,0.308-0.404,0.438c0.023,0.04,0.438,0.117,1.063,0.206
				l-0.135,1.444c-0.449,0.024-0.735,0.045-0.819,0.063c-0.227,0.152-0.405,0.354-0.349,0.419c0.03,0.034,0.424,0.048,1.021,0.052
				c-0.55,0.116-0.551,0.216-0.551,0.216l-0.097,0.604c-0.208-0.001-0.331-0.002-0.351-0.002c-0.256,0-0.306,0.024-0.322,0.091
				c-0.017,0.065-0.958,2.678-1.058,2.999c-0.099,0.322,0.132,0.371,0.132,0.371l-0.102,0.298c0,0-0.767,0.048-0.837,0.072
				c-0.023,0.008-0.13,0.446-0.263,1.038L3.896,25.81c-0.096-0.041-0.199-0.039-0.288-0.002l-0.611-0.266
				c0.115-0.506,0.028-1.003-0.224-1.354c-0.074-0.351-0.249-0.616-0.516-0.732c-0.604-0.263-1.453,0.351-1.894,1.369
				c-0.441,1.017-0.31,2.055,0.295,2.316c0.267,0.115,0.582,0.061,0.887-0.124c0.428-0.056,0.851-0.332,1.141-0.763l0.612,0.267
				c0.034,0.09,0.103,0.168,0.198,0.209l7.508,3.255c-0.226,1.058-0.442,2.139-0.43,2.176c0.023,0.071,1.197,0.918,1.197,0.918
				s-0.092,0.257-0.239,0.639c-0.104,0.271,0.1,0.407,0.1,0.407l0.354,0.282l-0.227,1.188c-0.009,0-0.018,0-0.026,0
				c-0.836,0-1.515,0.678-1.515,1.514c0,0.648,0.409,1.203,0.983,1.419l-0.307,1.611c-0.027-0.002-0.055-0.004-0.082-0.004
				c-0.837,0-1.515,0.68-1.515,1.516c0,0.669,0.435,1.236,1.036,1.437l-0.31,1.628c-0.044-0.004-0.088-0.007-0.133-0.007
				c-0.836,0-1.514,0.679-1.514,1.515c0,0.688,0.457,1.268,1.084,1.453l-0.308,1.612c-0.05-0.005-0.102-0.008-0.153-0.008
				c-0.836,0-1.515,0.679-1.515,1.515c0,0.694,0.468,1.278,1.104,1.457l-0.08,0.421L7.671,53.12l-0.428,1.652l-0.024,1.701
				l0.215,0.071c0,0,0.048,1.054,0.048,1.197s2.42,1.604,2.611,1.629s6.995,0.096,7.187,0.096c0.192,0,7.977-0.646,7.977-0.646
				l5.007-1.006c0,0,1.566-0.635,3.097-1.252c0.123,0.684,0.62,0.992,1.2,1.22c0.031,0.214-0.103,0.638,0,0.871
				c0.1,0.227,0.567,0.327,0.972,0.345c0.813,0.032,1.583-0.17,2.127-0.466c0.294-0.16,0.601-0.341,0.973-0.365
				c0.852-0.056,1.613,0.366,2.35,0.103c0.275-0.101,0.582-0.289,0.83-0.486c0.607-0.484,1.096-1.037,1.275-1.885
				c0.735-0.047,1.32,0.058,1.904,0.162c0.154-0.59-0.075-1.258-0.081-1.883c0.404-0.103,0.908-0.175,1.013-0.526
				c0.062-0.21-0.084-0.578-0.122-0.851c-0.046-0.33-0.058-0.664-0.081-0.953c-0.364-4.463-0.583-9.101-0.83-13.53
				c0.37-0.081,0.748-0.155,0.749-0.606c0.286-0.172,0.247-0.571,0.365-0.973c0.067-0.231,0.214-0.48,0.223-0.668
				c0.018-0.388-0.235-0.753-0.183-1.175c0.206-0.108,0.486-0.125,0.579-0.309c0.003,0.049,0.007,0.098,0.012,0.143
				c0.073,0.693,0.119,1.406,0.164,2.084c0.021,0.303,0.123,0.578,0.146,0.859c0.013,0.155,0.026,0.301,0.055,0.439
				c0.029,0.142,0.097,0.271,0.109,0.402c0.015,0.138-0.037,0.272-0.055,0.401c-0.069,0.517,0.022,1.155,0.055,1.682
				c0.033,0.522,0.056,1.021,0.146,1.463c0.182,0.875,0.726,1.404,1.316,1.883c0.031,0.158,0.104,0.275,0.146,0.421
				c-0.221,0.393-0.717,0.438-0.585,1.079c0.151,0.732,0.638,1.681,1.188,1.955c0.109,0.777,0.17,1.712,0.22,2.598
				c0.017,0.301-0.065,0.746,0.091,0.878c-0.199,0.315,0.037,0.666,0.02,0.97c-0.006,0.082-0.062,0.139-0.055,0.219
				c0.008,0.113,0.111,0.203,0.108,0.312c-0.002,0.085-0.081,0.158-0.108,0.256c-0.031,0.108,0.01,0.116-0.037,0.185
				c-0.088,0.125,0.066,0.216,0.072,0.347c-0.162,0.146-0.057,0.36-0.183,0.513c0.075,0.123,0.001,0.285,0.019,0.457
				c-0.091,0.071-0.08,0.148-0.055,0.219c-0.157,0.16-0.406,0.229-0.439,0.514c-0.094-0.014-0.156,0.051-0.236,0.091
				c-0.18,0.09-0.272,0.11-0.348,0.312c-0.148,0.078-0.32,0.131-0.458,0.22c-0.024,0.067-0.041,0.142-0.036,0.237
				c-0.408,0.269-0.729,0.496-1.299,0.586c-0.681,0.106-1.547-0.071-2.157,0c-0.049,0.006-0.123,0.02-0.165,0.035
				c-0.191,0.079-0.208,0.256-0.311,0.422c-0.081,0.129-0.166,0.178-0.201,0.293c-0.153,0.504,0.427,0.729,0.768,0.877
				c0.749,0.322,1.64,0.459,2.67,0.476c1.406,0.021,2.342-0.554,3.711-0.476c-0.019,0.164-0.037,0.406,0,0.566
				c0.323,0,0.646,0,0.969,0c-0.004,0.096,0.001,0.182,0.019,0.256c-0.094,0.115-0.236,0.295-0.164,0.477
				c0.049,0.123,0.324,0.191,0.513,0.256c0.608,0.204,1.304,0.322,1.938,0.402c0.459,0.058,0.979,0.143,1.426,0.09
				c0.441-0.051,0.9-0.166,1.207-0.346c0.293-0.175,0.426-0.555,0.621-0.843c0.039-0.058,0.197-0.249,0.329-0.256
				c0.156-0.008,0.297,0.129,0.42,0.128c0.168-0.001,0.436-0.145,0.584-0.22c0.186-0.093,0.384-0.17,0.457-0.365
				c0.064-0.168,0.025-0.336,0.02-0.493c-0.023-0.589-0.05-1.23-0.201-1.719c-0.053-0.17-0.169-0.374-0.164-0.477
				c0.006-0.139,0.184-0.295,0.184-0.438c-0.002-0.19-0.144-0.292-0.201-0.457c0.258-0.438-0.018-0.995,0.005-1.465
				c0.028-0.041,0.06-0.081,0.093-0.117c0.137-0.151,0.327-0.296,0.516-0.43c0.617-0.438,1.332-0.854,2.062-1.245
				c0.095-0.051,0.271-0.155,0.315-0.157c0.094-0.007,0.349,0.327,0.442,0.415c0.157,0.145,0.323,0.288,0.444,0.443
				c0.277,0.353,0.443,0.742,0.701,1.072c0.188-0.094,0.262-0.301,0.344-0.5c0.176,0.166,0.268,0.357,0.386,0.615
				c0.033,0.07,0.099,0.168,0.101,0.229c0.006,0.099-0.084,0.216-0.101,0.345c-0.021,0.172-0.021,0.375-0.042,0.571
				c-0.021,0.205-0.054,0.412-0.058,0.56c-0.003,0.12,0.041,0.162,0.071,0.257c-0.067,0.18-0.15,0.312-0.187,0.502
				c-0.021,0.105,0.011,0.221-0.015,0.344c-0.028,0.138-0.156,0.263-0.2,0.387c-0.095,0.268-0.035,0.494-0.071,0.759
				c-0.01,0.069-0.052,0.126-0.058,0.2c-0.015,0.184,0.046,0.38,0.071,0.572c0.023,0.18,0.039,0.365,0.086,0.559
				c0.504,0.081,1.113,0.025,1.617,0.014c0.521-0.012,1.092,0.033,1.604,0c0.443-0.027,0.457-0.356,0.529-0.814
				c0.019-0.116-0.002-0.229,0-0.344c0-0.144,0.039-0.248,0.027-0.387c-0.01-0.127-0.085-0.252-0.1-0.387
				c-0.053-0.473,0.083-1.016-0.114-1.389c0.218-0.258,0.091-0.715,0.157-1.073c0.02-0.106,0.1-0.224,0.143-0.345
				c0.045-0.125,0.049-0.262,0.086-0.387c0.02-0.058,0.084-0.123,0.102-0.186c0.088-0.332,0.046-0.693,0.156-1.045
				c0.311,0.365,0.533,0.775,0.787,1.201c0.084,0.139,0.196,0.281,0.188,0.474c0.145-0.165,0.166-0.41,0.215-0.646
				c0.094-0.449,0.129-1.01,0.129-1.573c0-0.286-0.052-0.603,0-0.845c0.027-0.131,0.193-0.261,0.271-0.373
				c0.099-0.142,0.121-0.308,0.258-0.371c0.152,0.164,0.167,0.418,0.229,0.658c0.049,0.184,0.182,0.494,0.188,0.7
				c0.005,0.193-0.122,0.563-0.172,0.773c-0.159,0.677-0.327,1.216-0.314,2.047c0.002,0.136,0.051,0.315,0.028,0.429
				c-0.015,0.075-0.086,0.133-0.101,0.215c-0.076,0.428-0.115,1.113,0.101,1.403c0.026,0.037,0.094,0.085,0.144,0.114
				c0.299,0.181,0.75,0.266,1.146,0.343c0.163,0.033,0.42-0.196,0.614-0.157c0.147,0.03,0.315,0.149,0.416,0.258
				c0.096,0.104,0.168,0.295,0.271,0.416c0.34,0.394,1.145,0.61,1.875,0.559c0.532-0.039,1.064-0.135,1.589-0.258
				c0.212-0.051,0.484-0.092,0.572-0.258c0.06-0.11,0.099-0.422,0.086-0.56c-0.009-0.099-0.079-0.165-0.101-0.257
				c-0.022-0.098-0.026-0.196-0.058-0.286c-0.112-0.333-0.444-0.479-0.716-0.673c-0.105-0.076-0.24-0.205-0.387-0.301
				c-0.137-0.09-0.375-0.135-0.43-0.258c-0.056-0.123,0.121-0.131,0.058-0.314c-0.093-0.154-0.318-0.104-0.474-0.201
				c-0.076-0.048-0.166-0.214-0.242-0.328c-0.219-0.332-0.5-0.688-0.631-1.061c-0.217-0.616,0.002-1.405,0.172-1.945
				c0.16,0.211,0.205,0.539,0.358,0.758c0.078-0.418,0.013-0.98,0.071-1.417c0.249,0.666,0.639,1.286,0.986,1.904
				c0.266,0.469,0.416,1,0.631,1.53c0.064,0.16,0.144,0.36,0.371,0.345c0.086-0.034-0.012-0.263,0.043-0.358
				c0.037-0.031,0.037,0.051,0.059,0.086c0.063,0.105,0.159,0.264,0.271,0.329c0.343-0.403,0.545-0.881,0.815-1.331
				c0.265-0.439,0.551-0.91,0.557-1.574c0.365,0.553,0.64,1.193,0.988,1.762c0.094-0.061,0.133-0.149,0.172-0.229
				c0.188-0.393,0.289-0.902,0.459-1.432c0.072-0.23,0.151-0.471,0.242-0.702c0.108-0.278,0.219-0.524,0.2-0.858
				c-0.008-0.129-0.072-0.264-0.071-0.387c0.002-0.27,0.15-0.447,0.186-0.701c0.048-0.336-0.01-0.717-0.043-1.102
				c-0.088-1.082-0.157-2.236-0.229-3.293c-0.102-1.502-0.238-2.922-0.371-4.321c-0.371-3.863-0.652-7.705-1-11.542
				c0.065-0.048,0.141-0.146,0.197-0.268c0.041-0.086,0.064-0.171,0.075-0.242c0.205-0.079,0.414-0.191,0.623-0.335
				c0.102,1.085,0.214,2.518,0.347,3.327c0.076,0.47,0.234,0.854,0.188,1.334c0.029,0.114,0.115,0.124,0.164,0.233
				c0.304,0.7-0.451,2.385,0.233,2.832c-0.243,0.817-0.585,2.291-0.516,3.418c0.084,1.35,1.008,2.054,2.528,1.755
				c0.28,1.406,0.586,3.121,0.937,4.492c0.127,0.5,0.351,0.971,0.397,1.428c0.021,0.213-0.049,0.436-0.07,0.68
				c-0.014,0.152,0.033,0.311,0,0.422c-0.047,0.158-0.305,0.27-0.397,0.491c-0.103,0.243-0.084,0.429-0.141,0.702
				c-0.493,0.58-0.784,1.267-0.937,2.13c-0.05,0.278-0.18,0.548-0.211,0.819c-0.023,0.205,0.032,0.396,0,0.584
				c-0.051,0.293-0.279,0.604-0.397,0.938c-0.14,0.393-0.237,0.87-0.212,1.264c0.027,0.4-0.195,0.81-0.069,1.266
				c-0.125,0.271-0.179,0.66-0.093,0.912c0.04,0.117,0.121,0.119,0.232,0.233c0.096,0.097,0.119,0.211,0.211,0.257
				c0.25,0.127,0.707,0.045,1.076,0.023c0.381-0.02,0.764-0.076,1.055-0.116c0.129-0.125,0.008-0.407,0.094-0.539
				c0.517-0.162,1.311-0.045,1.802,0.048c-0.026,0.12,0.03,0.197,0.022,0.305c-0.006,0.103-0.071,0.146-0.094,0.258
				c-0.056,0.297-0.027,0.859,0.07,1.076c0.116,0.252,0.674,0.307,1.055,0.279c0.371-0.023,0.711-0.193,1.006-0.257
				c0.322,0.067,0.47,0.394,0.701,0.515c0.315,0.166,0.969,0.071,1.381,0.023c1.373-0.156,2.641-0.529,3.582-0.938
				c0.051-0.285,0.067-0.694-0.233-0.7c0.024-1.134-1.356-0.651-1.989-1.101c-0.124-0.078-0.068-0.188-0.141-0.281
				c-0.154-0.201-0.551-0.202-0.563-0.539c-0.4-0.051-0.378-0.526-0.748-0.607c0.043-0.041,0.148-0.021,0.187-0.07
				c0.334-0.761,0.071-1.693-0.187-2.363c-0.166-0.428-0.482-0.813-0.539-1.193c-0.078-0.521,0.084-1.32,0.047-1.988
				c-0.013-0.224-0.076-0.434-0.07-0.633c0.004-0.12,0.06-0.261,0.07-0.398c0.028-0.379-0.09-0.782-0.07-1.1
				c0.025-0.408,0.33-0.908,0.539-1.264c0.718-1.223,0.783-2.871,1.029-4.447c0.943-0.456,1.646-1.007,2.224-1.778
				c0.575-0.771,0.876-1.754,1.03-2.972c0.156-1.243-0.076-2.481-0.234-3.675c-0.156-1.178-0.417-2.295-0.666-3.296
				c0.295,0.015,0.549-0.222,0.584-0.535l0.22,0.014c0.072,0.004,0.136-0.052,0.14-0.124l0.021-0.351l0.527,0.031
				c0.084,0.005,0.154-0.059,0.158-0.142l0.035-0.572c0.004-0.083-0.059-0.154-0.142-0.159l-0.157-0.009l0.109-1.832l0.082,0.005
				c0.027,0.002,0.051-0.028,0.053-0.067l0.084-1.419c0.003-0.039-0.018-0.071-0.044-0.073L94.18,24.15
				c-0.027-0.002-0.051,0.028-0.054,0.067l-0.011,0.191l-0.367-0.021c0.04-0.146,0.363-0.16,0.275-0.482
				c-0.117-0.133-0.453-0.047-0.679-0.07c-0.096-0.045-0.163-0.281-0.304-0.353c-0.083-0.041-0.201,0.021-0.305-0.022
				c-0.029-0.012-0.092-0.114-0.142-0.163c-0.222-0.223-0.192-0.339-0.21-0.726c-0.009-0.183-0.091-0.355-0.094-0.445
				c-0.014-0.319,0.156-0.729,0.234-1.101c0.076-0.375,0.183-0.771,0.187-1.146c0.005-0.416-0.063-0.879-0.094-1.334
				c-0.011-0.147,0.018-0.31,0-0.468c-0.046-0.407-0.195-0.791-0.351-1.077c-0.084-0.151-0.285-0.259-0.353-0.421
				c-0.072-0.18-0.136-0.973-0.093-1.17c0.049-0.235,0.352-0.435,0.49-0.679c0.098-0.172,0.135-0.327,0.188-0.517
				c0.687-0.358,1.199-0.891,1.356-1.777c0.32-0.151,0.355-0.438,0.492-0.796c0.063-0.167,0.223-0.336,0.233-0.444
				c0.015-0.13-0.101-0.273-0.095-0.398c0.011-0.171,0.121-0.378,0.164-0.562c0.052-0.22,0.089-0.417,0.094-0.655
				c0.02-0.12,0.068,0.07,0.117,0.07C95.001,9.14,94.698,8.702,94.541,8.334z M35.249,27.604c0.585-0.113,0.657,0.999,0.081,1.013
				C34.814,28.628,34.758,27.699,35.249,27.604z M32.716,27.908c0.042-0.091,0.04-0.187,0.081-0.283
				c0.096-0.229,0.22-0.396,0.243-0.669c0.043-0.492-0.036-1.035,0.061-1.701c0.103,0.102,0.02,0.272,0.061,0.405
				c0.032,0.103,0.15,0.188,0.183,0.304c0.031,0.109,0.008,0.245,0.041,0.324c0.07,0.169,0.275,0.175,0.385,0.283
				c-0.003,0.34-0.081,0.846-0.062,1.297c0.007,0.134,0.069,0.326,0.041,0.445c-0.034,0.144-0.267,0.305-0.345,0.466
				c-0.175,0.362-0.257,0.913-0.364,1.418c-0.116,0.546-0.215,1.107-0.303,1.674c-0.029-0.107-0.052-0.189-0.063-0.229
				c-0.074-0.273-0.264-0.324-0.264-0.324l-0.372-0.081l-0.1-0.423c0,0,0.751-0.336,0.751-0.403c0-0.025-0.176-0.923-0.39-2.006
				C32.49,28.238,32.646,28.061,32.716,27.908z M30.281,19.106c0.018,0.188,0.037,0.373,0.005,0.519
				c-0.023,0.104-0.165,0.286-0.243,0.425c-0.104,0.186-0.201,0.363-0.295,0.537c-0.038-0.008-0.077-0.016-0.119-0.023l-0.098-1.329
				C29.858,19.186,30.119,19.142,30.281,19.106z M38.509,29.508c-0.576-0.048-0.676-0.967-0.061-1.072
				c0.001-0.001,0.006-0.021,0.021-0.021C39.233,28.33,39.231,29.567,38.509,29.508z M41.609,28.536
				c-0.481,0.011-0.508-0.936-0.081-1.033C42.106,27.372,42.087,28.525,41.609,28.536z M55.96,51.167
				c-0.021,0.314-0.26,0.701-0.329,1.043c-0.023,0.11-0.013,0.235-0.037,0.348c-0.058,0.275-0.146,0.556-0.201,0.842
				c-0.057,0.301-0.074,0.613-0.146,0.877c-0.073,0.275-0.252,0.531-0.365,0.787c-0.122,0.273-0.297,0.506-0.401,0.748
				c-0.029,0.068-0.025,0.154-0.056,0.221c-0.118,0.264-0.385,0.498-0.476,0.749c0.027-0.247,0.066-0.544-0.02-0.769
				c-0.063-0.168-0.199-0.268-0.273-0.42c-0.021-0.046-0.002-0.104-0.018-0.146c-0.039-0.101-0.138-0.128-0.166-0.22
				c0.021-0.08,0.098-0.172,0.092-0.256c-0.008-0.113-0.131-0.158-0.164-0.274c-0.018-0.06,0.002-0.189-0.019-0.292
				c-0.021-0.104-0.062-0.163-0.055-0.238c0.008-0.091,0.108-0.179,0.128-0.273c0.029-0.162-0.057-0.381-0.092-0.604
				c-0.119-0.728-0.088-1.576-0.036-2.377c0.034-0.058,0.142-0.041,0.163-0.108c-0.129-0.408-0.026-1.018,0-1.592
				c0.027-0.578,0.072-1.087,0.074-1.683c0.028-0.074,0.146-0.06,0.22-0.091c0.026-0.117,0.206-0.238,0.256-0.402
				c0.024-0.086,0.01-0.209,0.036-0.329c0.1-0.458,0.527-1.069-0.02-1.354c0.328-0.761-0.041-1.387-0.311-2.084
				c-0.208-0.541-0.32-1.194-0.73-1.463c-0.162-0.104-0.418-0.154-0.566-0.22c-0.027-0.61,0.259-1.136,0.146-1.681
				c-0.045-0.22-0.228-0.462-0.327-0.677c-0.117-0.246-0.183-0.477-0.293-0.695c0.188-0.652,0.301-1.381,0.256-2.268
				c0.338,0.027,0.687,0.045,1.061,0.037c0.251,1.366,0.422,2.9,0.878,4.112c0.163,0.436,0.339,0.802,0.365,1.28
				c0.012,0.194-0.011,0.334,0,0.493c0.019,0.275,0.139,0.584,0.092,0.877c-0.039,0.246-0.306,0.404-0.165,0.769
				c0.076,0.197,0.264,0.257,0.385,0.438c-0.334,0.125-0.365,0.85-0.128,1.17c0.159,0.216,0.433,0.34,0.658,0.385
				c0.392,0.681,0.257,1.896,0.312,2.871c0.021,0.408,0.107,0.81-0.109,1.097c0.094,0.089,0.158,0.207,0.311,0.238
				C55.738,50.399,55.986,50.767,55.96,51.167z M58.481,36.668c0.059-0.646-0.027-1.314,0.109-1.828
				c0.414-0.247,0.807-0.511,1.18-0.793c-0.166,1.346-0.336,2.688-0.506,4.01c-0.109,0.854-0.219,1.711-0.328,2.571
				c-0.093-0.029-0.18-0.057-0.235-0.104c-0.005-0.278,0.063-0.513,0.092-0.747c0.028-0.248,0.101-0.526,0.056-0.787
				c-0.035-0.208-0.216-0.43-0.312-0.641c-0.101-0.22-0.267-0.492-0.274-0.693C58.252,37.376,58.449,37.03,58.481,36.668z
				 M81.598,8.17c-0.049,0.222-0.281,0.404-0.441,0.604l-0.662-0.311C80.88,8.424,81.219,8.246,81.598,8.17z M81.34,35.227
				c-0.156-0.334-0.252-0.731-0.396-1.076c0.05-0.231,0.097-0.465,0.141-0.702C81.297,33.911,81.296,34.591,81.34,35.227z
				 M80.525,10.765l0.432,0.201l-0.064,0.142l-0.434-0.203C80.484,10.856,80.512,10.806,80.525,10.765z M79.021,10.066
				c0.012,0.004,0.021,0.007,0.031,0.01l1.189,0.557c-0.078,0.117-0.17,0.257-0.215,0.323
				C79.609,10.754,78.846,10.786,79.021,10.066z M79.344,12.891c-0.013-0.223,0.025-0.389,0.075-0.539
				c0.056-0.166,0.121-0.315,0.248-0.468c0.097-0.116,0.217-0.238,0.335-0.399L79.344,12.891z M80.193,30.405
				c0.007,0.041-0.022,0.048-0.023,0.023c-0.037-0.717-0.141-1.598-0.211-2.389c-0.014-0.151-0.063-0.546-0.098-0.896
				c0.156-0.15,0.313-0.317,0.463-0.498c0.182,0.126,0.373,0.239,0.501,0.224c0,0.117,0,0.233,0,0.352
				c-0.161,0.058-0.308,0.13-0.421,0.233C80.298,28.403,80.256,29.415,80.193,30.405z M80.85,40c-1.396-0.641-0.42-3.542-0.164-4.82
				c0.188,0.43,0.414,1.106,0.654,1.567c0.085,0.162,0.21,0.325,0.258,0.468c0.074,0.223,0.077,0.512,0.117,0.749
				c0.119,0.711,0.273,1.388,0.444,2.106C81.684,40.121,81.215,40.168,80.85,40z M92.271,29.363
				c0.511,1.691,0.932,3.734,1.027,5.863c0.127,2.785-0.949,4.427-2.762,5.358c-0.023-0.257-0.163-0.509-0.188-0.771
				c-0.017-0.178,0.037-0.342,0.023-0.539c-0.027-0.392-0.105-0.813-0.211-1.193c-0.033-0.118-0.104-0.229-0.141-0.352
				c-0.27-0.912-0.448-1.926-0.516-2.926c-0.041-0.615-0.265-1.209-0.375-1.803c-0.107-0.589-0.218-1.179-0.538-1.615
				c0.188-0.093,0.521-0.041,0.655-0.187c-0.032-1.043,0.012-2.165-0.281-2.949c0.01-0.062,0.014-0.129,0.047-0.164
				c-0.158-0.659-0.193-1.442-0.537-1.919c0.299-0.1,0.584-0.212,0.748-0.444c0.25,0.03,0.444,0.117,0.727,0.116
				c0.093,0.268,0.285,0.434,0.585,0.491c-0.011,0.065,0.067,0.154,0.202,0.228l-0.119,2.006c-0.004,0.072,0.051,0.135,0.123,0.139
				l1.029,0.063C91.771,29.073,91.986,29.332,92.271,29.363z"/>
			<path fill="#FFFFFF" d="M7.092,11.952c0.243,0.016,0.417,0.38,0.388,0.813c-0.029,0.433-0.249,0.771-0.492,0.755
				C6.745,13.504,6.571,13.14,6.6,12.707C6.629,12.273,6.849,11.936,7.092,11.952z M86.441,17.286
				c-0.621,0.237-1.254,0.46-1.877,0.695c-0.014-0.042-0.021-0.089-0.026-0.135c0.015,0.001,0.038,0.014,0.043,0
				c-0.021-0.032-0.067-0.022-0.095-0.023c-0.227-0.008-0.357,0.147-0.577,0.151c0.008-0.026,0.021-0.045,0.034-0.062
				c-0.123,0.02-0.008,0.174-0.076,0.236c-0.081-0.018-0.119-0.104-0.155-0.157c-0.034-0.054-0.062-0.103-0.118-0.133
				c-0.01,0.001,0.01,0.022-0.006,0.028c-0.111-0.044-0.152-0.135-0.257-0.184c-0.021,0,0.007,0.019-0.011,0.026
				c-0.055-0.004-0.135,0.052-0.17-0.01c0.026-0.081,0.109-0.075,0.14-0.151c0.03,0.018,0.05,0.041,0.073,0.063
				c0.004-0.056-0.073-0.112-0.131-0.132c-0.063-0.021-0.135-0.007-0.172-0.041c0.037-0.082,0.151-0.096,0.228-0.142
				c0.032,0.014,0.026,0.053,0.054,0.068c-0.002-0.086-0.05-0.15-0.128-0.204c-0.03-0.021-0.098-0.045-0.091-0.079
				c0.006-0.028,0.055-0.03,0.087-0.023c0.153,0.027,0.259,0.146,0.362,0.235c0.053,0.045,0.104,0.095,0.156,0.133
				c0.058,0.042,0.123,0.088,0.199,0.09c-0.015-0.016-0.033-0.027-0.056-0.038c0.121-0.098,0.274-0.145,0.399-0.241
				c0.096-0.075,0.168-0.192,0.304-0.215c0.034,0.032,0.049,0.077,0.079,0.112c-0.02-0.152-0.162-0.269-0.104-0.466
				c0.049-0.165,0.195-0.244,0.314-0.346c0.146-0.124,0.205-0.333,0.355-0.405c0.104-0.049,0.247-0.043,0.389-0.023
				c-0.018-0.02-0.057-0.022-0.077-0.038c0.063-0.038,0.188-0.086,0.282-0.077c0.19,0.016,0.08,0.225,0.252,0.269
				c0.011-0.006-0.022-0.026-0.004-0.039c0.037,0.011,0.053-0.014,0.09-0.003c0.023,0.17-0.248,0.034-0.305,0.138
				c-0.018-0.028-0.031-0.061-0.06-0.081c0.024,0.064,0.063,0.149,0.047,0.242c-0.009,0.054-0.039,0.105-0.046,0.175
				c-0.016,0.155,0.1,0.29,0.079,0.455c-0.021,0.159-0.12,0.263-0.229,0.354c0,0.003-0.002,0.003-0.006,0.003
				c0,0.001-0.001,0.003-0.001,0.004c0.121-0.048,0.211-0.145,0.267-0.296C86.15,17.039,86.309,17.172,86.441,17.286z
				 M87.484,18.282c-0.062-0.047-0.168-0.074-0.243-0.112c-0.03-0.015-0.048-0.04-0.076-0.042c-0.021,0.032,0.002,0.063-0.001,0.082
				c-0.051-0.022-0.035-0.08-0.014-0.119c0.031-0.055,0.107-0.112,0.17-0.148c0.045-0.025,0.185-0.067,0.186-0.124
				c0.001-0.025-0.029-0.041-0.072-0.045c-0.104-0.012-0.217,0.035-0.313,0.065c-0.103,0.032-0.202,0.082-0.324,0.047
				c0.031-0.006,0.067-0.005,0.099-0.014c-0.056-0.042-0.153,0.008-0.195-0.032c0.008-0.022,0.042-0.002,0.039-0.039
				c-0.305,0.097-0.607,0.22-0.913,0.329c-0.308,0.11-0.613,0.226-0.915,0.342c0.131,0.105,0.273,0.229,0.472,0.286
				c0.03,0.009,0.07,0.009,0.093,0.032c-0.018,0.01-0.039,0.007-0.058,0.005c-0.192-0.024-0.347-0.15-0.472-0.229
				c-0.079,0.129-0.221,0.161-0.338,0.233c0.16,0.166,0.379,0.318,0.687,0.37c0.333,0.055,0.603-0.014,0.827-0.146
				c0.227-0.135,0.422-0.323,0.529-0.608c-0.057-0.009-0.103-0.023-0.137-0.046c-0.088,0.009-0.162,0.063-0.263,0.039
				c-0.138-0.033-0.078-0.175-0.011-0.23c0.027-0.024,0.064-0.042,0.076-0.074c-0.026-0.037-0.088-0.07-0.084-0.116
				c0.058-0.018,0.065,0.074,0.117,0.095c0.022-0.001,0.018-0.045,0.043-0.038c-0.008,0.113-0.177,0.139-0.188,0.252
				c-0.002,0.03,0.018,0.042,0.033,0.063c0.145,0.043,0.227-0.023,0.33-0.036c0.022-0.004,0.072-0.018,0.086,0.021
				c-0.018,0.019-0.059,0-0.076,0.018c0.124,0.065,0.205-0.02,0.322,0.021c0.142,0.05,0.188,0.257,0.35,0.234
				c0.021-0.082-0.053-0.114-0.086-0.16c-0.021-0.03-0.018-0.067-0.051-0.089c0.076-0.085,0.229,0.031,0.334,0.046
				c0.027,0.004,0.087,0.002,0.098-0.031C87.557,18.348,87.5,18.293,87.484,18.282z M85.172,17.053
				c0.082,0.007,0.123-0.211,0.01-0.204C85.098,16.854,85.076,17.046,85.172,17.053z M85.055,17.179
				c-0.005,0.094,0.18,0.11,0.17,0.015C85.182,17.225,85.1,17.223,85.055,17.179z M85.264,16.209
				c-0.025-0.01-0.061,0.017-0.076,0.06c-0.019,0.043-0.012,0.086,0.015,0.097c0.026,0.01,0.062-0.018,0.077-0.061
				C85.296,16.262,85.289,16.219,85.264,16.209z M85.543,16.286c-0.025-0.011-0.061,0.017-0.077,0.06s-0.01,0.086,0.017,0.096
				c0.024,0.012,0.06-0.016,0.076-0.059C85.575,16.339,85.568,16.296,85.543,16.286z M85.281,16.648
				c-0.027-0.004-0.051-0.019-0.063-0.037c-0.004,0.041,0.021,0.078,0.058,0.085c0.039,0.006,0.074-0.024,0.082-0.066
				C85.337,16.645,85.311,16.652,85.281,16.648z M85.26,16.104c0.023-0.014,0.049-0.019,0.07-0.016
				c-0.02-0.027-0.059-0.036-0.092-0.018c-0.032,0.019-0.045,0.059-0.028,0.089C85.217,16.14,85.234,16.119,85.26,16.104z
				 M85.62,16.248c0.026-0.027,0.026-0.073-0.001-0.104c-0.026-0.028-0.068-0.033-0.098-0.009c0.022,0.003,0.047,0.016,0.066,0.037
				C85.609,16.196,85.62,16.223,85.62,16.248z M73.793,14.184c-0.604-0.637-1.731-1.076-2.819-1.06
				c-0.563,0.009-1.188,0.166-1.246,0.658c-0.033,0.278,0.104,0.495,0.215,0.645c0.354,0.469,1.045,0.808,1.59,0.987
				c0.384,0.126,0.932,0.246,1.475,0.215c0.506-0.03,1.021-0.187,1.116-0.603C74.198,14.697,73.952,14.352,73.793,14.184z
				 M73.464,15.3c0.199-0.283-0.154-0.701-0.458-0.516c-0.017,0.009-0.063,0.07-0.071,0.07c-0.041,0-0.226-0.215-0.373-0.186
				c-0.185,0.038-0.233,0.274-0.271,0.472c-0.188-0.219-0.597-0.884-0.901-0.5c-0.143-0.111-0.386-0.31-0.602-0.172
				c-0.082,0.059,0.018,0.263,0.086,0.357c0.042,0.058,0.049,0.083,0.102,0.144c-0.383-0.215-1.06-0.529-1.002-1.131
				c0.039-0.424,0.532-0.499,0.973-0.559c-0.229,0.344,0.611,0.8,0.716,0.458c0.049-0.161-0.052-0.267-0.086-0.43
				c0.016,0.008,0.11,0.163,0.161,0.197c0.052,0.008,0.095,0.019,0.188,0.016c0.021-0.02,0.021-0.091,0.036-0.155
				c0.059,0.247,0.247,0.714,0.63,0.673c0.222-0.022,0.199-0.324,0.043-0.443c0.431,0.188,1.231,0.531,1.302,1.146
				C73.976,15.075,73.737,15.229,73.464,15.3z M41.528,27.502c0.578-0.131,0.56,1.022,0.081,1.033
				C41.127,28.546,41.101,27.601,41.528,27.502z M35.249,27.604c0.585-0.113,0.657,0.999,0.081,1.013
				C34.814,28.628,34.758,27.699,35.249,27.604z M38.449,28.436c0.001-0.001,0.006-0.021,0.021-0.021
				c0.764-0.085,0.762,1.152,0.04,1.094C37.933,29.46,37.834,28.541,38.449,28.436z M50.363,1.034
				c0.171,0.543,0.371,1.056,0.55,1.591c-0.122,0-0.244,0-0.366,0c-0.046-0.101-0.066-0.227-0.109-0.329c-0.183,0-0.365,0-0.549,0
				c-0.059,0.093-0.091,0.214-0.128,0.329c-0.12,0-0.243,0-0.364,0c0.201-0.523,0.364-1.085,0.584-1.591
				C50.107,1.034,50.236,1.034,50.363,1.034z M49.962,2.021c0.128,0,0.256,0,0.384,0c-0.07-0.196-0.113-0.423-0.199-0.604
				C50.096,1.63,50.021,1.817,49.962,2.021z M47.338,12.2c0.053-0.012,0.52-0.104,1.084-0.213c0.371-0.798,0.624-1.245,0.752-1.263
				c0.048-0.008,0.069,0.055,0.093,0.173c0.006,0.038,0.07,0.379,0.161,0.861c0.544-0.101,1.021-0.146,1.157-0.155
				c0.368-0.029,0.117,0.169,0.053,0.265c-0.025,0.037-0.473,0.443-1.019,0.931c0.085,0.456,0.161,0.857,0.192,1.015
				c0.039,0.192,0.047,0.315,0.006,0.353c-0.021,0.02-0.146-0.012-0.221-0.064c-0.053-0.038-0.412-0.245-0.816-0.537
				c-0.649,0.566-1.097,1.046-1.252,1.001c-0.078-0.021,0.166-0.726,0.5-1.598c-0.344-0.246-0.634-0.452-0.721-0.509
				C47.06,12.295,47.207,12.229,47.338,12.2z M52.797,16.868c2.749-0.132,4.937,0.996,6.308,2.34c1.401,1.374,2.6,3.261,2.725,5.905
				c0.131,2.769-1.01,4.923-2.342,6.308c-1.416,1.476-3.268,2.579-5.923,2.706c-2.715,0.129-4.86-0.945-6.29-2.322
				c-1.479-1.423-2.598-3.221-2.725-5.905c-0.132-2.795,0.952-4.878,2.304-6.308c1.005-1.063,2.334-1.979,4.041-2.433
				C51.479,17.005,52.139,16.898,52.797,16.868z M51.425,19.354c-1.237,0.355-2.213,1.034-2.942,1.829
				c-0.97,1.056-1.806,2.629-1.665,4.681c0.135,1.955,0.942,3.344,2.03,4.334c1.086,0.988,2.688,1.792,4.68,1.662
				c1.92-0.122,3.3-0.907,4.333-2.028c0.982-1.063,1.824-2.589,1.701-4.681c-0.11-1.874-0.985-3.378-2.028-4.334
				c-1.053-0.964-2.678-1.813-4.699-1.683C52.365,19.165,51.861,19.229,51.425,19.354z M53.254,21.366
				c0.348,0.906,0.686,1.824,1.005,2.761c0.958,0.035,1.954,0.033,2.927,0.055c0.008,0.051-0.057,0.081-0.092,0.11
				c-0.691,0.564-1.506,1.137-2.193,1.719c0.289,0.929,0.578,1.858,0.858,2.797c-0.821-0.531-1.614-1.092-2.432-1.627
				c-0.817,0.528-1.63,1.162-2.414,1.664c0.265-0.932,0.521-1.867,0.805-2.779c-0.722-0.645-1.632-1.195-2.321-1.811
				c0.969-0.024,1.908-0.078,2.889-0.091C52.635,23.257,52.939,22.306,53.254,21.366z"/>
		</g>
	</g>
</g>
<g id="Layer_2_1_" display="none">
	<g display="inline">
		<linearGradient id="SVGID_2_" gradientUnits="userSpaceOnUse" x1="70.8867" y1="31.7109" x2="70.8867" y2="4.9639">
			<stop  offset="0.0056" style="stop-color:#FBC926"/>
			<stop  offset="0.2528" style="stop-color:#FFFBCC"/>
			<stop  offset="0.3045" style="stop-color:#F8F0BB"/>
			<stop  offset="0.4072" style="stop-color:#E7D28E"/>
			<stop  offset="0.55" style="stop-color:#CCA246"/>
			<stop  offset="0.5955" style="stop-color:#C3922E"/>
			<stop  offset="0.8708" style="stop-color:#EED688"/>
			<stop  offset="1" style="stop-color:#FFFBCC"/>
		</linearGradient>
		<path fill="url(#SVGID_2_)" d="M61.277,31.711H61.19c0.568-9.395-0.744-17.983-0.176-26.692c1.574-0.161,3.584,0.241,5.465,0.161
			c0.131,8.75-0.044,18.145-0.044,26.369C64.687,31.711,61.89,31.43,61.277,31.711z M68.534,18.284
			c-0.131-4.435,0.523-8.951,0.786-13.186c3.191-0.362,6.688,0.122,9.793,0.081c1.574,3.429,1.792,8.347,1.792,12.137
			c0,4.354-0.087,8.83-1.006,13.629c-3.192,1.007-6.688,0.645-10.011,0.484C68.796,28.082,68.664,22.559,68.534,18.284z
			 M72.949,12.034c0.086,5.161-0.351,6.291,0.744,12.217l2.359-0.321c0.262-3.992,0.044-8.67-0.743-12.501
			C73.693,11.551,72.949,11.752,72.949,12.034z"/>
		<g>
			<linearGradient id="SVGID_3_" gradientUnits="userSpaceOnUse" x1="47.5005" y1="31.791" x2="47.5005" y2="4.939">
				<stop  offset="0" style="stop-color:#1B7C55"/>
				<stop  offset="0.5" style="stop-color:#22B573"/>
				<stop  offset="1" style="stop-color:#1B7C55"/>
			</linearGradient>
			<path fill="url(#SVGID_3_)" d="M0.909,31.711H0.821c0.567-9.395-0.744-17.983-0.175-26.692C2.22,4.857,4.231,5.26,6.111,5.18
				c0.13,8.75-0.044,18.145-0.044,26.369C4.318,31.711,1.521,31.43,0.909,31.711z M12.536,5.341
				c0.744,3.428,1.355,7.983,2.93,12.903c0.305-2.097,0.305-9.274,0.086-13.104c1.662,0.081,3.148-0.08,4.679,0.283
				c-0.482,7.579-0.088,18.507-0.088,26.047c-2.711-0.162-2.974-0.162-4.152-0.081c-0.875-1.815-1.968-4.88-2.93-7.621
				c-0.131,2.219,0.175,5.727,0.131,7.741c-2.491,0.282-3.322,0-4.196,0c-0.131-9.636-0.35-18.83-0.438-26.168
				C10.044,5.221,11.181,5.381,12.536,5.341z M25.388,31.59c-0.874-5.523-1.355-9.072-2.054-13.991
				c-0.438-2.984-1.006-8.547-1.837-12.016c1.443-0.484,3.804-0.523,5.158-0.523c0.657,3.75,1.093,9.071,1.618,12.095
				c0.699-3.991,1.092-4.958,1.88-11.854c1.092,0,2.972-0.24,4.588-0.24c-1.137,4.636-1.705,10.161-2.315,14.999
				c-0.482,3.871-0.961,6.895-1.574,11.732C29.104,31.43,27.225,31.549,25.388,31.59z M43.661,5.26
				c1.137,8.951,2.535,17.057,3.452,26.048c-1.398,0-3.934,0.081-5.551,0.04c-0.349-1.169-0.569-3.386-1.311-8.104l-1.181-0.202
				c-0.524,2.258-0.524,6.331-0.875,8.548c-1.354-0.12-2.799,0.041-3.978-0.041C34.7,22.396,35.53,13.728,36.447,5.3
				C38.372,5.18,41.781,5.099,43.661,5.26z M41.213,17.599c-0.351-2.58-0.482-4.274-1.181-7.339
				c-0.438,3.064-0.438,6.532-0.611,7.299C39.814,17.76,40.775,17.841,41.213,17.599z M54.371,13.688
				c0.086-0.524,0.044-1.773,0.086-2.298l-1.397-0.04c-0.438,0.766-0.174,2.459-0.174,3.346c1.048,0.605,2.185,1.17,4.282,2.097
				c0.657,0.282,1.094,0.524,1.094,1.572c0.087,4.919,0.482,8.912-0.481,12.943c-2.229,0.443-7.213,0.847-8.962-0.646
				c-0.654-2.58-0.654-5.443-0.48-9.112c0.656-0.403,2.492-0.08,3.278-0.039c0.176,1.209,0.264,2.7,0.394,3.588
				c0.569,0.242,1.704,0.645,1.837-0.162v-3.87c-2.011-1.492-3.936-2.057-5.465-3.548c-0.658-3.912-0.787-7.782-0.218-11.813
				c1.224-0.646,2.711-0.767,4.547-0.767c1.311,0,5.114,0.321,5.289,0.888c1.093,2.056,0.61,6.208,0.131,8.104
				C56.95,14.051,55.552,14.252,54.371,13.688z M86.806,5.341c0.742,3.428,1.355,7.983,2.931,12.903
				C90.04,16.147,90.04,8.97,89.822,5.14c1.66,0.081,3.148-0.08,4.678,0.283c-0.482,7.579-0.089,18.507-0.089,26.047
				c-2.708-0.162-2.973-0.162-4.151-0.081c-0.874-1.815-1.967-4.88-2.93-7.621c-0.131,2.219,0.175,5.727,0.131,7.741
				c-2.491,0.282-3.321,0-4.196,0c-0.131-9.636-0.351-18.83-0.437-26.168C84.313,5.221,85.451,5.381,86.806,5.341z"/>
			<linearGradient id="SVGID_4_" gradientUnits="userSpaceOnUse" x1="47.5" y1="55.0615" x2="47.5" y2="34.1211">
				<stop  offset="0" style="stop-color:#1B7C55"/>
				<stop  offset="0.5" style="stop-color:#22B573"/>
				<stop  offset="1" style="stop-color:#1B7C55"/>
			</linearGradient>
			<path fill="url(#SVGID_4_)" d="M1.492,54.657c-0.338-1.493-0.574-3.08-0.708-5.351c-0.304-5.322-0.574-9.802,0.371-14.75
				c1.788-0.497,5.398-0.249,7.119,0.031c0.405,2.896,0.54,5.259,0.336,8.432c-0.911,0.343-2.766,0.219-3.204-0.154
				c-0.034-1.026,0-2.801-0.54-4.015l-1.045,0.25c-0.136,1.71-0.203,6.938,0.641,10.049l1.147-0.186
				c0-1.244-0.203-2.956-0.304-3.983c0.843,0,1.822-0.094,2.428,0.031c0.642,0,0.945,0.405,0.912,1.244
				c-0.035,1.524-0.101,6.441-0.675,8.37C5.776,54.845,3.616,54.657,1.492,54.657z M9.891,44.515
				c-0.101-3.424,0.405-6.907,0.607-10.176c2.462-0.279,5.161,0.094,7.557,0.063c1.214,2.646,1.382,6.441,1.382,9.366
				c0,3.36-0.066,6.814-0.775,10.516c-2.462,0.778-5.162,0.498-7.725,0.374C10.093,52.075,9.992,47.812,9.891,44.515z M13.297,39.69
				c0.068,3.984-0.27,4.855,0.574,9.428l1.822-0.248c0.202-3.081,0.034-6.688-0.574-9.646C13.871,39.317,13.297,39.473,13.297,39.69
				z M27.77,54.845c-1.316-0.188-3.98-0.03-6.511-0.126c-0.067-6.439-0.506-13.845-0.235-20.441c1.316,0.03,2.867-0.125,4.352,0
				c-0.136,4.854-0.438,10.454-0.371,15.37c0.675-0.029,1.754-0.217,2.833-0.187C27.837,51.39,27.938,53.133,27.77,54.845z
				 M29.691,54.657c-0.337-1.493-0.573-3.08-0.708-5.351c-0.304-5.322-0.574-9.802,0.371-14.75c1.787-0.497,5.399-0.249,7.118,0.031
				c0.406,2.896,0.54,5.259,0.338,8.432c-0.912,0.343-2.767,0.219-3.205-0.154c-0.035-1.026,0-2.801-0.54-4.015l-1.046,0.25
				c-0.135,1.71-0.202,6.938,0.641,10.049l1.147-0.186c0-1.244-0.202-2.956-0.305-3.983c0.844,0,1.822-0.094,2.429,0.031
				c0.641,0,0.945,0.405,0.912,1.244c-0.034,1.524-0.101,6.441-0.674,8.37C33.976,54.845,31.817,54.657,29.691,54.657z
				 M43.422,44.546l-0.844-0.095c-0.168,4.356-0.237,6.225-0.135,10.425c-1.181-0.062-2.429,0.124-3.542-0.031
				c-0.135-6.907-0.033-14.375-0.506-20.6c0.945,0.188,3.104-0.062,3.576,0.188l0.101,3.609c0.574,0.063,1.046,0.032,1.519,0.032
				c0.135-0.686,0.101-1.618,0.235-3.953c1.385,0.063,2.329,0.063,3.813,0.312c0.168,6.721-0.204,13.379,0.102,20.101
				c-0.946,0.186-2.868,0.031-3.982,0.093C43.725,51.204,43.962,47.875,43.422,44.546z M57.388,34.557
				c-0.201,1.089,0.101,2.491-0.169,3.36c-1.248-0.092-2.531-0.092-3.777-0.062c-0.17,1.026-0.034,2.084,0.235,3.048
				c1.08-0.093,2.261-0.029,3.711,0.063c-0.034,1.493-0.336,2.614-0.607,4.076c0.066,0.031-1.956-0.093-3.003,0.094
				c-0.033,1.648-0.033,3.079,0.203,4.729c1.113,0.124,2.092,0.186,3.138,0.154c0,1.308-0.066,3.392-0.237,4.794
				c-1.651,0.186-5.127,0.091-6.778,0.124c-0.643-6.286-0.777-13.972-0.743-20.382C51.788,34.557,55.229,34.65,57.388,34.557z
				 M63.561,40.967c0.067-0.404,0.034-1.369,0.067-1.773l-1.079-0.031c-0.339,0.592-0.135,1.898-0.135,2.583
				c0.809,0.466,1.687,0.901,3.305,1.617c0.507,0.219,0.845,0.405,0.845,1.213c0.067,3.797,0.37,6.877-0.372,9.989
				c-1.721,0.341-5.565,0.653-6.915-0.498c-0.506-1.991-0.506-4.2-0.371-7.032c0.506-0.312,1.922-0.062,2.529-0.031
				c0.136,0.935,0.202,2.085,0.305,2.771c0.438,0.186,1.314,0.496,1.416-0.126v-2.986c-1.551-1.15-3.036-1.587-4.217-2.738
				c-0.506-3.02-0.606-6.006-0.168-9.117c0.944-0.498,2.09-0.591,3.509-0.591c1.011,0,3.946,0.249,4.083,0.685
				c0.842,1.587,0.47,4.791,0.101,6.254C65.551,41.247,64.471,41.403,63.561,40.967z M69.598,54.781
				c0-5.351,0.035-10.982-0.168-16.304c-1.013,0-0.067-0.031-1.89-0.031c0-1.275-0.167-3.018,0.068-3.982
				c3.372-0.249,4.589,0,8.231-0.219c0,1.214,0.168,2.677,0.135,4.731c-1.215,0.03-1.755,0.217-2.395,0.278
				c0.101,5.32,0.269,10.611,0.269,15.434C72.499,54.719,71.521,54.781,69.598,54.781z M84.813,34.557
				c-0.202,1.089,0.101,2.491-0.169,3.36c-1.247-0.092-2.531-0.092-3.779-0.062c-0.168,1.026-0.032,2.084,0.237,3.048
				c1.078-0.093,2.261-0.029,3.711,0.063c-0.034,1.493-0.338,2.614-0.607,4.076c0.067,0.031-1.956-0.093-3.003,0.094
				c-0.033,1.648-0.033,3.079,0.204,4.729c1.112,0.124,2.091,0.186,3.137,0.154c0,1.308-0.068,3.392-0.237,4.794
				c-1.652,0.186-5.126,0.091-6.78,0.124c-0.641-6.286-0.775-13.972-0.741-20.382C79.212,34.557,82.653,34.65,84.813,34.557z
				 M93.988,44.077c-0.17,0.778-1.046,0.654-1.553,1.06c0.573,0.467,1.821,0.652,1.821,1.432c0,2.674,0.203,5.601-0.168,8.12
				c-0.911-0.031-2.565,0.062-3.509,0.093c-0.202-2.053,0.405-5.817-0.338-7.529l-0.605,0.123c0.101,2.179,0.067,4.7,0.202,7.189
				c-1.013,0.217-2.496,0.341-3.339,0.497c-0.339-6.877-0.507-13.192-0.137-20.287c0.372-0.093,6.207-1.025,7.692,0.53
				c0.507,0.528,0.372,1.555,0.404,2.209C94.563,39.815,94.492,41.683,93.988,44.077z M89.469,38.261
				c0.201,1.804,0.201,3.64,0.168,5.444l1.044,0.248c0.507-1.493,0.406-4.76,0.204-5.942L89.469,38.261z"/>
		</g>
	</g>
</g>
</svg>
