<?xml version="1.0" encoding="UTF-8"?> <svg xmlns="http://www.w3.org/2000/svg" viewBox="0 0 302.22 117.4"><defs><style>.cls-1{fill:#fff;}</style></defs><g id="Layer_2" data-name="Layer 2"><g id="Layer_1-2" data-name="Layer 1"><path class="cls-1" d="M3.9,51,4,50.89l0,0L3.9,51"></path><path class="cls-1" d="M42.93,26.58l1.3,0,1.31,0c.87,0,1.74.05,2.6.12a15.36,15.36,0,0,1,2.6.37,6.94,6.94,0,0,0-1.23-.51q-.63-.21-1.29-.36a23.18,23.18,0,0,0-2.62-.47c-.83-.11-1.66-.17-2.5-.23.48-.17,1-.33,1.44-.47a28.53,28.53,0,0,1,4.18-.89,30.85,30.85,0,0,1,4.3-.28c1.44,0,2.89.11,4.36.26a20.45,20.45,0,0,0-4.31-1C52.7,23.07,52.33,23,52,23s-.75,0-1.12,0a20.75,20.75,0,0,0-2.23.05,22.14,22.14,0,0,0-4.42.78c-.72.2-1.43.45-2.13.72-.35.14-.7.3-1,.46s-.67.33-1,.54l-2,1.23,2.35-.09c.87,0,1.74-.06,2.61-.07"></path><path class="cls-1" d="M47.34,20.62l1.17.11c.39.05.78.08,1.17.14s.78.11,1.16.17c.78.13,1.55.29,2.31.49a16.71,16.71,0,0,1,2.27.74l0-.09a9.11,9.11,0,0,0-2.1-1.25,15.94,15.94,0,0,0-2.32-.81,18.42,18.42,0,0,0-2.42-.46h0c.38-.1.76-.2,1.14-.28a22.46,22.46,0,0,1,3.58-.45A27.5,27.5,0,0,1,57,19a33.76,33.76,0,0,1,3.61.53l0-.1a29.23,29.23,0,0,0-3.6-.79,25.13,25.13,0,0,0-3.68-.29,23.09,23.09,0,0,0-3.71.28,16.51,16.51,0,0,0-1.83.38,9.46,9.46,0,0,0-.91.26c-.31.1-.59.19-.92.33l-1.78.78,2,.15Z"></path><path class="cls-1" d="M39.9,33.11a21.11,21.11,0,0,1,2.25,0c.6,0,1.2.11,1.79.21a13.2,13.2,0,0,0-2.29,1.31,16.5,16.5,0,0,0-2.06,1.76,16.74,16.74,0,0,0-1.76,2.06l-1.21,1.68,1.85-.93a13.25,13.25,0,0,1,3-1.08,12.31,12.31,0,0,1,1.59-.28c.54-.07,1.09-.11,1.63-.13a19.88,19.88,0,0,1,3.27.13c.7.08,1.4.19,2.09.33a8.71,8.71,0,0,0-1.88.65,6.6,6.6,0,0,0-1.34.88,4.65,4.65,0,0,0-1.05,1.2l.14.08A4.81,4.81,0,0,1,47,39.91a6.27,6.27,0,0,1,1.33-.76,8.39,8.39,0,0,1,3-.66l1.25-.07L51.36,38A22.16,22.16,0,0,0,44.7,37c-.57,0-1.14,0-1.7.07a16.17,16.17,0,0,0-1.7.24,12.66,12.66,0,0,0-1.32.32l.39-.37a14.58,14.58,0,0,1,2-1.56,11.42,11.42,0,0,1,2.19-1.14A7.7,7.7,0,0,1,46.86,34L50,33.88l-2.93-1.22a11.53,11.53,0,0,0-1.2-.42c-.39-.12-.79-.23-1.19-.32a18.06,18.06,0,0,0-2.43-.38,17.49,17.49,0,0,0-2.05-.05l.07,0A12.9,12.9,0,0,1,43,30.36c.47-.14,1-.24,1.43-.35s1-.16,1.47-.21a23.08,23.08,0,0,1,3-.14l0-.15a15.63,15.63,0,0,0-3.06-.39,14.16,14.16,0,0,0-3.11.21c-.52.1-1,.22-1.54.37a12.72,12.72,0,0,0-1.49.57,9.75,9.75,0,0,0-1.42.77c-.23.15-.45.31-.67.48l-.33.26c-.11.1-.2.18-.33.32l-1.52,1.59,2.23-.35a18.68,18.68,0,0,1,2.24-.23"></path><path class="cls-1" d="M26.1,66.92c-.17.3-.33.6-.48.91s-.29.63-.42,1c-.06.12-.11.24-.16.37l-.27.74c0,.13-.08.25-.13.38l-.12.38-.21.78c0,.13-.07.26-.11.39-.07-.4-.15-.8-.21-1.21,0-.13,0-.27,0-.41-.06-.54-.13-1.1-.14-1.66,0-.15,0-.31,0-.46,0-.32,0-.63,0-.94,0-.16,0-.32,0-.47l-.14.15-.25.32-.12.17A3,3,0,0,0,23,68c0,.13-.05.26-.07.4a1.23,1.23,0,0,0,0,.2,1.41,1.41,0,0,0,0,.2,2.73,2.73,0,0,0,.09.62,3.84,3.84,0,0,0,.13.41,2.9,2.9,0,0,0,.16.41l.09.21c.2.41.43.81.66,1.23.08.14.16.28.23.43s.07.14.11.22.14.29.21.45.07.15.1.23.05.16.08.25l.06.25a2.39,2.39,0,0,1,.06.53,2.49,2.49,0,0,1-.15.93s0,.09-.05.13a2,2,0,0,1-.13.25A2.28,2.28,0,0,1,24,76a2.38,2.38,0,0,1-1.24.43,3.34,3.34,0,0,1-.78-.06,3.58,3.58,0,0,1-1.56-.8l-.19-.16L20,75.21a5.92,5.92,0,0,1-1-1.42c-.06-.14-.13-.29-.19-.44l-.17-.45c-.11-.29-.21-.59-.34-.88a8,8,0,0,0-.41-.83l-.24-.41-.28-.38a5.11,5.11,0,0,0-1-1l-.39-.26A3.38,3.38,0,0,0,15,68.73a2.41,2.41,0,0,0-.71,0,3.21,3.21,0,0,1,1.84.4,3.45,3.45,0,0,1,.41.25,5.36,5.36,0,0,1,1.05,1l.15.19.15.19.26.4a2.86,2.86,0,0,1,.24.42l.23.42.09.22.29.66.09.22.09.21.2.42a5.52,5.52,0,0,0,.79,1.12,3.34,3.34,0,0,0,.33.32,3.26,3.26,0,0,0,.73.5,2.91,2.91,0,0,0,.83.28,2.21,2.21,0,0,0,1.25-.14,1.41,1.41,0,0,0,.35-.21,1.48,1.48,0,0,0,.28-.28l.11-.16a2.39,2.39,0,0,0,.15-.37,1.75,1.75,0,0,0,.05-.4,1.33,1.33,0,0,0,0-.2,1.2,1.2,0,0,0,0-.2,1.89,1.89,0,0,0-.1-.41,5.18,5.18,0,0,0-.26-.6c-.07-.14-.15-.27-.23-.4s-.27-.46-.41-.69l-.42-.71a5.4,5.4,0,0,1-1-.23,4.41,4.41,0,0,1-.54-.24,3.88,3.88,0,0,1-.48-.3,4.55,4.55,0,0,1-.4-.35,3.09,3.09,0,0,1-.33-.39,3.62,3.62,0,0,1-.27-.41,2.86,2.86,0,0,1-.2-.44,3.33,3.33,0,0,1-.18-.67,2.87,2.87,0,0,1,.21-1.66,2.9,2.9,0,0,1,.2-.33,1.91,1.91,0,0,1,.57-.49l.29-.14.28-.11a3.34,3.34,0,0,1,1.54-.12c0-.11,0-.22,0-.33s0-.21,0-.32,0-.43,0-.64q0-.65,0-1.29c0-.22,0-.43,0-.65l-.19-.18a.61.61,0,0,1,0,.12c-.11.24-.2.49-.29.73s-.18.5-.26.76-.09.25-.13.38c-.11.38-.21.77-.32,1.17-.08-.53-.2-1.07-.26-1.62s-.13-1.1-.14-1.66c0-.19,0-.39,0-.58v-.59a15.69,15.69,0,0,0-3.09-1.93c-.24-.12-.49-.22-.74-.32a11.83,11.83,0,0,0-1.15-.37,6.93,6.93,0,0,0-.79-.17,8,8,0,0,0-1.62-.13,6.1,6.1,0,0,0-1.6.19,3.22,3.22,0,0,0-1.4.68,2.53,2.53,0,0,0-.67,1c0,.12-.09.25-.13.38a4.61,4.61,0,0,0-.1,1.62,8.52,8.52,0,0,0,.33,1.64,15.62,15.62,0,0,0,1.32,3.1A16.19,16.19,0,0,1,10,63.91c-.11-.26-.21-.53-.31-.79a10.89,10.89,0,0,1-.35-1.24c0-.14-.06-.28-.08-.43a6.11,6.11,0,0,1-.07-.86,4.3,4.3,0,0,1,.08-.88A3.2,3.2,0,0,1,10,58.29a1.29,1.29,0,0,1,.16-.17,2.52,2.52,0,0,1,.35-.3,3.81,3.81,0,0,1,.79-.44l.42-.15a6.87,6.87,0,0,1,.87-.21,6.44,6.44,0,0,1,.87-.1l.44,0a9.72,9.72,0,0,1,1.32.06,8.74,8.74,0,0,1,.87.14,11.65,11.65,0,0,1,2.51.8l.61.28c.4.2.79.41,1.17.64l.56.35.09-.89c0-.24.06-.48.1-.72s.08-.48.13-.72c.07-.39.16-.79.26-1.18l-.69-.38-.68-.37c-.42-.23-.84-.43-1.25-.62a13.19,13.19,0,0,0-1.26-.5,12.87,12.87,0,0,0-4.19-.72h-.1a9.59,9.59,0,0,0-1.86.19,8.78,8.78,0,0,0-.95.26c-.19.06-.38.14-.57.22a4,4,0,0,0-.51.25,6.72,6.72,0,0,0-1.29.91,5.9,5.9,0,0,0-.5.5q-.22.26-.42.51L7,56.16,7,56.25c-.07.11-.14.22-.2.33h0c-.06.11-.12.21-.17.32l-.14.29c-.06.12-.11.25-.16.37A8,8,0,0,0,6,58.71c0,.06,0,.12,0,.17a8.27,8.27,0,0,0-.15,1.57,1.62,1.62,0,0,0,0,.22,7.65,7.65,0,0,0,.16,1.5,8.82,8.82,0,0,0,.77,2.27c.08.15.16.3.25.45a8.42,8.42,0,0,0,.52.8l.38.48q.24.27.45.54l.41.54c.27.35.51.71.73,1.06a16.24,16.24,0,0,1,.87,1.55,27.77,27.77,0,0,1,1.6,4.34c.22.7.42,1.36.65,2,.11.32.24.62.37.92s.28.59.45.88a8.45,8.45,0,0,0,3.13,3.07l.41.23a8.62,8.62,0,0,0,.86.43l.44.19a9.33,9.33,0,0,0,.93.34l.47.15a14.24,14.24,0,0,0,1.5.34l.52.09a18.61,18.61,0,0,0,2.74.19l.78,0,.78,0c0-.19-.07-.38-.1-.57l-.09-.58c0-.24-.07-.49-.1-.74a42.12,42.12,0,0,1-.35-5.89q0-.95.06-1.92a47.58,47.58,0,0,1,.74-6.34"></path><path class="cls-1" d="M32.16,61.55q.2-.25.42-.51t.48-.51l.27-.26q.41-.39.9-.78c.22-.18.45-.35.69-.52s.76-.52,1.19-.77.88-.51,1.38-.76a14.06,14.06,0,0,1,6-1.54c.41,0,.82,0,1.21,0a13.75,13.75,0,0,1,1.74.25,13.08,13.08,0,0,1,1.61.44,18.17,18.17,0,0,1,3.68,1.7c.93.55,1.72,1.1,2.36,1.56a1.85,1.85,0,0,0,.84.33,1.7,1.7,0,0,0,.83-.12,2.37,2.37,0,0,0,.77-.53,4,4,0,0,0,.65-.88,3,3,0,0,0,.18-.36,6.07,6.07,0,0,0,.31-.82A7.5,7.5,0,0,0,58,56.1l0-.52a8.12,8.12,0,0,0,0-1.09,9.18,9.18,0,0,0-.32-1.73,9.52,9.52,0,0,0-.42-1.2,11.85,11.85,0,0,0-1.41-2.45,15.6,15.6,0,0,0-1-1.21,8.48,8.48,0,0,0-2.06-1.58,11.21,11.21,0,0,0-1.21-.57,11.92,11.92,0,0,0-1.32-.42A13.47,13.47,0,0,0,48.05,45a14.78,14.78,0,0,0-1.5-.07,18.62,18.62,0,0,0-2.33.16c-.73.14-1.5.32-2.3.55q-.8.23-1.62.54l-.82.32c-.55.23-1.1.5-1.64.79l-.56.31a17.53,17.53,0,0,0-5,4.13q-.45.57-.84,1.17l-.37.76-.26.53-.22.54c-.07.18-.14.36-.22.54l-.21.55-.35,1.1c-.16.56-.31,1.12-.44,1.68-.09.37-.17.75-.24,1.12s-.13.76-.18,1.14c0,.19-.05.38-.08.57s-.07.67-.1,1-.08,1-.1,1.42c0,.22,0,.43,0,.64v.13c0-.13.06-.26.08-.38l.05-.22,0-.23V63.7l.07-.25.06-.25.11-.42.16-.59.32-1a10.33,10.33,0,0,1,.35-1c.13-.33.26-.65.38-1s.28-.64.43-.95.3-.63.44-1l-.33,1c-.12.33-.23.65-.32,1s-.19.66-.28,1S30,61,30,61.3l-.21,1-.15,1-.07.5-.05.51c0,.17,0,.33,0,.5s0,.34,0,.5,0,.21,0,.31c0-.17.09-.35.13-.53l.05-.21.06-.21.14-.42.28-.82.35-.81.17-.4.2-.39.41-.78c.15-.25.3-.5.46-.75s.32-.49.47-.74c-.06.13-.11.27-.17.4l-.18.39c-.11.27-.23.53-.33.8l-.28.8-.13.4-.11.41-.21.82-.14.83-.07.41V65c0-.16.09-.34.15-.53s.08-.26.13-.4.15-.41.25-.63a9.66,9.66,0,0,1,1.16-1.91"></path><path class="cls-1" d="M75.32,23A20.94,20.94,0,0,0,73.08,23c-.37,0-.74,0-1.11,0s-.75.07-1.11.12a20.16,20.16,0,0,0-4.31,1c1.46-.15,2.91-.25,4.35-.26a30.75,30.75,0,0,1,4.3.28,28.25,28.25,0,0,1,4.18.89c.48.14,1,.3,1.44.47-.83.06-1.67.12-2.5.23a23.18,23.18,0,0,0-2.62.47c-.43.1-.86.22-1.28.36a6.37,6.37,0,0,0-1.23.51,15.11,15.11,0,0,1,2.59-.37c.87-.07,1.73-.12,2.6-.12l1.31,0,1.3,0c.87,0,1.74,0,2.61.07l2.35.09-2-1.23c-.36-.21-.68-.37-1-.54s-.68-.32-1-.46a22.4,22.4,0,0,0-2.14-.72A22,22,0,0,0,75.32,23"></path><path class="cls-1" d="M21.69,54.87h0V55a.24.24,0,0,0,0-.08"></path><path class="cls-1" d="M84.23,30.27a13.59,13.59,0,0,0-1.5-.57c-.5-.15-1-.27-1.53-.37a14.29,14.29,0,0,0-3.12-.21,15.73,15.73,0,0,0-3.06.39l0,.15a23.08,23.08,0,0,1,3,.14q.75.07,1.47.21c.49.11,1,.21,1.44.35a13.36,13.36,0,0,1,2.68,1.1l.06,0a17.49,17.49,0,0,0-2,.05,18.06,18.06,0,0,0-2.43.38c-.4.09-.8.2-1.19.32a10.64,10.64,0,0,0-1.19.42l-2.93,1.22,3.15.15a7.64,7.64,0,0,1,2.34.49,11.13,11.13,0,0,1,2.19,1.14,15.33,15.33,0,0,1,2,1.56l.38.37a12.66,12.66,0,0,0-1.32-.32A16.36,16.36,0,0,0,80.93,37c-.57-.05-1.14-.07-1.7-.07a22.45,22.45,0,0,0-3.38.28,22.05,22.05,0,0,0-3.28.79l-1.2.39,1.25.07a8.49,8.49,0,0,1,3,.66,6,6,0,0,1,1.32.76A4.42,4.42,0,0,1,78,41l.14-.08a4.47,4.47,0,0,0-1.05-1.2,6.53,6.53,0,0,0-1.33-.88,9,9,0,0,0-1.89-.65c.69-.14,1.39-.25,2.09-.33a19.88,19.88,0,0,1,3.27-.13c.55,0,1.09.06,1.63.13a12,12,0,0,1,1.59.28,13.09,13.09,0,0,1,3,1.08l1.85.93-1.21-1.68a17.3,17.3,0,0,0-3.82-3.82A13.2,13.2,0,0,0,80,33.35c.59-.1,1.19-.16,1.79-.21a21.3,21.3,0,0,1,2.26,0,18.52,18.52,0,0,1,2.23.23l2.23.35L87,32.1l-.34-.32-.32-.26c-.22-.17-.45-.33-.67-.48a10.29,10.29,0,0,0-1.42-.77"></path><path class="cls-1" d="M67,19a27.53,27.53,0,0,1,3.63-.07,22.46,22.46,0,0,1,3.58.45c.39.08.76.18,1.14.28h0a18,18,0,0,0-2.41.46,15.94,15.94,0,0,0-2.32.81,9.17,9.17,0,0,0-2.11,1.25l.06.09a17,17,0,0,1,2.26-.74c.76-.2,1.54-.36,2.31-.49.39-.06.77-.13,1.16-.17s.78-.09,1.17-.14l1.17-.11,1.18-.09,2-.15L78,19.6a9.29,9.29,0,0,0-.92-.33c-.3-.1-.6-.19-.9-.26-.61-.16-1.22-.28-1.84-.38a23.05,23.05,0,0,0-3.7-.28,25.26,25.26,0,0,0-3.69.29,28.67,28.67,0,0,0-3.59.79l0,.1A34.14,34.14,0,0,1,67,19"></path><path class="cls-1" d="M92,63.7a9.32,9.32,0,0,0-.66-1.09,10.44,10.44,0,0,0-1.69-1.84A13.14,13.14,0,0,0,82.41,58l-.69-.06-.21,0-.45,0H79.6a5.12,5.12,0,0,0-.56,0h-.17l-.37,0-.22,0L78,58l-.23,0-.27,0-.22,0-.28.07-.33.08-.26.08-.23.07-.19.06-.23.09-.17.06-.23.09-.15.07-.23.1c-2.57,1.2-4,3.13-5.52,4.36a1.59,1.59,0,0,1-2,.3l-.18-.14-.05,0-.14-.13,0,0a1.46,1.46,0,0,1-.16-.19l0,0a1.4,1.4,0,0,1-.13-.18l0,0-.12-.2v0l-.12-.23,0,0-.09-.19s0,0,0-.05-.12-.31-.18-.45,0,0,0-.05l-.06-.17v0L66,61.16v0c0-.05,0-.1,0-.14s0,0,0,0l0-.12h0l0-.11v0l0,0h0v0h0a7.42,7.42,0,0,0-.62,3.16,7.29,7.29,0,0,0,.3,2l-.2-.09-.22-.09a7.16,7.16,0,0,1-.35-1,7.37,7.37,0,0,1-.2-1,8.28,8.28,0,0,1-.09-1,11.31,11.31,0,0,1,.06-1.56c0-.2,0-.39.08-.57s.09-.54.14-.78.07-.32.11-.46a10.64,10.64,0,0,1,.4-1.28c0-.17,0-.33,0-.49,0-.32,0-.63-.06-.93a19.49,19.49,0,0,1,0-2.06c.07-.37.16-.74.26-1.11s.23-.73.37-1.09c.08-.19.15-.38.24-.57s.17-.37.26-.56.29-.55.45-.82l.15-.27c.21-.36.46-.69.69-1,.12-.17.25-.34.38-.5s.25-.33.38-.5c-.28.31-.58.61-.85.92s-.41.49-.6.74a2.35,2.35,0,0,0-.19.25l-.19.26-.18.26c-.12.17-.24.35-.35.53l0,.07a.56.56,0,0,1,0,.08c-.19.31-.36.63-.54,1s-.19.41-.29.62-.18.43-.26.65l.06-.78c0-.34.07-.68.11-1l.15-1,.09-.53q.14-.75.3-1.5l-.3.8-.28.81-.06.18-.06.17-.15.5c-.15.49-.29,1-.42,1.5s-.27,1.15-.37,1.73V54a2.53,2.53,0,0,1,0-.28v-.54c0-.26,0-.52,0-.78s0-.52.06-.78,0-.39.08-.59.06-.39.1-.58l.06-.37c0,.13-.1.26-.16.39s-.14.36-.2.54a5.05,5.05,0,0,0-.18.55c-.08.25-.16.51-.23.76s-.13.52-.19.78-.11.48-.15.72-.09.48-.13.73h0c0-.13,0-.26,0-.38,0-.36,0-.71,0-1.06s0-.71,0-1.07a13.83,13.83,0,0,0-.5,1.54c0,.18-.09.36-.13.53s0,.14,0,.2,0,.14,0,.21l-.28-2.82-.29,2.82c0-.14,0-.27-.09-.41s-.08-.35-.13-.53a13.83,13.83,0,0,0-.5-1.54c0,.36,0,.71,0,1.07s0,.7,0,1.06c0,.12,0,.25,0,.38h0c0-.25-.08-.49-.13-.73s-.09-.48-.15-.72-.12-.52-.19-.78-.14-.51-.22-.76S60,51.16,60,51s-.13-.36-.2-.54-.11-.26-.16-.39c0,.12,0,.24.07.37l.09.58c0,.2.06.4.08.59s0,.52.06.78,0,.52,0,.78V54a2.44,2.44,0,0,0,0,.27c-.1-.58-.23-1.16-.37-1.73s-.27-1-.42-1.5l-.15-.5-.12-.35c-.18-.54-.37-1.08-.58-1.61q.16.75.3,1.5l.09.53.15,1c0,.34.08.68.11,1l.06.78c-.08-.22-.17-.43-.26-.65s-.19-.42-.29-.62-.35-.65-.54-1a.56.56,0,0,1-.05-.08l0-.07c-.11-.18-.23-.36-.35-.53l-.18-.26L57.11,50a2.35,2.35,0,0,0-.19-.25c-.19-.25-.4-.49-.59-.74s-.34-.37-.52-.55l-.34-.37.29.38.29.37.18.25c.23.35.48.68.69,1l.15.27c.16.27.32.54.45.82s.18.37.26.56.17.38.24.57c.14.36.26.72.37,1.09s.19.74.26,1.11h0a17.13,17.13,0,0,1,0,2.06q0,.45-.06.93c0,.16,0,.32-.05.49a10.64,10.64,0,0,1,.4,1.28c0,.14.07.3.11.46s.1.5.14.78.05.37.08.57a11.31,11.31,0,0,1,.06,1.56,8.28,8.28,0,0,1-.09,1,7.37,7.37,0,0,1-.2,1,7.16,7.16,0,0,1-.35,1l-.22.09-.2.09a7.71,7.71,0,0,0,.31-2A7.51,7.51,0,0,0,58,60.61h0v.1a.14.14,0,0,0,0,.07s0,0,0,0v0l0,0a.43.43,0,0,1,0,.05s0,0,0,.06,0,0,0,.06a.5.5,0,0,0,0,.13l0,0,0,.08s0,0,0,.06l0,.09,0,0c0,.11-.08.22-.13.33l0,.06a.42.42,0,0,0,0,.1l0,0a.37.37,0,0,1,0,.11l0,0-.11.22v0l-.06.11,0,.05-.06.1,0,0a3.55,3.55,0,0,1-.23.31l0,0-.07.09,0,0-.08.08,0,0a.79.79,0,0,1-.15.12l0,0-.08,0-.06,0-.08,0-.07,0-.08,0a1.76,1.76,0,0,1-1.65-.47c-1.76-1.4-3.35-3.72-6.68-4.82h0c-.29-.09-.59-.18-.91-.25l-.09,0c-.29-.07-.6-.13-.91-.18l-.21,0-.26,0-.42,0-.22,0-.36,0H42.88l-.62,0H42.1l-.66.06a13.14,13.14,0,0,0-7.21,2.79,10.44,10.44,0,0,0-1.69,1.84,9.32,9.32,0,0,0-.66,1.09,8.19,8.19,0,0,0-.44,1A7,7,0,0,0,31,66.43a9.19,9.19,0,0,1,.43-1,8.63,8.63,0,0,1,.65-1.07c.11-.16.22-.3.33-.44s.22-.26.33-.37a5.9,5.9,0,0,1,1-.81,4.31,4.31,0,0,1,.88-.45,2.68,2.68,0,0,1,.42-.13,7.33,7.33,0,0,0-.7,1.1,9.19,9.19,0,0,0-.53,1.25,9.83,9.83,0,0,0-.41,1.82c-.45,3.45.77,7.37,3.91,9.25a5.36,5.36,0,0,0,1.33.56,5.47,5.47,0,0,0,.7.16,6.72,6.72,0,0,0,1.1.11c.25,0,.5,0,.75,0l.37,0c.25,0,.51,0,.76-.09s.75-.13,1.12-.22l.73-.19.71-.21.68-.24c.67-.25,1.3-.51,1.84-.77l.52-.24.24-.12a1.75,1.75,0,0,1,.08-1,1.81,1.81,0,0,1,.22-.44,1.7,1.7,0,0,1,.15-.22,4,4,0,0,1,.4-.45,6.67,6.67,0,0,1,1.53-1l.4-.2q.6-.27,1.14-.48l.53-.2.5-.17a3.26,3.26,0,0,1,.09-.69l.06-.21a2.57,2.57,0,0,1,.45-.79,2.14,2.14,0,0,1,.49-.46l.32-.2a4.07,4.07,0,0,1,1-.38v-.12a.45.45,0,0,1,0-.11.46.46,0,0,1,.09-.23,1.47,1.47,0,0,1,.1-.13l0,0a1.26,1.26,0,0,1,.28-.19.61.61,0,0,1,.14-.07l.15,0,.07,0,.07,0,.18,0,.19,0,.18,0,.18,0h.14c.14,0,.28,0,.42,0h.18l-.23,0c-.16,0-.32.07-.48.12l-.35.1-.17.06-.16.07a1.82,1.82,0,0,0-.31.16,1,1,0,0,0-.24.2.44.44,0,0,0-.08.11l0,.12a.36.36,0,0,0,0,.1.19.19,0,0,0,0,.09l.18.23-.3.09-.36.13a3.64,3.64,0,0,0-.69.32l-.3.21a2,2,0,0,0-.47.53,1.9,1.9,0,0,0-.26.66,2.08,2.08,0,0,0-.06.36l.39-.1c.26-.07.5-.12.72-.16s.43-.08.62-.1l.75-.08q.44,0,.66,0l.22,0-.59.13-.56.13-.61.16c-.59.16-1.12.33-1.6.5l-.31.12-.29.11a10.62,10.62,0,0,0-1.43.7,5.53,5.53,0,0,0-1.33,1.08,2.7,2.7,0,0,0-.26.36,1.74,1.74,0,0,0-.11.18,3.15,3.15,0,0,0-.21.52,2.24,2.24,0,0,0-.07.51,1.83,1.83,0,0,0,0,.47,2.53,2.53,0,0,0,.27.79,2.58,2.58,0,0,0,.25.42l.07.11.17.19-.24,0a5.56,5.56,0,0,1-.65-.18,2.7,2.7,0,0,1-.38-.17c-.31.13-.61.28-.9.43a13.67,13.67,0,0,0-2.57,1.71,12.42,12.42,0,0,0-1.55,1.53,14.19,14.19,0,0,0-1.37,1.88A37.13,37.13,0,0,0,40,86.64c-.12.3-.23.59-.33.89-.06.14-.11.29-.16.43-.1.29-.19.58-.28.86-.22.71-.4,1.4-.55,2.06q-.09.39-.15.78t-.12.75a13.44,13.44,0,0,0-.13,1.72,7,7,0,0,0,0,.93l0,.29a5.42,5.42,0,0,0,.21,1.05,2.17,2.17,0,0,0,.07.24,3.25,3.25,0,0,0,.18.43,2.9,2.9,0,0,0,.61.86,3.61,3.61,0,0,0,.3.25l.17.1a2.41,2.41,0,0,0,.77.26,3,3,0,0,0,.44,0A5.05,5.05,0,0,0,43.23,98a5.64,5.64,0,0,0,2.08,1.21l.68.25a21,21,0,0,0,3.39.79l1.28.17a41.87,41.87,0,0,0,4.81.23,12.09,12.09,0,0,0-2,.4l-.49.17-.5.19c-.16.08-.32.15-.48.24a4.33,4.33,0,0,0-.85.6,2.56,2.56,0,0,0-.46.58,2,2,0,0,0-.29,1,2.15,2.15,0,0,0,0,.56,2,2,0,0,0,.34.8,3.08,3.08,0,0,0,.42.47,3.87,3.87,0,0,0,.54.42,8.31,8.31,0,0,0,1.4.7c.26.1.54.19.82.28a30.38,30.38,0,0,0,15.91,0c.28-.09.56-.18.82-.28a8.31,8.31,0,0,0,1.4-.7,3.87,3.87,0,0,0,.54-.42,3.08,3.08,0,0,0,.42-.47,2,2,0,0,0,.34-.8,2.15,2.15,0,0,0,0-.56,2,2,0,0,0-.29-1,2.56,2.56,0,0,0-.46-.58,4.33,4.33,0,0,0-.85-.6c-.16-.09-.32-.16-.48-.24l-.5-.19-.49-.17a11.88,11.88,0,0,0-2-.4,41.87,41.87,0,0,0,4.81-.23l1.28-.17a21,21,0,0,0,3.39-.79l.68-.25A5.64,5.64,0,0,0,80.62,98a5.05,5.05,0,0,0,2.13.54,3,3,0,0,0,.44,0,2.41,2.41,0,0,0,.77-.26l.17-.1a2.48,2.48,0,0,0,.3-.25,2.73,2.73,0,0,0,.61-.86,3.25,3.25,0,0,0,.18-.43c0-.08,0-.16.08-.24a6.31,6.31,0,0,0,.2-1.05l0-.29a7,7,0,0,0,0-.93,13.44,13.44,0,0,0-.13-1.72q0-.37-.12-.75t-.15-.78c-.15-.66-.33-1.35-.55-2.06-.09-.28-.18-.57-.28-.86,0-.14-.1-.29-.16-.43-.1-.3-.21-.59-.33-.89a37.13,37.13,0,0,0-2.79-5.57,14.19,14.19,0,0,0-1.37-1.88,11.77,11.77,0,0,0-1.55-1.53A13.67,13.67,0,0,0,75.56,76c-.29-.15-.59-.3-.89-.43a3.52,3.52,0,0,1-.39.17,5.56,5.56,0,0,1-.65.18l-.23,0,.16-.19.07-.11a3.5,3.5,0,0,0,.26-.42,2.82,2.82,0,0,0,.26-.79,1.83,1.83,0,0,0,0-.47,2.24,2.24,0,0,0-.07-.51,3.15,3.15,0,0,0-.21-.52l-.1-.18a4.22,4.22,0,0,0-.27-.36,5.53,5.53,0,0,0-1.33-1.08,10.62,10.62,0,0,0-1.43-.7l-.29-.11-.31-.12c-.48-.17-1-.34-1.6-.5L68,69.7l-.56-.13-.59-.13.22,0q.23,0,.66,0l.75.08c.19,0,.4.06.62.1s.46.09.72.16l.39.1a2.08,2.08,0,0,0-.06-.36,1.9,1.9,0,0,0-.26-.66,2,2,0,0,0-.47-.53l-.3-.21a3.85,3.85,0,0,0-.68-.32L68,67.65l-.3-.09.18-.23a.19.19,0,0,0,0-.09.34.34,0,0,0,0-.1l0-.12a.28.28,0,0,0-.08-.11,1,1,0,0,0-.24-.2,1.82,1.82,0,0,0-.31-.16l-.16-.07L67,66.42l-.35-.1c-.15,0-.32-.08-.48-.12l-.23,0h.18c.14,0,.28,0,.42,0h.14l.18,0,.19,0,.18,0,.18,0,.07,0,.07,0,.15,0a.61.61,0,0,1,.14.07,1.26,1.26,0,0,1,.28.19l0,0a.64.64,0,0,1,.1.13.46.46,0,0,1,.09.23.45.45,0,0,1,0,.11v.12a4.07,4.07,0,0,1,1,.38l.32.2a2.14,2.14,0,0,1,.49.46,2.39,2.39,0,0,1,.45.79l.06.21a3.26,3.26,0,0,1,.09.69l.5.17.53.2q.54.21,1.14.48l.4.2a6.67,6.67,0,0,1,1.53,1,4,4,0,0,1,.4.45,1.7,1.7,0,0,1,.15.22,2.32,2.32,0,0,1,.23.44,1.74,1.74,0,0,1,.07,1l.24.12.52.24c.54.26,1.17.52,1.84.77l.68.24.71.21.73.19c.37.09.75.16,1.12.22l.76.09.37,0c.25,0,.5,0,.75,0a6.72,6.72,0,0,0,1.1-.11,5.47,5.47,0,0,0,.7-.16,5.36,5.36,0,0,0,1.33-.56c3.14-1.88,4.36-5.8,3.91-9.25a9.83,9.83,0,0,0-.41-1.82,9.19,9.19,0,0,0-.53-1.25,7.33,7.33,0,0,0-.7-1.1,2.68,2.68,0,0,1,.42.13,4.31,4.31,0,0,1,.88.45,5.9,5.9,0,0,1,1,.81c.11.11.22.24.33.37s.22.28.33.44a7.57,7.57,0,0,1,.65,1.07,9.19,9.19,0,0,1,.43,1,7,7,0,0,0-.45-1.74,8.19,8.19,0,0,0-.44-1M52.33,68.36a51.22,51.22,0,0,1-6.43,1.48c-.35.06-.69.1-1,.14l-.48,0c-.46,0-.9.08-1.3.1h-.4c-.26,0-.5,0-.74,0l-.66,0a7.28,7.28,0,0,1-.88-.11l-.5-.1-.45-.13a3.76,3.76,0,0,1-.57-.24,2.27,2.27,0,0,1-.31-.17,1.85,1.85,0,0,1-.27-.19l-.12-.09a2.44,2.44,0,0,1-.62-.81,2.22,2.22,0,0,1-.11-.3c0-.06,0-.12,0-.18a2.17,2.17,0,0,1,0-.41,2.14,2.14,0,0,1,0-.38,2.94,2.94,0,0,0,.38.41,4.55,4.55,0,0,0,.49.42l.33.24.39.24.45.24c.16.08.33.16.51.23a9,9,0,0,0,1.56.47c.23.05.48.1.74.13a12.34,12.34,0,0,0,2.17.11l.7,0a38.48,38.48,0,0,0,5.64-.72l1-.24.5-.13.41-.11h0s-.11,0-.45.12m-6.2-4.71a1.09,1.09,0,0,0,.11.27,1.43,1.43,0,0,0,.16.24l.1.11a2.13,2.13,0,0,0,.22.18,1.48,1.48,0,0,0,.83.25,1.33,1.33,0,0,0,.45-.07l.21-.08.19-.11v0a3,3,0,0,1-3,3,3.06,3.06,0,0,1-1.94-.69,3.65,3.65,0,0,1-.59-.65,3.21,3.21,0,0,1-.52-1.7c0-.1,0-.21,0-.31a3,3,0,0,1,.5-1.39,4,4,0,0,1,.37-.45l.22-.2a3.06,3.06,0,0,1,1.94-.69,2.73,2.73,0,0,1,.41,0,3,3,0,0,1,.78.21,2.31,2.31,0,0,1,.35.18,1.36,1.36,0,0,0-.34.23,1.45,1.45,0,0,0-.48.89,1.8,1.8,0,0,0,0,.22,1.27,1.27,0,0,0,.07.44m7.92,2.71a6.6,6.6,0,0,1-1.06.09,8.06,8.06,0,0,1-1.68-.13l.36-.24.37-.24-1.57-2-1.56-2a4.66,4.66,0,0,0-.59-.19,7.91,7.91,0,0,0-1.87-.32l-.34,0c-.24,0-.48,0-.74,0a7.47,7.47,0,0,0-.78.09l-.41.08a7.8,7.8,0,0,0-1.25.39,9.29,9.29,0,0,0-4.22,3.65l.16.18.27.27a7.18,7.18,0,0,0,.66.57l.29.21a5.8,5.8,0,0,0,.66.43,7.16,7.16,0,0,0,.78.42,8.5,8.5,0,0,0,1.4.5A6.53,6.53,0,0,1,42,68a4.78,4.78,0,0,1-.57-.12,6.64,6.64,0,0,1-.79-.26,8,8,0,0,1-1.34-.67c-.19-.12-.38-.25-.54-.37s-.32-.24-.46-.36a5.89,5.89,0,0,1-.84-.82c0-.12.1-.23.16-.35a10.88,10.88,0,0,1,.53-1,8,8,0,0,1,1-1.31A8.09,8.09,0,0,1,41.56,61l.51-.21.51-.17.51-.15.51-.11c.34-.06.68-.1,1-.13l.49,0h.72a13.57,13.57,0,0,1,3.88.64c.16.24.33.47.49.69l.5.64.49.58a16.35,16.35,0,0,0,3.14,2.77c.2.14.37.24.51.32a3.15,3.15,0,0,0,.38.21,7.5,7.5,0,0,1-1.16.28m-1.7,8.83a1.05,1.05,0,0,1,.37-.46,2.81,2.81,0,0,1,.36-.24l.23-.12.25-.11A4.13,4.13,0,0,1,55.27,74l.25,0a6.48,6.48,0,0,1,1.07.19,6.55,6.55,0,0,1,.67.19l.33.12c.21.07.41.16.6.24a10.3,10.3,0,0,1,1,.48c.27.14.46.26.57.33a.34.34,0,0,1,.1.06l0,0a.11.11,0,0,1-.06,0l-.26-.1-.39-.13a5.23,5.23,0,0,0-2.33-.2,3,3,0,0,0-.63.17,3.21,3.21,0,0,0-.59.34,2.58,2.58,0,0,1-.51.29,2.17,2.17,0,0,1-.36.12l-.37.08-.37,0a2.44,2.44,0,0,1-1.25-.28,1,1,0,0,1-.2-.14.68.68,0,0,1-.13-.18.6.6,0,0,1-.06-.19.52.52,0,0,1,0-.21M73.89,95.3l.72-.08c.69-.07,1.28-.12,1.81-.14l.76,0H78.6l.72,0,.76,0a2.21,2.21,0,0,1,.24-.22,1.5,1.5,0,0,1,.4-.23l.13-.05a1.36,1.36,0,0,1,.29-.06,1.24,1.24,0,0,1,.33,0l.17,0a.89.89,0,0,1,.35.14,1.6,1.6,0,0,1,.41.41,2.7,2.7,0,0,1,.35.7,1.74,1.74,0,0,1,.1.63.32.32,0,0,1-.1.27,2.23,2.23,0,0,1-.25.17l-.1,0a1,1,0,0,1-.32,0l-.24-.07-.15,0-.38-.13-.23-.08-.6-.15c-.23,0-.49-.09-.79-.13s-.62-.07-1-.09h-.27l-.6,0a36.59,36.59,0,0,0-6.3.56c-4.84.8-6.14,1.18-9.67,1.18S57,97.53,52.2,96.73a36.67,36.67,0,0,0-6.3-.56l-.6,0H45c-.37,0-.69,0-1,.09s-.56.08-.79.13l-.6.15-.23.08-.38.13-.15,0-.24.07a1,1,0,0,1-.32,0l-.11,0a2.22,2.22,0,0,1-.24-.17.32.32,0,0,1-.1-.27,1.74,1.74,0,0,1,.1-.63,2.42,2.42,0,0,1,.35-.7,1.6,1.6,0,0,1,.41-.41.91.91,0,0,1,.34-.14l.18,0a1.24,1.24,0,0,1,.33,0,1.36,1.36,0,0,1,.29.06l.13.05a1.5,1.5,0,0,1,.4.23,2.21,2.21,0,0,1,.24.22l.76,0,.72,0h1.41l.77,0c.53,0,1.12.07,1.81.14l.72.08c1.14.13,2.53.34,4.32.64,1.09.18,2.09.32,3,.43l1.31.13,1.18.09h.24c.75.05,1.41.07,2,.07s1.21,0,2-.07h.24l1.18-.09,1.31-.13c.92-.11,1.92-.25,3-.43,1.79-.3,3.18-.51,4.32-.64M66.26,74.54a8.41,8.41,0,0,1,1.35-.39,6,6,0,0,1,.72-.11l.25,0a4.13,4.13,0,0,1,1.71.24l.25.11.23.12a2.81,2.81,0,0,1,.36.24,1.05,1.05,0,0,1,.37.46.52.52,0,0,1,0,.21.6.6,0,0,1-.06.19.68.68,0,0,1-.13.18.78.78,0,0,1-.2.14,2.42,2.42,0,0,1-1.24.28l-.38,0-.37-.08A2.17,2.17,0,0,1,68.8,76a2.58,2.58,0,0,1-.51-.29,2.79,2.79,0,0,0-.9-.44,3.72,3.72,0,0,0-1.28-.12,6.5,6.5,0,0,0-2,.48l-.06,0,0,0,.06,0,0,0,.23-.14.25-.14a12,12,0,0,1,1.68-.77m4.19-8.09h-.28a7.9,7.9,0,0,1-1.86-.36s.13-.06.38-.21.31-.18.51-.32a16.06,16.06,0,0,0,3.13-2.77l.5-.58c.16-.2.33-.42.49-.64s.34-.45.5-.69a13.57,13.57,0,0,1,3.88-.64h.71a4.19,4.19,0,0,1,.5,0c.33,0,.67.07,1,.13l.51.11.51.15.51.17L82,61a7.73,7.73,0,0,1,.75.4,7.52,7.52,0,0,1,1.62,1.3,9.28,9.28,0,0,1,1,1.31,10.88,10.88,0,0,1,.53,1c0,.12.11.23.16.35a6.85,6.85,0,0,1-.77.76,8.42,8.42,0,0,1-1.71,1.15,7.55,7.55,0,0,1-.91.39A7.29,7.29,0,0,1,81,68,8.64,8.64,0,0,0,82,67.7a4.08,4.08,0,0,0,.42-.19,8.84,8.84,0,0,0,1.69-1l.46-.39a7.48,7.48,0,0,0,.6-.61,9.78,9.78,0,0,0-3.29-3.2,1.47,1.47,0,0,0-.66-.46,1.39,1.39,0,0,0-.5-.09h0l-.56-.18c-.19,0-.37-.1-.55-.13l-.28,0a7.24,7.24,0,0,0-.78-.1,8.24,8.24,0,0,0-2.2.14l-.34.07-.15,0-.27.08a5.52,5.52,0,0,0-.59.19l-1.56,2-1.57,2,.33.22.32.21c-.26,0-.59.11-1,.15a3.91,3.91,0,0,1-.49,0h-.54m8.81-2.8a1.11,1.11,0,0,0,.12.27,1,1,0,0,0,.16.24l.09.11.23.18a1.45,1.45,0,0,0,.83.25,1.33,1.33,0,0,0,.45-.07l.2-.08a1.18,1.18,0,0,0,.19-.11s0,0,0,0a3.21,3.21,0,0,1-.52,1.7,3.65,3.65,0,0,1-.59.65,3.06,3.06,0,0,1-3.87,0,3.31,3.31,0,0,1-.59-.65,3.21,3.21,0,0,1-.52-1.7c0-.1,0-.21,0-.31a3,3,0,0,1,.5-1.39,4,4,0,0,1,.37-.45l.22-.2a3,3,0,0,1,1.93-.69,2.86,2.86,0,0,1,.42,0,2.83,2.83,0,0,1,.77.21,2.42,2.42,0,0,1,.36.18,1.36,1.36,0,0,0-.34.23,1.47,1.47,0,0,0-.49.89,1.7,1.7,0,0,0,0,.22,1.56,1.56,0,0,0,.06.44m-7.87,4.68-.32-.09h0l.41.11-.13,0m14.87-.07a2.31,2.31,0,0,1-.62.81l-.12.09a1.85,1.85,0,0,1-.27.19,2.27,2.27,0,0,1-.31.17,3.76,3.76,0,0,1-.57.24l-.22.06a4.62,4.62,0,0,1-.73.17,7.28,7.28,0,0,1-.88.11l-.66,0c-.24,0-.48,0-.74,0h-.4c-.4,0-.84,0-1.3-.1a34.59,34.59,0,0,1-3.78-.62c-.41-.08-.84-.18-1.28-.29-.89-.21-1.84-.46-2.86-.76l.81.21.35.07.82.17a38.06,38.06,0,0,0,5.21.64l.71,0a12.28,12.28,0,0,0,2.16-.11c.26,0,.51-.08.74-.13a9,9,0,0,0,1.56-.47c.18-.07.35-.15.51-.23l.45-.24.39-.24.33-.24a4.55,4.55,0,0,0,.49-.42,2.94,2.94,0,0,0,.38-.41,2.14,2.14,0,0,1,0,.38,2.26,2.26,0,0,1-.2.89"></path><path class="cls-1" d="M123.86,59.13a13.79,13.79,0,0,0-1.14-4.32q-.18-.41-.39-.78c-.16-.3-.33-.6-.51-.88a13.93,13.93,0,0,0-1.12-1.5c-.2-.23-.42-.45-.63-.67l-.17-.16-.51-.46-.3-.24-.08-.06h0l0,0-.15-.13-.14-.1c-.19-.14-.38-.27-.58-.39l-.14-.09-.29-.17-.07,0,0,0L117.4,49l-.31-.18q-.41-.21-.84-.39l-.21-.09-.67-.25-.31-.11-.63-.18-.29-.08-.93-.2-.75-.1-.19,0h-.1l-.22,0-.22,0h-.06l-.23,0-.7,0L107.62,40h.09a2.54,2.54,0,0,0,1.85-4.28l-4.91-5.23A2.5,2.5,0,0,0,106,29.15a2.52,2.52,0,0,0-.9-3.14L99,21.88a2.55,2.55,0,0,0-1-4.07l-11.7-4.49L86,13.2l.85-.29.24-.09.46-.15.34-.12.89-.3a2.54,2.54,0,0,0-.71-5h-.3l-1.34.11-.5,0-.68.06-.36,0-1.6.14-.23,0-11.53,1L72,7.3l0-.13.25-.73,0-.15.12-.36.08-.24.8-2.33A2.54,2.54,0,0,0,70.93,0a2.52,2.52,0,0,0-1.84.79L67,3l-.21.22-.32.34-.14.14-.65.7-.12.12L62.17,8.1a15.49,15.49,0,0,0-1.38,1.7l-.87-.36c-.31-.11-.61-.23-.92-.33l-.85-.25-.21-.06-.07,0-.57-.14L57,8.58l-.09,0-.52-.11-.29,0h-.08l-.51-.09-.31,0h-.08l-.5-.06-.35,0-.55-.05-.42,0-.49,0H51.72c-.61,0-1.2,0-1.78.1a23.27,23.27,0,0,0-5,1L34.14,12.64,29,14.29a2.54,2.54,0,0,0-1.73,2.87l0,.11-1.43.54a2.53,2.53,0,0,0-1,4.07L18.79,26a2.54,2.54,0,0,0,.48,4.47l-4.91,5.23A2.54,2.54,0,0,0,16.22,40h.09L13.19,47.3l-.84,0-.2,0-.69.07a.76.76,0,0,0-.21,0l-.67.1-.19,0-.67.15-.18,0L8.87,48,8.72,48l-.67.24-.13.06-.66.29-.12.06-.1,0-.34.17-.19.1h0l-.07,0-.06,0-.25.15,0,0-.1.06-.16.1c-.23.14-.44.29-.66.45L5,50l-.14.11-.06.05-.28.24-.22.19-.21.19L4,50.88a11.22,11.22,0,0,0-1.3,1.47,12.53,12.53,0,0,0-1.11,1.74c-.12.24-.24.47-.35.72a12.83,12.83,0,0,0-.84,2.47c-.07.27-.12.54-.17.82a.24.24,0,0,1,0,.09c-.08.5-.13,1-.16,1.5v.1c0,.14,0,.27,0,.4v.22c0,.17,0,.34,0,.52v.42l0,.19c0,.23,0,.47.06.7,0,0,0,.06,0,.07,0,.25.07.51.12.76l0,.11c0,.24.09.45.14.66l0,.15c.07.25.13.5.21.74l0,.1c.06.19.13.41.21.62l.06.18c.09.22.17.44.26.65l0,.07.32.68.08.14c.1.21.2.39.3.57l.09.15c.13.22.26.43.4.64l.08.11.37.53.13.17c.16.2.32.41.49.6l.13.16.06.07.29.37,0,.06.21.3s0,.07.06.07l0,.08.15.22c.07.13.15.24.22.36l0,.06c.08.13.12.22.17.3l.06.12a2,2,0,0,1,.13.25l0,.06,0,.06s0,.07,0,.08l.18.38.08.2.12.29.11.28.09.26c.06.16.12.32.17.48l0,.12,0,.07.12.37,0,.16.22.71.36,1.18c.1.32.21.63.32.94l.12.32a18.56,18.56,0,0,0,.87,2c.18.35.38.69.58,1,.07.12.15.23.22.34s.31.45.48.67.35.44.54.66.39.44.6.65l.32.32a15.89,15.89,0,0,0,1.46,1.21c.4.29.83.57,1.27.84a19.77,19.77,0,0,0,2,1l.12.06c.39.16.8.32,1.24.48l.18.06c.42.15.83.27,1.24.38l.18,0,.43.1.11,0,.16,0,1.25.24.12,0,.46.07h.07l.15,0,.4,0h.1l.16,0,.28,0h.3c.25.79.52,1.54.8,2.23s.45,1,.54,1.21v0l.36.75a26,26,0,0,0,1.42,2.59l3.92,6.3a2.56,2.56,0,0,0,2.16,1.2,2.71,2.71,0,0,0,.68-.09,2.48,2.48,0,0,0,.6-.26,10.74,10.74,0,0,0,2,2,10,10,0,0,0,1.36.9,9.73,9.73,0,0,0,2,.83,15.94,15.94,0,0,0,1.1,1.71c.23.3.47.6.74.92a19.12,19.12,0,0,0,3,2.8,24.72,24.72,0,0,0,7.06,3.62,39.15,39.15,0,0,0,9.3,1.8l.8.06.62,0,.68,0h.71l.67,0c.53,0,1-.06,1.42-.09a44.61,44.61,0,0,0,5-.68c.76-.15,1.51-.32,2.23-.51s1.38-.39,2-.61,1.26-.44,1.86-.69A25.59,25.59,0,0,0,78,113.62a22,22,0,0,0,2.11-1.3c.42-.29.83-.6,1.22-.91A20.77,20.77,0,0,0,82.91,110a16.46,16.46,0,0,0,1.25-1.4,16.06,16.06,0,0,0,1.46-2.16,9.81,9.81,0,0,0,5.31-3.73,3.35,3.35,0,0,0,.55.23,2.71,2.71,0,0,0,.68.09,2.56,2.56,0,0,0,2.16-1.2l3.92-6.3c.41-.65.81-1.36,1.22-2.18.2-.4.39-.8.56-1.16,0,0,0,0,0,0a4.8,4.8,0,0,0,.22-.45c.06-.13.12-.28.2-.47.29-.67.56-1.42.82-2.21l.09-.29h0l.28,0h.11l.26,0,.29,0h.12l.25,0,.31,0,.11,0,.26,0,.29,0h.14l.25-.05.3-.06h.07l.08,0,.24-.05.31-.07.07,0,.07,0,.25-.06.31-.08.08,0,.08,0,.24-.07.32-.1.07,0,.08,0,.24-.07.32-.12.08,0,.08,0,.23-.08.33-.14.08,0,.08,0,.22-.09.35-.16.08,0,.07,0,.21-.1.43-.22.1,0,.18-.09.7-.4a17.28,17.28,0,0,0,1.66-1.14c.26-.2.5-.4.73-.6s.67-.62,1-1,.57-.65.83-1a13.89,13.89,0,0,0,1.1-1.68l.18-.34c.12-.22.23-.45.33-.67l.15-.34c.21-.49.42-1,.62-1.62s.39-1.2.58-1.8l.15-.51,0-.08.14-.47c.12-.36.23-.7.36-1l.06-.18c.06-.16.13-.32.2-.48l.22-.5c.17-.36.34-.68.52-1l.11-.18.11-.17a.33.33,0,0,1,0-.06v0l.12-.17.05-.08,0,0,.07-.09.18-.26.33-.42.06-.07.13-.16a14.46,14.46,0,0,0,3.42-10.81m-5.34,9.15-.23.28-.4.5-.22.31a2.43,2.43,0,0,0-.14.2h0l0,0c-.07.09-.13.19-.19.28v0l-.13.2-.13.23a11.28,11.28,0,0,0-.63,1.18v0c-.09.18-.17.37-.25.55v0c-.08.19-.16.37-.23.56l-.08.21c-.13.37-.26.74-.38,1.1a0,0,0,0,1,0,0l-.15.5,0,.09c-.05.17-.1.34-.16.51-.17.57-.34,1.15-.54,1.72s-.34,1-.55,1.43c0,.09-.08.19-.13.28s-.18.38-.27.57l-.15.28a12.39,12.39,0,0,1-.9,1.37,9.79,9.79,0,0,1-.67.8c-.25.26-.51.52-.8.78s-.39.33-.6.5a13.32,13.32,0,0,1-1.41,1l-.6.34-.2.1a3.17,3.17,0,0,1-.41.21l-.24.12-.37.17-.26.1-.35.15-.27.1-.35.12-.28.09-.34.11-.28.08-.34.09-.28.07-.33.08-.29.06-.32.07-.29,0L103,86l-.28,0-.32,0-.28,0-.31,0-.28,0-.3,0h-.28l-.29,0H99.44c-.2.74-.39,1.4-.58,2-.29.86-.55,1.54-.75,2l-.18.41-.19.4h0l0,0c-.16.35-.34.72-.53,1.1-.33.64-.69,1.32-1.1,2l-3.93,6.3L92.1,97a20.13,20.13,0,0,1-1.82,1.37,7.94,7.94,0,0,1-6.38,5.84,13,13,0,0,1-1.73,2.8,16,16,0,0,1-1.07,1.2,16.41,16.41,0,0,1-1.34,1.22c-.33.27-.68.54-1.06.8a21.51,21.51,0,0,1-1.87,1.15,22.1,22.1,0,0,1-2.23,1.06c-.54.22-1.1.43-1.7.63s-1.22.39-1.88.56-1.34.33-2.07.48a43.24,43.24,0,0,1-4.74.64l-1.32.08-.61,0h-.63l-.61,0-.57,0-.75,0a36.58,36.58,0,0,1-8.7-1.68,22.07,22.07,0,0,1-6.35-3.24,16.6,16.6,0,0,1-2.59-2.42c-.23-.27-.44-.53-.63-.79A13,13,0,0,1,40,104.22a7.47,7.47,0,0,1-2.53-.84,6.46,6.46,0,0,1-1-.67,7.87,7.87,0,0,1-1.85-2.09c-.1-.15-.19-.31-.27-.46a9.37,9.37,0,0,1-.74-1.78A21.65,21.65,0,0,1,31.76,97l-.07,3.54-3.93-6.3a26.56,26.56,0,0,1-1.28-2.36l-.35-.72,0,0h0c0-.07-.22-.43-.47-1.07s-.5-1.28-.79-2.21c-.1-.31-.19-.64-.29-1l-.15-.54H23.3l-.25,0-.32,0-.25,0-.33,0-.19,0-.4,0-.17,0L21,86l-.11,0-1.1-.21-.19-.05-.43-.1-.15,0q-.54-.15-1.08-.33l-.16-.06c-.36-.12-.72-.26-1.08-.41l-.11,0a16.4,16.4,0,0,1-1.71-.89,14,14,0,0,1-2.29-1.72c-.09-.09-.18-.17-.26-.26s-.34-.35-.49-.52-.3-.36-.44-.54-.27-.36-.39-.54L10.79,80c-.17-.27-.33-.55-.47-.83a12.86,12.86,0,0,1-.75-1.71c0-.09-.07-.19-.11-.28-.1-.29-.19-.58-.29-.86s-.24-.77-.35-1.15l-.21-.67a1.87,1.87,0,0,0-.07-.22l-.12-.4a1.72,1.72,0,0,1-.07-.21l-.18-.52c0-.1-.08-.2-.11-.3S8,72.6,7.93,72.5s-.09-.23-.14-.35a2.14,2.14,0,0,0-.1-.22c-.06-.16-.14-.31-.21-.47l-.05-.11a.83.83,0,0,0-.07-.13l-.15-.31s0-.09-.08-.14L7,70.46l-.07-.13-.27-.43h0l-.21-.33h0l-.09-.12L6,69.08,6,69c-.11-.15-.23-.3-.35-.44l-.23-.28h0c-.14-.16-.27-.32-.4-.49l-.1-.14-.3-.42-.07-.1a5.84,5.84,0,0,1-.33-.53l-.07-.12A4.92,4.92,0,0,1,3.89,66s-.05-.09-.08-.14-.18-.37-.26-.56l0,0c-.08-.18-.15-.36-.22-.54s0-.1-.05-.15a4.72,4.72,0,0,1-.18-.53.14.14,0,0,1,0-.06c-.06-.21-.12-.41-.17-.62l0-.12c0-.17-.08-.35-.11-.52s0-.08,0-.12c0-.21-.07-.42-.1-.63v-.05a5.9,5.9,0,0,1-.06-.59s0-.08,0-.12,0-.11,0-.16v-.21c0-.15,0-.3,0-.44v-.18c0-.1,0-.21,0-.32v0a.2.2,0,0,1,0-.07,9.89,9.89,0,0,1,.13-1.22v0c0-.23.09-.47.14-.7a10.71,10.71,0,0,1,.68-2c.09-.2.19-.39.29-.58a10.37,10.37,0,0,1,.88-1.4,11,11,0,0,1,1.06-1.19l0,0,0,0L6,52.51l.19-.18.28-.22.07-.06.19-.15.55-.37.1-.07.07,0,0,0a2.2,2.2,0,0,1,.26-.15h0l.17-.1L8.23,51l.11,0,.52-.23.12,0,.52-.19.15-.05.52-.15.16,0,.52-.11.19,0,.52-.08.21,0c.18,0,.36,0,.55-.06h.2c.25,0,.5,0,.76,0s.54,0,.81,0h0l.75,0L19,40.19c.38-.88.81-1.85,1.32-2.84.31-.59.65-1.19,1-1.78.21-.36.43-.71.67-1.06l-5.79,2.94,8.58-9.14c.53-.56,1.11-1.17,1.75-1.77l-6.33,1.58,10.39-7c.49-.33,1-.69,1.59-1l-5.39.1,3.83-1.47,6.15-2.35-6.64.33h-.35l5.12-1.64L45.7,11.58a20.71,20.71,0,0,1,4.47-.89q.8-.07,1.59-.09h1l.45,0,.36,0,.45,0,.36,0,.44,0,.35.05.44.07L56,11l.46.09.3.07.51.13.24.06.74.22.81.29c.53.21,1.06.44,1.57.69l.76.4,0,0,.38.23A13.15,13.15,0,0,1,64,9.85l3.43-3.62.12-.13.66-.69.13-.14.32-.34.21-.22,2.05-2.17-.79,2.34-.08.23-.12.36,0,.15-.25.74,0,.13-1.75,5.16c.22-.05.43-.08.62-.11l.28,0h0l.17,0,.83-.07h0l.33,0,13.13-1.13.23,0,1.61-.14h0l.35,0,.69-.06.5,0L88,9.82l-.94.33-.34.12-.46.15L86,10.5,85,10.86l-.14.05L80.77,12.3,77,13.59c.91.1,1.79.23,2.63.4.28,0,.56.11.83.18a30.52,30.52,0,0,1,5,1.53l11.7,4.48-5.39-.1c.57.35,1.1.71,1.59,1l10.39,7-6.33-1.58c.64.6,1.23,1.21,1.75,1.77l8.58,9.14-5.78-2.94c.23.35.45.7.66,1.06a31.53,31.53,0,0,1,2.35,4.62l4.15,9.71.74,0h.24a5.42,5.42,0,0,1,.57,0l.66,0h.19l.24,0,.23,0,.19,0a6.17,6.17,0,0,1,.62.09c.26,0,.52.1.77.16l.23.06.51.15.26.09.49.18.22.09c.23.1.45.2.67.32a3.07,3.07,0,0,1,.31.17l0,0,0,0,.27.15.1.07a4,4,0,0,1,.48.32l.08.06.18.14h0l.07,0h0l.24.18.4.37.13.12c.18.17.34.35.51.53a10.53,10.53,0,0,1,.89,1.19c.14.23.28.47.41.71s.22.42.31.64a11.05,11.05,0,0,1,.93,3.52,12,12,0,0,1-2.81,8.9"></path><path class="cls-1" d="M95.11,62.4c0-.34-.06-.68-.1-1a26,26,0,0,0-.94-4.51l-.35-1.1-.21-.55c-.08-.18-.15-.36-.22-.54l-.22-.54-.26-.53-.37-.76a13.69,13.69,0,0,0-.84-1.16,17.39,17.39,0,0,0-5-4.14L86,47.25c-.54-.29-1.09-.55-1.64-.79l-.82-.32c-.54-.21-1.09-.39-1.62-.54-.8-.23-1.57-.41-2.3-.55a18.62,18.62,0,0,0-2.33-.16,14.78,14.78,0,0,0-1.5.07,13.47,13.47,0,0,0-2.14.37,11.92,11.92,0,0,0-1.32.42,11.21,11.21,0,0,0-1.21.57,8.68,8.68,0,0,0-2.06,1.58,15.6,15.6,0,0,0-1,1.21,12.32,12.32,0,0,0-1.41,2.45,9.52,9.52,0,0,0-.42,1.2,9.18,9.18,0,0,0-.32,1.73,8.12,8.12,0,0,0,0,1.09l0,.52a7.5,7.5,0,0,0,.27,1.41,6.07,6.07,0,0,0,.31.82c0,.12.12.24.18.36a4,4,0,0,0,.65.88,2.37,2.37,0,0,0,.77.53,1.7,1.7,0,0,0,.83.12,1.85,1.85,0,0,0,.84-.33c.64-.46,1.44-1,2.36-1.56a18.17,18.17,0,0,1,3.68-1.7,13.08,13.08,0,0,1,1.61-.44,13.75,13.75,0,0,1,1.74-.25c.4,0,.8,0,1.22,0a14,14,0,0,1,6,1.55,18.44,18.44,0,0,1,2.92,1.78c.34.26.66.52.95.78a12.5,12.5,0,0,1,1,1c.22.26.43.51.61.76l.34.49c.15.25.29.48.41.71a8.7,8.7,0,0,1,.75,2l0-.2-.07-.41-.14-.83-.21-.82-.11-.41L92.7,62l-.28-.8c-.1-.27-.21-.53-.33-.8L91.91,60c0-.13-.11-.27-.17-.4.15.25.31.49.47.74s.32.5.46.75l.41.78.2.39.18.4.34.81.28.82.14.42.06.21,0,.21c0,.18.09.36.13.53,0-.1,0-.2,0-.31s0-.33,0-.5,0-.33,0-.5l-.05-.51-.07-.5-.15-1-.21-1c-.06-.33-.14-.66-.23-1s-.19-.66-.28-1-.2-.65-.31-1-.23-.65-.34-1c.14.32.29.63.44,1s.3.63.43.95.26.64.38,1a10.33,10.33,0,0,1,.35,1l.32,1,.16.59.11.42.06.25.07.25v.06l0,.23,0,.22c0,.12,0,.25.08.38v-.13c0-.21,0-.42,0-.64,0-.47-.06-1-.1-1.42"></path><path class="cls-1" d="M118,58.88a1.8,1.8,0,0,0,0-.19,7.51,7.51,0,0,0-.49-1.5c0-.09-.09-.19-.15-.29s-.11-.21-.17-.32-.13-.22-.2-.33l0,0a.21.21,0,0,0,0-.06l-.17-.25q-.19-.25-.42-.51a5.9,5.9,0,0,0-.5-.5,6.63,6.63,0,0,0-1.28-.91,5,5,0,0,0-.52-.25,4.82,4.82,0,0,0-.57-.22,8.19,8.19,0,0,0-1-.26,9.59,9.59,0,0,0-1.86-.19h-.09q-.42,0-.84,0a13.89,13.89,0,0,0-5,1.38c-.28.13-.56.27-.84.43l-1.43.78c.05.2.1.4.14.59l.12.6.06.35c.07.35.12.7.16,1.05s.06.59.09.89l.56-.35c.38-.23.77-.44,1.17-.64l.61-.28a11.65,11.65,0,0,1,2.51-.8,8.74,8.74,0,0,1,.87-.14A9.72,9.72,0,0,1,110,56.9l.44,0a6.44,6.44,0,0,1,.87.1,6.87,6.87,0,0,1,.87.21l.42.15a3.81,3.81,0,0,1,.79.44,2.52,2.52,0,0,1,.35.3,1.29,1.29,0,0,1,.16.17,3.2,3.2,0,0,1,.69,1.42,4.3,4.3,0,0,1,.08.88,4.91,4.91,0,0,1-.07.86c0,.15,0,.29-.08.43a9.16,9.16,0,0,1-.35,1.24c-.1.26-.2.53-.31.79a16.19,16.19,0,0,1-1.2,2.25,15.66,15.66,0,0,0,1.33-3.1,9.32,9.32,0,0,0,.32-1.64,4.61,4.61,0,0,0-.1-1.62,2.43,2.43,0,0,0-.13-.38,2.53,2.53,0,0,0-.67-1,3.22,3.22,0,0,0-1.4-.68,6,6,0,0,0-1.6-.19,8,8,0,0,0-1.62.13,6.93,6.93,0,0,0-.79.17,11.83,11.83,0,0,0-1.15.37c-.38.15-.74.31-1.11.49l-.36.19c-.35.19-.7.4-1,.62l-.67.46c-.22.16-.44.32-.65.49,0,.39,0,.78,0,1.17,0,.56-.08,1.12-.14,1.66s-.18,1.09-.26,1.62c-.11-.4-.21-.79-.32-1.17l-.12-.38-.27-.76c-.09-.24-.18-.49-.29-.73l0-.12-.1.09-.09.09c.05.65.08,1.3.07,1.94,0,.21,0,.42,0,.64s0,.22,0,.32,0,.22,0,.33a3.34,3.34,0,0,1,1.54.12l.28.11.29.14a1.79,1.79,0,0,1,.57.49,2.9,2.9,0,0,1,.2.33,2.87,2.87,0,0,1,.21,1.66,2.78,2.78,0,0,1-.18.67,3.59,3.59,0,0,1-1.68,1.89,4.56,4.56,0,0,1-1.5.47l-.42.71c-.14.23-.28.46-.41.69a3.11,3.11,0,0,0-.22.4,4,4,0,0,0-.27.6,2.73,2.73,0,0,0-.1.41l0,.2a2,2,0,0,0,.06.6,1.31,1.31,0,0,0,.15.37,1.4,1.4,0,0,0,.1.16,1.48,1.48,0,0,0,.28.28,1.41,1.41,0,0,0,.35.21,2.21,2.21,0,0,0,1.25.14,2.91,2.91,0,0,0,.83-.28,3.26,3.26,0,0,0,.73-.5,3.34,3.34,0,0,0,.33-.32,5.52,5.52,0,0,0,.79-1.12l.2-.42.09-.21.09-.22.29-.66a2.14,2.14,0,0,1,.1-.22c.07-.14.14-.28.22-.42a2.86,2.86,0,0,1,.24-.42l.26-.4.15-.19.15-.19a5.36,5.36,0,0,1,1-1,3.45,3.45,0,0,1,.41-.25,3.21,3.21,0,0,1,1.84-.4,2.43,2.43,0,0,0-.71,0,3.38,3.38,0,0,0-1.09.42l-.39.26a5.11,5.11,0,0,0-1,1l-.28.38c-.08.13-.16.27-.23.41a8.06,8.06,0,0,0-.42.83c-.13.29-.23.59-.34.88l-.17.45c-.06.15-.13.3-.19.44a5.92,5.92,0,0,1-1,1.42l-.17.18-.19.16a3.58,3.58,0,0,1-1.56.8,3.34,3.34,0,0,1-.78.06A2.38,2.38,0,0,1,99.9,76a2.28,2.28,0,0,1-.57-.59c0-.08-.09-.16-.13-.25s0-.08,0-.13a2.49,2.49,0,0,1-.15-.93,2.39,2.39,0,0,1,.06-.53l.06-.25.09-.25a2.18,2.18,0,0,1,.09-.23q.11-.24.21-.45c0-.08.07-.15.11-.22l.23-.43c.23-.42.46-.82.66-1.23l.09-.21c.06-.13.12-.27.17-.41s.09-.28.12-.41a2.73,2.73,0,0,0,.09-.62,1.41,1.41,0,0,0,0-.2,1.23,1.23,0,0,0,0-.2,2.57,2.57,0,0,0-.07-.4,3,3,0,0,0-.34-.73,2,2,0,0,0-.24-.33,2.61,2.61,0,0,0-.27-.31c0,.15,0,.31,0,.47s0,.31,0,.47,0,.31,0,.47,0,.31,0,.46c0,.56-.08,1.12-.13,1.66l-.06.41c-.06.41-.14.81-.21,1.21,0-.13-.07-.26-.11-.39l-.21-.78-.12-.38c0-.13-.09-.25-.13-.38l-.27-.74c0-.13-.1-.25-.16-.37-.13-.32-.27-.64-.42-1s-.31-.61-.48-.91a49.46,49.46,0,0,1,.75,6.33c0,.66,0,1.3,0,1.92,0,.94,0,1.83-.06,2.69,0,.57-.07,1.12-.12,1.66,0,.27-.05.53-.08.79-.05.51-.12,1-.19,1.49l-.09.59c0,.19-.06.38-.1.56l.82,0,.81,0a18.75,18.75,0,0,0,2.75-.19l.51-.09a13.7,13.7,0,0,0,1.5-.34l.48-.15c.31-.1.62-.21.92-.34l.44-.19a8.62,8.62,0,0,0,.86-.43l.41-.23A8.38,8.38,0,0,0,110.54,78a8.11,8.11,0,0,0,.45-.88,9.29,9.29,0,0,0,.37-.92c.24-.63.44-1.29.65-2a26.89,26.89,0,0,1,1.61-4.34,16.09,16.09,0,0,1,.86-1.55c.22-.35.47-.71.73-1.06l.41-.54.45-.54c.14-.16.26-.32.38-.48a6.84,6.84,0,0,0,.52-.8l0,0a8.65,8.65,0,0,0,1-2.66,8.52,8.52,0,0,0,.17-1.51c0-.07,0-.15,0-.22a8.27,8.27,0,0,0-.15-1.57"></path><path class="cls-1" d="M146,10.79q4.25,0,5.79,1.54t1.53,5.82V35.24c0,2.83-.51,4.76-1.53,5.77s-3,1.55-5.79,1.55h-8.58c-2.85,0-4.78-.51-5.8-1.55s-1.54-2.94-1.54-5.77V18.15q0-4.29,1.54-5.82t5.8-1.54ZM143.49,17c0-.33-.17-.5-.52-.5h-2.53c-.35,0-.52.17-.52.5V36.31c0,.36.17.54.52.54H143c.35,0,.52-.18.52-.54Z"></path><polygon class="cls-1" points="155.42 10.79 179.01 10.79 179.01 16.5 172.13 16.5 172.13 42.56 162.3 42.56 162.3 16.5 155.42 16.5 155.42 10.79"></polygon><polygon class="cls-1" points="181.11 10.79 190.94 10.79 190.94 23.84 194.51 23.84 194.51 10.79 204.35 10.79 204.35 42.56 194.51 42.56 194.51 29.53 190.94 29.53 190.94 42.56 181.11 42.56 181.11 10.79"></polygon><polygon class="cls-1" points="207.28 10.79 224.99 10.79 224.99 16.5 217.11 16.5 217.11 23.15 224.99 23.15 224.99 28.78 217.11 28.78 217.11 36.85 224.99 36.85 224.99 42.56 207.28 42.56 207.28 10.79"></polygon><path class="cls-1" d="M243.84,10.79q4.24,0,5.79,1.54t1.53,5.82v.92c0,2.48-.31,4.17-.92,5.06s-2.1,1.5-4.5,1.89q3.6.6,4.5,1.92a5.14,5.14,0,0,1,.92,3V37.6a17.35,17.35,0,0,0,.52,5h-9.83a19.6,19.6,0,0,1-.52-5.27V30.55a.5.5,0,0,0-.33-.48h-3.25V42.56h-9.83V10.79ZM241.33,17c0-.36-.17-.54-.52-.54h-3.06v8.24h3.06a.46.46,0,0,0,.52-.52Z"></path><polygon class="cls-1" points="142.34 75.3 139.92 64.63 139.92 78.67 130.09 78.67 130.09 46.89 139.92 46.89 144.62 64.61 149.37 46.89 159.2 46.89 159.2 78.67 149.37 78.67 149.37 64.63 146.95 75.3 142.34 75.3"></polygon><path class="cls-1" d="M178.05,46.89q4.24,0,5.8,1.55t1.52,5.81V71.34c0,2.84-.51,4.76-1.52,5.78s-3,1.55-5.8,1.55h-8.57q-4.28,0-5.8-1.55c-1-1-1.55-2.94-1.55-5.78V54.25q0-4.28,1.55-5.81t5.8-1.55Zm-2.51,6.21c0-.33-.17-.5-.52-.5h-2.53c-.35,0-.53.17-.53.5V72.41a.48.48,0,0,0,.53.55H175c.35,0,.52-.19.52-.55Z"></path><polygon class="cls-1" points="202.97 78.67 198.13 64.46 198.13 78.67 188.3 78.67 188.3 46.89 197.72 46.89 202.55 61.12 202.55 46.89 212.38 46.89 212.38 78.67 202.97 78.67"></polygon><polygon class="cls-1" points="215.31 46.89 225.14 46.89 225.14 57.45 229.28 46.89 238.55 46.89 232.67 61.62 239.3 78.67 228.99 78.67 225.14 66.91 225.14 78.67 215.31 78.67 215.31 46.89"></polygon><polygon class="cls-1" points="240.97 46.89 258.69 46.89 258.69 52.6 250.81 52.6 250.81 59.26 258.69 59.26 258.69 64.88 250.81 64.88 250.81 72.96 258.69 72.96 258.69 78.67 240.97 78.67 240.97 46.89"></polygon><polygon class="cls-1" points="267.92 64.86 260.37 46.89 269.67 46.89 272.85 57.39 276.01 46.89 285.32 46.89 277.77 64.86 277.77 78.67 267.92 78.67 267.92 64.86"></polygon><path class="cls-1" d="M146,83q4.25,0,5.79,1.54a5.07,5.07,0,0,1,1.53,3.73v3.6q0,6-6.47,6,6.46,0,6.47,5.92v5.73a5,5,0,0,1-1.53,3.68c-1,1-3,1.55-5.79,1.55H130.09V83Zm-2.51,6.25a.47.47,0,0,0-.53-.54h-3.05V95H143a.46.46,0,0,0,.53-.52Zm-3.58,11.44v8.37H143c.35,0,.53-.17.53-.5V101.2a.46.46,0,0,0-.53-.51Z"></path><path class="cls-1" d="M172.17,83c2.83,0,4.77.51,5.8,1.54s1.53,3,1.53,5.82v.92c0,2.48-.31,4.17-.93,5.06s-2.09,1.49-4.49,1.88q3.6.61,4.49,1.93a5.08,5.08,0,0,1,.93,3v6.69a17,17,0,0,0,.52,5h-9.83a19.52,19.52,0,0,1-.53-5.27v-6.74a.5.5,0,0,0-.33-.48h-3.24v12.49h-9.84V83Zm-2.51,6.25c0-.36-.17-.54-.52-.54h-3V97h3a.46.46,0,0,0,.52-.52Z"></path><polygon class="cls-1" points="182.95 83 200.66 83 200.66 88.71 192.78 88.71 192.78 95.36 200.66 95.36 200.66 100.99 192.78 100.99 192.78 109.06 200.66 109.06 200.66 114.77 182.95 114.77 182.95 83"></polygon><polygon class="cls-1" points="222.75 114.77 219.95 100.42 217.13 114.77 206.69 114.77 202.34 83 211.65 83 212.92 102.28 216.31 83 223.57 83 226.96 102.28 228.24 83 237.54 83 233.23 114.77 222.75 114.77"></polygon><rect class="cls-1" x="239.22" y="83" width="9.83" height="31.77"></rect><polygon class="cls-1" points="266.64 114.77 261.81 100.57 261.81 114.77 251.98 114.77 251.98 83 261.39 83 266.22 97.22 266.22 83 276.06 83 276.06 114.77 266.64 114.77"></polygon><path class="cls-1" d="M294.9,83q4.25,0,5.8,1.54t1.52,5.82v4.89h-9.83V89.33c0-.36-.17-.54-.52-.54h-2.53a.47.47,0,0,0-.53.54v19.31c0,.34.18.5.53.5h2.53c.35,0,.52-.16.52-.5v-6.25h-1.78V98.83h11.61v15.94h-2.84l-1-3c-.3,1.91-2.14,2.91-5.55,3h-6.55q-4.26,0-5.79-1.53T279,107.45V90.36q0-4.26,1.55-5.82T286.32,83Z"></path><path class="cls-1" d="M281.33,10A8.41,8.41,0,1,1,273,1.77,8.24,8.24,0,0,1,281.33,10m-14.72,0A6.37,6.37,0,0,0,273,16.49,6.27,6.27,0,0,0,279.23,10,6.31,6.31,0,1,0,266.61,10m5,4.24h-1.9V6a22.2,22.2,0,0,1,3.15-.25,4.35,4.35,0,0,1,2.79.65,2.06,2.06,0,0,1,.85,1.75,2.11,2.11,0,0,1-1.7,1.94v.1c.8.25,1.2.9,1.45,2a7.32,7.32,0,0,0,.6,2h-2a6.39,6.39,0,0,1-.65-2c-.15-.85-.65-1.25-1.69-1.25h-.9Zm.05-4.59h.9c1,0,1.89-.35,1.89-1.19s-.55-1.25-1.74-1.25a4.55,4.55,0,0,0-1.05.1Z"></path></g></g></svg> 