<?xml version="1.0" encoding="UTF-8" standalone="no"?>
<!DOCTYPE svg PUBLIC "-//W3C//DTD SVG 1.1//EN" "http://www.w3.org/Graphics/SVG/1.1/DTD/svg11.dtd">
<svg width="100%" height="100%" viewBox="0 0 303 118" version="1.1" xmlns="http://www.w3.org/2000/svg" xmlns:xlink="http://www.w3.org/1999/xlink" xml:space="preserve" xmlns:serif="http://www.serif.com/" style="fill-rule:evenodd;clip-rule:evenodd;stroke-linejoin:round;stroke-miterlimit:2;">
    <g id="Layer_2">
        <g id="Layer_1-2">
            <path d="M118.44,69.03L118.21,69.31L117.81,69.81L117.59,70.12C117.54,70.184 117.493,70.251 117.45,70.32C117.38,70.41 117.32,70.51 117.26,70.6L117.13,70.8L117,71.03C116.767,71.411 116.556,71.805 116.37,72.21C116.28,72.39 116.2,72.58 116.12,72.76C116.04,72.95 115.96,73.13 115.89,73.32L115.81,73.53C115.68,73.9 115.55,74.27 115.43,74.63L115.28,75.13L115.28,75.22C115.23,75.39 115.18,75.56 115.12,75.73C114.95,76.3 114.78,76.88 114.58,77.45C114.38,78.02 114.24,78.45 114.03,78.88C114.03,78.97 113.95,79.07 113.9,79.16C113.85,79.25 113.72,79.54 113.63,79.73L113.48,80.01C113.211,80.486 112.91,80.944 112.58,81.38C112.371,81.658 112.147,81.925 111.91,82.18C111.66,82.44 111.4,82.7 111.11,82.96C110.82,83.22 110.72,83.29 110.51,83.46C110.062,83.824 109.591,84.158 109.1,84.46L108.5,84.8L108.3,84.9C108.169,84.98 108.032,85.05 107.89,85.11L107.65,85.23L107.28,85.4L107.02,85.5L106.67,85.65L106.4,85.75L106.05,85.87L105.77,85.96L105.43,86.07L105.15,86.15L104.81,86.24L104.53,86.31L104.2,86.39L103.91,86.45L103.59,86.52L103.3,86.52L103,86L99.44,86C99.24,86.74 99.05,87.4 98.86,88C98.57,88.86 98.31,89.54 98.11,90L97.93,90.41L97.74,90.81C97.58,91.16 97.4,91.53 97.21,91.91C96.88,92.55 96.52,93.23 96.11,93.91L92.18,100.21L92.1,97C91.52,97.491 90.912,97.948 90.28,98.37C89.495,101.4 86.988,103.695 83.9,104.21C83.444,105.213 82.863,106.154 82.17,107.01C81.834,107.428 81.477,107.828 81.1,108.21C80.676,108.641 80.229,109.048 79.76,109.43C79.43,109.7 79.08,109.97 78.7,110.23C78.097,110.645 77.473,111.029 76.83,111.38C76.107,111.775 75.363,112.128 74.6,112.44C74.06,112.66 73.5,112.87 72.9,113.07C72.3,113.27 71.68,113.46 71.02,113.63C70.36,113.8 69.68,113.96 68.95,114.11C67.383,114.411 65.801,114.624 64.21,114.75L62.89,114.83L59.72,114.83C56.763,114.625 53.841,114.06 51.02,113.15C48.742,112.421 46.597,111.327 44.67,109.91C43.723,109.198 42.854,108.387 42.08,107.49C41.85,107.22 41.64,106.96 41.45,106.7C40.877,105.929 40.39,105.098 40,104.22C39.113,104.094 38.256,103.809 37.47,103.38C37.117,103.188 36.782,102.964 36.47,102.71C35.734,102.129 35.107,101.421 34.62,100.62C34.52,100.47 34.43,100.31 34.35,100.16C34.043,99.594 33.795,98.997 33.61,98.38C32.969,97.953 32.352,97.493 31.76,97L31.69,100.54L27.76,94.24C27.294,93.475 26.867,92.688 26.48,91.88L26.13,91.16C26.13,91.09 25.91,90.73 25.66,90.09C25.41,89.45 25.16,88.81 24.87,87.88C24.77,87.57 24.68,87.24 24.58,86.88L24.43,86.34L21.39,86.34L21,86L20.89,86L19.79,85.79L19.6,85.74L19.17,85.64L19.02,85.64C18.66,85.54 18.3,85.43 17.94,85.31L17.78,85.25C17.42,85.13 17.06,84.99 16.7,84.84L16.59,84.84C16.003,84.577 15.432,84.28 14.88,83.95C14.06,83.456 13.293,82.88 12.59,82.23C12.5,82.14 12.41,82.06 12.33,81.97C12.25,81.88 11.99,81.62 11.84,81.45C11.69,81.28 11.54,81.09 11.4,80.91C11.26,80.73 11.13,80.55 11.01,80.37L10.79,80C10.62,79.73 10.46,79.45 10.32,79.17C10.029,78.619 9.778,78.047 9.57,77.46C9.57,77.37 9.5,77.27 9.46,77.18C9.36,76.89 9.27,76.6 9.17,76.32C9.07,76.04 8.93,75.55 8.82,75.17L8.61,74.5C8.591,74.425 8.568,74.352 8.54,74.28L8.42,73.88C8.392,73.812 8.369,73.741 8.35,73.67L8.17,73.15C8.17,73.05 8.09,72.95 8.06,72.85C8.03,72.75 8,72.6 7.93,72.5C7.86,72.4 7.84,72.27 7.79,72.15C7.761,72.075 7.727,72.001 7.69,71.93C7.63,71.77 7.55,71.62 7.48,71.46L7.43,71.35C7.411,71.305 7.387,71.261 7.36,71.22L7.21,70.91C7.21,70.91 7.21,70.82 7.13,70.77L7,70.46L6.93,70.33L6.66,69.9L6.45,69.57L6.36,69.45L6,69.08L6,69C5.89,68.85 5.77,68.7 5.65,68.56L5.42,68.28C5.28,68.12 5.15,67.96 5.02,67.79L4.62,67.23L4.55,67.13C4.431,66.959 4.32,66.782 4.22,66.6L4.15,66.48C4.055,66.325 3.968,66.165 3.89,66C3.812,65.835 3.84,65.91 3.81,65.86C3.78,65.81 3.63,65.49 3.55,65.3C3.47,65.12 3.4,64.94 3.33,64.76C3.26,64.58 3.33,64.66 3.28,64.61C3.21,64.437 3.149,64.26 3.1,64.08C3.096,64.06 3.096,64.04 3.1,64.02C3.04,63.81 2.98,63.61 2.93,63.4L2.93,63.28C2.93,63.11 2.85,62.93 2.82,62.76C2.79,62.59 2.82,62.68 2.82,62.64C2.82,62.43 2.75,62.22 2.72,62.01L2.72,61.96C2.69,61.764 2.67,61.568 2.66,61.37C2.65,61.172 2.66,61.29 2.66,61.25L2.66,59.94C2.656,59.917 2.656,59.893 2.66,59.87C2.678,59.461 2.721,59.054 2.79,58.65C2.79,58.42 2.88,58.18 2.93,57.95C3.09,57.263 3.318,56.593 3.61,55.95C3.7,55.75 3.8,55.56 3.9,55.37C4.156,54.881 4.45,54.412 4.78,53.97C5.104,53.548 5.458,53.151 5.84,52.78L6,52.51L6.19,52.33L6.47,52.11L6.54,52.05L6.73,51.9L7.28,51.53L7.38,51.46L7.45,51.46C7.533,51.404 7.62,51.354 7.71,51.31L7.88,51.21L8.23,51L8.34,51L8.86,50.77L8.98,50.77L9.5,50.58L9.65,50.53L10.17,50.38L10.33,50.38L10.85,50.27L11.04,50.27L11.56,50.19L11.77,50.19C11.95,50.19 12.13,50.19 12.32,50.13L14.84,50.13L19,40.19C19.38,39.31 19.81,38.34 20.32,37.35C20.63,36.76 20.97,36.16 21.32,35.57C21.53,35.21 21.75,34.86 21.99,34.51L16.2,37.45L24.78,28.31C25.31,27.75 25.89,27.14 26.53,26.54L20.2,28.12L30.59,21.12C31.08,20.79 31.59,20.43 32.18,20.12L26.79,20.22L30.62,18.75L36.77,16.4L30.13,16.73L29.78,16.73L34.9,15.09L45.7,11.58C47.153,11.12 48.652,10.821 50.17,10.69C50.703,10.643 51.233,10.613 51.76,10.6L54.82,10.6L55.17,10.65L55.61,10.72L56,11L56.46,11.09L56.76,11.16L57.27,11.29L57.51,11.35L58.25,11.57L59.06,11.86C59.59,12.07 60.12,12.3 60.63,12.55L61.39,12.95L61.77,13.18C62.339,11.963 63.091,10.84 64,9.85L67.43,6.23L67.55,6.1L68.21,5.41L68.34,5.27L68.66,4.93L68.87,4.71L70.92,2.54L70.13,4.88L70.05,5.11L69.93,5.47L69.93,5.62L69.68,6.36L69.68,6.49L67.93,11.65C68.15,11.6 68.36,11.57 68.55,11.54L69,11.54L69.83,11.47L70.16,11.47L83.29,10.34L83.52,10.34L85.13,10.2L85.48,10.2L86.17,10.14L86.67,10.14L88,9.82L87.06,10.15L86.72,10.27L86.26,10.42L86,10.5L85,10.86L84.86,10.91L80.77,12.3L77,13.59C77.91,13.69 78.79,13.82 79.63,13.99C79.91,13.99 80.19,14.1 80.46,14.17C82.167,14.536 83.84,15.048 85.46,15.7L97.16,20.18L91.77,20.08C92.34,20.43 92.87,20.79 93.36,21.08L103.75,28.08L97.42,26.5C98.06,27.1 98.65,27.71 99.17,28.27L107.75,37.41L101.97,34.47C102.2,34.82 102.42,35.17 102.63,35.53C103.539,37.003 104.325,38.548 104.98,40.15L109.13,49.86L110.11,49.86C110.3,49.85 110.49,49.85 110.68,49.86L112.19,49.86C112.398,49.879 112.605,49.91 112.81,49.95C113.07,49.95 113.33,50.05 113.58,50.11L113.81,50.17L114.32,50.32L114.58,50.41L115.07,50.59L115.29,50.68C115.52,50.78 115.74,50.88 115.96,51C116.067,51.051 116.17,51.107 116.27,51.17L116.54,51.32L116.64,51.39C116.807,51.485 116.968,51.592 117.12,51.71L117.2,51.77L117.38,51.91L117.45,51.91L117.69,52.09L118.09,52.46L118.22,52.58C118.4,52.75 118.56,52.93 118.73,53.11C119.054,53.485 119.352,53.883 119.62,54.3C119.76,54.53 119.9,54.77 120.03,55.01C120.16,55.25 120.25,55.43 120.34,55.65C120.842,56.764 121.157,57.953 121.27,59.17C121.573,62.393 120.558,65.605 118.46,68.07L118.44,69.03Z"/>
            <path d="M3.9,51L4,50.89L3.9,51" style="fill:white;fill-rule:nonzero;"/>
            <path d="M42.93,26.58L45.54,26.58C46.41,26.58 47.28,26.63 48.14,26.7C49.016,26.749 49.885,26.873 50.74,27.07C50.347,26.861 49.935,26.69 49.51,26.56C49.09,26.42 48.66,26.3 48.22,26.2C47.356,25.993 46.482,25.836 45.6,25.73C44.77,25.62 43.94,25.56 43.1,25.5C43.58,25.33 44.1,25.17 44.54,25.03C45.909,24.629 47.306,24.332 48.72,24.14C50.145,23.947 51.582,23.853 53.02,23.86C54.46,23.86 55.91,23.97 57.38,24.12C55.984,23.632 54.539,23.296 53.07,23.12C52.7,23.07 52.33,23 52,23L50.88,23C50.136,22.977 49.392,22.993 48.65,23.05C47.154,23.16 45.673,23.421 44.23,23.83C43.51,24.03 42.8,24.28 42.1,24.55C41.75,24.69 41.4,24.85 41.1,25.01C40.8,25.17 40.43,25.34 40.1,25.55L38.1,26.78L40.45,26.69C41.32,26.69 42.19,26.63 43.06,26.62" style="fill:white;fill-rule:nonzero;"/>
            <path d="M47.34,20.62L48.51,20.73C48.9,20.78 49.29,20.81 49.68,20.87C50.07,20.93 50.46,20.98 50.84,21.04C51.62,21.17 52.39,21.33 53.15,21.53C53.923,21.722 54.682,21.97 55.42,22.27L55.42,22.18C54.779,21.671 54.073,21.25 53.32,20.93C52.569,20.601 51.793,20.33 51,20.12C50.205,19.913 49.396,19.759 48.58,19.66C48.96,19.56 49.34,19.46 49.72,19.38C50.899,19.134 52.097,18.984 53.3,18.93C54.534,18.87 55.77,18.894 57,19C58.212,19.111 59.417,19.288 60.61,19.53L60.61,19.43C59.428,19.091 58.225,18.827 57.01,18.64C55.792,18.453 54.562,18.356 53.33,18.35C52.088,18.343 50.847,18.437 49.62,18.63C49.003,18.722 48.392,18.849 47.79,19.01C47.483,19.081 47.179,19.168 46.88,19.27C46.57,19.37 46.29,19.46 45.96,19.6L44.18,20.38L46.18,20.53L47.34,20.62Z" style="fill:white;fill-rule:nonzero;"/>
            <path d="M39.9,33.11C40.649,33.07 41.401,33.07 42.15,33.11C42.75,33.11 43.35,33.22 43.94,33.32C43.135,33.679 42.368,34.118 41.65,34.63C40.916,35.159 40.227,35.748 39.59,36.39C38.949,37.028 38.36,37.717 37.83,38.45L36.62,40.13L38.47,39.2C39.423,38.721 40.43,38.358 41.47,38.12C41.993,37.992 42.524,37.898 43.06,37.84C43.6,37.77 44.15,37.73 44.69,37.71C45.782,37.663 46.875,37.707 47.96,37.84C48.66,37.92 49.36,38.03 50.05,38.17C49.401,38.314 48.77,38.532 48.17,38.82C47.689,39.058 47.239,39.353 46.83,39.7C46.414,40.037 46.058,40.443 45.78,40.9L45.92,40.98C46.221,40.568 46.586,40.207 47,39.91C47.411,39.603 47.857,39.348 48.33,39.15C49.281,38.747 50.298,38.524 51.33,38.49L52.58,38.42L51.36,38C49.204,37.329 46.958,36.992 44.7,37C44.13,37 43.56,37 43,37.07C42.429,37.12 41.862,37.2 41.3,37.31C40.855,37.393 40.414,37.5 39.98,37.63L40.37,37.26C40.99,36.683 41.659,36.161 42.37,35.7C43.057,35.242 43.791,34.86 44.56,34.56C45.293,34.256 46.069,34.067 46.86,34L50,33.88L47.07,32.66C46.678,32.498 46.277,32.358 45.87,32.24C45.48,32.12 45.08,32.01 44.68,31.92C43.88,31.738 43.068,31.611 42.25,31.54C41.568,31.483 40.884,31.467 40.2,31.49L40.27,31.49C41.134,31.01 42.05,30.631 43,30.36C43.47,30.22 44,30.12 44.43,30.01C44.86,29.9 45.43,29.85 45.9,29.8C46.896,29.688 47.898,29.641 48.9,29.66L48.9,29.51C47.895,29.279 46.87,29.149 45.84,29.12C44.799,29.075 43.756,29.146 42.73,29.33C42.21,29.43 41.73,29.55 41.19,29.7C40.682,29.859 40.184,30.049 39.7,30.27C39.206,30.487 38.731,30.744 38.28,31.04C38.05,31.19 37.83,31.35 37.61,31.52L37.28,31.78C37.17,31.88 37.08,31.96 36.95,32.1L35.43,33.69L37.66,33.34C38.401,33.218 39.149,33.142 39.9,33.11" style="fill:white;fill-rule:nonzero;"/>
            <path d="M26.1,66.92C25.93,67.22 25.77,67.52 25.62,67.83C25.47,68.14 25.33,68.46 25.2,68.83C25.14,68.95 25.09,69.07 25.04,69.2L24.77,69.94C24.77,70.07 24.69,70.19 24.64,70.32L24.52,70.7L24.31,71.48C24.31,71.61 24.24,71.74 24.2,71.87C24.13,71.47 24.05,71.07 23.99,70.66L23.99,70.25C23.93,69.71 23.86,69.15 23.85,68.59L23.85,66.72L23.71,66.87L23.46,67.19L23.34,67.36C23.201,67.559 23.087,67.774 23,68C23,68.13 22.95,68.26 22.93,68.4C22.925,68.467 22.925,68.533 22.93,68.6C22.925,68.667 22.925,68.733 22.93,68.8C22.936,69.009 22.966,69.217 23.02,69.42C23.056,69.559 23.099,69.696 23.15,69.83C23.193,69.971 23.246,70.108 23.31,70.24L23.4,70.45C23.6,70.86 23.83,71.26 24.06,71.68C24.14,71.82 24.22,71.96 24.29,72.11C24.36,72.26 24.36,72.25 24.4,72.33C24.44,72.41 24.54,72.62 24.61,72.78C24.68,72.94 24.68,72.93 24.71,73.01C24.74,73.09 24.76,73.17 24.79,73.26L24.85,73.51C24.89,73.684 24.91,73.862 24.91,74.04C24.92,74.357 24.869,74.672 24.76,74.97C24.651,75.268 24.76,75.06 24.71,75.1C24.673,75.186 24.629,75.27 24.58,75.35C24.43,75.602 24.233,75.823 24,76C23.635,76.257 23.205,76.406 22.76,76.43C22.499,76.441 22.237,76.42 21.98,76.37C21.402,76.237 20.866,75.962 20.42,75.57L20.23,75.41L20,75.21C19.599,74.788 19.262,74.31 19,73.79C18.94,73.65 18.87,73.5 18.81,73.35L18.64,72.9C18.53,72.61 18.43,72.31 18.3,72.02C18.179,71.736 18.043,71.459 17.89,71.19L17.65,70.78L17.37,70.4C17.085,70.022 16.748,69.685 16.37,69.4L15.98,69.14C15.677,68.953 15.346,68.814 15,68.73C14.765,68.695 14.525,68.695 14.29,68.73C14.929,68.676 15.571,68.816 16.13,69.13C16.272,69.204 16.409,69.287 16.54,69.38C16.934,69.664 17.287,70.001 17.59,70.38L17.89,70.76L18.15,71.16C18.242,71.293 18.322,71.433 18.39,71.58L18.62,72L18.71,72.22L19,72.88L19.09,73.1L19.18,73.31L19.38,73.73C19.596,74.135 19.861,74.511 20.17,74.85C20.273,74.964 20.383,75.071 20.5,75.17C20.719,75.369 20.965,75.537 21.23,75.67C21.491,75.805 21.771,75.899 22.06,75.95C22.481,76.025 22.916,75.977 23.31,75.81C23.436,75.757 23.554,75.687 23.66,75.6C23.765,75.52 23.86,75.425 23.94,75.32L24.05,75.16C24.11,75.041 24.16,74.917 24.2,74.79C24.232,74.659 24.249,74.525 24.25,74.39C24.255,74.323 24.255,74.257 24.25,74.19C24.256,74.123 24.256,74.057 24.25,73.99C24.232,73.85 24.199,73.713 24.15,73.58C24.076,73.375 23.989,73.174 23.89,72.98C23.82,72.84 23.74,72.71 23.66,72.58C23.58,72.45 23.39,72.12 23.25,71.89L22.83,71.18C22.49,71.135 22.155,71.058 21.83,70.95C21.645,70.882 21.464,70.802 21.29,70.71C21.123,70.622 20.962,70.522 20.81,70.41C20.67,70.301 20.536,70.184 20.41,70.06C20.289,69.939 20.179,69.809 20.08,69.67C19.981,69.54 19.891,69.403 19.81,69.26C19.731,69.119 19.664,68.972 19.61,68.82C19.527,68.604 19.467,68.379 19.43,68.15C19.334,67.588 19.407,67.01 19.64,66.49C19.699,66.376 19.766,66.265 19.84,66.16C19.996,65.961 20.189,65.794 20.41,65.67L20.7,65.53L20.98,65.42C21.477,65.26 22.004,65.219 22.52,65.3L22.52,62.07L22.33,61.89C22.334,61.93 22.334,61.97 22.33,62.01C22.22,62.25 22.13,62.5 22.04,62.74C21.95,62.98 21.86,63.24 21.78,63.5C21.7,63.76 21.69,63.75 21.65,63.88C21.54,64.26 21.44,64.65 21.33,65.05C21.25,64.52 21.13,63.98 21.07,63.43C21.01,62.88 20.94,62.33 20.93,61.77L20.93,60.6C19.978,59.839 18.941,59.191 17.84,58.67C17.6,58.55 17.35,58.45 17.1,58.35C16.723,58.207 16.339,58.084 15.95,57.98C15.69,57.908 15.426,57.851 15.16,57.81C14.626,57.712 14.083,57.668 13.54,57.68C13.001,57.672 12.463,57.736 11.94,57.87C11.425,57.979 10.944,58.212 10.54,58.55C10.239,58.825 10.01,59.168 9.87,59.55C9.87,59.67 9.78,59.8 9.74,59.93C9.611,60.46 9.577,61.008 9.64,61.55C9.696,62.106 9.806,62.655 9.97,63.19C10.297,64.268 10.74,65.307 11.29,66.29C10.794,65.534 10.363,64.738 10,63.91C9.89,63.65 9.79,63.38 9.69,63.12C9.549,62.714 9.432,62.3 9.34,61.88C9.34,61.74 9.28,61.6 9.26,61.45C9.216,61.165 9.193,60.878 9.19,60.59C9.186,60.295 9.213,60 9.27,59.71C9.389,59.183 9.641,58.694 10,58.29C10.048,58.229 10.102,58.172 10.16,58.12C10.267,58.01 10.384,57.909 10.51,57.82C10.755,57.642 11.02,57.495 11.3,57.38L11.72,57.23C12.005,57.141 12.296,57.071 12.59,57.02C12.877,56.967 13.168,56.934 13.46,56.92L13.9,56.92C14.341,56.91 14.782,56.93 15.22,56.98C15.512,57.012 15.803,57.059 16.09,57.12C16.954,57.291 17.796,57.559 18.6,57.92L19.21,58.2C19.61,58.4 20,58.61 20.38,58.84L20.94,59.19L21.03,58.3C21.03,58.06 21.09,57.82 21.13,57.58C21.17,57.34 21.21,57.1 21.26,56.86C21.33,56.47 21.42,56.07 21.52,55.68L20.83,55.3L20.15,54.93C19.73,54.7 19.31,54.5 18.9,54.31C18.489,54.122 18.068,53.955 17.64,53.81C16.293,53.339 14.877,53.096 13.45,53.09L13.35,53.09C12.725,53.093 12.102,53.156 11.49,53.28C11.169,53.349 10.852,53.436 10.54,53.54C10.35,53.6 10.16,53.68 9.97,53.76C9.794,53.831 9.624,53.915 9.46,54.01C8.996,54.262 8.563,54.567 8.17,54.92C7.993,55.077 7.827,55.243 7.67,55.42C7.523,55.593 7.383,55.763 7.25,55.93L7,56.16L7,56.25C6.93,56.36 6.86,56.47 6.8,56.58C6.74,56.69 6.68,56.79 6.63,56.9L6.49,57.19C6.43,57.31 6.38,57.44 6.33,57.56C6.191,57.935 6.081,58.319 6,58.71L6,58.88C5.9,59.397 5.85,59.923 5.85,60.45C5.845,60.523 5.845,60.597 5.85,60.67C5.854,61.174 5.907,61.676 6.01,62.17C6.162,62.958 6.421,63.722 6.78,64.44C6.86,64.59 6.94,64.74 7.03,64.89C7.188,65.166 7.362,65.433 7.55,65.69L7.93,66.17C8.09,66.35 8.24,66.53 8.38,66.71L8.79,67.25C9.06,67.6 9.3,67.96 9.52,68.31C9.838,68.81 10.129,69.328 10.39,69.86C11.043,71.26 11.578,72.711 11.99,74.2C12.21,74.9 12.41,75.56 12.64,76.2C12.75,76.52 12.88,76.82 13.01,77.12C13.14,77.42 13.29,77.71 13.46,78C14.215,79.281 15.295,80.34 16.59,81.07L17,81.3C17.278,81.459 17.566,81.603 17.86,81.73L18.3,81.92C18.604,82.05 18.914,82.163 19.23,82.26L19.7,82.41C20.194,82.55 20.694,82.664 21.2,82.75L21.72,82.84C22.627,82.971 23.543,83.034 24.46,83.03L26.02,83.03C26.02,82.84 25.95,82.65 25.92,82.46L25.83,81.88C25.83,81.64 25.76,81.39 25.73,81.14C25.476,79.187 25.359,77.219 25.38,75.25C25.38,74.617 25.4,73.977 25.44,73.33C25.544,71.202 25.792,69.084 26.18,66.99" style="fill:white;fill-rule:nonzero;"/>
            <path d="M32.16,61.55C32.293,61.383 32.433,61.213 32.58,61.04C32.727,60.867 32.887,60.697 33.06,60.53L33.33,60.27C33.603,60.01 33.903,59.75 34.23,59.49C34.45,59.31 34.68,59.14 34.92,58.97C35.16,58.8 35.68,58.45 36.11,58.2C36.54,57.95 36.99,57.69 37.49,57.44C39.351,56.487 41.4,55.961 43.49,55.9L44.7,55.9C45.285,55.946 45.866,56.03 46.44,56.15C46.985,56.262 47.523,56.409 48.05,56.59C49.336,57.018 50.571,57.588 51.73,58.29C52.66,58.84 53.45,59.39 54.09,59.85C54.338,60.028 54.627,60.141 54.93,60.18C55.212,60.21 55.498,60.169 55.76,60.06C56.049,59.936 56.311,59.756 56.53,59.53C56.786,59.268 57.005,58.972 57.18,58.65C57.248,58.534 57.308,58.414 57.36,58.29C57.483,58.024 57.587,57.75 57.67,57.47C57.823,57.025 57.933,56.566 58,56.1L58,55.58C58.024,55.217 58.024,54.853 58,54.49C57.949,53.904 57.842,53.325 57.68,52.76C57.567,52.351 57.427,51.95 57.26,51.56C56.889,50.69 56.416,49.867 55.85,49.11C55.537,48.69 55.203,48.286 54.85,47.9C54.249,47.271 53.554,46.738 52.79,46.32C52.398,46.106 51.994,45.916 51.58,45.75C51.149,45.585 50.708,45.444 50.26,45.33C49.534,45.159 48.795,45.049 48.05,45C47.552,44.951 47.051,44.928 46.55,44.93C45.771,44.935 44.993,44.988 44.22,45.09C43.49,45.23 42.72,45.41 41.92,45.64C41.387,45.793 40.847,45.973 40.3,46.18L39.48,46.5C38.93,46.73 38.38,47 37.84,47.29L37.28,47.6C35.371,48.654 33.675,50.054 32.28,51.73C31.98,52.11 31.7,52.5 31.44,52.9L31.07,53.66L30.81,54.19L30.59,54.73C30.52,54.91 30.45,55.09 30.37,55.27L30.16,55.82L29.81,56.92C29.65,57.48 29.5,58.04 29.37,58.6C29.28,58.97 29.2,59.35 29.13,59.72C29.06,60.09 29,60.48 28.95,60.86C28.95,61.05 28.9,61.24 28.87,61.43C28.84,61.62 28.8,62.1 28.77,62.43C28.74,62.76 28.69,63.43 28.67,63.85L28.67,64.62C28.67,64.49 28.73,64.36 28.75,64.24L28.8,64.02L28.8,63.7L28.87,63.45L28.93,63.2L29.04,62.78L29.2,62.19L29.52,61.19C29.619,60.851 29.736,60.517 29.87,60.19C30,59.86 30.13,59.54 30.25,59.19C30.37,58.84 30.53,58.55 30.68,58.24C30.83,57.93 30.98,57.61 31.12,57.24L30.79,58.24C30.67,58.57 30.56,58.89 30.47,59.24C30.38,59.59 30.28,59.9 30.19,60.24C30.1,60.58 30,61 30,61.3L29.79,62.3L29.64,63.3L29.57,63.8L29.52,64.31L29.52,65.62C29.52,65.45 29.61,65.27 29.65,65.09L29.7,64.88L29.76,64.67L29.9,64.25L30.18,63.43L30.53,62.62L30.7,62.22L30.9,61.83L31.31,61.05C31.46,60.8 31.61,60.55 31.77,60.3C31.93,60.05 32.09,59.81 32.24,59.56C32.18,59.69 32.13,59.83 32.07,59.96L31.89,60.35C31.78,60.62 31.66,60.88 31.56,61.15L31.28,61.95L31.15,62.35L31.04,62.76L30.83,63.58L30.69,64.41L30.62,64.82L30.62,65C30.62,64.84 30.71,64.66 30.77,64.47C30.83,64.28 30.85,64.21 30.9,64.07C30.95,63.93 31.05,63.66 31.15,63.44C31.461,62.761 31.851,62.12 32.31,61.53" style="fill:white;fill-rule:nonzero;"/>
            <path d="M75.32,23C74.574,22.96 73.826,22.96 73.08,23L71.97,23C71.6,23 71.22,23.07 70.86,23.12C69.391,23.294 67.946,23.63 66.55,24.12C68.01,23.97 69.46,23.87 70.9,23.86C72.338,23.853 73.775,23.946 75.2,24.14C76.614,24.331 78.011,24.628 79.38,25.03C79.86,25.17 80.38,25.33 80.82,25.5C79.99,25.56 79.15,25.62 78.32,25.73C77.438,25.836 76.564,25.993 75.7,26.2C75.27,26.3 74.84,26.42 74.42,26.56C73.993,26.687 73.581,26.857 73.19,27.07C74.041,26.872 74.908,26.748 75.78,26.7C76.65,26.63 77.51,26.58 78.38,26.58L80.99,26.58C81.86,26.58 82.73,26.58 83.6,26.65L85.95,26.74L83.95,25.51C83.59,25.3 83.27,25.14 82.95,24.97C82.63,24.8 82.27,24.65 81.95,24.51C81.249,24.234 80.535,23.994 79.81,23.79C78.345,23.372 76.84,23.107 75.32,23" style="fill:white;fill-rule:nonzero;"/>
            <path d="M21.69,54.87L21.69,55C21.694,54.974 21.694,54.946 21.69,54.92" style="fill:white;fill-rule:nonzero;"/>
            <path d="M84.23,30.27C83.742,30.051 83.241,29.86 82.73,29.7C82.23,29.55 81.73,29.43 81.2,29.33C80.171,29.146 79.125,29.076 78.08,29.12C77.05,29.149 76.025,29.28 75.02,29.51L75.02,29.66C76.022,29.641 77.024,29.688 78.02,29.8C78.52,29.847 79.01,29.917 79.49,30.01C79.98,30.12 80.49,30.22 80.93,30.36C81.861,30.628 82.759,30.997 83.61,31.46L83.67,31.46C83.003,31.438 82.335,31.455 81.67,31.51C80.852,31.581 80.04,31.708 79.24,31.89C78.84,31.98 78.44,32.09 78.05,32.21C77.645,32.326 77.248,32.467 76.86,32.63L73.93,33.85L77.08,34C77.881,34.04 78.671,34.205 79.42,34.49C80.19,34.788 80.925,35.17 81.61,35.63C82.319,36.094 82.988,36.616 83.61,37.19L83.99,37.56C83.556,37.43 83.115,37.323 82.67,37.24C82.095,37.129 81.514,37.049 80.93,37C80.36,36.95 79.79,36.93 79.23,36.93C78.098,36.938 76.968,37.032 75.85,37.21C74.738,37.389 73.642,37.653 72.57,38L71.37,38.39L72.62,38.46C73.652,38.496 74.668,38.719 75.62,39.12C76.09,39.316 76.534,39.572 76.94,39.88C77.356,40.188 77.715,40.567 78,41L78.14,40.92C77.865,40.46 77.509,40.054 77.09,39.72C76.684,39.373 76.238,39.078 75.76,38.84C75.156,38.554 74.522,38.336 73.87,38.19C74.56,38.05 75.26,37.94 75.96,37.86C77.045,37.727 78.138,37.683 79.23,37.73C79.78,37.73 80.32,37.79 80.86,37.86C81.396,37.918 81.927,38.011 82.45,38.14C83.49,38.376 84.498,38.739 85.45,39.22L87.3,40.15L86.09,38.47C85.025,37.004 83.736,35.715 82.27,34.65C81.558,34.143 80.798,33.707 80,33.35C80.59,33.25 81.19,33.19 81.79,33.14C82.543,33.1 83.297,33.1 84.05,33.14C84.797,33.172 85.542,33.248 86.28,33.37L88.51,33.72L87,32.1L86.66,31.78L86.34,31.52C86.12,31.35 85.89,31.19 85.67,31.04C85.218,30.747 84.743,30.489 84.25,30.27" style="fill:white;fill-rule:nonzero;"/>
            <path d="M67,19C68.207,18.897 69.42,18.873 70.63,18.93C71.833,18.984 73.031,19.134 74.21,19.38C74.6,19.46 74.97,19.56 75.35,19.66C74.537,19.758 73.732,19.912 72.94,20.12C72.147,20.33 71.371,20.601 70.62,20.93C69.864,21.25 69.154,21.671 68.51,22.18L68.57,22.27C69.305,21.971 70.06,21.724 70.83,21.53C71.59,21.33 72.37,21.17 73.14,21.04C73.53,20.98 73.91,20.91 74.3,20.87C74.69,20.83 75.08,20.78 75.47,20.73L76.64,20.62L77.82,20.53L79.82,20.38L78,19.6C77.699,19.474 77.392,19.364 77.08,19.27C76.78,19.17 76.48,19.08 76.18,19.01C75.57,18.85 74.96,18.73 74.34,18.63C73.116,18.437 71.879,18.344 70.64,18.35C69.405,18.356 68.171,18.453 66.95,18.64C65.738,18.826 64.539,19.09 63.36,19.43L63.36,19.53C64.563,19.288 65.778,19.111 67,19" style="fill:white;fill-rule:nonzero;"/>
            <path d="M92,63.7C91.805,63.322 91.585,62.958 91.34,62.61C90.852,61.931 90.285,61.313 89.65,60.77C87.57,59.14 85.047,58.174 82.41,58L81.72,57.94L79.6,57.94C79.413,57.93 79.227,57.93 79.04,57.94L78.28,57.94L78,58L77.28,58L77,58.07L76.67,58.15L76.41,58.23L76.18,58.3L75.99,58.36L75.76,58.45L75.59,58.51L75.36,58.6L75.21,58.67L74.98,58.77C72.41,59.97 70.98,61.9 69.46,63.13C68.953,63.694 68.11,63.82 67.46,63.43L67.28,63.29L67.23,63.29L67.09,63.16C67.031,63.101 66.978,63.038 66.93,62.97C66.882,62.914 66.838,62.853 66.8,62.79L66.68,62.59L66.56,62.36L66.47,62.17L66.47,62.12C66.47,62.07 66.35,61.81 66.29,61.67C66.23,61.53 66.29,61.67 66.29,61.62L66.23,61.45L66,61.16L66,61.02C66,60.98 66,61.02 66,61.02L66,60.79C65.565,61.785 65.353,62.864 65.38,63.95C65.387,64.627 65.488,65.301 65.68,65.95L65.48,65.86L65.26,65.77C65.119,65.446 65.002,65.112 64.91,64.77C64.82,64.442 64.753,64.108 64.71,63.77C64.66,63.439 64.63,63.105 64.62,62.77C64.604,62.249 64.624,61.728 64.68,61.21C64.68,61.01 64.68,60.82 64.76,60.64C64.84,60.46 64.85,60.1 64.9,59.86C64.95,59.62 64.97,59.54 65.01,59.4C65.116,58.965 65.25,58.538 65.41,58.12L65.41,57.63C65.41,57.31 65.41,57 65.35,56.7C65.314,56.014 65.314,55.326 65.35,54.64C65.42,54.27 65.51,53.9 65.61,53.53C65.71,53.16 65.84,52.8 65.98,52.44C66.06,52.25 66.13,52.06 66.22,51.87C66.31,51.68 66.39,51.5 66.48,51.31C66.57,51.12 66.77,50.76 66.93,50.49L67.08,50.22C67.29,49.86 67.54,49.53 67.77,49.22C67.89,49.05 68.02,48.88 68.15,48.72C68.28,48.56 68.4,48.39 68.53,48.22C68.25,48.53 67.95,48.83 67.68,49.14C67.41,49.45 67.27,49.63 67.08,49.88C67.011,49.959 66.948,50.043 66.89,50.13L66.7,50.39L66.52,50.65C66.4,50.82 66.28,51 66.17,51.18L66.17,51.25C66.172,51.277 66.172,51.303 66.17,51.33C65.98,51.64 65.81,51.96 65.63,52.33C65.45,52.7 65.44,52.74 65.34,52.95C65.24,53.16 65.16,53.38 65.08,53.6L65.14,52.82C65.14,52.48 65.21,52.14 65.25,51.82L65.4,50.82L65.49,50.29C65.583,49.79 65.683,49.29 65.79,48.79L65.49,49.59L65.21,50.4L65.15,50.58L65.09,50.75L64.94,51.25C64.79,51.74 64.65,52.25 64.52,52.75C64.39,53.25 64.25,53.9 64.15,54.48L64.15,54C64.145,53.907 64.145,53.813 64.15,53.72L64.15,52.4C64.15,52.14 64.15,51.88 64.21,51.62C64.27,51.36 64.21,51.23 64.29,51.03C64.37,50.83 64.35,50.64 64.39,50.45L64.45,50.08C64.45,50.21 64.35,50.34 64.29,50.47C64.23,50.6 64.15,50.83 64.09,51.01C64.02,51.19 63.959,51.373 63.91,51.56C63.83,51.81 63.75,52.07 63.68,52.32C63.61,52.57 63.55,52.84 63.49,53.1C63.43,53.36 63.38,53.58 63.34,53.82C63.3,54.06 63.25,54.3 63.21,54.55L63.21,52.04C63.013,52.543 62.846,53.057 62.71,53.58C62.71,53.76 62.62,53.94 62.58,54.11C62.54,54.28 62.58,54.25 62.58,54.31L62.58,54.52L62.3,51.7L62.01,54.52C62.01,54.38 62.01,54.25 61.92,54.11C61.83,53.97 61.84,53.76 61.79,53.58C61.654,53.057 61.487,52.543 61.29,52.04L61.29,54.55C61.29,54.3 61.21,54.06 61.16,53.82C61.11,53.58 61.07,53.34 61.01,53.1C60.95,52.86 60.89,52.58 60.82,52.32C60.75,52.06 60.68,51.81 60.6,51.56C60.52,51.31 60,51.16 60,51C60,50.84 59.87,50.64 59.8,50.46C59.73,50.28 59.69,50.2 59.64,50.07C59.64,50.19 59.64,50.31 59.71,50.44L59.8,51.02C59.8,51.22 59.86,51.42 59.88,51.61C59.9,51.8 59.88,52.13 59.94,52.39C60,52.65 59.94,52.91 59.94,53.17L59.94,54C59.935,54.09 59.935,54.18 59.94,54.27C59.84,53.69 59.71,53.11 59.57,52.54C59.43,51.97 59.3,51.54 59.15,51.04L59,50.54L58.88,50.19C58.7,49.65 58.51,49.11 58.3,48.58C58.407,49.08 58.507,49.58 58.6,50.08L58.69,50.61L58.84,51.61C58.84,51.95 58.92,52.29 58.95,52.61L59.01,53.39C58.93,53.17 58.84,52.96 58.75,52.74C58.66,52.52 58.56,52.32 58.46,52.12C58.36,51.92 58.11,51.47 57.92,51.12C57.901,51.095 57.884,51.068 57.87,51.04L57.87,50.97C57.76,50.79 57.64,50.61 57.52,50.44L57.34,50.18L57.11,50C57.052,49.913 56.989,49.829 56.92,49.75C56.73,49.5 56.52,49.26 56.33,49.01C56.14,48.76 55.99,48.64 55.81,48.46L55.47,48.09L55.76,48.47L56.05,48.84L56.23,49.09C56.46,49.44 56.71,49.77 56.92,50.09L57.07,50.36C57.23,50.63 57.39,50.9 57.52,51.18C57.65,51.46 57.7,51.55 57.78,51.74C57.86,51.93 57.95,52.12 58.02,52.31C58.16,52.67 58.28,53.03 58.39,53.4C58.5,53.77 58.58,54.14 58.65,54.51C58.691,55.196 58.691,55.884 58.65,56.57C58.65,56.87 58.63,57.18 58.59,57.5C58.59,57.66 58.59,57.82 58.54,57.99C58.7,58.408 58.834,58.835 58.94,59.27C58.94,59.41 59.01,59.57 59.05,59.73C59.09,59.89 59.15,60.23 59.19,60.51C59.23,60.79 59.24,60.88 59.27,61.08C59.326,61.598 59.346,62.119 59.33,62.64C59.32,62.975 59.29,63.309 59.24,63.64C59.197,63.978 59.13,64.312 59.04,64.64C58.948,64.982 58.831,65.316 58.69,65.64L58.47,65.73L58.27,65.82C58.461,65.17 58.565,64.497 58.58,63.82C58.624,62.72 58.426,61.625 58,60.61L58,60.71C57.994,60.733 57.994,60.757 58,60.78C58.006,60.803 58,60.78 58,60.78C58.001,60.797 58.001,60.813 58,60.83C57.999,60.847 58,60.83 58,60.89L58,60.95C57.994,60.993 57.994,61.037 58,61.08L58,61.31C58,61.42 57.92,61.53 57.87,61.64L57.87,61.7C57.866,61.733 57.866,61.767 57.87,61.8C57.875,61.836 57.875,61.874 57.87,61.91L57.76,62.13L57.7,62.24L57.7,62.29L57.64,62.39C57.569,62.497 57.492,62.601 57.41,62.7L57.34,62.79L57.26,62.87C57.215,62.916 57.165,62.956 57.11,62.99L56.74,62.99C56.146,63.13 55.521,62.952 55.09,62.52C53.33,61.12 51.74,58.8 48.41,57.7C48.12,57.61 47.82,57.52 47.5,57.45L47.41,57.45C47.12,57.38 46.81,57.32 46.5,57.27L42.1,57.27L41.44,57.33C38.812,57.516 36.299,58.488 34.23,60.12C33.595,60.663 33.028,61.281 32.54,61.96C32.295,62.308 32.075,62.672 31.88,63.05C31.711,63.373 31.564,63.707 31.44,64.05C31.156,64.812 31.007,65.617 31,66.43C31.123,66.088 31.267,65.755 31.43,65.43C31.62,65.058 31.838,64.7 32.08,64.36C32.19,64.2 32.3,64.06 32.41,63.92C32.52,63.78 32.63,63.66 32.74,63.55C33.043,63.244 33.378,62.973 33.74,62.74C34.015,62.557 34.31,62.406 34.62,62.29C34.756,62.235 34.897,62.192 35.04,62.16C34.774,62.505 34.54,62.873 34.34,63.26C34.133,63.663 33.956,64.081 33.81,64.51C33.616,65.102 33.479,65.712 33.4,66.33C32.95,69.78 34.17,73.7 37.31,75.58C37.726,75.826 38.173,76.014 38.64,76.14C38.87,76.209 39.103,76.262 39.34,76.3C39.703,76.367 40.071,76.404 40.44,76.41L41.56,76.41C41.81,76.41 42.07,76.41 42.32,76.32C42.57,76.23 43.07,76.19 43.44,76.1L44.17,75.91L44.88,75.7L45.56,75.46C46.23,75.21 46.86,74.95 47.4,74.69L47.92,74.45L48.16,74.33C48.089,73.996 48.116,73.648 48.24,73.33C48.293,73.174 48.367,73.026 48.46,72.89C48.504,72.813 48.554,72.739 48.61,72.67C48.732,72.51 48.866,72.36 49.01,72.22C49.472,71.818 49.987,71.482 50.54,71.22L50.94,71.02C51.34,70.84 51.72,70.68 52.08,70.54L52.61,70.34L53.11,70.17C53.115,69.937 53.145,69.706 53.2,69.48L53.26,69.27C53.362,68.982 53.514,68.714 53.71,68.48C53.848,68.302 54.013,68.147 54.2,68.02L54.52,67.82C54.835,67.65 55.171,67.522 55.52,67.44L55.52,67.32C55.516,67.283 55.516,67.247 55.52,67.21C55.528,67.127 55.56,67.047 55.61,66.98C55.641,66.935 55.674,66.891 55.71,66.85C55.794,66.774 55.889,66.71 55.99,66.66C56.033,66.631 56.081,66.607 56.13,66.59L57.89,66.59L57.66,66.59C57.5,66.59 57.34,66.66 57.18,66.71L56.83,66.81L56.66,66.87L56.5,66.94C56.392,66.983 56.288,67.037 56.19,67.1C56.1,67.154 56.019,67.221 55.95,67.3C55.918,67.332 55.891,67.369 55.87,67.41L55.87,67.53C55.865,67.563 55.865,67.597 55.87,67.63C55.863,67.66 55.863,67.69 55.87,67.72L56.05,67.95L55.75,68.04L55.39,68.17C55.149,68.252 54.918,68.36 54.7,68.49L54.4,68.7C54.213,68.847 54.054,69.027 53.93,69.23C53.803,69.432 53.714,69.656 53.67,69.89C53.639,70.008 53.619,70.128 53.61,70.25L54,70.15C54.26,70.08 54.5,70.03 54.72,69.99C54.94,69.95 55.15,69.91 55.34,69.89L56.09,69.81L56.97,69.81L56.38,69.94L55.82,70.07L55.21,70.23C54.62,70.39 54.09,70.56 53.61,70.73L53.3,70.85L53.01,70.96C52.516,71.157 52.038,71.391 51.58,71.66C51.083,71.949 50.635,72.313 50.25,72.74C50.154,72.853 50.067,72.973 49.99,73.1C49.95,73.158 49.913,73.218 49.88,73.28C49.795,73.447 49.724,73.621 49.67,73.8C49.627,73.967 49.604,74.138 49.6,74.31C49.58,74.466 49.58,74.624 49.6,74.78C49.646,75.056 49.737,75.323 49.87,75.57C49.94,75.718 50.024,75.858 50.12,75.99L50.19,76.1L50.36,76.29L50.12,76.29C49.9,76.243 49.683,76.183 49.47,76.11C49.339,76.063 49.212,76.006 49.09,75.94C48.78,76.07 48.48,76.22 48.19,76.37C47.272,76.841 46.409,77.415 45.62,78.08C45.06,78.544 44.541,79.056 44.07,79.61C43.563,80.198 43.104,80.827 42.7,81.49C41.667,83.133 40.764,84.855 40,86.64C39.88,86.94 39.77,87.23 39.67,87.53C39.61,87.67 39.56,87.82 39.51,87.96C39.41,88.25 39.32,88.54 39.23,88.82C39.01,89.53 38.83,90.22 38.68,90.88C38.62,91.14 38.57,91.4 38.53,91.66C38.49,91.92 38.45,92.17 38.41,92.41C38.33,92.98 38.286,93.554 38.28,94.13C38.259,94.44 38.259,94.75 38.28,95.06L38.28,95.35C38.315,95.706 38.386,96.058 38.49,96.4C38.509,96.481 38.532,96.561 38.56,96.64C38.61,96.787 38.67,96.931 38.74,97.07C38.889,97.392 39.096,97.683 39.35,97.93C39.445,98.019 39.546,98.102 39.65,98.18L39.82,98.28C40.06,98.41 40.32,98.498 40.59,98.54C40.736,98.551 40.884,98.551 41.03,98.54C41.795,98.529 42.547,98.344 43.23,98C43.828,98.548 44.538,98.961 45.31,99.21L45.99,99.46C47.096,99.817 48.23,100.081 49.38,100.25L50.66,100.42C52.258,100.589 53.864,100.666 55.47,100.65C54.793,100.727 54.124,100.861 53.47,101.05L52.98,101.22L52.48,101.41C52.32,101.49 52.16,101.56 52,101.65C51.694,101.815 51.408,102.017 51.15,102.25C50.969,102.42 50.814,102.615 50.69,102.83C50.507,103.132 50.407,103.477 50.4,103.83C50.376,104.016 50.376,104.204 50.4,104.39C50.453,104.678 50.569,104.951 50.74,105.19C50.864,105.361 51.004,105.518 51.16,105.66C51.327,105.816 51.508,105.956 51.7,106.08C52.144,106.357 52.612,106.591 53.1,106.78C53.36,106.88 53.64,106.97 53.92,107.06C59.129,108.473 64.621,108.473 69.83,107.06C70.11,106.97 70.39,106.88 70.65,106.78C71.138,106.591 71.606,106.357 72.05,106.08C72.242,105.956 72.423,105.816 72.59,105.66C72.746,105.518 72.886,105.361 73.01,105.19C73.181,104.951 73.297,104.678 73.35,104.39C73.374,104.204 73.374,104.016 73.35,103.83C73.343,103.477 73.243,103.132 73.06,102.83C72.936,102.615 72.781,102.42 72.6,102.25C72.342,102.017 72.056,101.815 71.75,101.65C71.59,101.56 71.43,101.49 71.27,101.41L70.77,101.22L70.28,101.05C69.626,100.86 68.957,100.726 68.28,100.65C69.886,100.666 71.492,100.589 73.09,100.42L74.37,100.25C75.52,100.081 76.654,99.817 77.76,99.46L78.44,99.21C79.248,98.974 79.993,98.561 80.62,98C81.282,98.334 82.009,98.519 82.75,98.54C82.896,98.551 83.044,98.551 83.19,98.54C83.46,98.498 83.72,98.41 83.96,98.28L84.13,98.18C84.236,98.105 84.337,98.021 84.43,97.93C84.687,97.686 84.894,97.394 85.04,97.07C85.11,96.931 85.17,96.787 85.22,96.64C85.22,96.56 85.22,96.48 85.3,96.4C85.396,96.056 85.463,95.705 85.5,95.35L85.5,95.06C85.521,94.75 85.521,94.44 85.5,94.13C85.494,93.554 85.45,92.98 85.37,92.41C85.37,92.163 85.33,91.913 85.25,91.66C85.17,91.407 85.12,91.147 85.1,90.88C84.95,90.22 84.77,89.53 84.55,88.82C84.46,88.54 84.37,88.25 84.27,87.96C84.27,87.82 84.17,87.67 84.11,87.53C84.01,87.23 83.9,86.94 83.78,86.64C83.008,84.708 82.074,82.845 80.99,81.07C80.586,80.407 80.127,79.778 79.62,79.19C79.152,78.633 78.633,78.121 78.07,77.66C77.297,77.016 76.455,76.459 75.56,76C75.27,75.85 74.97,75.7 74.67,75.57C74.544,75.634 74.413,75.691 74.28,75.74C74.067,75.813 73.85,75.873 73.63,75.92L73.4,75.92L73.56,75.73L73.63,75.62C73.726,75.486 73.813,75.346 73.89,75.2C74.015,74.951 74.103,74.685 74.15,74.41C74.17,74.254 74.17,74.096 74.15,73.94C74.146,73.768 74.123,73.597 74.08,73.43C74.026,73.251 73.955,73.077 73.87,72.91L73.77,72.73C73.686,72.605 73.596,72.485 73.5,72.37C73.115,71.943 72.667,71.579 72.17,71.29C71.712,71.021 71.234,70.787 70.74,70.59L70.45,70.48L70.14,70.36C69.66,70.19 69.14,70.02 68.54,69.86L68,69.7L67.44,69.57L66.85,69.44L67.73,69.44L68.48,69.52C68.67,69.52 68.88,69.58 69.1,69.62C69.32,69.66 69.56,69.71 69.82,69.78L70.21,69.88C70.201,69.758 70.181,69.638 70.15,69.52C70.106,69.286 70.017,69.062 69.89,68.86C69.766,68.657 69.607,68.477 69.42,68.33L69.12,68.12C68.904,67.991 68.677,67.884 68.44,67.8L68,67.65L67.7,67.56L67.88,67.33C67.887,67.3 67.887,67.27 67.88,67.24C67.885,67.207 67.885,67.173 67.88,67.14L67.88,67.02C67.863,66.977 67.835,66.94 67.8,66.91C67.731,66.831 67.65,66.764 67.56,66.71C67.462,66.647 67.358,66.593 67.25,66.55L67.09,66.48L67,66.42L66.65,66.32C66.5,66.32 66.33,66.24 66.17,66.2L65.94,66.2L67.7,66.2C67.749,66.217 67.797,66.241 67.84,66.27C67.941,66.32 68.036,66.384 68.12,66.46C68.159,66.499 68.192,66.543 68.22,66.59C68.27,66.657 68.302,66.737 68.31,66.82C68.314,66.857 68.314,66.893 68.31,66.93L68.31,67.05C68.659,67.132 68.995,67.26 69.31,67.43L69.63,67.63C69.817,67.757 69.982,67.912 70.12,68.09C70.319,68.322 70.472,68.59 70.57,68.88L70.63,69.09C70.685,69.316 70.715,69.547 70.72,69.78L71.22,69.95L71.75,70.15C72.11,70.29 72.49,70.45 72.89,70.63L73.29,70.83C73.843,71.092 74.358,71.428 74.82,71.83C74.964,71.97 75.098,72.12 75.22,72.28C75.276,72.349 75.326,72.423 75.37,72.5C75.462,72.638 75.539,72.786 75.6,72.94C75.721,73.259 75.745,73.607 75.67,73.94L75.91,74.06L76.43,74.3C76.97,74.56 77.6,74.82 78.27,75.07L78.95,75.31L79.66,75.52L80.39,75.71C80.76,75.8 81.14,75.87 81.51,75.93L82.27,76.02L83.39,76.02C83.759,76.014 84.127,75.977 84.49,75.91C84.727,75.872 84.96,75.819 85.19,75.75C85.657,75.624 86.104,75.436 86.52,75.19C89.66,73.31 90.88,69.39 90.43,65.94C90.351,65.322 90.214,64.712 90.02,64.12C89.874,63.691 89.697,63.273 89.49,62.87C89.29,62.483 89.056,62.115 88.79,61.77C88.933,61.802 89.074,61.845 89.21,61.9C89.52,62.016 89.815,62.167 90.09,62.35C90.452,62.583 90.787,62.854 91.09,63.16C91.2,63.27 91.31,63.4 91.42,63.53C91.53,63.66 91.64,63.81 91.75,63.97C91.996,64.308 92.213,64.666 92.4,65.04C92.563,65.365 92.707,65.698 92.83,66.04C92.755,65.443 92.604,64.858 92.38,64.3C92.256,63.957 92.109,63.623 91.94,63.3M52.33,68.36C50.221,68.991 48.073,69.485 45.9,69.84C45.55,69.9 45.21,69.94 44.9,69.98L44.42,69.98C43.96,69.98 43.52,70.06 43.12,70.08L41.32,70.08C41.025,70.061 40.731,70.025 40.44,69.97L39.94,69.87L39.49,69.74C39.294,69.676 39.103,69.596 38.92,69.5C38.812,69.451 38.709,69.395 38.61,69.33C38.515,69.275 38.424,69.211 38.34,69.14L38.22,69.05C37.959,68.827 37.747,68.551 37.6,68.24C37.556,68.143 37.519,68.043 37.49,67.94L37.49,67.76C37.477,67.624 37.477,67.486 37.49,67.35C37.479,67.224 37.479,67.096 37.49,66.97C37.603,67.118 37.731,67.256 37.87,67.38C38.023,67.531 38.187,67.672 38.36,67.8L38.69,68.04L39.08,68.28L39.53,68.52C39.69,68.6 39.86,68.68 40.04,68.75C40.545,68.954 41.067,69.111 41.6,69.22C41.83,69.27 42.08,69.32 42.34,69.35C43.059,69.45 43.785,69.487 44.51,69.46L45.21,69.46C47.105,69.359 48.99,69.119 50.85,68.74L51.85,68.5L52.35,68.37L52.76,68.26C52.76,68.26 52.65,68.26 52.31,68.38M46.11,63.67C46.134,63.765 46.171,63.855 46.22,63.94C46.265,64.025 46.319,64.106 46.38,64.18L46.48,64.29C46.549,64.355 46.623,64.415 46.7,64.47C46.945,64.634 47.235,64.721 47.53,64.72C47.683,64.723 47.835,64.699 47.98,64.65L48.19,64.57L48.38,64.46C48.38,66.106 47.026,67.46 45.38,67.46C44.673,67.461 43.987,67.217 43.44,66.77C43.218,66.578 43.02,66.36 42.85,66.12C42.52,65.614 42.34,65.024 42.33,64.42L42.33,64.11C42.378,63.612 42.55,63.134 42.83,62.72C42.942,62.561 43.066,62.411 43.2,62.27L43.42,62.07C43.967,61.623 44.653,61.379 45.36,61.38C45.496,61.37 45.634,61.37 45.77,61.38C46.038,61.415 46.301,61.485 46.55,61.59C46.672,61.64 46.789,61.7 46.9,61.77C46.776,61.829 46.661,61.907 46.56,62C46.298,62.229 46.128,62.545 46.08,62.89C46.076,62.963 46.076,63.037 46.08,63.11C46.077,63.26 46.101,63.409 46.15,63.55M54.07,66.26C53.72,66.318 53.365,66.349 53.01,66.35C52.447,66.365 51.884,66.322 51.33,66.22L51.69,65.98L52.06,65.74L50.49,63.74L48.93,61.74C48.738,61.664 48.541,61.6 48.34,61.55C47.732,61.369 47.104,61.261 46.47,61.23L45.39,61.23C45.129,61.246 44.868,61.276 44.61,61.32L44.2,61.4C43.773,61.495 43.355,61.625 42.95,61.79C41.203,62.545 39.729,63.82 38.73,65.44L38.89,65.62L39.16,65.89C39.368,66.093 39.589,66.284 39.82,66.46L40.11,66.67C40.32,66.828 40.541,66.972 40.77,67.1C41.021,67.256 41.282,67.396 41.55,67.52C42.001,67.727 42.47,67.895 42.95,68.02C42.633,68.036 42.316,68.03 42,68C41.808,67.972 41.617,67.932 41.43,67.88C41.161,67.81 40.898,67.723 40.64,67.62C40.173,67.439 39.725,67.215 39.3,66.95C39.11,66.83 38.92,66.7 38.76,66.58C38.6,66.46 38.44,66.34 38.3,66.22C37.993,65.975 37.712,65.701 37.46,65.4C37.46,65.28 37.56,65.17 37.62,65.05C37.779,64.708 37.956,64.374 38.15,64.05C38.437,63.58 38.772,63.141 39.15,62.74C39.839,62.016 40.656,61.426 41.56,61L42.07,60.79L42.58,60.62L43.09,60.47L43.6,60.36C43.94,60.3 44.28,60.26 44.6,60.23L45.81,60.23C47.128,60.254 48.435,60.469 49.69,60.87C49.85,61.11 50.02,61.34 50.18,61.56L50.68,62.2L51.17,62.78C52.094,63.834 53.149,64.765 54.31,65.55C54.51,65.69 54.68,65.79 54.82,65.87C54.942,65.949 55.069,66.019 55.2,66.08C54.821,66.204 54.433,66.298 54.04,66.36M52.34,75.19C52.417,75.004 52.545,74.845 52.71,74.73C52.824,74.641 52.944,74.561 53.07,74.49L53.3,74.37L53.55,74.26C54.098,74.052 54.685,73.964 55.27,74L55.52,74C55.881,74.033 56.239,74.097 56.59,74.19C56.817,74.241 57.04,74.305 57.26,74.38L57.59,74.5C57.8,74.57 58,74.66 58.19,74.74C58.532,74.882 58.866,75.042 59.19,75.22C59.46,75.36 59.65,75.48 59.76,75.55C59.797,75.564 59.83,75.584 59.86,75.61C59.84,75.616 59.82,75.616 59.8,75.61L59.54,75.51L59.15,75.38C58.398,75.138 57.602,75.07 56.82,75.18C56.604,75.214 56.393,75.271 56.19,75.35C55.982,75.442 55.784,75.556 55.6,75.69C55.442,75.806 55.27,75.903 55.09,75.98C54.974,76.03 54.853,76.071 54.73,76.1L54.36,76.18L53.99,76.18C53.556,76.2 53.124,76.103 52.74,75.9C52.668,75.862 52.601,75.815 52.54,75.76C52.487,75.708 52.443,75.647 52.41,75.58C52.38,75.52 52.359,75.456 52.35,75.39C52.336,75.321 52.336,75.249 52.35,75.18M73.89,95.3L74.61,95.22C75.3,95.15 75.89,95.1 76.42,95.08L80.08,95.08C80.154,95.001 80.235,94.927 80.32,94.86C80.441,94.763 80.576,94.686 80.72,94.63L80.85,94.58C80.944,94.55 81.041,94.529 81.14,94.52C81.25,94.505 81.36,94.505 81.47,94.52L81.64,94.52C81.765,94.541 81.885,94.589 81.99,94.66C82.15,94.771 82.289,94.91 82.4,95.07C82.55,95.285 82.668,95.521 82.75,95.77C82.822,95.972 82.856,96.186 82.85,96.4C82.861,96.501 82.824,96.601 82.75,96.67C82.671,96.732 82.587,96.789 82.5,96.84L82.4,96.84C82.294,96.857 82.186,96.857 82.08,96.84L81.84,96.77L81.69,96.77L81.31,96.64L81.08,96.56L80.48,96.41C80.25,96.41 79.99,96.32 79.69,96.28C79.39,96.24 79.07,96.21 78.69,96.19L77.82,96.19C75.708,96.194 73.6,96.382 71.52,96.75C66.68,97.55 65.38,97.93 61.85,97.93C58.32,97.93 57,97.53 52.2,96.73C50.12,96.362 48.012,96.175 45.9,96.17L45,96.17C44.63,96.17 44.31,96.17 44,96.26C43.69,96.35 43.44,96.34 43.21,96.39L42.61,96.54L42.38,96.62L42,96.75L41.85,96.75L41.61,96.82C41.504,96.837 41.396,96.837 41.29,96.82L41.18,96.82C41.096,96.769 41.016,96.712 40.94,96.65C40.866,96.581 40.829,96.481 40.84,96.38C40.834,96.166 40.868,95.952 40.94,95.75C41.018,95.499 41.136,95.263 41.29,95.05C41.401,94.89 41.54,94.751 41.7,94.64C41.803,94.571 41.918,94.523 42.04,94.5L42.22,94.5C42.33,94.485 42.44,94.485 42.55,94.5C42.649,94.509 42.746,94.53 42.84,94.56L42.97,94.61C43.114,94.666 43.249,94.743 43.37,94.84C43.455,94.907 43.536,94.981 43.61,95.06L47.27,95.06C47.8,95.06 48.39,95.13 49.08,95.2L49.8,95.28C50.94,95.41 52.33,95.62 54.12,95.92C55.21,96.1 56.21,96.24 57.12,96.35L58.43,96.48L59.61,96.57L59.85,96.57C60.6,96.62 61.26,96.64 61.85,96.64C62.44,96.64 63.06,96.64 63.85,96.57L64.09,96.57L65.27,96.48L66.58,96.35C67.5,96.24 68.5,96.1 69.58,95.92C71.37,95.62 72.76,95.41 73.9,95.28M66.26,74.54C66.698,74.373 67.15,74.242 67.61,74.15C67.848,74.099 68.088,74.062 68.33,74.04L68.58,74.04C69.161,73.999 69.743,74.08 70.29,74.28L70.54,74.39L70.77,74.51C70.896,74.581 71.016,74.661 71.13,74.75C71.295,74.865 71.423,75.024 71.5,75.21C71.514,75.279 71.514,75.351 71.5,75.42C71.491,75.486 71.47,75.55 71.44,75.61C71.407,75.677 71.363,75.738 71.31,75.79C71.251,75.847 71.184,75.894 71.11,75.93C70.729,76.132 70.301,76.229 69.87,76.21L69.49,76.21L69.12,76.13C69.01,76.095 68.903,76.052 68.8,76C68.62,75.923 68.448,75.826 68.29,75.71C68.019,75.51 67.714,75.361 67.39,75.27C66.974,75.156 66.54,75.115 66.11,75.15C65.422,75.203 64.747,75.365 64.11,75.63L64.05,75.63L64.11,75.63L64.34,75.49L64.59,75.35C65.129,75.051 65.691,74.793 66.27,74.58M70.46,66.49L70.18,66.49C69.548,66.445 68.923,66.324 68.32,66.13C67.717,65.936 68.45,66.07 68.7,65.92C68.95,65.77 69.01,65.74 69.21,65.6C70.37,64.817 71.422,63.886 72.34,62.83L72.84,62.25C73,62.05 73.17,61.83 73.33,61.61C73.49,61.39 73.67,61.16 73.83,60.92C75.085,60.519 76.392,60.304 77.71,60.28L78.42,60.28C78.587,60.27 78.753,60.27 78.92,60.28C79.25,60.28 79.59,60.35 79.92,60.41L80.43,60.52L80.94,60.67L81.45,60.84L82,61C82.257,61.119 82.508,61.253 82.75,61.4C83.348,61.756 83.893,62.194 84.37,62.7C84.742,63.106 85.076,63.545 85.37,64.01C85.564,64.334 85.741,64.668 85.9,65.01C85.9,65.13 86.01,65.24 86.06,65.36C85.824,65.633 85.566,65.887 85.29,66.12C84.769,66.572 84.195,66.958 83.58,67.27C83.286,67.42 82.982,67.55 82.67,67.66C82.129,67.838 81.568,67.952 81,68C81.339,67.92 81.673,67.82 82,67.7C82.143,67.645 82.284,67.581 82.42,67.51C83.019,67.24 83.586,66.905 84.11,66.51L84.57,66.12C84.781,65.928 84.982,65.725 85.17,65.51C84.343,64.198 83.215,63.101 81.88,62.31C81.707,62.098 81.478,61.939 81.22,61.85C81.06,61.79 80.891,61.759 80.72,61.76L80.16,61.58C79.97,61.58 79.79,61.48 79.61,61.45L79.33,61.45C79.072,61.403 78.812,61.369 78.55,61.35C77.814,61.298 77.074,61.345 76.35,61.49L76.01,61.56L75.86,61.56L75.59,61.64C75.39,61.692 75.193,61.756 75,61.83L73.44,63.83L71.87,65.83L72.2,66.05L72.52,66.26C72.26,66.26 71.93,66.37 71.52,66.41C71.357,66.42 71.193,66.42 71.03,66.41L70.49,66.41M79.3,63.61C79.328,63.705 79.368,63.796 79.42,63.88C79.461,63.967 79.515,64.048 79.58,64.12L79.67,64.23L79.9,64.41C80.145,64.576 80.434,64.663 80.73,64.66C80.883,64.663 81.035,64.639 81.18,64.59L81.38,64.51C81.447,64.479 81.51,64.442 81.57,64.4C81.63,64.358 81.57,64.4 81.57,64.4C81.56,65.004 81.38,65.594 81.05,66.1C80.88,66.34 80.682,66.558 80.46,66.75C79.338,67.666 77.712,67.666 76.59,66.75C76.365,66.56 76.167,66.342 76,66.1C75.67,65.594 75.49,65.004 75.48,64.4L75.48,64.09C75.528,63.592 75.7,63.114 75.98,62.7C76.092,62.541 76.216,62.391 76.35,62.25L76.57,62.05C77.112,61.601 77.796,61.356 78.5,61.36C78.64,61.35 78.78,61.35 78.92,61.36C79.185,61.393 79.445,61.464 79.69,61.57C79.815,61.62 79.935,61.68 80.05,61.75C79.926,61.809 79.811,61.887 79.71,61.98C79.446,62.209 79.272,62.525 79.22,62.87C79.215,62.943 79.215,63.017 79.22,63.09C79.219,63.239 79.239,63.387 79.28,63.53M71.41,68.21L71.09,68.12L71.5,68.23L71.37,68.23M86.24,68.16C86.096,68.473 85.884,68.75 85.62,68.97L85.5,69.06C85.416,69.131 85.325,69.195 85.23,69.25C85.131,69.315 85.028,69.371 84.92,69.42C84.737,69.516 84.546,69.596 84.35,69.66L84.13,69.72C83.892,69.796 83.648,69.853 83.4,69.89C83.109,69.945 82.815,69.981 82.52,70L80.72,70C80.32,70 79.88,70 79.42,69.9C78.15,69.763 76.888,69.556 75.64,69.28C75.23,69.2 74.8,69.1 74.36,68.99C73.47,68.78 72.52,68.53 71.5,68.23L72.31,68.44L72.66,68.51L73.48,68.68C75.2,69.013 76.941,69.227 78.69,69.32L79.4,69.32C80.122,69.347 80.845,69.31 81.56,69.21C81.82,69.21 82.07,69.13 82.3,69.08C82.833,68.971 83.355,68.814 83.86,68.61C84.04,68.54 84.21,68.46 84.37,68.38L84.82,68.14L85.21,67.9L85.54,67.66C85.713,67.532 85.877,67.391 86.03,67.24C86.169,67.116 86.297,66.978 86.41,66.83C86.421,66.956 86.421,67.084 86.41,67.21C86.405,67.517 86.336,67.82 86.21,68.1" style="fill:white;fill-rule:nonzero;"/>
            <path d="M123.86,59.13C123.717,57.638 123.332,56.178 122.72,54.81C122.6,54.537 122.47,54.277 122.33,54.03C122.17,53.73 122,53.43 121.82,53.15C121.481,52.625 121.107,52.124 120.7,51.65C120.5,51.42 120.28,51.2 120.07,50.98L119.9,50.82L119.39,50.36L119.09,50.12L119.01,50.06L118.86,49.93L118.72,49.83C118.53,49.69 118.34,49.56 118.14,49.44L118,49.35L117.71,49.18L117.64,49.18L117.4,49L117.09,48.82C116.817,48.68 116.537,48.55 116.25,48.43L116.04,48.34L115.37,48.09L115.06,47.98L114.43,47.8L114.14,47.72L113.21,47.52L112.46,47.42L110.74,47.42L107.62,40L107.71,40C109.103,40 110.25,38.853 110.25,37.46C110.25,36.814 110.003,36.191 109.56,35.72L104.65,30.49C105.259,30.239 105.744,29.757 106,29.15C106.509,28.029 106.125,26.691 105.1,26.01L99,21.88C99.412,21.414 99.639,20.813 99.639,20.192C99.639,19.137 98.985,18.187 98,17.81L86.3,13.32L86,13.2L86.85,12.91L87.09,12.82L87.55,12.67L87.89,12.55L88.78,12.25C89.902,11.964 90.693,10.946 90.693,9.789C90.693,8.395 89.546,7.249 88.153,7.249C88.125,7.249 88.098,7.249 88.07,7.25L87.77,7.25L86.43,7.36L85.93,7.36L85.25,7.42L84.89,7.42L83.29,7.56L83.06,7.56L71.53,8.56L72,7.3L72,7.17L72.25,6.44L72.25,6.29L72.45,5.69L73.25,3.36C73.34,3.096 73.386,2.818 73.386,2.539C73.386,1.177 72.291,0.045 70.93,0C70.234,-0.002 69.568,0.284 69.09,0.79L67,3L66.79,3.22L66.47,3.56L66.33,3.7L65.68,4.4L65.56,4.52L62.17,8.1C61.67,8.633 61.209,9.201 60.79,9.8L59.92,9.44C59.61,9.33 59.31,9.21 59,9.11L58.15,8.86L57.94,8.8L57.87,8.8L57.3,8.66L57,8.58L56.91,8.58L56.39,8.47L56.02,8.47L55.51,8.38L55.12,8.38L54.62,8.32L54.27,8.32L53.72,8.27L51.72,8.27C51.11,8.27 50.52,8.27 49.94,8.37C48.242,8.519 46.565,8.855 44.94,9.37L34.14,12.64L29,14.29C27.79,14.675 27.045,15.911 27.27,17.16L27.27,17.27L25.84,17.81C24.849,18.176 24.187,19.127 24.187,20.183C24.187,20.81 24.42,21.415 24.84,21.88L18.79,26C18.088,26.471 17.666,27.263 17.666,28.109C17.666,29.148 18.304,30.087 19.27,30.47L14.36,35.7C13.905,36.173 13.651,36.804 13.651,37.46C13.651,38.854 14.798,40 16.191,40L16.31,40L13.19,47.3L12.15,47.3L11.46,47.37C11.39,47.36 11.32,47.36 11.25,47.37L10.58,47.47L10.39,47.47L9.72,47.62L9.54,47.62L8.87,48L8.72,48L8.05,48.24L7.92,48.3L7.26,48.59L7.14,48.65L7.04,48.65L6.7,48.82L6.51,48.92L6.38,48.92L6.03,49.13L5.87,49.23C5.64,49.37 5.43,49.52 5.21,49.68L5,50L4.86,50.11L4.8,50.16L4.52,50.4L4.3,50.59L4.09,50.78L4,50.88C3.525,51.331 3.09,51.823 2.7,52.35C2.283,52.898 1.912,53.48 1.59,54.09C1.47,54.33 1.35,54.56 1.24,54.81C0.877,55.603 0.595,56.43 0.4,57.28C0.33,57.55 0.28,57.82 0.23,58.1C0.236,58.13 0.236,58.16 0.23,58.19C0.15,58.69 0.1,59.19 0.07,59.69L0.07,61.54C0.07,61.77 0.07,62.01 0.13,62.24L0.13,62.31C0.13,62.56 0.2,62.82 0.25,63.07L0.25,63.18C0.25,63.42 0.34,63.63 0.39,63.84L0.39,63.99C0.46,64.24 0.52,64.49 0.6,64.73L0.6,64.83C0.66,65.02 0.73,65.24 0.81,65.45L0.87,65.63C0.96,65.85 1.04,66.07 1.13,66.28L1.13,66.35L1.45,67.03L1.53,67.17C1.63,67.38 1.73,67.56 1.83,67.74L1.92,67.89C2.05,68.11 2.18,68.32 2.32,68.53L2.4,68.64L2.77,69.17L2.9,69.34C3.06,69.54 3.22,69.75 3.39,69.94L3.52,70.1L3.58,70.17L3.87,70.54L3.87,70.6L4.08,70.9C4.08,70.9 4.08,70.97 4.14,70.97L4.14,71.05L4.29,71.27C4.36,71.4 4.44,71.51 4.51,71.63L4.51,71.69C4.59,71.82 4.63,71.91 4.68,71.99L4.74,72.11C4.789,72.19 4.833,72.274 4.87,72.36L4.87,72.56L5.05,72.94L5.13,73.14L5.25,73.43L5.36,73.71L5.45,73.97C5.51,74.13 5.57,74.29 5.62,74.45L5.62,74.64L5.74,75.01L5.74,75.17L5.96,75.88L6.32,77.06C6.42,77.38 6.53,77.69 6.64,78L6.76,78.32C7.011,79.003 7.301,79.671 7.63,80.32C7.81,80.67 8.01,81.01 8.21,81.32C8.28,81.44 8.36,81.55 8.43,81.66C8.5,81.77 8.74,82.11 8.91,82.33C9.08,82.55 9.26,82.77 9.45,82.99C9.64,83.21 9.84,83.43 10.05,83.64L10.37,83.96C10.832,84.392 11.32,84.796 11.83,85.17C12.23,85.46 12.66,85.74 13.1,86.01C13.747,86.381 14.415,86.715 15.1,87.01L15.22,87.07C15.61,87.23 16.02,87.39 16.46,87.55L16.64,87.61C17.06,87.76 17.47,87.88 17.88,87.99L18.06,87.99L18.49,88.09L18.76,88.09L20.01,88.33L20.13,88.33L20.59,88.4L22.05,88.4C22.3,89.19 22.57,89.94 22.85,90.63C23.13,91.32 23.3,91.63 23.39,91.84L23.75,92.59C24.174,93.48 24.648,94.344 25.17,95.18L29.09,101.48C29.556,102.223 30.373,102.677 31.25,102.68C31.48,102.679 31.708,102.649 31.93,102.59C32.141,102.53 32.342,102.443 32.53,102.33C33.106,103.082 33.778,103.754 34.53,104.33C34.958,104.667 35.413,104.968 35.89,105.23C36.524,105.58 37.195,105.859 37.89,106.06C38.22,106.653 38.587,107.224 38.99,107.77C39.22,108.07 39.46,108.37 39.73,108.69C40.627,109.728 41.632,110.667 42.73,111.49C44.873,113.069 47.257,114.291 49.79,115.11C52.806,116.084 55.929,116.689 59.09,116.91L59.89,116.97L62.57,116.97C63.1,116.97 63.57,116.91 63.99,116.88C65.668,116.748 67.337,116.521 68.99,116.2C69.75,116.05 70.5,115.88 71.22,115.69C71.94,115.5 72.6,115.3 73.22,115.08C73.84,114.86 74.48,114.64 75.08,114.39C76.068,114.191 77.043,113.934 78,113.62C78.727,113.227 79.432,112.793 80.11,112.32C80.53,112.03 80.94,111.72 81.33,111.41C81.88,110.967 82.408,110.497 82.91,110C83.353,109.557 83.77,109.09 84.16,108.6C84.704,107.921 85.193,107.198 85.62,106.44C87.761,105.835 89.635,104.519 90.93,102.71C91.106,102.803 91.29,102.88 91.48,102.94C91.702,102.999 91.93,103.029 92.16,103.03C93.037,103.027 93.854,102.573 94.32,101.83L98.24,95.53C98.65,94.88 99.05,94.17 99.46,93.35C99.66,92.95 99.85,92.55 100.02,92.19C100.101,92.044 100.175,91.894 100.24,91.74C100.3,91.61 100.36,91.46 100.44,91.27C100.73,90.6 101,89.85 101.26,89.06L101.35,88.77L103.77,88.77L104.32,88.66L104.47,88.66L104.71,88.61L105.02,88.54L105.16,88.54L105.41,88.48L105.72,88.4L105.88,88.4L106.12,88.33L106.44,88.23L106.59,88.23L106.83,88.16L107.15,88.04L107.31,88.04L107.54,87.96L107.87,87.82L108.03,87.82L108.25,87.73L108.6,87.57L108.75,87.57L108.96,87.47L109.39,87.25L109.49,87.25L109.67,87.16L110.37,86.76C110.945,86.413 111.499,86.032 112.03,85.62C112.29,85.42 112.53,85.22 112.76,85.02C112.99,84.82 113.43,84.4 113.76,84.02C114.09,83.64 114.33,83.37 114.59,83.02C114.997,82.487 115.364,81.926 115.69,81.34L115.87,81C115.99,80.78 116.1,80.55 116.2,80.33L116.35,79.99C116.56,79.5 116.77,78.99 116.97,78.37C117.17,77.75 117.36,77.17 117.55,76.57L117.7,76.06L117.7,75.98L117.84,75.51C117.96,75.15 118.07,74.81 118.2,74.51L118.26,74.33C118.32,74.17 118.39,74.01 118.46,73.85L118.68,73.35C118.85,72.99 119.02,72.67 119.2,72.35L119.31,72.17L119.42,72C119.418,71.98 119.418,71.96 119.42,71.94L119.54,71.77L119.59,71.69L119.66,71.6L119.84,71.34L120.17,70.92L120.23,70.85L120.36,70.69C122.923,67.704 124.159,63.797 123.78,59.88M118.44,69.03L118.21,69.31L117.81,69.81L117.59,70.12C117.54,70.184 117.493,70.251 117.45,70.32C117.38,70.41 117.32,70.51 117.26,70.6L117.13,70.8L117,71.03C116.767,71.411 116.556,71.805 116.37,72.21C116.28,72.39 116.2,72.58 116.12,72.76C116.04,72.95 115.96,73.13 115.89,73.32L115.81,73.53C115.68,73.9 115.55,74.27 115.43,74.63L115.28,75.13L115.28,75.22C115.23,75.39 115.18,75.56 115.12,75.73C114.95,76.3 114.78,76.88 114.58,77.45C114.38,78.02 114.24,78.45 114.03,78.88C114.03,78.97 113.95,79.07 113.9,79.16C113.85,79.25 113.72,79.54 113.63,79.73L113.48,80.01C113.211,80.486 112.91,80.944 112.58,81.38C112.371,81.658 112.147,81.925 111.91,82.18C111.66,82.44 111.4,82.7 111.11,82.96C110.82,83.22 110.72,83.29 110.51,83.46C110.062,83.824 109.591,84.158 109.1,84.46L108.5,84.8L108.3,84.9C108.169,84.98 108.032,85.05 107.89,85.11L107.65,85.23L107.28,85.4L107.02,85.5L106.67,85.65L106.4,85.75L106.05,85.87L105.77,85.96L105.43,86.07L105.15,86.15L104.81,86.24L104.53,86.31L104.2,86.39L103.91,86.45L103.59,86.52L103.3,86.52L103,86L99.44,86C99.24,86.74 99.05,87.4 98.86,88C98.57,88.86 98.31,89.54 98.11,90L97.93,90.41L97.74,90.81C97.58,91.16 97.4,91.53 97.21,91.91C96.88,92.55 96.52,93.23 96.11,93.91L92.18,100.21L92.1,97C91.52,97.491 90.912,97.948 90.28,98.37C89.495,101.4 86.988,103.695 83.9,104.21C83.444,105.213 82.863,106.154 82.17,107.01C81.834,107.428 81.477,107.828 81.1,108.21C80.676,108.641 80.229,109.048 79.76,109.43C79.43,109.7 79.08,109.97 78.7,110.23C78.097,110.645 77.473,111.029 76.83,111.38C76.107,111.775 75.363,112.128 74.6,112.44C74.06,112.66 73.5,112.87 72.9,113.07C72.3,113.27 71.68,113.46 71.02,113.63C70.36,113.8 69.68,113.96 68.95,114.11C67.383,114.411 65.801,114.624 64.21,114.75L62.89,114.83L59.72,114.83C56.763,114.625 53.841,114.06 51.02,113.15C48.742,112.421 46.597,111.327 44.67,109.91C43.723,109.198 42.854,108.387 42.08,107.49C41.85,107.22 41.64,106.96 41.45,106.7C40.877,105.929 40.39,105.098 40,104.22C39.113,104.094 38.256,103.809 37.47,103.38C37.117,103.188 36.782,102.964 36.47,102.71C35.734,102.129 35.107,101.421 34.62,100.62C34.52,100.47 34.43,100.31 34.35,100.16C34.043,99.594 33.795,98.997 33.61,98.38C32.969,97.953 32.352,97.493 31.76,97L31.69,100.54L27.76,94.24C27.294,93.475 26.867,92.688 26.48,91.88L26.13,91.16C26.13,91.09 25.91,90.73 25.66,90.09C25.41,89.45 25.16,88.81 24.87,87.88C24.77,87.57 24.68,87.24 24.58,86.88L24.43,86.34L21.39,86.34L21,86L20.89,86L19.79,85.79L19.6,85.74L19.17,85.64L19.02,85.64C18.66,85.54 18.3,85.43 17.94,85.31L17.78,85.25C17.42,85.13 17.06,84.99 16.7,84.84L16.59,84.84C16.003,84.577 15.432,84.28 14.88,83.95C14.06,83.456 13.293,82.88 12.59,82.23C12.5,82.14 12.41,82.06 12.33,81.97C12.25,81.88 11.99,81.62 11.84,81.45C11.69,81.28 11.54,81.09 11.4,80.91C11.26,80.73 11.13,80.55 11.01,80.37L10.79,80C10.62,79.73 10.46,79.45 10.32,79.17C10.029,78.619 9.778,78.047 9.57,77.46C9.57,77.37 9.5,77.27 9.46,77.18C9.36,76.89 9.27,76.6 9.17,76.32C9.07,76.04 8.93,75.55 8.82,75.17L8.61,74.5C8.591,74.425 8.568,74.352 8.54,74.28L8.42,73.88C8.392,73.812 8.369,73.741 8.35,73.67L8.17,73.15C8.17,73.05 8.09,72.95 8.06,72.85C8.03,72.75 8,72.6 7.93,72.5C7.86,72.4 7.84,72.27 7.79,72.15C7.761,72.075 7.727,72.001 7.69,71.93C7.63,71.77 7.55,71.62 7.48,71.46L7.43,71.35C7.411,71.305 7.387,71.261 7.36,71.22L7.21,70.91C7.21,70.91 7.21,70.82 7.13,70.77L7,70.46L6.93,70.33L6.66,69.9L6.45,69.57L6.36,69.45L6,69.08L6,69C5.89,68.85 5.77,68.7 5.65,68.56L5.42,68.28C5.28,68.12 5.15,67.96 5.02,67.79L4.62,67.23L4.55,67.13C4.431,66.959 4.32,66.782 4.22,66.6L4.15,66.48C4.055,66.325 3.968,66.165 3.89,66C3.812,65.835 3.84,65.91 3.81,65.86C3.78,65.81 3.63,65.49 3.55,65.3C3.47,65.12 3.4,64.94 3.33,64.76C3.26,64.58 3.33,64.66 3.28,64.61C3.21,64.437 3.149,64.26 3.1,64.08C3.096,64.06 3.096,64.04 3.1,64.02C3.04,63.81 2.98,63.61 2.93,63.4L2.93,63.28C2.93,63.11 2.85,62.93 2.82,62.76C2.79,62.59 2.82,62.68 2.82,62.64C2.82,62.43 2.75,62.22 2.72,62.01L2.72,61.96C2.69,61.764 2.67,61.568 2.66,61.37C2.65,61.172 2.66,61.29 2.66,61.25L2.66,59.94C2.656,59.917 2.656,59.893 2.66,59.87C2.678,59.461 2.721,59.054 2.79,58.65C2.79,58.42 2.88,58.18 2.93,57.95C3.09,57.263 3.318,56.593 3.61,55.95C3.7,55.75 3.8,55.56 3.9,55.37C4.156,54.881 4.45,54.412 4.78,53.97C5.104,53.548 5.458,53.151 5.84,52.78L6,52.51L6.19,52.33L6.47,52.11L6.54,52.05L6.73,51.9L7.28,51.53L7.38,51.46L7.45,51.46C7.533,51.404 7.62,51.354 7.71,51.31L7.88,51.21L8.23,51L8.34,51L8.86,50.77L8.98,50.77L9.5,50.58L9.65,50.53L10.17,50.38L10.33,50.38L10.85,50.27L11.04,50.27L11.56,50.19L11.77,50.19C11.95,50.19 12.13,50.19 12.32,50.13L14.84,50.13L19,40.19C19.38,39.31 19.81,38.34 20.32,37.35C20.63,36.76 20.97,36.16 21.32,35.57C21.53,35.21 21.75,34.86 21.99,34.51L16.2,37.45L24.78,28.31C25.31,27.75 25.89,27.14 26.53,26.54L20.2,28.12L30.59,21.12C31.08,20.79 31.59,20.43 32.18,20.12L26.79,20.22L30.62,18.75L36.77,16.4L30.13,16.73L29.78,16.73L34.9,15.09L45.7,11.58C47.153,11.12 48.652,10.821 50.17,10.69C50.703,10.643 51.233,10.613 51.76,10.6L54.82,10.6L55.17,10.65L55.61,10.72L56,11L56.46,11.09L56.76,11.16L57.27,11.29L57.51,11.35L58.25,11.57L59.06,11.86C59.59,12.07 60.12,12.3 60.63,12.55L61.39,12.95L61.77,13.18C62.339,11.963 63.091,10.84 64,9.85L67.43,6.23L67.55,6.1L68.21,5.41L68.34,5.27L68.66,4.93L68.87,4.71L70.92,2.54L70.13,4.88L70.05,5.11L69.93,5.47L69.93,5.62L69.68,6.36L69.68,6.49L67.93,11.65C68.15,11.6 68.36,11.57 68.55,11.54L69,11.54L69.83,11.47L70.16,11.47L83.29,10.34L83.52,10.34L85.13,10.2L85.48,10.2L86.17,10.14L86.67,10.14L88,9.82L87.06,10.15L86.72,10.27L86.26,10.42L86,10.5L85,10.86L84.86,10.91L80.77,12.3L77,13.59C77.91,13.69 78.79,13.82 79.63,13.99C79.91,13.99 80.19,14.1 80.46,14.17C82.167,14.536 83.84,15.048 85.46,15.7L97.16,20.18L91.77,20.08C92.34,20.43 92.87,20.79 93.36,21.08L103.75,28.08L97.42,26.5C98.06,27.1 98.65,27.71 99.17,28.27L107.75,37.41L101.97,34.47C102.2,34.82 102.42,35.17 102.63,35.53C103.539,37.003 104.325,38.548 104.98,40.15L109.13,49.86L110.11,49.86C110.3,49.85 110.49,49.85 110.68,49.86L112.19,49.86C112.398,49.879 112.605,49.91 112.81,49.95C113.07,49.95 113.33,50.05 113.58,50.11L113.81,50.17L114.32,50.32L114.58,50.41L115.07,50.59L115.29,50.68C115.52,50.78 115.74,50.88 115.96,51C116.067,51.051 116.17,51.107 116.27,51.17L116.54,51.32L116.64,51.39C116.807,51.485 116.968,51.592 117.12,51.71L117.2,51.77L117.38,51.91L117.45,51.91L117.69,52.09L118.09,52.46L118.22,52.58C118.4,52.75 118.56,52.93 118.73,53.11C119.054,53.485 119.352,53.883 119.62,54.3C119.76,54.53 119.9,54.77 120.03,55.01C120.16,55.25 120.25,55.43 120.34,55.65C120.842,56.764 121.157,57.953 121.27,59.17C121.573,62.393 120.558,65.605 118.46,68.07" style="fill:white;fill-rule:nonzero;"/>
            <path d="M95.11,62.4C95.11,62.06 95.05,61.72 95.01,61.4C94.831,59.872 94.516,58.363 94.07,56.89L93.72,55.79L93.51,55.24C93.43,55.06 93.36,54.88 93.29,54.7L93.07,54.16L92.81,53.63L92.44,52.87C92.18,52.469 91.9,52.082 91.6,51.71C90.208,50.028 88.512,48.624 86.6,47.57L86,47.25C85.46,46.96 84.91,46.7 84.36,46.46L83.54,46.14C83,45.93 82.45,45.75 81.92,45.6C81.12,45.37 80.35,45.19 79.62,45.05C78.847,44.948 78.069,44.895 77.29,44.89C76.789,44.888 76.288,44.911 75.79,44.96C75.068,45.026 74.352,45.149 73.65,45.33C73.202,45.444 72.761,45.585 72.33,45.75C71.916,45.916 71.512,46.106 71.12,46.32C70.358,46.74 69.664,47.273 69.06,47.9C68.707,48.286 68.373,48.69 68.06,49.11C67.498,49.87 67.024,50.692 66.65,51.56C66.483,51.95 66.343,52.351 66.23,52.76C66.068,53.325 65.961,53.904 65.91,54.49C65.886,54.853 65.886,55.217 65.91,55.58L65.91,56.1C65.955,56.578 66.045,57.05 66.18,57.51C66.263,57.79 66.367,58.064 66.49,58.33C66.49,58.45 66.61,58.57 66.67,58.69C66.845,59.012 67.064,59.308 67.32,59.57C67.539,59.796 67.801,59.976 68.09,60.1C68.352,60.209 68.638,60.25 68.92,60.22C69.223,60.181 69.512,60.068 69.76,59.89C70.4,59.43 71.2,58.89 72.12,58.33C73.279,57.628 74.514,57.058 75.8,56.63C76.327,56.449 76.865,56.302 77.41,56.19C77.984,56.07 78.565,55.986 79.15,55.94L80.37,55.94C82.461,56.002 84.511,56.532 86.37,57.49C87.396,57.992 88.374,58.587 89.29,59.27C89.63,59.53 89.95,59.79 90.24,60.05C90.592,60.364 90.926,60.698 91.24,61.05C91.46,61.31 91.67,61.56 91.85,61.81L92.19,62.3C92.34,62.55 92.48,62.78 92.6,63.01C92.931,63.643 93.183,64.315 93.35,65.01L93.35,64.81L93.28,64.4L93.14,63.57L92.93,62.75L92.82,62.34L92.7,62L92.42,61.2C92.32,60.93 92.21,60.67 92.09,60.4L91.91,60C91.91,59.87 91.8,59.73 91.74,59.6C91.89,59.85 92.05,60.09 92.21,60.34C92.37,60.59 92.53,60.84 92.67,61.09L93.08,61.87L93.28,62.26L93.46,62.66L93.8,63.47L94.08,64.29L94.22,64.71L94.28,64.92L94.28,65.13C94.28,65.31 94.37,65.49 94.41,65.66L94.41,64.35L94.36,63.84L94.29,63.34L94.14,62.34L93.93,61.34C93.87,61.01 93.79,60.68 93.7,60.34C93.61,60 93.51,59.68 93.42,59.34C93.33,59 93.22,58.69 93.11,58.34C93,57.99 92.88,57.69 92.77,57.34C92.91,57.66 93.06,57.97 93.21,58.34C93.36,58.71 93.51,58.97 93.64,59.29C93.77,59.61 93.9,59.93 94.02,60.29C94.154,60.617 94.271,60.951 94.37,61.29L94.69,62.29L94.85,62.88L94.96,63.3L95.02,63.55L95.09,63.8L95.09,64.31C95.09,64.43 95.09,64.56 95.17,64.69L95.17,63.92C95.17,63.45 95.11,62.92 95.07,62.5" style="fill:white;fill-rule:nonzero;"/>
            <path d="M118,58.88C118.003,58.817 118.003,58.753 118,58.69C117.89,58.174 117.726,57.671 117.51,57.19C117.51,57.1 117.42,57 117.36,56.9C117.3,56.8 117.25,56.69 117.19,56.58C117.13,56.47 117.06,56.36 116.99,56.25C116.993,56.23 116.993,56.21 116.99,56.19L116.82,55.94C116.693,55.773 116.553,55.603 116.4,55.43C116.243,55.253 116.077,55.087 115.9,54.93C115.511,54.577 115.081,54.272 114.62,54.02C114.452,53.927 114.278,53.843 114.1,53.77C113.915,53.685 113.724,53.611 113.53,53.55C113.202,53.442 112.868,53.356 112.53,53.29C111.918,53.166 111.295,53.103 110.67,53.1L109.74,53.1C108.002,53.242 106.305,53.71 104.74,54.48C104.46,54.61 104.18,54.75 103.9,54.91L102.47,55.69C102.52,55.89 102.57,56.09 102.61,56.28L102.73,56.88L102.79,57.23C102.86,57.58 102.91,57.93 102.95,58.28C102.99,58.63 103.01,58.87 103.04,59.17L103.6,58.82C103.98,58.59 104.37,58.38 104.77,58.18L105.38,57.9C106.184,57.539 107.026,57.271 107.89,57.1C108.177,57.039 108.468,56.992 108.76,56.96C109.172,56.914 109.586,56.894 110,56.9L110.44,56.9C110.732,56.914 111.023,56.947 111.31,57C111.604,57.051 111.895,57.121 112.18,57.21L112.6,57.36C112.88,57.475 113.145,57.622 113.39,57.8C113.516,57.889 113.633,57.99 113.74,58.1C113.798,58.152 113.852,58.209 113.9,58.27C114.245,58.678 114.482,59.166 114.59,59.69C114.647,59.98 114.674,60.275 114.67,60.57C114.672,60.858 114.649,61.146 114.6,61.43C114.6,61.58 114.6,61.72 114.52,61.86C114.433,62.281 114.316,62.695 114.17,63.1C114.07,63.36 113.97,63.63 113.86,63.89C113.52,64.67 113.119,65.423 112.66,66.14C113.214,65.158 113.66,64.118 113.99,63.04C114.146,62.504 114.253,61.955 114.31,61.4C114.373,60.858 114.339,60.31 114.21,59.78C114.177,59.65 114.134,59.523 114.08,59.4C113.94,59.018 113.711,58.675 113.41,58.4C113.006,58.062 112.525,57.829 112.01,57.72C111.488,57.585 110.949,57.521 110.41,57.53C109.867,57.518 109.324,57.562 108.79,57.66C108.524,57.701 108.26,57.758 108,57.83C107.611,57.934 107.227,58.057 106.85,58.2C106.47,58.35 106.11,58.51 105.74,58.69L105.38,58.88C105.03,59.07 104.68,59.28 104.38,59.5L103.71,59.96C103.49,60.12 103.27,60.28 103.06,60.45L103.06,61.62C103.06,62.18 102.98,62.74 102.92,63.28C102.86,63.82 102.74,64.37 102.66,64.9C102.55,64.5 102.45,64.11 102.34,63.73L102.22,63.35L101.95,62.59C101.86,62.35 101.77,62.1 101.66,61.86L101.66,61.74L101.56,61.83L101.47,61.92C101.52,62.57 101.55,63.22 101.54,63.86L101.54,65.15C102.056,65.069 102.583,65.11 103.08,65.27L103.36,65.38L103.65,65.52C103.873,65.641 104.067,65.808 104.22,66.01C104.294,66.115 104.361,66.226 104.42,66.34C104.653,66.86 104.726,67.438 104.63,68C104.598,68.23 104.538,68.455 104.45,68.67C104.138,69.483 103.54,70.155 102.77,70.56C102.301,70.802 101.793,70.961 101.27,71.03L100.85,71.74C100.71,71.97 100.57,72.2 100.44,72.43C100.357,72.558 100.283,72.691 100.22,72.83C100.114,73.022 100.023,73.223 99.95,73.43C99.906,73.564 99.873,73.701 99.85,73.84L99.85,74.04C99.84,74.242 99.86,74.444 99.91,74.64C99.941,74.77 99.991,74.895 100.06,75.01C100.09,75.066 100.123,75.119 100.16,75.17C100.24,75.275 100.335,75.37 100.44,75.45C100.546,75.537 100.664,75.607 100.79,75.66C101.184,75.827 101.619,75.875 102.04,75.8C102.329,75.749 102.609,75.655 102.87,75.52C103.135,75.387 103.381,75.219 103.6,75.02C103.717,74.921 103.827,74.814 103.93,74.7C104.239,74.361 104.504,73.985 104.72,73.58L104.92,73.16L105.01,72.95L105.1,72.73L105.39,72.07C105.419,71.995 105.453,71.921 105.49,71.85C105.56,71.71 105.63,71.57 105.71,71.43C105.778,71.283 105.858,71.143 105.95,71.01L106.21,70.61L106.51,70.23C106.798,69.854 107.134,69.518 107.51,69.23C107.641,69.137 107.778,69.054 107.92,68.98C108.479,68.666 109.121,68.526 109.76,68.58C109.525,68.545 109.285,68.545 109.05,68.58C108.665,68.656 108.296,68.798 107.96,69L107.57,69.26C107.192,69.545 106.855,69.882 106.57,70.26L106.29,70.64C106.21,70.77 106.13,70.91 106.06,71.05C105.904,71.318 105.764,71.595 105.64,71.88C105.51,72.17 105.41,72.47 105.3,72.76L105.13,73.21C105.07,73.36 105,73.51 104.94,73.65C104.678,74.17 104.341,74.648 103.94,75.07L103.77,75.25L103.58,75.41C103.134,75.802 102.598,76.077 102.02,76.21C101.763,76.26 101.501,76.281 101.24,76.27C100.777,76.313 100.311,76.219 99.9,76C99.676,75.839 99.483,75.64 99.33,75.41C99.33,75.33 99.24,75.25 99.2,75.16C99.16,75.07 99.2,75.08 99.2,75.03C99.091,74.732 99.04,74.417 99.05,74.1C99.05,73.922 99.07,73.744 99.11,73.57L99.17,73.32L99.26,73.07C99.286,72.992 99.316,72.915 99.35,72.84C99.423,72.68 99.493,72.53 99.56,72.39C99.56,72.31 99.63,72.24 99.67,72.17L99.9,71.74C100.13,71.32 100.36,70.92 100.56,70.51L100.65,70.3C100.71,70.17 100.77,70.03 100.82,69.89C100.87,69.75 100.91,69.61 100.94,69.48C100.994,69.277 101.024,69.069 101.03,68.86C101.035,68.793 101.035,68.727 101.03,68.66C101.035,68.593 101.035,68.527 101.03,68.46C101.017,68.325 100.994,68.191 100.96,68.06C100.88,67.802 100.766,67.557 100.62,67.33C100.551,67.212 100.471,67.102 100.38,67C100.298,66.89 100.208,66.786 100.11,66.69L100.11,68.56C100.11,69.12 100.03,69.68 99.98,70.22L99.92,70.63C99.86,71.04 99.78,71.44 99.71,71.84C99.71,71.71 99.64,71.58 99.6,71.45L99.39,70.67L99.27,70.29C99.27,70.16 99.18,70.04 99.14,69.91L98.87,69.17C98.87,69.04 98.77,68.92 98.71,68.8C98.58,68.48 98.44,68.16 98.29,67.8C98.14,67.44 97.98,67.19 97.81,66.89C98.196,68.982 98.446,71.096 98.56,73.22L98.56,75.14C98.56,76.08 98.56,76.97 98.5,77.83C98.5,78.4 98.43,78.95 98.38,79.49C98.38,79.76 98.33,80.02 98.3,80.28C98.25,80.79 98.18,81.28 98.11,81.77L98.02,82.36C98.02,82.55 97.96,82.74 97.92,82.92L99.55,82.92C100.47,82.924 101.389,82.861 102.3,82.73L102.81,82.64C103.316,82.555 103.817,82.441 104.31,82.3L104.79,82.15C105.1,82.05 105.41,81.94 105.71,81.81L106.15,81.62C106.444,81.493 106.732,81.349 107.01,81.19L107.42,80.96C108.7,80.262 109.775,79.241 110.54,78C110.708,77.716 110.858,77.422 110.99,77.12C111.13,76.82 111.253,76.513 111.36,76.2C111.6,75.57 111.8,74.91 112.01,74.2C112.421,72.71 112.96,71.258 113.62,69.86C113.878,69.328 114.165,68.81 114.48,68.31C114.7,67.96 114.95,67.6 115.21,67.25L115.62,66.71L116.07,66.17C116.21,66.01 116.33,65.85 116.45,65.69C116.642,65.436 116.816,65.168 116.97,64.89C117.448,64.065 117.786,63.166 117.97,62.23C118.072,61.733 118.128,61.227 118.14,60.72L118.14,60.5C118.14,59.973 118.09,59.447 117.99,58.93" style="fill:white;fill-rule:nonzero;"/>
            <path d="M146,10.79C148.833,10.79 150.763,11.303 151.79,12.33C152.817,13.357 153.327,15.297 153.32,18.15L153.32,35.24C153.32,38.07 152.81,40 151.79,41.01C150.77,42.02 148.79,42.56 146,42.56L137.42,42.56C134.57,42.56 132.64,42.05 131.62,41.01C130.6,39.97 130.08,38.07 130.08,35.24L130.08,18.15C130.08,15.29 130.593,13.35 131.62,12.33C132.647,11.31 134.58,10.797 137.42,10.79L146,10.79ZM143.49,17C143.49,16.67 143.32,16.5 142.97,16.5L140.44,16.5C140.09,16.5 139.92,16.67 139.92,17L139.92,36.31C139.92,36.67 140.09,36.85 140.44,36.85L143,36.85C143.35,36.85 143.52,36.67 143.52,36.31L143.49,17Z" style="fill:white;fill-rule:nonzero;"/>
            <path d="M155.42,10.79L179.01,10.79L179.01,16.5L172.13,16.5L172.13,42.56L162.3,42.56L162.3,16.5L155.42,16.5L155.42,10.79Z" style="fill:white;fill-rule:nonzero;"/>
            <path d="M181.11,10.79L190.94,10.79L190.94,23.84L194.51,23.84L194.51,10.79L204.35,10.79L204.35,42.56L194.51,42.56L194.51,29.53L190.94,29.53L190.94,42.56L181.11,42.56L181.11,10.79Z" style="fill:white;fill-rule:nonzero;"/>
            <path d="M207.28,10.79L224.99,10.79L224.99,16.5L217.11,16.5L217.11,23.15L224.99,23.15L224.99,28.78L217.11,28.78L217.11,36.85L224.99,36.85L224.99,42.56L207.28,42.56L207.28,10.79Z" style="fill:white;fill-rule:nonzero;"/>
            <path d="M243.84,10.79C246.667,10.79 248.597,11.303 249.63,12.33C250.663,13.357 251.173,15.297 251.16,18.15L251.16,19.07C251.16,21.55 250.85,23.24 250.24,24.13C249.63,25.02 248.14,25.63 245.74,26.02C248.14,26.42 249.64,27.06 250.24,27.94C250.852,28.82 251.174,29.869 251.16,30.94L251.16,37.6C251.09,39.283 251.265,40.967 251.68,42.6L241.85,42.6C241.439,40.875 241.264,39.102 241.33,37.33L241.33,30.55C241.334,30.336 241.201,30.143 241,30.07L237.75,30.07L237.75,42.56L227.92,42.56L227.92,10.79L243.84,10.79ZM241.33,17C241.33,16.64 241.16,16.46 240.81,16.46L237.75,16.46L237.75,24.7L240.81,24.7C240.831,24.703 240.853,24.705 240.875,24.705C241.127,24.705 241.335,24.497 241.335,24.245C241.335,24.223 241.333,24.201 241.33,24.18L241.33,17Z" style="fill:white;fill-rule:nonzero;"/>
            <path d="M142.34,75.3L139.92,64.63L139.92,78.67L130.09,78.67L130.09,46.89L139.92,46.89L144.62,64.61L149.37,46.89L159.2,46.89L159.2,78.67L149.37,78.67L149.37,64.63L146.95,75.3L142.34,75.3Z" style="fill:white;fill-rule:nonzero;"/>
            <path d="M178.05,46.89C180.877,46.89 182.81,47.407 183.85,48.44C184.89,49.473 185.397,51.41 185.37,54.25L185.37,71.34C185.37,74.18 184.86,76.1 183.85,77.12C182.84,78.14 180.85,78.67 178.05,78.67L169.48,78.67C166.627,78.67 164.693,78.153 163.68,77.12C162.68,76.12 162.13,74.18 162.13,71.34L162.13,54.25C162.13,51.397 162.647,49.46 163.68,48.44C164.713,47.42 166.647,46.903 169.48,46.89L178.05,46.89ZM175.54,53.1C175.54,52.77 175.37,52.6 175.02,52.6L172.49,52.6C172.14,52.6 171.96,52.77 171.96,53.1L171.96,72.41C171.956,72.434 171.954,72.459 171.954,72.483C171.954,72.747 172.171,72.963 172.434,72.963C172.453,72.963 172.472,72.962 172.49,72.96L175,72.96C175.35,72.96 175.52,72.77 175.52,72.41L175.54,53.1Z" style="fill:white;fill-rule:nonzero;"/>
            <path d="M202.97,78.67L198.13,64.46L198.13,78.67L188.3,78.67L188.3,46.89L197.72,46.89L202.55,61.12L202.55,46.89L212.38,46.89L212.38,78.67L202.97,78.67Z" style="fill:white;fill-rule:nonzero;"/>
            <path d="M215.31,46.89L225.14,46.89L225.14,57.45L229.28,46.89L238.55,46.89L232.67,61.62L239.3,78.67L228.99,78.67L225.14,66.91L225.14,78.67L215.31,78.67L215.31,46.89Z" style="fill:white;fill-rule:nonzero;"/>
            <path d="M240.97,46.89L258.69,46.89L258.69,52.6L250.81,52.6L250.81,59.26L258.69,59.26L258.69,64.88L250.81,64.88L250.81,72.96L258.69,72.96L258.69,78.67L240.97,78.67L240.97,46.89Z" style="fill:white;fill-rule:nonzero;"/>
            <path d="M267.92,64.86L260.37,46.89L269.67,46.89L272.85,57.39L276.01,46.89L285.32,46.89L277.77,64.86L277.77,78.67L267.92,78.67L267.92,64.86Z" style="fill:white;fill-rule:nonzero;"/>
            <path d="M146,83C148.833,83 150.763,83.513 151.79,84.54C152.793,85.518 153.348,86.869 153.32,88.27L153.32,91.87C153.32,95.87 151.163,97.87 146.85,97.87C151.157,97.87 153.313,99.843 153.32,103.79L153.32,109.52C153.342,110.905 152.788,112.239 151.79,113.2C150.79,114.2 148.79,114.75 146,114.75L130.09,114.75L130.09,83L146,83ZM143.49,89.25C143.494,89.225 143.496,89.2 143.496,89.175C143.496,88.918 143.284,88.705 143.026,88.705C143.004,88.705 142.982,88.707 142.96,88.71L139.91,88.71L139.91,95L143,95C143.025,95.004 143.05,95.006 143.075,95.006C143.327,95.006 143.535,94.798 143.535,94.546C143.535,94.524 143.533,94.502 143.53,94.48L143.49,89.25ZM139.91,100.69L139.91,109.06L143,109.06C143.35,109.06 143.53,108.89 143.53,108.56L143.53,101.2C143.532,101.181 143.533,101.163 143.533,101.144C143.533,100.892 143.326,100.684 143.073,100.684C143.049,100.684 143.024,100.686 143,100.69L139.91,100.69Z" style="fill:white;fill-rule:nonzero;"/>
            <path d="M172.17,83C175,83 176.94,83.51 177.97,84.54C179,85.57 179.5,87.54 179.5,90.36L179.5,91.28C179.5,93.76 179.19,95.45 178.57,96.34C177.95,97.23 176.48,97.83 174.08,98.22C176.48,98.627 177.977,99.27 178.57,100.15C179.189,101.027 179.515,102.077 179.5,103.15L179.5,109.84C179.425,111.523 179.6,113.208 180.02,114.84L170.19,114.84C169.775,113.116 169.596,111.343 169.66,109.57L169.66,102.83C169.664,102.616 169.531,102.423 169.33,102.35L166.09,102.35L166.09,114.84L156.25,114.84L156.25,83L172.17,83ZM169.66,89.25C169.66,88.89 169.49,88.71 169.14,88.71L166.14,88.71L166.14,97L169.14,97C169.161,97.003 169.183,97.005 169.205,97.005C169.457,97.005 169.665,96.797 169.665,96.545C169.665,96.523 169.663,96.501 169.66,96.48L169.66,89.25Z" style="fill:white;fill-rule:nonzero;"/>
            <path d="M182.95,83L200.66,83L200.66,88.71L192.78,88.71L192.78,95.36L200.66,95.36L200.66,100.99L192.78,100.99L192.78,109.06L200.66,109.06L200.66,114.77L182.95,114.77L182.95,83Z" style="fill:white;fill-rule:nonzero;"/>
            <path d="M222.75,114.77L219.95,100.42L217.13,114.77L206.69,114.77L202.34,83L211.65,83L212.92,102.28L216.31,83L223.57,83L226.96,102.28L228.24,83L237.54,83L233.23,114.77L222.75,114.77Z" style="fill:white;fill-rule:nonzero;"/>
            <rect x="239.22" y="83" width="9.83" height="31.77" style="fill:white;"/>
            <path d="M266.64,114.77L261.81,100.57L261.81,114.77L251.98,114.77L251.98,83L261.39,83L266.22,97.22L266.22,83L276.06,83L276.06,114.77L266.64,114.77Z" style="fill:white;fill-rule:nonzero;"/>
            <path d="M294.9,83C297.733,83 299.667,83.513 300.7,84.54C301.733,85.567 302.24,87.507 302.22,90.36L302.22,95.25L292.39,95.25L292.39,89.33C292.39,88.97 292.22,88.79 291.87,88.79L289.34,88.79C289.318,88.787 289.296,88.785 289.274,88.785C289.016,88.785 288.804,88.998 288.804,89.255C288.804,89.28 288.806,89.305 288.81,89.33L288.81,108.64C288.81,108.98 288.99,109.14 289.34,109.14L291.87,109.14C292.22,109.14 292.39,108.98 292.39,108.64L292.39,102.39L290.61,102.39L290.61,98.83L302.22,98.83L302.22,114.77L299.38,114.77L298.38,111.77C298.08,113.68 296.24,114.68 292.83,114.77L286.28,114.77C283.44,114.77 281.51,114.26 280.49,113.24C279.47,112.22 278.973,110.29 279,107.45L279,90.36C279,87.52 279.517,85.58 280.55,84.54C281.583,83.5 283.507,82.987 286.32,83L294.9,83Z" style="fill:white;fill-rule:nonzero;"/>
            <path d="M281.33,10C281.331,10.06 281.332,10.12 281.332,10.18C281.332,14.793 277.536,18.59 272.922,18.59C268.308,18.59 264.512,14.793 264.512,10.18C264.512,5.566 268.308,1.77 272.922,1.77L273.09,1.77C277.607,1.77 281.325,5.483 281.33,10M266.61,10C266.609,10.04 266.609,10.08 266.609,10.12C266.609,13.615 269.484,16.49 272.979,16.49L273,16.49C276.426,16.47 279.234,13.646 279.234,10.22C279.234,10.147 279.233,10.073 279.23,10C279.23,6.538 276.382,3.69 272.92,3.69C269.458,3.69 266.61,6.538 266.61,10M271.61,14.24L269.71,14.24L269.71,6C270.753,5.842 271.805,5.758 272.86,5.75C273.837,5.645 274.82,5.875 275.65,6.4C276.208,6.804 276.527,7.462 276.5,8.15C276.441,9.105 275.739,9.906 274.8,10.09L274.8,10.19C275.6,10.44 276,11.09 276.25,12.19C276.353,12.882 276.555,13.555 276.85,14.19L274.85,14.19C274.524,13.564 274.305,12.888 274.2,12.19C274.05,11.34 273.55,10.94 272.51,10.94L271.61,10.94L271.61,14.24ZM271.66,9.65L272.56,9.65C273.56,9.65 274.45,9.3 274.45,8.46C274.45,7.62 273.9,7.21 272.71,7.21C272.357,7.203 272.005,7.236 271.66,7.31L271.66,9.65Z" style="fill:white;fill-rule:nonzero;"/>
        </g>
    </g>
</svg>
