<?xml version="1.0" encoding="UTF-8" standalone="no"?>
<!DOCTYPE svg PUBLIC "-//W3C//DTD SVG 1.1//EN" "http://www.w3.org/Graphics/SVG/1.1/DTD/svg11.dtd">
<svg width="100%" height="100%" viewBox="0 0 163 361" version="1.1" xmlns="http://www.w3.org/2000/svg" xmlns:xlink="http://www.w3.org/1999/xlink" xml:space="preserve" xmlns:serif="http://www.serif.com/" style="fill-rule:evenodd;clip-rule:evenodd;stroke-linejoin:round;stroke-miterlimit:2;">
    <g transform="matrix(1,0,0,1,-118.923,-19.5457)">
        <path d="M207.894,63.956C209.154,65.992 210.292,68.15 211.849,69.889C212.947,72.577 215.64,73.892 217.218,75.823C217.82,75.912 217.978,76.443 218.63,76.482C219.591,78.189 220.892,79.557 221.455,81.662C222.399,82.425 222.589,83.612 222.962,84.769C223.765,87.26 224.848,89.92 225.411,92.586C226.963,93.394 227.752,94.937 228.329,97.389C228.781,99.302 228.578,101.352 227.765,102.757C228.501,104.767 228.587,107.378 229.084,110.103C229.697,113.47 230.026,116.74 229.837,121.027C229.703,124.056 229.161,127.216 228.706,130.069C228.245,132.973 227.423,135.708 225.976,137.414C224.501,139.153 221.534,140.177 219.006,140.334C217.132,140.45 214.783,140.555 212.886,140.145C212.435,142.239 212.133,144.479 211.755,146.643C212.109,146.891 212.322,146.699 212.886,146.737C213.118,146.851 213.3,147.013 213.45,147.208C218.829,148.63 224.525,150.689 229.649,153.048C232.199,154.221 234.802,155.5 235.394,158.51C235.38,157.087 235.327,155.581 237.654,155.967C238.326,156.079 239.293,156.603 240.29,156.908C241.273,157.211 242.425,157.487 243.022,157.756C243.392,157.924 243.702,158.307 244.152,158.51C247.199,159.882 251.44,159.307 251.874,162.559C255.617,162.958 260.297,164.127 264.306,163.971C264.769,163.954 265.105,163.747 265.623,163.784C266.804,163.866 268.438,165.23 269.862,165.762C270.471,165.989 271.257,165.953 271.745,166.139C275.194,167.442 279.407,171.778 280.409,175.65C280.529,176.108 280.378,177.011 280.409,177.534C280.534,179.51 282.06,182.996 280.033,184.408C279.677,186.546 279.099,188.663 278.056,190.247C277.679,190.819 277.029,191.129 276.548,191.66C275.71,192.585 275.054,193.822 274.288,194.861C272.036,197.92 269.925,201.14 267.697,204.374C267.664,204.845 268.054,204.894 267.978,205.409C267.179,205.931 266.622,206.915 266.001,207.858C263.265,212.009 259.938,216.222 257.148,220.383C255.495,222.848 253.958,225.362 252.346,227.824C250.751,230.255 248.623,232.269 247.072,234.698C247.239,234.876 247.693,234.769 247.636,235.17C247.595,235.8 247.093,235.975 246.788,236.394C245.317,238.425 244.206,241.214 243.022,243.833C241.795,246.544 240.411,249.255 239.632,251.652C239.504,252.039 239.55,252.446 239.349,252.779C239.113,253.172 238.857,253.104 238.501,253.44C237.749,254.153 237.253,255.384 236.711,256.361C235.624,258.32 234.611,260.14 233.322,261.821C233.103,262.191 233.437,262.171 233.415,262.575C232.355,263.743 231.247,264.862 230.402,266.247C230.142,266.481 229.923,266.1 229.554,266.153C229.018,267.237 229.813,267.404 229.649,268.509C230.191,269.18 230.126,269.583 230.025,270.58C229.91,271.716 230.091,273.226 230.025,274.724C229.955,276.297 229.59,277.618 229.742,279.151C229.792,279.608 229.117,279.342 228.99,279.621C228.716,281.107 228.599,282.747 228.047,283.953C226.516,283.991 226.212,285.259 225.411,286.026C225.136,289.405 228.265,293.839 228.142,296.949C228.087,298.344 227.07,299.279 226.447,300.434C225.865,300.637 225.243,300.612 224.469,300.811C223.857,300.968 223.195,301.507 222.773,301.47C222.138,301.415 220.984,299.762 220.513,299.209C215.798,293.687 212.591,285.665 210.06,278.396C209.507,279.312 208.066,279.762 208.458,281.317C207.777,282.958 206.423,283.927 205.539,285.366C205.243,285.508 204.941,285.647 204.597,285.742C204.101,287.361 203.156,288.843 202.714,290.64C202.281,292.403 201.978,294.251 201.396,296.008C201.342,296.406 201.766,296.329 201.772,296.668C201.345,297.47 201.326,299.376 201.49,300.34C201.189,301.514 201.195,302.995 201.019,304.296C200.95,304.54 200.637,304.541 200.453,304.673C198.942,313.552 197.117,322.116 194.992,330.382C194.956,330.858 195.705,330.547 195.744,330.947C195.505,332.717 195.759,334.979 194.71,335.939C194.373,341.08 193.62,346.587 194.331,351.76C194.228,352.159 193.554,351.987 193.296,352.231C194.913,352.73 194.653,355.805 195.933,356.939C195.954,357.368 195.775,357.598 195.65,357.881C196.2,358.159 197.042,357.833 197.817,357.976C199.644,358.314 202.874,360.678 205.446,361.744C205.956,361.954 206.587,362.064 206.952,362.403C207.339,362.764 207.449,363.444 207.704,363.722C208.59,364.682 210.481,365.038 211.001,366.264C211.318,367.009 211.337,368.094 211.378,368.807C213.941,370.518 219.411,368.542 221.361,370.878C221.943,371.575 221.726,372.765 222.492,373.517C222.206,374.485 222.271,375.807 222.02,376.812C217.976,378.687 213.185,380.551 207.14,380.295C204.343,380.178 201.609,379.887 198.759,379.73C198.522,379.622 198.462,379.336 198.288,379.166C196.548,378.99 194.73,378.895 193.013,378.695C192.575,378.6 192.659,377.982 192.26,377.849C191.232,378.262 190.302,378.777 189.058,378.977C188.684,379.2 188.721,379.833 188.493,380.201C182.042,380.508 174.714,380.87 169.658,379.071C169.845,377.845 169.515,376.476 169.94,375.304C170.091,374.889 170.6,374.637 170.695,374.27C170.806,373.828 170.675,373.269 170.695,372.857C170.84,369.543 171.341,366.494 172.294,363.816C172.3,363.434 171.653,363.704 171.73,363.25C171.777,361.225 172.363,359.738 172.577,357.881C172.433,357.423 172.922,357.599 173.048,357.411C172.988,350.114 174.296,342.915 173.99,334.431C174.05,333.965 173.486,334.121 173.519,333.679C173.689,332.216 173.546,330.443 173.896,329.157C173.251,326.788 173.058,323.969 172.294,321.718C172.475,318.563 171.937,313.896 172.107,310.04C172.234,307.152 172.558,304.276 173.236,301.659C173.439,300.875 173.851,300.136 173.99,299.303C174.046,298.964 173.939,298.595 173.99,298.268C174.449,295.368 176.169,292.941 176.345,289.886C176.893,289.792 177.097,289.866 177.474,289.792C178.068,284.955 180.202,281.157 179.735,275.571C180.247,274.887 180.324,273.873 180.3,273.029C180.23,270.532 179.847,267.746 179.546,265.117C179.4,263.83 179.247,262.519 179.075,261.257C178.851,259.613 178.503,258.201 178.605,256.737C178.733,254.887 178.284,252.73 177.946,250.803C176.987,245.359 175.771,239.496 175.496,233.475C174.329,233.563 173.607,234.096 172.2,233.946C171.865,233.598 172.635,233.826 172.484,233.381C172.189,231.384 171.755,229.024 171.825,226.976C171.771,226.714 171.46,226.713 171.259,226.6C172.134,225.938 173.394,225.657 174.65,225.375C173.337,219.856 171.942,214.854 170.318,209.554C169.805,207.884 169.455,205.963 168.622,204.562C167.831,203.235 166.605,202.043 165.609,200.795C163.131,197.692 160.927,194.218 159.958,189.683C159.775,188.826 159.921,187.717 159.581,186.763C159.444,186.377 158.929,186.05 158.734,185.728C158.415,185.199 158.298,184.397 157.886,183.654C157.235,182.484 156.486,181.263 155.814,179.888C155.304,178.843 154.532,178.064 154.495,176.591C154.488,176.275 154.64,175.872 154.589,175.555C154.469,174.805 153.837,174.112 154.025,173.202C153.98,172.79 153.674,172.82 153.554,172.448C153.444,172.11 153.583,171.62 153.459,171.223C153.22,170.457 152.432,169.831 152.329,168.869C152.245,168.089 152.367,167.443 152.8,166.61C152.715,165.881 152.669,164.111 153.459,163.689C153.582,163.19 153.187,163.208 153.271,162.748C153.618,161.776 153.706,160.546 154.589,160.111C154.718,159.862 154.7,159.469 154.779,159.169C154.915,159.024 155.26,159.086 155.531,159.075C155.067,158.162 155.822,157.224 155.343,155.872C155.091,155.685 154.513,155.824 154.212,155.685C153.38,154.132 151.348,152.481 151.952,150.411C143.751,141.836 135.12,133.719 127.089,124.889C125.951,123.637 124.652,122.471 123.888,120.933C123.617,120.827 123.333,120.736 123.134,120.557C122.455,119.29 121.611,118.189 120.968,116.883C118.829,116.049 118.228,109.148 119.838,106.807C120.185,106.303 120.984,105.694 121.533,105.111C123.058,103.499 124.972,101.484 126.431,100.026C126.25,99.799 126.371,99.269 126.336,98.896C127.441,97.613 128.263,96.051 130.481,95.882C132.132,94.173 133.923,93.092 135.66,91.644C136.268,91.138 136.714,90.486 137.45,90.138C137.777,89.982 138.091,90.005 138.486,89.855C139.488,89.471 140.339,88.61 141.406,87.971C143.426,86.762 145.728,85.978 147.904,84.863C148.917,84.344 150.152,83.664 150.823,83.074C151.408,82.56 151.808,81.614 152.329,80.908C155.797,76.219 160.432,71.752 167.962,71.301C163.242,59.668 158.254,48.299 153.177,37.022C153.644,36.267 154.548,35.91 155.531,35.421C156.255,35.061 157.666,34.181 158.45,34.385C159.043,34.539 159.334,35.831 159.581,36.362C159.964,37.189 160.464,37.768 160.335,38.528C160.911,39.118 161.692,40.386 161.464,41.166C162.135,41.736 162.671,42.887 162.689,43.803C163.3,44.416 163.878,45.744 163.819,46.439C164.403,47.065 164.984,48.14 164.949,49.076C165.501,49.614 166.236,50.898 165.986,51.619C166.614,52.186 167.372,53.513 167.116,54.35C167.827,54.83 168.429,56.215 168.245,56.987C168.97,57.472 169.399,58.697 169.375,59.624C169.967,60.138 170.63,61.454 170.411,62.167C171.019,62.695 171.718,64.011 171.448,64.804C172.122,65.235 172.722,66.615 172.484,67.347C173.083,67.956 173.734,68.962 173.613,69.984C173.992,70.137 174.095,70.569 174.367,70.831C175.965,70.044 177.933,69.626 179.452,68.759C180.093,67.949 179.902,67.012 180.112,65.84C180.159,65.572 180.367,65.35 180.394,65.086C180.508,63.999 180.117,62.855 180.206,61.695C180.27,60.858 180.673,59.863 180.582,58.494C180.355,55.097 179.423,51.721 179.263,48.228C178.974,41.847 179.318,35.206 181.053,30.617C182.204,27.574 184.148,25.306 185.763,22.518C188.677,21.321 191.054,19.882 194.898,19.599C197.544,19.404 200.255,19.757 202.337,20.447C204.427,21.138 206.06,22.488 207.894,23.178C209.049,23.612 209.89,23.674 210.531,24.684C211.251,25.821 211.613,27.57 212.038,29.111C213.337,33.833 213.236,39.773 212.603,45.121C212.181,48.68 211.816,52.252 211.001,55.292C210.162,58.424 208.691,61.053 207.894,63.956ZM227.952,153.612C228.087,153.887 228.35,154.032 228.802,153.989C228.988,153.804 228.861,153.451 228.802,153.236C228.464,153.08 227.865,153.074 227.952,153.612ZM201.866,53.691C203.075,55.414 207.399,55.145 207.611,52.75C205.634,52.266 203.317,53.026 201.866,53.691ZM220.513,243.174C221.045,243.119 221.218,243.213 221.455,242.986C221.923,242.535 221.716,242.23 221.55,241.573C223.361,238.129 225.13,234.311 226.634,230.555C227.318,228.852 227.745,226.883 228.706,225.846C229.032,224.32 229.471,222.906 229.649,221.232C229.822,220.965 230.034,220.739 230.214,220.478C230.132,219.443 230.81,218.798 231.061,218.217C231.888,216.314 232.14,214.008 232.757,212.002C234.645,205.855 237.066,200.551 240.48,195.991L240.29,195.991C238.316,196.085 235.591,197.026 233.886,196.18C232.399,196.544 230.879,196.877 229.273,197.123C228.899,198.653 227.572,198.606 225.599,198.818C223.974,198.992 222.617,199.278 221.831,198.724C219.394,199.487 216.847,200.142 214.203,200.701C214.546,207.122 213.886,213.23 213.638,218.877C213.584,220.118 213.713,221.339 213.638,222.551C213.564,223.769 213.179,224.948 213.074,226.128C212.808,229.099 213.007,232.057 212.886,234.982C212.739,238.446 212.784,241.896 212.32,245.341C213.273,245.372 214.288,245.105 215.427,245.153C215.511,244.605 215.096,244.225 215.522,243.833C217.083,243.861 218.778,243.353 220.513,243.174ZM187.645,51.431C187.742,53.823 192.172,54.856 193.767,53.125C192.096,52.302 190.083,50.866 187.645,51.431ZM150.07,111.798C149.417,112.253 148.842,113.155 147.904,113.023C150.117,117.185 151.371,121.841 153.366,126.113C155.353,130.37 157.366,134.528 159.675,138.356C160.939,136.637 162.365,135.08 163.724,133.459C163.159,131.692 163.654,129.821 163.253,127.808C163.124,127.158 162.527,126.288 162.218,125.454C161.9,124.591 161.674,123.614 161.37,122.817C160.744,121.173 159.39,119.814 159.111,118.108C159.046,117.718 159.156,117.362 159.111,116.977C158.886,115.082 158.333,113.32 157.886,111.798C157.697,111.156 157.538,110.398 157.038,109.914C154.544,110.371 152.681,111.459 150.07,111.798ZM203.279,76.011C203.757,76.255 204.325,76.408 204.879,76.575C205.561,74.383 207.964,75.276 209.778,75.728C208.503,73.517 207.476,71.059 206.2,68.853C205.251,71.336 202.07,72.195 203.279,76.011Z"/>
    </g>
    <g transform="matrix(1,0,0,1,-842.487,-39.0914)">
        <path d="M917.331,72.671C915.736,74.401 911.306,73.369 911.209,70.977C913.647,70.412 915.66,71.848 917.331,72.671ZM931.176,72.295C930.964,74.691 926.64,74.96 925.431,73.236C926.882,72.572 929.198,71.811 931.176,72.295Z" style="fill:white;"/>
    </g>
</svg>
