<?xml version="1.0" encoding="UTF-8" standalone="no"?>
<!DOCTYPE svg PUBLIC "-//W3C//DTD SVG 1.1//EN" "http://www.w3.org/Graphics/SVG/1.1/DTD/svg11.dtd">
<svg width="100%" height="100%" viewBox="0 0 902 1925" version="1.1" xmlns="http://www.w3.org/2000/svg" xmlns:xlink="http://www.w3.org/1999/xlink" xml:space="preserve" xmlns:serif="http://www.serif.com/" style="fill-rule:evenodd;clip-rule:evenodd;stroke-linejoin:round;stroke-miterlimit:2;">
    <g transform="matrix(1,0,0,1,-549.354,-37.0825)">
        <path d="M818.887,285.742L817.173,272.599C817.173,272.599 810.887,261.742 808.887,253.028C806.887,244.313 805.887,240.028 805.887,240.028C805.887,240.028 803.387,244.742 797.244,244.742C791.101,244.742 779.244,229.885 775.958,215.171C772.673,200.456 772.958,193.528 776.101,184.099C779.244,174.671 782.815,173.671 784.958,173.671C787.101,173.671 792.815,176.385 792.815,176.385C792.815,176.385 786.387,169.028 787.53,156.313C788.673,143.599 789.958,137.742 789.958,133.171C789.958,128.599 788.53,121.885 788.53,121.885L787.815,129.742C787.815,129.742 784.815,110.742 786.101,100.599C787.387,90.456 793.53,78.028 808.815,67.885C824.101,57.742 840.815,47.313 850.958,42.171C861.101,37.028 876.458,36.171 892.744,37.885C909.03,39.599 919.887,43.028 919.887,43.028L908.601,39.028C908.601,39.028 920.601,41.599 935.887,48.313C951.173,55.028 963.03,62.742 968.315,70.885C973.601,79.028 972.744,85.171 972.601,89.456C972.458,93.742 970.601,96.171 970.601,96.171C970.601,96.171 980.53,109.456 980.53,122.599C980.53,135.742 979.815,167.171 978.815,174.599C977.815,182.028 977.101,186.456 977.101,186.456C977.101,186.456 980.815,183.242 984.101,182.813C987.387,182.385 988.958,188.813 988.101,198.242C987.244,207.671 985.387,214.813 985.387,214.813C985.387,214.813 985.244,222.813 981.815,232.671C978.387,242.528 976.101,248.242 971.244,251.813C966.387,255.385 965.244,254.956 963.101,253.956C961.958,258.671 960.958,266.028 954.387,274.885C947.815,283.742 944.387,288.456 944.387,288.456L943.101,297.313C943.101,297.313 945.101,297.456 945.244,299.885C945.387,302.313 944.815,326.742 946.53,337.028C948.244,347.313 949.101,351.028 949.101,351.028C949.101,351.028 957.673,358.313 963.101,365.885C968.53,373.456 987.673,385.956 1008.67,393.528C1029.67,401.099 1050.89,408.171 1059.74,428.742C1068.6,449.313 1071.03,466.885 1075.32,495.456C1079.6,524.028 1080.32,549.242 1079.74,564.671C1079.17,580.099 1078.32,586.671 1077.6,595.099C1076.89,603.528 1075.03,635.313 1076.03,652.313C1077.03,669.313 1077.46,707.742 1077.46,707.742C1077.46,707.742 1084.89,724.171 1090.32,735.171C1095.74,746.171 1100.03,750.171 1103.17,759.171C1106.32,768.171 1102.89,765.007 1110.32,778.599C1117.74,792.191 1118.6,794.191 1120.89,800.762C1123.17,807.334 1128.6,813.048 1133.6,819.619C1138.6,826.191 1144.46,838.691 1145.74,844.405C1147.03,850.119 1150.32,857.262 1156.46,862.405C1162.6,867.548 1164.74,877.262 1169.46,884.119C1174.17,890.977 1175.89,896.548 1179.32,899.691C1182.74,902.834 1180.89,906.977 1180.89,906.977C1180.89,906.977 1184.89,917.405 1198.03,921.977C1211.17,926.548 1218.74,927.262 1218.74,927.262L1213.74,896.834L1216.89,896.262L1217.03,887.405C1217.03,887.405 1231.32,854.119 1232.46,852.119C1233.6,850.119 1238.74,848.262 1238.74,848.262L1238.74,845.405L1235.46,841.048L1235.6,832.334L1244.32,825.619C1244.32,825.619 1253.74,828.334 1254.17,829.619C1254.6,830.905 1254.32,832.619 1254.32,832.619L1257.6,833.762L1262.46,833.334C1262.46,833.334 1310.93,897.735 1354.74,963.171C1393.34,1020.82 1427.41,1079.27 1434.1,1095.19C1448.39,1129.19 1450.39,1136.05 1450.82,1141.9C1451.24,1147.76 1449.39,1148.05 1447.53,1150.48C1445.67,1152.9 1418.82,1174.9 1416.39,1176.48C1413.96,1178.05 1408.67,1177.19 1401.67,1174.05C1394.67,1170.9 1375.82,1160.62 1370.53,1153.05C1365.24,1145.48 1317.17,1083.48 1317.17,1083.48C1317.17,1083.48 1289.6,1083.33 1275.17,1088.62C1260.74,1093.9 1233.74,1102.9 1227.74,1105.76C1221.74,1108.62 1212.89,1107.05 1203.46,1096.19C1194.03,1085.33 1101.96,986.834 1099.67,982.977C1097.39,979.119 1094.1,969.477 1102.53,961.191C1110.96,952.905 1119.82,952.245 1127.1,951.762C1134.39,951.279 1139.82,950.994 1139.82,950.994C1139.82,950.994 1141.53,947.136 1138.67,943.708C1135.82,940.279 1134.53,939.565 1134.53,939.565C1134.53,939.565 1121.24,948.565 1117.53,949.565C1113.82,950.565 1111.1,948.994 1107.82,941.708C1104.53,934.422 1102.6,929.779 1094.03,918.494C1085.46,907.208 1082.6,891.994 1074.6,881.422C1066.6,870.851 1059.46,863.994 1047.74,846.136C1036.03,828.279 1025.17,806.779 1025.17,806.779L1022.03,825.922C1022.03,825.922 1021.46,828.208 1020.03,829.636C1019.6,832.636 1022.03,841.922 1025.46,850.494C1028.89,859.065 1029.46,864.136 1030.89,875.994C1032.32,887.851 1035.6,909.351 1038.6,928.779C1041.6,948.208 1045.32,1003.57 1046.46,1031.28C1047.6,1058.99 1045.03,1100.92 1043.89,1126.92C1042.74,1152.92 1038.32,1206.14 1036.17,1227.57C1034.03,1248.99 1030.6,1261.28 1030.6,1261.28C1030.6,1261.28 1032.89,1291.21 1033.17,1303.49C1033.46,1315.78 1030.6,1323.71 1030.6,1335.28C1030.6,1346.85 1031.74,1398.71 1032.46,1420.57C1033.17,1442.42 1034.32,1468.64 1036.32,1479.92C1038.32,1491.21 1036.74,1508.49 1038.32,1512.92C1039.89,1517.35 1045.32,1533.07 1046.46,1542.21C1047.6,1551.35 1050.17,1557.92 1052.6,1562.49C1055.03,1567.07 1056.46,1571.07 1058.6,1574.92C1060.74,1578.78 1055.74,1584.92 1055.74,1584.92C1055.74,1584.92 1059.03,1586.64 1058.32,1588.78C1057.6,1590.92 1057.03,1591.07 1057.03,1591.07L1063.03,1599.07C1063.03,1599.07 1070.32,1597.92 1071.17,1602.21C1072.03,1606.49 1071.03,1607.49 1071.03,1607.49C1071.03,1607.49 1076.89,1610.49 1079.32,1612.21C1081.74,1613.92 1082.17,1614.92 1082.17,1614.92C1082.17,1614.92 1088.6,1612.64 1089.74,1616.92C1090.89,1621.21 1090.17,1622.64 1090.17,1622.64L1105.6,1633.57L1105.6,1640.99C1105.6,1640.99 1118.17,1650.78 1145.32,1656.49C1172.46,1662.21 1185.46,1665.35 1192.46,1672.07C1199.46,1678.78 1200.89,1692.35 1200.89,1692.35C1200.89,1692.35 1207.6,1696.28 1207.74,1699.28C1207.89,1702.28 1207.74,1709.14 1207.74,1711.99C1207.74,1714.85 1169.34,1741.99 1118.46,1741.99C1067.58,1741.99 1037.93,1724.28 1034.08,1716.57C1019.08,1711.14 1007.36,1709.42 1007.36,1709.42L996.718,1719.07C996.718,1719.07 941.718,1713.49 935.003,1707.64C928.289,1701.78 929.003,1696.64 927.718,1689.35C926.432,1682.07 926.289,1677.07 925.432,1672.35C924.575,1667.64 929.575,1665.78 929.575,1665.78C929.575,1665.78 927.289,1658.21 927.289,1642.92C927.289,1627.64 933.432,1585.78 933.432,1585.78C933.432,1585.78 925.289,1575.92 926.432,1564.49C927.575,1553.07 927.289,1537.21 925.432,1524.21C923.575,1511.21 919.289,1459.92 919.861,1434.92C920.432,1409.92 922.146,1392.42 920.146,1366.71C918.146,1340.99 915.861,1323.71 910.432,1300.14C905.003,1276.57 897.289,1239.07 892.575,1218.07C887.861,1197.07 879.932,1157.21 879.932,1157.21C879.932,1157.21 869.218,1206.14 865.075,1233.28C860.932,1260.42 854.932,1306.85 852.218,1325.42C849.503,1343.99 845.075,1374.57 842.646,1393.57C840.218,1412.57 837.789,1432.14 837.789,1446.28C837.789,1460.42 833.503,1506.85 830.503,1517.99C827.503,1529.14 827.646,1537.99 827.646,1549.71C827.646,1561.42 826.503,1589.42 824.932,1611.42C823.361,1633.42 820.646,1661.35 820.646,1684.35L820.646,1728.14C820.646,1735.57 812.789,1741.28 812.789,1741.28C812.789,1741.28 819.646,1767.28 824.218,1794.85C828.789,1822.42 829.361,1834.85 829.361,1834.85C829.361,1834.85 836.361,1852.71 837.932,1861.99C839.503,1871.28 839.503,1872.99 839.503,1872.99C839.503,1872.99 843.646,1880.92 845.075,1892.92C846.503,1904.92 846.646,1907.49 846.646,1907.49C846.646,1907.49 852.503,1916.57 853.075,1922.42C853.646,1928.28 853.218,1937.14 853.218,1940.99C853.218,1944.85 829.003,1961.42 779.718,1961.42C730.432,1961.42 708.932,1950.85 708.932,1919.99C708.932,1889.14 710.789,1893.85 710.789,1893.85C710.789,1893.85 708.003,1859.09 708.003,1833.71C708.003,1808.33 715.003,1791.9 715.003,1791.9C715.003,1791.9 713.432,1779.33 713.432,1765.33L713.432,1748.47C713.432,1748.47 703.432,1743.04 703.432,1725.04C703.432,1707.04 703.289,1657.9 704.289,1632.9C705.289,1607.9 704.184,1563.04 704.146,1537.62C704.108,1512.19 704.003,1384.69 705.146,1361.54C706.289,1338.4 711.718,1265.4 714.575,1237.69C717.432,1209.97 724.146,1142.19 724.146,1121.19C724.146,1100.19 723.003,992.83 726.432,951.83C729.861,910.83 737.575,874.115 740.432,861.972C743.289,849.83 743.718,843.401 744.289,837.83C744.861,832.258 746.575,829.687 746.575,829.687C746.575,829.687 746.146,825.758 748.289,816.615C750.432,807.472 753.861,789.044 751.861,771.33C749.861,753.615 749.432,741.258 747.432,732.115C745.432,722.972 740.146,688.044 733.146,660.044C726.146,632.044 719.289,609.901 719.289,609.901C719.289,609.901 701.86,640.044 684.289,667.044C666.718,694.044 658.503,702.472 653.503,708.758C648.503,715.044 644.361,716.758 644.361,716.758C644.361,716.758 645.218,730.187 641.646,743.901C638.075,757.615 633.789,767.044 633.789,767.044C633.789,767.044 637.218,780.687 634.789,797.687C632.361,814.687 630.646,817.115 632.789,828.83C634.932,840.544 637.218,860.187 638.932,885.472C640.646,910.758 639.646,917.972 642.218,923.687C644.789,929.401 642.503,930.83 644.075,933.972C645.646,937.115 646.503,936.972 646.789,939.83C647.075,942.687 646.361,945.83 646.361,945.83C646.361,945.83 673.789,971.187 682.361,980.758C690.932,990.33 692.361,990.528 690.932,1000C689.503,1009.47 690.503,1016.9 690.503,1016.9C690.503,1016.9 694.932,1025.76 694.932,1033.62C694.932,1041.47 689.646,1043.19 687.789,1045.04C685.932,1046.9 678.218,1044.33 678.218,1044.33C678.218,1044.33 677.646,1053.33 670.932,1055.04C664.218,1056.76 655.646,1052.19 655.646,1052.19C655.646,1052.19 654.075,1056.33 647.646,1056.33C641.218,1056.33 635.789,1051.62 635.789,1051.62C635.789,1051.62 633.789,1054.33 630.075,1054.33C626.361,1054.33 608.646,1046.76 602.646,1039.19C596.646,1031.62 596.218,1031.62 592.646,1019.19C589.075,1006.76 583.932,1000.47 583.932,984.615C583.932,968.758 581.646,966.901 581.646,966.901C581.646,966.901 553.503,969.83 553.503,957.115C553.503,944.401 554.361,904.33 554.932,889.758C555.503,875.187 557.075,826.115 557.075,826.115C557.075,826.115 551.932,787.401 550.218,767.401C548.503,747.401 549.503,711.615 551.789,698.615C554.075,685.615 557.075,682.044 561.361,677.758C565.646,673.472 571.789,664.187 576.218,651.615C580.646,639.044 594.932,607.258 604.503,588.687C614.075,570.115 618.146,567.187 633.003,530.472C647.861,493.758 655.932,478.901 664.218,462.33C672.503,445.758 681.075,427.544 688.218,417.544C695.361,407.544 702.789,405.115 702.789,405.115C702.789,405.115 706.003,401.401 719.575,395.83C733.146,390.258 750.432,384.544 763.432,376.687C776.432,368.83 782.361,366.83 789.361,355.83C796.361,344.83 800.218,345.83 800.218,345.83C800.218,345.83 804.718,334.401 809.861,315.401C815.003,296.401 816.003,287.258 816.146,286.83C816.289,286.401 818.887,285.742 818.887,285.742ZM1239.65,997.687C1239.65,997.687 1240.29,1007.4 1238.29,1013.75C1236.29,1020.1 1233.15,1022.33 1228,1022.47C1222.86,1022.62 1217.29,1016.9 1217.29,1016.9C1217.29,1016.9 1217.58,1021.9 1215.86,1026.9C1214.15,1031.9 1210.86,1033.9 1206.86,1034.33C1202.86,1034.76 1195.43,1025.19 1195.43,1025.19C1195.43,1025.19 1195.58,1027.19 1193.72,1031.12C1191.86,1035.04 1192,1038.62 1186.58,1040.19C1181.15,1041.76 1179.29,1037.04 1174.43,1031.12C1169.58,1025.19 1170.15,1016.33 1170.15,1016.33C1170.15,1016.33 1165.43,1014.04 1161.15,1013.75C1156.86,1013.45 1153.43,1014.9 1156.58,1019.19C1159.72,1023.47 1201.72,1075.76 1209.43,1084.19C1217.15,1092.62 1225.29,1090.33 1229.86,1089.19C1234.43,1088.04 1265.5,1075.97 1268.36,1074.4C1271.22,1072.83 1269.08,1066.97 1269.08,1061.69C1269.08,1056.4 1266.08,1041.83 1262.22,1028.69C1258.36,1015.54 1242.08,997.687 1242.08,997.687L1239.65,997.687ZM1271.43,1031.26C1271.43,1031.26 1271.43,1033.83 1272.72,1040.83C1274,1047.83 1280.86,1072.4 1280.86,1072.4C1280.86,1072.4 1299.58,1070.12 1303,1069.26C1306.43,1068.4 1308.29,1068.54 1311.15,1065.4C1314,1062.26 1319.43,1056.26 1322.29,1053.69C1325.15,1051.12 1324.86,1048.54 1323.58,1045.4C1322.29,1042.26 1315.58,1031.12 1315.58,1031.12C1315.58,1031.12 1311.72,1039.12 1309.65,1042.97C1307.58,1046.83 1305,1046.69 1302.86,1045.4C1300.72,1044.12 1271.43,1031.26 1271.43,1031.26ZM1257.58,1007.4C1257.58,1007.4 1267.86,1020.12 1269.29,1021.97C1270.72,1023.83 1289.86,1031.26 1295.58,1034.12C1301.29,1036.97 1303.29,1037.4 1304.86,1035.54C1306.43,1033.69 1307.58,1031.26 1309,1028.69C1310.43,1026.12 1309.29,1023.26 1307.58,1020.12C1305.86,1016.97 1285.86,991.115 1285.86,991.115L1280.15,990.83C1280.15,990.83 1281.15,999.544 1277.43,1007.26C1273.72,1014.97 1272.58,1013.12 1268.29,1012.26C1264,1011.4 1257.58,1007.4 1257.58,1007.4Z"/>
    </g>
    <g transform="matrix(1,0,0,1,-550.354,-36.0825)">
        <path d="M934.134,523.853C934.134,523.853 906.604,504.426 898.301,491.687C886.134,473.02 888.301,457.353 888.301,457.353L896.134,465.02C896.134,465.02 895.004,459.782 895.087,457.019C895.16,454.625 896.634,448.437 896.634,448.437C896.634,448.437 898.422,451.882 899.533,453.215C900.591,454.485 903.301,456.437 903.301,456.437C903.301,456.437 902.591,450.517 902.73,447.683C902.865,444.934 904.134,439.437 904.134,439.437C904.134,439.437 907.333,443.973 909.055,445.611C910.778,447.25 914.468,449.27 914.468,449.27C914.468,449.27 914.301,445.687 915.468,440.353C916.634,435.02 920.301,429.187 920.301,429.187C920.301,429.187 926.801,434.02 929.801,440.353C932.801,446.687 933.134,450.52 933.134,450.52C933.134,450.52 935.277,448.065 936.11,446.537C936.84,445.198 938.134,441.353 938.134,441.353C938.134,441.353 941.968,445.52 942.968,449.687C943.824,453.256 943.134,457.187 943.134,457.187C943.134,457.187 946.723,454.863 947.917,453.641C948.934,452.601 950.301,449.853 950.301,449.853C950.301,449.853 952.801,454.52 953.634,458.187C954.468,461.853 954.468,463.187 954.468,463.187L958.968,458.353C958.968,458.353 963.468,475.687 961.634,487.52C959.801,499.353 934.134,523.853 934.134,523.853Z" style="fill:white;"/>
    </g>
</svg>
