<?xml version="1.0" encoding="UTF-8" standalone="no"?>
<!DOCTYPE svg PUBLIC "-//W3C//DTD SVG 1.1//EN" "http://www.w3.org/Graphics/SVG/1.1/DTD/svg11.dtd">
<svg width="100%" height="100%" viewBox="0 0 400 363" version="1.1" xmlns="http://www.w3.org/2000/svg" xmlns:xlink="http://www.w3.org/1999/xlink" xml:space="preserve" xmlns:serif="http://www.serif.com/" style="fill-rule:evenodd;clip-rule:evenodd;stroke-linejoin:round;stroke-miterlimit:2;">
    <g transform="matrix(0.608854,0,0,0.608854,33.8141,69.5952)">
        <path d="M0,6.839C0,6.839 -3.51,2.768 -4.781,1.634C-6.052,0.499 -6.551,-2.45 -7.05,-2.45C-7.549,-2.45 -7.776,-0.862 -7.503,1.634C-7.231,4.13 -6.051,9.289 -6.051,9.289L0,6.839Z" style="fill:white;fill-rule:nonzero;"/>
    </g>
    <g transform="matrix(0.608854,0,0,0.608854,277.904,100.726)">
        <path d="M0,264.409C-1.615,266.024 -3.229,265.701 -1.776,267.801C-0.323,269.9 -0.969,270.223 -2.1,271.353C-3.229,272.484 -4.037,277.007 -4.037,279.43C-4.037,281.852 -5.007,286.859 -4.522,288.636C-4.037,290.412 -4.038,292.674 -5.814,296.388C-7.591,300.102 -13.243,311.57 -16.958,318.031C-20.673,324.491 -30.525,337.089 -34.078,342.096C-37.631,347.102 -44.092,355.178 -47.321,358.085C-50.552,360.992 -61.05,365.676 -61.05,365.676C-61.05,365.676 -64.765,356.308 -67.672,353.401C-70.579,350.494 -71.225,349.525 -72.679,349.686C-74.132,349.848 -73.647,352.917 -73.647,352.917C-73.647,352.917 -74.455,352.755 -75.424,352.594C-76.394,352.432 -78.006,352.756 -78.006,352.756C-78.006,352.756 -74.614,344.357 -70.253,332.083C-65.893,319.808 -53.619,302.203 -51.035,299.619C-48.451,297.035 -47.967,292.513 -47.805,290.252C-47.644,287.991 -46.352,283.792 -46.998,282.177C-47.644,280.561 -48.129,277.493 -51.197,275.07C-54.266,272.648 -77.362,246.805 -82.369,237.922C-87.375,229.039 -100.962,201.421 -101.123,198.999C-101.285,196.576 -103.385,186.886 -103.385,186.886C-103.385,186.886 -87.537,188.501 -75.101,188.662C-62.665,188.824 -47.321,185.594 -47.321,185.594C-47.321,185.594 -47.806,188.015 -44.414,192.054C-41.022,196.092 -38.115,202.067 -34.563,207.235C-31.01,212.403 -26.487,219.026 -25.68,221.771C-24.872,224.516 -19.703,230.653 -17.604,233.076C-15.504,235.5 -12.436,239.053 -11.144,241.313C-9.852,243.575 -8.074,247.612 -6.783,249.874C-5.491,252.135 -3.553,254.557 -2.584,255.849C-1.615,257.141 0.323,259.725 1.131,260.856C1.938,261.986 1.616,262.795 0,264.409M199.272,138.956C198.496,136.783 195.081,133.679 190.27,128.246C185.459,122.813 174.593,110.861 164.969,101.548C155.345,92.235 144.79,80.904 130.199,67.866C115.609,54.827 100.862,47.687 89.997,41.944C79.131,36.201 58.176,23.628 56.935,23.162C55.692,22.696 55.692,18.505 54.296,18.505C52.898,18.505 51.968,20.057 51.968,20.057C51.968,20.057 48.397,18.505 46.225,17.729C44.051,16.953 29.926,9.813 28.529,9.503C27.133,9.192 26.822,3.604 26.822,3.604L23.39,6.554L18.439,3.604C18.439,3.604 15.18,-8.192 11.145,-13.004C7.109,-17.816 -3.446,-24.8 -12.604,-31.165C-21.762,-37.529 -38.215,-45.445 -46.752,-46.687C-55.289,-47.928 -66.311,-42.651 -66.311,-42.651C-66.311,-42.651 -70.036,-44.203 -73.295,-45.756C-76.554,-47.308 -85.713,-49.325 -88.507,-50.257C-91.301,-51.188 -93.629,-57.397 -96.578,-57.397C-99.527,-57.397 -99.838,-53.362 -99.838,-53.362C-99.838,-53.362 -103.563,-53.672 -107.443,-54.448C-111.324,-55.224 -123.897,-57.398 -124.673,-58.018C-125.449,-58.639 -131.503,-63.761 -132.279,-63.761C-133.055,-63.761 -133.521,-58.174 -133.521,-58.174C-133.521,-58.174 -137.557,-57.863 -142.679,-59.105C-147.801,-60.347 -156.804,-59.57 -156.804,-59.57C-156.804,-59.57 -164.875,-65.934 -166.738,-65.624C-168.6,-65.314 -168.445,-60.657 -168.445,-60.657L-176.051,-60.657C-179,-60.657 -182.57,-59.881 -190.176,-59.416C-197.782,-58.95 -196.695,-60.813 -199.179,-62.52C-201.662,-64.227 -203.214,-68.263 -205.232,-68.108C-207.25,-67.953 -207.095,-64.538 -207.095,-64.538C-207.095,-64.538 -208.802,-67.176 -210.199,-69.349C-211.596,-71.522 -213.459,-74.161 -216.408,-76.955C-219.357,-79.749 -225.566,-83.164 -228.36,-87.045C-231.154,-90.925 -232.706,-95.426 -236.276,-98.841C-239.846,-102.256 -243.416,-104.585 -246.21,-107.223C-249.004,-109.862 -256.61,-117.313 -264.836,-124.608C-273.063,-131.903 -278.496,-131.282 -278.496,-131.282C-278.496,-131.282 -279.117,-132.679 -283.308,-135.318C-287.499,-137.957 -294.328,-142.303 -294.328,-142.303C-294.328,-142.303 -293.242,-144.942 -297.898,-150.685C-302.555,-156.428 -313.265,-152.082 -313.265,-152.082C-313.265,-152.082 -317.611,-153.168 -319.164,-154.565C-320.716,-155.962 -325.217,-159.377 -328.166,-162.636C-331.115,-165.896 -334.064,-165.276 -336.237,-165.431C-338.411,-165.586 -346.637,-162.482 -352.69,-159.843C-358.744,-157.204 -360.607,-156.738 -364.021,-156.583C-367.437,-156.428 -378.612,-157.36 -384.511,-157.36C-390.409,-157.36 -393.048,-155.497 -396.928,-154.255C-400.809,-153.013 -406.707,-148.046 -411.984,-147.425C-417.262,-146.804 -419.901,-145.717 -425.333,-142.613C-430.766,-139.509 -439.769,-133.3 -443.649,-131.438C-447.53,-129.575 -447.375,-123.366 -448.617,-121.503C-449.858,-119.64 -450.479,-114.674 -450.634,-111.414C-450.79,-108.154 -452.342,-105.05 -454.205,-101.791C-456.067,-98.531 -455.912,-96.979 -456.377,-92.633C-456.843,-88.287 -454.515,-86.113 -454.515,-86.113C-454.515,-86.113 -454.98,-85.803 -455.136,-84.251C-455.291,-82.698 -453.273,-80.215 -449.083,-77.576C-444.892,-74.938 -442.408,-74.627 -436.665,-74.782C-430.922,-74.938 -419.746,-74.472 -417.573,-77.111C-415.4,-79.749 -414.624,-78.818 -409.967,-79.129C-405.311,-79.439 -403.758,-80.991 -400.033,-82.543C-396.308,-84.095 -388.392,-84.561 -387.926,-85.027C-387.926,-85.027 -384.979,-82.699 -383.583,-81.147C-382.186,-79.594 -378.15,-76.955 -378.15,-76.955C-378.15,-76.955 -379.081,-73.851 -377.839,-72.454C-376.598,-71.057 -377.374,-69.66 -378.46,-66.711C-379.547,-63.761 -377.063,-61.278 -377.063,-61.278C-377.063,-61.278 -382.651,-59.26 -387.152,-56.622C-391.654,-53.983 -390.567,-52.896 -395.224,-48.705C-399.881,-44.515 -402.054,-45.446 -411.367,-40.945C-420.68,-36.443 -422.853,-31.786 -429.838,-24.957C-436.823,-18.127 -436.202,-17.972 -436.978,-16.575C-437.754,-15.178 -436.668,-13.16 -434.65,-11.608C-432.632,-10.056 -429.062,-7.572 -426.889,-5.244C-424.716,-2.916 -420.37,0.965 -419.283,1.896C-418.197,2.827 -416.334,4.069 -411.988,4.973C-407.238,5.962 -404.692,3.293 -402.83,2.052C-400.967,0.81 -399.881,2.362 -395.224,0.034C-390.567,-2.295 -389.947,-4.313 -389.947,-4.313C-389.947,-4.313 -388.86,-4.313 -386.842,-4.779C-384.824,-5.244 -384.204,-5.554 -381.41,-7.107C-378.616,-8.659 -372.717,-11.918 -368.992,-13.936C-365.267,-15.954 -363.404,-17.972 -361.386,-19.369C-359.368,-20.766 -357.506,-22.008 -352.229,-22.318C-346.951,-22.629 -344.778,-24.026 -342.139,-25.578C-339.5,-27.13 -337.948,-25.578 -336.707,-25.888C-335.464,-26.198 -330.342,-26.82 -326.617,-28.216C-322.892,-29.613 -323.202,-28.837 -319.012,-29.303C-314.821,-29.769 -310.009,-29.613 -307.37,-31.321C-304.731,-33.029 -300.54,-31.476 -300.54,-31.476C-300.54,-31.476 -298.211,-25.423 -297.59,-23.56C-296.969,-21.697 -293.399,-19.679 -289.364,-17.661C-285.328,-15.643 -286.725,-14.091 -286.57,-12.384C-286.415,-10.676 -284.086,-5.554 -282.068,-3.381C-280.05,-1.208 -283.465,0.345 -283.776,2.983C-284.086,5.622 -285.483,9.347 -284.086,13.228C-282.689,17.108 -282.224,16.642 -283.155,18.35C-284.086,20.057 -283,22.541 -283.465,24.714C-283.931,26.887 -283.155,28.129 -283.931,30.613C-284.707,33.096 -284.552,34.337 -285.018,37.286C-285.483,40.236 -285.482,42.565 -285.482,42.565C-285.482,42.565 -288.276,47.066 -290.45,49.705C-292.623,52.344 -293.864,57 -295.106,59.484C-296.348,61.967 -296.969,61.346 -299.142,63.054C-301.315,64.761 -301.625,66.313 -302.557,68.641C-303.488,70.97 -305.04,73.608 -306.126,74.385C-307.213,75.16 -307.523,77.8 -307.368,79.041C-307.213,80.283 -306.282,82.766 -307.834,84.163C-309.386,85.56 -307.058,87.733 -307.058,87.733C-307.058,87.733 -307.523,92.235 -306.748,92.235C-305.971,92.235 -303.954,88.975 -303.954,88.975C-303.954,88.975 -302.712,88.665 -301.47,87.423C-300.229,86.181 -300.539,84.629 -300.539,82.611C-300.539,80.594 -298.21,81.991 -298.055,82.456C-297.9,82.922 -297.9,84.939 -296.969,86.647C-296.037,88.354 -296.037,89.751 -296.037,90.682C-296.037,91.614 -293.554,92.39 -293.554,92.39C-293.554,92.39 -293.554,93.787 -291.226,95.494C-288.897,97.202 -286.724,97.823 -285.948,96.891C-285.172,95.96 -287.656,95.494 -287.966,94.253C-288.276,93.011 -289.208,91.614 -289.053,90.062C-288.897,88.51 -289.363,88.354 -290.605,86.492C-291.847,84.629 -290.139,83.388 -290.605,81.835C-291.07,80.283 -290.915,77.8 -290.45,76.092C-289.984,74.385 -286.569,70.194 -286.724,68.176C-286.879,66.158 -285.017,65.382 -282.223,64.295C-279.429,63.209 -276.945,61.035 -274.772,59.794C-272.599,58.552 -269.495,57.621 -267.787,54.362C-266.08,51.102 -265.77,46.756 -264.683,46.756C-263.597,46.756 -262.976,49.394 -262.355,50.326C-261.734,51.257 -258.164,56.069 -252.886,62.278C-247.609,68.486 -242.952,71.125 -234.726,76.092C-226.499,81.059 -217.962,83.388 -208.494,86.492C-199.025,89.596 -196.231,95.339 -192.972,100.306C-189.712,105.274 -180.709,118.312 -176.673,122.658C-172.638,127.004 -174.035,130.264 -174.035,131.971C-174.035,133.679 -174.655,140.973 -175.276,152.926C-175.897,164.878 -174.345,169.223 -173.569,183.659C-172.793,198.094 -169.378,197.474 -167.515,199.958C-165.652,202.441 -164.256,205.235 -162.083,208.961C-159.91,212.686 -156.184,214.704 -156.184,214.704C-156.184,214.704 -156.184,215.945 -154.787,218.119C-153.39,220.292 -149.665,226.035 -141.128,235.503C-132.591,244.971 -99.529,274.464 -93.165,282.069C-86.801,289.676 -85.715,290.762 -85.715,290.762C-85.715,290.762 -86.956,293.555 -86.646,295.263C-86.335,296.97 -86.49,299.299 -89.439,304.11C-92.389,308.923 -94.252,311.251 -99.685,315.442C-105.117,319.633 -130.729,345.089 -133.212,346.952C-135.695,348.814 -142.37,355.643 -147.647,359.369C-152.925,363.095 -159.6,366.199 -159.6,366.199C-159.6,366.199 -163.014,357.166 -165.342,353.161C-167.671,349.156 -173.104,342.917 -174.811,343.072C-176.518,343.227 -176.208,347.573 -176.363,350.367C-176.518,353.161 -177.45,362.474 -177.45,362.474C-177.45,362.474 -178.226,359.215 -179.002,357.973C-179.778,356.731 -184.9,344.934 -188.16,345.555C-191.419,346.177 -190.177,353.316 -191.109,361.232C-192.04,369.149 -193.282,374.427 -193.282,374.427L-196.697,375.823C-196.697,375.823 -199.956,365.578 -202.905,359.059C-205.854,352.541 -211.443,349.901 -213.305,351.143C-215.167,352.385 -214.236,357.166 -213.771,364.492C-213.305,371.818 -214.392,381.566 -214.392,381.566C-214.392,381.566 -216.099,383.119 -217.03,384.671C-217.961,386.223 -216.099,391.811 -214.857,398.796C-213.615,405.781 -205.544,409.35 -197.938,414.317C-190.332,419.285 -170.309,420.992 -156.96,421.147C-143.611,421.303 -110.239,420.372 -110.239,420.372C-110.239,420.372 -108.065,420.992 -106.514,421.458C-104.961,421.924 -102.012,422.854 -94.717,425.493C-87.421,428.132 -75.314,429.063 -65.69,429.684C-56.066,430.305 -45.668,428.908 -37.13,428.133C-28.593,427.357 4.314,425.338 5.245,424.097C6.177,422.854 9.281,409.35 8.815,403.452C8.35,397.555 8.505,389.482 8.194,387.154C7.884,384.825 8.815,371.941 9.592,364.491C10.368,357.041 17.353,333.292 20.768,322.737C24.182,312.181 23.39,307.99 23.39,307.99C23.39,307.99 23.39,307.524 25.424,305.817C27.459,304.11 28.529,301.161 28.684,298.832C28.839,296.504 29.926,297.28 31.322,295.573C32.72,293.865 32.409,292.158 32.409,292.158C32.409,292.158 34.117,290.606 35.048,289.364C35.979,288.123 35.979,286.57 35.979,286.57C35.979,286.57 37.066,285.638 38.152,284.242C39.239,282.845 39.238,281.138 39.238,281.138C39.238,281.138 40.015,280.361 40.946,278.033C41.877,275.705 42.499,271.513 41.723,268.098C40.946,264.684 36.756,259.406 35.203,257.388C33.651,255.371 32.254,253.973 29.46,249.317C26.666,244.66 23.39,234.105 21.544,228.362C19.698,222.619 19.681,208.494 20.146,204.148C20.612,199.803 21.233,186.298 21.389,181.02C21.544,175.742 21.233,163.636 20.923,157.892C20.612,152.149 19.061,149.666 16.887,147.182C14.714,144.698 8.816,139.888 8.195,138.335C7.574,136.783 8.816,135.386 9.902,132.437C10.989,129.488 10.058,125.452 10.213,124.987C10.368,124.521 15.335,111.793 16.422,110.706C17.509,109.62 27.287,101.393 35.979,98.599C44.672,95.805 65.473,97.978 84.72,100.772C103.967,103.566 120.109,106.67 134.079,112.724C148.049,118.778 160.467,126.694 172.419,133.834C184.371,140.973 189.805,143.612 196.323,144.233C202.842,144.854 200.049,141.129 199.272,138.956" style="fill-rule:nonzero;"/>
    </g>
    <g transform="matrix(0.608854,0,0,0.608854,44.6736,81.7248)">
        <path d="M0,-50.281C1.1,-48.482 5.298,-45.683 6.498,-46.482C7.697,-47.282 6.498,-51.581 6.098,-54.48C5.698,-57.379 5.075,-56.456 2.899,-56.279C-0.8,-55.979 -1.1,-52.08 0,-50.281M-6.998,-52.88C-6.498,-51.981 -3.399,-49.181 -2.799,-49.281C-2.199,-49.382 -2.399,-51.581 -2.699,-52.88C-3,-54.18 -4.504,-55.428 -5.698,-55.28C-7.298,-55.08 -7.498,-53.78 -6.998,-52.88M-14.496,-52.48C-13.296,-51.481 -10.297,-48.482 -9.997,-48.781C-9.697,-49.082 -9.297,-50.581 -9.897,-51.781C-10.497,-52.98 -12.41,-55.836 -13.296,-55.679C-14.996,-55.379 -15.695,-53.48 -14.496,-52.48M-24.192,-51.381C-23.393,-49.981 -20.293,-46.282 -19.794,-46.682C-19.294,-47.082 -19.394,-50.781 -19.494,-51.881C-19.594,-52.98 -19.992,-55.656 -21.693,-55.579C-23.893,-55.48 -24.992,-52.78 -24.192,-51.381M-31.39,-53.18C-30.39,-51.281 -28.991,-49.281 -28.091,-49.482C-27.191,-49.681 -27.791,-52.58 -27.791,-53.98C-27.791,-55.38 -28.588,-56.948 -29.69,-56.879C-31.29,-56.779 -32.39,-55.079 -31.39,-53.18M-39.487,-51.281C-37.987,-48.681 -35.389,-46.982 -34.789,-47.282C-34.189,-47.582 -34.589,-51.481 -34.689,-52.78C-34.789,-54.08 -34.925,-56.888 -36.988,-57.279C-40.687,-57.979 -40.987,-53.88 -39.487,-51.281M-46.885,-52.281C-45.685,-48.981 -42.586,-47.882 -41.986,-48.382C-41.387,-48.882 -42.187,-52.08 -42.286,-54.18C-42.386,-56.279 -43.107,-56.982 -44.485,-57.179C-47.285,-57.579 -48.084,-55.579 -46.885,-52.281M-55.182,-53.58C-54.683,-50.981 -52.283,-47.982 -51.683,-48.182C-51.083,-48.382 -51.583,-53.58 -51.083,-54.88C-50.584,-56.179 -51.346,-57.998 -52.783,-58.379C-56.182,-59.279 -55.682,-56.179 -55.182,-53.58M-63.279,-56.679C-62.68,-54.78 -60.581,-51.181 -59.88,-51.381C-59.181,-51.58 -59.081,-54.38 -59.081,-56.379C-59.081,-58.378 -60,-59.673 -61.48,-60.378C-63.58,-61.378 -63.879,-58.578 -63.279,-56.679M-70.477,-55.079C-70.477,-55.079 -70.777,-53.08 -70.577,-52.18C-70.377,-51.281 -69.277,-49.681 -68.678,-49.681C-68.078,-49.681 -68.377,-54.88 -68.377,-54.88C-68.377,-54.88 -67.278,-56.079 -67.178,-58.578C-67.078,-61.077 -69.084,-61.397 -70.077,-61.278C-75.075,-60.678 -70.477,-55.079 -70.477,-55.079M-67.926,-49.541C-68.925,-49.541 -69.786,-48.304 -68.325,-45.843C-67.615,-44.644 -67.126,-43.343 -66.626,-43.343C-66.126,-43.343 -66.426,-46.442 -66.426,-46.442C-66.426,-46.442 -66.926,-49.541 -67.926,-49.541M-64.493,-47.573C-65.492,-47.673 -65.992,-46.773 -65.292,-44.974C-64.592,-43.175 -64.393,-40.875 -63.792,-41.075C-63.193,-41.275 -63.792,-45.274 -63.792,-45.274C-63.792,-45.274 -63.493,-47.473 -64.493,-47.573M-61.473,-46.269C-62.473,-46.269 -62.873,-44.669 -62.273,-42.77C-61.674,-40.87 -60.374,-37.771 -59.674,-37.971C-58.974,-38.171 -59.274,-42.969 -59.574,-44.569C-59.574,-44.569 -60.474,-46.269 -61.473,-46.269M-57.681,-45.513C-59.181,-45.413 -58.981,-43.913 -58.181,-42.114C-57.381,-40.315 -56.382,-38.715 -55.782,-38.915C-55.182,-39.115 -56.481,-42.513 -56.481,-43.513C-56.481,-43.513 -56.182,-45.613 -57.681,-45.513M-53.483,-45.113C-54.982,-45.113 -54.583,-43.413 -53.982,-40.914C-53.383,-38.415 -51.583,-34.716 -50.684,-34.916C-49.784,-35.116 -50.583,-37.915 -50.983,-38.815C-51.383,-39.715 -51.683,-42.814 -51.783,-44.513C-51.783,-44.513 -51.983,-45.113 -53.483,-45.113M-47.984,-45.013C-49.784,-44.813 -49.284,-43.614 -48.884,-41.314C-48.484,-39.014 -46.485,-35.716 -45.785,-36.116C-45.086,-36.516 -45.485,-37.515 -45.685,-38.215C-45.885,-38.915 -46.185,-41.914 -46.185,-44.213C-46.185,-44.213 -46.185,-45.213 -47.984,-45.013M-43.086,-44.913C-44.585,-44.913 -43.786,-43.313 -43.086,-40.514C-42.386,-37.715 -40.087,-36.416 -39.987,-36.716C-39.887,-37.015 -39.987,-38.215 -40.587,-39.715C-41.187,-41.214 -41.187,-42.714 -41.087,-43.813C-41.087,-43.813 -41.586,-44.913 -43.086,-44.913M-38.388,-45.313C-39.688,-44.813 -38.888,-42.314 -37.788,-40.215C-36.688,-38.115 -34.689,-35.916 -33.889,-36.216C-33.089,-36.515 -34.889,-39.215 -35.389,-41.714C-35.888,-44.213 -35.389,-45.412 -35.389,-45.412C-35.389,-45.412 -37.088,-45.813 -38.388,-45.313M15.59,-27.045C14.683,-27.816 13.276,-30.267 12.369,-31.356C11.461,-32.445 10.599,-30.403 10.19,-29.495C9.782,-28.588 8.965,-24.141 8.965,-24.141C8.965,-24.141 6.454,-27.174 5.925,-26.909C4.835,-26.364 5.199,-23.596 5.562,-19.512C5.925,-15.428 8.103,-16.653 9.601,-17.152C11.098,-17.651 11.37,-19.83 11.37,-19.83C11.37,-19.83 12.459,-19.648 13.639,-20.329C14.819,-21.01 16.271,-22.053 16.906,-24.05C17.542,-26.047 16.498,-26.273 15.59,-27.045M1.568,-20.51C1.205,-21.826 0.863,-24.261 0.207,-24.005C-1.88,-23.188 -3.378,-18.468 -2.833,-15.61C-2.289,-12.751 0.797,-13.023 1.841,-13.613C2.884,-14.203 3.475,-15.7 3.248,-16.336C3.02,-16.971 1.932,-19.195 1.568,-20.51M-5.012,-18.605C-5.103,-20.647 -4.558,-22.053 -5.102,-22.144C-5.646,-22.235 -6.6,-21.645 -7.87,-20.148C-9.141,-18.65 -9.595,-16.881 -9.413,-14.113C-9.231,-11.344 -7.703,-10.812 -6.055,-10.89C-5.102,-10.936 -4.421,-11.163 -3.695,-11.889C-2.97,-12.615 -2.924,-13.296 -3.423,-13.931C-3.922,-14.567 -4.921,-16.563 -5.012,-18.605M-11.047,-16.881C-11.274,-17.38 -12.181,-16.654 -13.18,-15.383C-14.178,-14.113 -14.949,-11.889 -14.632,-9.802C-14.314,-7.715 -12.862,-7.805 -11.274,-8.486C-11.274,-8.486 -9.731,-9.212 -9.822,-10.391C-9.913,-11.572 -10.684,-11.753 -10.956,-12.751C-11.229,-13.75 -10.82,-16.382 -11.047,-16.881M-21.846,-6.989C-21.655,-5.712 -20.258,-5.763 -18.08,-5.99C-15.901,-6.218 -15.175,-7.533 -15.448,-8.078C-15.72,-8.622 -16.264,-10.891 -15.992,-14.657C-15.72,-18.424 -17.002,-17.067 -17.395,-16.748C-18.082,-16.191 -22.678,-12.57 -21.846,-6.989M-24.659,-6.717C-24.205,-5.809 -23.297,-4.72 -25.203,-3.223C-27.109,-1.725 -28.017,-1.635 -28.788,-2.134C-29.56,-2.633 -30.195,-4.403 -30.376,-5.401C-30.558,-6.4 -30.604,-7.034 -30.604,-7.034L-32.237,-5.718C-32.237,-5.718 -31.964,-3.813 -31.42,-3.132C-30.875,-2.451 -30.83,-0.636 -32.282,0.498C-33.734,1.633 -35.232,1.497 -36.23,0.77C-37.229,0.044 -37.818,-0.954 -37.818,-0.954L-38.771,0.18C-38.771,0.18 -37.773,1.678 -39.18,2.994C-40.586,4.31 -43.082,3.764 -43.082,3.764C-43.082,3.764 -47.075,7.894 -47.983,8.529C-48.89,9.164 -50.66,11.116 -52.793,7.531C-54.926,3.946 -55.017,2.448 -55.017,1.087C-55.017,-0.274 -54.926,-1.772 -54.608,-1.863C-54.29,-1.953 -53.201,0.452 -52.974,0.452C-52.747,0.452 -52.021,0.27 -51.885,-1.273C-51.749,-2.815 -51.704,-4.313 -51.341,-4.313C-50.978,-4.313 -49.662,-2.316 -49.435,-2.316C-49.208,-2.316 -48.708,-5.901 -48.391,-5.901C-48.074,-5.901 -46.894,-4.721 -46.894,-4.721C-46.894,-4.721 -46.939,-9.531 -46.167,-9.713C-45.396,-9.894 -42.991,-3.768 -42.991,-3.768C-42.991,-3.768 -42.854,-7.806 -42.446,-7.943C-42.038,-8.079 -40.767,-5.175 -40.223,-4.494C-39.679,-3.814 -39.406,-2.407 -39.406,-7.217C-39.406,-12.027 -39.724,-12.163 -39.088,-12.39C-38.454,-12.617 -36.593,-8.306 -36.593,-8.306C-36.593,-8.306 -35.958,-10.711 -35.504,-10.892C-35.05,-11.073 -34.597,-10.438 -34.597,-10.438C-34.597,-10.438 -34.007,-14.385 -33.281,-14.567C-32.554,-14.749 -32.917,-13.07 -32.191,-11.391C-31.465,-9.712 -30.376,-8.532 -30.376,-8.532L-29.469,-9.303C-29.469,-9.303 -30.059,-11.754 -29.877,-14.114C-29.696,-16.473 -29.514,-18.379 -29.105,-18.379C-28.697,-18.379 -28.198,-16.746 -27.926,-15.611C-27.653,-14.477 -27.019,-13.115 -27.019,-13.115C-27.019,-13.115 -26.61,-13.751 -26.202,-13.751C-25.793,-13.751 -25.566,-13.524 -25.476,-11.663C-25.385,-9.803 -25.112,-7.624 -24.659,-6.717" style="fill:white;fill-rule:nonzero;"/>
    </g>
</svg>
