<?xml version="1.0" encoding="UTF-8" standalone="no"?>
<!DOCTYPE svg PUBLIC "-//W3C//DTD SVG 1.1//EN" "http://www.w3.org/Graphics/SVG/1.1/DTD/svg11.dtd">
<svg width="100%" height="100%" viewBox="0 0 3755 8851" version="1.1" xmlns="http://www.w3.org/2000/svg" xmlns:xlink="http://www.w3.org/1999/xlink" xml:space="preserve" xmlns:serif="http://www.serif.com/" style="fill-rule:evenodd;clip-rule:evenodd;stroke-linejoin:round;stroke-miterlimit:2;">
    <g>
        <rect x="1241.88" y="5173.68" width="1207.62" height="1347.44" style="fill:white;"/>
        <g transform="matrix(4.16667,0,0,4.16667,-817.041,-2105.33)">
            <path d="M727.461,729.656L727.531,743.151C726.988,754.041 725.362,764.178 716.685,772.19C695.968,791.324 695.127,815.251 695.127,840.726C695.083,1036.87 701.07,1232.9 706.537,1428.93C708.872,1512.68 708.827,1512.68 790.511,1518.95C911.338,1528.24 994.106,1626.83 975.668,1740.86C969.836,1776.88 955.538,1810.36 939.071,1843.03C915.333,1890.14 919.992,1920.58 954.775,1959.78C969.25,1976.08 984.489,1991.73 998.533,2008.4C1194.79,2241.46 1066.77,2483.94 890.056,2572.78C882.797,2576.42 875.459,2579.83 868.056,2583.03C865.677,2584.07 863.286,2585.08 860.896,2586.06C860.829,2586.08 860.774,2586.12 860.707,2586.14C833.893,2597.23 806.248,2605.88 778.349,2614.03C778.315,2614.05 778.271,2614.06 778.227,2614.06C650.063,2645.68 536.286,2621.63 476.194,2602.8C476.072,2602.77 475.951,2602.74 475.829,2602.69C460.8,2597.75 445.96,2592.3 431.363,2586.18C431.185,2586.1 431.097,2586.06 431.097,2586.06C414.397,2579.05 398.029,2571.14 382.082,2562.08C231.796,2476.68 159.896,2299.27 214.034,2144.29C238.846,2073.27 283.888,2015.22 334.938,1961.16C372.93,1920.94 376.494,1892.3 352.8,1842.52C342.995,1821.94 332.681,1801.35 325.598,1779.78C287.406,1663.45 336.499,1568.77 452.611,1529.31C486.054,1517.94 520.195,1519.63 554.126,1516.36C574.622,1514.39 585.766,1506.69 586.142,1483.53C589.65,1264.6 593.977,1045.69 598.039,826.771C598.271,814.232 599.156,800.631 589.827,791.258C575.806,777.181 566.277,761.5 562.747,742.089L562.877,726.424L537.504,726.424L537.504,733.949C537.504,739.229 533.223,743.51 527.942,743.51L513.599,743.51C508.319,743.51 504.038,739.229 504.038,733.949L504.038,712.435C504.038,707.154 508.319,702.873 513.599,702.873L527.942,702.873C533.223,702.873 537.504,707.154 537.504,712.435L537.504,719.96L562.93,719.96L563.524,648.204L537.504,648.204L537.504,655.729C537.504,661.01 533.223,665.291 527.942,665.291L513.599,665.291C508.319,665.291 504.038,661.01 504.038,655.729L504.038,634.215C504.038,628.935 508.319,624.654 513.599,624.654L527.942,624.654C533.223,624.654 537.504,628.935 537.504,634.215L537.504,641.74L563.578,641.74L564.171,569.984L537.504,569.984L537.504,577.509C537.504,582.79 533.223,587.071 527.942,587.071L513.599,587.071C508.319,587.071 504.038,582.79 504.038,577.509L504.038,555.996C504.038,550.715 508.319,546.434 513.599,546.434L527.942,546.434C533.223,546.434 537.504,550.715 537.504,555.996L537.504,563.521L564.225,563.521L564.474,533.436C569.232,522.569 578.893,516.084 592.052,512.399C628.029,502.328 663.93,503.357 699.631,512.874C711.528,516.051 722.694,520.521 726.446,532.85L726.446,532.861L726.621,566.753L749.155,566.753L749.155,559.228C749.155,553.947 753.436,549.666 758.716,549.666L773.059,549.666C778.34,549.666 782.621,553.947 782.621,559.228L782.621,580.741C782.621,586.022 778.34,590.303 773.059,590.303L758.716,590.303C753.436,590.303 749.155,586.022 749.155,580.741L749.155,573.216L726.654,573.216L727.024,644.972L749.155,644.972L749.155,637.447C749.155,632.167 753.436,627.886 758.716,627.886L773.059,627.886C778.34,627.886 782.621,632.167 782.621,637.447L782.621,658.961C782.621,664.242 778.34,668.523 773.059,668.523L758.716,668.523C753.436,668.523 749.155,664.242 749.155,658.961L749.155,651.436L727.058,651.436L727.428,723.192L749.155,723.192L749.155,715.667C749.155,710.386 753.436,706.105 758.716,706.105L773.059,706.105C778.34,706.105 782.621,710.386 782.621,715.667L782.621,737.181C782.621,742.461 778.34,746.742 773.059,746.742L758.716,746.742C753.436,746.742 749.155,742.461 749.155,737.181L749.155,729.656L727.461,729.656ZM597.095,1802.77C565.177,1819.99 544.622,1854.01 544.952,1894.93C545.263,1933.87 565.971,1966.96 597.095,1984.07L597.095,1802.77ZM602.428,1986.8C606.541,1988.75 610.815,1990.42 615.228,1991.82L615.228,1795.21C610.807,1796.56 606.534,1798.2 602.428,1800.1L602.428,1986.8ZM620.561,1993.34C624.722,1994.4 628.994,1995.21 633.361,1995.75L633.361,1791.41C628.986,1791.93 624.714,1792.71 620.561,1793.74L620.561,1993.34ZM638.695,1996.28C640.815,1996.43 642.957,1996.52 645.116,1996.55C647.255,1996.58 649.382,1996.53 651.495,1996.42L651.495,1790.77C649.442,1790.66 647.375,1790.62 645.294,1790.64C643.072,1790.66 640.871,1790.75 638.695,1790.9L638.695,1996.28ZM656.828,1995.99C661.172,1995.51 665.446,1994.75 669.628,1993.72L669.628,1793.36C665.452,1792.37 661.179,1791.63 656.828,1791.18L656.828,1995.99ZM674.961,1992.25C679.35,1990.9 683.625,1989.26 687.761,1987.34L687.761,1799.58C683.63,1797.7 679.356,1796.1 674.961,1794.79L674.961,1992.25ZM693.095,1984.67C725.609,1967.23 748.328,1932.49 748.259,1893.47C748.182,1853.85 725.72,1819.35 693.095,1802.19L693.095,1984.67Z"/>
        </g>
    </g>
</svg>
