<?xml version="1.0" encoding="UTF-8" standalone="no"?>
<!DOCTYPE svg PUBLIC "-//W3C//DTD SVG 1.1//EN" "http://www.w3.org/Graphics/SVG/1.1/DTD/svg11.dtd">
<svg width="100%" height="100%" viewBox="0 0 140 380" version="1.1" xmlns="http://www.w3.org/2000/svg" xmlns:xlink="http://www.w3.org/1999/xlink" xml:space="preserve" xmlns:serif="http://www.serif.com/" style="fill-rule:evenodd;clip-rule:evenodd;stroke-linejoin:round;stroke-miterlimit:2;">
    <g transform="matrix(-1.61098e-05,-380,-380,1.61098e-05,69.1954,380)">
        <path d="M1,-0.008C0.999,-0.005 0.998,-0.002 0.996,0C0.994,0.003 0.991,0.005 0.988,0.005C0.986,0.004 0.984,0.003 0.983,0.001C0.981,0.002 0.98,0.001 0.979,0C0.978,0.001 0.975,0.002 0.974,0.002C0.976,0.004 0.979,0.005 0.979,0.009C0.981,0.01 0.982,0.011 0.983,0.012C0.984,0.012 0.986,0.013 0.987,0.014C0.988,0.016 0.987,0.019 0.987,0.021C0.986,0.024 0.986,0.025 0.984,0.027C0.982,0.03 0.979,0.033 0.975,0.033C0.973,0.033 0.972,0.032 0.971,0.031C0.97,0.03 0.969,0.03 0.968,0.029C0.967,0.03 0.965,0.03 0.964,0.03C0.962,0.03 0.961,0.028 0.96,0.028C0.959,0.028 0.958,0.028 0.957,0.029C0.954,0.03 0.951,0.031 0.948,0.031C0.946,0.033 0.941,0.038 0.94,0.039L0.934,0.039C0.931,0.038 0.928,0.036 0.926,0.035C0.925,0.034 0.924,0.033 0.924,0.033C0.922,0.033 0.921,0.033 0.92,0.032C0.919,0.033 0.918,0.033 0.917,0.034C0.917,0.034 0.916,0.035 0.915,0.035C0.913,0.035 0.911,0.033 0.91,0.031C0.909,0.029 0.909,0.026 0.909,0.024C0.907,0.021 0.904,0.019 0.901,0.017C0.9,0.016 0.898,0.015 0.897,0.015L0.895,0.015C0.894,0.015 0.893,0.012 0.893,0.01L0.893,0.006C0.891,0.005 0.888,0.005 0.886,0.004C0.884,0.004 0.881,0.003 0.879,0.003C0.876,0.003 0.873,0.004 0.87,0.003C0.867,0.003 0.864,0.002 0.861,0.001C0.853,-0.001 0.845,-0.005 0.837,-0.007C0.84,0.005 0.842,0.017 0.845,0.029C0.847,0.028 0.85,0.025 0.854,0.026C0.86,0.026 0.859,0.037 0.857,0.041C0.855,0.045 0.852,0.048 0.848,0.05C0.847,0.054 0.846,0.058 0.845,0.062C0.843,0.062 0.841,0.063 0.84,0.063C0.838,0.063 0.836,0.063 0.834,0.064C0.835,0.065 0.835,0.066 0.835,0.067C0.835,0.068 0.836,0.069 0.836,0.07C0.835,0.071 0.834,0.071 0.833,0.072L0.826,0.072C0.826,0.07 0.826,0.067 0.825,0.066C0.82,0.067 0.815,0.068 0.81,0.068C0.809,0.067 0.809,0.065 0.809,0.064C0.806,0.066 0.803,0.068 0.801,0.071C0.8,0.072 0.8,0.074 0.797,0.073C0.796,0.074 0.795,0.075 0.794,0.077C0.792,0.078 0.791,0.08 0.788,0.079C0.78,0.085 0.771,0.09 0.761,0.094C0.76,0.093 0.753,0.093 0.754,0.095C0.753,0.095 0.754,0.095 0.754,0.096C0.749,0.096 0.745,0.097 0.74,0.097C0.737,0.098 0.734,0.098 0.731,0.099C0.728,0.099 0.725,0.1 0.722,0.1C0.718,0.1 0.715,0.1 0.712,0.101L0.706,0.101C0.704,0.102 0.703,0.103 0.701,0.103C0.698,0.104 0.696,0.105 0.694,0.106C0.693,0.106 0.692,0.106 0.691,0.107C0.69,0.107 0.689,0.108 0.688,0.108C0.686,0.108 0.685,0.108 0.683,0.107C0.683,0.107 0.682,0.107 0.681,0.106C0.68,0.106 0.678,0.104 0.677,0.104L0.673,0.104C0.669,0.104 0.666,0.102 0.663,0.101C0.659,0.1 0.656,0.099 0.652,0.099C0.649,0.102 0.647,0.106 0.643,0.109C0.641,0.11 0.638,0.111 0.636,0.111C0.633,0.112 0.63,0.113 0.627,0.113C0.626,0.112 0.625,0.112 0.623,0.111C0.618,0.115 0.609,0.112 0.604,0.11C0.603,0.109 0.602,0.109 0.602,0.108L0.599,0.108C0.597,0.108 0.594,0.108 0.592,0.107C0.59,0.107 0.588,0.105 0.586,0.103C0.585,0.105 0.584,0.106 0.583,0.106C0.581,0.107 0.579,0.106 0.577,0.106C0.575,0.107 0.573,0.11 0.571,0.111L0.568,0.111C0.566,0.111 0.565,0.112 0.564,0.112C0.563,0.112 0.561,0.111 0.56,0.111C0.556,0.109 0.552,0.108 0.548,0.107C0.545,0.106 0.542,0.106 0.539,0.106C0.536,0.105 0.533,0.105 0.529,0.105C0.53,0.107 0.53,0.108 0.53,0.11C0.531,0.11 0.533,0.111 0.534,0.111C0.535,0.112 0.536,0.112 0.537,0.113C0.538,0.113 0.538,0.114 0.539,0.114L0.542,0.114C0.542,0.114 0.543,0.115 0.544,0.115C0.545,0.116 0.546,0.116 0.548,0.117C0.548,0.117 0.55,0.118 0.55,0.119C0.552,0.121 0.551,0.124 0.547,0.124C0.547,0.124 0.546,0.125 0.545,0.125C0.544,0.124 0.542,0.124 0.541,0.124C0.54,0.124 0.539,0.125 0.538,0.124L0.536,0.122C0.533,0.124 0.531,0.128 0.53,0.132C0.528,0.136 0.526,0.14 0.525,0.143C0.523,0.143 0.522,0.143 0.521,0.142C0.52,0.142 0.518,0.141 0.517,0.141C0.516,0.142 0.516,0.144 0.516,0.146L0.515,0.147C0.515,0.149 0.517,0.15 0.517,0.153C0.522,0.154 0.527,0.155 0.532,0.157C0.535,0.16 0.532,0.166 0.529,0.166C0.528,0.166 0.526,0.165 0.525,0.165C0.517,0.163 0.508,0.16 0.501,0.158C0.498,0.16 0.497,0.162 0.494,0.163C0.491,0.164 0.488,0.165 0.486,0.167C0.482,0.169 0.479,0.173 0.477,0.176C0.476,0.177 0.474,0.178 0.473,0.179C0.473,0.179 0.471,0.178 0.47,0.179C0.469,0.178 0.469,0.177 0.468,0.176C0.468,0.176 0.467,0.174 0.466,0.174C0.465,0.174 0.463,0.175 0.462,0.175C0.456,0.176 0.451,0.176 0.446,0.177C0.445,0.181 0.438,0.184 0.434,0.181C0.433,0.18 0.433,0.179 0.432,0.179L0.431,0.179C0.429,0.177 0.428,0.174 0.426,0.171C0.426,0.17 0.426,0.169 0.425,0.169C0.424,0.168 0.423,0.169 0.422,0.169C0.419,0.17 0.417,0.17 0.415,0.17C0.414,0.171 0.412,0.171 0.412,0.171C0.411,0.171 0.411,0.169 0.41,0.169C0.408,0.169 0.407,0.17 0.405,0.169C0.405,0.169 0.404,0.168 0.403,0.168C0.402,0.168 0.4,0.169 0.399,0.169C0.398,0.169 0.398,0.17 0.397,0.17C0.397,0.171 0.395,0.17 0.395,0.171C0.394,0.171 0.394,0.172 0.394,0.172L0.391,0.172C0.39,0.17 0.39,0.168 0.39,0.166L0.389,0.165C0.388,0.161 0.388,0.156 0.389,0.152C0.393,0.151 0.397,0.151 0.401,0.15C0.401,0.149 0.402,0.148 0.402,0.147C0.398,0.145 0.395,0.142 0.392,0.14C0.389,0.137 0.387,0.134 0.385,0.13C0.381,0.123 0.378,0.114 0.377,0.104C0.373,0.104 0.371,0.102 0.368,0.102C0.365,0.101 0.36,0.103 0.357,0.103C0.349,0.105 0.343,0.107 0.335,0.109C0.331,0.11 0.327,0.111 0.323,0.111C0.323,0.111 0.322,0.11 0.321,0.11C0.32,0.111 0.318,0.111 0.317,0.112C0.316,0.112 0.314,0.113 0.313,0.114C0.312,0.114 0.311,0.116 0.31,0.116C0.307,0.116 0.304,0.116 0.302,0.117C0.298,0.117 0.295,0.119 0.291,0.12C0.286,0.123 0.281,0.125 0.276,0.128C0.273,0.129 0.27,0.13 0.267,0.131C0.261,0.133 0.256,0.135 0.249,0.136C0.244,0.137 0.239,0.137 0.233,0.137C0.231,0.137 0.229,0.136 0.227,0.137C0.226,0.137 0.225,0.138 0.225,0.138C0.22,0.141 0.216,0.143 0.21,0.144C0.208,0.145 0.206,0.146 0.203,0.145C0.199,0.145 0.196,0.143 0.194,0.139L0.194,0.138C0.189,0.138 0.186,0.142 0.184,0.145C0.182,0.148 0.177,0.149 0.173,0.15C0.172,0.151 0.171,0.152 0.169,0.152C0.168,0.153 0.166,0.153 0.165,0.153C0.161,0.153 0.159,0.151 0.157,0.149C0.154,0.148 0.152,0.146 0.15,0.144C0.148,0.145 0.146,0.146 0.144,0.146C0.143,0.146 0.141,0.145 0.14,0.145C0.137,0.144 0.134,0.144 0.131,0.144C0.127,0.145 0.125,0.145 0.122,0.147C0.12,0.148 0.117,0.15 0.114,0.15C0.112,0.15 0.109,0.148 0.107,0.149C0.104,0.151 0.1,0.154 0.096,0.155C0.093,0.155 0.091,0.155 0.089,0.156C0.086,0.156 0.082,0.155 0.08,0.156C0.077,0.158 0.075,0.16 0.071,0.161C0.069,0.162 0.067,0.162 0.065,0.162L0.058,0.162C0.057,0.162 0.056,0.163 0.055,0.163C0.052,0.164 0.05,0.165 0.047,0.166C0.043,0.168 0.039,0.168 0.035,0.17C0.031,0.172 0.025,0.172 0.019,0.171L0.018,0.171C0.017,0.171 0.016,0.172 0.016,0.172C0.014,0.173 0.013,0.174 0.01,0.173L0.006,0.173C0.004,0.173 0.001,0.17 0,0.168L0,0.159C0,0.156 0.001,0.154 0.001,0.151C0.001,0.145 0.001,0.14 0.002,0.135C0.003,0.127 0.004,0.119 0.006,0.112C0.008,0.109 0.009,0.106 0.014,0.106C0.016,0.107 0.018,0.109 0.02,0.109C0.021,0.109 0.022,0.11 0.022,0.111C0.023,0.111 0.024,0.11 0.025,0.11C0.03,0.109 0.035,0.108 0.04,0.108C0.045,0.109 0.048,0.11 0.052,0.11C0.056,0.107 0.061,0.104 0.067,0.103C0.072,0.103 0.077,0.104 0.081,0.105C0.082,0.106 0.084,0.107 0.085,0.107C0.086,0.107 0.088,0.106 0.09,0.105C0.094,0.104 0.097,0.103 0.101,0.103C0.103,0.102 0.105,0.102 0.107,0.102C0.11,0.102 0.113,0.101 0.116,0.1C0.12,0.1 0.125,0.101 0.129,0.101C0.13,0.1 0.131,0.1 0.132,0.1C0.133,0.099 0.135,0.099 0.136,0.099C0.138,0.098 0.14,0.098 0.142,0.098L0.144,0.098C0.146,0.097 0.147,0.096 0.149,0.095C0.15,0.095 0.151,0.096 0.151,0.096C0.152,0.095 0.153,0.093 0.153,0.092C0.153,0.09 0.154,0.089 0.155,0.088C0.156,0.088 0.158,0.088 0.159,0.087C0.159,0.087 0.16,0.086 0.161,0.085C0.162,0.082 0.161,0.077 0.163,0.076C0.166,0.074 0.168,0.077 0.17,0.077C0.171,0.077 0.173,0.076 0.174,0.075C0.175,0.074 0.177,0.073 0.178,0.073C0.183,0.07 0.187,0.067 0.194,0.066C0.197,0.066 0.201,0.067 0.205,0.066C0.206,0.066 0.207,0.065 0.208,0.065C0.212,0.063 0.215,0.062 0.218,0.061C0.22,0.06 0.221,0.06 0.222,0.059C0.223,0.059 0.224,0.058 0.225,0.058C0.235,0.054 0.243,0.05 0.253,0.048C0.256,0.047 0.259,0.047 0.262,0.047C0.264,0.046 0.266,0.044 0.268,0.042C0.27,0.041 0.272,0.04 0.274,0.038C0.287,0.03 0.302,0.024 0.317,0.018C0.318,0.016 0.321,0.014 0.324,0.013C0.333,0.01 0.342,0.007 0.352,0.004C0.355,0.003 0.358,0.002 0.361,0.001C0.363,-0 0.366,-0.002 0.368,-0.004C0.372,-0.006 0.377,-0.008 0.381,-0.009C0.382,-0.01 0.384,-0.011 0.385,-0.012C0.376,-0.014 0.365,-0.015 0.358,-0.02C0.357,-0.02 0.356,-0.021 0.355,-0.022L0.351,-0.022C0.347,-0.022 0.343,-0.023 0.34,-0.023C0.33,-0.024 0.321,-0.025 0.311,-0.025C0.302,-0.025 0.294,-0.026 0.288,-0.028C0.287,-0.028 0.286,-0.029 0.285,-0.029C0.284,-0.029 0.283,-0.028 0.282,-0.028C0.278,-0.026 0.274,-0.025 0.27,-0.023C0.268,-0.022 0.266,-0.021 0.263,-0.021L0.248,-0.021C0.246,-0.021 0.243,-0.022 0.242,-0.022C0.241,-0.022 0.24,-0.023 0.239,-0.023C0.236,-0.025 0.233,-0.026 0.23,-0.026C0.228,-0.027 0.226,-0.026 0.225,-0.025C0.224,-0.024 0.224,-0.022 0.223,-0.022C0.221,-0.022 0.219,-0.022 0.218,-0.023C0.217,-0.023 0.217,-0.024 0.217,-0.025C0.216,-0.025 0.216,-0.026 0.215,-0.026C0.214,-0.026 0.212,-0.027 0.211,-0.027C0.21,-0.027 0.21,-0.026 0.21,-0.025C0.209,-0.023 0.208,-0.021 0.206,-0.02C0.203,-0.02 0.2,-0.021 0.198,-0.022C0.195,-0.023 0.192,-0.023 0.189,-0.024C0.188,-0.024 0.187,-0.026 0.186,-0.026C0.181,-0.026 0.178,-0.029 0.174,-0.03L0.173,-0.03C0.169,-0.031 0.165,-0.03 0.162,-0.03C0.158,-0.03 0.154,-0.03 0.151,-0.031L0.146,-0.031C0.145,-0.03 0.144,-0.03 0.143,-0.03C0.141,-0.029 0.138,-0.029 0.135,-0.029C0.132,-0.029 0.129,-0.028 0.127,-0.028L0.124,-0.028C0.123,-0.028 0.123,-0.027 0.122,-0.027L0.119,-0.027C0.118,-0.027 0.118,-0.026 0.117,-0.026C0.116,-0.025 0.115,-0.026 0.114,-0.025L0.105,-0.025C0.101,-0.024 0.096,-0.023 0.092,-0.024C0.09,-0.024 0.089,-0.025 0.087,-0.026C0.086,-0.025 0.085,-0.023 0.082,-0.023C0.079,-0.022 0.075,-0.023 0.071,-0.022C0.069,-0.024 0.068,-0.026 0.066,-0.028C0.065,-0.031 0.064,-0.033 0.064,-0.036C0.063,-0.04 0.064,-0.045 0.064,-0.048C0.065,-0.049 0.065,-0.051 0.065,-0.052C0.063,-0.056 0.061,-0.059 0.058,-0.061C0.053,-0.059 0.051,-0.063 0.05,-0.066C0.049,-0.069 0.048,-0.071 0.048,-0.074C0.047,-0.08 0.048,-0.086 0.049,-0.092C0.049,-0.094 0.05,-0.097 0.05,-0.1C0.05,-0.103 0.051,-0.106 0.051,-0.109C0.052,-0.114 0.054,-0.121 0.056,-0.125C0.059,-0.125 0.062,-0.125 0.064,-0.124C0.065,-0.123 0.065,-0.121 0.066,-0.121L0.067,-0.122C0.073,-0.123 0.076,-0.118 0.078,-0.115C0.08,-0.112 0.082,-0.11 0.083,-0.107L0.085,-0.107C0.086,-0.106 0.086,-0.105 0.086,-0.104C0.087,-0.101 0.088,-0.098 0.09,-0.096C0.092,-0.095 0.093,-0.094 0.095,-0.092C0.098,-0.09 0.101,-0.086 0.104,-0.085C0.106,-0.084 0.109,-0.084 0.111,-0.083C0.113,-0.082 0.115,-0.081 0.116,-0.08C0.118,-0.079 0.121,-0.077 0.122,-0.075C0.123,-0.074 0.124,-0.074 0.125,-0.073C0.126,-0.073 0.128,-0.074 0.129,-0.073C0.131,-0.073 0.133,-0.071 0.136,-0.071C0.138,-0.071 0.14,-0.073 0.142,-0.073C0.147,-0.074 0.152,-0.072 0.156,-0.073C0.158,-0.073 0.159,-0.074 0.161,-0.074C0.163,-0.075 0.165,-0.074 0.166,-0.074C0.168,-0.075 0.185,-0.078 0.192,-0.08C0.192,-0.081 0.193,-0.081 0.194,-0.082C0.192,-0.082 0.191,-0.085 0.192,-0.086C0.194,-0.087 0.196,-0.088 0.197,-0.088C0.199,-0.089 0.2,-0.088 0.201,-0.089C0.202,-0.089 0.202,-0.09 0.203,-0.09C0.208,-0.096 0.215,-0.099 0.225,-0.1C0.228,-0.101 0.232,-0.101 0.236,-0.102C0.243,-0.102 0.251,-0.101 0.259,-0.102C0.264,-0.102 0.27,-0.103 0.275,-0.103C0.277,-0.104 0.278,-0.103 0.28,-0.104C0.277,-0.115 0.279,-0.128 0.283,-0.136C0.292,-0.154 0.307,-0.167 0.327,-0.175C0.336,-0.178 0.345,-0.181 0.357,-0.182C0.366,-0.183 0.375,-0.184 0.384,-0.184C0.396,-0.185 0.409,-0.184 0.421,-0.183C0.44,-0.182 0.459,-0.18 0.475,-0.177C0.483,-0.175 0.491,-0.172 0.498,-0.17C0.506,-0.167 0.513,-0.165 0.519,-0.161C0.522,-0.159 0.525,-0.156 0.527,-0.154C0.528,-0.152 0.53,-0.149 0.532,-0.147C0.532,-0.146 0.533,-0.145 0.533,-0.145L0.537,-0.145C0.54,-0.146 0.543,-0.146 0.546,-0.146C0.547,-0.146 0.55,-0.146 0.551,-0.147C0.551,-0.147 0.552,-0.148 0.553,-0.149C0.554,-0.15 0.554,-0.151 0.555,-0.152C0.556,-0.156 0.558,-0.158 0.561,-0.16C0.561,-0.161 0.562,-0.162 0.563,-0.163C0.564,-0.165 0.565,-0.167 0.567,-0.168C0.57,-0.171 0.573,-0.174 0.577,-0.177C0.58,-0.178 0.583,-0.179 0.586,-0.181C0.588,-0.181 0.589,-0.182 0.59,-0.182C0.592,-0.183 0.594,-0.183 0.596,-0.183C0.598,-0.183 0.6,-0.183 0.601,-0.184C0.605,-0.184 0.611,-0.185 0.615,-0.183C0.616,-0.183 0.616,-0.183 0.617,-0.182C0.619,-0.182 0.621,-0.183 0.623,-0.183C0.625,-0.182 0.625,-0.18 0.627,-0.18C0.629,-0.18 0.63,-0.181 0.632,-0.18C0.636,-0.18 0.64,-0.176 0.643,-0.174C0.645,-0.173 0.647,-0.172 0.648,-0.17C0.649,-0.17 0.65,-0.169 0.651,-0.168C0.652,-0.168 0.653,-0.166 0.653,-0.166C0.654,-0.166 0.656,-0.167 0.657,-0.167C0.66,-0.168 0.664,-0.169 0.668,-0.169C0.674,-0.17 0.677,-0.168 0.68,-0.166C0.683,-0.165 0.685,-0.163 0.688,-0.162C0.692,-0.161 0.695,-0.159 0.699,-0.157C0.703,-0.155 0.708,-0.154 0.713,-0.154C0.721,-0.153 0.728,-0.153 0.733,-0.151C0.736,-0.15 0.738,-0.148 0.741,-0.147C0.743,-0.147 0.743,-0.146 0.745,-0.144C0.747,-0.141 0.751,-0.14 0.755,-0.138C0.756,-0.137 0.758,-0.135 0.76,-0.133C0.761,-0.133 0.762,-0.132 0.763,-0.131C0.764,-0.13 0.765,-0.128 0.766,-0.128C0.77,-0.127 0.773,-0.127 0.777,-0.126C0.78,-0.125 0.782,-0.124 0.785,-0.123L0.787,-0.123C0.788,-0.122 0.789,-0.121 0.789,-0.12C0.789,-0.119 0.788,-0.118 0.787,-0.117C0.786,-0.115 0.786,-0.114 0.786,-0.113C0.785,-0.111 0.784,-0.11 0.784,-0.108C0.788,-0.108 0.792,-0.109 0.795,-0.109C0.797,-0.11 0.8,-0.11 0.802,-0.11C0.805,-0.11 0.807,-0.109 0.809,-0.108C0.813,-0.105 0.817,-0.103 0.818,-0.098C0.819,-0.095 0.819,-0.093 0.82,-0.09C0.828,-0.089 0.835,-0.085 0.844,-0.085L0.853,-0.085C0.854,-0.086 0.855,-0.087 0.856,-0.088C0.857,-0.088 0.859,-0.089 0.86,-0.09C0.861,-0.091 0.862,-0.093 0.863,-0.094C0.865,-0.095 0.866,-0.095 0.868,-0.096C0.872,-0.097 0.875,-0.098 0.88,-0.099C0.883,-0.099 0.886,-0.099 0.888,-0.097C0.894,-0.1 0.904,-0.101 0.913,-0.1L0.913,-0.101C0.915,-0.1 0.916,-0.099 0.918,-0.098C0.922,-0.097 0.925,-0.097 0.928,-0.095C0.931,-0.093 0.933,-0.092 0.937,-0.091C0.936,-0.093 0.934,-0.094 0.933,-0.095C0.938,-0.093 0.941,-0.088 0.943,-0.083C0.946,-0.082 0.947,-0.08 0.948,-0.077C0.948,-0.076 0.95,-0.076 0.951,-0.075C0.952,-0.074 0.952,-0.073 0.953,-0.072C0.954,-0.072 0.955,-0.071 0.955,-0.07C0.957,-0.068 0.958,-0.066 0.958,-0.062C0.963,-0.062 0.968,-0.061 0.97,-0.059C0.971,-0.058 0.971,-0.056 0.971,-0.055C0.972,-0.054 0.973,-0.053 0.974,-0.052C0.975,-0.051 0.978,-0.05 0.978,-0.049C0.978,-0.048 0.978,-0.046 0.977,-0.045C0.977,-0.041 0.976,-0.037 0.975,-0.033C0.979,-0.031 0.983,-0.028 0.987,-0.025C0.988,-0.025 0.99,-0.023 0.991,-0.022L0.991,-0.018C0.992,-0.017 0.994,-0.016 0.994,-0.014C0.996,-0.013 0.999,-0.012 1,-0.01L1,-0.008ZM0.849,0.045C0.852,0.044 0.855,0.041 0.856,0.036C0.856,0.033 0.856,0.029 0.852,0.029C0.85,0.029 0.847,0.032 0.846,0.033C0.847,0.037 0.848,0.041 0.849,0.045ZM0.655,-0.1C0.658,-0.101 0.66,-0.103 0.663,-0.104C0.664,-0.105 0.665,-0.105 0.666,-0.105L0.666,-0.106C0.663,-0.107 0.66,-0.105 0.657,-0.105L0.653,-0.105C0.653,-0.103 0.655,-0.102 0.655,-0.1ZM0.582,-0.097L0.59,-0.097C0.591,-0.097 0.591,-0.098 0.592,-0.098C0.594,-0.099 0.596,-0.099 0.598,-0.1C0.6,-0.1 0.603,-0.102 0.605,-0.102C0.607,-0.103 0.61,-0.103 0.612,-0.102C0.614,-0.102 0.616,-0.101 0.618,-0.102C0.621,-0.102 0.625,-0.103 0.628,-0.103C0.629,-0.103 0.631,-0.102 0.633,-0.101C0.634,-0.101 0.635,-0.1 0.635,-0.1C0.636,-0.101 0.637,-0.102 0.638,-0.102C0.639,-0.103 0.639,-0.103 0.64,-0.103C0.641,-0.103 0.642,-0.102 0.643,-0.102C0.644,-0.102 0.644,-0.104 0.645,-0.105C0.646,-0.105 0.647,-0.106 0.648,-0.106L0.649,-0.106C0.645,-0.107 0.64,-0.11 0.639,-0.114C0.639,-0.115 0.638,-0.116 0.639,-0.117C0.639,-0.118 0.64,-0.118 0.64,-0.119C0.639,-0.119 0.637,-0.119 0.636,-0.12C0.635,-0.12 0.634,-0.122 0.633,-0.123C0.631,-0.124 0.628,-0.124 0.625,-0.124C0.622,-0.124 0.62,-0.124 0.617,-0.125C0.612,-0.126 0.608,-0.129 0.604,-0.13C0.603,-0.128 0.603,-0.127 0.603,-0.125L0.603,-0.123C0.603,-0.122 0.601,-0.122 0.6,-0.121C0.599,-0.12 0.597,-0.12 0.595,-0.12C0.591,-0.12 0.589,-0.124 0.585,-0.122C0.583,-0.121 0.582,-0.119 0.58,-0.118C0.578,-0.117 0.576,-0.116 0.573,-0.116L0.571,-0.116C0.57,-0.115 0.57,-0.114 0.569,-0.113C0.567,-0.111 0.565,-0.109 0.563,-0.106C0.564,-0.105 0.565,-0.104 0.566,-0.104C0.567,-0.104 0.567,-0.105 0.568,-0.105C0.57,-0.106 0.571,-0.106 0.572,-0.107L0.575,-0.107C0.577,-0.107 0.576,-0.103 0.578,-0.102C0.579,-0.101 0.581,-0.102 0.582,-0.1L0.582,-0.097ZM0.529,0.103C0.534,0.103 0.539,0.102 0.545,0.102C0.546,0.102 0.547,0.101 0.549,0.101C0.551,0.101 0.554,0.102 0.556,0.103C0.559,0.103 0.562,0.104 0.564,0.104C0.567,0.104 0.569,0.104 0.571,0.103C0.572,0.103 0.574,0.102 0.575,0.102C0.574,0.1 0.573,0.1 0.572,0.099C0.571,0.099 0.57,0.1 0.568,0.1L0.563,0.1C0.562,0.1 0.561,0.098 0.561,0.097C0.56,0.095 0.561,0.094 0.561,0.092C0.56,0.092 0.559,0.092 0.558,0.091C0.557,0.091 0.556,0.09 0.555,0.09C0.554,0.09 0.553,0.091 0.552,0.091C0.552,0.092 0.55,0.093 0.55,0.094L0.55,0.098C0.546,0.098 0.543,0.096 0.539,0.095L0.539,0.093C0.537,0.092 0.535,0.092 0.533,0.09C0.532,0.091 0.531,0.09 0.529,0.09L0.528,0.091C0.527,0.091 0.526,0.09 0.526,0.09C0.524,0.09 0.522,0.091 0.52,0.09C0.522,0.094 0.526,0.096 0.528,0.099L0.528,0.101C0.528,0.102 0.528,0.102 0.529,0.103ZM0.29,-0.114C0.29,-0.112 0.291,-0.109 0.292,-0.105C0.296,-0.106 0.302,-0.106 0.307,-0.107L0.311,-0.107C0.312,-0.107 0.313,-0.107 0.314,-0.106L0.318,-0.106C0.32,-0.105 0.322,-0.106 0.325,-0.106L0.331,-0.106C0.335,-0.107 0.34,-0.108 0.343,-0.108C0.348,-0.109 0.352,-0.109 0.356,-0.109C0.36,-0.11 0.365,-0.11 0.369,-0.111C0.371,-0.111 0.374,-0.113 0.377,-0.114C0.379,-0.115 0.382,-0.116 0.384,-0.117C0.387,-0.118 0.392,-0.118 0.396,-0.118C0.405,-0.119 0.413,-0.119 0.421,-0.117C0.421,-0.119 0.421,-0.121 0.422,-0.123C0.429,-0.123 0.436,-0.122 0.442,-0.122C0.443,-0.122 0.443,-0.123 0.443,-0.124C0.443,-0.125 0.444,-0.126 0.445,-0.127C0.446,-0.128 0.446,-0.131 0.448,-0.131C0.45,-0.134 0.453,-0.133 0.458,-0.134C0.461,-0.134 0.463,-0.134 0.465,-0.135C0.47,-0.135 0.476,-0.136 0.48,-0.136C0.485,-0.137 0.49,-0.138 0.495,-0.138C0.497,-0.139 0.5,-0.139 0.502,-0.139C0.504,-0.139 0.506,-0.14 0.508,-0.141L0.51,-0.141L0.511,-0.142L0.516,-0.142C0.517,-0.143 0.519,-0.143 0.52,-0.143C0.517,-0.147 0.513,-0.15 0.509,-0.152C0.5,-0.157 0.49,-0.161 0.479,-0.163C0.473,-0.165 0.467,-0.166 0.462,-0.167C0.438,-0.17 0.413,-0.173 0.386,-0.172C0.372,-0.172 0.36,-0.171 0.348,-0.168C0.337,-0.166 0.327,-0.162 0.319,-0.157C0.314,-0.155 0.31,-0.152 0.307,-0.149C0.303,-0.146 0.3,-0.142 0.297,-0.138C0.295,-0.134 0.293,-0.129 0.291,-0.123C0.291,-0.121 0.29,-0.119 0.29,-0.116L0.29,-0.114ZM0.474,0.155C0.477,0.155 0.479,0.154 0.482,0.154L0.482,0.153C0.48,0.153 0.478,0.152 0.476,0.151C0.475,0.152 0.474,0.153 0.474,0.154L0.474,0.155ZM0.408,0.144C0.408,0.144 0.412,0.144 0.412,0.143C0.412,0.143 0.411,0.142 0.411,0.141C0.409,0.142 0.407,0.142 0.405,0.142C0.406,0.143 0.407,0.144 0.408,0.144ZM0.395,0.136L0.396,0.136C0.395,0.133 0.395,0.13 0.395,0.127C0.394,0.126 0.393,0.126 0.392,0.126C0.391,0.126 0.39,0.124 0.389,0.124C0.389,0.123 0.388,0.122 0.387,0.121C0.388,0.128 0.391,0.132 0.395,0.136ZM0.39,0.106C0.387,0.105 0.385,0.105 0.382,0.105C0.383,0.108 0.383,0.112 0.385,0.114C0.386,0.112 0.388,0.109 0.39,0.106Z" style="fill-rule:nonzero;"/>
    </g>
    <g transform="matrix(1,0,0,1,-6.83876,-9.99992)">
        <path d="M49.236,91.772C49.424,92.681 49.039,93.487 48.99,94.202C48.932,95.037 49.264,95.861 49.18,96.635C49.077,97.596 48.642,98.344 48.229,99.029C48.839,98.664 48.965,97.814 49.331,97.205C50.325,97.277 50.788,97.879 51.195,98.536C49.071,100.092 46.764,101.571 44.656,103.098C44.361,103.311 44.083,103.609 43.706,103.668C43.672,103.361 43.744,102.981 43.744,102.831C42.453,102.782 42.287,103.858 41.236,104.048C41.191,103.923 41.35,103.814 41.236,103.743C40.856,103.949 41.243,104.918 40.892,105.15C40.427,104.805 40.507,103.913 40.018,103.591C39.986,103.836 39.821,103.605 39.714,103.591C39.862,102.545 40.072,101.896 40.474,100.739C40.715,101.058 40.941,101.389 41.387,101.501C41.535,101.349 41.14,101.334 41.311,101.158C41.736,100.63 42.313,100.237 42.755,99.715C43.195,99.194 43.419,98.458 44.085,98.155C44.235,98.182 44.289,98.672 44.39,98.498C44.263,97.813 44.018,97.113 44.085,96.37C44.154,95.617 44.537,94.947 44.808,94.506C45.232,93.98 45.581,93.593 45.911,92.986C46.528,91.846 46.767,90.567 48.42,90.59C48.511,90.569 48.209,90.427 48.382,90.325C48.729,90.161 49.104,89.709 49.56,89.869C50.03,90.031 49.674,91.008 50.092,91.275C50.28,91.262 50.419,90.874 50.586,91.085C50.641,91.63 50.005,91.623 49.598,91.732C49.413,91.781 49.288,91.917 49.236,91.772ZM49.236,91.772C49.23,91.745 49.225,91.719 49.219,91.693C49.223,91.725 49.228,91.752 49.236,91.772ZM46.822,93.518C47.111,93.451 47.008,92.993 47.202,92.834C47.155,92.69 47.093,92.632 47.029,92.632C46.809,92.632 46.568,93.316 46.822,93.518ZM46.404,97.813C46.761,97.726 46.921,96.736 46.557,96.521C46.183,96.607 46.061,97.595 46.404,97.813ZM45.911,98.688C45.892,99.194 46.6,99.145 46.557,98.649C46.333,98.801 46.078,98.712 45.911,98.688ZM48.229,91.883C48.176,92.112 48.385,92.343 48.495,92.53C48.66,92.357 48.442,92.067 48.382,91.883L48.229,91.883ZM46.922,95.223C46.858,95.217 46.794,95.211 46.709,95.228C46.733,95.644 47.257,95.651 47.24,95.19C47.096,95.239 47.009,95.231 46.922,95.223ZM46.861,92.225C47.099,92.146 47.171,91.901 47.279,91.693C47.015,91.745 46.879,91.926 46.861,92.225ZM47.812,93.897C48.036,93.896 48.028,93.659 48.041,93.443C48.081,93.399 48.111,93.41 48.141,93.419C48.169,93.429 48.195,93.438 48.229,93.404C48.233,93.248 48.237,93.092 48.191,92.986C48.17,92.982 48.15,92.981 48.131,92.981C47.725,92.981 47.745,93.561 47.812,93.897ZM53.738,101.447C54.141,101.151 54.54,100.856 55.148,101.007C55.064,101.594 54.424,101.845 54.084,102.261C53.806,102.601 53.542,103.018 53.627,103.63C53.747,103.591 53.613,103.319 53.741,103.212C54.199,103.602 55.396,103.894 54.958,104.694C54.71,104.736 54.486,104.653 54.28,104.571C53.959,104.442 53.684,104.313 53.437,104.656C53.465,105.212 54.053,105.566 53.818,106.14C53.057,106.146 53.194,104.842 52.411,104.808C52.257,104.802 52.167,104.858 52.066,104.914C51.937,104.986 51.789,105.058 51.46,104.998C51.415,104.786 51.676,104.885 51.688,104.732C51.402,104.597 51.138,104.751 50.878,104.906C50.582,105.083 50.29,105.26 49.978,104.998C49.848,104.123 50.666,103.894 50.777,103.136C50.652,103.126 50.667,103.254 50.586,103.288C50.428,103.167 50.365,102.952 50.282,102.756C50.855,102.314 51.451,101.896 52.069,101.501C52.229,101.492 52.014,101.642 52.031,101.729C52.116,101.795 52.231,101.773 52.344,101.751C52.452,101.73 52.56,101.708 52.639,101.767C52.679,101.908 52.51,101.842 52.487,101.919C52.534,101.924 52.582,101.926 52.627,101.926C53.078,101.926 53.409,101.687 53.738,101.447ZM46.898,108.191C46.836,107.95 46.597,108.029 46.443,107.963C45.788,107.687 45.305,107.106 44.923,106.558C46.538,105.234 48.366,104.121 50.054,102.869C50.15,103.073 50.401,103.267 50.397,103.516C50.393,103.742 50.144,103.844 50.016,104.048C49.776,104.429 49.541,105.343 50.129,105.416C50.489,105.462 50.767,105.086 51.08,105.074C51.261,105.068 51.349,105.201 51.612,105.264C51.183,106.852 50.15,108.602 48.915,109.674C48.461,110.066 47.728,110.485 47.013,110.586C45.261,110.836 44.278,109.793 43.592,108.762C44.035,108.218 44.665,107.858 44.96,107.164C45.529,107.564 45.868,108.192 46.834,108.192C46.855,108.192 46.877,108.192 46.898,108.191Z" style="fill:white;"/>
    </g>
</svg>
