<?xml version="1.0" encoding="UTF-8" standalone="no"?>
<!DOCTYPE svg PUBLIC "-//W3C//DTD SVG 1.1//EN" "http://www.w3.org/Graphics/SVG/1.1/DTD/svg11.dtd">
<svg width="100%" height="100%" viewBox="0 0 4030 3124" version="1.1" xmlns="http://www.w3.org/2000/svg" xmlns:xlink="http://www.w3.org/1999/xlink" xml:space="preserve" xmlns:serif="http://www.serif.com/" style="fill-rule:evenodd;clip-rule:evenodd;stroke-linejoin:round;stroke-miterlimit:2;">
    <g transform="matrix(1,0,0,1,-1205.94,-425.434)">
        <path d="M2507.97,1494.5C2508.83,1495.68 2509.37,1499.52 2505,1512C2498.4,1530.85 2453,1647 2453,1647C2453,1647 2474.6,1645.4 2467,1685C2459.4,1724.6 2450.6,1742.4 2443,1755C2435.4,1767.6 2430,1766 2430,1766C2430,1766 2393.1,2008.15 2401,2088C2408.9,2167.85 2422.1,2262.9 2426,2275C2429.9,2287.1 2418.6,2333.4 2411,2360C2403.4,2386.6 2385,2455 2385,2455C2385,2455 2453.35,2617.9 2484,2654C2514.65,2690.1 2611.85,2712 2676,2712C2740.15,2712 2913.6,2748.4 3004,2625C3094.4,2501.6 3120,2458.15 3120,2371C3120,2283.85 3078.1,2209.15 3070,2195C3061.9,2180.85 3064,2170.15 3064,2160C3064,2149.85 3068,2139 3068,2139C3068,2139 3055.1,2151 3043,2151C3030.9,2151 3017,2143 3017,2143L2997,2143C2997,2143 2984.1,2149 2971,2149C2957.9,2149 2911.6,2118.15 2898,2040C2884.4,1961.85 2895.6,1926.4 2939,1874C2982.4,1821.6 3082.85,1732.15 3140,1700C3197.15,1667.85 3218.85,1649 3288,1649C3357.15,1649 3480.85,1676 3579,1676C3677.15,1676 3793.85,1653.65 3865,1623C3936.15,1592.35 4002.35,1560 4038,1560C4073.65,1560 4085,1572 4085,1572C4085,1572 4160.35,1582 4227,1582C4293.65,1582 4374.35,1570.15 4428,1566C4481.65,1561.85 4494.35,1563.65 4511,1566C4527.65,1568.35 4531,1579 4531,1579L4516,1355C4516,1355 4513.35,1343.65 4517,1329C4512.65,1285.85 4506,1203 4506,1203C4506,1203 4498.35,1122.15 4544,1113C4589.65,1103.85 4701,1084 4701,1084C4701,1084 4754.6,1060.15 4773,1178C4791.4,1295.85 4820,1491 4820,1491C4820,1491 4832.6,1558.98 4805,1590C4878.4,1588.52 4916,1587 4916,1587C4916,1587 4930.6,1589.48 4934,1605C4937.4,1620.52 4934.6,1627.98 4908,1633C4881.4,1638.02 4749,1666 4749,1666C4749,1666 4748.85,1728.23 4700,1729C4685.15,1729.77 4674,1729 4674,1729C4674,1729 4669.85,1735.23 4656,1735C4642.15,1734.77 4635,1729 4635,1729L4599,1731C4599,1731 4571.35,1731.23 4559,1709C4555.15,1728.77 4550,1738 4550,1738L4550,1795C4550,1795 4572.35,1796.98 4589,1828C4605.65,1859.02 4607.85,1860.98 4608,1868C4608.15,1875.02 4600.35,1887.48 4598,1891C4623.65,1905.02 4685.85,1943.98 4742,1995C4779.15,1992.02 4803.85,1992.48 4825,2009C4848.65,2016.52 4869.85,2025.48 4913,2074C4956.15,2122.52 4970,2150 4970,2150C4970,2150 4992.85,2141.48 5010,2168C5027.15,2194.52 5030.85,2201.98 5026,2212C5021.15,2222.02 5017,2226 5017,2226C5017,2226 5021.85,2231.98 5011,2242C5000.15,2252.02 5001.35,2254.48 4986,2268C4985.15,2277.52 4980.35,2291.98 4975,2298C5022.65,2301.02 5020.6,2298.48 5033,2301C5045.4,2303.52 5043.1,2303.48 5054,2325C5064.9,2346.52 5076.6,2376.98 5100,2408C5123.4,2439.02 5152.6,2496.98 5174,2533C5195.4,2569.02 5225.6,2626.98 5231,2632C5236.4,2637.02 5239.1,2644.98 5220,2648C5200.9,2651.02 5174,2644 5174,2644L5161,2629L5131,2630L5143,2651C5143,2651 5142.6,2656.48 5136,2657C5129.4,2657.52 5069.6,2658.98 5033,2645C4996.4,2631.02 4967.1,2605.48 4925,2564C4882.9,2522.52 4813,2458 4813,2458L4757,2471C4757,2471 4977,2576.71 4977,2894C4977,3211.29 4710.85,3403 4484,3403C4267.97,3403 4092.35,3274.42 4022.67,3081.48C4012.35,3084.82 3996.83,3089.28 3979.63,3092.27C3958.2,3095.99 3941.65,3098.75 3924.06,3097.1C3919.15,3098.15 3912.97,3098.82 3905,3099C3875.9,3099.67 3723,3065 3723,3065L3717,3076C3717,3076 3691.35,3070.08 3687,3069C3682.65,3067.92 3680,3062 3680,3062L3674,3061C3674,3061 3669.85,3065.33 3667,3064C3664.15,3062.67 3665,3058 3665,3058C3665,3058 3635.6,3047.83 3625,3044C3614.4,3040.17 3609,3035 3609,3035C3609,3035 3595.35,3042 3567,3042C3538.65,3042 3200.6,3051.58 3136,3054C3071.4,3056.42 2740.68,3070 2663,3070C2585.33,3070 2547.89,3070.91 2536,3071C2524.11,3071.09 2512.08,3060.78 2483,3059C2453.93,3057.22 2431.75,3050.71 2415,3048C2398.25,3045.29 2347.69,3024.58 2309,2987C2270.31,2949.42 2170,2824 2170,2824L2170,2838C2170,2838 2170.81,2843.71 2165,2848C2159.19,2852.29 2152,2858 2152,2858C2152,2858 2144.06,2861.46 2141,2853C2137.94,2844.54 2131,2809 2131,2809C2131,2809 2117.31,2789.08 2086,2774C2054.69,2758.92 2020,2744 2020,2744C2020,2744 2014.98,2743.42 2012,2749C2009.02,2754.58 2006.64,2753.08 2013,2757C2019.36,2760.92 2024.01,2764.28 2021,2769C2017.99,2773.72 2011,2772 2011,2772L2001,2769L1998,2774C1998,2774 2009.01,2779.48 2011,2782C2012.99,2784.52 2015.21,2787.68 2012,2792C2008.79,2796.32 2000,2797 2000,2797L1996,2803C1996,2803 2005.01,2809.38 2002,2815C1998.99,2820.62 1998,2821 1998,2821C1998,2821 1996.41,2824.78 1990,2823L1989,2826C1989,2826 1995,2839.25 1995,2922C1995,3171.75 1778.31,3549 1482,3549C1329.69,3549 1206,3404.25 1206,3206C1202,2910.42 1401,2710 1401,2710C1401,2710 1363.14,2694.25 1333,2675C1302.86,2655.75 1291.48,2647.92 1287,2639C1282.52,2630.08 1283,2626 1283,2626C1283,2626 1373.64,2437.58 1456,2355C1538.36,2272.42 1570.98,2244.42 1625,2222C1679.02,2199.58 1727.64,2191.75 1790,2197C1769.02,2174.92 1761,2169 1761,2169C1761,2169 1682,2167.12 1682,2103C1682,2071.55 1698.98,2016.62 1711,1972C1723.02,1927.38 1756,1819 1756,1819L1748,1807L1744,1807C1744,1807 1745.98,1808.79 1743,1816C1740.02,1823.21 1737,1823 1737,1823L1743,1828L1736,1840L1725,1835L1721,1841C1721,1841 1716.98,1842.45 1714,1840C1711.02,1837.55 1712,1834 1712,1834L1713,1829L1701,1819L1707,1808L1720,1812C1720,1812 1718.31,1810.45 1720,1806C1721.69,1801.55 1724,1801 1724,1801L1716,1799L1718,1792L1704,1789C1704,1789 1677.31,1806.29 1628,1791C1578.69,1775.71 1568,1770 1568,1770C1568,1770 1560.64,1772.29 1554,1770C1547.36,1767.71 1546.31,1762.29 1535,1759C1523.69,1755.71 1477,1739 1477,1739C1477,1739 1471.31,1789.95 1471,1793C1470.69,1796.05 1467,1797 1467,1797C1467,1797 1472.98,1805.95 1476,1845C1479.02,1884.05 1491.64,1955.79 1494,1990C1496.36,2024.21 1495,2055 1495,2055L1490,2055L1487,2057L1483,2056C1483,2056 1484.98,2051.79 1485,2044C1485.02,2036.21 1485,2035 1485,2035L1482,2036C1482,2036 1482.31,2049.29 1481,2054C1479.69,2058.71 1480,2059 1480,2059L1476,2058L1473,2057L1469,2057L1467,2059L1467,2061L1465,2061L1465,2059L1457,2059L1455,2060L1452,2060L1452,2061L1449,2061L1449,2060L1447,2060L1447,2058L1444,2058C1444,2058 1444.14,2058.79 1442,2059C1439.86,2059.21 1439,2059 1439,2059L1438,2054L1432,2050L1431,2041L1431,2038L1429,2038C1429,2038 1428.64,2044.46 1428,2050C1427.36,2055.55 1426,2058 1426,2058L1423,2057C1423,2057 1423.14,2056.45 1425,2042C1426.86,2027.55 1426.48,2013.46 1425,1997C1423.52,1980.55 1419.48,1944.54 1417,1912C1414.52,1879.46 1416.31,1833.37 1419,1818C1421.69,1802.63 1426,1793 1426,1793C1426,1793 1422.31,1794.2 1423,1785C1423.69,1775.8 1430,1724 1430,1724C1430,1724 1407.31,1716.29 1409,1696C1410.69,1675.71 1433,1676 1433,1676C1433,1676 1451.31,1665.45 1475,1671C1498.69,1676.55 1621,1721 1621,1721C1621,1721 1619.73,1719.95 1635,1699C1650.27,1678.05 1716.64,1607.54 1742,1580C1767.36,1552.46 1928.56,1385.79 1934,1379C1939.44,1372.21 1959.73,1356.29 1968,1353C1976.27,1349.71 1978,1349 1978,1349C1978,1349 1985.48,1335.87 2002,1331C2018.52,1326.13 2027.48,1327.37 2030,1330C2040.52,1326.13 2047.39,1321.95 2057,1326C2066.61,1330.05 2066,1336 2066,1336C2066,1336 2079.06,1291 2130,1291C2180.94,1291 2189.73,1322.37 2190,1333C2199.94,1328.13 2212.56,1329.87 2222,1332C2231.44,1334.13 2252,1335 2252,1335C2252,1335 2142,1316.62 2142,1189C2142,1165.38 2146,1146 2146,1146C2146,1146 2100.56,1124.37 2088,1112C2075.44,1099.63 2075,1086 2075,1086C2075,1086 2055.56,1076.37 2030,1073C2004.44,1069.63 1913.51,1054.17 1900,1051C1886.49,1047.83 1878.11,1046.77 1873,1049C1867.89,1051.23 1864.91,1053 1857,1053C1849.09,1053 1837,1048.77 1837,1034C1837,1019.23 1845.71,1013 1858,1013C1870.29,1013 1869.71,1018.57 1881,1019C1892.29,1019.43 1950.91,1024.37 1989,1031C2023.24,1036.96 2026.63,1037.86 2026.96,1037.98C2026.99,1037.99 2027,1038 2027,1038C2027,1038 2027,1038 2026.96,1037.98C2025.8,1037.43 1997.37,1023.87 1986,1014C1974.39,1003.93 1970.01,994.472 1971,979C1971.99,963.528 1985.01,948 2006,948C2026.99,948 2057.31,957.372 2069,960C2080.69,962.628 2082.11,970.972 2096,977C2109.89,983.028 2135,994 2135,994C2135,994 2140.81,984.472 2143,981C2145.19,977.528 2155,974 2155,974C2155,974 2164.81,956.072 2170,953C2175.19,949.928 2184,950 2184,950C2184,950 2186,935.372 2186,925C2186,914.628 2186.41,906.372 2176,890C2165.59,873.628 2079,726 2079,726C2079,726 2069.81,723.572 2068,720C2066.19,716.428 2024.61,662.472 2022,656C2019.39,649.528 2019,646 2019,646C2019,646 1988.01,644.172 1983,635C1977.99,625.828 1978.69,619.872 1969,607C1959.31,594.128 1942.19,574.122 1933,555C1923.81,535.878 1912.19,508.872 1906,487C1899.81,465.128 1904.94,452.622 1916,442C1927.06,431.378 1957.19,415.372 1999,434C2040.81,452.628 2082.69,485.872 2094,510C2105.31,534.128 2107.31,555.622 2100,585C2092.69,614.378 2074,627 2074,627C2074,627 2097.31,680.122 2101,689C2104.69,697.878 2107.81,698.872 2107,704C2106.19,709.128 2105,711 2105,711L2196,868C2196,868 2213.69,898.747 2214,919C2214.31,939.253 2215,953 2215,953C2215,953 2220.94,954.997 2225,956C2229.06,957.003 2234,973 2234,973L2266,982C2266,982 2277.06,971.372 2303,964C2328.94,956.628 2341,957 2341,957C2341,957 2359.56,946 2453,946C2546.44,946 2582.44,1004.87 2622,1043C2661.56,1081.13 2698.44,1117.25 2706,1127C2713.56,1136.75 2714,1140 2714,1140L2740,1156C2740,1156 2743.69,1153.75 2752,1156C2760.31,1158.25 2832,1183 2832,1183C2832,1183 2832.69,1182.75 2839,1180C2845.31,1177.25 2850,1177 2850,1177C2850,1177 2853.94,1149.25 2866,1138C2878.06,1126.75 2886.44,1123.75 2904,1118C2921.56,1112.25 3135,1048 3135,1048C3135,1048 3132.44,1040.5 3143,1037C3153.56,1033.5 3227.44,1004.5 3231,1003C3234.56,1001.5 3243,1006 3243,1006C3243,1006 3223,961.247 3223,932C3223,902.753 3242.46,860 3364,860C3485.54,860 3562,916.622 3562,949C3562,981.378 3450.73,1070 3352,1070C3325.27,1070 3304.73,1062.12 3294,1056C3283.27,1049.88 3274,1050 3274,1050C3274,1050 3275.48,1052.87 3268,1055C3260.52,1057.13 3255,1056 3255,1056C3255,1056 3256.23,1058.87 3246,1062C3235.77,1065.13 3158.35,1081.12 3153,1083C3147.65,1084.88 3142,1076 3142,1076L2916,1145C2916,1145 2888.48,1151 2884,1166C2879.52,1181 2879,1188 2879,1188C2879,1188 2880.73,1190 2881,1193C2881.27,1196 2881,1199 2881,1199C2881,1199 2886.48,1201.87 2887,1205C2887.52,1208.13 2888,1208 2888,1208C2888,1208 2906.73,1215.37 2915,1220C2923.27,1224.63 2923.5,1231 2923.5,1231C2923.5,1231 2935.23,1236.12 2941,1239C2946.77,1241.88 2946,1252 2946,1252C2946,1252 2955.98,1252.37 2957,1266C2958.02,1279.63 2956,1283 2956,1283C2956,1283 2960.48,1294.87 2966,1298C2971.52,1301.13 2967.48,1298.37 2978,1301C2988.52,1303.63 3058.1,1327.25 3108,1344C3157.9,1360.75 3178.73,1370.75 3188,1372C3197.27,1373.25 3196.23,1374.25 3201,1374C3206.27,1371.25 3205.98,1371.25 3215,1374C3224.02,1376.75 3309.85,1410.25 3317,1417C3324.15,1423.75 3327.6,1432 3325,1444C3322.4,1456 3314.85,1471.75 3311,1479C3307.15,1486.25 3298.6,1489.5 3288,1488C3277.4,1486.5 3188.1,1465 3181,1462C3173.9,1459 3175,1452 3175,1452C3175,1452 3170.6,1452.75 3167,1449C3163.4,1445.25 3157.35,1444.5 3148,1442C3138.65,1439.5 2941,1372 2941,1372C2941,1372 3022.35,1423.87 3049,1449C3075.65,1474.13 3084,1479.5 3084,1493C3084,1506.5 3072.1,1516 3062,1516C3051.9,1516 3042,1503.75 3042,1496C3042,1488.25 3040.1,1484.25 3027,1474C3013.9,1463.75 2983.73,1441.25 2957,1423C2930.27,1404.75 2914,1398 2914,1398C2914,1398 2909.73,1406.5 2906,1411C2902.27,1415.5 2896,1415 2896,1415C2896,1415 2892.23,1421.5 2888,1422C2883.77,1422.5 2869.23,1419.5 2856,1419C2842.77,1418.5 2825.85,1413.75 2813,1409C2800.15,1404.25 2780,1395 2780,1395C2780,1395 2776.1,1396 2772,1396C2767.9,1396 2767,1393 2767,1393L2758,1393C2751.4,1393 2749.7,1390.64 2749.7,1384.7C2749.7,1378.75 2749,1378 2749,1378L2637,1349C2637,1349 2620.85,1341.87 2609,1362C2597.15,1382.13 2559.35,1440.87 2549,1464C2538.65,1487.13 2536.1,1490.12 2533,1496C2529.9,1501.88 2527.35,1500.87 2520,1499C2514.46,1497.59 2509.88,1495.46 2507.97,1494.5C2507.53,1493.9 2507,1494 2507,1494C2507,1494 2507.34,1494.19 2507.97,1494.5ZM1546,3282C1546,3282 1552.27,3310.63 1561,3315C1569.73,3319.37 1588,3313 1588,3313C1588,3313 1576,3309.15 1565,3303C1556.73,3298.37 1546,3282 1546,3282ZM1582,2888C1582,2888 1588.27,2879.88 1595,2871C1602.42,2861.2 1628,2831 1628,2831C1628,2831 1621.77,2837.88 1604,2854C1586.23,2870.12 1580,2882 1580,2882L1582,2888ZM1710,2028C1710,2028 1722.52,2001.38 1738,1971C1753.48,1940.62 1768,1919 1768,1919C1768,1919 1774.02,1897.88 1780,1885C1785.98,1872.12 1782.52,1864.38 1791,1852C1799.48,1839.62 1797,1835 1797,1835L1788,1837L1767,1827C1767,1827 1757.52,1854.38 1744,1903C1730.48,1951.62 1710,2028 1710,2028ZM2092,1443L2109,1438L2124,1418C2124,1418 2114.11,1417.55 2114,1418C2113.89,1418.45 2092,1443 2092,1443ZM4620.22,1424.02L4692,1417C4692,1417 4688.86,1382.3 4684,1342C4679.14,1301.7 4667,1284 4667,1284C4667,1284 4564.19,1296.63 4559,1298C4553.81,1299.37 4551.19,1328.96 4552,1350C4552.81,1371.04 4559,1430 4559,1430L4612.99,1424.72C4610.79,1423.27 4608.18,1422.43 4605.55,1422.05C4600.94,1421.39 4596.24,1422.08 4593.43,1423.58C4592.13,1424.27 4590.51,1423.78 4589.82,1422.48C4589.13,1421.18 4589.62,1419.56 4590.92,1418.87C4594.51,1416.97 4600.45,1415.94 4606.31,1416.77C4611.62,1417.53 4616.82,1419.76 4620.22,1424.02ZM4611.72,1456.89L4562,1461C4562,1461 4562.36,1501.63 4565,1527C4567.64,1552.37 4583,1577 4583,1577C4583,1577 4593.69,1575.63 4600,1575C4604.53,1574.55 4607.7,1576.29 4609.14,1577.31L4620.61,1536.01C4620.61,1535.99 4620.62,1535.96 4620.63,1535.93C4620.63,1535.93 4622.76,1529.15 4622.76,1524.48C4622.76,1519.98 4621.19,1515.94 4621.19,1515.94C4621.17,1515.89 4621.15,1515.84 4621.14,1515.79C4621.14,1515.79 4609.68,1479.94 4609.69,1479.94C4609.26,1478.99 4607.25,1474.22 4606.77,1467.93C4606.58,1465.48 4607.68,1462.93 4609.56,1460.05C4610.2,1459.06 4610.94,1458.02 4611.72,1456.89ZM4613.22,1582.56C4614.43,1582.5 4616.27,1582.57 4619,1583C4625.64,1584.04 4627,1588 4627,1588L4707,1583L4695,1450L4618.4,1456.34C4617.47,1457.88 4616.53,1459.29 4615.63,1460.59C4614.54,1462.19 4613.54,1463.61 4612.85,1464.94C4612.37,1465.85 4612.02,1466.68 4612.08,1467.52C4612.54,1473.48 4614.59,1477.83 4614.59,1477.83C4614.64,1477.94 4614.68,1478.05 4614.72,1478.16C4614.72,1478.16 4626.19,1514.1 4626.19,1514.09C4626.44,1514.75 4628.09,1519.38 4628.09,1524.48C4628.09,1529.56 4625.93,1536.82 4625.74,1537.47L4613.22,1582.56ZM4744.04,1410.75L4768,1409L4749,1273L4705,1278C4705,1278 4717.52,1310.3 4721,1343C4723.59,1367.32 4725.64,1393.63 4726.53,1405.52C4728.4,1405.42 4730.36,1405.5 4732.31,1405.77C4736.58,1406.38 4740.79,1407.94 4744.04,1410.75ZM4726.92,1410.83C4726.97,1411.59 4727,1412 4727,1412L4733.82,1411.5C4733.07,1411.31 4732.31,1411.16 4731.55,1411.05C4729.99,1410.83 4728.42,1410.76 4726.92,1410.83ZM4734.88,1447.58L4731,1448L4740.6,1561.24L4748.61,1528.01C4748.61,1527.99 4748.62,1527.96 4748.63,1527.93C4748.63,1527.93 4750.76,1521.15 4750.76,1516.48C4750.76,1511.98 4749.19,1507.94 4749.19,1507.94C4749.17,1507.89 4749.15,1507.84 4749.14,1507.79C4749.14,1507.79 4734.68,1467.94 4734.69,1467.94C4734.26,1466.99 4732.25,1462.22 4731.77,1455.93C4731.58,1453.48 4732.68,1450.93 4734.56,1448.05C4734.66,1447.89 4734.77,1447.74 4734.88,1447.58ZM4745.02,1565.62C4752.26,1564.96 4767.76,1563.59 4779,1563C4790.48,1537.2 4785,1493 4785,1493L4777,1443L4741.89,1446.82C4741.45,1447.42 4741.03,1448.01 4740.63,1448.59C4739.54,1450.19 4738.54,1451.61 4737.85,1452.94C4737.37,1453.85 4737.02,1454.68 4737.08,1455.52C4737.54,1461.48 4739.59,1465.83 4739.59,1465.83C4739.64,1465.94 4739.68,1466.05 4739.72,1466.16C4739.72,1466.16 4754.19,1506.1 4754.19,1506.09C4754.44,1506.75 4756.09,1511.38 4756.09,1516.48C4756.09,1521.56 4753.93,1528.82 4753.74,1529.47L4745.02,1565.62ZM4630,3078C4630,3078 4631.02,3085.38 4641,3092C4650.98,3098.62 4658,3099 4658,3099C4658,3099 4682.02,3076.88 4698,3050C4713.98,3023.12 4722,2996 4722,2996C4722,2996 4713.52,2995.88 4703,2999C4692.48,3002.12 4683.02,3008.88 4681,3015C4678.98,3021.12 4672,3029 4672,3029C4672,3029 4675.02,3033.38 4671,3041C4666.98,3048.62 4660,3049 4660,3049C4660,3049 4656.52,3050.38 4651,3059C4645.48,3067.62 4630,3078 4630,3078ZM1789.85,1579.04C1793.27,1576.09 1799.84,1572 1810,1572C1825.89,1572 1824,1574 1824,1574L1871,1522C1871,1522 1878.77,1511.88 1884,1504C1889.23,1496.12 1877,1499 1877,1499L1863,1503L1789.85,1579.04ZM1789.85,1579.04C1787.92,1580.7 1787,1582 1787,1582L1789.85,1579.04ZM4339,3136C4339,3136 4382.77,3171.13 4456,3177C4509.2,3181.27 4542,3168 4542,3168C4542,3168 4537.77,3164.63 4530,3157C4522.23,3149.37 4514,3128 4514,3128C4514,3128 4489.27,3130.13 4459,3127C4428.73,3123.87 4405,3111 4405,3111C4405,3111 4403.27,3114.13 4396,3111C4388.73,3107.87 4382.77,3110.13 4377,3103C4371.23,3095.87 4365,3088 4365,3088L4339,3136ZM4549,1263C4549,1263 4554.02,1260.4 4560,1260C4566.81,1259.54 4611.19,1254.13 4642,1249C4672.81,1243.87 4673,1249 4673,1249L4744,1239C4744,1239 4738.19,1200.13 4730,1163C4721.81,1125.87 4713,1118 4713,1118C4713,1118 4556.86,1145.8 4552,1147C4547.14,1148.2 4546.52,1159.8 4544,1183C4541.48,1206.2 4549,1263 4549,1263ZM1668,1715L1684,1714C1684,1714 1687.27,1700.71 1691,1699C1694.73,1697.29 1710,1696 1710,1696L1723,1684C1723,1684 1725.61,1675.05 1730,1662C1734.39,1648.95 1742,1644 1742,1644L1777,1619L1745,1627L1668,1715ZM2033,1492L2048,1475L2047,1467L2063,1449L2063,1440L2032,1475L2033,1492ZM4506,2712C4506,2712 4512.52,2713.88 4521,2721C4529.48,2728.12 4525,2732 4525,2732L4551,2750C4551,2750 4557.02,2743.88 4561,2740C4564.98,2736.12 4573.02,2737.38 4587,2738C4600.98,2738.62 4606.52,2747.38 4608,2754C4609.48,2760.62 4608,2788 4608,2788L4619,2794L4641,2754C4641,2754 4640.52,2747.88 4630,2737C4619.48,2726.12 4615,2718 4615,2718C4615,2718 4609.52,2720.88 4598,2718C4586.48,2715.12 4583.52,2720.88 4576,2720C4568.48,2719.12 4556,2715 4556,2715C4556,2715 4551.02,2721 4544,2721C4536.98,2721 4539,2712 4539,2712L4506,2705L4506,2712ZM3626.55,3020.22C3626.55,3020.22 3632.55,3023.72 3646.8,3028.97C3661.05,3034.22 3671.8,3035.47 3671.8,3035.47L3672.3,3031.72C3672.3,3031.72 3662.8,3025.22 3650.3,3020.97C3637.8,3016.72 3631.05,3015.22 3631.05,3015.22L3626.55,3020.22ZM2060,1365L2039,1389L2047,1394L2053,1387L2060,1385L2060,1365ZM4651,1683L4678,1692L4703,1692C4703,1692 4704.19,1690.13 4706,1684C4707.81,1677.87 4708,1673 4708,1673L4651,1683ZM1877,1582L1848,1622L1858,1627L1880,1596L1877,1582ZM4653,2678C4653,2678 4662.65,2687.63 4663,2695C4663.35,2702.37 4659,2706 4659,2706C4659,2706 4670.15,2702.63 4678,2708C4685.85,2713.37 4681.15,2723.63 4674,2727C4666.85,2730.37 4669,2737 4669,2737L4679,2737C4688.35,2737 4690,2753 4690,2753L4692,2771C4692,2771 4697.9,2770.63 4704,2767C4710.1,2763.37 4716,2765 4716,2765C4716,2765 4708.9,2744.63 4690,2718C4671.1,2691.37 4653,2678 4653,2678ZM1767,1638C1767,1638 1757.27,1644.38 1748,1651C1738.73,1657.62 1738,1660 1738,1660L1734,1674L1767,1638ZM4015.78,3061.11C4014.83,3058.09 4013.9,3055.05 4013,3052L3976,3049C3976,3049 3966.85,3053.33 3960,3056C3953.15,3058.67 3949,3058 3949,3058C3949,3058 3950.77,3066.27 3949.55,3074.03C3960.36,3073.18 3974.31,3071.52 3987.63,3068.27C3999.14,3065.46 4008.64,3063.01 4015.78,3061.11ZM1914,1613L1901,1632L1899,1668L1903,1671L1931,1629L1914,1613ZM1662,1736C1662,1736 1666.94,1741 1675,1741C1683.06,1741 1682,1734 1682,1734L1662,1736ZM4621,1626L4708,1607L4708,1601L4630,1605C4630,1605 4630.19,1605.63 4628,1610C4625.81,1614.37 4621,1614 4621,1614L4621,1626Z"/>
    </g>
    <g transform="matrix(1.23362,0,-0.170833,1.04167,-1559.4,-487.494)">
        <ellipse cx="2311.05" cy="1169.43" rx="117" ry="160" style="fill:white;"/>
    </g>
</svg>
