<?xml version="1.0" encoding="UTF-8" standalone="no"?>
<!DOCTYPE svg PUBLIC "-//W3C//DTD SVG 1.1//EN" "http://www.w3.org/Graphics/SVG/1.1/DTD/svg11.dtd">
<svg width="100%" height="100%" viewBox="0 0 1180 858" version="1.1" xmlns="http://www.w3.org/2000/svg" xmlns:xlink="http://www.w3.org/1999/xlink" xml:space="preserve" xmlns:serif="http://www.serif.com/" style="fill-rule:evenodd;clip-rule:evenodd;stroke-linejoin:round;stroke-miterlimit:2;">
    <g transform="matrix(0.998877,-0.0473876,0.0473876,0.998877,-32.0404,21.4124)">
        <g transform="matrix(1,0,0,1,-278.313,-327.676)">
            <path d="M983.727,962.351L969.527,965.851C969.527,965.851 972.327,993.601 972.327,1008.6C972.327,1023.6 965.694,1123.08 923.36,1161.75C881.027,1200.42 855.027,1191.42 843.027,1189.75C831.027,1188.08 813.86,1184.75 799.527,1166.75C785.193,1148.75 775.86,1127.42 775.86,1127.42L747.884,1136.61L713.598,1162.18C713.598,1162.18 712.741,1162.89 709.455,1161.75C706.17,1160.61 688.455,1154.32 688.455,1154.32C688.455,1154.32 687.598,1153.04 687.598,1150.46C687.598,1147.89 688.17,1143.46 688.17,1143.46L600.241,1117.46L586.384,1127.18C586.384,1127.18 584.098,1127.18 581.955,1126.46C579.813,1125.75 567.098,1121.75 565.527,1120.89C563.955,1120.04 564.813,1106.46 564.813,1106.46L518.884,1093.61C518.884,1093.61 504.17,1097.32 490.455,1096.75C476.741,1096.18 437.67,1079.61 430.813,1066.75C409.813,1061.04 398.527,1056.89 398.527,1056.89L384.098,1066.32C384.098,1066.32 383.741,1067.75 378.741,1066.04C373.741,1064.32 369.313,1061.75 366.884,1060.75C364.455,1059.75 364.455,1047.75 364.455,1047.75L305.098,1032.18C305.098,1032.18 295.67,1037.32 293.955,1037.75C292.241,1038.18 279.813,1033.89 279.813,1033.89C279.813,1033.89 279.027,1033.96 279.027,1029.82C279.027,1025.68 278.313,1006.11 278.313,1003.82C278.313,1001.54 294.17,987.251 294.17,987.251L290.17,785.322C290.17,785.322 293.027,773.037 301.884,773.18C310.741,773.322 314.741,773.037 320.313,774.18C325.884,775.322 330.884,782.322 331.598,790.037C369.741,794.322 374.598,794.894 374.598,794.894C374.598,794.894 374.527,754.751 375.241,735.322C375.955,715.894 377.955,695.322 377.955,695.322C377.955,695.322 377.813,683.108 377.813,675.537C377.813,667.965 385.67,663.822 385.67,663.822L401.027,574.68C401.027,574.68 400.313,570.822 401.884,564.108C403.455,557.394 408.813,532.465 413.67,511.037C418.527,489.608 425.813,458.608 425.813,458.608C425.813,458.608 415.67,456.18 409.955,459.037C404.241,461.894 397.384,463.751 398.955,460.465C400.527,457.18 430.955,406.251 435.098,399.251C439.241,392.251 439.67,389.68 451.527,389.965C463.384,390.251 515.955,391.108 515.955,391.108C515.955,391.108 512.16,383.403 516.881,372.466C519.592,366.185 524.135,362.098 529.88,362.37C535.625,362.643 539.67,369.322 540.527,373.465C541.384,377.608 546.78,380.397 551.494,382.254C556.208,384.111 589.955,395.465 589.955,395.465L611.955,388.608L608.17,385.322C608.17,385.322 606.455,382.322 607.17,379.608C607.884,376.894 610.741,375.894 610.741,375.894L623.313,374.751C623.313,374.751 622.027,373.18 626.027,373.18C630.027,373.18 631.884,374.608 631.884,374.608C631.884,374.608 631.741,372.894 634.313,372.322C636.884,371.751 647.598,371.18 647.598,371.18C647.598,371.18 650.527,368.751 654.813,370.18C659.098,371.608 666.384,374.751 666.384,374.751C666.384,374.751 666.67,370.18 670.67,370.18C674.67,370.18 681.241,370.465 681.241,370.465C681.241,370.465 680.527,368.18 684.241,368.037C687.955,367.894 693.098,369.322 693.098,369.322C693.098,369.322 711.455,365.108 730.884,360.251C750.313,355.394 763.087,353.746 763.087,353.746C763.087,353.746 762.844,329.226 775.012,329.803C787.18,330.38 792.598,346.68 792.598,346.68C792.598,346.68 820.598,337.822 831.741,338.68C842.884,339.537 855.027,348.68 859.598,352.537C864.17,356.394 869.17,360.108 869.17,360.108C869.17,360.108 885.455,367.251 893.884,372.251C902.313,377.251 907.027,382.822 907.027,382.822L1136.31,446.608C1136.31,446.608 1143.53,448.608 1147.67,452.037C1151.81,455.465 1152.1,456.037 1152.1,456.037L1155.95,407.18C1155.95,407.18 1156.67,387.037 1163.1,377.037C1169.53,367.037 1181.24,356.608 1186.38,356.322C1191.53,356.037 1197.38,360.894 1197.38,368.18C1197.38,375.465 1196.24,377.894 1192.38,383.037C1188.53,388.18 1181.95,389.281 1181.38,412.465C1180.81,435.649 1180.31,533.078 1180.31,533.078C1189.6,533.363 1192.88,537.078 1192.88,537.078L1176.88,798.863C1176.88,798.863 1175.88,799.578 1170.17,800.149C1164.45,800.721 1159.03,799.721 1159.03,799.721L1159,801.909C1159,801.909 1168,800.509 1176.4,800.509C1184.8,800.509 1195.39,802.683 1202.96,810.509C1212.04,810.335 1261.19,805.76 1261.19,805.76C1261.19,805.76 1286.57,815.135 1301.32,815.76L1316.07,816.385C1316.07,816.385 1315.89,815.215 1316.91,815.215L1319.47,815.215C1320.43,815.215 1320.43,816.175 1320.43,816.175C1320.43,816.175 1348.8,816.335 1358.35,814.002C1362.46,815.78 1370.13,822.113 1370.13,822.113C1370.13,822.113 1377.24,822.502 1385.13,822.947C1393.02,823.391 1399.8,827.28 1402.24,831.169C1405.8,829.28 1408.02,826.724 1414.57,826.391C1421.13,826.058 1436.46,827.947 1441.02,829.169C1445.57,830.391 1467.24,848.845 1464.24,893.454C1461.24,938.064 1445.67,988.207 1429.53,990.778C1413.38,993.35 1394.1,991.35 1388.81,988.207C1383.53,985.064 1379.24,978.207 1379.24,978.207C1379.24,978.207 1367.95,1016.92 1354.24,1021.06C1340.53,1025.21 1310.74,1026.06 1302.17,1022.78C1293.6,1019.49 1291.31,1014.78 1291.31,1014.78C1291.31,1014.78 1282.45,1017.63 1276.03,1016.78C1269.6,1015.92 1261.88,1017.63 1252.03,1012.21C1242.17,1006.78 1232.6,991.778 1232.6,991.778L1221.74,989.492L1160.03,1006.21C1160.03,1006.21 1157.74,1009.35 1148.03,1012.49C1138.31,1015.63 1135.03,1014.92 1135.03,1014.92C1135.03,1014.92 1122.17,1020.21 1118.31,1020.21C1114.45,1020.21 1111.45,1017.49 1111.45,1017.49C1111.45,1017.49 1110.6,1022.35 1104.6,1024.21C1098.6,1026.06 1076.88,1025.06 1068.31,1021.21C1059.74,1017.35 1052.88,1012.21 1052.88,1012.21L1052.03,1022.92C1051.57,1028.67 1048.03,1036.92 1042.88,1039.92C1037.74,1042.92 1019.46,1047.92 1015.31,1048.63C1011.17,1049.35 1005.03,1048.49 998.74,1045.21C992.455,1041.92 986.883,1039.06 987.169,1030.92C987.455,1022.78 990.312,967.921 990.312,967.921L983.727,962.351ZM348.955,952.064L348.955,979.492L362.955,983.492L362.955,954.635L348.955,952.064ZM435.901,552.421L435.901,522.992C435.901,522.992 433.187,534.421 430.33,546.135C427.472,557.85 432.758,555.707 432.758,555.707L435.901,552.421ZM438.312,937.707L438.74,943.992L450.74,946.85L450.455,940.278L438.312,937.707ZM379.955,905.992L351.955,899.421L355.955,916.421L379.955,920.992L379.955,905.992ZM545.24,552.421C553.24,541.564 563.24,488.135 563.24,488.135C563.24,488.135 561.383,480.85 535.526,477.707C512.77,474.941 476.669,470.564 476.669,470.564L474.955,552.421L545.24,552.421ZM374.097,848.135C374.097,848.135 366.24,847.278 360.526,845.278C354.812,843.278 353.383,836.992 353.383,836.992L353.526,809.992L332.955,805.85L348.955,883.707L370.669,887.278C370.669,887.278 372.097,883.85 372.669,881.421C373.24,878.992 374.097,848.135 374.097,848.135ZM469.597,470.564L457.169,470.564L450.312,495.135L448.169,555.707L468.026,552.421L469.597,470.564ZM1030.67,980.921C1030.67,980.921 1023.53,981.207 1014.38,977.921C1013.96,988.635 1013.24,1026.49 1013.24,1026.49L1030.81,1020.63L1030.67,980.921Z"/>
        </g>
        <g transform="matrix(0.0911119,0.0160655,-0.00256496,0.163987,797.863,145.354)">
            <path d="M483.349,298.593L484.113,328.345L439.053,353.051L439.053,567.575L541.936,483.191L555.675,250.091L483.349,298.593ZM132.061,298.593L131.297,328.345L176.357,353.051L176.357,567.575L73.474,483.191L59.735,250.091L132.061,298.593ZM354.547,526.915L260.863,526.915L228.496,610.381L307.705,610.699L386.914,610.381L354.547,526.915ZM307.705,469.507L260.039,469.763L258.239,324.179L184.007,358.307L182.307,571.493L221.973,606.664L256.569,517.12L307.705,517.001L358.841,517.12L393.437,606.664L433.103,571.493L431.403,358.307L357.171,324.179L355.371,469.763L307.705,469.507ZM307.705,229.29L246.337,189.886L266.575,318.908L266.575,462.196L348.835,462.196L348.835,318.908L369.073,189.886L307.705,229.29ZM307.705,139.096L240.645,89.203L307.705,89.039L374.765,89.203L307.705,139.096ZM316.635,0.971L298.775,0.971L295.535,1.043L292.367,1.043L286.175,1.187L283.151,1.331L277.247,1.475L271.631,1.763L268.895,1.907L266.231,2.051L260.975,2.411L254.639,2.915L248.375,3.563L245.351,3.851L242.327,4.211L236.351,5.003L230.519,5.795L224.759,6.731L219.215,7.811L213.743,8.891L208.631,10.043L203.519,11.267L198.335,12.635L193.151,14.075L188.039,15.587L182.855,17.315L177.599,19.043L172.415,20.915L167.159,22.931L161.975,24.947L156.791,27.107L151.463,29.411L146.279,31.787L140.951,34.307L135.695,36.899L122.731,42.618L131.895,102.106L307.705,218.754L483.515,102.106L492.679,42.618L479.715,36.899L474.459,34.307L469.131,31.787L463.947,29.411L458.619,27.107L453.435,24.947L448.251,22.931L442.995,20.915L437.811,19.043L432.555,17.315L427.371,15.587L422.259,14.075L417.075,12.635L411.891,11.267L406.779,10.043L401.667,8.891L396.195,7.811L390.651,6.731L384.891,5.795L379.059,5.003L373.083,4.211L370.059,3.851L367.035,3.563L360.771,2.915L354.435,2.411L349.179,2.051L346.515,1.907L343.779,1.763L338.163,1.475L332.259,1.331L329.235,1.187L323.043,1.043L319.875,1.043L316.635,0.971ZM71.728,116.446L73.674,128.645L197.526,212.712L196.726,201.291L71.728,116.446ZM80.207,169.603L81.925,180.375L200.918,261.144L200.212,251.059L80.207,169.603ZM0.475,35.171L113.917,43.572L128.09,107.104L239.797,183.919L258.167,312.731L130.668,291.812L43.422,229.076L0.475,35.171ZM543.682,116.446L541.736,128.645L417.884,212.712L418.684,201.291L543.682,116.446ZM535.203,169.603L533.485,180.375L414.492,261.144L415.198,251.059L535.203,169.603ZM614.935,35.171L501.493,43.572L487.32,107.104L375.613,183.919L357.243,312.731L484.742,291.812L571.988,229.076L614.935,35.171Z" style="fill:white;"/>
        </g>
    </g>
</svg>
