<?xml version="1.0" encoding="UTF-8" standalone="no"?>
<!DOCTYPE svg PUBLIC "-//W3C//DTD SVG 1.1//EN" "http://www.w3.org/Graphics/SVG/1.1/DTD/svg11.dtd">
<svg width="100%" height="100%" viewBox="0 0 137 400" version="1.1" xmlns="http://www.w3.org/2000/svg" xmlns:xlink="http://www.w3.org/1999/xlink" xml:space="preserve" xmlns:serif="http://www.serif.com/" style="fill-rule:evenodd;clip-rule:evenodd;stroke-linejoin:round;stroke-miterlimit:2;">
    <g transform="matrix(0.522706,0,0,0.522706,111.431,231.41)">
        <path d="M0,-119.773C-3.556,-121.41 -3.778,-132.039 0.288,-133.288C2.966,-130.733 3.223,-121.93 0,-119.773M-24.729,-109.996C-31.552,-109.841 -31.938,-123.284 -25.879,-124.661C-17.67,-126.526 -17.928,-110.15 -24.729,-109.996M-68.724,-96.193C-76.911,-96.865 -78.325,-109.911 -69.586,-111.434C-69.575,-111.436 -69.503,-111.698 -69.3,-111.722C-58.454,-112.925 -58.479,-95.354 -68.724,-96.193M-113.87,-108.845C-121.187,-108.676 -121.977,-121.876 -115.02,-123.223C-106.71,-124.833 -105.682,-109.035 -113.87,-108.845M46.01,-36.383C45.254,-41.061 45.476,-46.259 45.147,-51.336C42.857,-86.691 41.645,-121.456 39.684,-156.867C38.604,-176.347 37.948,-197.075 35.37,-216.103C33.476,-230.088 29.602,-242.471 24.73,-252.909C22.956,-256.711 21.188,-260.954 19.268,-263.549C16.698,-267.018 11.763,-269.51 7.765,-272.175C5.761,-273.512 3.74,-274.919 1.727,-276.201C-0.333,-277.511 -2.711,-278.52 -4.6,-279.94C-7.01,-281.751 -8.788,-284.358 -11.214,-286.265C-13.771,-288.276 -16.756,-289.346 -19.553,-291.154C-22.124,-292.817 -24.842,-296.083 -29.329,-295.179C-28.502,-296.953 -29.344,-299.321 -30.191,-300.356C-27.483,-301.672 -28.629,-306.844 -27.892,-310.132C-23.077,-313.848 -21.18,-320.481 -18.114,-325.947C-8.838,-319.88 -0.512,-327.506 4.027,-333.999C10.695,-343.539 13.313,-356.802 13.229,-372.531C13.186,-380.432 13.019,-389.29 11.216,-394.385C8.179,-402.968 -9.263,-407.169 -13.515,-398.124C-19.72,-407.85 -29.853,-416.912 -43.132,-419.114C-46.391,-419.655 -48.021,-418.461 -50.608,-418.252C-52.854,-418.071 -55.053,-418.82 -57.222,-418.827C-72.563,-418.877 -74.727,-407.585 -85.114,-402.436C-87.094,-408.218 -94.065,-410.065 -99.204,-406.175C-103.251,-403.111 -104.946,-396.47 -108.118,-390.647C-110.744,-385.826 -115.054,-379.476 -115.594,-373.681C-116.567,-363.242 -114.028,-355.97 -112.144,-347.802C-110.912,-342.461 -110.288,-337.568 -108.406,-333.999C-105.76,-328.982 -100.578,-323.872 -91.44,-325.373C-85.679,-326.318 -82.576,-331.693 -81.664,-336.875C-81.394,-338.406 -82.263,-341.271 -79.651,-342.05C-78.574,-336.897 -78.745,-330.495 -76.776,-326.235C-78.597,-326.235 -79.416,-325.234 -80.514,-324.51C-81.19,-321.448 -82.262,-318.781 -82.813,-315.596C-85.623,-313.229 -86.627,-309.058 -89.428,-306.682C-95.503,-306.947 -98.808,-304.437 -102.942,-302.943C-104.278,-302.461 -105.766,-302.281 -106.968,-301.793C-108.64,-301.115 -110.188,-299.827 -111.856,-299.206C-113.482,-298.6 -115.256,-298.661 -116.745,-298.055C-118.42,-297.374 -119.889,-295.676 -121.633,-294.892C-128.517,-291.797 -136.885,-291.739 -142.912,-288.566C-146.314,-286.774 -148.664,-282.949 -151.539,-281.09C-151.553,-281.749 -151.667,-282.518 -151.839,-283.349L-152.747,-294.742L-141.232,-296.691L-135.75,-300.238L-135.105,-304.431L-113.23,-311.474L-116.334,-330.773L-154.741,-324.424L-154.75,-324.946C-155.639,-331.171 -150.749,-330.505 -150.971,-335.618C-151.193,-340.731 -154.528,-403.206 -155.417,-409.875C-155.976,-414.07 -158.119,-416.505 -160.295,-418.178L-161.864,-435.442C-161.864,-435.442 -162.712,-435.704 -164.006,-436.027L-164.367,-440.564C-164.367,-440.564 -167.349,-442.716 -172.781,-442.716C-178.213,-442.716 -181.413,-438.973 -181.413,-438.973L-179.898,-419.435L-185.431,-413.21L-184.986,-411.654L-179.962,-410.692C-181.687,-406.766 -183.314,-402.444 -183.208,-400.315C-182.985,-395.869 -179.65,-337.175 -178.983,-334.062C-178.316,-330.949 -172.868,-330.507 -172.646,-325.838C-172.644,-325.811 -172.637,-325.78 -172.635,-325.752L-172.134,-319.294L-177.551,-318.799L-178.965,-317.976C-178.965,-317.976 -176.441,-311.937 -171.403,-309.864L-170.315,-295.828C-171.442,-292.6 -174.391,-290.049 -175.693,-286.553C-177.492,-281.722 -177.763,-276.111 -179.718,-271.025C-181.25,-270.077 -184.077,-269.667 -184.895,-267.862C-185.482,-266.565 -184.849,-264.205 -185.182,-261.823C-185.327,-260.783 -185.978,-259.766 -186.044,-258.948C-186.31,-255.706 -185.758,-251.626 -185.758,-247.733C-185.758,-243.905 -184.786,-239.573 -185.47,-236.519C-185.803,-235.029 -187.812,-232.448 -188.921,-230.48C-195.175,-219.374 -199.678,-209.995 -205.886,-199.424C-207.574,-196.551 -212.621,-190.146 -213.075,-187.348C-213.733,-183.287 -211.135,-178.583 -210.774,-173.545C-210.606,-171.185 -211.196,-167.948 -210.774,-166.068C-210.118,-163.146 -206.66,-159.585 -204.736,-156.004C-202.77,-152.347 -200.563,-148.112 -199.559,-144.79C-196.854,-135.83 -197.359,-126.494 -192.946,-119.485C-191.091,-116.539 -188.22,-113.527 -185.758,-110.858C-182.322,-107.136 -178.304,-101.522 -170.805,-103.382C-164.936,-104.838 -153.639,-113.131 -150.963,-118.91C-150.368,-120.195 -150.394,-121.554 -149.813,-122.936C-148.45,-126.18 -146.701,-128.55 -146.362,-132.425C-145.753,-139.423 -146.882,-147.128 -145.5,-156.579C-144.054,-155.155 -145.229,-152.717 -144.637,-150.828C-144.184,-149.382 -142.514,-148.16 -142.05,-146.515C-141.613,-144.967 -141.942,-143.035 -141.474,-141.914C-140.472,-139.511 -137.565,-139.432 -136.011,-137.889C-136.047,-133.064 -137.164,-125.885 -136.873,-119.485C-136.787,-117.584 -135.897,-114.854 -136.298,-113.159C-136.78,-111.125 -140.075,-108.84 -141.187,-106.545C-143.68,-101.404 -144.841,-93.584 -146.362,-86.417C-150.921,-64.948 -153.643,-42.069 -156.139,-19.417C-163.039,43.19 -161.237,110.887 -163.329,177.557C-164.194,205.165 -163.934,236.867 -166.204,264.11C-166.569,268.499 -167.48,273.783 -166.778,275.899C-165.834,278.751 -160.775,280.246 -157.29,281.363C-154.285,282.325 -143.729,289.46 -142.05,286.539C-140.755,297.225 -133.416,301.867 -124.795,305.228C-124.352,308.269 -126.253,314.282 -124.795,317.596C-123.382,320.81 -116.735,322.253 -110.994,322.484C-99.466,322.943 -88.527,320.076 -80.802,315.87C-76.63,313.598 -72.281,311.04 -66.999,310.693C-54.91,309.901 -44.096,315.894 -33.643,312.131C-29.734,310.724 -25.371,308.03 -21.854,305.228C-13.22,298.359 -6.295,290.504 -3.737,278.487C6.7,277.827 15.005,279.298 23.293,280.788C25.485,272.396 22.233,262.926 22.143,254.045C27.893,252.603 35.039,251.579 36.521,246.569C37.4,243.592 35.336,238.36 34.795,234.491C34.141,229.814 33.979,225.072 33.645,220.977C28.469,157.628 25.358,91.779 21.854,28.893C27.106,27.723 32.475,26.667 32.494,20.266C36.555,17.826 36.001,12.158 37.671,6.463C38.633,3.177 40.713,-0.362 40.833,-3.025C41.082,-8.515 37.498,-13.704 38.245,-19.705C41.261,-21.283 45.399,-21.474 46.584,-24.305C47.984,-27.65 46.448,-33.666 46.01,-36.383" style="fill:url(#_Linear1);fill-rule:nonzero;"/>
    </g>
    <g transform="matrix(0.522706,0,0,0.522706,111.431,161.74)">
        <path d="M0,13.515C-3.556,11.878 -3.778,1.249 0.288,0C2.966,2.555 3.223,11.358 0,13.515" style="fill:white;"/>
    </g>
    <g transform="matrix(0.522706,0,0,0.522706,97.9037,173.021)">
        <path d="M0,-12.955C8.209,-14.82 7.951,1.556 1.15,1.711C-5.673,1.865 -6.059,-11.578 0,-12.955" style="fill:white;"/>
    </g>
    <g transform="matrix(0.522706,0,0,0.522706,51.3097,173.764)">
        <path d="M0,-12.938C8.31,-14.547 9.337,1.25 1.15,1.44C-6.167,1.609 -6.958,-11.591 0,-12.938" style="fill:white;"/>
    </g>
    <g transform="matrix(0.522706,0,0,0.522706,75.0578,180.789)">
        <path d="M0,-14.589C0.011,-14.591 0.083,-14.854 0.286,-14.877C11.132,-16.08 11.107,1.491 0.862,0.651C-7.325,-0.02 -8.739,-13.067 0,-14.589" style="fill:white;"/>
    </g>
    <defs>
        <linearGradient id="_Linear1" x1="0" y1="0" x2="1" y2="0" gradientUnits="userSpaceOnUse" gradientTransform="matrix(4.68579e-14,-765.248,765.248,4.68579e-14,-56.1551,322.532)"><stop offset="0" style="stop-color:rgb(0,34,83);stop-opacity:1"/><stop offset="1" style="stop-color:rgb(0,94,173);stop-opacity:1"/></linearGradient>
    </defs>
</svg>
