<?xml version="1.0" encoding="UTF-8" standalone="no"?>
<!DOCTYPE svg PUBLIC "-//W3C//DTD SVG 1.1//EN" "http://www.w3.org/Graphics/SVG/1.1/DTD/svg11.dtd">
<svg width="100%" height="100%" viewBox="0 0 324 400" version="1.1" xmlns="http://www.w3.org/2000/svg" xmlns:xlink="http://www.w3.org/1999/xlink" xml:space="preserve" xmlns:serif="http://www.serif.com/" style="fill-rule:evenodd;clip-rule:evenodd;stroke-linejoin:round;stroke-miterlimit:2;">
    <g transform="matrix(0.999999,0,0,0.999999,-38.1116,2.9105e-05)">
        <path d="M314.409,297.414C314.353,297.424 313.424,297.578 312.935,296.676C312.432,295.745 312.197,295.692 312.197,295.692C312.197,295.692 312.004,295.884 311.951,296.43C311.899,296.975 311.459,297.414 311.459,297.414C311.459,297.414 311.143,298.467 310.229,299.382C309.316,300.296 308.765,300.612 307.523,300.612C306.938,300.612 307.002,300.804 307.031,300.12C307.061,299.435 307.576,299.287 307.523,298.644C307.471,298 307.031,296.43 307.031,296.43C307.031,296.43 306.387,295.72 305.555,294.216C304.724,292.711 304.817,290.772 304.817,290.772C304.817,290.772 304.501,291.456 303.833,292.494C303.166,293.531 302.603,293.97 302.603,293.97L301.865,294.462C301.865,294.462 301.508,295.023 301.127,294.954C300.747,294.884 300.143,295.2 300.143,295.2C300.143,295.2 299.95,295.31 299.405,295.446C298.861,295.581 298.843,295.72 298.175,295.692C297.508,295.663 297.326,295.925 296.453,295.692C295.581,295.458 294.743,294.982 294.239,294.462C293.736,293.941 293.349,293.67 292.763,293.478C292.178,293.285 290.304,291.756 290.304,291.756C290.304,291.756 290.233,291.21 289.566,290.772C288.898,290.333 287.937,289.693 287.598,289.296C287.258,288.898 286.368,287.82 286.368,287.82L285.138,286.836C285.138,286.836 283.919,285.511 283.416,284.868C282.912,284.224 282.186,283.638 282.186,283.638C282.186,283.638 281.213,282.601 280.956,282.162C280.698,281.723 280.475,281.863 279.972,281.178C279.468,280.493 278.988,279.948 278.988,279.948C278.988,279.948 278.22,279.444 278.004,278.964C277.787,278.485 277.758,277.734 277.758,277.734C277.758,277.734 277.277,276.779 276.282,276.504C275.286,276.23 274.56,276.258 274.56,276.258C274.56,276.258 274.981,282.723 274.56,285.36C274.138,287.996 271.783,292.522 269.394,295.446C267.004,298.369 264.814,300.312 263.244,302.58C261.675,304.847 260.784,307.5 260.784,307.5C260.784,307.5 260.919,312.94 261.522,316.847C262.126,320.755 263.174,322.329 265.704,325.949C268.234,329.57 272.592,335.051 272.592,335.051C272.592,335.051 273.464,334.67 274.314,335.789C275.163,336.908 275.473,338.646 275.79,340.217C276.106,341.787 276.036,341.693 276.036,341.693C276.036,341.693 277.523,343.73 278.496,345.875C279.468,348.019 279.573,349.142 280.956,350.057C282.338,350.971 284.288,352.217 285.384,353.255C286.479,354.292 287.352,354.677 287.352,358.421C287.352,362.164 287.076,363.369 286.614,364.816C286.151,366.264 285.63,366.784 285.63,366.784L285.63,369.982C285.63,371.758 283.908,373.102 283.908,374.164C283.908,375.226 283.714,379.33 280.71,379.33C279.304,379.33 278.496,377.608 278.496,377.608C278.496,377.608 274.981,379.33 269.394,379.33C263.806,379.33 262.014,378.346 262.014,378.346C262.014,378.346 260.837,378.514 259.554,379.576C258.272,380.638 256.696,381.384 254.634,381.79C252.573,382.196 248.332,384.742 245.286,384.742C243.102,384.742 241.35,383.02 241.35,383.02C241.35,383.02 239.845,383.967 239.136,384.25C238.428,384.533 238.123,385.156 237.415,385.234C236.706,385.312 235.693,385.972 235.693,385.972C235.693,385.972 235.745,386.714 235.201,387.448C234.656,388.182 233.941,388.395 233.233,389.416C232.524,390.437 230.087,392.618 226.591,393.352C223.094,394.086 220.288,394.422 218.473,394.828C216.657,395.234 215.45,394.668 213.799,394.582C212.147,394.496 211.187,394.955 210.355,394.582C209.523,394.209 208.358,393.561 207.649,392.86C206.941,392.159 206.472,391.876 205.435,391.876C204.399,391.876 202.823,392.86 199.039,392.86C195.256,392.86 190.687,392.122 187.231,392.122C183.776,392.122 183.389,392.577 181.82,393.598C180.25,394.619 179.114,395.074 179.114,395.074L177.638,395.812L177.638,397.534C177.638,398.35 177.731,398.44 175.916,398.518C174.1,398.596 172.647,398.194 171.734,398.026C170.82,397.858 170.012,397.042 170.012,397.042C170.012,397.042 169.121,397.825 167.552,398.026C165.982,398.227 164.6,398.026 164.6,398.026C164.6,398.026 164.447,399.342 162.14,399.256C159.832,399.17 157.712,399.256 157.712,399.256C157.712,399.256 156.494,399.916 155.006,399.994C153.519,400.072 152.722,399.383 151.562,399.502C150.403,399.621 149.319,399.301 148.364,399.502C147.41,399.703 145.711,399.256 144.92,399.256C144.13,399.256 141.968,399.752 141.968,397.042C141.968,396.259 142.529,395.389 141.476,394.336C140.423,393.283 139.438,392.208 139.262,390.4C139.087,388.592 139.016,387.694 139.016,387.694C139.016,387.694 138.29,388.292 137.54,389.17C136.791,390.048 135.953,390.4 135.08,390.4C134.208,390.4 134.764,388.292 133.604,387.694C132.445,387.096 127.015,385.34 121.059,382.774C115.102,380.208 109.18,378.371 105.315,377.854C101.449,377.338 99.3,376.608 97.197,375.886C95.095,375.165 93.261,374.164 93.261,374.164L89.079,374.164C87.51,374.164 86.426,372.196 84.651,372.196C82.877,372.196 81.465,372.221 79.239,371.458C77.014,370.696 76.463,370.581 76.533,369.49C76.604,368.4 77.652,368.08 75.795,366.784C73.939,365.489 70.6,364.39 69.4,360.389C68.199,356.387 67.924,354.731 67.924,354.731C67.924,354.731 66.418,353.156 65.956,351.533C65.493,349.909 65.639,346.555 66.202,345.629C66.764,344.702 67.432,344.399 67.432,344.399C67.432,344.399 67.156,343.48 67.678,342.677C68.199,341.874 68.222,340.364 68.17,339.725C68.117,339.086 68.058,338.847 68.662,337.757C69.265,336.667 69.4,336.527 69.4,336.527C69.4,336.527 68.919,334.419 69.4,333.083C69.88,331.747 70.231,330.811 70.63,328.901C71.028,326.991 71.625,323.227 72.598,321.029C73.57,318.832 75.479,316.257 77.271,314.879C79.064,313.502 78.8,313.961 79.731,313.157C80.663,312.354 81.301,312.731 81.945,310.205C82.59,307.68 83.556,303.096 83.421,297.168C83.287,291.239 85.143,280.44 85.143,280.44C85.143,280.44 84.704,282.514 83.175,284.13C81.647,285.746 80.715,286.098 80.715,286.098C80.715,286.098 80.809,287.188 80.715,287.82C80.622,288.451 80.223,288.558 80.223,288.558C80.223,288.558 80.469,289.074 80.469,289.788C80.469,290.501 79.977,290.526 79.977,290.526C79.977,290.526 80.276,291.042 79.485,292.002C78.695,292.961 78.009,293.232 78.009,293.232C78.009,293.232 78.255,293.748 78.255,294.462C78.255,295.175 77.271,296.184 77.271,296.184C77.271,296.184 79.485,297.069 79.485,301.104L79.485,302.58C79.485,302.58 80.029,303.369 80.394,303.734C80.759,304.099 81.207,304.367 81.207,305.04C81.207,305.712 80.112,306.024 78.993,306.024C77.875,306.024 76.135,305.392 75.303,304.302C74.226,304.302 72.404,303.465 71.122,301.35C70.823,302.022 70.723,302.276 70.384,302.826C70.044,303.375 69.4,303.81 69.4,303.81C69.4,303.81 69.329,305.515 69.892,306.27C70.454,307.024 71.122,307.401 71.122,308.237C71.122,309.074 70.108,308.975 69.154,308.975C68.199,308.975 66.992,308.959 65.464,307.008C63.935,305.056 64.234,304.548 64.234,304.548C64.234,304.548 63.753,304.326 63.496,303.81C63.238,303.293 63.25,303.318 63.25,303.318C63.25,303.318 61.662,301.825 61.282,300.12C60.901,298.414 60.883,297.315 60.052,296.43C59.22,295.544 58.822,294.896 58.822,293.232C58.822,291.567 59.694,291.001 59.806,288.558C59.917,286.115 59.694,283.334 61.282,279.456C62.869,275.578 64.409,273.249 65.956,269.862C67.502,266.476 71.122,263.466 71.122,263.466L71.122,262.728C71.122,262.728 69.441,261.771 68.908,261.006C68.375,260.242 68.287,260.049 67.186,259.53C66.084,259.012 66.224,258.97 65.71,258.546C65.195,258.123 64.9,258.13 63.988,257.562C63.076,256.994 63.179,256.901 62.512,256.332C61.845,255.764 61.888,255.193 60.79,255.102C59.691,255.012 58.024,254.518 56.362,253.381C54.7,252.243 53.413,250.673 52.672,249.937C51.931,249.2 51.481,249.731 50.458,248.953C49.435,248.174 48.244,246.493 48.244,246.493C48.244,246.493 47.083,246.201 46.276,245.017C45.47,243.833 45.361,243.106 44.8,242.803C44.239,242.499 43.688,242.116 43.57,241.573C43.452,241.029 42.548,239.958 42.094,239.605C41.641,239.252 40.82,238.142 39.88,237.637C38.94,237.132 38.86,235.67 38.404,234.931C37.948,234.192 38.163,233.806 38.158,232.717C38.154,231.628 38.005,231.101 38.404,230.749C38.803,230.397 39.003,229.558 39.142,228.781C39.282,228.004 40.348,227.147 40.618,226.567C40.888,225.987 41.037,225.481 41.356,224.845C41.675,224.209 42.094,224.107 42.094,224.107C42.094,224.107 42.301,223.22 42.586,222.877C42.871,222.534 42.888,222.141 43.324,221.893C43.76,221.645 43.865,220.925 44.308,220.909C44.752,220.893 45.265,220.393 45.538,219.925C45.811,219.458 45.783,219.293 46.276,219.187C46.769,219.081 47.014,219.187 47.014,219.187C47.014,219.187 47.852,218.808 48.49,218.449C49.127,218.09 49.966,218.203 49.966,218.203C49.966,218.203 49.806,218.432 50.458,218.449C51.11,218.466 51.442,218.941 51.442,218.941C51.442,218.941 52.726,213.597 55.132,208.117C57.537,202.638 62.061,193.766 65.218,187.946C68.375,182.126 71.186,176.927 73.336,175.646C75.485,174.365 87.129,168.221 91.785,165.806C96.442,163.391 101.037,160.781 102.363,160.394C103.689,160.007 104.029,160.624 104.577,160.64C105.125,160.657 105.315,160.64 105.315,160.64C105.315,160.64 105.129,159.826 105.315,159.164C105.501,158.503 106.299,158.18 106.299,158.18C106.299,158.18 106.605,156.883 106.053,155.966C105.501,155.05 105.817,154.262 107.283,151.784C108.749,149.307 109.497,149.078 109.497,149.078C109.497,149.078 109.24,148.66 109.251,148.094C109.262,147.529 109.616,147.752 109.251,147.11C108.886,146.469 108.735,146.625 108.759,145.88C108.783,145.136 109.042,145.054 108.759,144.651C108.475,144.247 108.267,143.421 108.267,143.421C108.267,143.421 108.079,143.088 108.021,142.437C107.963,141.785 107.526,141.216 107.283,140.715C107.04,140.213 107.239,139.96 107.037,138.993C106.835,138.025 106.791,137.517 106.791,137.517C106.791,137.517 105.887,136.354 106.053,135.549C106.219,134.743 105.484,134.094 105.561,133.581C105.638,133.068 105.561,132.351 105.561,132.351C105.561,132.351 105.265,131.827 105.315,130.875C105.365,129.923 105.047,129.655 105.069,128.661C105.091,127.666 105.129,127.326 105.315,126.693C105.501,126.06 105.647,125.154 106.053,124.479C106.458,123.803 106.645,122.32 106.791,122.019C106.937,121.718 106.911,121.535 107.283,120.789C107.655,120.043 107.69,120.04 107.775,119.067C107.86,118.094 108.045,118.045 108.021,117.591C107.997,117.137 107.775,116.361 107.775,116.361C107.775,116.361 107.997,115.826 107.775,115.131C107.552,114.436 107.861,113.873 107.775,113.163C107.689,112.453 107.321,111.77 107.283,110.949C107.245,110.129 107.529,109.227 107.529,109.227C107.529,109.227 107.587,108.519 107.775,107.751C107.963,106.983 108.44,105.65 109.005,105.291C109.569,104.932 109.314,104.81 109.989,104.307C110.663,103.804 110.885,103.492 111.219,103.323C111.552,103.155 111.984,102.816 113.187,102.831C114.39,102.847 115.276,103.15 115.893,103.323C116.509,103.496 117.414,104.032 118.107,103.815C118.8,103.599 119.654,103.697 120.321,103.323C120.988,102.949 121.367,103.089 122.289,102.831C123.21,102.573 123.081,102.755 124.257,102.339C125.432,101.924 126.471,101.847 126.471,101.847C126.471,101.847 126.879,101.723 127.455,101.601C128.03,101.479 128.716,101.757 129.176,101.601C129.637,101.445 130.416,101.081 130.898,101.109C131.381,101.138 131.882,101.355 131.882,101.355C131.882,101.355 135.518,101.286 136.064,101.109C136.611,100.932 139.262,100.863 139.262,100.863C139.262,100.863 141.814,100.747 142.46,100.617C143.107,100.488 144.92,100.617 144.92,100.617C144.92,100.617 145.686,100.712 146.396,100.617C146.953,100.543 147.845,100.434 148.206,100.39C148.146,100.217 148.118,100.125 148.118,100.125C148.118,100.125 144.475,97.498 141.23,96.189C137.985,94.881 134.715,92.533 128.439,87.334C122.162,82.134 119.855,80.134 116.877,75.772C113.899,71.41 111.677,69.88 104.085,63.964C96.493,58.048 92.267,51.583 89.325,44.53C86.384,37.478 87.118,32.595 86.619,29.279C86.12,25.962 83.626,19.743 80.961,14.765C78.297,9.787 76.616,7.254 76.533,4.433C76.45,1.612 76.563,-0.107 77.517,0.005C78.472,0.117 82.495,3.121 86.373,5.663C90.252,8.205 99.465,11.81 113.187,17.963C126.909,24.116 136.333,28.214 143.444,32.231C150.556,36.247 156.883,40.476 160.664,41.086C164.445,41.697 165.197,39.866 167.06,39.364C168.922,38.863 173.562,38.879 180.344,38.134C187.125,37.39 199.209,34.799 214.045,39.118C228.88,43.438 237.12,50.43 240.12,53.14C243.121,55.85 244.542,56.096 252.666,64.456C260.791,72.816 263.49,78.724 263.49,78.724C263.49,78.724 264.236,79.46 265.458,80.446C266.68,81.431 266.007,81.358 269.64,81.922C273.273,82.486 284.927,83.673 296.945,86.596C308.963,89.518 311.954,92.154 323.513,95.451C335.072,98.749 341.288,101.253 346.882,103.077C352.477,104.902 357.448,106.154 359.182,106.275C360.916,106.396 361.888,107.013 361.888,108.243C361.888,109.473 359.823,111.088 357.952,111.687C356.081,112.286 351.538,114.529 347.128,115.869C342.719,117.209 339.317,120.708 333.107,124.233C326.896,127.758 322.5,131.335 310.721,132.843C298.942,134.351 292.025,132.655 286.122,131.613C282.02,130.889 278.26,130.25 275.285,129.907C275.262,130.242 275.203,130.842 275.052,131.367C274.828,132.145 274.56,132.351 274.56,132.351C274.56,132.351 274.702,134.092 274.56,134.811C274.417,135.529 273.822,135.795 273.822,135.795C273.822,135.795 273.944,136.837 273.822,137.517C273.7,138.196 273.76,138.272 273.576,138.747C273.392,139.221 273.596,139.972 273.084,140.469C272.571,140.965 272.415,141.065 272.1,141.699C271.785,142.332 271.712,142.581 271.116,143.175C270.52,143.768 270.093,144.199 269.64,144.651C269.187,145.102 268.932,145.934 268.41,146.372C267.888,146.811 267.771,147.116 267.18,147.356C266.589,147.597 266.442,147.848 266.442,147.848L266.196,148.586C266.196,148.586 270.412,149.485 271.116,150.062C271.819,150.64 271.608,153.752 271.608,153.752C271.608,153.752 273.375,153.214 275.298,153.26C277.221,153.306 278.299,154.323 279.726,157.934C281.152,161.545 281.202,163.838 281.202,163.838C281.202,163.838 282.39,166.121 283.908,166.79C285.426,167.46 288.939,170.415 290.55,172.202C292.16,173.989 294.969,177.75 296.453,178.844C297.938,179.938 303.544,181.258 307.031,184.256C310.519,187.254 315.899,194.928 318.593,199.262C321.287,203.595 324.32,209.119 325.727,213.775C327.133,218.432 328.925,222.385 328.925,222.385C328.925,222.385 333.179,224.168 333.353,224.599C333.526,225.03 334.893,226.176 335.321,226.321C335.748,226.466 336.443,227.016 336.797,227.305C337.15,227.594 337.625,228.177 337.781,228.535C337.936,228.893 338.157,229.153 338.765,229.519C339.372,229.884 339.995,230.503 339.995,230.503L339.995,231.241C339.995,231.241 340.513,231.912 341.225,232.471C341.936,233.03 342.173,233.428 342.209,233.947C342.244,234.465 342.303,234.944 342.701,235.423C343.098,235.901 343.193,236.407 343.193,236.407L343.439,237.391C343.439,237.391 343.724,238.461 343.685,239.113C343.645,239.764 343.685,240.835 343.685,240.835C343.685,240.835 343.792,242.641 343.685,243.049C343.577,243.457 343.929,244.054 343.685,244.525C343.44,244.995 343.478,245.202 342.947,245.509C342.415,245.815 341.963,246.247 341.963,246.247C341.963,246.247 341.881,246.752 341.225,246.985C340.569,247.217 340.241,247.231 340.241,247.231C340.241,247.231 340.201,247.831 339.257,247.969C338.312,248.106 337.781,248.707 337.781,248.707C337.781,248.707 336.677,248.808 336.059,248.953C335.441,249.097 335.075,249.445 335.075,249.445L334.091,250.183L333.353,250.921C333.353,250.921 333.173,251.3 332.615,251.413C332.056,251.525 332.279,251.785 331.877,252.151C331.475,252.516 330.893,252.889 330.893,252.889C330.893,252.889 330.476,253.451 330.155,253.872C329.834,254.294 329.396,253.752 329.171,254.364C328.945,254.977 328.475,255.589 327.941,256.086C327.407,256.584 327.464,257.002 326.957,257.562C326.45,258.123 325.481,259.038 325.481,259.038L324.005,260.514L323.021,262.728L322.283,264.45C322.283,264.45 321.973,264.917 321.545,265.434C321.116,265.951 321.352,265.654 320.807,266.418C320.262,267.182 319.085,267.648 319.085,267.648C319.085,267.648 319.386,267.763 318.593,268.632C318.894,269.7 320.026,274.917 320.315,277.488C320.604,280.059 322.355,281.917 322.283,284.868C322.21,287.819 321.768,288.091 321.545,290.28C321.322,292.469 321.311,293.412 321.299,294.462C321.287,295.511 320.71,296.213 320.315,296.922C320.262,297.631 320.081,298.631 319.085,300.12C318.089,301.608 317.088,303.072 314.903,303.072C313.826,303.072 313.181,302.526 313.181,301.842C313.181,300.378 314.505,299.902 314.411,298.644C314.327,297.512 314.394,297.421 314.409,297.414L314.411,297.414C314.411,297.414 314.41,297.413 314.409,297.414Z" style="fill:url(#_Linear1);"/>
    </g>
    <g transform="matrix(0.245995,0,0,0.245995,-11.5154,-15.0005)">
        <path d="M729,437C729.302,433.761 759.032,400.239 800,406C840.968,411.761 854.365,446.905 856,452C857.635,457.095 834.792,487.333 787,481C761.941,477.679 758.232,462.972 742,454C731.341,448.108 728.698,440.239 729,437ZM533,339C534.334,337.492 551.891,317.779 588,329C608.624,335.409 626.51,368.048 629,381C631.49,393.952 631.977,405.566 631,407C630.023,408.434 592.768,412.381 574,405C555.232,397.619 539.652,387.805 535,367C531.935,353.291 531.666,340.508 533,339Z" style="fill:white;"/>
    </g>
    <defs>
        <linearGradient id="_Linear1" x1="0" y1="0" x2="1" y2="0" gradientUnits="userSpaceOnUse" gradientTransform="matrix(2.44929e-14,-400,400,2.44929e-14,157.524,400)"><stop offset="0" style="stop-color:rgb(0,34,83);stop-opacity:1"/><stop offset="1" style="stop-color:rgb(0,94,173);stop-opacity:1"/></linearGradient>
    </defs>
</svg>
