<?xml version="1.0" encoding="UTF-8" standalone="no"?>
<!DOCTYPE svg PUBLIC "-//W3C//DTD SVG 1.1//EN" "http://www.w3.org/Graphics/SVG/1.1/DTD/svg11.dtd">
<svg width="100%" height="100%" viewBox="0 0 158 400" version="1.1" xmlns="http://www.w3.org/2000/svg" xmlns:xlink="http://www.w3.org/1999/xlink" xml:space="preserve" xmlns:serif="http://www.serif.com/" style="fill-rule:evenodd;clip-rule:evenodd;stroke-linejoin:round;stroke-miterlimit:2;">
    <g transform="matrix(0.842105,0,0,0.842105,95.2714,15.3044)">
        <path d="M0,33.463C2.365,28.129 2.486,27.886 3.638,20.611C4.789,13.337 4.936,10.184 4.936,10.184L-40.01,-1.152L-44.193,14.731L-43.404,27.522L-8.365,34.615L0,33.463Z" style="fill:white;"/>
    </g>
    <g transform="matrix(0.842105,0,0,0.842105,61.4636,145.357)">
        <path d="M0,129.637C-0.313,129.964 -0.439,130.475 -0.547,131.007C-0.316,131.153 -0.016,130.883 0.342,130.939C0.293,130.441 0.152,130.033 0,129.637M74.564,27.89C73.984,28.109 73.426,28.348 73.059,28.781C73.228,29.767 73.387,30.806 73.537,31.862C73.681,32.862 73.648,34.002 73.949,34.943C74.105,35.435 74.607,35.968 74.907,36.518C79.334,44.622 83.932,52.646 88.533,60.551C90.65,60.261 91.313,58.17 91.066,55.621C91.033,55.281 90.877,54.764 90.725,54.388C89.762,52.033 88.232,49.835 86.89,47.61C85.582,45.443 84.402,43.171 83.055,40.9C80.215,36.111 77.264,31.66 74.564,27.89M-16.775,-125.21C-17.08,-125.951 -17.551,-126.859 -17.527,-127.607C-17.51,-128.249 -17.068,-129.136 -16.775,-129.934C-15.82,-132.525 -16.018,-135.741 -15.885,-139.315C-15.752,-142.896 -15.213,-146.489 -14.721,-149.791C-14.318,-152.496 -14.354,-155.214 -12.256,-155.885C-11.219,-157.563 -10.547,-159.608 -8.422,-160.198C-7.785,-161.76 -6.947,-163.133 -6.23,-164.58C-5.516,-166.026 -4.912,-167.598 -3.971,-168.894C-3.512,-169.528 -2.648,-170.013 -1.848,-170.469C0.574,-171.849 3.777,-172.757 7.326,-172.592C13.105,-172.322 17.934,-171.085 23.074,-170.058C28.262,-169.022 32.867,-167.325 36.29,-164.991C38.16,-163.716 39.87,-162.575 41.426,-161.02C42.899,-159.546 44.423,-158.026 45.944,-156.364C46.705,-155.533 47.265,-154.742 48.203,-154.036C49.967,-152.71 51.871,-151.756 53.682,-150.339C54.592,-149.626 55.854,-148.808 56.01,-147.874C56.355,-145.794 56.019,-142.669 54.435,-142.191C53.588,-141.935 52.154,-142.119 50.943,-142.191C49.746,-142.261 48.528,-142.318 47.52,-142.396C45.123,-142.582 43.4,-143.077 41.563,-143.628C37.773,-144.764 33.877,-145.867 29.99,-146.641C22.723,-148.089 15.803,-149.323 8.217,-150.407C7.309,-150.537 5.711,-151.031 4.998,-150.886C4.566,-150.799 4.779,-150.523 4.178,-150.475C3.791,-150.445 3.051,-150.72 2.465,-150.818C1.693,-150.947 0.74,-151.086 0.275,-150.75C-0.68,-148.731 -1.078,-146.44 -1.438,-143.834C-1.551,-143.008 -1.918,-141.948 -1.779,-141.301C-1.66,-140.74 -0.699,-140.179 -0.205,-139.726C0.299,-139.264 1.285,-138.574 1.369,-138.082C1.521,-137.191 0.738,-136.343 0.686,-135.48C0.586,-133.893 2.336,-132.837 3.355,-132.125C5.779,-130.436 8.117,-129.551 11.16,-128.428C13.02,-127.742 14.787,-127.093 16.844,-126.443C17.719,-126.165 18.719,-125.764 19.719,-125.484C20.777,-125.188 22.024,-124.81 22.938,-124.867C23.744,-124.918 24.564,-125.691 25.197,-125.758C26.479,-125.892 28.235,-125.334 29.717,-125.005C30.413,-124.85 31.102,-124.651 31.908,-124.457C33.208,-124.145 34.444,-124.229 34.305,-122.745C35.52,-122.412 36.848,-122.041 38.207,-122.197C40.816,-122.497 41.85,-124.831 42.384,-127.196C42.977,-126.972 43.408,-126.509 43.821,-126.031C44.195,-125.6 44.766,-124.995 44.849,-124.457C44.955,-123.768 44.728,-122.714 44.644,-121.924C44.552,-121.065 44.456,-120.206 44.369,-119.39C44.205,-117.84 44.159,-115.621 43.685,-114.529C43.295,-113.63 42.083,-113.141 41.904,-112.406C41.565,-111.008 42.029,-109.94 41.768,-108.845C41.281,-106.818 38.852,-106.203 37.316,-105.217C36.539,-104.717 35.902,-103.802 35.194,-103.094C34.457,-102.356 33.549,-101.781 33.072,-100.903C34.828,-99.76 36.583,-98.617 38.549,-97.685C40.216,-92.673 42.617,-87.923 46.081,-84.675C46.711,-84.085 47.549,-83.522 47.793,-82.827C48.227,-81.588 48.309,-80.264 48.752,-79.061C49.613,-76.718 50.541,-74.469 51.422,-72.145C51.857,-70.994 52.424,-69.832 52.723,-68.653C53.08,-67.245 52.436,-65.344 52.244,-63.86C52.053,-62.384 51.92,-60.939 52.106,-59.341C52.448,-56.407 53.141,-53.694 53.271,-50.577C53.113,-50.277 52.658,-50.277 52.313,-50.166C53.33,-49.058 53.103,-47.073 52.996,-44.894C52.934,-43.596 53.051,-42.214 52.791,-41.196C52.451,-39.868 51.611,-38.844 51.354,-37.91C51.995,-36.999 52.717,-36.143 53.477,-35.103C54.059,-34.304 55.238,-33.023 55.256,-31.953C55.261,-31.679 55.042,-31.389 55.051,-31.132C55.082,-30.222 56.015,-29.588 55.873,-28.461C54.83,-27.632 53.367,-27.223 52.449,-26.27C52.453,-25.536 52.486,-24.773 52.244,-24.284C51.736,-24.02 50.389,-24.418 49.779,-24.079C50.661,-20.212 51.207,-16.557 52.518,-13.26C53.82,-9.983 55.266,-6.865 56.283,-3.469C57.666,-3.06 59.271,-1.951 60.734,-2.1C61.681,-2.196 62.65,-3.209 63.746,-2.922C64.371,-2.758 64.942,-1.342 65.321,-0.73C66.838,1.72 68.584,3.66 68.882,7.075C70.311,8.431 71.059,10.467 72.236,12.074C72.949,11.851 73.412,11.377 74.291,11.321C75.143,12.089 75.511,13.342 76.208,14.265C76.891,14.327 77.817,14.75 78.125,14.059C77.83,12.892 76.914,12.267 76.893,10.978C76.869,9.523 78.193,8.68 79.152,8.102C79.767,7.732 81.298,7.051 82.371,7.623C82.698,7.798 83.077,8.298 83.329,8.65C84.289,9.99 84.887,11.962 86.137,13.374C87.492,14.908 88.334,16.616 89.286,17.757C90.131,17.628 90.756,16.713 91.545,16.798C92.158,16.865 92.713,17.885 93.053,18.51C93.47,19.279 93.867,20.123 93.941,20.838C93.295,21.332 92.285,21.464 91.614,21.933C91.771,22.906 92.201,23.853 92.367,24.672C92.437,25.013 92.374,25.355 92.436,25.699C92.495,26.03 92.748,26.219 92.709,26.59C92.645,27.222 91.639,28.028 90.998,28.507C89.988,29.26 88.896,29.716 87.574,29.465C86.977,29.013 86.719,28.221 86.41,27.48C84.832,27.089 84.479,25.591 83.74,24.262C83.502,23.834 83.277,23.397 83.055,22.961C82.859,22.577 82.7,21.924 82.165,21.865C81.801,22.15 81.9,22.574 81.617,22.892C81.346,23.199 80.816,23.215 80.658,23.645C81.726,25.368 82.589,26.945 83.604,28.712C83.938,29.293 84.455,29.899 84.562,30.492C84.775,31.687 84.291,33.109 84.493,34.464C84.561,34.915 85.009,35.459 85.314,36.038C86.193,37.701 86.973,39.231 87.779,40.763C90.631,46.169 93.275,51.211 95.654,56.853C96.238,58.242 96.997,59.53 96.887,60.962C96.629,64.296 93.802,66.003 92.094,68.151C91.493,70.084 89.81,70.934 88.875,72.533C96.779,84.456 104.849,96.409 112.84,108.343C113.344,109.096 114.24,110.2 114.209,111.014C114.167,112.147 112.644,113.324 111.334,112.863C110.748,112.656 110.217,111.394 109.69,110.603C103.856,101.854 98.305,93.207 92.777,84.515C90.734,81.301 88.697,78.128 86.547,75.067C86.067,75.523 85.598,75.989 85.246,76.573C88.197,81.337 91.4,86.148 94.354,90.883C94.773,91.559 95.475,92.396 94.9,93.28C93.492,93.838 92.949,92.238 92.367,91.431C90.312,88.585 88.293,85.395 86.479,82.53C86.187,82.069 85.938,81.475 85.451,81.229C85.574,83.259 85.393,85.175 84.355,86.227C82.875,87.731 80.674,86.582 79.7,85.2C78.85,85.963 77.625,86.793 76.277,86.501C74.635,86.146 73.992,84.069 73.127,82.941C72.734,83.457 72.4,83.726 71.826,83.967C69.787,84.825 67.573,83.408 66.417,82.393C64.936,83.958 62.846,82.201 61.967,81.297C60.432,79.719 59.8,77.232 58.953,74.861C58.58,73.814 57.715,72 57.789,71.233C57.838,70.742 58.404,70.376 58.27,69.931C58.128,69.469 57.503,69.589 57.242,69.178C56.807,68.493 57.244,67.549 57.174,66.85C56.408,66.415 55.289,65.937 54.64,64.933C54.057,64.03 53.322,62.577 53.477,61.51C53.672,60.158 55.09,59.948 56.488,59.661C56.648,59.296 56.877,58.999 56.968,58.565C56.416,57.748 55.928,56.866 55.256,56.169C53.897,57.337 53.367,56.098 52.586,55.073C51.237,53.304 50.088,51.373 49.025,49.733C45.801,44.752 42.69,40.193 39.439,35.491C37.777,33.086 36.219,30.663 34.51,28.507C33.42,29.379 32.145,30.067 30.949,30.835C30.641,32.809 30.491,34.942 30.195,36.929C30.719,37.552 31.916,37.915 32.113,38.845C32.311,39.775 32.126,41.007 32.182,42.2C32.232,43.276 32.326,44.412 32.387,45.488C32.563,48.582 32.451,51.689 33.414,53.567C33.098,54.476 32.225,54.933 32.113,55.895C32.073,56.24 32.215,56.595 32.25,56.99C32.355,58.158 32.384,59.551 32.523,60.619C32.946,63.839 33.775,66.928 34.578,70.137C35.396,73.409 35.58,76.849 36.084,80.271C36.572,83.584 36.877,87.025 37.454,90.473C38.015,93.824 38.58,97.294 38.755,100.812C38.871,103.157 38.755,105.522 38.892,107.932C39.374,116.413 39.357,124.616 39.85,133.335C40.903,133.362 41.891,133.322 42.795,133.199C43.841,129.771 44.947,126.405 46.081,123.065C47.125,123.451 48.027,123.869 49.162,124.366C49.705,124.603 51.934,125.319 52.106,125.803C52.201,126.067 51.996,126.598 51.97,126.967C51.817,129.135 51.711,131.952 51.559,134.02C52.497,134.825 53.328,135.788 54.298,136.759C55.092,137.553 56.438,138.675 56.488,140.045C56.508,140.554 56.146,141.418 55.941,142.236C54.616,147.495 53.092,152.153 51.695,157.232C50.279,162.384 49.047,167.316 47.451,172.227C47.197,173.003 47.146,173.81 46.834,174.417C46.478,175.113 45.316,175.932 44.574,176.54C44.253,176.804 43.783,177.078 43.273,177.43C42.891,177.695 42.121,178.162 42.041,178.389C41.87,178.875 42.041,180.007 42.041,180.717C42.041,182.895 41.999,185.566 41.836,187.564C41.713,189.077 41.768,190.638 41.768,192.22C41.768,193.762 41.585,195.462 41.768,196.944C41.926,198.232 42.555,199.626 42.932,200.915C43.32,202.247 43.882,203.537 44.301,204.75C44.717,205.953 45.053,207.312 45.533,208.721C45.913,209.834 46.882,211.869 46.697,212.898C46.449,214.285 45.673,215.629 45.123,216.938C44.561,218.275 44.05,219.612 43.41,220.908C43.596,221.433 43.579,222.156 43.821,222.62C45.344,222.534 47.073,221.517 48.135,222.552C48.763,222.243 49.559,222.104 50.258,221.867C51.918,224.217 53.646,226.617 55.324,229.057C55.644,229.52 56.916,231.022 56.899,231.59C56.893,231.841 56.553,232.309 56.352,232.686C56.143,233.079 55.905,233.467 55.736,233.782C55.375,234.451 54.679,235.271 54.572,235.972C54.441,236.828 54.738,237.581 54.709,238.78L59.228,238.78C59.678,238.478 60.136,238.055 60.734,237.547C61.096,237.241 61.809,236.372 62.309,236.315C62.717,236.268 63.676,236.835 64.363,237.068C68.109,238.335 71.404,239.275 74.839,240.628C76.219,241.172 77.707,241.705 79.084,242.066C80.857,242.532 82.65,242.262 84.082,242.683C85.493,243.097 86.623,243.919 87.643,244.805C89.59,246.496 91.336,248.742 93.189,250.556C93.678,252.602 94.156,254.657 94.559,256.787C94.074,257.158 93.59,257.436 92.915,257.815C92.535,258.029 91.342,258.343 91.203,258.842C91.143,259.064 91.308,259.347 91.34,259.732C91.436,260.863 91.481,261.647 91.477,262.538C89.373,263.927 87.154,265.2 85.041,266.578C84.049,266.645 83.145,266.823 82.234,266.99C81.325,267.157 80.32,267.174 79.494,267.469C78.402,267.859 77.367,268.628 76.346,269.181C75.261,269.767 74.189,270.337 73.195,270.961C70.508,271.058 68.104,271.438 65.459,271.577C64.479,270.456 63.971,268.865 62.993,267.742C59.156,268.265 55.303,268.772 51.422,269.249C51.377,267.765 51.512,266.101 51.354,264.731C49.926,264.309 48.552,263.834 47.039,263.497C46.52,263.958 46.377,264.798 45.807,265.209C42.434,265.145 39.42,265.441 36.016,265.347C34.088,266.316 31.979,267.107 29.99,268.017C26.008,267.178 21.131,266.89 17.666,265.689C16.273,265.206 15.455,264.897 14.584,263.908C14.209,263.482 13.652,262.932 13.557,262.538C13.285,261.42 13.52,259.73 13.557,258.363C13.637,255.544 13.598,252.885 13.764,250.146C13.85,248.734 13.75,247.346 13.9,246.037C14.486,240.903 15.041,235.503 15.406,230.631C13.885,230.322 13.207,229.579 12.324,228.509C11.352,227.327 10.746,226.438 9.791,225.223C9.398,224.722 8.605,223.933 8.559,223.511C8.525,223.209 8.738,222.645 8.834,222.21C9.342,219.866 9.762,217.874 10.203,215.637C10.363,214.823 10.814,213.675 10.75,212.966C10.703,212.45 10.145,211.597 9.859,210.912C8.066,206.609 6.24,202.787 4.451,198.588C4.145,197.866 3.604,197.136 3.492,196.533C3.375,195.895 3.465,195.099 3.424,194.41C3.154,189.967 3.027,185.817 2.809,181.538C2.777,180.933 2.902,180.161 2.465,179.621C1.451,180.235 0.527,181.194 -0.547,182.086C-1.566,182.933 -2.883,183.631 -3.629,184.483C-4.389,185.35 -4.58,187.124 -4.998,188.385C-7.199,195.033 -9.215,201.643 -11.365,208.378C-11.854,209.904 -12.537,211.124 -12.666,212.761C-13.18,219.2 -13.303,225.522 -13.898,232.07C-15.609,232.939 -17.699,233.426 -19.309,234.398C-19.23,235.325 -19.125,236.223 -19.172,237.274C-17.891,237.476 -16.664,237.732 -15.338,237.89C-12.926,241.847 -10.4,245.689 -8.08,249.735C-8.316,250.36 -9.291,250.969 -9.449,251.584C-9.666,252.426 -9.408,253.575 -9.449,254.596C-9.49,255.629 -9.633,256.61 -9.586,257.54C-7.598,259.239 -5.652,260.96 -3.629,262.744C-3.131,263.183 -2.613,263.643 -2.053,263.977C-0.275,265.04 1.578,266.044 3.355,266.99C4.578,267.64 5.691,268.255 6.574,269.318C7.395,270.306 8.334,271.224 9.176,272.33C10.256,273.752 11.898,275.365 13.215,276.712C13.625,277.133 14.465,277.722 14.584,278.151C14.713,278.614 14.547,279.153 14.584,279.657C14.867,283.367 15.094,287.533 15.27,291.571C14.143,292.05 12.238,291.828 10.955,292.392C10.506,292.589 10.092,293.033 9.654,293.351C8.736,294.021 7.781,294.571 6.916,295.268C6.441,295.65 6.088,295.944 5.547,296.226C4.59,296.728 3.52,297.286 2.465,297.802C1.42,298.312 0.371,299.058 -0.684,299.308C-1.988,299.616 -3.422,299.714 -4.793,299.924C-7.615,300.357 -10.334,300.658 -12.871,301.362C-13.953,301.661 -15.52,302.378 -16.639,302.389C-17.197,302.394 -17.877,302.12 -18.486,301.978C-20.385,301.536 -22.23,301.228 -24.033,300.745C-24.125,299.035 -24.242,297.35 -24.375,295.679C-27.012,295.325 -29.615,294.939 -32.113,294.447L-32.113,291.159C-37.141,288.701 -42.281,286.357 -47.381,283.97C-49.637,281.455 -51.977,279.026 -54.297,276.575C-54.023,273.408 -54.248,269.974 -54.023,266.716C-53.852,264.257 -53.963,261.798 -53.75,259.389C-53.621,257.947 -53.277,256.47 -53.064,255.007C-52.842,253.472 -52.752,251.923 -52.379,250.556C-51.625,247.794 -50.539,245.289 -49.846,242.82C-50.947,241.707 -50.367,238.912 -50.873,237.205C-52.922,236.034 -54.592,234.488 -56.625,233.302C-56.746,232.56 -56.957,231.728 -57.104,230.837C-57.24,230.018 -57.564,229.028 -57.516,228.303C-57.494,228.002 -57.254,227.446 -57.104,227.003C-56.773,226.028 -56.428,225.292 -56.146,224.469C-55.68,223.113 -55.313,221.919 -54.844,220.498C-54.557,219.621 -54.031,218.622 -53.955,217.827C-53.869,216.939 -54.096,216.024 -54.16,215.158C-54.232,214.173 -54.221,213.188 -54.297,212.213C-54.936,204.042 -56.404,196.298 -58.199,188.933C-55.893,177.638 -54.205,165.722 -51.354,154.972C-50.189,154.042 -47.961,152.847 -46.354,152.37C-45.016,151.973 -43.461,151.461 -42.109,151.138C-41.596,151.015 -40.953,151 -40.604,150.795C-40.195,150.556 -40.014,149.951 -39.713,149.563C-39.369,149.12 -38.947,148.841 -38.754,148.399C-38.365,148.309 -37.932,148.262 -37.59,148.124C-35.902,144.996 -34.803,141.28 -35.125,136.142C-36.229,135.809 -37.496,135.638 -38.617,135.321C-39.65,130.979 -40.559,125.605 -41.697,121.216C-41.895,120.459 -42.006,119.467 -42.246,119.025C-42.58,118.409 -43.232,117.874 -43.684,117.313C-44.174,116.703 -44.598,116.091 -45.121,115.601C-46.35,108.042 -47.889,100.794 -49.025,93.143C-49.354,92.389 -49.873,91.87 -49.982,91.158C-50.098,90.419 -49.791,89.66 -49.846,88.898C-49.965,87.223 -50.375,85.439 -50.668,83.625C-51.236,80.099 -51.715,76.567 -52.242,73.013C-52.512,71.199 -52.936,69.413 -53.064,67.672C-53.309,64.395 -53.361,61.226 -53.611,58.086C-53.645,57.668 -53.838,57.2 -53.75,56.785C-53.643,56.288 -53.027,55.741 -52.654,55.347C-52.223,54.894 -51.793,54.468 -51.422,54.046C-51.943,53.399 -52.408,52.63 -52.928,51.855C-53.422,51.117 -54.145,50.342 -54.365,49.527C-54.805,47.909 -54.807,46.062 -55.119,44.324C-55.889,40.035 -56.729,35.903 -57.789,31.93C-58.018,31.068 -58.359,30.112 -58.336,29.465C-58.313,28.775 -57.871,27.81 -57.584,26.932C-57.305,26.082 -57.01,25.219 -56.762,24.467C-55.355,20.219 -54.086,16.266 -52.996,11.663C-52.771,10.72 -52.729,9.664 -52.379,8.924C-52.041,8.205 -51.082,7.73 -50.6,6.87C-50.107,5.992 -49.994,5.203 -49.572,4.405C-56.58,0.52 -63.443,-3.608 -70.182,-7.715C-70.811,-8.098 -72.998,-9.092 -72.988,-9.632C-72.982,-10.077 -71.631,-10.712 -71.072,-11.001C-68.814,-12.167 -66.217,-12.904 -63.883,-13.74C-62.195,-14.344 -60.502,-14.864 -59.363,-15.862C-58.17,-16.908 -57.17,-17.981 -55.939,-19.08C-59.377,-22.818 -60.025,-30.763 -58.748,-37.499C-59.891,-37.952 -61.264,-38.178 -62.102,-38.937C-62.283,-39.483 -62.115,-40.273 -62.102,-40.854C-62.662,-41.779 -63.738,-42.185 -64.293,-43.113C-63.326,-45.546 -63.273,-48.024 -62.992,-51.056C-62.908,-51.971 -62.719,-52.894 -62.719,-53.795C-62.719,-55.611 -63.064,-57.441 -63.266,-59.341C-63.662,-63.072 -63.701,-66.922 -63.883,-70.844C-63.277,-71.769 -62.367,-72.387 -61.76,-73.309C-62.406,-76.938 -63.156,-80.678 -64.156,-84.47C-64.805,-86.933 -65.461,-89.942 -66.348,-92.412C-66.656,-93.274 -67.123,-94.293 -67.031,-95.151C-66.914,-96.269 -65.793,-97.709 -65.184,-98.848C-64.508,-100.11 -63.904,-101.481 -63.334,-102.546C-59.998,-108.781 -56.992,-114.602 -54.023,-120.965C-53.434,-122.225 -52.879,-123.605 -52.174,-124.731C-51.592,-125.661 -50.441,-126.464 -49.504,-127.264C-47.506,-128.97 -45.885,-130.307 -43.889,-132.057C-43.051,-132.792 -41.813,-134.166 -40.877,-134.317C-39.877,-134.477 -38.365,-134.005 -37.248,-133.837C-33.6,-133.29 -29.873,-132.827 -26.703,-132.057C-25.318,-128.169 -24.326,-123.89 -23.006,-119.938C-21.408,-119.868 -20.021,-119.442 -18.623,-119.048C-17.285,-118.67 -15.807,-118.013 -14.311,-118.431C-15.113,-120.521 -15.881,-123.037 -16.775,-125.21" style="fill:url(#_Linear1);"/>
    </g>
    <defs>
        <linearGradient id="_Linear1" x1="0" y1="0" x2="1" y2="0" gradientUnits="userSpaceOnUse" gradientTransform="matrix(2.90854e-14,-475,475,2.90854e-14,9.82912,302.389)"><stop offset="0" style="stop-color:rgb(0,34,83);stop-opacity:1"/><stop offset="1" style="stop-color:rgb(0,94,173);stop-opacity:1"/></linearGradient>
    </defs>
</svg>
