<?xml version="1.0" encoding="UTF-8" standalone="no"?>
<!DOCTYPE svg PUBLIC "-//W3C//DTD SVG 1.1//EN" "http://www.w3.org/Graphics/SVG/1.1/DTD/svg11.dtd">
<svg width="100%" height="100%" viewBox="0 0 387 380" version="1.1" xmlns="http://www.w3.org/2000/svg" xmlns:xlink="http://www.w3.org/1999/xlink" xml:space="preserve" xmlns:serif="http://www.serif.com/" style="fill-rule:evenodd;clip-rule:evenodd;stroke-linejoin:round;stroke-miterlimit:2;">
    <g transform="matrix(1,0,0,1,-6.83876,-9.99992)">
        <path d="M79.022,10L79.857,10C80.755,10.42 80.963,11.53 81.493,12.319C82.232,12.313 82.384,12.897 82.708,13.307C82.845,13.31 82.987,13.309 83.13,13.309C83.659,13.305 84.206,13.301 84.572,13.497C84.894,13.669 85.452,14.575 85.674,14.902C86.667,16.38 87.652,18.148 88.638,19.465C90.052,19.167 91.558,18.878 93.048,18.591C93.492,18.506 94.184,18.32 94.607,18.4C95.042,18.485 95.521,19.346 95.786,19.693C96.187,20.221 96.43,20.701 96.851,21.1C97.371,20.943 97.903,20.959 98.295,21.252C99.322,22.02 99.775,24.067 99.777,25.776C100.979,25.899 101.997,26.256 102.742,26.916C103.027,27.167 103.22,27.6 103.503,27.904C103.793,28.219 104.239,28.384 104.491,28.664C104.818,29.026 104.888,29.588 105.289,29.881C106.404,30.034 107.025,30.68 107.493,31.478C109.618,32.244 111.21,33.541 112.019,35.622C111.586,35.078 111.262,34.427 110.726,33.987C111.027,35.282 111.559,36.356 112.131,37.447C112.707,38.538 112.869,39.801 113.312,41.095C113.651,41.833 114.183,42.377 114.603,43.035C114.541,43.04 114.472,43.038 114.402,43.035C114.274,43.028 114.142,43.024 114.07,43.072C114.466,46.347 114.162,50.251 113.083,52.728C113.577,53.314 113.723,54.426 113.615,55.579C113.45,57.347 113.025,58.825 112.55,60.103C112.289,60.804 112,61.4 111.601,61.927C111.215,62.436 110.708,62.784 110.194,63.297C109.851,63.637 109.652,64.312 109.319,64.741C109.016,65.13 108.723,65.415 108.407,65.767L108.407,69.417C108.407,72.881 110.013,75.244 110.27,78.464C111.271,78.775 112.272,78.915 113.196,79.148C115.016,79.607 115.977,81.127 116.959,82.608C117.448,83.34 117.836,84.267 117.873,85.269C117.901,86.076 117.667,86.953 117.569,87.816C117.405,89.229 117.233,90.549 117.112,91.959C117.701,91.901 118.315,91.541 118.898,91.35C119.479,91.348 119.863,91.167 120.343,90.857C120.721,90.612 121.176,90.074 121.75,90.134C122.078,90.169 122.557,90.599 122.662,90.857C122.782,91.148 122.777,91.528 122.89,91.883C123.182,92.808 123.504,93.784 123.764,94.772C124.114,96.104 124.385,97.496 124.678,98.878C124.762,99.279 125.358,99.767 125.704,100.133C126.035,100.483 126.386,100.83 126.692,101.158C127.363,101.884 128.077,102.568 128.593,103.288C129.419,104.445 129.779,106.069 130.873,107.088C131.342,107.528 132.002,107.836 131.785,108.572C132.391,109.474 132.945,110.334 133.382,111.309C134.275,113.294 134.341,116.181 134.409,118.95C134.458,121 134.837,122.821 135.548,124.271C136.269,125.737 137.044,127.03 137.716,128.605C138.152,129.624 138.651,130.598 139.198,131.456C139.999,132.714 140.466,134.047 140.339,136.132C140.253,137.547 139.879,139.069 139.54,140.465C139.452,140.833 139.149,141.509 139.198,141.796C139.238,142.027 139.689,142.402 139.958,142.709C140.246,143.037 140.559,143.354 140.757,143.582C141.311,144.221 141.723,144.956 142.125,145.56C142.968,146.824 144.337,148.181 144.558,149.779C144.659,150.51 144.261,151.164 144.407,151.795C144.536,152.358 145.334,152.512 145.509,153.125C145.547,154.052 145.162,154.61 145.356,155.482C145.425,155.792 145.597,156.059 145.699,156.317C146.228,157.661 146.008,159.97 145.775,161.526C145.681,162.159 145.493,162.851 145.47,163.502C145.441,164.372 145.543,165.153 145.356,165.937C145.258,166.353 144.971,166.746 144.787,167.152C144.238,168.359 143.764,169.722 143.114,170.801C142.2,172.32 140.908,173.389 139.958,174.717C139.507,175.348 138.685,175.81 137.906,176.237C137.534,176.442 137.132,176.663 136.841,176.96C135.943,177.877 135.19,178.678 133.876,179.279C133.512,179.445 133.132,179.658 132.735,179.925C132.449,180.12 131.854,180.458 131.748,180.685C131.559,181.088 131.615,182.023 131.558,182.586C131.437,183.795 131.335,184.655 131.255,185.931C131.222,186.414 131.015,187.106 131.101,187.375C131.161,187.564 131.666,187.75 131.977,187.946C132.838,188.494 133.691,189.245 134.371,189.809C135.414,190.673 136.364,191.618 137.107,192.736C138.627,195.024 139.517,197.843 140.529,200.681C141.519,203.454 142.429,206.374 143.114,209.463C144.475,215.602 145.183,222.757 145.699,229.839C146.047,234.616 146.191,239.463 145.965,244.132C145.796,247.605 145.469,251.024 145.167,254.471C144.79,258.765 143.726,262.404 142.392,265.876C139.489,273.439 134.719,279.185 127.528,282.487C124.534,283.803 119.591,284.615 115.591,283.553C115.356,284.183 115.423,284.897 115.363,285.567C115.183,287.553 114.889,289.56 114.717,291.649C114.477,294.568 114.739,297.612 114.641,300.469C114.587,302.02 114.392,303.263 114.222,304.537C113.732,308.235 112.331,310.789 110.344,313.014C110.162,313.218 109.91,313.388 109.813,313.585C109.594,314.033 109.685,314.542 109.584,314.989C109.441,315.642 109.112,316.444 108.711,316.892C108.215,317.444 107.294,317.179 107.228,316.398C106.846,316.572 106.642,316.926 106.316,317.158C105.759,319.832 105.168,322.643 104.605,325.368C104.504,325.863 104.403,326.301 104.339,326.776C104.256,327.401 104.447,328.108 104.339,328.79C104.218,329.554 103.655,329.912 103.617,330.692C103.532,332.408 104.308,334.266 103.958,336.089C103.806,336.885 103.091,337.635 103.085,338.371C103.076,339.297 103.778,340.152 103.958,340.841C104.129,341.486 103.905,342 103.731,342.437C104,342.827 104.28,343.207 104.415,343.731C105.388,344.064 105.898,345.012 106.507,345.783C107.002,346.413 107.273,347.083 107.57,347.873C107.89,348.73 107.989,349.563 108.292,350.345C108.827,351.721 110.176,352.787 111.106,353.88C111.609,354.471 111.99,355.15 112.512,355.628C113.343,356.394 114.499,356.844 115.668,357.264C116.008,357.385 116.429,357.473 116.693,357.795C116.812,357.959 116.632,358.097 116.655,358.29C117.743,358.956 118.719,359.687 119.809,360.495C120.873,361.28 122.699,362.39 122.319,364.41C122.282,364.61 122.101,364.817 122.13,364.98C122.177,365.243 122.72,365.387 122.966,365.627C123.609,366.251 123.637,367.587 123.537,368.743C122.163,369.655 119.347,370.196 117.34,370.568C116.292,370.762 115.178,370.862 114.07,371.024C112.982,371.184 111.912,371.441 110.915,371.557C108.868,371.795 106.455,372.237 104.149,371.9C103.167,371.756 102.187,371.506 101.261,371.1C99.974,370.54 98.464,369.688 99.246,367.906C98.272,366.97 97.201,366.065 95.863,365.437C95.556,365.293 94.797,365.434 94.303,365.512C92.952,365.728 91.4,365.939 89.854,365.74C88.742,365.596 87.676,365.233 86.814,364.789C85.943,364.343 85.072,363.913 84.572,363.042C84.743,361.688 84.515,360.009 84.648,358.669C84.737,357.76 85.348,357.375 85.864,356.921C85.693,356.262 85.329,355.698 85.179,354.983C84.885,353.561 85.24,351.809 85.37,350.269C85.465,349.143 85.612,347.984 85.712,346.81C85.746,346.401 85.702,345.956 85.788,345.631C85.864,345.342 86.166,345.117 86.243,344.795C86.32,344.482 86.231,344.089 86.282,343.731C86.324,343.429 86.51,343.159 86.547,342.894C86.6,342.527 86.509,342.09 86.547,341.639C86.623,340.794 87.157,339.873 87.194,338.788C87.235,337.62 87.123,336.453 87.345,335.519C87.414,335.238 87.554,334.895 87.651,334.606C87.752,334.302 87.944,333.974 87.955,333.732C87.969,333.402 87.724,333.005 87.69,332.668C87.55,331.363 87.585,329.943 87.536,328.524C87.489,327.133 87.668,325.652 87.536,324.267C87.53,324.186 87.514,324.072 87.498,324.001C87.115,322.377 85.997,321.119 86.092,319.134C85.73,318.799 85.228,318.604 85.029,318.107C84.958,316.863 84.609,315.948 84.23,314.801C83.978,314.043 83.448,312.737 83.698,311.875C83.931,311.064 84.824,310.681 85.523,310.316C85.783,310.177 86.137,310.053 86.205,309.897C86.338,309.604 86.061,308.613 85.94,308.376C85.795,308.096 85.573,307.835 85.37,307.654C85.156,307.465 84.793,307.39 84.609,307.16C84.385,306.878 84.231,305.943 84.419,305.373C84.577,304.896 85.25,304.719 85.712,304.385C86.063,304.13 86.216,303.25 86.092,302.559C85.88,301.378 85.371,300.245 84.913,299.177C84.764,298.826 84.544,298.5 84.419,298.151C84.212,297.564 84.132,296.655 84.077,295.945C83.936,294.121 83.92,291.923 84.039,289.902C84.089,289.08 84.489,288.24 84.761,287.506C85.361,285.897 86.001,284.392 86.586,282.754C86.688,282.471 86.874,282.045 86.891,281.766C86.908,281.443 86.698,281.084 86.586,280.741C85.798,278.299 85.347,275.249 85.484,271.996C85.647,268.121 85.075,264.516 84.838,260.744C84.761,259.528 84.566,258.015 84.419,256.677C84.365,256.171 84.457,255.503 84.268,255.232C83.978,254.82 83.703,254.493 83.47,254.091C81.841,251.289 81.305,247.262 80.428,243.638C80.108,244.123 79.864,244.666 79.63,245.196C78.932,246.775 78.281,248.457 77.425,249.986C76.85,251.014 76.193,251.918 75.715,252.952C75.223,254.01 74.923,255.167 74.536,256.411C73.441,259.92 72.233,263.455 70.962,266.827C70.56,267.897 70.114,269.036 69.1,269.601C66.76,275.087 64.554,280.851 61.459,285.796C60.991,286.542 60.439,287.393 59.9,288.228C59.382,289.032 58.646,289.843 58.341,290.623C57.998,291.502 58.05,292.797 57.848,293.778C57.017,297.812 55.393,300.813 54.008,304.385C53.839,304.818 53.662,305.237 53.475,305.677C53.298,306.1 53.203,306.574 53.019,307.008C52.519,308.195 51.974,309.564 51.46,310.886C51.287,311.332 51.032,311.784 50.967,312.178C50.739,313.533 50.971,315.039 50.814,316.321C50.516,318.782 49.414,320.552 48.344,322.442C48.115,322.845 47.864,323.337 47.584,323.849C47.341,324.292 46.954,324.911 46.937,325.331C46.901,326.239 47.911,326.997 47.24,327.992C46.634,328.892 45.007,328.482 43.706,328.981C43.334,329.122 42.979,329.47 42.832,329.741C42.627,330.114 42.703,330.596 42.49,331.11C42.299,331.57 41.671,331.82 41.197,331.945C40.804,332.049 39.857,332.124 39.714,332.439C39.596,332.702 39.82,333.112 39.791,333.467C39.733,334.142 39.019,334.575 38.916,335.291C38.884,335.515 38.932,335.744 38.916,335.974C38.859,336.83 38.614,337.676 38.422,338.484C38.327,338.881 38.27,339.301 38.157,339.702C38.046,340.084 37.863,340.469 37.812,340.841C37.609,342.403 38.113,344.273 37.928,345.972C37.792,347.212 37.377,348.337 37.204,349.509C37.099,350.233 37.085,351.019 37.014,351.789C36.885,353.239 36.51,354.459 36.066,355.781C35.828,356.488 35.448,357.197 35.456,357.643C35.467,358.098 35.871,358.678 36.066,359.164C36.65,360.627 37.044,362.51 36.825,364.561C36.57,366.948 35.29,368.572 34.087,370.226C34.334,371.721 34.632,372.982 34.811,374.749C35.018,376.814 34.644,378.735 34.241,380.452C34.151,380.827 33.982,381.266 34.012,381.478C34.06,381.807 34.513,382.035 34.658,382.277C34.739,383.13 35.44,383.853 35.571,384.786C35.839,386.704 34.716,387.121 33.289,387.637C30.759,388.552 27.944,388.896 24.851,389.234C22.756,389.463 20.78,389.628 18.654,389.727C17.694,389.771 16.695,389.905 15.576,389.918C14.474,389.929 13.284,390.097 12.306,389.918C11.478,389.767 10.369,388.431 10.214,387.598C10.127,387.126 10.157,386.572 10.138,386.117C10.1,385.161 10.308,384.549 10.671,383.988C10.77,383.835 11.09,383.52 11.128,383.341C11.169,383.141 11.039,382.873 11.012,382.658C10.756,380.551 10.8,378.057 11.622,376.574C12.138,375.168 12.363,373.623 12.876,372.126C13.213,371.145 13.647,370.076 14.054,369.048C14.194,368.695 14.418,368.357 14.472,368.059C14.643,367.122 14.464,366.156 14.472,365.359C14.481,364.533 14.613,363.765 14.852,363.042C15.305,361.668 16.111,360.825 16.829,359.658C17.258,358.675 16.896,357.224 16.943,356.085C16.977,355.294 17.066,354.515 17.285,353.652C17.666,352.16 18.786,350.625 19.377,349.242C19.705,348.47 19.083,347.536 18.997,346.733C18.847,345.352 19.777,344.367 20.289,343.578C20.872,342.68 21.036,341.628 21.239,340.271C21.418,339.062 21.336,337.761 21.011,336.735C20.88,336.321 20.612,335.825 20.593,335.329C20.559,334.476 21.053,333.82 21.276,333.125C20.73,332.23 19.977,331.417 19.339,330.502C18.724,329.62 17.843,328.695 17.817,327.422C17.807,326.862 18.015,326.239 18.235,325.71C18.453,325.19 18.697,324.706 18.883,324.229C19.475,322.705 19.951,320.959 21.088,320.048C22.223,319.135 23.483,318.07 23.71,316.283C23.522,316.205 23.204,316.258 23.026,316.17C21.814,315.57 20.927,314.341 20.783,312.671C20.708,311.805 20.969,310.803 21.2,310.011C21.794,307.992 22.592,306.404 23.558,304.688C23.751,304.346 24.053,303.968 24.09,303.701C24.186,303.019 24.014,302.218 24.014,301.533C24.014,299.356 23.836,297.316 24.204,295.262C24.649,292.778 25.395,290.642 26.219,288.457C26.629,287.368 26.997,286.307 27.512,285.301C28.534,283.308 29.348,281.447 30.286,279.257C30.834,277.979 31.387,276.881 31.693,275.379C31.895,274.387 31.772,273.398 31.959,272.376C32.061,271.826 32.567,271.463 32.872,271.008C33.12,270.637 33.324,270.092 33.518,269.563C33.698,269.072 33.984,268.508 34.049,268.004C34.083,267.759 33.991,267.414 33.973,267.094C33.889,265.59 34.259,264.077 34.62,262.606C35.331,259.708 35.948,257.35 36.71,254.433C37.06,253.104 37.687,251.482 37.358,250.175C37.106,249.185 36.601,248.114 36.558,246.831C36.526,246.814 36.491,246.798 36.483,246.754C32.54,246.51 29.442,245.113 26.675,243.675C25.226,242.923 24.049,242.037 22.988,240.901C21.957,239.796 21.047,238.591 20.098,237.365C19.696,237.406 19.334,237.486 18.997,237.594C18.639,239.01 18.554,240.7 18.161,242.079C16.63,242.502 14.895,242.74 13.522,242.231C13.259,242.134 13.042,241.918 12.8,241.851C12.054,241.649 11.285,241.863 10.633,241.585C10.548,241.241 10.633,240.754 10.671,240.406C10.712,240.168 11.055,240.232 11.165,240.063C11.305,239.712 11.19,239.329 11.317,239.038C11.445,238.748 11.803,238.744 11.964,238.507C11.942,237.865 12.236,237.377 12.115,236.719C12.068,236.457 11.747,236.263 11.698,235.996C11.606,235.506 11.926,234.811 11.774,234.285C11.685,233.982 11.079,233.851 11.012,233.564C10.946,233.265 11.208,232.7 11.279,232.309C11.45,231.367 11.58,230.73 11.774,229.799C11.851,229.428 12.06,228.781 12.002,228.547C11.943,228.309 11.32,228.093 11.012,227.937C9.966,227.402 8.822,226.941 8.01,226.226C7.989,226.017 8.032,225.868 8.047,225.695C7.826,225.408 7.512,225.311 7.288,225.01C6.262,223.633 7.097,220.772 8.733,220.677C9.032,218.66 9.292,216.57 9.607,214.366C9.671,213.915 9.879,213.219 9.797,212.884C9.734,212.632 9.213,212.299 8.999,212.123C8.674,211.856 8.423,211.643 8.162,211.401C8.207,211.035 8.086,210.434 8.199,210.07C8.314,209.708 8.946,209.199 9.303,208.893C10.477,207.875 11.827,206.805 12.647,205.51C13.21,204.623 13.656,203.439 13.978,202.353C14.317,201.21 15.105,200.573 15.842,199.731C15.087,196.794 14.199,193.492 13.37,190.493C13.247,190.045 13.034,189.531 13.029,189.162C13.003,187.751 15.153,186.889 16.45,187.794C16.977,189.738 17.543,191.642 18.084,193.572C19.037,193.543 19.385,194.121 19.985,194.447C20.217,194.369 20.271,194.14 20.555,194.067C21.209,193.894 22.124,194.061 22.303,193.458C22.383,193.194 22.066,192.529 21.924,192.051C21.785,191.588 21.609,191.13 21.582,190.645C22.976,189.987 24.454,189.413 25.839,188.745C27.264,188.129 28.74,187.565 29.641,186.426C29.613,186.16 29.456,186.027 29.412,185.779C29.155,185.782 28.94,185.742 28.728,185.703C28.593,185.207 28.751,184.76 29.032,184.563C28.813,184.022 28.731,183.343 28.538,182.776C28.647,182.454 28.871,182.247 29.032,181.978C28.78,180.764 30.096,180.195 30.933,180.914C31.123,181.077 31.554,181.681 31.693,181.94C31.937,182.393 31.981,182.985 32.188,183.422C32.337,183.741 32.669,183.913 32.719,184.182C32.79,184.559 32.565,184.893 32.757,185.284C32.863,185.498 33.137,185.615 33.251,185.817C33.481,186.226 33.564,186.749 33.745,187.186C33.931,187.633 34.116,188.052 34.316,188.479C34.847,188.63 35.46,188.703 36.028,188.821C36.081,187.562 35.967,186.372 35.837,185.247C35.702,184.074 35.646,182.955 35.38,181.787C35.027,180.236 34.485,178.803 33.937,177.34C33.712,176.744 33.398,176.183 33.48,175.553C33.536,175.121 33.979,174.737 34.012,174.337C34.041,173.981 33.774,173.514 33.898,172.93C34.066,172.135 35.481,171.608 35.609,170.725C35.721,169.945 35.477,169.259 35.648,168.634C35.818,168.008 36.205,167.759 36.71,167.303C36.208,166.506 35.478,165.919 35.192,164.909C34.966,164.131 34.894,163.189 34.848,162.325C34.834,162.03 34.915,161.672 34.848,161.374C34.78,161.062 34.429,160.708 34.241,160.347C33.299,158.549 32.412,155.27 33.86,153.125C33.657,152.573 33.32,152.223 33.251,151.604C33.128,150.461 33.44,149.343 33.669,148.373C33.9,147.414 34.172,146.414 34.697,145.75C35.822,144.32 37.305,143.33 38.536,142.29C38.23,140.844 37.906,139.544 37.548,138.185C37.203,136.881 36.507,135.62 36.407,134.231C36.385,133.929 36.373,133.53 36.407,133.204C36.427,133.022 36.577,132.805 36.558,132.597C36.528,132.235 35.792,131.48 35.648,131.152C35.543,130.919 35.499,130.598 35.38,130.315C35.147,129.764 34.837,129.258 35.039,128.453C35.131,128.085 35.391,127.88 35.495,127.541C35.615,127.154 35.588,126.798 35.723,126.438C36.055,125.556 36.392,124.577 36.787,123.625C37.05,122.991 37.324,122.397 37.508,121.763C37.715,121.066 37.706,120.33 37.812,119.481C37.969,118.245 38.125,117.041 38.157,115.794C38.185,114.527 38.252,113.307 38.46,112.069C38.654,110.92 38.871,109.794 39.068,108.648C39.361,106.955 39.527,105.355 39.714,103.591C39.821,103.605 39.986,103.836 40.018,103.591C40.507,103.913 40.715,101.058 40.474,100.739C41.897,96.968 43.74,93.614 45.836,90.514C45.645,89.485 46.367,88.898 46.898,88.347C47.357,87.871 47.778,87.392 48.153,86.98C48.043,86.138 48.653,85.875 49.143,85.497C50.153,84.713 51.069,83.812 51.688,82.722C51.228,82.449 50.496,82.445 50.129,82.075C50.328,80.13 50.736,78.398 51.042,76.564C50.417,76.2 49.373,76.257 48.686,75.955C48.548,75.209 48.577,74.038 48.799,73.408C48.896,73.139 49.228,72.517 49.522,72.458C49.819,72.398 50.243,72.61 50.586,72.686C50.962,72.768 51.279,72.861 51.651,72.914C51.948,72.346 51.957,71.612 52.107,70.937C52.223,70.414 52.392,69.657 52.487,69.037C53.901,68.5 55.607,68.253 57.125,67.819C57.755,66.271 58.79,65.126 60.357,64.512C61.958,63.603 66.039,63.328 66.249,65.654C66.366,66.943 65.575,68.134 65.032,68.999C69.598,69.982 74.219,70.912 78.793,71.887C77.825,68.769 76.538,65.892 75.563,62.725C75.235,61.667 74.938,60.548 74.802,59.38C74.675,58.302 74.878,57.178 74.878,56.035C74.878,55.12 74.633,54.189 74.46,53.336C74.284,52.467 74.191,51.61 73.927,50.789C73.657,50.782 73.4,50.792 73.148,50.801C72.783,50.815 72.429,50.828 72.064,50.789C71.365,50.715 70.494,50.369 70.316,49.802C70.243,49.569 70.323,49.332 70.276,49.078C70.201,48.64 69.837,48.177 69.555,47.785C68.719,46.62 67.935,45.404 67.009,44.402C66.078,44.595 65.02,44.523 64.233,44.137C63.612,43.832 62.745,43.058 62.751,42.388C62.754,42.05 63.048,41.665 63.206,41.361C63.387,41.016 63.565,40.72 63.739,40.412C63.44,40.051 63.587,39.565 63.434,39.005C63.361,38.733 63.036,38.37 62.827,38.054C62.249,37.185 61.453,36.242 61.193,35.127C61.04,34.477 61.097,33.369 61.382,32.809C61.672,32.243 62.244,31.795 62.714,31.326C63.189,30.851 63.651,30.376 64.082,29.881C64.43,28.738 64.798,27.625 65.184,26.421C65.291,26.09 65.55,25.559 65.527,25.281C65.486,24.812 64.817,24.411 64.689,23.838C64.543,23.182 64.705,22.716 64.994,22.127C64.726,21.736 64.474,21.374 64.233,21.024C63.907,20.55 63.475,20.148 63.434,19.465C63.348,17.972 64.721,16.715 65.83,15.93C66.438,15.499 67.027,15.277 67.921,15.055C68.759,14.847 70.135,14.601 70.733,15.055C71.104,15.336 71.385,15.976 71.647,16.424C71.937,16.92 72.181,17.397 72.445,17.869C74.067,17.97 74.66,19.1 75.448,20.037C75.341,19.341 75.53,18.468 75.942,18.058C75.733,17.635 75.145,17.11 75.486,16.501C75.025,15.922 74.492,15.414 74.155,14.713C74.164,13.237 75.032,12.116 75.867,11.368C76.71,10.612 77.808,10.208 79.022,10ZM37.053,189.162C37.211,189.199 37.399,189.205 37.593,189.205C37.646,189.205 37.7,189.204 37.753,189.204C37.989,189.202 38.226,189.2 38.422,189.239C39.543,190.272 40.498,191.47 41.691,192.433C41.639,191.659 41.882,190.946 41.767,190.266C41.721,189.99 41.456,189.774 41.463,189.504C41.468,189.301 41.656,189.115 41.691,188.897C41.774,188.383 41.628,187.89 41.652,187.3C41.154,186.811 40.915,186.061 40.664,185.324C40.389,185.219 40.032,185.195 39.752,185.096C39.428,183.771 38.83,182.52 38.802,181.027C39.101,180.978 39.373,181.008 39.627,181.039C39.911,181.071 40.175,181.106 40.435,181.027C40.796,180.919 40.967,180.35 41.387,180.381C41.585,179.937 42,179.455 41.919,178.937C41.871,178.632 41.432,178.375 41.273,178.024C41.067,177.574 41.18,177.232 40.93,176.846C40.425,176.884 39.877,177.056 39.296,176.96C38.825,176.882 38.056,176.455 37.965,176.086C37.85,175.609 37.886,174.416 37.965,173.995C38.065,173.467 38.548,172.975 38.574,172.474C38.185,172.141 37.876,171.728 37.358,171.524C37.11,172.047 36.809,172.561 36.71,173.12C36.583,173.852 36.592,174.714 36.597,175.553C36.603,176.608 36.721,177.644 36.939,178.633C37.144,179.561 37.516,180.546 37.508,181.522C37.506,182.014 37.377,182.518 37.358,183.004C37.272,185.044 37.035,187.142 37.053,189.162ZM35.799,241.813C35.801,241.842 35.787,241.849 35.767,241.849C35.758,241.849 35.75,241.848 35.741,241.847C35.72,241.843 35.698,241.842 35.684,241.851C34.656,242.501 33.479,243.138 32.53,243.866C33.563,244.365 34.835,244.626 36.178,244.817C36.219,243.85 35.95,242.866 35.913,241.851L35.837,241.851C35.835,241.828 35.83,241.807 35.799,241.813ZM114.11,141.151C114.896,141.262 115.288,141.771 115.971,141.987C115.979,141.456 115.822,140.851 115.819,140.314C115.811,139.105 116.541,138.019 116.275,136.816C116.156,136.811 116.046,136.815 116.009,136.892C115.878,137.194 115.809,137.598 115.706,137.919C115.314,139.127 114.577,139.997 114.11,141.151ZM113.043,168.787C113.094,168.801 113.157,168.805 113.227,168.805C113.286,168.805 113.351,168.802 113.415,168.799C113.579,168.792 113.754,168.785 113.881,168.825C114.61,169.059 114.325,169.845 114.755,170.459C115.138,171.007 116.742,170.901 116.807,171.676C116.823,171.863 116.645,172.185 116.542,172.474C116.327,173.07 116.189,173.525 115.971,174.108C115.859,174.411 115.66,174.701 115.668,174.908C115.683,175.311 116.093,175.677 116.466,175.934C117.331,175.22 118.192,174.463 119.088,173.728C119.421,173.456 119.816,173.255 119.925,172.93C120.016,172.663 119.958,172.351 120.001,172.094C120.16,171.144 120.508,170.369 120.875,169.547C121.334,168.821 121.926,168.382 122.319,167.609C123.049,166.175 121.603,165.24 121.521,164.035C121.466,163.199 121.789,162.568 122.092,161.944C122.252,161.613 122.467,160.905 122.927,160.842C123.103,160.818 123.31,160.946 123.498,160.955C124.124,160.988 124.754,160.731 125.323,160.613C124.882,159.024 124.029,157.436 123.498,155.52C123.238,154.579 123.213,153.461 123.155,152.403C123.103,151.407 122.987,150.161 122.586,149.475C122.327,149.034 121.623,148.756 121.447,148.297C121.3,147.921 121.429,147.22 121.332,146.851C120.941,146.966 120.847,147.287 120.458,147.346C120.137,147.396 119.669,147.294 119.392,147.195C117.9,146.662 116.739,144.846 116.275,143.545C116.274,143.594 116.227,143.598 116.238,143.659C116.14,144.067 116.084,144.519 115.896,144.837C115.715,145.175 114.869,145.435 114.792,145.75C114.729,146.017 115.013,146.461 115.021,146.89C115.023,147.034 115.021,147.243 114.984,147.384C114.837,147.936 114.251,148.254 114.222,148.677C114.21,148.868 114.469,149.264 114.603,149.589C114.847,150.179 115.076,150.86 115.136,151.49C115.245,152.647 114.831,153.854 114.641,155.026C114.477,156.03 114.795,156.624 114.945,157.344C115.133,158.25 115.129,159.365 114.945,160.195C114.613,161.015 114.153,161.88 113.881,162.857C113.679,163.576 113.5,164.414 113.234,165.024C113.134,165.253 113.001,165.503 112.967,165.708C112.812,166.708 113.019,167.788 113.043,168.787ZM119.544,279.676C119.724,279.685 119.899,279.69 120.069,279.69C121.091,279.69 121.976,279.533 122.927,279.257C124.918,278.681 126.792,277.871 128.402,276.976C130.066,276.051 131.55,274.922 132.698,273.517C133.864,272.09 134.858,270.546 135.815,268.878C137.672,265.642 139.22,261.831 140.036,257.589C140.866,253.258 141.381,248.486 141.48,243.486C141.683,233.229 140.806,223.543 139.387,214.595C139.046,212.429 138.585,210.241 138.097,208.133C137.102,203.835 135.86,200.018 133.952,196.765C132.981,195.111 131.833,193.652 130.493,192.433L130.418,192.433C130.289,192.81 130.2,193.475 130.113,194.105C130.042,194.625 130.021,195.25 129.885,195.663C129.808,195.899 129.547,196.049 129.504,196.233C129.466,196.409 129.54,196.621 129.504,196.802C129.336,197.622 128.982,198.395 128.859,199.237C128.725,200.151 128.683,201.093 128.593,202.088C128.42,203.966 127.969,205.778 127.795,207.523C127.618,209.262 127.298,211.215 127.185,213.112C127.134,213.984 127.058,214.924 126.919,215.963C126.693,217.687 126.866,219.142 125.704,219.764C125.647,220.524 124.86,220.673 124.297,220.982C123.811,221.243 123.417,221.511 123.043,221.742C122.835,221.838 122.444,221.752 122.319,221.931C122.421,224.504 122.855,226.945 122.776,229.57C122.169,229.94 121.091,229.839 120.382,230.105C121.072,233.045 121.208,236.279 120.875,239.57C120.734,240.976 120.904,242.757 120.571,243.941C120.301,244.897 119.819,245.918 119.392,246.907C118.968,247.895 118.378,248.845 118.138,249.796C117.781,251.212 117.667,253.024 117.605,254.625C117.542,256.331 117.403,257.931 117.15,259.528C116.917,260.99 116.545,262.518 116.389,264.128C116.311,264.932 116.308,265.809 116.275,266.674C116.242,267.545 116.085,268.442 116.161,269.26C116.206,269.731 116.371,270.221 116.503,270.666C116.618,271.053 116.831,271.439 116.846,271.844C116.866,272.356 116.615,272.878 116.542,273.404C116.283,275.256 116.439,277.364 116.123,279.219C117.276,279.512 118.426,279.618 119.544,279.676ZM17.209,209.843C17.321,209.887 17.425,209.907 17.521,209.907C18.002,209.907 18.3,209.424 18.54,209.12C18.255,208.38 18.008,207.6 17.742,206.84L17.627,206.84C17.444,207.795 17.129,208.621 17.209,209.843ZM21.164,235.085C21.227,235.449 21.794,235.852 21.962,236.072C22.204,235.428 22.208,234.547 22.419,233.868C22.162,233.631 21.861,233.436 21.505,233.298C21.39,233.468 21.127,234.874 21.164,235.085ZM58.836,67.439C60.363,67.903 62.07,68.184 63.625,68.618C64.06,68.027 65.012,67.011 65.032,66.072C65.061,64.748 63.414,64.817 62.18,64.892C60.628,64.988 59.216,66.2 58.836,67.439ZM24.432,239.76C25.782,241.3 27.574,242.398 29.868,242.991C29.684,242.613 29.351,242.355 29.032,242.041C28.75,241.764 28.281,241.474 28.12,241.129C27.969,240.806 28.113,240.356 27.93,239.949C26.797,239.804 25.608,239.712 24.432,239.608L24.432,239.76ZM240.561,10.837C240.821,10.651 240.826,10.212 241.057,10C240.887,11.22 242.035,10.927 242.846,10.76C243.046,10.912 242.634,10.98 242.77,11.179C243.239,11.752 244.068,11.964 244.788,12.284C244.645,12.648 244.125,12.724 244.14,13.159C244.164,13.822 245.493,13.757 245.664,13.197C245.767,12.864 245.523,12.374 245.359,12.055C245.04,11.436 244.486,11.075 244.369,10.381C245.365,11.099 246.083,12.093 246.615,13.274C246.85,13.239 246.982,13.039 247.263,13.007C247.576,12.971 247.918,13.074 248.253,13.083C248,13.403 247.407,13.379 247.263,13.806C247.351,14.073 247.743,14.011 248.024,14.035C248.584,14.085 249.25,14.144 249.775,13.997C249.881,14.228 249.466,14.238 249.47,14.492C251.006,14.39 251.838,14.992 252.783,15.482C252.597,15.88 251.983,15.85 251.716,16.167C252.684,16.317 253.797,16.32 254.458,16.777C254.688,17.256 255.304,17.35 255.601,17.765C254.893,17.727 253.956,17.621 253.925,18.222C253.881,19.062 255.501,19.233 255.753,19.898C255.64,19.909 255.541,19.901 255.452,19.892C255.305,19.879 255.184,19.865 255.065,19.935C255.249,20.49 255.769,20.705 256.172,21.04C256.143,21.327 255.752,21.255 255.714,21.535C256.076,22.786 257.183,23.289 257.883,24.2C257.879,24.411 258.027,24.493 258.075,24.657C258.227,25.177 258.008,25.754 258.113,26.37C258.201,26.883 258.714,27.488 258.912,28.045C259.302,29.146 259.378,30.592 258.798,31.509C258.698,30.893 259.004,30.129 258.874,29.339C258.784,28.799 258.419,28.333 258.188,28.007C258.001,28.518 258.353,29.132 258.303,29.758C258.288,29.896 258.041,29.8 258.036,29.949C258.192,32.006 258.419,34.277 258.075,36.306C257.904,36.42 257.96,36.031 257.807,36.001C257.476,36.621 257.533,37.447 257.39,38.248C257.325,38.602 257.287,39.018 257.237,39.427C257.151,40.125 256.968,40.664 257.274,41.217C257.603,41.806 258.524,42.292 258.456,42.817C258.408,43.174 257.884,43.194 257.579,43.235C257.301,45.8 256.187,47.527 254.572,48.755C254.466,49.776 254.527,50.796 254.61,51.801C254.535,51.916 254.287,51.858 254.229,51.992C253.527,54.494 252.819,56.638 251.679,58.654C251.321,59.285 250.803,59.892 250.538,60.556C250.25,61.271 250.394,62.238 250.384,63.032C250.147,62.899 250.161,62.518 249.851,62.46C249.459,63.637 250.227,64.344 250.841,64.859C250.772,64.947 250.644,64.894 250.503,64.842C250.363,64.789 250.208,64.739 250.081,64.821C250.098,65.643 250.695,66.211 250.841,67.029C250.167,66.267 249.779,65.223 248.899,64.668C248.622,65.08 249.006,65.829 248.975,66.229C248.498,65.742 248.356,64.919 247.796,64.515C247.574,64.921 247.893,65.396 247.834,65.886C247.522,65.677 247.545,65.135 247.185,64.973C246.458,65.495 247.246,66.434 247.377,67.029C247.16,67.048 247.165,66.534 246.844,66.534C246.826,67.417 247.206,68.226 247.339,69.084C247.06,68.657 246.497,67.941 246.424,67.257C246.396,66.978 246.565,66.674 246.501,66.419C246.374,65.921 245.543,66.048 245.245,66.419C244.997,67.873 245.76,68.645 246.082,69.656C245.454,68.888 244.977,67.969 244.446,67.105C244.192,67.117 244.128,67.319 243.989,67.448C243.965,68.591 243.85,69.643 243.265,70.225C243.213,69.745 243.663,69.155 243.532,68.437C243.504,68.289 243.334,67.89 243.075,67.904C242.803,67.92 242.495,68.622 242.351,68.857C242.097,69.27 241.949,69.572 241.742,69.922C242.846,71.533 243.772,73.323 244.751,75.062C245.902,75.169 245.938,76.485 246.159,77.536C246.2,77.73 246.517,78.12 246.691,78.374C247.861,80.071 249.53,81.406 250.955,82.866C251.559,82.824 251.973,82.589 252.439,82.409C252.509,81.869 252.834,81.584 253.125,81.266C252.973,80.688 252.68,79.802 252.478,79.096C252.405,78.846 252.257,78.499 252.288,78.374C252.347,78.122 252.696,78.143 252.819,77.955C252.635,77.57 252.654,77.16 252.478,76.774C252.396,76.598 252.222,76.52 252.136,76.356C252.002,76.102 252.006,75.702 251.908,75.328C251.813,74.973 251.595,74.622 251.679,74.299C251.777,73.914 252.536,73.582 252.819,73.538C253.353,73.456 253.937,74 254.077,74.452C254.136,74.645 254.109,75.009 254.154,75.328C254.192,75.61 254.317,75.94 254.305,76.127C254.298,76.29 254.155,76.442 254.154,76.584C254.146,77.049 254.673,77.752 255.181,77.764C255.365,78.849 255.567,79.918 255.866,80.885C255.927,80.881 255.996,80.884 256.066,80.886C256.195,80.893 256.325,80.898 256.4,80.848C256.557,80.764 256.415,80.382 256.552,80.277C256.803,80.284 257.062,80.261 257.311,80.236C257.6,80.208 257.877,80.181 258.113,80.201C258.206,80.322 258.083,80.662 258.227,80.734C259.26,80.733 259.769,80.996 259.826,82.028C260.194,82.104 260.921,82.134 261.12,82.524C261.352,82.981 261.382,84.303 261.424,84.96C261.631,88.097 262.004,91.137 262.225,94.401C262.249,94.782 262.265,95.203 262.301,95.581C262.338,95.994 262.451,96.41 262.414,96.684C262.354,97.141 261.928,97.47 261.729,97.827C262.191,104.738 262.842,111.459 263.329,118.346C261.857,119.019 260.454,119.664 258.951,120.327C258.22,120.649 257.513,121.039 256.514,121.049C256.131,121.055 255.733,121.048 255.322,121.043C254.717,121.036 254.083,121.027 253.43,121.049C252.968,123.843 254.243,126.637 253.925,129.501C253.883,129.869 253.578,130.356 253.583,130.72C253.587,131.136 253.988,131.433 254.116,131.824C254.315,132.439 254.324,133.084 254.04,133.613C253.622,133.623 253.578,133.261 253.276,133.157C253.229,134.49 253.315,135.896 253.315,137.306C253.315,138.736 253.24,140.049 253.544,141.265C253.952,142.898 254.503,144.57 254.953,146.252C255.107,146.827 255.302,147.396 255.372,147.927C255.497,148.893 255.478,149.941 255.523,150.972C255.68,154.525 255.829,158.086 255.829,161.938C255.829,162.834 255.969,163.79 255.829,164.526C255.716,165.119 255.336,165.497 255.029,165.972C255.143,166.458 255.37,166.793 255.523,167.229C255.69,167.7 255.606,168.189 255.753,168.713C255.822,168.962 256.094,169.267 256.286,169.551C256.812,170.336 257.507,171.152 257.923,171.987C257.865,172.335 257.569,172.447 257.427,172.711C257.699,173.158 258.106,173.459 258.265,174.005C258.389,174.431 258.376,174.91 258.494,175.375C258.692,176.171 259.152,176.922 259.444,177.698C259.756,178.524 260.082,179.351 260.283,180.134C260.546,181.166 260.321,181.941 259.712,182.571C259.704,184.141 259.721,185.681 259.788,187.177C259.94,187.344 260.295,187.306 260.434,187.482C260.339,188.009 260.344,188.963 260.129,189.5C258.786,189.306 257.274,188.955 255.942,188.624C255.79,188.156 255.86,187.463 255.79,186.911C255.412,186.97 255.14,187.306 254.8,187.52C254.456,187.738 254.091,187.938 253.658,188.052C253.287,189.234 252.779,190.99 252.365,192.355C252.228,192.802 251.932,193.439 251.946,193.801C251.954,194.01 252.334,194.93 252.554,194.982C252.847,195.049 252.986,194.775 253.087,194.564C253.419,194.364 253.744,194.233 254.077,194.106C254.408,193.98 254.801,193.769 255.181,193.763C255.557,193.759 255.642,194.004 255.981,194.106C256.327,194.212 256.805,194.109 257.199,194.258C258.4,194.863 259.367,196.249 259.977,197.647C260.194,198.14 260.432,198.704 260.434,199.208C260.441,200.287 259.595,200.824 259.14,201.568C259.69,201.629 259.628,202.013 259.94,202.101C260.163,202.164 260.476,202.121 260.784,202.078C260.984,202.051 261.181,202.023 261.348,202.024C264.697,202.054 266.934,203.152 268.886,204.728C270.514,206.041 271.874,207.524 272.883,209.525C273.309,210.37 273.679,211.272 273.568,212.532C273.478,213.579 273.025,214.554 272.617,215.35C272.339,215.892 271.911,216.52 271.514,217.101C271.412,217.248 271.184,217.551 271.171,217.671C271.124,218.16 271.756,218.621 271.514,219.232C271.422,219.461 271.225,219.695 271.056,219.955C270.91,220.179 270.648,220.523 270.638,220.679C270.608,221.126 271.015,221.248 271.359,221.402C271.308,221.869 271.179,222.262 270.942,222.544C270.456,222.513 270.128,221.798 269.686,221.592C269.505,221.508 269.13,221.375 268.925,221.44C268.728,221.501 268.542,222.065 268.392,222.316C267.331,224.071 266.437,225.738 265.346,227.493C265.179,227.761 264.861,228.177 264.851,228.369C264.841,228.594 265.115,228.925 265.308,229.244C265.809,230.073 266.254,231.01 266.678,231.794C267.354,233.045 267.916,234.119 268.467,235.259C272.056,242.019 275.344,249.526 276.766,258.444C277.414,262.498 276.977,266.826 276.234,270.208C275.463,273.717 273.669,276.347 271.359,278.202C270.133,279.189 268.93,280.077 267.516,280.828C266.11,281.577 264.608,282.142 262.872,282.618C259.511,283.539 255.454,283.691 251.107,283.571C250.876,286.572 250.908,290.015 250.726,292.936C250.661,293.989 250.183,294.994 249.89,295.943C249.746,296.408 249.568,296.902 249.432,297.39C249.292,297.897 249.129,298.453 249.09,298.95C248.962,300.613 249.208,302.352 249.282,304.014C249.35,305.598 249.378,307.162 249.47,308.658C249.536,309.709 249.686,310.877 249.738,312.122C249.832,314.508 249.795,316.899 249.623,319.318C249.521,320.752 249.583,323.068 248.062,323.01C247.755,322.999 247.407,322.822 247.073,322.667C246.776,322.532 246.468,322.421 246.12,322.325C245.422,322.133 244.289,321.892 243.722,322.134C243.079,322.409 242.66,323.47 242.58,324.381C242.501,325.294 242.663,326.244 242.808,327.083C242.955,327.941 243.073,328.776 243.265,329.521C243.457,330.263 243.839,331.014 244.179,331.691C244.853,333.036 245.384,334.172 245.588,336.03C245.626,336.388 245.618,336.855 245.664,337.287C245.712,337.767 245.793,338.218 245.74,338.543C245.696,338.802 245.426,339.05 245.436,339.306C245.448,339.584 246.117,340.213 246.424,340.523C246.842,340.94 247.252,341.267 247.569,341.588C248.346,342.38 248.972,343.178 249.662,343.873C250.414,344.633 251.083,345.382 251.716,346.196C252.218,346.838 252.722,347.373 253.43,347.794C253.641,347.92 253.912,348.008 254.116,348.174C254.306,348.332 254.398,348.703 254.61,348.898C255.491,349.706 256.765,350.28 257.237,351.601C257.384,352.013 257.556,352.562 257.542,353.047C257.537,353.228 257.397,353.41 257.503,353.58C258.325,354.344 259.801,354.584 261.197,354.723C263.982,355 267.147,355.217 270.294,355.217C271.849,355.217 273.326,355.306 274.558,355.751C275.39,355.938 275.832,356.573 276.272,357.235C276.839,358.091 277.499,358.929 277.49,360.319C277.489,360.474 277.373,360.662 277.414,360.815C277.45,360.948 277.77,361.148 277.909,361.271C278.424,361.73 278.658,362.344 278.633,363.442C278.619,363.953 278.687,364.854 278.479,365.269C278.317,365.593 277.197,366.116 276.843,366.295C273.899,367.796 270.772,369.055 267.06,369.723C263.317,370.394 258.8,370.505 254.572,370.066C253.31,369.934 252.081,369.753 251.031,369.455C249.953,369.151 249.124,368.65 248.405,367.971C246.923,366.574 245.565,365.482 242.961,365.154C240.755,364.878 238.095,364.35 235.538,364.431C234.923,365.332 234.587,366.503 234.053,367.629C233.905,367.938 233.689,368.481 233.481,368.58C233.192,368.719 232.317,368.644 231.768,368.617C231.182,368.592 230.607,368.543 230.093,368.543C228.843,368.543 227.868,368.368 226.896,368.276C224.642,368.063 222.686,367.65 221.146,367.057C220.505,366.707 220.13,366.175 219.624,365.496C219.232,364.971 218.707,364.542 218.633,363.859C218.553,363.095 218.557,362.316 218.481,361.423C218.412,360.591 218.25,359.604 218.368,358.873C218.467,358.257 219.03,357.922 219.433,357.54C219.258,353.856 219.516,350.635 220.081,347.298C220.385,345.503 220.733,343.861 221.756,342.808C222.381,342.163 223.188,341.58 223.011,340.18C222.952,339.712 222.617,339.513 222.402,339.076C221.911,338.072 221.656,336.531 221.566,335.079C221.404,332.491 221.956,329.892 220.918,328.037C220.449,327.199 219.831,326.523 219.319,325.79C219.035,325.385 218.822,325.005 218.596,324.61C218.323,324.136 218.267,323.777 218.177,323.124C218.09,322.495 217.983,322.004 218.443,321.64C219.009,321.192 219.97,321.005 220.727,320.765C220.807,320.562 220.719,320.29 220.689,320.079C218.4,319.475 217.226,318.022 216.159,316.387C215.608,315.541 215.113,314.643 214.827,313.607C214.535,312.554 214.518,311.354 214.333,310.029C213.788,306.144 213.161,302.033 212.581,298.074C212.484,297.415 212.456,296.748 212.352,296.093C212.252,295.469 212.285,294.805 212.009,294.231C211.51,295.927 210.755,297.543 210.906,299.635C211.029,301.343 211.649,303.082 211.781,304.89C211.841,305.713 211.616,306.545 211.668,307.364C211.703,307.948 212.089,308.809 212.276,309.418C212.581,310.414 212.952,311.337 213.075,312.464C213.236,313.938 212.745,315.17 212.237,316.235C211.125,318.568 209.74,320.771 208.394,322.744C206.43,325.622 204.289,327.809 201.922,330.055C202.269,330.359 202.459,330.49 202.378,331.233C202.292,332.033 202.017,332.853 201.883,333.708C201.753,334.534 201.525,335.362 201.388,336.184C200.807,339.65 200.585,343.404 199.979,346.918C199.902,347.368 199.75,347.797 199.675,348.251C199.523,349.171 199.357,350.04 199.181,350.877C198.843,352.468 198.646,354.266 198.038,355.637C197.652,356.506 197.076,357.655 196.63,358.645C196.454,359.032 196.221,359.433 196.211,359.672C196.197,359.986 196.464,360.355 196.592,360.776C196.743,361.276 196.925,361.781 196.934,362.376C196.944,362.921 196.689,363.379 196.63,364.012C196.515,365.24 196.939,366.427 196.896,367.516C196.868,368.192 196.534,368.784 196.287,369.341C196.439,369.498 196.844,369.654 197.01,369.913C197.382,370.492 197.206,371.543 197.163,372.502C197.109,373.669 197.104,375.098 197.048,376.309C197.015,377.018 197.077,377.721 196.934,378.138C196.814,378.483 196.153,379.145 195.868,379.392C195.342,379.847 194.617,380.08 194.079,380.345C194.128,381.23 193.673,381.613 193.354,382.134C193.945,383.114 193.918,384.593 193.698,386.206C193.557,387.241 193.36,387.751 192.823,388.414C192.539,388.765 192.231,389.112 191.909,389.367C191.063,390.035 190.141,390.035 188.9,389.976C185.416,389.811 181.897,389.447 178.622,389.102C177.523,388.984 176.395,388.927 175.311,388.72C173.258,388.327 170.861,388.113 169.41,387.196C168.839,386.837 168.663,386.488 168.534,385.712C168.46,385.27 168.47,384.678 168.42,384.151C168.325,383.186 168.249,382.365 168.496,381.601C168.568,381.376 168.769,381.154 168.915,380.954C169.053,380.763 169.332,380.509 169.372,380.345C169.484,379.874 169.29,379.032 169.333,378.403C169.473,376.412 170.725,375.148 171.693,373.834C172.076,373.317 172.433,372.821 172.798,372.312C173.169,371.795 173.393,371.218 173.674,370.598C174.494,368.781 175.444,367.221 176.643,365.727C177.032,365.24 177.485,364.725 177.709,364.202C178.005,363.509 178.199,362.714 178.431,361.918C178.655,361.153 178.966,360.357 179.042,359.559C179.13,358.614 178.958,357.612 179.042,356.512C179.181,354.657 180.203,353.941 180.792,352.401C180.984,351.082 181.207,349.855 181.135,348.556C181.092,347.788 180.783,347.143 180.678,346.461C180.428,344.857 180.706,342.97 180.831,341.323C181.077,338.008 181.358,335.382 181.631,332.071C181.666,331.636 181.832,330.926 181.744,330.625C181.655,330.318 180.693,329.935 180.298,329.672C179.226,328.96 178.462,328.487 177.404,327.77C176.894,327.423 176.149,327.062 175.996,326.55C175.929,326.335 175.988,326.127 175.957,325.866C175.866,325.094 175.579,324.467 175.235,323.887C174.923,323.362 174.642,322.776 174.511,321.945C174.427,321.412 174.345,320.88 174.245,320.422C173.825,318.526 173.169,316.538 172.836,314.674C172.768,314.294 172.762,313.769 172.836,313.302C172.877,313.049 173.174,312.453 173.102,312.16C173.053,311.956 172.2,311.434 171.998,311.285C171.663,311.038 171.114,310.679 171.122,310.22C171.129,309.843 171.924,309.196 172.149,308.924C172.454,308.561 172.904,307.948 172.989,307.479C173.104,306.827 173.097,306.139 173.179,305.499C173.421,303.584 173.789,302.068 174.434,300.473C174.844,299.462 175.325,298.529 175.501,297.427C175.589,296.872 175.624,296.289 175.69,295.714C175.918,293.762 176.326,291.756 176.643,289.89C176.952,288.069 176.829,285.988 176.984,284.104C177.035,283.52 177.23,282.978 177.291,282.429C177.371,281.698 177.164,281.008 177.213,280.258C177.281,279.234 177.546,278.245 177.633,277.174C175.935,276.776 174.547,276.1 173.331,275.157C172.142,274.236 171.094,273.165 170.133,272.034C167.973,269.495 166.556,266.271 165.945,262.327C165.622,260.246 165.257,257.906 165.145,255.551C165.12,254.999 165.203,254.265 165.069,253.876C164.963,253.564 164.556,253.479 164.422,253.115C164.075,253.138 163.986,253.76 163.509,253.838C163.136,253.898 162.355,253.535 162.291,253.23C162.221,252.9 162.447,252.861 162.443,252.542C161.66,252.226 161.093,251.977 160.463,251.326C160.002,250.848 159.496,250.421 159.283,249.879C158.968,249.079 159.146,247.911 159.434,247.366C159.708,246.851 160.518,246.28 161.186,246.261C161.372,246.257 161.563,246.295 161.757,246.334C162.12,246.405 162.487,246.476 162.824,246.261C162.824,245.994 162.418,246.134 162.291,245.994C162.153,245.676 162.175,245.197 162.1,244.816C161.022,244.817 159.65,244.812 158.521,244.738C158.39,244.223 158.334,243.632 158.217,243.103C157.667,245.263 157.288,247.682 156.845,249.993C156.691,250.801 156.407,251.718 156.198,252.581C155.873,253.937 155.649,255.468 155.248,256.844C155.06,257.487 154.796,258.156 154.523,258.748C154.079,259.721 153.619,260.472 152.81,260.994C151.988,261.491 150.636,261.158 150.033,260.576C148.575,259.171 148.881,255.492 149.194,252.923C149.368,251.501 149.44,250.156 149.65,248.851C150.096,246.116 150.758,243.306 151.25,240.627C152.044,236.304 152.687,231.676 153.344,227.188C153.989,222.781 154.54,218.34 155.248,213.902C155.733,210.845 156.247,207.801 156.693,204.728C157.072,202.122 157.265,199.496 157.645,196.885C158.145,193.451 158.56,189.922 159.092,186.491C159.186,185.894 159.325,185.301 159.397,184.702C159.668,182.462 159.676,180.048 159.778,177.66C159.903,174.712 160.04,171.745 160.083,168.942C159.488,168.586 158.778,168.401 158.102,168.18C157.399,167.951 156.741,167.688 156.085,167.457C154.392,166.862 152.909,165.502 152.544,163.46C152.238,161.747 152.863,160.334 153.459,159.082C154.195,157.534 155.082,156.087 156.351,154.97C156.927,154.463 157.867,153.64 158.75,153.714C159.237,153.754 159.863,154.1 160.425,154.285C161.874,154.762 163.059,155.22 164.537,155.731C164.803,155.824 165.257,156.024 165.374,155.998C165.57,155.954 165.836,155.253 165.945,155.008C166.297,154.211 166.562,153.675 167.314,153.294C166.458,152.173 165.404,151.247 164.461,150.211C162.163,149.826 159.955,149.476 157.684,148.764C156.805,148.49 156.04,148.282 155.095,147.851C154.365,147.518 152.552,146.704 153.383,145.757C153.666,145.432 154.038,145.32 154.257,145.033C154.8,144.324 154.978,143.104 155.172,141.989C155.235,141.618 155.42,140.952 155.362,140.618C155.321,140.391 154.933,140.024 154.715,139.743C153.582,138.276 152.522,137.041 151.63,135.326C151.202,134.501 150.787,133.697 150.908,132.585C150.013,132.34 149.372,131.504 148.889,130.568C148.333,129.488 147.69,128.45 147.442,127.178C147.217,126.014 147.403,124.656 147.519,123.448C146.885,122.151 147.462,120.031 147.748,118.765C147.999,117.647 148.174,116.455 148.585,115.531C148.992,114.613 149.543,114.04 150.374,113.741C151.009,113.158 151.736,112.613 152.43,111.913C152.661,111.681 153.002,111.465 153.039,111.229C153.068,111.044 152.938,110.86 152.887,110.619C152.725,109.865 152.47,108.905 152.468,107.992C152.467,107.359 152.754,106.749 152.85,106.088C152.905,105.692 152.74,105.186 152.887,104.718C152.977,104.433 153.351,104.03 153.611,103.88C154.215,103.531 155.149,103.459 155.932,103.271C156.74,103.078 157.467,102.824 158.026,102.435C157.863,101.9 157.6,101.323 157.418,100.72C157.22,100.065 156.94,99.142 157.075,98.512C157.221,97.822 157.91,97.255 158.331,96.837C158.852,96.32 159.467,95.553 160.425,95.657C161.374,95.761 162.177,96.553 163.165,96.684C163.447,95.568 163.196,94.342 163.585,93.449C163.808,92.937 164.247,92.457 164.575,91.964C164.921,91.444 165.299,90.969 165.602,90.517C164.322,88.761 163.299,86.924 162.594,84.655C162.035,82.851 162.077,80.801 162.443,79.134C162.799,77.515 163.647,76.027 164.422,74.909C166.184,72.37 168.874,70.936 171.35,69.427C171.414,69.129 171.393,68.8 171.579,68.551C171.697,68.395 171.928,68.338 172.036,68.209C172.323,67.871 172.525,67.372 172.76,66.953C172.993,66.533 173.203,66.097 173.444,65.696C174.672,63.668 175.879,61.645 177.404,59.948C177.715,59.602 178.077,59.36 178.431,59.034C178.458,59.009 178.52,58.917 178.546,58.882C178.761,58.586 178.93,58.201 179.156,57.854C179.785,56.88 180.715,55.291 182.201,55.226C182.873,55.198 183.643,55.394 184.295,55.532C184.948,55.67 185.566,55.882 186.122,56.102C186.617,55.748 186.71,54.99 187.531,54.96C188.283,54.23 190.264,54.823 191.413,55.036C192.492,55.236 193.572,55.573 194.459,55.646C194.696,55.666 194.918,55.525 195.145,55.455C195.7,55.283 196.444,55.138 197.163,55.226C197.677,55.291 198.179,55.501 198.685,55.646C200.161,56.067 201.613,56.495 203.101,56.94C204.1,56.561 205.34,57.22 206.261,57.51C208.186,58.12 209.938,58.703 211.896,59.376C212.279,59.508 212.843,59.745 213.037,59.719C213.36,59.677 213.886,58.969 214.142,58.692C215.176,57.565 216.078,56.402 216.691,54.922C216.583,54.851 216.483,54.904 216.383,54.959C216.285,55.014 216.186,55.066 216.083,54.998C216.584,54.343 217.38,53.745 217.835,52.866C218.037,52.475 218.192,51.946 218.368,51.458C218.591,50.84 218.98,50.311 218.861,49.516C218.822,49.246 218.587,49.012 218.558,48.755C218.46,47.894 219.125,47.236 219.053,46.394C219.014,45.931 218.648,45.542 218.558,44.949C218.415,44.018 218.389,42.972 218.177,41.903C218.031,41.158 217.758,40.086 217.682,39.276C217.599,38.39 217.651,37.385 217.682,36.458C217.715,35.509 217.658,34.549 217.72,33.679C217.758,33.157 217.898,32.657 217.988,32.157C218.032,31.898 217.992,31.643 218.025,31.394C218.117,30.728 218.573,30.136 218.406,29.492C217.69,29.599 217.297,30.032 216.579,30.139C216.978,29.637 217.696,29.454 217.948,28.806C217.652,28.529 217.149,28.88 216.883,28.996C216.795,28.851 217.113,28.681 217.264,28.54C217.779,28.055 218.161,27.534 218.52,26.826C218.742,26.385 218.92,25.909 219.129,25.457C219.336,25.004 219.67,24.647 219.813,24.2C219.379,24.176 218.92,24.256 218.459,24.335C217.991,24.416 217.519,24.497 217.073,24.466C218.199,24.142 218.893,23.871 219.51,23.019C220.05,22.272 220.49,21.458 221.26,20.926C221.025,20.89 220.754,20.939 220.48,20.987C220.186,21.04 219.888,21.093 219.624,21.04C219.796,20.66 220.297,20.35 220.689,20.05C221.871,19.152 223.166,18.212 224.992,17.956C224.922,17.447 224.151,17.465 223.472,17.482C223.177,17.489 222.902,17.498 222.707,17.461C222.97,17.305 223.295,17.212 223.584,17.082C223.301,16.563 222.608,16.458 222.327,15.939C223.121,16.179 224.132,16.519 225.106,16.244C225.243,15.957 224.684,16.062 224.725,15.748C225.498,15.867 225.928,16.008 226.513,15.748C226.961,15.55 227.243,15.045 227.658,14.95C228.05,14.858 228.52,14.922 228.913,15.062C229.129,14.974 229.108,14.648 229.294,14.531C229.691,14.333 230.367,14.41 230.779,14.225C230.493,12.899 229.848,11.933 229.483,10.685C229.614,10.63 229.689,10.72 229.775,10.811C229.847,10.886 229.927,10.961 230.055,10.952C230.236,10.866 230.049,10.412 230.169,10.266C230.417,10.523 230.433,10.921 230.55,11.256C230.775,11.908 231.062,12.568 231.349,13.197C231.482,13.487 231.575,13.861 231.882,13.997C232.097,13.857 232.134,13.539 232.225,13.274C232.343,13.211 232.387,13.315 232.441,13.417C232.485,13.5 232.538,13.584 232.644,13.578C232.837,12.677 232.621,11.55 232.567,10.646C233.05,11.092 233.229,11.839 233.786,12.208C234.168,12.12 234.309,11.792 234.433,11.446C234.286,10.997 233.699,10.988 233.671,10.419C235.069,10.471 236.574,10.612 237.744,11.027C238.211,11.193 238.661,11.576 239.267,11.446C239.918,11.308 239.895,10.394 240.449,10.076C240.514,10.301 240.484,10.622 240.561,10.837ZM161.059,226.2C161.253,226.201 161.453,226.202 161.655,226.202C162.371,226.202 163.118,226.189 163.736,226.122C163.826,223.025 163.749,219.764 163.776,216.606C163.55,216.232 162.912,216.161 162.785,215.768C162.633,215.299 162.824,214.445 162.824,213.865C162.824,213.213 162.732,212.455 162.86,211.922C162.938,211.603 163.307,211.6 163.394,211.239C163.524,210.705 163.432,209.907 163.432,209.219C163.432,207.251 163.548,204.486 163.47,203.052C161.628,209.941 160.425,217.671 160.348,226.198C160.569,226.198 160.809,226.199 161.059,226.2ZM174.396,175.413C172.479,176.808 171.376,179.221 170.666,181.696C172.284,181.664 174.034,181.701 175.348,181.847C175.954,180.271 176.494,178.628 176.984,176.937C176.634,176.61 176.174,176.452 175.729,176.175C175.312,175.916 174.848,175.506 174.396,175.413ZM175.12,66.191C178.576,66.809 181.858,67.6 185.397,68.132C185.425,67.955 185.459,67.787 185.474,67.6C183.632,67.007 181.678,66.523 179.726,66.038C178.529,65.435 178.052,64.109 177.936,62.422C177.898,62.422 177.891,62.391 177.861,62.384C177.799,62.391 177.775,62.463 177.747,62.498C177.297,63.067 176.837,63.684 176.376,64.288C175.916,64.891 175.454,65.524 175.12,66.191ZM163.699,246.871C163.439,247.033 163.182,247.09 162.927,247.09C162.381,247.09 161.854,246.831 161.376,246.794C160.751,246.746 160.195,247.2 159.969,247.481C159.874,247.596 159.518,248.021 159.55,248.355C159.59,248.813 160.225,249.054 160.539,249.345C161.633,249.547 162.558,249.915 163.24,250.526C163.647,250.387 163.928,250.513 164.189,250.641C164.471,250.777 164.734,250.914 165.107,250.716C165.323,249.192 165.355,247.284 165.564,245.88C165.167,245.831 164.709,246.039 164.269,246.07C164.009,246.325 164.016,246.671 163.699,246.871ZM262.414,231.757C261.165,233.121 259.19,233.901 256.78,233.901C256.148,233.901 255.487,233.847 254.8,233.737C254.284,237.635 253.719,241.579 254.001,245.843C254.402,251.945 254.82,258.7 253.925,264.421C253.038,270.09 252.218,275.815 251.259,281.287C257.33,281.986 262.653,280.819 266.716,278.774C269.707,277.267 271.959,274.762 273.416,271.654C273.908,270.605 274.381,269.325 274.558,268.152C274.835,266.329 274.701,264.276 274.596,262.327C274.496,260.434 274.16,258.563 273.912,256.883C273.657,255.165 273.221,253.473 272.807,251.859C271.963,248.569 270.885,245.633 269.611,242.798C268.976,241.39 268.366,239.981 267.668,238.61C266.676,236.66 265.518,234.631 264.394,232.708C264.055,232.128 263.439,230.99 263.099,230.882C262.923,231.172 262.683,231.465 262.414,231.757ZM179.042,253.152C178.82,253.333 178.446,253.461 178.118,253.461C178.013,253.461 177.912,253.448 177.824,253.419C177.353,253.267 177.193,252.592 176.796,252.428C176.123,252.604 175.502,252.954 174.778,253.19C172.558,253.915 169.853,254.043 167.048,254.143C166.871,259.441 167.998,264.163 169.676,267.848C170.242,269.091 170.918,270.366 171.693,271.313C173.193,273.142 175.372,274.156 177.709,275.12C178.209,272.639 178.612,270.092 178.965,267.391C179.196,265.614 179.231,263.76 179.231,261.871C179.231,258.16 179.502,254.368 179.689,250.754C179.65,250.754 179.643,250.722 179.614,250.716C179.387,250.929 178.651,251.105 178.585,251.478C178.498,251.947 179.243,252.565 179.042,253.152ZM180.411,242.645C176.181,242.994 171.996,243.391 167.849,243.826C167.189,246.009 167.264,249.129 167.048,251.629C167.703,252.193 168.208,253.001 169.104,253.19C170.172,253.416 170.893,252.835 171.579,252.428C172.884,251.658 174.614,250.712 176.034,250.297C176.186,249.961 176.242,249.681 176.566,249.574C176.647,249.547 176.76,249.553 176.878,249.557C177.004,249.563 177.138,249.569 177.253,249.535C177.439,249.482 177.662,249.231 177.898,249.079C178.138,248.926 178.379,248.795 178.585,248.66C178.833,248.497 179.763,247.962 179.879,247.745C180.018,247.485 180.005,246.825 180.03,246.49C180.133,245.182 180.348,243.87 180.411,242.645ZM163.547,185.426C163.494,185.7 163.297,185.96 163.432,186.265C163.635,186.028 163.671,185.703 163.776,185.426C164.543,183.367 165.346,181.367 166.287,179.488C167.362,177.34 168.583,175.338 169.79,173.358C168.773,172.776 167.723,172.227 166.593,171.759C166.537,171.78 166.498,171.818 166.478,171.873C165.854,173.794 165.457,175.852 164.993,177.926C164.442,180.392 164.034,182.918 163.547,185.426ZM168.8,76.432L168.724,76.432C167.663,77.665 166.493,79.581 166.327,81.684C166.239,82.769 166.552,83.862 167.01,84.845C167.268,85.198 167.474,85.802 167.849,85.911C167.782,84.542 168.142,83.159 168.001,81.952C167.969,81.679 167.849,81.464 167.887,81.191C167.965,80.622 168.555,80.049 168.724,79.402C168.975,78.446 168.722,77.535 168.8,76.432ZM253.658,200.654C253.759,200.664 253.859,200.669 253.958,200.669C254.316,200.669 254.663,200.612 255.029,200.578C255.211,200.561 255.407,200.564 255.604,200.569C255.918,200.573 256.236,200.579 256.514,200.501C256.743,200.439 256.894,200.089 257.161,200.006C257.749,199.823 258.114,200.121 258.568,200.387C259.147,200.063 259.078,199.146 258.874,198.446C258.55,197.332 257.468,195.665 256.4,195.4L256.362,195.4C255.679,196.218 254.227,196.374 252.859,196.391C253.291,197.645 253.643,198.982 253.658,200.654ZM387.992,34.617C387.77,34.259 388.102,36.194 388.34,36.537C389.235,37.835 391.354,37.837 391.564,39.916C391.542,40.143 391.388,40.02 391.222,39.898C391.047,39.768 390.859,39.639 390.797,39.916C391.83,42.328 393.818,45.197 392.945,48.515C392.626,48.515 392.306,47.269 392.179,48.055C392.141,49.62 391.903,50.915 391.564,52.354C391.28,53.563 390.551,54.92 390.49,56.039C390.444,56.858 391.196,57.8 391.105,58.651C391.027,59.363 389.982,60.474 389.568,61.568C388.678,63.92 388.444,65.799 386.342,66.79C385.308,72.613 381.938,76.101 377.438,78.46C377.086,79.692 376.846,80.712 376.209,81.838C375.295,83.449 373.307,84.752 372.984,86.291C372.71,87.593 373.12,92.795 373.599,93.969C374.031,95.035 375.359,95.738 375.901,96.732C376.919,98.605 377.907,101.123 378.205,103.797C378.32,104.84 378.139,105.897 378.205,106.868C378.403,109.848 378.851,112.89 378.82,115.62C378.788,118.082 378.101,120.684 377.59,123.146C377.084,125.579 375.974,128.267 376.055,130.362C376.077,130.949 376.619,132.091 376.67,133.28C376.782,135.82 376.592,136.58 378.051,138.04C378.372,138.36 378.778,139.033 378.972,139.115C379.314,139.26 379.681,139.228 380.03,139.196C380.372,139.166 380.699,139.135 380.969,139.269C381.889,139.726 382.333,141.28 382.966,141.573C383.463,141.628 384.042,141.599 384.622,141.572C385.763,141.516 386.904,141.46 387.419,142.033C388.034,144.3 385.566,144.256 385.576,145.411L387.419,145.411C387.492,144.101 387.982,143.764 388.8,143.722C390.39,143.638 390.1,145.268 390.949,146.026C390.401,147.932 391.18,149.823 390.797,151.707C390.629,152.538 389.61,153.157 389.415,154.01C389.214,154.876 389.522,155.901 389.415,156.774C389.063,159.61 388.477,162.551 388.491,165.833C388.728,166.214 389.753,165.802 389.722,166.448C389.719,168.339 389.83,170.344 389.107,171.515C388.736,171.705 388.157,171.686 387.578,171.666C386.992,171.646 386.407,171.627 386.037,171.823C385.893,173.062 385.625,174.176 384.961,174.894C384.637,175.225 384.372,175.048 384.139,174.87C383.934,174.715 383.753,174.56 383.578,174.74C383.093,176.522 381.576,177.507 380.048,177.812C381.705,184.465 383.457,191.916 384.502,199.771C385.541,207.595 387.068,215.727 386.037,223.88C385.025,231.864 383.062,238.316 379.279,243.381C375.497,248.446 370.89,252.061 364.692,255.052C363.082,265.394 362.643,276.218 357.934,284.227C356.565,286.557 354.572,289.84 354.404,292.521C354.273,294.593 355.057,297.248 354.864,299.737C354.795,300.64 354.428,301.561 354.404,302.348C354.364,303.653 354.783,305.03 354.864,306.494C355.107,310.874 354.042,316.133 354.556,319.546C354.936,322.049 357.007,324.572 358.089,327.377C359.781,331.772 361.506,337.892 359.317,342.887C359.073,343.204 358.381,343.076 358.089,343.347C360.526,343.881 360.37,347.004 363.001,347.341C363.073,349.543 365.673,349.553 366.688,350.873C367.16,351.487 366.799,352.21 367.609,352.715C371.763,355.662 380.829,352.501 380.663,359.931C382.643,359.977 382.53,362.659 382.197,364.54C376.015,367.203 367.709,369.65 358.702,370.683C355.991,370.991 351.707,371.608 349.643,370.527C348.117,369.729 347.156,367.592 345.036,367.149C343.098,367.562 340.873,368.671 338.433,368.838C335.944,369.007 332.286,368.656 331.523,366.996C330.874,365.58 330.696,361.886 331.064,359.931C331.197,359.21 331.636,358.92 331.676,358.244C331.719,357.544 331.344,357.041 331.523,356.245C328.299,355.644 323.09,354.874 319.7,355.938C319.138,356.798 319.938,358.653 319.086,359.471C317.184,359.736 314.663,360.106 312.175,360.239C309.75,360.367 306.749,360.912 305.111,360.085C304.507,359.781 304.355,359.03 303.729,358.395C302.988,357.646 302.457,357.632 302.193,356.86C301.63,355.215 301.986,352.658 302.807,350.873C301.979,347.881 303.443,345.204 303.268,342.58C303.096,339.998 303.733,336.857 304.65,334.286C305.431,332.104 306.931,330.06 307.26,328.147C307.476,326.897 307.102,325.655 307.26,324.307C307.47,322.523 308.321,320.756 308.644,318.932C309.644,313.27 311.552,308.764 314.784,304.958C315.157,303.166 315.036,301.945 315.707,300.351C316.321,298.889 318.009,298.165 318.317,297.125C318.535,296.387 318.23,295.368 318.317,294.363C318.457,292.756 318.92,291.303 318.778,289.909C318.472,286.909 317.002,283.813 316.168,280.542C313.872,271.544 311.873,260.291 310.025,251.059C300.048,253.019 293.992,248.402 293.44,239.541C292.981,232.149 295.218,222.486 296.818,217.122C292.324,214.183 297.275,203.135 295.283,198.542C294.968,197.816 294.407,197.766 294.209,197.008C294.518,193.863 293.484,191.333 292.979,188.253C291.885,181.572 291.94,174.314 291.138,167.37C289.5,168.19 287.797,168.944 286.223,169.827C284.554,174.071 279.422,170.678 276.396,169.213C274.266,168.182 272.108,167.404 271.02,166.296C271.009,165.618 271.911,165.852 271.635,164.913C270.272,163.921 269.439,162.4 268.718,160.767C265.828,159.797 263.424,157.944 260.426,157.542C260.059,157.19 260.263,156.271 259.965,155.854L259.965,155.085C260.487,151.665 261.917,148.12 263.65,146.332C264.161,145.807 265.244,145.492 265.647,144.643C266.286,143.291 266.017,141.539 266.721,139.883C265.805,139.366 265.657,138.081 265.8,136.504C264.571,135.597 263.011,135.665 262.267,134.048C261.206,131.736 262.823,127.487 264.725,127.137C265.883,126.925 267.124,127.664 268.41,127.905C269.698,126.804 270.9,125.369 273.017,126.677C275.042,124.043 277.147,121.491 279.621,119.306C279.296,118.3 278.954,117.311 277.931,117.002C278.16,116.515 278.499,116.137 278.546,115.467C277.511,111.795 275.467,107.836 275.781,103.028C275.972,100.111 277.028,96.612 277.778,93.201C278.895,88.118 279.103,83.501 281.309,79.996C282.622,77.911 283.742,75.645 286.07,74.774C286.972,74.996 287.568,75.529 288.527,75.695C290.572,73.611 289.307,69.077 290.37,65.867C291.442,62.626 293.801,60.987 294.976,58.037C291.388,56.949 286.309,55.945 287.759,50.819C286.299,51.989 285.716,54.315 284.842,56.193C282.687,60.815 280.41,65.581 278.238,70.321C277.875,71.112 277.603,72.803 276.242,72.47C276.464,70.47 277.556,68.572 278.393,66.79C280.879,61.485 283.566,55.861 286.07,50.359C285.41,49.842 284.424,49.65 284.072,48.824C285.912,45.288 287.637,41.636 289.294,37.919C290.86,38.619 290.658,36.625 291.752,36.384C292.81,36.912 293.884,37.427 294.362,38.534C297.223,40.186 300.172,38.99 303.268,37.919C304.719,37.418 307.488,36.497 307.721,38.534C307.957,40.594 304.564,42.407 304.19,44.216C305.454,44.488 306.274,45.205 307.569,45.444C307.747,45.618 307.808,45.312 307.923,45.004C308.028,44.73 308.175,44.455 308.49,44.523C309.195,44.599 309.999,45.337 310.639,45.291C311.317,45.242 311.273,44.62 312.02,44.677C313.645,45.305 315.259,45.942 316.627,46.827C317.045,47.231 315.985,47.732 316.474,48.209C317.57,48.651 318.272,49.398 318.472,50.359C320.821,51.76 324.49,52.486 327.223,54.044C328.157,54.575 328.927,55.609 329.988,56.193C331.804,57.196 334.128,57.476 335.977,58.497C338.238,59.748 340.688,62.149 342.58,64.025C344.085,65.518 344.184,66.434 343.502,68.939C344.455,70.661 348.12,73.723 349.029,70.169C350.786,68.853 351.822,66.82 354.556,66.482C355.297,66.971 355.463,68.034 356.707,68.017C357.412,68.318 357.844,69.6 358.549,69.4C359.353,67.269 360.364,65.525 359.317,62.95C358.893,61.906 358.094,60.891 357.627,59.726C356.965,58.065 356.232,55.978 356.555,53.889C356.642,53.312 356.978,52.891 357.013,52.354C357.11,50.916 356.371,49.463 357.322,47.901C357.305,47.201 356.302,47.486 356.555,46.52C357.434,43.613 359.074,41.464 360.854,39.456C360.748,37.572 361.275,35.826 362.388,34.695C363.057,34.016 364.14,34.077 364.999,33.62C365.758,33.215 366.479,32.508 366.688,31.931C366.91,31.044 365.741,31.547 365.46,31.164C366.313,30.408 367.303,30.749 368.282,31.091C368.837,31.286 369.39,31.479 369.913,31.471C371.501,31.447 373.726,29.949 376.055,29.78C377.073,29.709 378.093,29.754 379.071,29.799C381.209,29.898 383.157,29.998 384.502,28.86C384.196,29.22 384.146,29.836 384.193,30.549C385.976,30.664 385.923,31.741 386.804,33.159C387.126,33.676 387.759,34.212 387.992,34.617ZM363.311,246.452C363.464,248.179 364.375,249.84 364.537,251.519C376.421,245.397 383.488,234.636 382.658,216.354C382.014,202.164 379.173,188.547 375.748,177.351C375.54,177.333 375.304,177.343 375.067,177.353C374.608,177.373 374.148,177.391 373.905,177.197C374.257,175.516 372.179,176.263 372.675,174.434C371.178,174.449 370.536,173.603 369.913,172.744C369.206,174.756 366.374,172.909 364.844,172.899C364.856,168.405 364.684,163.728 365.305,159.845C365.103,159.18 364.371,159.039 364.537,158.003C362.574,157.614 361.305,156.526 360.7,154.778C358.852,154.783 357.581,154.212 355.938,154.01C354.858,155.541 352.985,156.277 351.024,156.928C353.279,160.048 353.512,165.191 354.556,169.52C354.329,169.751 354.309,170.194 354.249,170.595C356.17,175.738 355.878,183.094 356.092,189.943C355.205,190.898 353.026,190.562 351.794,191.171C353.895,194.034 354.61,197.901 355.324,201.767C356.042,205.652 357.511,209.558 357.782,213.591C358.222,220.148 359.398,226.805 361.161,232.784C361.395,233.589 361.867,234.314 362.081,235.088C362.775,237.588 363.28,240.359 363.462,242.922C363.555,244.215 363.206,245.293 363.311,246.452ZM288.989,51.28C287.828,56.004 292.844,55.793 295.59,57.115C296.031,56.43 296.548,55.821 296.972,55.119C294.526,53.623 291.926,52.282 288.989,51.28ZM299.122,57.422C299.941,57.882 300.475,58.628 301.271,59.111C301.577,58.496 301.887,57.883 302.193,57.268C301.265,57.021 300.646,56.462 299.583,56.347C299.543,56.82 299.25,57.037 299.122,57.422ZM300.966,247.681C302.237,248.263 303.691,248.453 305.241,248.453C306.626,248.453 308.088,248.301 309.563,248.143C308.451,243.416 307.433,238.985 306.646,234.32C306.384,232.762 306.366,230.859 305.878,229.409C305.565,228.471 304.745,227.399 304.19,226.337C302.611,223.314 301.122,218.868 299.89,216.048C298.22,224.442 291.809,243.481 300.966,247.681ZM296.358,59.111C295.236,59.939 294.666,61.383 293.901,62.643C292.536,64.889 290.756,66.922 291.138,70.321C292.811,66.618 295.1,62.719 296.358,59.111ZM305.878,38.841C302.592,39.498 299.752,41.344 296.051,40.683C298.302,41.504 300.361,42.517 302.502,43.448C303.5,41.882 305.507,40.527 305.878,38.841ZM296.512,184.876C296.515,184.939 296.545,184.97 296.578,184.97C296.631,184.97 296.691,184.89 296.666,184.722C297.078,178.225 297.352,171.589 298.047,165.373C298.798,164.692 299.756,164.215 300.811,163.838L300.811,161.534C299.108,161.753 298.725,160.652 297.586,160.307C297.151,161.724 294.982,162.375 294.669,163.992C294.439,165.179 294.969,167.418 295.13,169.213C295.593,174.401 296.271,180.179 296.512,184.876ZM301.578,209.291C302.539,211.557 303.154,214.166 304.19,216.354C303.9,212.19 303.907,207.733 302.502,204.683C302.216,206.241 301.907,207.775 301.578,209.291Z" style="fill:url(#_Linear1);"/>
    </g>
    <g transform="matrix(1,0,0,1,-6.83876,-9.99992)">
        <path d="M49.236,91.772C49.424,92.681 49.039,93.487 48.99,94.202C48.932,95.037 49.264,95.861 49.18,96.635C49.077,97.596 48.642,98.344 48.229,99.029C48.839,98.664 48.965,97.814 49.331,97.205C50.325,97.277 50.788,97.879 51.195,98.536C49.071,100.092 46.764,101.571 44.656,103.098C44.361,103.311 44.083,103.609 43.706,103.668C43.672,103.361 43.744,102.981 43.744,102.831C42.453,102.782 42.287,103.858 41.236,104.048C41.191,103.923 41.35,103.814 41.236,103.743C40.856,103.949 41.243,104.918 40.892,105.15C40.427,104.805 40.507,103.913 40.018,103.591C39.986,103.836 39.821,103.605 39.714,103.591C39.862,102.545 40.072,101.896 40.474,100.739C40.715,101.058 40.941,101.389 41.387,101.501C41.535,101.349 41.14,101.334 41.311,101.158C41.736,100.63 42.313,100.237 42.755,99.715C43.195,99.194 43.419,98.458 44.085,98.155C44.235,98.182 44.289,98.672 44.39,98.498C44.263,97.813 44.018,97.113 44.085,96.37C44.154,95.617 44.537,94.947 44.808,94.506C45.232,93.98 45.581,93.593 45.911,92.986C46.528,91.846 46.767,90.567 48.42,90.59C48.511,90.569 48.209,90.427 48.382,90.325C48.729,90.161 49.104,89.709 49.56,89.869C50.03,90.031 49.674,91.008 50.092,91.275C50.28,91.262 50.419,90.874 50.586,91.085C50.641,91.63 50.005,91.623 49.598,91.732C49.413,91.781 49.288,91.917 49.236,91.772ZM49.236,91.772C49.23,91.745 49.225,91.719 49.219,91.693C49.223,91.725 49.228,91.752 49.236,91.772ZM46.822,93.518C47.111,93.451 47.008,92.993 47.202,92.834C47.155,92.69 47.093,92.632 47.029,92.632C46.809,92.632 46.568,93.316 46.822,93.518ZM46.404,97.813C46.761,97.726 46.921,96.736 46.557,96.521C46.183,96.607 46.061,97.595 46.404,97.813ZM45.911,98.688C45.892,99.194 46.6,99.145 46.557,98.649C46.333,98.801 46.078,98.712 45.911,98.688ZM48.229,91.883C48.176,92.112 48.385,92.343 48.495,92.53C48.66,92.357 48.442,92.067 48.382,91.883L48.229,91.883ZM46.922,95.223C46.858,95.217 46.794,95.211 46.709,95.228C46.733,95.644 47.257,95.651 47.24,95.19C47.096,95.239 47.009,95.231 46.922,95.223ZM46.861,92.225C47.099,92.146 47.171,91.901 47.279,91.693C47.015,91.745 46.879,91.926 46.861,92.225ZM47.812,93.897C48.036,93.896 48.028,93.659 48.041,93.443C48.081,93.399 48.111,93.41 48.141,93.419C48.169,93.429 48.195,93.438 48.229,93.404C48.233,93.248 48.237,93.092 48.191,92.986C48.17,92.982 48.15,92.981 48.131,92.981C47.725,92.981 47.745,93.561 47.812,93.897ZM53.738,101.447C54.141,101.151 54.54,100.856 55.148,101.007C55.064,101.594 54.424,101.845 54.084,102.261C53.806,102.601 53.542,103.018 53.627,103.63C53.747,103.591 53.613,103.319 53.741,103.212C54.199,103.602 55.396,103.894 54.958,104.694C54.71,104.736 54.486,104.653 54.28,104.571C53.959,104.442 53.684,104.313 53.437,104.656C53.465,105.212 54.053,105.566 53.818,106.14C53.057,106.146 53.194,104.842 52.411,104.808C52.257,104.802 52.167,104.858 52.066,104.914C51.937,104.986 51.789,105.058 51.46,104.998C51.415,104.786 51.676,104.885 51.688,104.732C51.402,104.597 51.138,104.751 50.878,104.906C50.582,105.083 50.29,105.26 49.978,104.998C49.848,104.123 50.666,103.894 50.777,103.136C50.652,103.126 50.667,103.254 50.586,103.288C50.428,103.167 50.365,102.952 50.282,102.756C50.855,102.314 51.451,101.896 52.069,101.501C52.229,101.492 52.014,101.642 52.031,101.729C52.116,101.795 52.231,101.773 52.344,101.751C52.452,101.73 52.56,101.708 52.639,101.767C52.679,101.908 52.51,101.842 52.487,101.919C52.534,101.924 52.582,101.926 52.627,101.926C53.078,101.926 53.409,101.687 53.738,101.447ZM46.898,108.191C46.836,107.95 46.597,108.029 46.443,107.963C45.788,107.687 45.305,107.106 44.923,106.558C46.538,105.234 48.366,104.121 50.054,102.869C50.15,103.073 50.401,103.267 50.397,103.516C50.393,103.742 50.144,103.844 50.016,104.048C49.776,104.429 49.541,105.343 50.129,105.416C50.489,105.462 50.767,105.086 51.08,105.074C51.261,105.068 51.349,105.201 51.612,105.264C51.183,106.852 50.15,108.602 48.915,109.674C48.461,110.066 47.728,110.485 47.013,110.586C45.261,110.836 44.278,109.793 43.592,108.762C44.035,108.218 44.665,107.858 44.96,107.164C45.529,107.564 45.868,108.192 46.834,108.192C46.855,108.192 46.877,108.192 46.898,108.191Z" style="fill:white;"/>
    </g>
    <g transform="matrix(1,0,0,1,-6.83876,-9.99992)">
        <path d="M181.754,88.581C181.812,89.014 181.719,89.701 181.353,90.077C181.172,90.03 181.207,89.872 181.135,89.769C181.27,90.585 181.921,91.275 181.375,92.341C180.438,92.283 179.645,92.509 179.23,93.471C179.443,93.322 179.578,93.02 179.76,92.81C180.545,92.143 182.046,92.868 182.962,92.456C182.775,92.992 182.737,93.45 182.975,93.767C182.621,92.633 183.827,91.266 184.74,91.365C185.871,91.488 186.295,92.363 186.829,92.989C187.269,93.504 187.845,93.844 188.069,94.3C187.799,94.938 186.642,94.793 185.914,94.477C184.945,94.054 185.003,93.009 183.92,92.924C184.699,93.006 184.793,93.802 185.365,94.339C185.719,94.671 186.246,95.046 186.068,95.595C186.358,95.386 186.039,95.08 186.085,94.808C186.225,94.866 186.305,94.808 186.455,94.887C186.463,95.407 186.64,95.951 187.265,96.06C187.185,96.547 186.818,97.055 186.358,97.153C186.183,97.191 185.943,97.092 185.715,97.065C185.064,96.987 184.281,97.246 183.904,97.154C183.148,96.974 182.801,96.377 182.603,95.904C182.597,96.397 182.916,96.723 183.27,97.03C182.389,98.032 180.214,97.473 179.77,96.219C179.709,96.339 179.869,96.348 179.808,96.469C177.551,96.758 175.315,97.091 173.036,97.335C173.376,95.863 174.461,95.491 175.066,94.227C174.878,94.196 174.922,94.61 174.724,94.554C174.8,93.735 174.532,93.094 174.06,92.558C173.984,92.687 174.198,92.667 174.097,92.808C173.482,92.886 172.72,92.86 172.388,93.445C172.143,93.878 172.301,94.526 171.877,94.785C171.257,94.528 171.732,93.99 171.71,93.463C171.689,93.032 171.033,92.597 170.555,92.497C170.032,92.39 169.219,92.739 169.025,92.084C169.406,91.62 170.23,92.019 170.666,91.662C170.228,91.715 169.551,91.605 169.244,91.283C169.378,90.651 170.304,90.799 170.923,91.112C170.737,90.764 169.926,90.776 169.678,90.671C169.73,90.343 170.032,90.548 170.262,90.582C170.904,90.675 171.687,90.547 172.174,91.158C172.217,91.276 172.16,91.445 172.202,91.563C172.332,90.47 172.436,87.891 173.943,88.125C175.051,88.297 175.525,89.402 175.693,90.192C175.232,90.792 175.193,91.549 175.391,92.115C175.514,92.476 175.804,92.767 175.818,93.124C175.885,93.176 175.948,93.047 175.989,93.056C175.999,93.074 176.01,93.092 176.02,93.11C176.012,93.074 176.001,93.059 175.989,93.056C175.604,92.378 175.125,91.453 175.802,90.347C176.289,89.549 177.197,89.543 177.635,88.958C177.834,88.693 177.847,88.341 177.995,88.084C178.451,87.3 179.307,87.257 180.181,87.323C180.283,87.181 179.967,87.253 180.001,87.146C180.384,86.219 181.562,86.378 181.776,87.164C181.898,87.607 181.743,88.089 182.122,88.304C182.387,88.456 182.624,88.343 182.827,88.453C182.636,89.13 181.944,89.042 181.754,88.581C181.743,88.5 181.726,88.428 181.706,88.369C181.71,88.446 181.727,88.517 181.754,88.581ZM179.771,89.211C179.648,89.244 179.562,89.348 179.391,89.286C179.335,89.404 179.463,89.428 179.477,89.511C179.661,89.56 179.761,89.445 179.927,89.459C180.059,89.534 180.076,89.715 179.968,89.829C180.308,89.743 180.041,89.274 179.771,89.211ZM176.809,91.879C176.79,91.864 176.769,91.851 176.746,91.839C176.767,91.853 176.788,91.866 176.809,91.879ZM176.809,91.879C177.093,92.106 176.863,92.646 177.137,92.836C177.639,93.184 177.963,92.689 178.179,92.182C178.652,92.052 179.047,91.772 179.558,91.716C179.64,91.854 179.648,92.029 179.539,92.264C179.892,92.184 179.788,91.669 179.485,91.573C178.749,91.899 177.754,92.46 176.809,91.879ZM178.005,89.037C178.235,89.164 178.41,88.707 178.767,88.887C178.581,88.613 178.137,88.82 178.005,89.037ZM178.105,89.466C178.19,89.483 178.237,89.517 178.225,89.584C178.109,89.648 177.95,89.874 177.993,90.063C178.052,90.082 178.112,90.102 178.171,90.121C178.445,89.978 178.384,89.317 178.105,89.466ZM177.094,93.218C177.275,93.532 177.961,93.413 177.832,93.139C177.704,93.398 177.299,93.289 177.094,93.218ZM177.56,91.033C177.54,91.385 178.22,91.5 178.229,91.168C178.039,91.487 177.644,91.121 177.56,91.033ZM179.212,90.456C179.602,90.644 179.744,89.906 179.373,89.953C179.432,90.089 179.125,90.258 179.212,90.456ZM188.858,93.207C188.762,93.216 188.661,93.213 188.548,93.186C189.043,93.609 189.88,93.215 190.115,93.851C190.294,94.33 189.869,94.906 189.509,95.119C189.251,95.273 188.639,95.403 188.273,95.513C187.823,95.65 187.275,95.928 186.989,95.812C186.737,95.711 186.576,95.275 186.718,95.052C186.974,94.654 188.059,95.185 188.202,94.382C188.249,94.119 188.135,94.126 187.97,93.872C188.018,93.615 188.218,93.654 188.324,93.51C188.065,93.397 187.886,93.745 187.755,93.683C186.794,92.81 186.259,91.298 184.403,91.178C184.969,89.957 184.86,88.677 185.4,87.222C185.692,86.437 186.215,85.351 186.764,85.207C187.359,85.05 187.977,85.516 188.106,85.956C188.293,86.599 187.953,87.67 187.631,88.535C187.222,89.635 186.406,90.523 186.359,91.254C186.311,92.025 187.115,91.928 187.565,91.564C188.777,90.585 189.754,88.032 191.159,87.296C191.393,87.173 191.8,86.995 192.182,87.191C192.626,87.417 192.635,88.142 192.353,88.75C192.02,89.468 191.386,90.044 190.858,90.565C190.281,91.134 189.631,91.539 189.192,92.048C188.88,92.408 188.764,92.768 188.858,93.207ZM175.548,103.056C175.537,102.902 175.169,102.671 175.161,102.415C175.515,102.538 175.775,102.683 176.104,102.68C174.797,102.25 173.877,101.369 173.388,100.419C175.898,100.077 178.422,99.763 180.923,99.402C180.874,100.248 180.89,101.054 180.662,101.931C180.035,104.351 177.675,104.537 176.666,106.346C176.172,106.072 175.689,106.3 175.297,106.419C175.856,106.298 176.705,106.308 177.185,106.829C177.162,107.02 176.982,106.903 176.924,107.022C177.534,106.9 178.302,107.33 178.124,107.963C177.895,107.9 177.848,107.84 177.659,107.814C177.967,108.072 178.739,108.354 178.336,108.785C177.693,108.763 177.479,108.328 176.983,108.19C176.365,108.019 175.817,108.282 175.049,107.923C174.926,107.866 174.788,107.701 174.629,107.629C174.025,107.361 173.338,107.567 172.978,107.098C172.381,106.32 173.416,105.152 173.954,104.561C174.423,104.048 175.015,103.59 175.175,102.737C175.302,102.842 175.415,102.954 175.548,103.056ZM173.35,106.069C173.47,106.17 173.74,106.259 173.84,106.147C173.476,106.156 173.419,105.876 173.416,105.615C173.353,105.788 173.297,105.956 173.35,106.069Z" style="fill:white;"/>
    </g>
    <g transform="matrix(1,0,0,1,-6.83876,-9.99992)">
        <path d="M332.368,98.872C333.164,98.556 333.751,97.92 334.107,96.93C335.748,97.026 336.783,97.904 337.661,98.647C333.585,100.209 329.438,101.665 325.351,103.212C325.26,102.938 325.219,102.631 325.174,102.328C325.271,102.333 325.42,102.422 325.454,102.332C325.316,102.119 325.012,102.178 324.839,102.172C323.355,102.126 322.486,103.144 321.047,103.167C321.094,102.99 321.182,102.875 321.273,102.765C320.463,102.895 321.224,103.907 320.773,104.322C320.235,104.209 319.985,103.647 319.753,103.286C319.529,102.94 319.348,102.619 318.98,102.416C318.914,102.424 319.04,102.566 318.938,102.606C318.201,102.316 317.937,101.72 317.251,101.399C317.117,101.402 317.299,101.524 317.183,101.582C316.826,101.554 316.303,101.911 316.07,101.514C316.244,100.981 316.79,101.023 316.985,100.525C317.189,100.633 317.312,100.794 317.461,100.937C317.489,100.575 316.985,100.205 316.603,100.076C316.201,99.943 315.73,100.031 315.476,99.808C315.728,99.267 316.475,99.176 316.969,98.886C317.189,98.968 317.147,99.219 317.326,99.329C317.312,98.768 316.995,98.342 316.482,97.992C316.28,97.854 315.842,97.699 315.889,97.471C315.928,97.283 316.244,97.271 316.459,97.31C317.47,97.496 318.158,98.273 318.835,98.86C319.179,99.159 319.518,99.476 319.863,99.729C320.239,100.004 320.671,100.303 321.176,100.319C321.076,100.221 320.952,100.137 320.804,100.07C321.605,99.433 322.608,99.129 323.426,98.486C324.06,97.991 324.539,97.224 325.419,97.079C325.644,97.289 325.742,97.582 325.94,97.81C325.817,96.811 324.878,96.059 325.265,94.762C325.587,93.68 326.548,93.153 327.327,92.494C328.294,91.678 328.678,90.312 329.671,89.837C330.347,89.513 331.293,89.556 332.215,89.674C332.102,89.553 331.844,89.527 331.703,89.424C332.113,89.173 332.934,88.865 333.561,88.917C334.812,89.024 334.089,90.394 335.214,90.681C335.281,90.641 335.063,90.499 335.185,90.421C335.432,90.492 335.532,90.335 335.781,90.406C335.936,91.515 334.149,90.628 333.785,91.305C333.667,91.119 333.58,90.912 333.392,90.771C333.559,91.201 333.803,91.757 333.701,92.359C333.641,92.714 333.446,93.061 333.4,93.508C333.294,94.525 334.052,95.413 333.919,96.495C333.79,97.537 333.129,98.22 332.407,98.823C332.407,98.847 332.391,98.846 332.374,98.844C332.372,98.853 332.37,98.862 332.368,98.872ZM328.561,97.946C328.529,98.562 329.74,98.671 329.669,98.041C329.388,98.25 328.853,98.238 328.561,97.946ZM330.001,94.503C329.856,94.48 329.808,94.316 329.641,94.342C329.549,94.768 330.431,95.07 330.478,94.38C330.279,94.355 330.19,94.535 330.001,94.503ZM329.994,91.626C329.472,91.344 329.198,92.404 329.577,92.524C329.96,92.645 329.86,92.047 329.953,91.815C330.089,91.834 329.983,92.013 330.102,92.044C330.146,91.81 330.095,91.68 329.994,91.626ZM329.584,91.171C329.824,91.028 330.004,90.793 330.233,90.634C329.9,90.512 329.341,90.956 329.584,91.171ZM331.77,91.102C332.019,91.289 332.07,91.603 332.395,91.742C332.39,91.432 332.097,90.763 331.77,91.102ZM331.799,92.152C331.396,91.951 331.108,92.584 331.187,93.037C331.625,93.334 331.608,92.637 331.796,92.433C331.905,92.477 331.761,92.687 331.905,92.71C331.995,92.52 331.94,92.222 331.799,92.152ZM329.329,97.124C329.867,97.164 330.134,95.735 329.389,95.783C328.839,95.817 328.701,97.077 329.329,97.124ZM342.402,104.706C342.421,104.591 342.27,104.379 342.404,104.17C342.596,104.182 342.706,104.345 342.908,104.447C343.403,104.693 344.101,104.879 344.501,105.182C344.6,105.257 344.967,105.613 344.898,105.83C344.832,106.043 344.445,106.058 344.263,106.033C343.564,105.942 342.572,105.172 342.07,105.734C342.291,105.873 342.259,106.118 342.399,106.311C342.617,106.618 343.111,106.828 342.963,107.363C341.897,107.514 341.599,106.155 340.668,105.83C339.898,105.562 339.369,106.118 338.556,105.69C338.673,105.573 338.947,105.693 339.06,105.571C338.967,105.317 338.647,105.406 338.499,105.424C337.813,105.509 337.277,105.948 336.333,105.667C336.219,105.529 336.092,105.45 336.11,105.253C336.179,104.511 337.285,104.341 337.338,103.597C337.161,103.554 337.202,103.841 337.059,103.849C336.717,103.72 336.66,103.118 336.287,103.233C336.26,103.531 336.657,103.751 336.831,103.996C336.755,104.204 336.52,104.324 336.33,104.482C335.89,104.852 335.507,105.779 336.405,105.992C337.059,106.149 337.547,105.796 338.122,105.737C338.348,105.886 338.653,105.982 339.016,106.042C338.315,107.912 337.03,109.155 335.541,110.038C334.072,110.909 332.303,111.359 330.12,110.996C328.107,110.661 326.663,109.662 325.619,108.57C326.379,108.094 327.313,107.885 327.834,107.04C328.65,107.559 329.658,108.388 330.925,108.546C331.042,108.56 331.188,108.574 331.298,108.513C331.154,108.355 330.893,108.357 330.696,108.299C329.391,107.92 328.459,107.119 327.598,106.426C329.577,105.662 331.584,104.907 333.604,104.182C335.611,103.463 337.595,102.654 339.591,102.02C339.61,102.264 339.385,102.131 339.34,102.275C339.614,102.542 340.261,102.215 340.62,102.492C340.423,102.548 340.184,102.539 339.979,102.582C340.782,102.808 341.437,102.484 342.104,102.273C342.743,102.072 343.488,101.766 344.171,101.84C344.443,101.87 344.646,101.966 344.642,102.139C344.633,102.503 343.718,102.778 343.426,102.95C343.023,103.188 342.517,103.568 342.315,103.925C342.169,104.182 342.07,104.561 342.402,104.706Z" style="fill:white;"/>
    </g>
    <defs>
        <linearGradient id="_Linear1" x1="0" y1="0" x2="1" y2="0" gradientUnits="userSpaceOnUse" gradientTransform="matrix(2.32683e-14,-380,380,2.32683e-14,227.129,390)"><stop offset="0" style="stop-color:rgb(0,34,83);stop-opacity:1"/><stop offset="1" style="stop-color:rgb(0,94,173);stop-opacity:1"/></linearGradient>
    </defs>
</svg>
