<?xml version="1.0" encoding="UTF-8" standalone="no"?>
<!DOCTYPE svg PUBLIC "-//W3C//DTD SVG 1.1//EN" "http://www.w3.org/Graphics/SVG/1.1/DTD/svg11.dtd">
<svg width="100%" height="100%" viewBox="0 0 145 400" version="1.1" xmlns="http://www.w3.org/2000/svg" xmlns:xlink="http://www.w3.org/1999/xlink" xml:space="preserve" xmlns:serif="http://www.serif.com/" style="fill-rule:evenodd;clip-rule:evenodd;stroke-linejoin:round;stroke-miterlimit:2;">
    <g transform="matrix(0.503968,0,0,0.503968,71.53,158.566)">
        <path d="M0,164.9C-3.324,183.026 -5.599,203.368 -11.638,219.449C-13.805,225.219 -16.127,230.082 -16.486,236.42C-16.633,238.998 -16.346,240.855 -16.486,242.966C-16.732,246.628 -18.323,250.708 -17.697,254.601C-17.177,257.856 -13.656,259.969 -15.517,264.785C-16.526,267.394 -18.992,268.182 -20.608,270.602C-16.18,272.252 -15.755,281.856 -18.911,286.119C-21.022,288.971 -24.645,290.618 -27.638,291.21C-32.827,300.229 -31.053,316.339 -31.76,329.271C-32.057,334.702 -33.202,340.016 -30.306,343.817C-31.553,344.997 -32.414,346.558 -34.426,346.969C-32.468,351.823 -35.753,356.679 -35.396,362.001C-35.118,366.161 -31.959,371.294 -31.032,375.82C-30.731,377.29 -30.862,378.94 -30.547,380.426C-29.777,384.087 -28.598,387.788 -27.881,391.578C-27.129,395.568 -26.874,399.73 -25.94,403.215C-24.965,406.861 -22.597,410.248 -21.093,413.639C-19.474,417.29 -17.151,420.356 -15.76,423.581C-15.371,424.478 -15.422,425.616 -15.032,426.489C-13.466,429.992 -9.93,433.092 -8.729,436.427C-9.101,433.151 -9.611,429.211 -8.485,426.247C-7.64,424.021 -5.824,422.691 -4.848,420.671C-4.556,420.062 -4.822,419.281 -4.606,418.731C-4.086,417.394 -2.795,417.036 -2.425,415.821C-2.678,414.753 -3.707,413.536 -3.639,412.427C-3.541,410.926 -1.895,410.329 -1.456,408.792C-1.232,408.015 -1.471,406.274 -1.213,404.913C-0.958,403.56 -0.396,402.762 -0.486,401.762C-0.594,400.551 -1.948,399.387 -2.184,398.123C-2.578,395.989 -1.451,393.066 -0.971,390.124C0.604,380.487 0.192,369.226 -0.486,358.606C-0.94,357.847 -2.363,358.061 -2.668,357.152C-0.955,351.741 -2.304,343.675 -2.668,336.061C-3.032,328.398 -3.606,321.649 -3.639,313.758C-4.025,312.771 -5.592,312.965 -6.547,312.544C-6.902,310.997 -9.283,309.388 -9.941,307.21C-10.282,306.079 -10.078,304.442 -10.426,302.846C-11.746,296.781 -17.433,288.67 -10.183,284.907C-14.528,274.819 -9.619,266.519 -6.063,257.269C-3.305,250.1 -1.814,241.422 3.635,237.875C5.778,236.478 9.183,235.817 11.15,234.963C11.513,226.855 7.724,219.901 9.212,212.663C9.81,209.757 12.23,206.554 13.575,203.692C15.106,200.435 15.971,197.383 17.452,194.477C14.949,185.831 13.468,176.161 14.062,164.417C9.581,164.788 4.956,165.009 0,164.9M75.884,-286.271C76.582,-282.152 76.967,-277.35 77.336,-272.695C77.718,-267.925 78.348,-262.875 78.063,-258.391C77.489,-249.342 75.322,-239.993 75.155,-231.723C74.298,-230.959 73.802,-229.881 73.214,-228.814C72.189,-226.948 70.848,-225.946 70.792,-222.996C69.105,-220.962 66.69,-219.662 64.245,-218.389C63.785,-216.262 63.381,-214.079 62.79,-212.085C64.533,-210.156 67.607,-208.237 70.064,-205.54C73.112,-202.19 77.326,-198.344 74.67,-192.933C74.907,-191.936 77.13,-193.528 78.063,-192.69C78.883,-190.317 75.342,-190.475 75.397,-188.084C79.065,-188.562 80.809,-185.119 83.641,-183.963C84.499,-177.712 92.335,-178.435 94.064,-173.054C94.956,-172.975 96.209,-173.26 96.731,-172.81C104.176,-168.051 108.173,-159.847 114.913,-154.386C115.641,-151.735 117.742,-148.026 119.279,-143.961C120.49,-140.753 123.822,-131.822 120.49,-129.657C120.689,-118.07 122.699,-107.446 119.034,-99.595C117.947,-97.261 115.171,-92.736 116.613,-87.958C117.057,-86.478 119.097,-86.003 119.521,-84.079C120.565,-79.339 118.353,-73.494 117.582,-68.805C117.321,-67.219 116.672,-65.294 116.854,-63.957C117.145,-61.803 120.627,-57.791 121.945,-55.714C133.939,-36.825 143.012,-14.766 144.735,14.835L144.735,28.653C141.021,75.339 121.916,107.015 94.551,130.475C92.795,131.98 89.711,134.111 89.215,135.324C88.475,137.143 88.579,140.93 88.246,144.052C87.267,153.254 86.666,162.692 86.065,171.69C85.795,175.691 84.44,179.339 84.124,183.083C83.951,185.135 83.771,187.064 83.396,188.903C83.015,190.782 82.12,192.521 81.944,194.236C81.751,196.07 82.44,197.86 82.672,199.569C83.596,206.418 82.375,214.909 81.944,221.872C81.51,228.812 81.216,235.422 80.002,241.269C77.594,252.879 70.385,259.901 62.549,266.239C62.15,268.348 61.181,269.882 60.606,271.815C63.534,277.013 70.123,277.629 68.367,286.119C66.354,295.849 59.928,308.403 52.607,312.057C51.158,322.349 50.35,334.745 49.7,346.485C49.478,350.466 50.574,356.371 48.485,358.122C51.148,362.307 47.996,366.96 48.244,370.971C48.313,372.073 49.044,372.819 48.972,373.881C48.867,375.385 47.483,376.56 47.517,378.002C47.543,379.13 48.6,380.1 48.972,381.397C49.383,382.835 48.842,382.934 49.455,383.822C50.613,385.495 48.564,386.684 48.485,388.427C50.637,390.338 49.243,393.213 50.91,395.215C49.909,396.85 50.897,398.996 50.669,401.274C51.87,402.227 51.733,403.254 51.396,404.183C53.473,406.308 56.782,407.206 57.216,410.973C58.463,410.797 59.305,411.652 60.365,412.184C62.734,413.374 63.975,413.643 64.974,416.307C66.938,417.331 69.216,418.043 71.034,419.217C71.351,420.11 71.582,421.092 71.517,422.368C76.925,425.914 81.167,428.934 88.732,430.126C97.759,431.547 109.244,429.176 117.338,430.126C117.978,430.201 118.966,430.381 119.521,430.61C122.06,431.655 122.275,434.003 123.643,436.184C124.72,437.906 125.846,438.549 126.309,440.065C128.346,446.756 120.646,449.752 116.127,451.701C106.199,455.986 94.392,457.797 80.729,458.006C62.099,458.291 49.671,450.665 31.516,451.701C31.764,453.87 32.005,457.096 31.516,459.218L18.667,459.218C18.722,460.485 18.663,461.637 18.425,462.613C19.675,464.137 21.564,466.508 20.605,468.915C19.959,470.546 16.311,471.472 13.816,472.309C5.739,475.021 -3.466,476.583 -11.88,477.643C-17.975,478.411 -24.867,479.536 -30.79,478.856C-36.656,478.18 -42.733,476.635 -46.79,474.25C-50.691,471.955 -52.436,466.913 -55.034,463.097C-55.553,462.333 -57.656,459.795 -59.398,459.704C-61.496,459.592 -63.351,461.411 -64.973,461.401C-67.219,461.384 -70.749,459.487 -72.73,458.491C-75.178,457.26 -77.802,456.234 -78.791,453.641C-79.643,451.421 -79.124,449.193 -79.036,447.096C-78.706,439.296 -78.37,430.777 -76.368,424.308C-75.671,422.055 -74.122,419.361 -74.187,418.004C-74.272,416.171 -76.621,414.103 -76.611,412.184C-76.6,409.642 -74.728,408.312 -73.943,406.124C-77.864,399.463 -72.49,390.741 -74.428,384.062C-74.995,382.112 -76.221,380.648 -76.854,378.486C-78.203,373.87 -77.668,368.426 -79.036,363.458C-80.158,359.363 -81.095,355.207 -81.216,350.607C-82.33,349.78 -83.05,348.562 -82.671,346.242C-83.947,345.984 -83.991,344.491 -84.61,343.576C-87.928,343.121 -90.052,343.812 -92.126,342.848C-97.374,340.412 -94.884,331.701 -90.188,330.727C-87.986,330.27 -85.783,331.661 -84.125,330.243C-84.163,327.129 -84.654,324.465 -84.854,321.514C-86.379,321.261 -86.566,319.671 -87.278,318.604C-91.598,317.296 -98.79,319.102 -101.096,315.697C-102.215,314.042 -102.321,310.863 -100.854,308.664C-98.405,304.997 -91.401,305.798 -85.822,305.514C-86.005,302.34 -87.123,299.164 -87.763,296.784C-88.021,295.825 -87.926,294.485 -88.247,293.634C-88.915,291.873 -90.813,290.552 -91.398,288.785C-91.791,287.599 -91.508,285.992 -91.885,284.421C-93.255,278.703 -98.297,270.909 -91.642,267.693C-92.787,264.135 -94.228,259.692 -93.097,255.572C-91.705,250.511 -88.745,245.133 -86.55,238.842C-84.47,232.88 -82.641,226.115 -78.307,223.571C-76.267,222.372 -73.21,222.08 -71.761,220.903C-71.707,217.197 -72.619,214.09 -72.974,210.963C-73.348,207.687 -74.29,203.991 -73.701,200.538C-73.229,197.779 -70.846,194.854 -69.579,192.054C-68.26,189.135 -66.042,185.512 -65.942,182.843C-65.807,179.132 -68.419,174.548 -68.852,169.75C-69.627,161.184 -68.481,152.304 -70.308,145.507C-99.242,128.235 -120.695,104.716 -132.855,71.565C-139.125,54.474 -143.188,34.931 -141.582,12.41C-140.261,-6.169 -136.112,-21.854 -129.946,-35.592C-129.096,-37.486 -127.398,-40.229 -127.279,-41.653C-127.085,-43.982 -128.498,-47.273 -128.977,-50.381C-131.855,-69.088 -133.1,-92.845 -120.732,-101.292C-121.753,-103.199 -124.44,-104.25 -124.856,-106.626C-125.255,-108.908 -123.41,-111.709 -122.188,-114.141C-118.308,-121.86 -114.98,-132.398 -111.037,-138.142C-111.104,-141.917 -110.025,-144.127 -108.854,-147.84C-107.37,-152.551 -105.979,-156.68 -104.49,-161.174C-103.211,-165.038 -102.518,-168.635 -99.157,-169.175C-99.001,-178.138 -91.438,-182.926 -86.065,-187.357C-80.849,-196.767 -67.076,-197.621 -56.73,-201.903C-55.624,-201.959 -55.037,-201.496 -54.306,-201.176C-53.588,-202.539 -52.695,-202.423 -51.881,-202.631C-48.48,-203.498 -43.926,-203.925 -39.275,-205.055C-35.381,-206.002 -29.916,-208.493 -27.153,-208.206C-26.055,-208.093 -25.373,-206.811 -24.486,-206.995C-23.948,-207.106 -24.437,-207.672 -23.759,-208.206C-23.341,-208.538 -22.403,-208.621 -22.305,-208.691C-21.407,-209.34 -20.925,-210.128 -19.88,-210.389C-18.089,-210.838 -15.699,-210.106 -13.335,-210.389C-9.4,-210.86 -6.348,-213.191 -2.425,-211.6C-0.1,-213.154 2.319,-214.615 4.604,-216.207C5.276,-220.952 9.254,-222.388 10.667,-226.39C9.408,-231.243 3.462,-235.908 8.242,-240.208C4.056,-248.061 4.241,-260.289 4.121,-272.21C3.968,-273.171 5.041,-272.904 4.849,-273.907C5.472,-297.768 14.052,-313.673 37.579,-314.636L42.184,-314.636C61.442,-312.993 72.832,-304.229 75.884,-286.271" style="fill:url(#_Linear1);"/>
    </g>
    <g transform="matrix(0.503968,0,0,0.503968,92.5439,14.0502)">
        <path d="M0,-10.908C-1.155,-8.51 -1.729,-5.525 -2.666,-2.908L2.425,-2.908C1.642,-5.6 0.659,-8.091 0,-10.908M2.184,-16C5.095,-9.295 7.262,-1.845 9.941,5.092L5.092,5.092C4.605,3.559 4.178,1.966 3.395,0.729L-3.88,0.729C-4.448,2.097 -4.712,3.772 -5.332,5.092L-10.182,5.092C-7.816,-1.998 -5.159,-8.796 -2.907,-16L2.184,-16Z" style="fill:white;"/>
    </g>
    <g transform="matrix(0.503968,0,0,0.503968,111.295,86.7908)">
        <path d="M0,-12.278C-0.699,-12.433 -6.884,-13.655 -14.382,-15.093C-19.303,-25.676 -22.652,-31.611 -24.356,-31.843C-24.983,-31.929 -25.274,-31.11 -25.567,-29.548C-25.661,-29.048 -26.513,-24.524 -27.714,-18.111C-34.92,-19.441 -41.229,-20.041 -43.06,-20.187C-47.941,-20.578 -44.622,-17.941 -43.743,-16.672C-43.408,-16.188 -37.495,-10.796 -30.251,-4.342C-31.388,1.71 -32.393,7.029 -32.808,9.105C-33.32,11.668 -33.424,13.304 -32.888,13.773C-32.606,14.019 -30.964,13.627 -29.976,12.913C-29.269,12.403 -24.503,9.662 -19.138,5.785C-10.519,13.308 -4.589,19.651 -2.536,19.067C-1.504,18.774 -4.741,9.454 -9.173,-2.108C-4.601,-5.388 -0.768,-8.111 0.391,-8.861C3.711,-11.008 1.758,-11.887 0,-12.278" style="fill:white;fill-rule:nonzero;"/>
    </g>
    <g transform="matrix(0.503968,0,0,0.503968,74.584,211.971)">
        <path d="M0,-168.714C-26.817,-170.441 -48.346,-159.189 -62.306,-146.41C-76.145,-133.74 -87.749,-113.789 -89.216,-88.953C-90.855,-61.219 -79.695,-41.005 -66.669,-26.889C-52.947,-12.019 -34.663,-1.618 -9.212,0.022C17.209,1.722 38.458,-8.932 52.85,-22.04C67.259,-35.16 77.977,-53.579 79.765,-79.498C81.638,-106.698 70.555,-127.577 57.7,-141.561C48.014,-152.1 35.076,-161.089 18.667,-165.805C12.875,-167.47 6.19,-168.316 0,-168.714M25.697,-194.898C48.34,-188.894 65.953,-176.745 79.278,-162.653C97.202,-143.694 111.575,-116.07 109.825,-79.013C108.142,-43.424 93.306,-19.589 73.701,-0.706C54.756,17.543 26.311,31.797 -9.698,30.082C-44.901,28.407 -69.465,13.753 -88.246,-5.797C-105.893,-24.167 -121.013,-52.729 -119.278,-89.438C-117.62,-124.518 -101.738,-149.529 -83.155,-167.744C-64.972,-185.567 -35.971,-200.511 0.486,-198.776C9.223,-198.36 17.963,-196.948 25.697,-194.898" style="fill:white;"/>
    </g>
    <g transform="matrix(0.503968,0,0,0.503968,71.7744,191.822)">
        <path d="M0,-99.156C-4.616,-87.124 -9.092,-74.953 -13.335,-62.549C-26.035,-62.077 -39.243,-62.112 -52.124,-61.821C-52.24,-61.153 -51.382,-60.751 -50.911,-60.367C-41.749,-52.867 -30.95,-45.286 -21.82,-37.577C-25.66,-25.256 -29.491,-12.925 -33.213,-0.485C-22.316,-7.526 -11.796,-14.948 -0.971,-22.062C9.866,-15.039 20.623,-6.642 31.031,0C27.522,-12.331 24.112,-24.759 20.365,-36.85C29.931,-45.386 42.003,-52.71 51.154,-60.851C38.306,-61.175 25.842,-61.884 12.85,-62.064C8.209,-74.071 4.175,-86.683 0,-99.156" style="fill:white;"/>
    </g>
    <defs>
        <linearGradient id="_Linear1" x1="0" y1="0" x2="1" y2="0" gradientUnits="userSpaceOnUse" gradientTransform="matrix(4.86002e-14,-793.702,793.702,4.86002e-14,-10.3004,479.066)"><stop offset="0" style="stop-color:rgb(0,34,83);stop-opacity:1"/><stop offset="1" style="stop-color:rgb(0,94,173);stop-opacity:1"/></linearGradient>
    </defs>
</svg>
