<?xml version="1.0" encoding="UTF-8" standalone="no"?>
<!DOCTYPE svg PUBLIC "-//W3C//DTD SVG 1.1//EN" "http://www.w3.org/Graphics/SVG/1.1/DTD/svg11.dtd">
<svg width="100%" height="100%" viewBox="0 0 320 361" version="1.1" xmlns="http://www.w3.org/2000/svg" xmlns:xlink="http://www.w3.org/1999/xlink" xml:space="preserve" xmlns:serif="http://www.serif.com/" style="fill-rule:evenodd;clip-rule:evenodd;stroke-miterlimit:10;">
    <g transform="matrix(-1.53e-05,-360.865,-360.865,1.53e-05,159.794,360.866)">
        <path d="M1,-0.077C0.999,-0.074 0.999,-0.071 0.998,-0.068C0.997,-0.062 0.996,-0.056 0.994,-0.051C0.991,-0.047 0.988,-0.042 0.985,-0.039C0.983,-0.037 0.981,-0.035 0.98,-0.033C0.979,-0.031 0.979,-0.03 0.979,-0.028C0.98,-0.027 0.98,-0.026 0.981,-0.025C0.978,-0.024 0.977,-0.026 0.975,-0.026L0.974,-0.025C0.971,-0.024 0.969,-0.023 0.967,-0.022C0.966,-0.021 0.965,-0.02 0.965,-0.02C0.963,-0.018 0.962,-0.017 0.962,-0.014C0.963,-0.014 0.963,-0.013 0.963,-0.012C0.961,-0.012 0.958,-0.012 0.956,-0.013C0.955,-0.014 0.955,-0.015 0.954,-0.016C0.951,-0.015 0.949,-0.017 0.947,-0.016C0.946,-0.016 0.946,-0.014 0.944,-0.014C0.943,-0.015 0.943,-0.017 0.942,-0.017C0.94,-0.018 0.938,-0.017 0.936,-0.017C0.935,-0.018 0.934,-0.019 0.934,-0.019C0.933,-0.019 0.932,-0.018 0.931,-0.018C0.931,-0.019 0.93,-0.019 0.93,-0.02L0.928,-0.02C0.925,-0.021 0.924,-0.022 0.922,-0.024C0.922,-0.025 0.921,-0.026 0.921,-0.026L0.918,-0.026C0.915,-0.027 0.912,-0.027 0.909,-0.027C0.907,-0.028 0.906,-0.029 0.904,-0.03C0.903,-0.03 0.901,-0.031 0.899,-0.031C0.895,-0.031 0.89,-0.031 0.886,-0.032C0.883,-0.033 0.88,-0.035 0.877,-0.036C0.873,-0.038 0.862,-0.044 0.858,-0.046C0.855,-0.047 0.852,-0.048 0.848,-0.049C0.844,-0.05 0.842,-0.052 0.841,-0.056C0.84,-0.059 0.84,-0.064 0.84,-0.068L0.84,-0.065C0.839,-0.063 0.837,-0.061 0.834,-0.062C0.834,-0.061 0.835,-0.06 0.836,-0.058C0.836,-0.057 0.837,-0.056 0.837,-0.054L0.837,-0.044C0.837,-0.04 0.837,-0.037 0.835,-0.035C0.833,-0.033 0.831,-0.032 0.829,-0.03C0.829,-0.029 0.832,-0.028 0.832,-0.026C0.833,-0.023 0.834,-0.02 0.834,-0.017C0.833,-0.014 0.832,-0.012 0.83,-0.01C0.832,-0.008 0.833,-0.006 0.833,-0.003C0.833,-0.001 0.831,0.001 0.83,0.003C0.829,0.005 0.828,0.007 0.828,0.01C0.828,0.013 0.829,0.015 0.83,0.017C0.831,0.019 0.832,0.021 0.833,0.023C0.834,0.024 0.834,0.026 0.834,0.027C0.834,0.028 0.834,0.029 0.835,0.03C0.835,0.032 0.836,0.033 0.836,0.034C0.837,0.036 0.837,0.039 0.838,0.041L0.838,0.045C0.839,0.05 0.84,0.055 0.842,0.059C0.843,0.063 0.844,0.066 0.845,0.07C0.845,0.071 0.845,0.072 0.846,0.073C0.847,0.078 0.848,0.083 0.849,0.088C0.851,0.095 0.853,0.102 0.855,0.109C0.856,0.112 0.856,0.114 0.856,0.117C0.857,0.119 0.858,0.122 0.858,0.124C0.859,0.127 0.859,0.129 0.859,0.132C0.861,0.138 0.861,0.146 0.862,0.152C0.863,0.155 0.863,0.157 0.863,0.16C0.863,0.161 0.864,0.162 0.864,0.164L0.864,0.172C0.865,0.177 0.866,0.182 0.867,0.188L0.867,0.191C0.868,0.193 0.868,0.194 0.868,0.195C0.868,0.198 0.869,0.2 0.869,0.203C0.87,0.209 0.87,0.216 0.87,0.222C0.87,0.223 0.871,0.223 0.871,0.224L0.871,0.228C0.871,0.23 0.869,0.23 0.869,0.231L0.869,0.235C0.869,0.235 0.869,0.236 0.87,0.236L0.87,0.243C0.871,0.245 0.871,0.248 0.872,0.251L0.872,0.253C0.872,0.254 0.871,0.256 0.871,0.257C0.871,0.257 0.872,0.257 0.872,0.258C0.874,0.262 0.874,0.266 0.875,0.271C0.875,0.273 0.876,0.275 0.877,0.277C0.878,0.279 0.879,0.281 0.88,0.283C0.881,0.284 0.881,0.287 0.882,0.289C0.883,0.291 0.883,0.294 0.884,0.296C0.884,0.298 0.884,0.301 0.883,0.303C0.883,0.306 0.882,0.308 0.882,0.311C0.883,0.313 0.882,0.316 0.881,0.318L0.881,0.321C0.881,0.324 0.88,0.326 0.879,0.328C0.878,0.331 0.877,0.334 0.877,0.337C0.877,0.338 0.877,0.339 0.876,0.34C0.876,0.341 0.875,0.343 0.875,0.344C0.874,0.345 0.872,0.347 0.872,0.348C0.873,0.351 0.874,0.355 0.875,0.359C0.876,0.363 0.877,0.367 0.878,0.371C0.878,0.375 0.88,0.379 0.881,0.382C0.882,0.388 0.884,0.394 0.885,0.399C0.886,0.402 0.886,0.405 0.887,0.408C0.887,0.409 0.888,0.41 0.888,0.411C0.888,0.412 0.888,0.413 0.889,0.414C0.89,0.421 0.891,0.428 0.893,0.435C0.893,0.437 0.894,0.439 0.894,0.441C0.894,0.442 0.894,0.442 0.893,0.443C0.892,0.442 0.892,0.441 0.892,0.439C0.889,0.428 0.886,0.417 0.883,0.406C0.881,0.399 0.879,0.392 0.877,0.384C0.877,0.382 0.876,0.379 0.876,0.377C0.874,0.372 0.872,0.368 0.871,0.363C0.87,0.361 0.869,0.359 0.869,0.356C0.867,0.351 0.866,0.346 0.865,0.341C0.864,0.338 0.861,0.335 0.861,0.332C0.86,0.33 0.86,0.329 0.86,0.328C0.86,0.327 0.859,0.327 0.859,0.326L0.859,0.325C0.86,0.325 0.86,0.325 0.86,0.324C0.857,0.324 0.855,0.322 0.853,0.321C0.852,0.32 0.849,0.319 0.848,0.318C0.847,0.316 0.848,0.314 0.848,0.312C0.848,0.312 0.847,0.312 0.846,0.311C0.844,0.309 0.843,0.307 0.842,0.303L0.839,0.303L0.838,0.302C0.838,0.301 0.837,0.301 0.837,0.301C0.836,0.299 0.835,0.297 0.836,0.295C0.836,0.291 0.837,0.288 0.838,0.286C0.837,0.282 0.838,0.277 0.839,0.274C0.839,0.273 0.838,0.272 0.838,0.271C0.838,0.27 0.839,0.269 0.839,0.269C0.84,0.268 0.84,0.268 0.84,0.267L0.84,0.258C0.84,0.255 0.841,0.251 0.84,0.248C0.84,0.245 0.84,0.242 0.839,0.24C0.833,0.24 0.826,0.241 0.819,0.242C0.816,0.242 0.812,0.242 0.809,0.243C0.805,0.243 0.802,0.244 0.798,0.243C0.795,0.243 0.792,0.243 0.788,0.244L0.767,0.244C0.763,0.244 0.761,0.243 0.759,0.241C0.755,0.226 0.752,0.21 0.749,0.195C0.749,0.192 0.748,0.19 0.747,0.187C0.746,0.179 0.744,0.172 0.743,0.164C0.742,0.161 0.742,0.158 0.742,0.155C0.741,0.153 0.741,0.15 0.74,0.148C0.74,0.145 0.739,0.143 0.738,0.141C0.737,0.14 0.736,0.139 0.735,0.138C0.735,0.138 0.734,0.136 0.734,0.135C0.732,0.131 0.731,0.125 0.731,0.12C0.73,0.114 0.727,0.093 0.726,0.087C0.725,0.084 0.725,0.082 0.725,0.079C0.725,0.076 0.724,0.073 0.724,0.071C0.723,0.065 0.722,0.06 0.721,0.054C0.72,0.049 0.719,0.044 0.718,0.039C0.718,0.036 0.717,0.034 0.716,0.031L0.716,0.027C0.715,0.026 0.715,0.025 0.715,0.024C0.714,0.021 0.715,0.018 0.715,0.015L0.715,0.006C0.715,0 0.716,-0.006 0.717,-0.011C0.718,-0.013 0.718,-0.014 0.72,-0.016C0.722,-0.02 0.725,-0.023 0.728,-0.026C0.728,-0.027 0.729,-0.027 0.73,-0.028C0.723,-0.03 0.716,-0.031 0.71,-0.033C0.708,-0.033 0.706,-0.034 0.704,-0.035C0.7,-0.036 0.696,-0.037 0.691,-0.038C0.689,-0.039 0.687,-0.04 0.686,-0.04C0.684,-0.041 0.682,-0.042 0.68,-0.043C0.678,-0.043 0.677,-0.044 0.675,-0.044C0.672,-0.045 0.668,-0.046 0.664,-0.046C0.663,-0.047 0.661,-0.047 0.659,-0.047C0.654,-0.049 0.649,-0.05 0.645,-0.051C0.643,-0.052 0.641,-0.053 0.64,-0.053L0.637,-0.053C0.632,-0.053 0.628,-0.053 0.624,-0.052L0.618,-0.052C0.611,-0.052 0.604,-0.051 0.596,-0.051C0.593,-0.051 0.589,-0.05 0.585,-0.05L0.574,-0.05C0.567,-0.05 0.561,-0.05 0.555,-0.051L0.552,-0.051C0.55,-0.051 0.548,-0.05 0.546,-0.05C0.544,-0.049 0.542,-0.049 0.54,-0.048C0.533,-0.044 0.527,-0.04 0.519,-0.038C0.514,-0.037 0.509,-0.036 0.504,-0.037C0.501,-0.037 0.498,-0.038 0.496,-0.039L0.486,-0.039C0.483,-0.039 0.48,-0.039 0.477,-0.038C0.474,-0.038 0.471,-0.037 0.468,-0.037C0.462,-0.036 0.456,-0.035 0.45,-0.034C0.447,-0.033 0.444,-0.033 0.441,-0.032C0.437,-0.031 0.431,-0.032 0.427,-0.031L0.412,-0.031C0.408,-0.031 0.405,-0.03 0.402,-0.03L0.352,-0.03C0.352,-0.03 0.351,-0.031 0.35,-0.031C0.349,-0.031 0.349,-0.03 0.348,-0.03C0.343,-0.031 0.339,-0.031 0.334,-0.032C0.328,-0.032 0.323,-0.033 0.317,-0.033L0.299,-0.033C0.296,-0.032 0.293,-0.032 0.291,-0.032L0.273,-0.032C0.271,-0.031 0.268,-0.031 0.265,-0.031C0.26,-0.03 0.254,-0.03 0.249,-0.029C0.239,-0.027 0.228,-0.025 0.218,-0.024C0.21,-0.023 0.202,-0.021 0.194,-0.021C0.192,-0.02 0.176,-0.018 0.171,-0.017C0.165,-0.017 0.16,-0.016 0.154,-0.016C0.149,-0.015 0.144,-0.014 0.139,-0.013L0.13,-0.013C0.128,-0.012 0.125,-0.012 0.122,-0.011C0.12,-0.011 0.118,-0.01 0.116,-0.009C0.114,-0.008 0.112,-0.006 0.111,-0.005C0.108,-0.004 0.105,-0.002 0.102,-0C0.101,0.001 0.1,0.002 0.1,0.002L0.096,0.002C0.095,0.003 0.093,0.004 0.092,0.004C0.091,0.004 0.09,0.005 0.089,0.005C0.089,0.005 0.088,0.005 0.087,0.006L0.086,0.007C0.084,0.008 0.083,0.01 0.081,0.011C0.079,0.013 0.078,0.016 0.076,0.017C0.074,0.019 0.072,0.02 0.07,0.022C0.068,0.024 0.066,0.027 0.063,0.028C0.061,0.028 0.061,0.026 0.06,0.025C0.059,0.033 0.054,0.038 0.051,0.043C0.051,0.044 0.05,0.044 0.05,0.045C0.049,0.046 0.049,0.048 0.049,0.049C0.048,0.05 0.047,0.051 0.047,0.052C0.046,0.054 0.046,0.057 0.045,0.058C0.045,0.059 0.044,0.06 0.044,0.06L0.044,0.063C0.043,0.071 0.041,0.076 0.039,0.081C0.038,0.083 0.037,0.084 0.037,0.086C0.034,0.089 0.029,0.094 0.024,0.09C0.02,0.092 0.02,0.086 0.019,0.082L0.019,0.073C0.018,0.066 0.018,0.059 0.018,0.052C0.018,0.045 0.019,0.038 0.019,0.032C0.02,0.018 0.021,0.005 0.021,-0.009L0.021,-0.04C0.021,-0.047 0.022,-0.054 0.025,-0.057C0.027,-0.06 0.031,-0.061 0.035,-0.061C0.041,-0.065 0.051,-0.062 0.056,-0.059C0.058,-0.06 0.059,-0.061 0.06,-0.061C0.063,-0.062 0.068,-0.061 0.071,-0.061L0.075,-0.061C0.08,-0.062 0.085,-0.063 0.089,-0.064C0.093,-0.065 0.098,-0.065 0.103,-0.066C0.107,-0.067 0.112,-0.068 0.116,-0.069C0.121,-0.07 0.125,-0.071 0.13,-0.071C0.131,-0.072 0.133,-0.072 0.134,-0.072C0.135,-0.072 0.136,-0.072 0.137,-0.073C0.144,-0.074 0.151,-0.075 0.158,-0.076C0.163,-0.077 0.187,-0.08 0.194,-0.081C0.197,-0.081 0.199,-0.081 0.202,-0.082L0.209,-0.082C0.212,-0.083 0.214,-0.083 0.216,-0.083C0.221,-0.084 0.226,-0.084 0.23,-0.086C0.235,-0.087 0.241,-0.089 0.247,-0.09L0.25,-0.09C0.253,-0.091 0.255,-0.092 0.257,-0.092C0.259,-0.092 0.262,-0.093 0.264,-0.093C0.27,-0.094 0.276,-0.095 0.282,-0.096L0.285,-0.096C0.286,-0.097 0.287,-0.097 0.287,-0.098C0.29,-0.101 0.294,-0.103 0.298,-0.105C0.299,-0.106 0.3,-0.108 0.302,-0.108C0.304,-0.11 0.306,-0.111 0.309,-0.112C0.309,-0.113 0.31,-0.113 0.311,-0.113C0.314,-0.115 0.317,-0.116 0.321,-0.118C0.323,-0.118 0.324,-0.119 0.326,-0.12C0.328,-0.12 0.33,-0.121 0.331,-0.121C0.342,-0.125 0.353,-0.128 0.364,-0.131C0.361,-0.134 0.357,-0.137 0.353,-0.14C0.352,-0.14 0.351,-0.141 0.35,-0.142C0.344,-0.145 0.338,-0.147 0.333,-0.151C0.331,-0.152 0.329,-0.153 0.327,-0.154C0.322,-0.156 0.317,-0.158 0.314,-0.162L0.312,-0.162C0.311,-0.163 0.311,-0.163 0.31,-0.163C0.3,-0.165 0.293,-0.17 0.285,-0.174C0.282,-0.175 0.28,-0.176 0.278,-0.177C0.277,-0.178 0.276,-0.179 0.274,-0.179C0.273,-0.179 0.271,-0.179 0.27,-0.18L0.26,-0.18C0.259,-0.181 0.257,-0.181 0.256,-0.181C0.255,-0.182 0.253,-0.182 0.252,-0.182C0.25,-0.183 0.249,-0.183 0.247,-0.184C0.246,-0.184 0.244,-0.185 0.243,-0.185L0.243,-0.186C0.241,-0.188 0.238,-0.188 0.237,-0.19L0.237,-0.191C0.239,-0.198 0.241,-0.204 0.243,-0.21C0.241,-0.211 0.24,-0.211 0.238,-0.212C0.236,-0.212 0.226,-0.216 0.222,-0.217C0.215,-0.219 0.209,-0.222 0.202,-0.224C0.195,-0.227 0.189,-0.229 0.182,-0.232C0.179,-0.234 0.176,-0.235 0.173,-0.237C0.168,-0.239 0.163,-0.24 0.158,-0.242C0.152,-0.244 0.148,-0.246 0.143,-0.248C0.138,-0.25 0.133,-0.252 0.128,-0.254C0.126,-0.255 0.125,-0.255 0.123,-0.256C0.114,-0.26 0.103,-0.264 0.093,-0.267C0.092,-0.268 0.09,-0.269 0.088,-0.269C0.086,-0.27 0.084,-0.27 0.082,-0.27C0.081,-0.27 0.081,-0.271 0.08,-0.271C0.079,-0.271 0.079,-0.27 0.078,-0.271L0.075,-0.271C0.071,-0.27 0.066,-0.27 0.063,-0.271C0.061,-0.271 0.061,-0.274 0.06,-0.275C0.059,-0.277 0.058,-0.279 0.057,-0.28L0.054,-0.28C0.052,-0.281 0.051,-0.28 0.05,-0.281L0.047,-0.281C0.046,-0.28 0.044,-0.28 0.043,-0.279C0.041,-0.278 0.04,-0.275 0.04,-0.273C0.039,-0.272 0.039,-0.272 0.038,-0.272L0.037,-0.272C0.036,-0.272 0.035,-0.272 0.035,-0.271C0.033,-0.271 0.033,-0.269 0.032,-0.268C0.032,-0.267 0.031,-0.267 0.031,-0.266C0.028,-0.264 0.029,-0.259 0.025,-0.259C0.023,-0.257 0.022,-0.254 0.022,-0.251C0.022,-0.249 0.021,-0.248 0.021,-0.246C0.021,-0.246 0.02,-0.245 0.02,-0.244C0.019,-0.244 0.019,-0.243 0.019,-0.242C0.018,-0.237 0.013,-0.231 0.006,-0.233C0.004,-0.233 0.001,-0.235 0.001,-0.237C-0,-0.239 0,-0.242 0,-0.245L0,-0.318C0,-0.324 -0,-0.33 0.001,-0.336C0.001,-0.344 0.003,-0.352 0.004,-0.36C0.005,-0.362 0.005,-0.366 0.006,-0.367C0.007,-0.368 0.012,-0.369 0.015,-0.368C0.016,-0.368 0.017,-0.367 0.018,-0.367L0.021,-0.367C0.025,-0.368 0.028,-0.367 0.031,-0.366C0.034,-0.365 0.038,-0.363 0.041,-0.362C0.048,-0.359 0.053,-0.355 0.06,-0.352C0.06,-0.354 0.061,-0.355 0.063,-0.356C0.064,-0.356 0.068,-0.355 0.07,-0.355C0.071,-0.354 0.072,-0.353 0.074,-0.352C0.075,-0.351 0.075,-0.351 0.076,-0.35C0.077,-0.349 0.077,-0.348 0.079,-0.347C0.082,-0.346 0.085,-0.345 0.089,-0.344C0.092,-0.342 0.095,-0.341 0.098,-0.34C0.105,-0.337 0.112,-0.334 0.118,-0.331C0.127,-0.327 0.137,-0.322 0.146,-0.318C0.15,-0.316 0.153,-0.316 0.158,-0.316C0.166,-0.315 0.174,-0.314 0.182,-0.312C0.185,-0.311 0.2,-0.307 0.204,-0.306C0.206,-0.306 0.208,-0.305 0.209,-0.305C0.215,-0.304 0.221,-0.302 0.226,-0.301C0.23,-0.3 0.241,-0.297 0.243,-0.297C0.245,-0.296 0.247,-0.296 0.248,-0.295C0.25,-0.301 0.253,-0.305 0.256,-0.31C0.257,-0.312 0.259,-0.313 0.26,-0.315C0.261,-0.316 0.262,-0.317 0.262,-0.318C0.262,-0.319 0.26,-0.321 0.26,-0.322C0.258,-0.324 0.257,-0.327 0.255,-0.329C0.255,-0.329 0.252,-0.332 0.252,-0.333C0.254,-0.338 0.26,-0.342 0.263,-0.346C0.264,-0.347 0.265,-0.349 0.266,-0.35C0.268,-0.353 0.272,-0.355 0.273,-0.359C0.275,-0.362 0.277,-0.365 0.28,-0.368C0.28,-0.37 0.281,-0.372 0.281,-0.374C0.282,-0.376 0.282,-0.379 0.282,-0.381C0.283,-0.388 0.287,-0.392 0.29,-0.397C0.292,-0.4 0.294,-0.403 0.296,-0.405C0.3,-0.41 0.303,-0.414 0.307,-0.418C0.31,-0.42 0.312,-0.423 0.315,-0.425C0.319,-0.429 0.323,-0.433 0.327,-0.436C0.33,-0.438 0.331,-0.44 0.335,-0.44C0.336,-0.44 0.338,-0.441 0.34,-0.441C0.342,-0.441 0.344,-0.44 0.346,-0.44C0.348,-0.441 0.349,-0.442 0.35,-0.442C0.353,-0.442 0.354,-0.441 0.355,-0.44C0.356,-0.439 0.357,-0.438 0.358,-0.437C0.363,-0.432 0.37,-0.43 0.373,-0.424C0.376,-0.424 0.378,-0.426 0.381,-0.426C0.383,-0.426 0.386,-0.424 0.389,-0.423C0.394,-0.424 0.398,-0.423 0.403,-0.423C0.408,-0.423 0.413,-0.423 0.417,-0.422C0.419,-0.421 0.421,-0.421 0.423,-0.42C0.425,-0.42 0.428,-0.419 0.43,-0.419C0.433,-0.42 0.435,-0.42 0.437,-0.42C0.441,-0.42 0.446,-0.418 0.448,-0.416C0.45,-0.415 0.452,-0.414 0.453,-0.413C0.457,-0.412 0.459,-0.409 0.461,-0.406C0.463,-0.403 0.465,-0.4 0.467,-0.397C0.469,-0.393 0.47,-0.39 0.473,-0.387C0.475,-0.384 0.476,-0.38 0.477,-0.376C0.477,-0.375 0.478,-0.375 0.478,-0.374C0.48,-0.371 0.481,-0.368 0.482,-0.366C0.484,-0.363 0.485,-0.359 0.487,-0.356C0.489,-0.353 0.49,-0.349 0.493,-0.346C0.495,-0.343 0.496,-0.339 0.498,-0.336C0.499,-0.333 0.501,-0.329 0.503,-0.326C0.504,-0.324 0.506,-0.321 0.507,-0.319C0.508,-0.318 0.508,-0.317 0.508,-0.316C0.509,-0.315 0.511,-0.313 0.512,-0.312C0.513,-0.311 0.513,-0.31 0.514,-0.309C0.516,-0.308 0.518,-0.306 0.519,-0.304C0.521,-0.303 0.522,-0.302 0.523,-0.3C0.526,-0.297 0.528,-0.294 0.53,-0.291C0.533,-0.287 0.537,-0.283 0.541,-0.279C0.542,-0.278 0.544,-0.277 0.545,-0.276C0.546,-0.275 0.548,-0.275 0.549,-0.275C0.552,-0.273 0.556,-0.272 0.559,-0.271C0.56,-0.27 0.562,-0.27 0.563,-0.27C0.564,-0.269 0.565,-0.269 0.567,-0.269C0.568,-0.268 0.57,-0.267 0.572,-0.267L0.574,-0.267C0.577,-0.266 0.579,-0.268 0.581,-0.268L0.584,-0.268C0.588,-0.268 0.594,-0.269 0.599,-0.269C0.6,-0.268 0.602,-0.268 0.604,-0.267L0.609,-0.267C0.614,-0.266 0.618,-0.265 0.622,-0.264C0.624,-0.263 0.626,-0.262 0.628,-0.262C0.634,-0.26 0.639,-0.259 0.644,-0.257L0.646,-0.257C0.647,-0.256 0.647,-0.256 0.648,-0.256C0.65,-0.255 0.653,-0.254 0.655,-0.253C0.661,-0.25 0.666,-0.247 0.671,-0.243C0.672,-0.243 0.673,-0.242 0.674,-0.241C0.676,-0.241 0.679,-0.24 0.681,-0.24L0.683,-0.24C0.684,-0.24 0.684,-0.239 0.685,-0.239C0.686,-0.239 0.688,-0.239 0.69,-0.238C0.693,-0.237 0.699,-0.235 0.703,-0.236C0.704,-0.236 0.704,-0.236 0.705,-0.237L0.722,-0.237C0.729,-0.238 0.735,-0.237 0.742,-0.237C0.74,-0.238 0.738,-0.239 0.737,-0.24C0.735,-0.24 0.734,-0.242 0.732,-0.243C0.729,-0.247 0.726,-0.252 0.722,-0.256C0.719,-0.26 0.715,-0.264 0.712,-0.269C0.709,-0.271 0.707,-0.274 0.705,-0.277C0.703,-0.28 0.702,-0.284 0.7,-0.288C0.699,-0.29 0.697,-0.293 0.696,-0.296C0.696,-0.3 0.696,-0.306 0.697,-0.31C0.697,-0.311 0.697,-0.313 0.698,-0.314C0.699,-0.316 0.702,-0.317 0.705,-0.318C0.707,-0.318 0.711,-0.32 0.713,-0.321C0.713,-0.321 0.714,-0.322 0.714,-0.323C0.716,-0.324 0.716,-0.326 0.717,-0.328L0.717,-0.331C0.717,-0.332 0.718,-0.332 0.718,-0.333L0.718,-0.335C0.718,-0.336 0.72,-0.338 0.719,-0.339C0.718,-0.339 0.717,-0.34 0.716,-0.34C0.715,-0.341 0.714,-0.341 0.713,-0.341C0.71,-0.342 0.707,-0.343 0.705,-0.344C0.704,-0.344 0.703,-0.346 0.703,-0.347C0.702,-0.347 0.702,-0.348 0.701,-0.349C0.699,-0.357 0.702,-0.365 0.702,-0.372L0.702,-0.377C0.702,-0.379 0.701,-0.381 0.701,-0.382C0.702,-0.384 0.702,-0.386 0.703,-0.387C0.703,-0.388 0.701,-0.389 0.701,-0.389C0.7,-0.39 0.7,-0.391 0.7,-0.392C0.699,-0.393 0.699,-0.395 0.698,-0.395C0.697,-0.396 0.695,-0.396 0.694,-0.397C0.694,-0.398 0.694,-0.4 0.693,-0.401C0.693,-0.402 0.692,-0.403 0.692,-0.404C0.692,-0.407 0.694,-0.41 0.695,-0.412C0.696,-0.414 0.697,-0.416 0.698,-0.417C0.699,-0.418 0.699,-0.419 0.699,-0.419C0.7,-0.42 0.701,-0.421 0.702,-0.422C0.703,-0.423 0.705,-0.424 0.706,-0.425C0.709,-0.425 0.713,-0.426 0.717,-0.426L0.724,-0.426C0.726,-0.426 0.728,-0.426 0.73,-0.425C0.731,-0.425 0.733,-0.423 0.734,-0.422C0.735,-0.421 0.736,-0.419 0.737,-0.419C0.741,-0.417 0.746,-0.419 0.751,-0.418C0.754,-0.418 0.757,-0.416 0.76,-0.415C0.762,-0.414 0.763,-0.413 0.764,-0.413C0.766,-0.412 0.768,-0.412 0.769,-0.411C0.772,-0.41 0.774,-0.406 0.775,-0.403C0.778,-0.398 0.779,-0.392 0.78,-0.386C0.78,-0.384 0.78,-0.382 0.781,-0.38C0.782,-0.378 0.782,-0.376 0.782,-0.374L0.782,-0.367C0.782,-0.365 0.782,-0.363 0.783,-0.361C0.783,-0.359 0.784,-0.357 0.785,-0.355C0.786,-0.352 0.787,-0.348 0.788,-0.344C0.789,-0.343 0.789,-0.343 0.789,-0.342C0.791,-0.339 0.792,-0.338 0.794,-0.336C0.796,-0.334 0.797,-0.331 0.798,-0.329C0.799,-0.328 0.799,-0.327 0.799,-0.326C0.799,-0.326 0.8,-0.325 0.801,-0.325C0.803,-0.32 0.807,-0.316 0.81,-0.311C0.811,-0.309 0.813,-0.306 0.815,-0.304C0.817,-0.302 0.819,-0.3 0.82,-0.297C0.824,-0.292 0.828,-0.287 0.83,-0.282C0.831,-0.28 0.832,-0.277 0.833,-0.275C0.833,-0.274 0.833,-0.273 0.834,-0.272C0.835,-0.269 0.836,-0.266 0.838,-0.264C0.838,-0.264 0.839,-0.264 0.839,-0.263C0.84,-0.263 0.841,-0.262 0.842,-0.262C0.843,-0.261 0.845,-0.261 0.846,-0.26C0.846,-0.26 0.847,-0.259 0.848,-0.258C0.852,-0.254 0.856,-0.25 0.857,-0.242L0.857,-0.234C0.857,-0.232 0.858,-0.231 0.859,-0.229C0.86,-0.227 0.862,-0.224 0.862,-0.221L0.862,-0.22C0.862,-0.219 0.862,-0.219 0.863,-0.218C0.863,-0.214 0.866,-0.211 0.867,-0.208C0.868,-0.208 0.867,-0.207 0.868,-0.207L0.868,-0.206C0.869,-0.205 0.87,-0.204 0.87,-0.202C0.871,-0.201 0.871,-0.2 0.872,-0.199C0.874,-0.196 0.876,-0.194 0.877,-0.192C0.878,-0.191 0.88,-0.189 0.88,-0.188C0.879,-0.185 0.878,-0.182 0.877,-0.179C0.876,-0.178 0.876,-0.177 0.875,-0.176C0.875,-0.174 0.876,-0.171 0.876,-0.169C0.876,-0.166 0.876,-0.163 0.875,-0.161C0.873,-0.159 0.871,-0.158 0.869,-0.156C0.868,-0.155 0.868,-0.154 0.867,-0.152C0.866,-0.151 0.865,-0.15 0.865,-0.148L0.865,-0.145C0.867,-0.143 0.872,-0.143 0.873,-0.142C0.875,-0.14 0.873,-0.137 0.873,-0.135C0.874,-0.134 0.876,-0.134 0.878,-0.133L0.88,-0.133C0.881,-0.133 0.882,-0.132 0.883,-0.132C0.884,-0.132 0.885,-0.134 0.886,-0.135C0.887,-0.136 0.888,-0.137 0.889,-0.137C0.891,-0.137 0.894,-0.135 0.896,-0.136C0.897,-0.136 0.897,-0.137 0.897,-0.137C0.902,-0.134 0.908,-0.135 0.915,-0.135C0.927,-0.136 0.939,-0.137 0.952,-0.137C0.955,-0.137 0.958,-0.137 0.961,-0.136C0.963,-0.135 0.965,-0.134 0.967,-0.132C0.971,-0.13 0.974,-0.127 0.978,-0.124C0.982,-0.121 0.985,-0.118 0.988,-0.115C0.99,-0.113 0.991,-0.111 0.992,-0.109C0.993,-0.107 0.995,-0.105 0.996,-0.103C0.998,-0.1 1,-0.097 1,-0.092L1,-0.077ZM0.867,0.324C0.867,0.325 0.868,0.326 0.869,0.328C0.869,0.329 0.869,0.331 0.87,0.332C0.87,0.327 0.871,0.323 0.872,0.319C0.87,0.318 0.866,0.318 0.866,0.32C0.866,0.321 0.867,0.323 0.867,0.324ZM0.056,-0.282C0.056,-0.283 0.054,-0.284 0.053,-0.284C0.05,-0.285 0.049,-0.285 0.049,-0.282L0.056,-0.282Z" style="fill:url(#_Linear1);fill-rule:nonzero;"/>
    </g>
    <g transform="matrix(1,0,0,1,178.899,26.7852)">
        <path d="M0,-6.655C0.028,-6.631 0.058,-6.608 0.111,-6.604C0.286,-6.349 0.183,-6.02 0.173,-5.7C0.146,-4.878 0.229,-3.928 0.102,-3.171C-0.438,-3.253 -0.648,-3.599 -1.17,-3.695C-1.423,-2.595 -1.145,-1.129 -1.285,0C-1.561,-0.202 -1.513,-0.644 -1.535,-0.963C-1.611,-2.056 -1.662,-3.221 -1.688,-4.335C-1.188,-4.31 -0.784,-3.918 -0.262,-3.794C0.05,-4.607 -0.325,-5.831 0,-6.655" style="fill:white;"/>
    </g>
    <g transform="matrix(1,0,0,1,178.899,26.7852)">
        <path d="M0,-6.655C0.028,-6.631 0.058,-6.608 0.111,-6.604C0.286,-6.349 0.183,-6.02 0.173,-5.7C0.146,-4.878 0.229,-3.928 0.102,-3.171C-0.438,-3.253 -0.648,-3.599 -1.17,-3.695C-1.423,-2.595 -1.145,-1.129 -1.285,0C-1.561,-0.202 -1.513,-0.644 -1.535,-0.963C-1.611,-2.056 -1.662,-3.221 -1.688,-4.335C-1.188,-4.31 -0.784,-3.918 -0.262,-3.794C0.05,-4.607 -0.325,-5.831 0,-6.655Z" style="fill:none;fill-rule:nonzero;stroke:white;stroke-width:0.32px;"/>
    </g>
    <g transform="matrix(1,0,0,1,168.087,37.2014)">
        <path d="M0,-4.56C-0.836,-4.041 -1.717,-2.854 -1.707,-1.456C-1.695,0.308 0.186,2.531 2.097,2.93C2.421,2.998 2.818,3.026 3.261,2.968C5.03,2.739 6.192,1.232 5.938,-0.951C5.78,-2.298 4.681,-3.523 3.648,-4.172C3.049,-4.549 2.063,-5.051 1.164,-4.948C0.627,-4.887 0.281,-4.734 0,-4.56M12.225,-5.026C11.018,-4.42 10.057,-2.984 10.323,-0.951C10.464,0.113 11.19,1.032 11.876,1.688C12.557,2.339 13.602,2.951 14.476,3.124C16.961,3.617 18.431,1.883 18.124,-0.679C18.032,-1.445 17.782,-1.974 17.348,-2.658C16.643,-3.766 14.658,-5.415 12.846,-5.181C12.647,-5.155 12.4,-5.114 12.225,-5.026M29.96,-8.441C30.068,-8.168 29.729,-7.975 29.571,-7.859C26.868,-5.839 24.104,-3.813 21.306,-1.766C20.899,-1.469 20.384,-0.979 19.986,-0.873C19.615,-0.775 19.021,-0.9 18.744,-0.757C18.535,1.68 17.937,3.666 15.523,3.745C12.872,3.832 10.673,1.862 10.052,-0.291C9.982,-0.531 9.986,-0.802 9.858,-0.99C9.391,-1.668 7.161,-1.568 6.559,-1.145C6.488,0.507 6.193,1.961 5.2,2.774C4.523,3.33 3.271,3.881 2.057,3.59C1.162,3.375 0.276,2.634 -0.31,1.999C-1.039,1.208 -1.5,0.273 -2.173,-0.485C-2.64,-0.561 -3.28,-0.464 -3.569,-0.718C-3.458,-1.364 -2.593,-1.646 -2.25,-2.193C-2.078,-2.468 -2.052,-2.793 -1.901,-3.085C-1.506,-3.853 -0.788,-4.774 0,-5.181C0.839,-5.613 2.179,-5.487 3.105,-5.142C4.607,-4.582 5.7,-3.346 6.364,-1.882C7.432,-2.221 8.658,-2.132 9.78,-1.882C9.962,-2.882 10.138,-3.705 10.634,-4.327C11.229,-5.074 12.339,-5.742 13.738,-5.608C15.625,-5.428 17.14,-4.103 17.968,-2.658C18.224,-2.214 18.295,-1.706 18.705,-1.417C19.689,-1.408 20.158,-1.88 20.84,-2.386C22.052,-3.287 23.476,-4.148 24.683,-4.948C26.459,-6.126 28.197,-7.322 29.921,-8.441L29.96,-8.441Z" style="fill:white;"/>
    </g>
    <g transform="matrix(1,0,0,1,168.087,37.2014)">
        <path d="M0,-4.56C-0.836,-4.041 -1.717,-2.854 -1.707,-1.456C-1.695,0.308 0.186,2.531 2.097,2.93C2.421,2.998 2.818,3.026 3.261,2.968C5.03,2.739 6.192,1.232 5.938,-0.951C5.78,-2.298 4.681,-3.523 3.648,-4.172C3.049,-4.549 2.063,-5.051 1.164,-4.948C0.627,-4.887 0.281,-4.734 0,-4.56ZM12.225,-5.026C11.018,-4.42 10.057,-2.984 10.323,-0.951C10.464,0.113 11.19,1.032 11.876,1.688C12.557,2.339 13.602,2.951 14.476,3.124C16.961,3.617 18.431,1.883 18.124,-0.679C18.032,-1.445 17.782,-1.974 17.348,-2.658C16.643,-3.766 14.658,-5.415 12.846,-5.181C12.647,-5.155 12.4,-5.114 12.225,-5.026ZM29.96,-8.441C30.068,-8.168 29.729,-7.975 29.571,-7.859C26.868,-5.839 24.104,-3.813 21.306,-1.766C20.899,-1.469 20.384,-0.979 19.986,-0.873C19.615,-0.775 19.021,-0.9 18.744,-0.757C18.535,1.68 17.937,3.666 15.523,3.745C12.872,3.832 10.673,1.862 10.052,-0.291C9.982,-0.531 9.986,-0.802 9.858,-0.99C9.391,-1.668 7.161,-1.568 6.559,-1.145C6.488,0.507 6.193,1.961 5.2,2.774C4.523,3.33 3.271,3.881 2.057,3.59C1.162,3.375 0.276,2.634 -0.31,1.999C-1.039,1.208 -1.5,0.273 -2.173,-0.485C-2.64,-0.561 -3.28,-0.464 -3.569,-0.718C-3.458,-1.364 -2.593,-1.646 -2.25,-2.193C-2.078,-2.468 -2.052,-2.793 -1.901,-3.085C-1.506,-3.853 -0.788,-4.774 0,-5.181C0.839,-5.613 2.179,-5.487 3.105,-5.142C4.607,-4.582 5.7,-3.346 6.364,-1.882C7.432,-2.221 8.658,-2.132 9.78,-1.882C9.962,-2.882 10.138,-3.705 10.634,-4.327C11.229,-5.074 12.339,-5.742 13.738,-5.608C15.625,-5.428 17.14,-4.103 17.968,-2.658C18.224,-2.214 18.295,-1.706 18.705,-1.417C19.689,-1.408 20.158,-1.88 20.84,-2.386C22.052,-3.287 23.476,-4.148 24.683,-4.948C26.459,-6.126 28.197,-7.322 29.921,-8.441L29.96,-8.441Z" style="fill:none;fill-rule:nonzero;stroke:white;stroke-width:0.32px;"/>
    </g>
    <defs>
        <linearGradient id="_Linear1" x1="0" y1="0" x2="1" y2="0" gradientUnits="userSpaceOnUse" gradientTransform="matrix(1,0,0,1,1.4339e-06,0.000346012)"><stop offset="0" style="stop-color:rgb(0,34,83);stop-opacity:1"/><stop offset="1" style="stop-color:rgb(0,94,173);stop-opacity:1"/></linearGradient>
    </defs>
</svg>
