<?xml version="1.0" encoding="UTF-8" standalone="no"?>
<!DOCTYPE svg PUBLIC "-//W3C//DTD SVG 1.1//EN" "http://www.w3.org/Graphics/SVG/1.1/DTD/svg11.dtd">
<svg width="100%" height="100%" viewBox="0 0 132 380" version="1.1" xmlns="http://www.w3.org/2000/svg" xmlns:xlink="http://www.w3.org/1999/xlink" xml:space="preserve" xmlns:serif="http://www.serif.com/" style="fill-rule:evenodd;clip-rule:evenodd;stroke-linejoin:round;stroke-miterlimit:2;">
    <g transform="matrix(-1.61098e-05,-380,-380,1.61098e-05,65.4054,380)">
        <path d="M0.998,-0.073L1,-0.073C0.999,-0.072 0.997,-0.072 0.996,-0.07C0.996,-0.068 0.997,-0.067 0.997,-0.066C0.998,-0.063 0.999,-0.059 0.999,-0.055C0.997,-0.055 0.997,-0.057 0.996,-0.057C0.995,-0.057 0.994,-0.057 0.994,-0.056C0.995,-0.054 0.997,-0.054 0.998,-0.052C0.996,-0.053 0.993,-0.053 0.991,-0.053L0.991,-0.052C0.991,-0.052 0.992,-0.052 0.991,-0.052C0.991,-0.051 0.99,-0.051 0.989,-0.051C0.99,-0.05 0.991,-0.05 0.992,-0.049C0.993,-0.048 0.995,-0.048 0.997,-0.047C0.998,-0.047 0.999,-0.047 0.999,-0.046L0.997,-0.046C0.997,-0.045 0.998,-0.045 0.998,-0.045L0.998,-0.044C0.995,-0.045 0.992,-0.047 0.989,-0.048C0.988,-0.047 0.989,-0.045 0.988,-0.044C0.988,-0.043 0.987,-0.043 0.987,-0.043L0.987,-0.04C0.987,-0.038 0.985,-0.038 0.985,-0.037C0.984,-0.035 0.985,-0.034 0.985,-0.032C0.984,-0.032 0.984,-0.033 0.984,-0.033C0.983,-0.03 0.984,-0.028 0.984,-0.025C0.983,-0.026 0.983,-0.028 0.981,-0.029C0.981,-0.028 0.981,-0.027 0.98,-0.026L0.98,-0.029C0.98,-0.03 0.98,-0.032 0.979,-0.033C0.978,-0.028 0.976,-0.024 0.974,-0.021C0.973,-0.02 0.972,-0.019 0.971,-0.018L0.971,-0.023C0.97,-0.021 0.968,-0.02 0.966,-0.018C0.963,-0.016 0.963,-0.015 0.962,-0.012L0.962,-0.015C0.962,-0.017 0.963,-0.018 0.963,-0.019C0.961,-0.019 0.961,-0.018 0.959,-0.017C0.958,-0.017 0.957,-0.016 0.956,-0.015C0.954,-0.015 0.952,-0.014 0.951,-0.012L0.95,-0.011C0.95,-0.012 0.951,-0.013 0.951,-0.014C0.949,-0.013 0.948,-0.011 0.947,-0.01C0.947,-0.012 0.948,-0.013 0.949,-0.015C0.947,-0.016 0.945,-0.014 0.944,-0.014L0.942,-0.014C0.94,-0.014 0.939,-0.013 0.938,-0.013L0.923,-0.013C0.921,-0.013 0.918,-0.014 0.916,-0.015C0.913,-0.015 0.91,-0.015 0.908,-0.016C0.906,-0.016 0.905,-0.017 0.904,-0.017C0.902,-0.017 0.9,-0.015 0.898,-0.016L0.896,-0.016C0.894,-0.017 0.893,-0.016 0.891,-0.015C0.89,-0.015 0.888,-0.014 0.887,-0.014C0.885,-0.012 0.883,-0.01 0.882,-0.009C0.881,-0.009 0.882,-0.01 0.882,-0.01L0.882,-0.011C0.878,-0.009 0.875,-0.007 0.872,-0.004C0.871,-0.003 0.869,-0.002 0.869,-0.001C0.869,-0.001 0.87,0.001 0.87,0.002C0.872,0.007 0.873,0.012 0.875,0.017C0.876,0.019 0.877,0.022 0.876,0.025C0.878,0.029 0.879,0.033 0.88,0.037C0.88,0.038 0.881,0.039 0.881,0.041C0.881,0.043 0.881,0.045 0.88,0.046L0.88,0.048C0.88,0.05 0.881,0.053 0.881,0.056C0.882,0.059 0.884,0.064 0.882,0.066C0.882,0.068 0.88,0.068 0.879,0.07C0.879,0.071 0.88,0.073 0.88,0.075C0.881,0.076 0.881,0.078 0.881,0.08C0.881,0.084 0.877,0.086 0.874,0.088C0.873,0.089 0.872,0.089 0.871,0.09C0.87,0.091 0.869,0.092 0.869,0.093C0.864,0.097 0.859,0.1 0.853,0.103C0.852,0.104 0.851,0.104 0.85,0.105C0.849,0.106 0.848,0.106 0.847,0.107C0.846,0.107 0.846,0.108 0.846,0.108C0.845,0.109 0.844,0.108 0.844,0.109C0.84,0.115 0.836,0.122 0.829,0.127C0.826,0.129 0.822,0.131 0.818,0.132C0.814,0.133 0.808,0.133 0.804,0.132C0.798,0.13 0.793,0.127 0.788,0.124C0.787,0.125 0.786,0.126 0.784,0.126C0.783,0.127 0.782,0.128 0.78,0.129C0.778,0.13 0.775,0.129 0.772,0.13C0.772,0.133 0.774,0.135 0.775,0.137C0.775,0.14 0.773,0.142 0.771,0.143C0.77,0.144 0.769,0.146 0.767,0.146C0.765,0.147 0.763,0.146 0.761,0.145C0.76,0.145 0.758,0.144 0.757,0.144C0.756,0.145 0.755,0.147 0.755,0.149C0.754,0.151 0.754,0.154 0.753,0.155C0.753,0.156 0.751,0.157 0.751,0.157C0.75,0.158 0.748,0.157 0.747,0.157C0.745,0.158 0.744,0.158 0.742,0.158C0.74,0.158 0.737,0.158 0.735,0.157L0.734,0.157C0.733,0.157 0.732,0.158 0.732,0.158C0.73,0.16 0.729,0.162 0.727,0.164C0.726,0.166 0.725,0.167 0.722,0.169C0.72,0.17 0.717,0.17 0.714,0.171C0.71,0.172 0.705,0.173 0.701,0.171C0.698,0.172 0.695,0.172 0.692,0.172C0.688,0.171 0.686,0.169 0.683,0.168C0.68,0.166 0.678,0.165 0.677,0.162C0.674,0.163 0.672,0.162 0.67,0.161C0.666,0.158 0.662,0.155 0.659,0.152C0.658,0.152 0.657,0.151 0.656,0.151L0.653,0.151C0.65,0.152 0.647,0.152 0.645,0.154C0.644,0.154 0.644,0.155 0.643,0.156C0.64,0.158 0.638,0.153 0.637,0.151C0.636,0.149 0.636,0.147 0.635,0.145C0.633,0.139 0.632,0.133 0.631,0.127C0.628,0.124 0.626,0.122 0.623,0.119C0.622,0.121 0.62,0.122 0.618,0.123L0.616,0.124L0.616,0.127C0.618,0.13 0.619,0.134 0.62,0.137C0.621,0.139 0.622,0.141 0.622,0.142C0.622,0.144 0.62,0.147 0.618,0.148C0.616,0.151 0.612,0.154 0.608,0.156C0.604,0.157 0.601,0.159 0.596,0.158C0.591,0.157 0.587,0.153 0.586,0.149C0.585,0.147 0.584,0.145 0.584,0.144C0.583,0.142 0.583,0.14 0.582,0.138C0.574,0.138 0.567,0.139 0.559,0.139C0.553,0.139 0.546,0.139 0.54,0.14C0.539,0.14 0.537,0.141 0.536,0.141C0.527,0.142 0.517,0.143 0.508,0.145C0.501,0.146 0.494,0.146 0.488,0.147C0.479,0.148 0.471,0.15 0.463,0.151C0.452,0.153 0.44,0.154 0.428,0.156C0.417,0.158 0.404,0.159 0.393,0.162C0.386,0.163 0.379,0.165 0.371,0.166C0.368,0.166 0.364,0.166 0.361,0.167C0.354,0.168 0.344,0.169 0.341,0.165C0.339,0.163 0.338,0.16 0.339,0.157C0.341,0.155 0.343,0.154 0.345,0.153C0.347,0.152 0.349,0.152 0.35,0.151C0.354,0.15 0.358,0.149 0.362,0.149C0.364,0.148 0.366,0.147 0.368,0.147C0.375,0.146 0.381,0.145 0.387,0.143C0.385,0.143 0.384,0.143 0.382,0.142L0.382,0.133C0.381,0.133 0.38,0.133 0.379,0.132C0.379,0.132 0.379,0.131 0.378,0.131L0.378,0.135C0.378,0.137 0.377,0.139 0.375,0.14C0.374,0.141 0.371,0.141 0.369,0.14C0.367,0.14 0.366,0.139 0.365,0.137C0.363,0.136 0.363,0.134 0.362,0.132C0.361,0.132 0.361,0.133 0.36,0.132C0.359,0.132 0.358,0.13 0.358,0.129C0.359,0.128 0.36,0.128 0.36,0.127C0.359,0.127 0.359,0.125 0.358,0.125L0.354,0.125C0.348,0.125 0.341,0.124 0.336,0.123C0.326,0.121 0.317,0.118 0.31,0.112C0.307,0.109 0.305,0.107 0.302,0.103C0.3,0.1 0.298,0.097 0.297,0.092C0.294,0.092 0.291,0.093 0.289,0.093L0.283,0.093C0.282,0.093 0.28,0.094 0.279,0.094C0.274,0.094 0.268,0.094 0.263,0.095C0.259,0.096 0.253,0.097 0.248,0.097C0.247,0.097 0.245,0.097 0.244,0.098C0.241,0.098 0.238,0.099 0.236,0.101C0.231,0.102 0.227,0.103 0.222,0.104L0.217,0.104C0.216,0.105 0.214,0.106 0.213,0.107C0.213,0.107 0.211,0.109 0.21,0.109C0.209,0.109 0.208,0.108 0.207,0.107C0.207,0.106 0.205,0.104 0.205,0.104C0.204,0.104 0.203,0.105 0.202,0.105L0.198,0.105C0.193,0.104 0.188,0.102 0.183,0.101C0.182,0.101 0.18,0.101 0.179,0.1C0.177,0.1 0.175,0.099 0.174,0.098C0.172,0.098 0.171,0.097 0.169,0.097C0.168,0.096 0.168,0.097 0.167,0.096C0.166,0.096 0.165,0.094 0.164,0.093C0.162,0.09 0.161,0.088 0.159,0.085C0.158,0.084 0.157,0.082 0.156,0.081C0.155,0.081 0.154,0.082 0.152,0.082C0.144,0.082 0.137,0.083 0.128,0.084C0.124,0.084 0.119,0.085 0.115,0.084C0.113,0.084 0.111,0.083 0.109,0.083C0.106,0.083 0.102,0.083 0.099,0.084C0.095,0.085 0.093,0.088 0.088,0.088C0.085,0.089 0.083,0.088 0.08,0.088C0.078,0.089 0.076,0.089 0.074,0.09C0.072,0.091 0.07,0.091 0.068,0.092C0.067,0.093 0.065,0.094 0.064,0.095C0.06,0.098 0.056,0.1 0.051,0.103C0.049,0.103 0.048,0.104 0.047,0.105C0.045,0.106 0.044,0.107 0.043,0.108C0.039,0.11 0.036,0.114 0.031,0.114L0.025,0.114L0.024,0.115C0.023,0.115 0.023,0.116 0.022,0.116C0.02,0.117 0.018,0.117 0.015,0.116L0.011,0.116C0.009,0.116 0.008,0.115 0.007,0.114C0.005,0.11 0.004,0.104 0.003,0.098C0.003,0.095 0.003,0.092 0.002,0.09C0.001,0.081 0,0.072 0,0.062C-0,0.059 -0,0.057 0.002,0.055C0.002,0.054 0.003,0.053 0.004,0.052C0.006,0.051 0.007,0.05 0.01,0.05C0.014,0.049 0.018,0.049 0.021,0.051C0.022,0.05 0.023,0.049 0.025,0.049C0.026,0.047 0.027,0.046 0.028,0.044C0.029,0.043 0.03,0.042 0.031,0.041L0.046,0.041C0.049,0.041 0.051,0.04 0.053,0.041C0.054,0.042 0.054,0.043 0.054,0.043C0.056,0.042 0.057,0.041 0.059,0.041C0.062,0.041 0.065,0.042 0.068,0.042C0.07,0.042 0.071,0.041 0.073,0.041C0.074,0.041 0.076,0.042 0.077,0.042C0.078,0.043 0.079,0.043 0.08,0.043C0.08,0.043 0.081,0.043 0.083,0.042C0.085,0.041 0.088,0.039 0.09,0.038C0.094,0.037 0.099,0.036 0.103,0.035C0.105,0.035 0.107,0.035 0.11,0.034C0.111,0.034 0.112,0.034 0.113,0.033C0.123,0.032 0.133,0.031 0.142,0.03C0.144,0.029 0.146,0.029 0.148,0.028C0.15,0.028 0.153,0.027 0.155,0.027C0.157,0.027 0.157,0.027 0.158,0.028C0.164,0.022 0.169,0.016 0.177,0.011C0.182,0.008 0.188,0.004 0.194,0.001C0.197,-0 0.2,-0.002 0.204,-0.001C0.207,-0.001 0.209,0 0.212,0.001C0.214,0.001 0.216,0.002 0.217,0.003C0.22,0.003 0.222,0.002 0.224,0.002C0.229,0.003 0.233,0.004 0.238,0.005C0.243,0.005 0.248,0.003 0.252,0.002C0.251,0.001 0.249,0.001 0.247,0.001C0.245,0 0.244,0 0.242,0C0.231,-0.001 0.221,-0.003 0.21,-0.004C0.207,-0.005 0.204,-0.005 0.201,-0.006C0.198,-0.007 0.196,-0.008 0.194,-0.009C0.189,-0.012 0.186,-0.015 0.184,-0.021L0.182,-0.021C0.182,-0.019 0.181,-0.017 0.18,-0.015C0.179,-0.014 0.178,-0.014 0.176,-0.015C0.174,-0.015 0.173,-0.015 0.172,-0.016C0.171,-0.016 0.17,-0.017 0.169,-0.018C0.167,-0.019 0.165,-0.021 0.163,-0.022C0.158,-0.025 0.151,-0.023 0.145,-0.023C0.141,-0.024 0.137,-0.024 0.134,-0.026C0.133,-0.026 0.132,-0.027 0.131,-0.027C0.127,-0.028 0.126,-0.026 0.124,-0.024C0.121,-0.021 0.117,-0.02 0.112,-0.02C0.104,-0.018 0.095,-0.017 0.085,-0.018C0.084,-0.017 0.084,-0.015 0.082,-0.015L0.075,-0.015C0.073,-0.016 0.071,-0.016 0.069,-0.016C0.067,-0.016 0.066,-0.017 0.064,-0.018C0.063,-0.02 0.061,-0.021 0.06,-0.022C0.059,-0.026 0.058,-0.032 0.057,-0.038C0.057,-0.04 0.056,-0.043 0.056,-0.046L0.056,-0.055C0.057,-0.055 0.058,-0.056 0.059,-0.056C0.062,-0.058 0.065,-0.059 0.067,-0.06C0.068,-0.067 0.066,-0.074 0.065,-0.08C0.065,-0.087 0.062,-0.09 0.058,-0.094C0.056,-0.096 0.055,-0.098 0.054,-0.101C0.053,-0.104 0.053,-0.107 0.052,-0.11C0.051,-0.121 0.052,-0.133 0.053,-0.143C0.055,-0.153 0.058,-0.161 0.062,-0.169C0.063,-0.17 0.064,-0.173 0.065,-0.173C0.066,-0.174 0.069,-0.174 0.07,-0.174C0.073,-0.174 0.074,-0.173 0.076,-0.172C0.076,-0.171 0.076,-0.171 0.077,-0.17L0.078,-0.171C0.082,-0.171 0.084,-0.169 0.086,-0.167C0.088,-0.166 0.09,-0.165 0.09,-0.163C0.091,-0.16 0.092,-0.156 0.092,-0.152C0.092,-0.143 0.092,-0.135 0.093,-0.128C0.093,-0.124 0.094,-0.12 0.096,-0.118L0.097,-0.118C0.099,-0.118 0.1,-0.118 0.101,-0.117C0.105,-0.116 0.106,-0.113 0.108,-0.11C0.109,-0.11 0.11,-0.11 0.11,-0.109C0.111,-0.109 0.111,-0.108 0.111,-0.107C0.112,-0.105 0.114,-0.104 0.115,-0.103C0.117,-0.101 0.119,-0.099 0.121,-0.097C0.123,-0.096 0.125,-0.094 0.127,-0.092C0.128,-0.091 0.133,-0.086 0.133,-0.086C0.134,-0.086 0.135,-0.087 0.135,-0.087L0.142,-0.087C0.147,-0.086 0.15,-0.085 0.153,-0.083C0.155,-0.082 0.157,-0.081 0.159,-0.081C0.161,-0.08 0.163,-0.08 0.166,-0.079L0.173,-0.079C0.175,-0.079 0.178,-0.08 0.179,-0.082C0.179,-0.083 0.179,-0.086 0.178,-0.088C0.178,-0.089 0.178,-0.09 0.177,-0.091C0.177,-0.091 0.176,-0.092 0.176,-0.093C0.176,-0.097 0.182,-0.097 0.186,-0.097C0.192,-0.098 0.199,-0.098 0.205,-0.098C0.208,-0.097 0.211,-0.097 0.214,-0.097C0.218,-0.097 0.222,-0.097 0.226,-0.096L0.24,-0.096C0.241,-0.096 0.242,-0.096 0.244,-0.097C0.245,-0.097 0.246,-0.098 0.248,-0.098C0.25,-0.099 0.253,-0.1 0.255,-0.1C0.263,-0.101 0.272,-0.101 0.28,-0.101C0.28,-0.113 0.28,-0.123 0.283,-0.132C0.284,-0.137 0.285,-0.141 0.287,-0.144C0.289,-0.148 0.292,-0.151 0.294,-0.155C0.299,-0.161 0.306,-0.165 0.315,-0.167C0.324,-0.169 0.336,-0.17 0.346,-0.169C0.37,-0.165 0.389,-0.156 0.407,-0.147C0.41,-0.145 0.413,-0.144 0.416,-0.142C0.418,-0.141 0.421,-0.14 0.423,-0.139C0.424,-0.138 0.425,-0.137 0.425,-0.137C0.426,-0.137 0.427,-0.138 0.428,-0.139C0.432,-0.142 0.437,-0.144 0.441,-0.147C0.442,-0.147 0.443,-0.148 0.444,-0.148C0.444,-0.149 0.443,-0.15 0.443,-0.15C0.443,-0.151 0.441,-0.152 0.441,-0.153C0.441,-0.154 0.442,-0.154 0.444,-0.155C0.444,-0.154 0.444,-0.153 0.446,-0.153C0.446,-0.153 0.447,-0.153 0.447,-0.154C0.448,-0.154 0.449,-0.155 0.449,-0.155C0.451,-0.156 0.452,-0.154 0.453,-0.154C0.454,-0.154 0.455,-0.155 0.455,-0.155C0.457,-0.156 0.458,-0.157 0.46,-0.158C0.462,-0.159 0.464,-0.16 0.467,-0.16C0.47,-0.161 0.473,-0.16 0.475,-0.159C0.48,-0.156 0.484,-0.152 0.488,-0.148C0.492,-0.143 0.495,-0.137 0.495,-0.128L0.495,-0.127C0.494,-0.126 0.494,-0.125 0.494,-0.124C0.495,-0.124 0.496,-0.124 0.496,-0.122C0.498,-0.124 0.499,-0.126 0.502,-0.126C0.503,-0.126 0.505,-0.125 0.506,-0.125C0.51,-0.123 0.514,-0.12 0.515,-0.117C0.516,-0.116 0.515,-0.115 0.516,-0.114L0.516,-0.109C0.515,-0.108 0.515,-0.107 0.514,-0.106C0.514,-0.106 0.513,-0.106 0.513,-0.105C0.513,-0.104 0.516,-0.103 0.516,-0.103C0.517,-0.103 0.519,-0.104 0.52,-0.105C0.524,-0.106 0.528,-0.107 0.531,-0.108C0.532,-0.109 0.532,-0.11 0.533,-0.111C0.533,-0.112 0.534,-0.113 0.534,-0.114L0.53,-0.114C0.529,-0.117 0.528,-0.121 0.528,-0.125C0.529,-0.126 0.532,-0.126 0.533,-0.126C0.533,-0.125 0.533,-0.124 0.534,-0.124L0.546,-0.124C0.548,-0.125 0.55,-0.126 0.552,-0.125C0.554,-0.125 0.557,-0.124 0.559,-0.123C0.561,-0.122 0.563,-0.121 0.565,-0.121C0.566,-0.12 0.567,-0.12 0.568,-0.12C0.57,-0.12 0.571,-0.119 0.572,-0.118C0.573,-0.118 0.573,-0.119 0.574,-0.119C0.576,-0.118 0.578,-0.116 0.58,-0.115C0.581,-0.114 0.582,-0.114 0.582,-0.113L0.586,-0.113C0.587,-0.112 0.588,-0.112 0.59,-0.112C0.591,-0.112 0.592,-0.113 0.593,-0.114L0.6,-0.114C0.61,-0.114 0.62,-0.113 0.629,-0.113C0.632,-0.113 0.634,-0.113 0.637,-0.112C0.638,-0.112 0.64,-0.112 0.641,-0.111C0.646,-0.11 0.65,-0.109 0.655,-0.108C0.658,-0.107 0.661,-0.107 0.665,-0.107L0.676,-0.107C0.676,-0.108 0.675,-0.108 0.675,-0.109C0.676,-0.11 0.678,-0.11 0.679,-0.109C0.68,-0.109 0.681,-0.108 0.682,-0.108C0.683,-0.108 0.685,-0.109 0.686,-0.109C0.693,-0.109 0.7,-0.106 0.708,-0.107L0.708,-0.115C0.708,-0.118 0.709,-0.12 0.71,-0.122C0.711,-0.126 0.713,-0.13 0.715,-0.133C0.733,-0.132 0.751,-0.13 0.769,-0.129C0.77,-0.13 0.771,-0.131 0.772,-0.131L0.775,-0.131C0.776,-0.131 0.777,-0.131 0.778,-0.13C0.786,-0.13 0.794,-0.129 0.803,-0.128L0.809,-0.128C0.81,-0.127 0.81,-0.125 0.81,-0.124C0.813,-0.124 0.814,-0.123 0.814,-0.12L0.815,-0.12L0.815,-0.116C0.815,-0.115 0.814,-0.116 0.814,-0.115C0.813,-0.115 0.813,-0.115 0.813,-0.114C0.816,-0.113 0.819,-0.112 0.822,-0.112C0.822,-0.111 0.824,-0.109 0.825,-0.109L0.826,-0.11C0.826,-0.11 0.827,-0.109 0.828,-0.109L0.83,-0.109C0.832,-0.109 0.833,-0.107 0.833,-0.106C0.833,-0.105 0.832,-0.103 0.831,-0.103L0.828,-0.103C0.827,-0.104 0.826,-0.104 0.825,-0.104C0.825,-0.104 0.825,-0.105 0.824,-0.105C0.823,-0.105 0.822,-0.105 0.821,-0.106C0.821,-0.105 0.821,-0.104 0.82,-0.104C0.82,-0.104 0.819,-0.105 0.818,-0.105C0.816,-0.105 0.814,-0.106 0.812,-0.107C0.812,-0.106 0.811,-0.105 0.809,-0.105C0.809,-0.104 0.808,-0.102 0.808,-0.101C0.812,-0.097 0.816,-0.093 0.82,-0.09C0.821,-0.089 0.822,-0.088 0.822,-0.088C0.825,-0.088 0.829,-0.088 0.829,-0.085C0.833,-0.082 0.838,-0.079 0.842,-0.077C0.843,-0.077 0.844,-0.078 0.845,-0.078C0.846,-0.079 0.848,-0.079 0.848,-0.08C0.848,-0.081 0.847,-0.081 0.846,-0.081C0.844,-0.082 0.843,-0.08 0.842,-0.081C0.843,-0.082 0.846,-0.082 0.849,-0.083C0.849,-0.083 0.85,-0.083 0.85,-0.084C0.847,-0.085 0.845,-0.086 0.843,-0.088C0.846,-0.087 0.848,-0.085 0.852,-0.086C0.853,-0.087 0.853,-0.089 0.852,-0.089L0.849,-0.089C0.848,-0.089 0.846,-0.091 0.845,-0.091C0.847,-0.091 0.849,-0.09 0.851,-0.09C0.851,-0.091 0.85,-0.091 0.85,-0.091C0.851,-0.091 0.854,-0.089 0.855,-0.091C0.855,-0.092 0.853,-0.092 0.853,-0.093C0.854,-0.093 0.855,-0.092 0.857,-0.093C0.855,-0.094 0.853,-0.094 0.852,-0.096C0.853,-0.096 0.855,-0.095 0.856,-0.095C0.855,-0.098 0.852,-0.099 0.85,-0.101C0.852,-0.1 0.854,-0.099 0.856,-0.099L0.856,-0.1C0.856,-0.1 0.855,-0.1 0.856,-0.101C0.857,-0.099 0.859,-0.097 0.862,-0.098C0.862,-0.099 0.861,-0.099 0.86,-0.099C0.863,-0.099 0.865,-0.099 0.867,-0.1C0.869,-0.1 0.87,-0.102 0.872,-0.103C0.877,-0.106 0.883,-0.108 0.889,-0.109L0.89,-0.11L0.898,-0.11C0.901,-0.115 0.906,-0.118 0.913,-0.118C0.913,-0.119 0.913,-0.12 0.914,-0.121C0.915,-0.121 0.916,-0.118 0.918,-0.117L0.923,-0.117C0.924,-0.117 0.925,-0.118 0.926,-0.118C0.928,-0.118 0.93,-0.118 0.932,-0.119C0.931,-0.119 0.93,-0.119 0.931,-0.12C0.936,-0.12 0.942,-0.12 0.948,-0.119L0.948,-0.12C0.95,-0.12 0.951,-0.119 0.953,-0.12C0.952,-0.12 0.951,-0.121 0.949,-0.122C0.947,-0.122 0.945,-0.121 0.943,-0.121C0.946,-0.123 0.95,-0.123 0.953,-0.122C0.954,-0.121 0.956,-0.12 0.957,-0.12C0.959,-0.119 0.96,-0.12 0.961,-0.12C0.962,-0.119 0.962,-0.119 0.963,-0.119C0.965,-0.117 0.966,-0.114 0.97,-0.113C0.97,-0.113 0.97,-0.114 0.971,-0.115C0.972,-0.114 0.972,-0.112 0.974,-0.112L0.974,-0.113C0.976,-0.113 0.976,-0.109 0.978,-0.109C0.98,-0.109 0.98,-0.111 0.98,-0.113C0.981,-0.112 0.981,-0.111 0.982,-0.11C0.983,-0.108 0.983,-0.105 0.984,-0.103C0.985,-0.104 0.985,-0.105 0.986,-0.106C0.987,-0.103 0.988,-0.101 0.988,-0.097C0.989,-0.097 0.989,-0.098 0.989,-0.098L0.989,-0.093C0.989,-0.092 0.989,-0.091 0.99,-0.091C0.991,-0.091 0.991,-0.093 0.992,-0.094L0.992,-0.091C0.992,-0.09 0.991,-0.09 0.991,-0.089C0.994,-0.088 0.997,-0.086 0.999,-0.084C0.997,-0.084 0.996,-0.085 0.995,-0.086C0.994,-0.087 0.992,-0.087 0.992,-0.087C0.99,-0.086 0.99,-0.083 0.992,-0.083C0.993,-0.083 0.993,-0.084 0.994,-0.085C0.995,-0.083 0.995,-0.081 0.997,-0.079C0.997,-0.079 0.998,-0.08 0.998,-0.079C0.998,-0.077 0.997,-0.074 1,-0.075C0.999,-0.074 0.998,-0.074 0.998,-0.073ZM0.852,0.099C0.854,0.098 0.856,0.097 0.857,0.095C0.859,0.094 0.86,0.093 0.862,0.092L0.862,0.091C0.858,0.091 0.854,0.09 0.853,0.087C0.851,0.081 0.85,0.076 0.848,0.071C0.848,0.072 0.847,0.072 0.847,0.072C0.848,0.081 0.851,0.09 0.852,0.099ZM0.825,0.115C0.822,0.116 0.82,0.115 0.817,0.116C0.816,0.116 0.814,0.118 0.813,0.118C0.812,0.118 0.811,0.118 0.811,0.117C0.807,0.117 0.804,0.118 0.8,0.118C0.801,0.119 0.802,0.119 0.803,0.12C0.806,0.121 0.809,0.122 0.811,0.122C0.817,0.121 0.822,0.118 0.825,0.116L0.825,0.115ZM0.538,0.129C0.545,0.128 0.552,0.127 0.558,0.125C0.564,0.124 0.569,0.123 0.574,0.121C0.573,0.118 0.572,0.115 0.57,0.113C0.565,0.116 0.56,0.119 0.554,0.122C0.549,0.124 0.544,0.127 0.538,0.129L0.536,0.129C0.537,0.13 0.538,0.129 0.538,0.129ZM0.565,0.101C0.564,0.099 0.563,0.098 0.563,0.097C0.562,0.096 0.562,0.095 0.561,0.094C0.556,0.095 0.552,0.097 0.548,0.098L0.548,0.11C0.555,0.109 0.561,0.106 0.565,0.101ZM0.498,-0.108C0.503,-0.108 0.506,-0.107 0.509,-0.106C0.51,-0.109 0.51,-0.113 0.512,-0.115C0.511,-0.118 0.507,-0.121 0.504,-0.122C0.502,-0.122 0.5,-0.122 0.499,-0.121C0.5,-0.12 0.5,-0.119 0.5,-0.117C0.5,-0.116 0.499,-0.116 0.499,-0.115C0.498,-0.115 0.498,-0.114 0.499,-0.113C0.499,-0.113 0.499,-0.112 0.498,-0.112L0.498,-0.108ZM0.431,0.129L0.431,0.138C0.453,0.137 0.474,0.134 0.492,0.129L0.476,0.129C0.474,0.129 0.472,0.129 0.47,0.13C0.469,0.13 0.469,0.131 0.469,0.131L0.464,0.131C0.462,0.131 0.46,0.132 0.459,0.131C0.457,0.131 0.457,0.129 0.456,0.129C0.448,0.129 0.439,0.128 0.431,0.129ZM0.416,-0.131C0.417,-0.132 0.418,-0.132 0.419,-0.133C0.418,-0.134 0.415,-0.135 0.414,-0.136C0.409,-0.139 0.404,-0.142 0.398,-0.145C0.395,-0.147 0.391,-0.148 0.387,-0.15C0.38,-0.153 0.372,-0.156 0.364,-0.158C0.359,-0.159 0.355,-0.161 0.35,-0.161C0.346,-0.162 0.341,-0.163 0.336,-0.163C0.331,-0.163 0.325,-0.164 0.321,-0.163C0.318,-0.162 0.314,-0.161 0.311,-0.16C0.303,-0.156 0.297,-0.15 0.293,-0.142C0.287,-0.132 0.284,-0.118 0.286,-0.102C0.3,-0.104 0.316,-0.106 0.33,-0.109C0.346,-0.111 0.363,-0.11 0.379,-0.109C0.391,-0.108 0.401,-0.11 0.411,-0.111L0.411,-0.116C0.411,-0.123 0.413,-0.128 0.416,-0.131ZM0.388,0.085C0.385,0.085 0.381,0.086 0.378,0.086L0.374,0.086C0.374,0.087 0.372,0.089 0.372,0.09L0.371,0.091C0.37,0.092 0.37,0.093 0.37,0.093L0.37,0.095C0.369,0.096 0.369,0.096 0.368,0.096C0.367,0.1 0.364,0.105 0.362,0.108C0.361,0.11 0.359,0.112 0.36,0.115C0.361,0.117 0.363,0.118 0.364,0.12C0.371,0.119 0.379,0.12 0.385,0.118C0.386,0.107 0.387,0.096 0.388,0.085ZM0.377,0.129C0.377,0.128 0.378,0.128 0.379,0.127L0.379,0.124C0.376,0.124 0.371,0.125 0.367,0.125C0.366,0.126 0.366,0.127 0.367,0.127L0.367,0.13C0.369,0.132 0.37,0.134 0.37,0.137C0.371,0.138 0.372,0.14 0.373,0.14C0.374,0.14 0.375,0.139 0.375,0.139C0.376,0.138 0.377,0.137 0.377,0.135C0.377,0.134 0.376,0.132 0.376,0.131C0.376,0.13 0.376,0.129 0.377,0.129ZM0.36,0.088C0.362,0.088 0.363,0.09 0.365,0.09C0.366,0.089 0.366,0.088 0.367,0.087L0.366,0.087C0.357,0.087 0.347,0.088 0.337,0.088C0.332,0.088 0.327,0.088 0.323,0.089C0.316,0.09 0.309,0.091 0.302,0.092C0.305,0.098 0.308,0.104 0.312,0.108C0.315,0.11 0.318,0.112 0.321,0.113C0.331,0.117 0.344,0.12 0.358,0.12C0.358,0.113 0.358,0.105 0.36,0.1C0.361,0.098 0.362,0.096 0.362,0.094C0.362,0.093 0.36,0.093 0.359,0.092L0.359,0.091C0.359,0.09 0.36,0.089 0.36,0.088Z" style="fill:url(#_Linear1);fill-rule:nonzero;"/>
    </g>
    <g transform="matrix(1,0,0,1,-147.233,-9.99992)">
        <path d="M181.754,88.581C181.812,89.014 181.719,89.701 181.353,90.077C181.172,90.03 181.207,89.872 181.135,89.769C181.27,90.585 181.921,91.275 181.375,92.341C180.438,92.283 179.645,92.509 179.23,93.471C179.443,93.322 179.578,93.02 179.76,92.81C180.545,92.143 182.046,92.868 182.962,92.456C182.775,92.992 182.737,93.45 182.975,93.767C182.621,92.633 183.827,91.266 184.74,91.365C185.871,91.488 186.295,92.363 186.829,92.989C187.269,93.504 187.845,93.844 188.069,94.3C187.799,94.938 186.642,94.793 185.914,94.477C184.945,94.054 185.003,93.009 183.92,92.924C184.699,93.006 184.793,93.802 185.365,94.339C185.719,94.671 186.246,95.046 186.068,95.595C186.358,95.386 186.039,95.08 186.085,94.808C186.225,94.866 186.305,94.808 186.455,94.887C186.463,95.407 186.64,95.951 187.265,96.06C187.185,96.547 186.818,97.055 186.358,97.153C186.183,97.191 185.943,97.092 185.715,97.065C185.064,96.987 184.281,97.246 183.904,97.154C183.148,96.974 182.801,96.377 182.603,95.904C182.597,96.397 182.916,96.723 183.27,97.03C182.389,98.032 180.214,97.473 179.77,96.219C179.709,96.339 179.869,96.348 179.808,96.469C177.551,96.758 175.315,97.091 173.036,97.335C173.376,95.863 174.461,95.491 175.066,94.227C174.878,94.196 174.922,94.61 174.724,94.554C174.8,93.735 174.532,93.094 174.06,92.558C173.984,92.687 174.198,92.667 174.097,92.808C173.482,92.886 172.72,92.86 172.388,93.445C172.143,93.878 172.301,94.526 171.877,94.785C171.257,94.528 171.732,93.99 171.71,93.463C171.689,93.032 171.033,92.597 170.555,92.497C170.032,92.39 169.219,92.739 169.025,92.084C169.406,91.62 170.23,92.019 170.666,91.662C170.228,91.715 169.551,91.605 169.244,91.283C169.378,90.651 170.304,90.799 170.923,91.112C170.737,90.764 169.926,90.776 169.678,90.671C169.73,90.343 170.032,90.548 170.262,90.582C170.904,90.675 171.687,90.547 172.174,91.158C172.217,91.276 172.16,91.445 172.202,91.563C172.332,90.47 172.436,87.891 173.943,88.125C175.051,88.297 175.525,89.402 175.693,90.192C175.232,90.792 175.193,91.549 175.391,92.115C175.514,92.476 175.804,92.767 175.818,93.124C175.885,93.176 175.948,93.047 175.989,93.056C175.999,93.074 176.01,93.092 176.02,93.11C176.012,93.074 176.001,93.059 175.989,93.056C175.604,92.378 175.125,91.453 175.802,90.347C176.289,89.549 177.197,89.543 177.635,88.958C177.834,88.693 177.847,88.341 177.995,88.084C178.451,87.3 179.307,87.257 180.181,87.323C180.283,87.181 179.967,87.253 180.001,87.146C180.384,86.219 181.562,86.378 181.776,87.164C181.898,87.607 181.743,88.089 182.122,88.304C182.387,88.456 182.624,88.343 182.827,88.453C182.636,89.13 181.944,89.042 181.754,88.581C181.743,88.5 181.726,88.428 181.706,88.369C181.71,88.446 181.727,88.517 181.754,88.581ZM179.771,89.211C179.648,89.244 179.562,89.348 179.391,89.286C179.335,89.404 179.463,89.428 179.477,89.511C179.661,89.56 179.761,89.445 179.927,89.459C180.059,89.534 180.076,89.715 179.968,89.829C180.308,89.743 180.041,89.274 179.771,89.211ZM176.809,91.879C176.79,91.864 176.769,91.851 176.746,91.839C176.767,91.853 176.788,91.866 176.809,91.879ZM176.809,91.879C177.093,92.106 176.863,92.646 177.137,92.836C177.639,93.184 177.963,92.689 178.179,92.182C178.652,92.052 179.047,91.772 179.558,91.716C179.64,91.854 179.648,92.029 179.539,92.264C179.892,92.184 179.788,91.669 179.485,91.573C178.749,91.899 177.754,92.46 176.809,91.879ZM178.005,89.037C178.235,89.164 178.41,88.707 178.767,88.887C178.581,88.613 178.137,88.82 178.005,89.037ZM178.105,89.466C178.19,89.483 178.237,89.517 178.225,89.584C178.109,89.648 177.95,89.874 177.993,90.063C178.052,90.082 178.112,90.102 178.171,90.121C178.445,89.978 178.384,89.317 178.105,89.466ZM177.094,93.218C177.275,93.532 177.961,93.413 177.832,93.139C177.704,93.398 177.299,93.289 177.094,93.218ZM177.56,91.033C177.54,91.385 178.22,91.5 178.229,91.168C178.039,91.487 177.644,91.121 177.56,91.033ZM179.212,90.456C179.602,90.644 179.744,89.906 179.373,89.953C179.432,90.089 179.125,90.258 179.212,90.456ZM188.858,93.207C188.762,93.216 188.661,93.213 188.548,93.186C189.043,93.609 189.88,93.215 190.115,93.851C190.294,94.33 189.869,94.906 189.509,95.119C189.251,95.273 188.639,95.403 188.273,95.513C187.823,95.65 187.275,95.928 186.989,95.812C186.737,95.711 186.576,95.275 186.718,95.052C186.974,94.654 188.059,95.185 188.202,94.382C188.249,94.119 188.135,94.126 187.97,93.872C188.018,93.615 188.218,93.654 188.324,93.51C188.065,93.397 187.886,93.745 187.755,93.683C186.794,92.81 186.259,91.298 184.403,91.178C184.969,89.957 184.86,88.677 185.4,87.222C185.692,86.437 186.215,85.351 186.764,85.207C187.359,85.05 187.977,85.516 188.106,85.956C188.293,86.599 187.953,87.67 187.631,88.535C187.222,89.635 186.406,90.523 186.359,91.254C186.311,92.025 187.115,91.928 187.565,91.564C188.777,90.585 189.754,88.032 191.159,87.296C191.393,87.173 191.8,86.995 192.182,87.191C192.626,87.417 192.635,88.142 192.353,88.75C192.02,89.468 191.386,90.044 190.858,90.565C190.281,91.134 189.631,91.539 189.192,92.048C188.88,92.408 188.764,92.768 188.858,93.207ZM175.548,103.056C175.537,102.902 175.169,102.671 175.161,102.415C175.515,102.538 175.775,102.683 176.104,102.68C174.797,102.25 173.877,101.369 173.388,100.419C175.898,100.077 178.422,99.763 180.923,99.402C180.874,100.248 180.89,101.054 180.662,101.931C180.035,104.351 177.675,104.537 176.666,106.346C176.172,106.072 175.689,106.3 175.297,106.419C175.856,106.298 176.705,106.308 177.185,106.829C177.162,107.02 176.982,106.903 176.924,107.022C177.534,106.9 178.302,107.33 178.124,107.963C177.895,107.9 177.848,107.84 177.659,107.814C177.967,108.072 178.739,108.354 178.336,108.785C177.693,108.763 177.479,108.328 176.983,108.19C176.365,108.019 175.817,108.282 175.049,107.923C174.926,107.866 174.788,107.701 174.629,107.629C174.025,107.361 173.338,107.567 172.978,107.098C172.381,106.32 173.416,105.152 173.954,104.561C174.423,104.048 175.015,103.59 175.175,102.737C175.302,102.842 175.415,102.954 175.548,103.056ZM173.35,106.069C173.47,106.17 173.74,106.259 173.84,106.147C173.476,106.156 173.419,105.876 173.416,105.615C173.353,105.788 173.297,105.956 173.35,106.069Z" style="fill:white;"/>
    </g>
    <defs>
        <linearGradient id="_Linear1" x1="0" y1="0" x2="1" y2="0" gradientUnits="userSpaceOnUse" gradientTransform="matrix(0.999999,0,0,0.999999,7.76431e-07,-0.000780242)"><stop offset="0" style="stop-color:rgb(0,34,83);stop-opacity:1"/><stop offset="1" style="stop-color:rgb(0,94,173);stop-opacity:1"/></linearGradient>
    </defs>
</svg>
