<?xml version="1.0" encoding="UTF-8" standalone="no"?>
<!DOCTYPE svg PUBLIC "-//W3C//DTD SVG 1.1//EN" "http://www.w3.org/Graphics/SVG/1.1/DTD/svg11.dtd">
<svg width="100%" height="100%" viewBox="0 0 243 400" version="1.1" xmlns="http://www.w3.org/2000/svg" xmlns:xlink="http://www.w3.org/1999/xlink" xml:space="preserve" xmlns:serif="http://www.serif.com/" style="fill-rule:evenodd;clip-rule:evenodd;stroke-linejoin:round;stroke-miterlimit:2;">
    <g transform="matrix(0.506371,0,0,0.506371,123.045,263.1)">
        <path d="M0,-226.478C0,-226.478 -1.652,-228.13 -3.139,-228.957C-4.599,-229.767 -7.804,-232.324 -7.919,-232.417C-7.836,-232.354 -7.247,-232.052 -6.94,-235.73C-6.609,-239.696 -8.922,-239.696 -8.757,-241.182C-8.591,-242.669 -7.435,-240.687 -6.444,-246.8C-5.453,-252.914 -7.269,-263.488 -7.269,-263.488C-7.269,-263.488 -5.784,-258.036 -3.966,-256.548C-2.148,-255.061 2.479,-252.914 2.479,-252.914C2.479,-252.914 6.443,-241.844 9.748,-238.374C13.053,-234.904 13.053,-234.574 16.521,-234.409C19.992,-234.243 24.287,-235.73 24.287,-235.73L0,-226.478ZM-136.252,-262.383C-136.778,-265.309 -137.095,-269.24 -137.268,-273.606C-136.33,-270.041 -134.905,-266.421 -133.293,-262.947L-136.252,-262.383ZM235.881,-173.91C234.553,-180.544 229.412,-206.917 227.588,-212.225C225.764,-217.533 225.098,-252.034 225.098,-253.527C225.098,-255.02 223.271,-269.119 222.607,-271.441C221.945,-273.763 223.936,-280.231 224.268,-283.383C224.6,-286.535 220.949,-285.54 217.799,-285.54C214.646,-285.54 197.064,-287.696 197.064,-287.696C197.064,-287.696 197.064,-288.857 196.734,-289.686C196.402,-290.516 194.41,-291.013 190.762,-291.51C187.113,-292.008 176,-295.823 176,-295.823L172.848,-297.482C169.695,-299.14 160.408,-301.96 158.086,-301.628C155.766,-301.296 142.162,-298.311 142.162,-298.311C142.162,-298.311 140.006,-299.14 133.869,-298.145C127.732,-297.15 120.104,-292.671 117.947,-292.174C115.791,-291.677 97.709,-284.212 97.709,-284.212C97.709,-284.212 96.217,-286.369 95.055,-286.203C93.893,-286.037 93.064,-284.875 91.24,-283.383C89.416,-281.89 82.449,-278.075 82.449,-278.075C82.449,-278.075 81.621,-278.075 79.299,-277.578C76.975,-277.08 75.648,-276.084 75.648,-276.084C75.648,-276.084 73.492,-277.412 72.332,-277.08C71.172,-276.748 64.869,-278.241 60.223,-277.08C55.578,-275.918 54.418,-274.426 52.594,-270.943C50.77,-267.46 47.285,-267.293 45.461,-267.459C43.637,-267.625 44.633,-273.099 42.641,-273.265C40.65,-273.431 38.826,-273.265 38.826,-273.265C38.826,-273.265 39.158,-277.744 38.494,-283.217C37.83,-288.691 34.182,-289.852 34.182,-289.852L34.846,-293.666C34.846,-293.666 40.32,-303.287 39.324,-307.433C38.33,-311.58 34.348,-320.703 32.689,-327.503C31.031,-334.304 28.873,-352.052 23.732,-362.999C18.59,-373.946 2.336,-371.624 2.336,-371.624C2.336,-371.624 -1.645,-374.776 -3.801,-374.61C-5.958,-374.444 -20.223,-379.254 -20.223,-379.254C-20.223,-379.254 -19.56,-382.572 -19.061,-383.401C-18.563,-384.23 -19.725,-385.391 -21.052,-384.894C-22.379,-384.397 -24.701,-387.713 -28.682,-388.874C-32.663,-390.036 -36.809,-388.708 -36.809,-388.708C-36.809,-388.708 -37.473,-390.865 -39.629,-393.187C-41.786,-395.509 -44.771,-393.685 -44.771,-393.685L-46.596,-399.656L-42.124,-403.267L-27.473,-423.335L-17.238,-435.778L-21.251,-463.072L-38.512,-492.372L-64.801,-500.6L-89.285,-492.573L-99.921,-463.272L-100.668,-450.413C-100.668,-450.413 -102.659,-442.949 -101.995,-432.665C-101.332,-422.381 -89.223,-403.14 -89.223,-403.14C-89.223,-403.14 -89.887,-399.824 -91.379,-394.682C-92.872,-389.54 -94.365,-387.383 -94.365,-387.383C-94.365,-387.383 -95.644,-390.69 -97.231,-393.072C-98.819,-395.454 -99.878,-396.512 -99.878,-396.512C-99.878,-396.512 -99.349,-401.804 -103.847,-401.804C-108.345,-401.804 -109.668,-402.069 -109.668,-402.069C-109.668,-402.069 -112.579,-405.508 -114.167,-404.715C-115.754,-403.921 -112.579,-398.364 -114.432,-394.395C-116.284,-390.425 -118.666,-390.425 -118.93,-388.044C-119.195,-385.663 -122.855,-380.211 -122.855,-380.211C-122.855,-380.211 -121.047,-377.459 -127.662,-374.813C-134.278,-372.167 -137.188,-347.029 -137.188,-344.118C-137.188,-343.082 -137.055,-337.098 -136.977,-329.179C-137.431,-345.65 -138.6,-366.555 -141.604,-365.132C-146.521,-362.804 -150.403,-362.022 -152.214,-360.728C-154.026,-359.435 -163.599,-334.336 -164.116,-321.399C-164.562,-310.258 -167.691,-289.725 -167.891,-280.6C-168.34,-278.528 -168.643,-276.633 -168.413,-275.714C-168.016,-274.127 -167.487,-270.952 -168.678,-269.099C-169.862,-267.256 -171.439,-261.347 -171.976,-247.866C-176.514,-253.194 -182.387,-258.647 -189.255,-263.672C-209.492,-278.483 -230.672,-283.966 -236.56,-275.92C-237.405,-274.766 -240.62,-270.373 -241.464,-269.219C-247.352,-261.172 -235.72,-242.643 -215.48,-227.833C-195.384,-213.127 -174.366,-207.624 -168.309,-215.426L-157.597,-215.426C-157.583,-215.412 -157.578,-215.396 -157.564,-215.382C-156.505,-214.324 -154.786,-212.604 -152.933,-208.502C-151.081,-204.401 -145.921,-206.121 -145.921,-206.121C-145.921,-206.121 -145.392,-203.342 -144.333,-202.813C-143.274,-202.284 -141.422,-202.019 -138.776,-201.887C-136.13,-201.754 -135.865,-200.564 -133.219,-200.697C-130.573,-200.829 -125.413,-203.74 -124.354,-204.797C-124.2,-204.953 -123.948,-205.255 -123.645,-205.649L-123.561,-205.591L-114.029,-202.755C-116.246,-193.379 -121.047,-182.438 -121.047,-182.438C-121.047,-182.438 -129.515,-161.004 -135.072,-140.893C-140.628,-120.783 -144.333,-89.823 -153.065,-44.044C-161.798,1.734 -170.794,28.99 -173.441,45.131C-176.087,61.273 -176.087,75.827 -176.087,75.827C-176.087,75.827 -173.97,82.707 -170.53,84.294C-167.09,85.882 -162.592,84.03 -162.592,84.03L-164.179,91.704C-165.767,99.377 -163.121,95.672 -161.798,95.672C-160.475,95.672 -160.475,97.79 -157.299,99.377C-154.124,100.965 -153.595,99.642 -149.89,99.642C-146.186,99.642 -148.038,103.083 -142.746,103.346C-137.453,103.612 -136.13,102.024 -136.13,102.024C-136.13,102.024 -137.453,109.433 -134.807,111.286C-132.161,113.137 -127.398,114.99 -127.398,114.99C-127.398,114.99 -130.838,129.279 -129.515,130.602C-128.191,131.925 -119.195,132.719 -114.432,132.455C-109.668,132.19 -102.259,134.307 -94.585,134.043C-89.885,133.879 -86.483,134.511 -84.546,135.026C-83.135,139.953 -79.088,154.217 -76.148,165.975C-72.957,178.739 -69.797,190.321 -69.18,197.553C-68.563,204.786 -69.445,210.696 -70.768,212.724C-72.091,214.751 -79.412,226.396 -83.557,233.452C-87.703,240.507 -93.525,240.685 -97.847,243.419C-102.168,246.153 -104.945,247.829 -107.373,249.273C-111.596,251.784 -113.931,252.957 -114.813,254.984C-115.696,257.012 -116.454,257.715 -116.719,258.332C-116.984,258.948 -117.65,260.008 -117.209,261.684C-116.767,263.36 -114.866,262.919 -114.866,262.919C-114.866,262.919 -115.396,264.595 -114.249,265.477C-113.102,266.359 -109.927,266.624 -109.927,266.624C-109.927,266.624 -109.662,268.211 -108.251,268.74C-106.84,269.27 -104.016,268.33 -104.016,268.33C-104.016,268.33 -101.886,271.307 -96.221,270.042C-86.372,267.842 -86.456,266.326 -84.134,265.332C-81.812,264.337 -79.158,265.497 -74.513,260.853C-69.869,256.209 -67.381,255.633 -65.059,253.477C-62.736,251.321 -60.746,252.481 -55.272,251.486C-49.799,250.491 -33.709,250.492 -31.056,246.51C-28.403,242.528 -27.241,235.065 -28.568,229.924C-29.895,224.783 -33.378,213.668 -34.208,208.029C-35.037,202.389 -37.856,170.21 -37.856,170.21C-37.856,170.21 -35.203,178.836 -32.216,189.95C-29.231,201.062 -27.407,207.366 -24.588,212.009C-21.77,216.654 -14.206,231.582 -13.542,239.045C-12.878,246.51 -11.198,245.184 -10.534,249.165C-9.87,253.145 -9.225,254.14 -9.557,258.121C-9.889,262.101 -5.427,266.581 -1.433,266.581C5.191,266.581 2.283,258.785 2.283,258.785C2.283,258.785 3.277,259.946 4.107,262.101C4.936,264.257 6.596,264.756 10.078,264.756C13.563,264.756 14.557,262.101 14.557,262.101C14.557,262.101 16.713,263.594 18.703,262.93C20.693,262.267 21.855,259.946 21.855,259.946C21.855,259.946 26.002,259.614 26.666,255.964C27.328,252.316 26.332,250.158 26.332,250.158C26.332,250.158 28.324,249.661 29.152,247.172C29.98,244.684 28.986,242.694 28.156,241.201C27.326,239.709 26.664,238.713 26.498,237.717C26.334,236.722 26.168,230.751 24.176,223.952C22.186,217.151 17.211,207.365 13.893,200.067C10.574,192.769 5.932,187.957 5.932,185.469C5.932,182.983 5.434,174.522 3.775,170.542C2.117,166.561 -1.035,163.906 -2.86,161.75C-4.684,159.593 -5.68,158.1 -7.007,154.617C-8.334,151.133 -11.817,141.182 -11.817,138.197C-11.817,136.244 -12.03,131.254 -12.176,128.026C-11.117,127.809 -10.347,127.621 -9.935,127.471C-9.935,127.471 -1.309,124.651 11.297,119.675C23.902,114.7 27.385,110.885 27.385,110.885C27.385,110.885 42.645,104.251 52.432,98.114C62.219,91.976 72.832,86.004 72.832,86.004C72.832,86.004 81.955,80.531 86.766,78.21C91.574,75.887 97.215,74.726 106.338,69.418C115.459,64.11 120.271,59.299 128.232,51.338C136.195,43.377 142.996,28.78 147.641,25.131C152.285,21.482 155.768,14.35 161.076,4.563C166.383,-5.223 176.5,-21.312 181.311,-30.932C186.121,-40.552 188.111,-46.69 189.604,-52.164C191.096,-57.636 194.746,-64.935 197.73,-69.082C200.717,-73.229 199.723,-83.015 199.555,-88.157C199.389,-93.297 200.385,-106.733 200.385,-106.733C200.385,-106.733 212.328,-122.822 217.801,-131.613C223.273,-140.404 237.207,-167.275 235.881,-173.91" style="fill:url(#_Linear1);fill-rule:nonzero;"/>
    </g>
    <g transform="matrix(0.506371,0,0,0.506371,64.0114,241.175)">
        <path d="M0,-335.684L-5.146,-332.068C-5.146,-332.068 -5.912,-327.339 -7.511,-324.557C-9.109,-321.776 -9.597,-321.497 -9.597,-321.497C-9.597,-321.497 -8.831,-320.036 -9.248,-314.612C-9.665,-309.189 -11.126,-308.423 -11.126,-308.423C-11.126,-308.423 -8.552,-305.781 -8.622,-301.121C-8.692,-296.462 -10.987,-289.717 -10.987,-289.717C-10.987,-289.717 -9.875,-284.988 -11.126,-280.538C-12.378,-276.087 -13.63,-273.723 -13.63,-273.723C-13.63,-273.723 -11.821,-271.913 -11.126,-267.672C-10.431,-263.431 -12.795,-258.076 -12.795,-258.076C-12.795,-258.076 -9.874,-250.008 -9.388,-244.306C-8.901,-238.604 -9.735,-235.127 -9.735,-235.127C-9.735,-235.127 -7.997,-233.667 -6.954,-230.468C-5.911,-227.27 -6.954,-223.237 -6.954,-223.237C-6.954,-223.237 -3.546,-216.629 -2.434,-210.51C-1.322,-204.391 -2.295,-201.818 -2.295,-201.818C-2.295,-201.818 4.103,-198.966 4.033,-189.717C3.963,-180.469 3.338,-180.817 3.338,-180.817C3.338,-180.817 8.691,-174.418 9.248,-168.299C9.805,-162.18 7.579,-158.007 7.579,-158.007C7.579,-158.007 8.831,-157.312 9.248,-154.043C9.666,-150.775 7.44,-147.16 7.44,-147.16C7.44,-147.16 9.388,-143.335 8.901,-139.441C8.414,-135.546 7.51,-134.573 7.51,-134.573C7.51,-134.573 11.265,-133.459 11.543,-128.662C11.821,-123.863 5.702,-117.396 5.702,-117.396C5.702,-117.396 7.37,-115.517 6.604,-110.65C5.84,-105.783 3.962,-102.374 3.962,-102.374C3.962,-102.374 6.048,-99.733 5.84,-93.683C5.631,-87.633 3.197,-84.294 3.197,-84.294C3.197,-84.294 7.995,-77.966 5.631,-72.612C3.266,-67.258 1.528,-66.423 1.528,-66.423C1.528,-66.423 3.266,-63.989 3.336,-60.79C3.406,-57.592 2.78,-55.505 2.78,-55.505C2.78,-55.505 7.161,-55.854 9.038,-48.76C10.916,-41.667 7.995,-29.637 7.995,-29.637C7.995,-29.637 9.247,-29.153 9.665,-27.762C10.082,-26.371 9.943,-25.049 9.943,-25.049C9.943,-25.049 11.751,-24.494 11.334,-19.695C10.917,-14.897 7.857,-12.462 7.857,-12.462C7.857,-12.462 10.013,-10.865 10.291,-7.736C10.569,-4.607 8.552,-1.338 8.552,-1.338C8.552,-1.338 9.457,-1.061 9.595,-0.295C9.734,0.469 9.039,1.583 9.039,1.583C9.039,1.583 9.317,2.278 9.457,2.765C9.595,3.252 9.108,4.226 9.108,4.226C9.108,4.226 9.874,4.852 9.734,5.2C9.595,5.546 9.317,6.243 9.317,6.243C9.317,6.243 12.517,6.801 14.186,11.53C15.854,16.257 15.854,21.891 14.463,26.758C13.073,31.626 12.725,33.019 12.656,37.191C12.586,41.363 12.099,43.171 12.099,43.171L12.168,34.131C12.168,34.131 10.778,38.303 10.778,42.615C10.778,46.926 9.665,48.596 9.387,53.602C9.109,58.608 5.979,64.451 5.979,64.451C5.979,64.451 9.179,47.552 6.953,54.645C4.728,61.738 4.102,66.885 3.685,70.571C3.268,74.255 4.449,76.134 2.78,81.766C1.112,87.399 0.069,89.486 0.069,89.486C0.069,89.486 0.903,91.362 -0.349,98.941C-1.601,106.521 -4.66,111.458 -4.66,111.458C-4.66,111.458 -4.521,112.504 -6.051,116.119C-7.582,119.734 -9.042,122.587 -9.042,122.587C-9.042,122.587 -8.485,111.946 -9.667,120.221C-10.849,128.497 -11.753,140.11 -11.753,140.11C-11.753,140.11 -14.744,140.597 -15.647,133.712C-16.551,126.828 -17.177,114.242 -17.177,114.242C-17.177,114.242 -17.525,123.63 -17.247,127.106C-16.969,130.583 -16.83,132.113 -16.83,132.113C-16.83,132.113 -18.22,130.652 -19.194,125.994C-20.167,121.335 -20.029,119.387 -20.029,119.387C-20.029,119.387 -22.462,119.108 -23.019,114.171C-23.575,109.235 -24.688,104.435 -23.714,92.058C-22.741,79.681 -20.446,72.31 -20.446,72.31C-20.446,72.31 -22.045,74.535 -22.88,76.831C-21.906,62.645 -19.89,51.102 -17.665,44.287C-15.439,37.472 -11.406,28.433 -8.277,21.339C-5.147,14.247 1.041,7.779 1.041,7.779C1.041,7.779 0.207,6.875 0.207,5.971C0.207,5.068 1.111,4.164 1.111,4.164C1.111,4.164 0.067,3.538 -0.002,3.19C-0.071,2.842 0.902,2.287 0.902,2.287C0.902,2.287 -0.071,2.147 -0.071,1.382C-0.071,0.617 0.763,-0.079 0.763,-0.079C0.763,-0.079 0.067,-1.121 0.137,-1.538C0.207,-1.955 0.693,-2.234 0.693,-2.234C0.693,-2.234 -0.837,-2.65 -2.019,-5.015C-3.201,-7.38 -1.045,-10.509 -1.045,-10.509C-1.045,-10.509 -9.319,-12.246 -8.346,-18.505C-7.373,-24.764 -4.522,-25.807 -4.522,-25.807C-4.522,-25.807 -5.703,-27.893 -5.843,-29.91C-5.982,-31.926 -5.287,-33.527 -5.287,-33.527C-5.287,-33.527 -7.999,-35.543 -7.999,-37.769C-7.999,-39.995 -7.651,-41.315 -7.651,-41.315C-7.651,-41.315 -13.075,-44.655 -13.354,-53.347C-13.631,-62.038 -12.449,-63.638 -12.449,-63.638C-12.449,-63.638 -15.927,-66.001 -15.022,-70.8C-14.119,-75.598 -10.572,-79.562 -10.572,-79.562C-10.572,-79.562 -12.588,-80.119 -11.962,-83.943C-11.336,-87.768 -9.668,-89.993 -9.668,-89.993L-8.207,-92.218C-8.207,-92.218 -11.754,-92.983 -11.336,-99.797C-10.919,-106.613 -6.747,-110.506 -6.747,-110.506C-6.747,-110.506 -11.742,-113.34 -10.155,-119.823C-8.567,-126.306 -6.186,-130.275 -6.186,-130.275C-6.186,-130.275 -8.17,-133.319 -7.905,-136.626C-7.641,-139.934 -6.45,-141.654 -6.45,-141.654C-6.45,-141.654 -8.832,-143.638 -8.038,-147.475C-7.244,-151.312 -5.524,-153.694 -5.524,-153.694C-5.524,-153.694 -7.641,-156.207 -7.508,-158.325C-7.376,-160.442 -6.979,-162.293 -6.979,-162.293C-6.979,-162.293 -2.878,-166.66 -2.481,-167.718C-2.084,-168.777 -1.555,-170.1 -1.422,-172.746C-1.29,-175.392 -0.849,-176.892 -2.084,-178.038C-3.318,-179.185 -5.612,-179.097 -5.612,-179.097C-5.612,-179.097 -5.788,-180.949 -6.67,-181.655L-7.552,-182.361C-7.552,-182.361 -7.022,-185.182 -10.375,-185.623C-13.727,-186.065 -15.05,-186.417 -15.05,-186.417C-15.05,-186.417 -13.727,-188.094 -18.049,-192.416C-22.371,-196.738 -23.518,-196.914 -23.518,-196.914L-26.693,-199.825C-26.693,-199.825 -28.898,-204.059 -29.516,-211.556C-30.133,-219.054 -29.163,-221.612 -29.163,-221.612C-29.163,-221.612 -32.956,-225.934 -33.309,-231.932C-33.662,-237.929 -33.573,-238.988 -33.573,-238.988C-33.573,-238.988 -34.984,-239.077 -35.161,-239.606C-35.337,-240.134 -34.984,-240.928 -34.984,-240.928C-34.984,-240.928 -36.219,-240.84 -35.866,-241.811C-35.514,-242.781 -34.984,-243.839 -34.984,-243.839L-36.484,-244.28L-36.396,-245.427C-36.396,-245.427 -39.13,-245.338 -39.218,-245.868C-39.306,-246.397 -38.16,-248.162 -38.16,-248.162C-38.16,-248.162 -39.835,-248.514 -39.835,-249.308C-39.835,-250.102 -38.336,-250.631 -38.336,-250.631C-38.336,-250.631 -40.63,-253.895 -40.277,-254.777C-39.924,-255.659 -38.248,-255.923 -38.248,-255.923L-35.425,-255.967C-35.425,-255.967 -44.819,-261.789 -44.819,-269.993C-44.819,-278.196 -38.601,-284.546 -38.601,-284.546C-38.601,-284.546 -43.893,-292.617 -42.041,-298.306C-40.188,-303.996 -36.616,-306.641 -36.616,-306.641C-36.616,-306.641 -45.663,-314.222 -41.115,-325.033C-37.419,-333.816 -32.256,-333.989 -32.256,-333.989C-32.256,-333.989 -35.698,-338.634 -28.987,-344.83C-22.112,-351.175 -18.093,-346.863 -18.093,-346.863C-18.093,-346.863 -15.05,-349.245 -9.758,-347.525C-4.465,-345.804 -2.613,-344.614 -2.613,-344.614C-2.613,-344.614 -1.422,-341.571 -1.29,-339.851C-1.158,-338.13 0,-335.684 0,-335.684M70.042,-362.377C69.842,-357.962 69.986,-356.358 69.986,-356.358C69.986,-356.358 73.966,-354.7 76.621,-356.358C79.275,-358.017 78.113,-361.334 78.113,-361.334C78.113,-361.334 79.772,-363.823 80.933,-365.647C82.094,-367.471 82.924,-369.296 82.924,-369.296C82.924,-369.296 84.914,-369.462 87.07,-371.619C89.226,-373.775 89.891,-379.414 89.891,-379.414C89.891,-379.414 93.208,-379.414 94.369,-379.913C95.531,-380.41 96.691,-382.732 96.691,-382.732C96.691,-382.732 98.351,-382.566 100.506,-384.224C102.662,-385.883 101.667,-389.533 101.667,-389.533C101.667,-389.533 105.647,-386.878 107.804,-386.38C109.96,-385.883 108.136,-389.699 106.312,-391.191C104.487,-392.683 105.482,-395.006 105.482,-395.006C105.482,-395.006 109.131,-394.176 109.96,-399.65C110.789,-405.124 107.639,-403.796 107.971,-405.788C108.302,-407.778 108.136,-409.436 108.136,-409.436C108.136,-409.436 109.131,-410.431 111.122,-411.924C113.112,-413.417 111.619,-413.582 109.795,-412.919C107.971,-412.255 111.122,-416.071 112.283,-417.729C113.443,-419.388 115.435,-422.373 114.273,-422.042C113.112,-421.711 109.96,-420.217 109.96,-420.217C109.96,-420.217 113.111,-424.531 112.116,-424.365C111.121,-424.199 110.127,-424.033 110.127,-424.033L111.287,-427.515C111.287,-427.515 109.463,-427.515 107.639,-427.184C105.814,-426.852 103.989,-429.008 103.989,-429.008C103.989,-429.008 104.984,-440.62 96.525,-449.742C88.067,-458.864 78.445,-455.381 78.445,-455.381C78.445,-455.381 76.123,-476.281 52.072,-476.281C28.021,-476.281 29.515,-468.153 29.515,-468.153C29.515,-468.153 28.022,-467.656 24.704,-465.831C21.387,-464.006 19.894,-460.689 19.894,-460.689C19.894,-460.689 17.904,-459.694 16.909,-457.704C15.913,-455.713 16.245,-452.396 16.245,-452.396C16.245,-452.396 15.25,-451.235 14.586,-449.079C13.923,-446.922 14.089,-442.278 14.089,-442.278L13.757,-439.458C13.425,-436.639 13.426,-434.98 13.426,-434.98C13.426,-434.98 11.767,-438.131 11.435,-439.458C11.103,-440.786 12.43,-444.434 12.43,-444.434C12.43,-444.434 11.269,-444.268 9.279,-443.605C7.288,-442.941 4.303,-439.623 3.971,-432.658C3.639,-425.691 9.61,-422.042 9.61,-422.042C9.61,-422.042 14.758,-417.064 14.758,-412.419C14.758,-407.774 15.914,-407.115 15.914,-407.115L18.065,-416.162C18.065,-416.162 21.878,-423.386 24.487,-426.196C27.096,-429.005 31.912,-433.42 36.327,-440.042C40.743,-446.665 43.151,-450.479 43.151,-450.479C43.151,-450.479 51.579,-453.489 58.604,-451.482C65.628,-449.475 70.243,-444.257 70.243,-444.257C70.243,-444.257 75.461,-441.649 79.274,-437.635C83.087,-433.622 86.901,-427.801 86.299,-421.58C85.696,-415.359 83.688,-410.743 83.288,-407.532C82.887,-404.321 84.692,-399.705 87.101,-399.504C89.509,-399.303 92.118,-400.91 92.118,-400.91C92.118,-400.91 92.318,-399.705 93.724,-398.903C95.128,-398.099 94.928,-397.096 94.928,-397.096C94.928,-397.096 93.122,-392.681 93.122,-390.473C93.122,-388.266 92.119,-385.858 88.707,-383.048C85.295,-380.239 83.891,-380.239 82.687,-381.242C81.481,-382.246 80.479,-385.255 80.479,-385.255C80.479,-385.255 78.271,-381.242 76.465,-377.429C74.659,-373.616 71.247,-368.799 71.247,-368.799C71.247,-368.799 70.243,-366.792 70.042,-362.377" style="fill:white;fill-rule:nonzero;"/>
    </g>
    <defs>
        <linearGradient id="_Linear1" x1="0" y1="0" x2="1" y2="0" gradientUnits="userSpaceOnUse" gradientTransform="matrix(4.83695e-14,-789.934,789.934,4.83695e-14,-3.51194,270.355)"><stop offset="0" style="stop-color:rgb(0,34,83);stop-opacity:1"/><stop offset="1" style="stop-color:rgb(0,94,173);stop-opacity:1"/></linearGradient>
    </defs>
</svg>
