<?xml version="1.0" encoding="UTF-8" standalone="no"?>
<!DOCTYPE svg PUBLIC "-//W3C//DTD SVG 1.1//EN" "http://www.w3.org/Graphics/SVG/1.1/DTD/svg11.dtd">
<svg width="100%" height="100%" viewBox="0 0 161 400" version="1.1" xmlns="http://www.w3.org/2000/svg" xmlns:xlink="http://www.w3.org/1999/xlink" xml:space="preserve" xmlns:serif="http://www.serif.com/" style="fill-rule:evenodd;clip-rule:evenodd;stroke-linejoin:round;stroke-miterlimit:2;">
    <g transform="matrix(0.503967,0,0,0.503968,6.31738,249.154)">
        <path d="M0,-194.37C-0.588,-189.37 3.202,-188.865 7.148,-188.242C10.448,-187.721 11.601,-187.724 14.937,-187.987C12.899,-190.806 7.807,-193.172 5.361,-196.284C4.501,-197.378 4.083,-198.562 4.211,-200.114C2.193,-198.594 0.301,-196.934 0,-194.37M131.366,-492.467C132.014,-490.602 130.279,-490.755 129.068,-490.68C125.308,-490.447 121.645,-489.201 118.344,-488.381C115.928,-487.782 113.619,-487.346 111.578,-486.466C109.546,-485.59 107.971,-484.121 105.96,-483.53C105.063,-469.832 105.405,-454.894 105.068,-440.635C106.06,-440.537 106.688,-440.801 107.621,-440.762C109.759,-449.66 112.587,-457.06 117.451,-462.976C122.137,-468.676 129.825,-472.161 137.75,-474.594C146.031,-477.138 156.428,-478.567 166.093,-477.275C175.286,-476.044 183.507,-473.113 191.369,-470.636C193.298,-473.838 194.775,-477.457 196.604,-481.232C197.136,-482.332 197.731,-484.128 198.901,-484.168C200.628,-484.227 201.307,-481.269 201.838,-479.445C203.022,-475.379 204.106,-471.589 205.284,-467.572C205.869,-465.577 206.812,-463.58 207.071,-461.699C207.726,-456.933 206.73,-452.697 207.071,-448.423C207.445,-443.738 208.718,-438.449 208.477,-432.975C209.837,-432.721 211.293,-432.559 212.559,-432.209C215.447,-429.079 216.228,-423.875 216.774,-418.422C218.143,-404.737 218.288,-390.332 219.328,-376.291C219.419,-375.06 219.481,-373.547 219.582,-372.079C219.688,-370.569 220.065,-368.865 219.839,-367.866C219.423,-366.042 216.712,-365.303 215.753,-363.781C220.807,-363.626 227.221,-364.917 231.966,-363.27C234.247,-362.478 235.373,-361.434 238.605,-361.227C241.298,-361.055 243.807,-360.857 245.753,-359.824C249.201,-357.993 251.683,-354.106 253.925,-350.759C256.357,-347.126 258.421,-343.521 260.69,-340.291C263.089,-336.879 266.095,-334.128 268.606,-330.971C271.271,-327.622 273.291,-324.118 275.117,-320.247C276.959,-316.337 279.743,-313.218 281.371,-309.267C283.036,-305.232 283.311,-300.298 284.821,-295.608C285.526,-293.411 287.171,-291.005 288.395,-288.713C291.459,-282.971 294.248,-277.652 297.585,-271.735C298.414,-270.265 299.501,-269.265 299.373,-267.65C299.161,-264.97 296.367,-263.918 294.139,-262.926C291.701,-263.934 289.759,-265.44 287.501,-266.628C287.762,-254.554 287.99,-242.171 287.501,-229.095C287.101,-218.415 288.266,-207.458 288.522,-196.795C288.56,-195.192 288.879,-193.477 288.649,-192.199C288.458,-191.14 287.611,-190.888 287.373,-189.901C286.965,-188.206 287.373,-185.543 287.373,-183.391C287.373,-168.579 286.812,-152.411 289.031,-139.601C289.637,-136.113 290.527,-132.633 291.585,-129.133C292.621,-125.708 293.917,-122.391 294.266,-118.919C295.068,-110.953 295.725,-103.439 297.33,-96.067C298.636,-95.742 300.141,-94.779 300.139,-92.748C300.457,-92.449 301.354,-93.391 301.671,-92.748C301.686,-89.541 299.11,-87.821 297.458,-85.855C298.078,-83.879 300.858,-83.448 301.671,-81.641C301.901,-81.13 301.763,-80.508 301.926,-79.984C302.179,-79.175 303.05,-78.492 302.819,-77.431C302.379,-78.817 300.806,-79.076 300.268,-80.366C299.288,-80.051 299.373,-78.861 298.479,-78.833C297.673,-78.81 297.334,-80.408 296.182,-79.599C295.635,-78.706 296.675,-76.531 295.927,-75.387C296.338,-74.168 298.078,-73.798 298.225,-72.322C298.293,-71.631 297.554,-71.038 297.585,-70.279C297.648,-68.757 300.395,-67.888 300.268,-65.813C300.216,-64.972 299.149,-64.66 299.117,-63.768C299.095,-63.119 299.98,-62.746 300.139,-61.982C300.196,-61.713 299.964,-61.078 300.013,-60.579C300.098,-59.668 300.583,-57.192 300.395,-56.109C300.251,-55.288 299.489,-54.122 298.225,-54.066C297.999,-55.625 298.933,-56.661 298.861,-57.641C298.658,-58.42 297.505,-57.42 297.076,-58.025C296.784,-59.422 296.812,-61.164 297.33,-62.364C297.266,-62.938 296.228,-62.54 296.182,-63.131C296.123,-63.87 296.544,-64.13 296.69,-64.661C295.943,-65.872 294.27,-66.153 294.139,-67.982C293.229,-68.625 292.455,-68.739 292.352,-69.77C292.203,-71.232 293.701,-72.317 292.862,-73.727C292.324,-74.632 290.965,-74.506 289.926,-75.133C289.821,-73.885 290.601,-72.28 289.926,-71.301C289.231,-70.398 287.093,-70.629 285.97,-70.536C284.87,-69.007 286.146,-67.357 286.096,-65.557C286.077,-64.887 285.485,-64.264 285.33,-63.641C285.096,-62.707 285.487,-61.99 284.947,-61.854C282.889,-61.334 284.953,-64.775 284.947,-65.429C284.936,-66.419 284.165,-66.406 283.926,-67.217C284.067,-67.925 284.595,-68.251 284.563,-69.133C284.116,-69.909 282.791,-70.084 281.755,-69.897C281.22,-68.929 281.813,-68.563 281.499,-67.6C281.113,-66.419 279.715,-66.154 279.585,-65.174C279.512,-64.622 280.066,-63.485 280.223,-62.62C280.687,-60.078 280.965,-56.506 281.244,-54.066C281.674,-50.338 282.378,-46.099 282.393,-42.449C282.396,-41.705 282.12,-40.782 282.266,-40.15C282.487,-39.185 284.185,-38.243 285.203,-36.96C286.267,-35.617 286.786,-34.129 287.501,-33.258C288.117,-32.504 290.014,-31.616 290.309,-30.577C290.546,-29.748 290.308,-28.816 290.437,-28.15C290.689,-26.859 291.274,-25.846 291.841,-25.087C292.391,-24.347 293.546,-23.97 293.628,-22.788C292.288,-22.437 291.547,-23.087 290.819,-24.065C290.284,-24.787 289.148,-25.979 289.031,-26.49C288.79,-27.555 289.688,-28.599 288.522,-28.919C286.546,-29.454 286.866,-26.003 284.69,-27.641C283.801,-24.436 284.315,-20.983 284.563,-17.555C285.774,-0.929 286.942,16.133 288.266,33.128C288.511,36.27 288.532,39.946 288.776,43.469C289.005,46.723 289.47,50.442 290.565,52.532C290.957,53.282 292.373,53.832 292.606,54.831C292.966,56.363 291.257,58.413 291.329,60.066C291.407,61.757 292.996,62.174 293.755,63.514C294.677,63.983 295.418,63.328 296.182,63.514C296.883,63.684 297.11,64.564 297.712,64.917C298.682,65.481 299.672,64.96 300.268,65.939C298.395,67.094 296.999,63.682 295.415,65.301C295.274,66.532 296.607,67.006 296.947,68.109C297.147,68.757 297.043,69.504 297.203,70.151C297.568,71.642 299.117,73.237 298.606,75.513C297.911,74.502 298.241,73.76 297.843,72.704C297.453,71.678 296.388,71.102 296.055,70.151C295.885,69.671 296.084,69 295.927,68.492C295.591,67.422 294.328,66.386 293.372,65.939C292.648,66.602 292.794,67.884 292.606,69.001C292.487,69.708 292.063,70.542 292.096,71.174C292.157,72.427 293.475,73.687 293.628,75.002C293.698,75.617 293.499,76.229 293.501,76.917C293.509,79.4 294.027,82.328 293.884,84.833C293.838,85.597 293.375,86.365 293.372,87.131C293.372,87.896 293.823,88.661 293.884,89.428C294.02,91.193 293.045,92.659 292.99,94.407C292.971,95.048 293.336,95.685 293.372,96.322C293.457,97.778 293.088,99.119 292.99,100.536C292.128,98.294 292.425,95.899 291.841,93.513C291.407,91.747 290.433,90.115 290.182,88.277C289.943,86.543 290.413,84.791 290.437,83.046C290.459,81.36 289.816,79.996 289.544,78.32C288.883,74.274 289.941,70.16 288.904,66.193C288.732,65.532 288.21,64.953 288.139,64.279C288.027,63.239 288.705,62.019 288.522,60.96C288.222,59.216 284.981,56.655 283.798,55.471C278.471,50.143 273.381,45.618 270.011,38.617C269.201,45.385 271.163,50.485 274.223,53.81C272.664,55.186 274.923,57.591 274.223,59.554C273.813,60.709 272.527,61.035 271.032,61.342C270.565,62.069 270.168,62.861 269.755,63.64C272.321,68.781 276.401,74.313 278.053,81.258C279.333,86.64 279.255,93.059 278.946,99.515C278.855,101.424 278.846,103.657 278.436,105.386C278.134,106.655 277.141,107.538 276.903,108.961C276.199,113.213 276.543,118.133 276.266,123.131C276,127.922 274.358,132.428 274.988,137.558C276.402,149.076 277.462,162.754 276.649,175.984C276.484,178.661 275.853,182.013 276.393,184.027C276.822,185.627 277.728,187.483 278.436,189.39C279.11,191.206 280.171,193.098 280.223,194.881C280.259,196.09 279.795,197.211 279.841,198.325C279.963,201.399 280.967,205.026 281.117,208.411C281.256,211.58 281.314,213.798 282.266,216.198C282.69,217.271 283.521,217.972 283.542,219.649C283.571,221.846 282.605,223.441 281.755,225.009C287.611,236.943 295.47,247.774 301.162,259.987C302.128,262.064 302.741,264.34 303.33,266.882C303.962,269.613 305.564,272.016 305.628,275.054C305.693,278.046 304.217,280.373 303.969,283.095C303.826,284.663 304.39,286.711 304.352,288.586C304.334,289.383 303.974,290.169 303.969,290.884C303.962,291.806 304.723,292.909 304.223,294.074C303.195,294.169 302.631,293.796 301.926,293.565C296.194,298.78 285.249,300.802 276.776,298.16C268.517,295.585 264.064,289.839 260.946,282.073C257.149,272.616 253.801,262.495 250.476,252.455C249.81,250.442 249.274,248.318 248.307,246.713C246.271,243.33 241.928,241.732 240.52,238.541C238.758,234.553 238.906,228.476 238.86,223.477C237.431,220.378 235.022,218.224 234.265,215.052C233.736,212.845 233.809,210.316 233.498,207.901C232.669,201.489 230.715,194.662 229.923,187.986C229.39,183.478 228.478,179.019 227.753,174.452C227.02,169.829 226.651,165.074 226.35,160.282C225.755,150.912 224.076,141.799 222.393,132.835C221.534,128.275 220.769,124.021 219.582,119.942C218.346,115.691 216.994,111.924 217.285,106.661C217.359,105.289 217.818,103.774 217.667,102.451C217.478,100.794 216.211,99.659 215.625,97.983C214.951,96.058 214.781,93.802 214.86,91.726C214.963,88.895 216.206,85.188 214.731,83.172C214.399,82.72 213.776,82.736 213.455,82.151C212.925,81.191 213.302,80.01 213.582,78.959C212.738,77.867 212.241,76.036 212.817,74.236C210.784,74.079 207.416,74.543 206.05,73.217C205.175,72.364 204.52,70.604 203.625,69.13C201.173,65.097 200.262,59.64 198.391,54.831C197.142,51.626 195.738,48.746 194.306,45.896C192.916,43.131 191.117,40.747 189.453,37.853C187.724,34.837 187.263,31.399 185.752,28.531C184.912,26.941 184.246,25.488 183.836,23.935C183.375,22.186 183.349,20.396 182.942,18.447C182.138,14.575 181,11.53 180.389,7.978C180.047,5.984 179.552,4.607 178.602,3.255C177.473,1.648 175.129,0.064 174.773,-2.617C174.632,-3.674 174.976,-5.056 174.9,-5.428C174.728,-6.269 173.231,-7.565 172.473,-8.361C170.578,-10.36 169.072,-11.605 166.729,-13.215C165.758,-13.882 164.238,-15.114 163.539,-15.256C160.887,-15.803 159.705,-13.507 157.666,-13.086C157.362,-8.949 157.613,-5.024 156.259,-1.724C154.944,1.484 153.926,4.448 153.07,7.851C151.403,14.472 149.241,20.784 147.069,27.256C144.961,33.533 142.813,39.861 140.302,45.896C137.872,51.74 136.835,58.901 131.494,62.49C131.917,65.562 129.888,67.259 128.302,68.745C128.465,79.013 128.27,88.768 127.536,98.238C126.811,107.609 125.477,116.56 124.601,125.429C124.141,130.086 123.724,134.449 122.813,138.835C121.955,142.957 120.875,146.993 120.004,151.092C118.249,159.357 117.349,167.873 113.621,174.836C112.609,175.398 111.624,175.989 110.813,176.752C111.738,180.357 109.679,182.986 109.025,185.689C108.987,185.846 108.914,186.185 108.898,186.325C108.091,193.339 108.696,200.742 106.217,205.986C105.545,207.408 103.44,208.802 101.748,210.072C93.989,215.887 84.585,219.985 79.152,227.944C77.977,229.664 77.412,231.476 76.47,233.306C73.915,238.28 69.709,243.07 65.236,246.329C62.182,248.552 58.212,250.065 54.257,251.565C47.87,253.983 39.822,252.275 34.341,249.776C31.714,248.578 28.988,247.747 28.214,244.925C27.116,245.154 25.545,245.57 24.639,244.925C24.827,241.958 27.792,241.073 28.469,238.797C28.961,237.138 28.71,235.475 28.979,234.074C29.811,229.735 31.658,226.42 33.831,223.222C35.237,221.15 36.414,218.907 38.043,216.966C42.727,211.383 47.754,205.809 52.47,199.985C55.574,196.157 58.232,191.975 61.534,188.112C62.081,184.261 63.956,182.327 65.747,179.815C67.47,177.397 69.721,174.686 69.449,171.006C69.211,167.79 66.629,166.633 66.896,162.579C67.214,157.739 68.913,152.278 74.172,151.984C74.794,149.457 75.253,146.766 76.598,144.961C74.705,143.567 73.131,142.106 73.023,139.345C72.958,137.682 73.441,135.746 73.661,133.857C74.265,128.681 75.012,122.753 75.194,117.133C75.368,111.759 73.781,106.007 73.151,100.792C72.917,98.845 73.354,97.06 73.279,95.176C73.185,92.781 71.553,90.035 71.492,87.513C68.166,87.394 66.184,84.226 67.79,80.749C65.297,76.627 67.233,72.456 68.683,68.236C70.758,62.195 72.806,56.631 75.066,50.363C75.494,49.179 76.314,47.742 76.343,46.788C76.37,45.884 75.718,44.221 75.321,42.831C71.284,28.645 68.284,13.937 66.258,-2.745C65.899,-5.688 65.55,-8.709 65.236,-11.683C64.881,-15.039 63.977,-19.488 64.854,-22.533C65.717,-25.533 68.546,-27.951 70.47,-30.195C71.971,-31.944 73.843,-33.715 74.556,-36.066C75.123,-37.937 74.972,-39.771 76.726,-40.79C75.76,-48.417 74.928,-55.574 76.854,-62.364C77.989,-66.371 79.498,-69.844 78.769,-75.258C76.471,-72.674 73.587,-68.968 71.108,-65.682C70.251,-64.547 69.097,-63.364 68.683,-62.364C68.13,-61.034 68.369,-59.802 67.534,-58.918C67.102,-58.461 66.287,-58.371 65.492,-57.897C64.708,-57.428 64.372,-56.783 63.705,-56.747C61.925,-56.656 59.609,-58.979 58.342,-60.45C56.461,-62.633 54.126,-65.514 55.023,-69.386C55.52,-71.533 56.422,-73.527 56.811,-75.897C57.961,-82.931 58.134,-90.749 60.129,-97.344C61.826,-102.948 64.549,-109.602 67.024,-115.346C67.79,-117.122 69.376,-119.898 69.449,-121.09C69.505,-122.007 68.794,-123.39 68.555,-124.792C68.335,-126.095 68.271,-127.537 68.172,-128.877C67.964,-131.701 67.412,-135.106 67.918,-137.558C68.061,-138.256 68.438,-138.436 68.683,-138.964C68.833,-141.352 67.994,-144.261 68.812,-145.984C69.725,-147.912 74.426,-147.594 76.981,-147.9C76.552,-149.718 74.005,-151.4 73.535,-153.771C72.912,-156.908 74.222,-159.746 74.428,-162.709C67.541,-163.875 60.047,-163.493 53.491,-165.134C52.637,-165.348 51.771,-166.028 50.811,-166.028C46.792,-166.028 43.533,-166.483 40.342,-167.56C39.446,-167.863 38.468,-168.583 37.533,-168.708C35.619,-168.966 33.673,-167.963 32.043,-168.326C28.901,-169.865 26.316,-171.962 23.618,-173.943C22.752,-173.62 22.495,-173.282 21.703,-173.306C20.697,-173.334 20.388,-174.225 19.66,-174.326C18.935,-174.426 18.216,-173.739 17.489,-173.816C15.704,-174.005 14.833,-175.389 13.149,-175.986C12.856,-176.247 13.186,-177.129 12.894,-177.391C11.142,-178.872 7.823,-178.788 8.043,-182.241C1.811,-184.304 -4.999,-186.075 -4.213,-194.496C-3.661,-200.42 0.707,-203.457 4.084,-206.88C1.018,-207.172 -1.945,-206.657 -4.724,-205.988C-7.074,-205.42 -12.961,-204.193 -12.511,-207.903C-12.398,-208.836 -11.524,-209.542 -10.724,-209.945C-7.038,-211.801 1.055,-211.601 5.872,-212.497C7.198,-218.747 12.279,-221.241 17.234,-223.86C16.06,-226.386 14.484,-229.578 12.512,-232.031C11.86,-232.838 10.93,-233.949 10.979,-234.711C11.131,-237.069 16.567,-237.157 18.255,-238.158C18.753,-240.193 18.727,-242.116 19.66,-244.159C20.173,-245.281 21.807,-246.264 21.958,-247.351C22.116,-248.495 21.024,-249.744 20.937,-251.18C20.786,-253.661 22.371,-255.395 23.362,-257.181C24.118,-258.542 24.872,-259.942 25.277,-261.393C26.232,-264.813 25.958,-268.54 26.682,-272.373C27.947,-279.076 30.806,-285.334 32.681,-291.011C29.739,-290.294 28.661,-291.967 27.193,-293.565C24.701,-296.274 21.845,-299.25 19.532,-301.737C18.857,-302.039 17.819,-301.98 17.489,-302.629C18.371,-305.414 20.983,-307.159 22.979,-309.013C29.042,-314.645 35.565,-320.234 42.256,-325.354C51.195,-332.192 60.015,-339.222 68.555,-346.417C69.667,-345.701 70.204,-344.408 70.854,-343.226C74.039,-344.642 77.295,-346.266 81.45,-346.928C83.695,-347.288 86.156,-347.066 87.704,-348.205C87.933,-349.424 87.754,-351.05 87.96,-352.291C89.461,-353.003 91.02,-353.658 92.94,-353.951C93.69,-352.957 94.2,-351.722 94.983,-350.759C99.928,-352.621 105.214,-354.146 111.067,-355.099C109.536,-356.389 107.429,-358.407 104.046,-357.908C103.838,-360.129 102.597,-360.576 100.982,-361.866C99.599,-362.971 97.956,-363.811 98.812,-366.59C99.006,-367.221 99.568,-367.532 99.705,-368.122C100.118,-369.892 99.833,-372.495 99.833,-374.759C99.833,-381.955 100.282,-390.446 100.343,-397.229C99.657,-397.52 98.775,-397.617 98.301,-398.122C98.215,-400.097 98.371,-402.261 98.429,-404.378C98.486,-406.451 98.839,-408.846 98.557,-410.506C98.373,-411.59 97.282,-412.199 97.535,-413.314C97.771,-413.802 98.672,-413.625 99.194,-413.825C99.668,-421.559 98.762,-430.442 99.451,-437.827C99.536,-438.742 99.796,-439.589 100.216,-440.379C100.625,-440.737 101.331,-440.798 102.131,-440.762C102.431,-454.039 102.655,-467.389 103.024,-480.594C103.206,-481.157 102.261,-480.596 102.259,-480.976C102.35,-483.196 102.604,-485.576 100.089,-485.189C100.251,-488.246 99.263,-490.153 98.174,-491.956L98.174,-493.999C109.308,-495.172 120.736,-493.368 131.366,-492.467" style="fill:url(#_Linear1);"/>
    </g>
    <g transform="matrix(0.503967,0,0,0.503968,102.761,77.8009)">
        <path d="M0,-82.755C-22.633,-80.611 -47.556,-80.968 -71.62,-80.968C-75.596,-80.968 -79.453,-81.364 -83.237,-81.095C-83.347,-79.453 -81.895,-78.917 -80.684,-78.415C-76.893,-76.84 -72.908,-75.488 -68.811,-74.457C-63.021,-72.999 -56.505,-72.696 -50.556,-71.521C-49.804,-47.463 -48.903,-23.553 -48.13,0.482C-41.121,1.533 -33.909,0.812 -27.703,-0.54C-27.403,-24.366 -27.265,-48.356 -26.938,-72.159C-21.057,-73.94 -13.898,-74.504 -6.639,-75.989C-1.909,-76.956 2.917,-78.526 7.277,-80.202C8.55,-80.692 11.019,-81.504 11.361,-82.245C11.579,-82.714 11.68,-84.259 11.234,-84.288C7.847,-83.611 3.962,-83.131 0,-82.755" style="fill:white;"/>
    </g>
    <defs>
        <linearGradient id="_Linear1" x1="0" y1="0" x2="1" y2="0" gradientUnits="userSpaceOnUse" gradientTransform="matrix(4.86002e-14,-793.701,793.701,4.86002e-14,146.547,299.318)"><stop offset="0" style="stop-color:rgb(0,34,83);stop-opacity:1"/><stop offset="1" style="stop-color:rgb(0,94,173);stop-opacity:1"/></linearGradient>
    </defs>
</svg>
