<?xml version="1.0" encoding="UTF-8" standalone="no"?>
<!DOCTYPE svg PUBLIC "-//W3C//DTD SVG 1.1//EN" "http://www.w3.org/Graphics/SVG/1.1/DTD/svg11.dtd">
<svg width="100%" height="100%" viewBox="0 0 400 372" version="1.1" xmlns="http://www.w3.org/2000/svg" xmlns:xlink="http://www.w3.org/1999/xlink" xml:space="preserve" xmlns:serif="http://www.serif.com/" style="fill-rule:evenodd;clip-rule:evenodd;stroke-linejoin:round;stroke-miterlimit:2;">
    <g transform="matrix(0.0139021,0,0,-0.0139021,-0.0722207,380.779)">
        <path d="M20226,27143C20223,27006 20211,26600 20200,26240C20163,25041 20091,22577 20065,21650C20048,21033 20035,20728 20028,20715C20021,20703 20013,20590 20007,20432L19997,20168L19929,20124C19892,20100 19857,20073 19851,20066C19843,20057 19840,19990 19842,19854L19845,19655L19916,19616L19988,19576L19995,19399C19999,19301 19999,19199 19995,19172L19989,19123L19675,19079L19355,19104C18710,19155 18652,19155 18544,19106C18440,19058 18303,18905 18239,18765C18207,18693 18210,18711 18014,17663C17932,17228 17864,16872 17863,16874C17861,16876 17700,18468 17700,18489C17700,18511 17766,18499 17837,18464C17905,18430 17914,18428 17948,18438C17969,18445 17999,18463 18014,18479C18038,18504 18042,18515 18038,18547C18035,18568 17962,18766 17876,18986C17790,19206 17720,19390 17720,19396C17720,19402 17747,19417 17779,19429C17950,19491 18108,19624 18173,19760C18219,19856 18234,19947 18220,20038C18199,20172 18127,20280 18025,20330C17981,20352 17962,20355 17865,20355C17767,20354 17747,20351 17685,20325C17541,20266 17416,20098 17373,19907L17355,19828L17315,19834C17293,19838 17263,19849 17249,19860C17170,19917 17081,19951 16943,19975C16867,19989 16804,20000 16803,20000C16801,20000 16800,20051 16800,20113C16800,20201 16804,20236 16820,20278C16847,20350 16846,20413 16816,20465L16792,20506L16788,22999L16785,25492L16757,25515C16722,25546 16677,25559 16557,25571C16385,25589 16207,25551 16167,25488C16154,25468 16151,25257 16146,23900C16143,23039 16137,22121 16134,21860L16128,21385L16071,21438C16040,21468 15982,21508 15940,21528C15866,21564 15863,21565 15745,21565C15629,21565 15622,21564 15556,21531C15455,21481 15374,21392 15306,21253C15305,21252 15242,21260 15165,21270C15088,21280 14856,21305 14650,21326C14444,21346 14274,21363 14272,21365C14271,21366 14279,21509 14290,21681C14301,21854 14337,22447 14370,23000C14403,23553 14444,24221 14460,24484C14493,25012 14495,25060 14480,25060C14474,25060 14470,25034 14470,25002C14470,24943 14414,24036 14320,22585C14293,22162 14265,21716 14259,21595C14252,21474 14244,21372 14241,21369C14234,21362 14047,21374 13906,21391C13823,21401 13794,21409 13726,21444L13645,21485L13640,21575C13637,21625 13631,21671 13626,21679C13621,21686 13603,21698 13585,21706C13550,21720 13143,21763 12070,21864L11395,21927L11335,21958C11302,21974 11248,21994 11215,22000C11147,22014 11016,22007 10944,21985C10909,21975 10877,21974 10812,21980C10764,21985 10435,22014 10080,22045C9397,22104 8932,22150 7950,22254C7048,22350 6994,22354 6660,22347C6503,22343 6270,22334 6141,22325C6012,22317 5905,22311 5904,22313C5902,22314 5910,23398 5920,24720C5939,27026 5939,27126 5922,27149C5869,27221 5782,27244 5565,27245C5395,27245 5293,27231 5242,27200C5212,27182 5212,27181 5206,27068C5203,27006 5191,25889 5179,24585C5167,23282 5154,22212 5151,22208C5148,22205 5089,22208 5020,22216C4516,22272 4204,22290 4083,22271C3807,22226 3469,22038 3165,21758C3105,21703 2983,21632 2606,21434C2418,21336 2405,21323 2396,21231C2377,21057 2344,20148 2330,19465C2324,19185 2312,18678 2303,18340C2290,17873 2286,17347 2285,16155C2284,14724 2282,14495 2257,13571C2242,13013 2229,12555 2227,12554C2225,12552 2159,12546 2079,12540C1851,12524 1831,12521 1807,12497C1789,12479 1761,12474 1536,12455L1286,12434L1243,12457C1203,12480 1191,12481 923,12487C617,12494 567,12490 517,12456C496,12441 455,12429 406,12421C263,12400 217,12359 168,12208C139,12116 61,11742 41,11600C20,11447 9,11161 6,10673C4,10397 6,10167 9,10162C13,10155 41,10162 84,10180L153,10209L148,9747C145,9493 146,9263 150,9236C159,9177 178,9160 235,9160L276,9160L294,9027C315,8870 347,8739 397,8616C476,8417 555,8288 619,8252C672,8222 775,8210 889,8221C989,8230 1000,8228 1000,8201C1000,8171 1068,7907 1096,7830C1153,7670 1219,7572 1285,7550C1336,7533 2233,7556 2269,7575C2325,7603 2394,7724 2454,7901C2474,7958 2493,8012 2496,8020C2500,8028 2517,7980 2534,7914C2579,7745 2608,7674 2647,7633L2680,7597L2958,7604C3243,7611 3438,7624 3501,7640C3588,7663 3623,7763 3646,8053L3652,8131L3688,8109C3782,8053 4452,7603 4685,7440C4965,7244 5061,7190 5143,7182C5175,7180 5307,7137 5485,7072L5775,6965L5707,6953C5670,6946 5630,6934 5620,6927C5605,6917 5579,6914 5527,6918C5446,6923 5370,6910 5310,6881C5277,6865 5263,6864 5228,6872C5161,6887 5061,6877 4995,6846C4964,6832 4928,6820 4916,6820C4874,6820 4871,6810 4869,6673C4868,6570 4872,6536 4884,6511C4898,6484 4902,6423 4907,6097C4913,5703 4903,5432 4875,5215C4855,5062 4855,5020 4878,5020C4960,5020 5985,5111 6285,5146C6561,5177 7124,5258 7425,5309C7551,5331 7656,5347 7658,5345C7664,5340 7631,4199 7618,3935C7600,3579 7600,3557 7630,3525C7670,3482 7712,3488 8378,3622C8599,3666 8783,3701 8785,3699C8787,3697 8794,3639 8800,3570C8834,3182 8927,2782 9071,2392C9186,2082 9420,1596 9543,1412C9674,1214 9882,1034 10068,956C10209,896 10226,894 10443,914C10705,938 11215,989 11269,996L11313,1003L11307,882C11303,779 11299,757 11281,734C11269,719 11260,701 11260,694C11260,672 11335,640 11386,640C11441,640 11894,696 12910,830C14456,1033 16335,1268 18080,1475C20945,1816 21265,1856 23125,2095C23571,2152 24241,2238 24615,2285C26101,2472 26696,2557 27285,2665C27581,2719 27824,2774 27900,2803C27950,2823 27958,2830 27982,2880C28023,2965 28108,3227 28121,3309C28129,3361 28129,3395 28122,3424C28116,3446 28109,3477 28106,3492C28102,3509 28091,3521 28071,3528C28053,3534 28039,3549 28032,3569C28023,3595 28024,3600 28041,3605C28083,3619 28088,3644 28094,3890C28101,4133 28174,6668 28186,7050C28192,7261 28192,7266 28170,7293C28158,7308 28142,7320 28133,7320C28125,7320 28120,7326 28123,7332C28126,7339 28162,7424 28203,7520C28358,7885 28419,8071 28445,8252C28460,8355 28535,9892 28719,13815C28747,14398 28772,14921 28775,14976C28780,15060 28779,15080 28766,15093C28757,15102 28750,15122 28750,15139C28750,15174 28720,15210 28691,15210C28649,15210 28640,15199 28640,15150C28640,15111 28636,15100 28621,15095C28599,15088 28610,15290 28525,13390C28307,8567 28303,8482 28274,8262C28261,8159 28248,8119 28118,7772C28041,7565 27977,7394 27976,7394C27974,7391 27225,7350 27183,7350L27140,7350L27140,7434C27140,7518 27140,7518 27168,7524C27199,7530 27359,7545 27545,7560C27617,7566 27683,7573 27693,7576C27709,7581 27710,7607 27710,7946L27710,8310L27501,8735C27385,8969 27271,9189 27246,9224C27156,9351 27032,9437 26902,9463L26840,9476L26806,9547C26786,9588 26759,9628 26742,9640L26712,9663L26758,9700C26825,9753 26889,9819 26908,9854C26922,9881 26925,9941 26928,10313C26930,10548 26929,10760 26926,10785C26911,10880 26863,10906 26645,10936C26546,10950 26437,10953 26025,10954L25525,10955L25370,11043C25079,11209 24963,11257 24717,11315L24603,11342L24596,12604C24593,13297 24594,14073 24598,14327C24611,15118 24595,15309 24499,15510C24466,15580 24444,15610 24372,15680C24273,15778 24203,15821 24046,15880C23750,15991 23398,16069 22965,16119C22743,16145 21949,16220 21898,16220C21883,16220 21880,16228 21880,16268C21880,16383 21821,16513 21719,16624L21650,16698L21650,18362L21620,18391L21590,18421L21588,18763L21585,19105L21425,19118C21275,19129 21068,19124 20890,19104L20845,19099L20815,19151C20778,19214 20737,19247 20684,19256C20649,19261 20431,19217 20233,19164C20214,19159 20210,19163 20205,19197C20195,19256 20182,19280 20160,19280C20134,19280 20100,19225 20100,19183C20100,19133 20082,19135 20074,19186C20067,19233 20076,19471 20087,19543C20092,19575 20098,19583 20137,19600C20161,19610 20194,19629 20210,19640L20240,19661L20240,19850C20240,19954 20236,20050 20231,20063C20225,20079 20196,20100 20146,20126L20071,20165L20068,20445C20064,20734 20072,21038 20165,24405C20195,25500 20224,26573 20230,26790C20235,27007 20242,27231 20245,27288C20248,27344 20246,27390 20241,27390C20237,27390 20230,27279 20226,27143ZM19952,18721C19955,18718 19971,18652 19987,18575L20016,18435L20057,18435C20080,18435 20102,18432 20106,18428C20110,18423 20124,18420 20137,18420L20160,18420L20160,17638C20160,17113 20156,16820 20148,16748L20137,16641L20119,16675C20080,16748 20009,16932 19710,17740C19520,18252 19400,18591 19400,18613C19400,18632 19391,18677 19380,18712C19369,18746 19360,18777 19360,18780C19360,18788 19943,18730 19952,18721ZM18875,18650C18914,18645 18974,18635 19009,18629L19073,18617L19066,17632C19060,16757 19058,16644 19044,16629C19034,16618 19031,16604 19035,16591C19052,16535 18992,16459 18874,16387L18812,16350L18596,16350C18357,16350 18329,16355 18291,16408C18253,16461 18237,16520 18238,16605C18238,16696 18291,17038 18421,17790C18556,18574 18555,18568 18576,18591C18631,18652 18726,18670 18875,18650ZM19278,18588C19288,18585 19303,18560 19314,18529C19324,18499 19481,18079 19662,17595C19962,16795 19991,16711 19987,16670C19983,16636 19987,16609 20004,16568L20027,16511L20006,16492C19991,16479 19958,16470 19894,16462C19796,16451 19690,16418 19571,16364C19499,16331 19494,16330 19366,16330C19294,16330 19230,16334 19224,16338C19216,16343 19217,16667 19225,17490C19232,18120 19238,18637 19239,18640C19241,18643 19246,18633 19251,18619C19257,18604 19269,18590 19278,18588ZM20323,18446C20326,18438 20351,18431 20386,18427C20417,18424 20446,18418 20450,18413C20457,18406 20480,17131 20480,16764L20480,16603L20428,16596C20399,16593 20358,16587 20338,16584L20300,16577L20300,16667C20300,16740 20296,16767 20278,16806L20255,16855L20252,17648C20250,18354 20251,18440 20265,18440C20273,18440 20280,18445 20280,18450C20280,18465 20317,18462 20323,18446Z" style="fill:url(#_Linear1);fill-rule:nonzero;"/>
    </g>
    <g transform="matrix(0.0337574,0.00138219,-0.000904277,0.0395284,279.368,151.548)">
        <path d="M483.349,298.593L484.113,328.345L439.053,353.051L439.053,567.575L541.936,483.191L555.675,250.091L483.349,298.593ZM132.061,298.593L131.297,328.345L176.357,353.051L176.357,567.575L73.474,483.191L59.735,250.091L132.061,298.593ZM354.547,526.915L260.863,526.915L228.496,610.381L307.705,610.699L386.914,610.381L354.547,526.915ZM307.705,469.507L260.039,469.763L258.239,324.179L184.007,358.307L182.307,571.493L221.973,606.664L256.569,517.12L307.705,517.001L358.841,517.12L393.437,606.664L433.103,571.493L431.403,358.307L357.171,324.179L355.371,469.763L307.705,469.507ZM307.705,229.29L246.337,189.886L266.575,318.908L266.575,462.196L348.835,462.196L348.835,318.908L369.073,189.886L307.705,229.29ZM307.705,139.096L240.645,89.203L307.705,89.039L374.765,89.203L307.705,139.096ZM316.635,0.971L298.775,0.971L295.535,1.043L292.367,1.043L286.175,1.187L283.151,1.331L277.247,1.475L271.631,1.763L268.895,1.907L266.231,2.051L260.975,2.411L254.639,2.915L248.375,3.563L245.351,3.851L242.327,4.211L236.351,5.003L230.519,5.795L224.759,6.731L219.215,7.811L213.743,8.891L208.631,10.043L203.519,11.267L198.335,12.635L193.151,14.075L188.039,15.587L182.855,17.315L177.599,19.043L172.415,20.915L167.159,22.931L161.975,24.947L156.791,27.107L151.463,29.411L146.279,31.787L140.951,34.307L135.695,36.899L122.731,42.618L131.895,102.106L307.705,218.754L483.515,102.106L492.679,42.618L479.715,36.899L474.459,34.307L469.131,31.787L463.947,29.411L458.619,27.107L453.435,24.947L448.251,22.931L442.995,20.915L437.811,19.043L432.555,17.315L427.371,15.587L422.259,14.075L417.075,12.635L411.891,11.267L406.779,10.043L401.667,8.891L396.195,7.811L390.651,6.731L384.891,5.795L379.059,5.003L373.083,4.211L370.059,3.851L367.035,3.563L360.771,2.915L354.435,2.411L349.179,2.051L346.515,1.907L343.779,1.763L338.163,1.475L332.259,1.331L329.235,1.187L323.043,1.043L319.875,1.043L316.635,0.971ZM71.728,116.446L73.674,128.645L197.526,212.712L196.726,201.291L71.728,116.446ZM80.207,169.603L81.925,180.375L200.918,261.144L200.212,251.059L80.207,169.603ZM0.475,35.171L113.917,43.572L128.09,107.104L239.797,183.919L258.167,312.731L130.668,291.812L43.422,229.076L0.475,35.171ZM543.682,116.446L541.736,128.645L417.884,212.712L418.684,201.291L543.682,116.446ZM535.203,169.603L533.485,180.375L414.492,261.144L415.198,251.059L535.203,169.603ZM614.935,35.171L501.493,43.572L487.32,107.104L375.613,183.919L357.243,312.731L484.742,291.812L571.988,229.076L614.935,35.171Z" style="fill:white;"/>
    </g>
    <g transform="matrix(0.139021,-0.00532139,0,0.139021,-0.0722207,7.04233)">
        <path d="M1398.44,1728.48C1398.44,1720.65 1392.09,1714.28 1384.26,1714.28L1276.62,1714.28C1268.8,1714.28 1262.44,1720.65 1262.44,1728.48L1262.44,1794.75C1262.44,1802.59 1268.8,1808.95 1276.62,1808.95L1384.26,1808.95C1392.09,1808.95 1398.44,1802.59 1398.44,1794.75L1398.44,1728.48Z" style="fill:white;"/>
    </g>
    <g transform="matrix(0.137658,-0.00526922,0,0.139021,21.6675,6.21018)">
        <path d="M1398.44,1728.48C1398.44,1720.65 1392.03,1714.28 1384.12,1714.28L1276.76,1714.28C1268.86,1714.28 1262.44,1720.65 1262.44,1728.48L1262.44,1794.75C1262.44,1802.59 1268.86,1808.95 1276.76,1808.95L1384.12,1808.95C1392.03,1808.95 1398.44,1802.59 1398.44,1794.75L1398.44,1728.48Z" style="fill:white;"/>
    </g>
    <g transform="matrix(0.0991706,-0.00273707,0,0.120451,219.286,30.4289)">
        <path d="M1398.44,1728.48C1398.44,1720.65 1390.72,1714.28 1381.21,1714.28L1279.68,1714.28C1270.16,1714.28 1262.44,1720.65 1262.44,1728.48L1262.44,1794.75C1262.44,1802.59 1270.16,1808.95 1279.68,1808.95L1381.21,1808.95C1390.72,1808.95 1398.44,1802.59 1398.44,1794.75L1398.44,1728.48Z" style="fill:white;"/>
    </g>
    <g transform="matrix(0.0981985,-0.00271024,0,0.120451,234.794,30.001)">
        <path d="M1398.44,1728.48C1398.44,1720.65 1390.64,1714.28 1381.04,1714.28L1279.85,1714.28C1270.24,1714.28 1262.44,1720.65 1262.44,1728.48L1262.44,1794.75C1262.44,1802.59 1270.24,1808.95 1279.85,1808.95L1381.04,1808.95C1390.64,1808.95 1398.44,1802.59 1398.44,1794.75L1398.44,1728.48Z" style="fill:white;"/>
    </g>
    <defs>
        <linearGradient id="_Linear1" x1="0" y1="0" x2="1" y2="0" gradientUnits="userSpaceOnUse" gradientTransform="matrix(1.63797e-12,26750,-26750,1.63797e-12,5635.74,640)"><stop offset="0" style="stop-color:rgb(0,34,83);stop-opacity:1"/><stop offset="1" style="stop-color:rgb(0,94,173);stop-opacity:1"/></linearGradient>
    </defs>
</svg>
