<?xml version="1.0" encoding="UTF-8" standalone="no"?>
<!DOCTYPE svg PUBLIC "-//W3C//DTD SVG 1.1//EN" "http://www.w3.org/Graphics/SVG/1.1/DTD/svg11.dtd">
<svg width="100%" height="100%" viewBox="0 0 162 400" version="1.1" xmlns="http://www.w3.org/2000/svg" xmlns:xlink="http://www.w3.org/1999/xlink" xml:space="preserve" xmlns:serif="http://www.serif.com/" style="fill-rule:evenodd;clip-rule:evenodd;stroke-linejoin:round;stroke-miterlimit:2;">
    <g transform="matrix(-1.70018e-05,-399.998,-399.998,1.70018e-05,80.6206,399.999)">
        <path d="M0.945,0.036C0.937,0.036 0.937,0.038 0.926,0.037C0.916,0.037 0.905,0.033 0.9,0.031C0.896,0.029 0.888,0.029 0.88,0.026C0.871,0.024 0.864,0.017 0.864,0.017C0.864,0.017 0.858,0.016 0.854,0.018C0.851,0.019 0.845,0.024 0.84,0.029C0.833,0.037 0.831,0.043 0.831,0.055C0.831,0.065 0.829,0.079 0.82,0.09C0.804,0.11 0.781,0.111 0.772,0.111L0.742,0.111C0.742,0.111 0.739,0.113 0.728,0.117C0.717,0.121 0.717,0.12 0.705,0.123C0.694,0.125 0.693,0.127 0.682,0.136C0.671,0.145 0.667,0.149 0.653,0.154C0.639,0.16 0.616,0.168 0.59,0.177C0.563,0.186 0.549,0.194 0.541,0.198C0.533,0.202 0.519,0.201 0.499,0.201C0.479,0.202 0.481,0.2 0.479,0.198C0.477,0.196 0.476,0.189 0.476,0.189C0.476,0.189 0.476,0.188 0.475,0.188C0.473,0.188 0.473,0.18 0.473,0.179C0.472,0.178 0.468,0.173 0.468,0.171C0.469,0.168 0.471,0.165 0.475,0.163C0.478,0.16 0.481,0.161 0.481,0.161C0.481,0.161 0.48,0.157 0.48,0.156C0.48,0.155 0.48,0.153 0.482,0.151C0.485,0.149 0.485,0.15 0.488,0.151C0.49,0.152 0.498,0.156 0.501,0.157C0.505,0.159 0.509,0.159 0.513,0.162C0.517,0.164 0.523,0.169 0.525,0.17C0.527,0.17 0.533,0.169 0.538,0.168C0.543,0.167 0.552,0.163 0.564,0.156C0.576,0.15 0.591,0.138 0.603,0.128C0.615,0.118 0.617,0.117 0.635,0.107C0.653,0.097 0.663,0.094 0.667,0.091C0.672,0.089 0.69,0.073 0.69,0.073L0.677,0.072C0.664,0.071 0.662,0.066 0.654,0.066C0.647,0.066 0.639,0.07 0.628,0.072C0.616,0.075 0.597,0.075 0.59,0.075C0.583,0.075 0.578,0.077 0.565,0.08C0.552,0.083 0.532,0.087 0.517,0.088C0.502,0.09 0.497,0.09 0.48,0.094C0.463,0.098 0.404,0.105 0.383,0.103C0.362,0.102 0.34,0.1 0.325,0.102C0.317,0.103 0.316,0.102 0.308,0.101C0.3,0.101 0.29,0.1 0.282,0.102C0.274,0.104 0.252,0.106 0.228,0.104C0.205,0.102 0.154,0.103 0.143,0.103C0.133,0.103 0.122,0.109 0.115,0.117C0.108,0.124 0.103,0.133 0.103,0.133C0.095,0.145 0.091,0.153 0.086,0.167C0.082,0.18 0.082,0.183 0.073,0.183C0.064,0.183 0.06,0.166 0.06,0.166C0.06,0.147 0.061,0.131 0.067,0.117C0.073,0.103 0.073,0.089 0.074,0.073C0.075,0.057 0.081,0.058 0.085,0.057C0.089,0.057 0.092,0.059 0.094,0.059C0.096,0.059 0.104,0.062 0.109,0.063C0.114,0.063 0.121,0.065 0.125,0.064C0.129,0.062 0.14,0.064 0.143,0.064C0.146,0.065 0.162,0.061 0.202,0.048C0.242,0.035 0.257,0.039 0.271,0.041C0.285,0.043 0.299,0.043 0.305,0.042C0.311,0.041 0.321,0.035 0.328,0.035C0.335,0.036 0.349,0.034 0.356,0.031C0.362,0.027 0.394,0.017 0.422,0.008C0.449,-0.002 0.466,-0.004 0.467,-0.006C0.467,-0.007 0.465,-0.007 0.457,-0.009C0.45,-0.012 0.4,-0.03 0.357,-0.042C0.315,-0.053 0.313,-0.054 0.288,-0.067C0.263,-0.08 0.246,-0.081 0.214,-0.085C0.182,-0.089 0.161,-0.103 0.129,-0.116C0.097,-0.129 0.084,-0.125 0.071,-0.124C0.057,-0.123 0.057,-0.127 0.053,-0.127C0.05,-0.128 0.045,-0.127 0.041,-0.129C0.036,-0.13 0.034,-0.13 0.03,-0.129C0.025,-0.128 0.018,-0.129 0.011,-0.128C0.004,-0.127 -0,-0.142 -0,-0.157C-0,-0.172 0.003,-0.182 0.007,-0.188C0.012,-0.194 0.02,-0.192 0.024,-0.191C0.027,-0.191 0.049,-0.177 0.055,-0.174C0.06,-0.17 0.062,-0.171 0.067,-0.171C0.072,-0.171 0.08,-0.168 0.085,-0.167C0.09,-0.165 0.107,-0.161 0.107,-0.161C0.123,-0.158 0.146,-0.158 0.193,-0.155C0.239,-0.153 0.251,-0.148 0.262,-0.143C0.274,-0.138 0.292,-0.127 0.299,-0.125C0.306,-0.122 0.311,-0.121 0.322,-0.119C0.333,-0.118 0.353,-0.114 0.356,-0.115C0.358,-0.116 0.359,-0.116 0.361,-0.114C0.363,-0.112 0.369,-0.113 0.396,-0.112C0.424,-0.111 0.436,-0.111 0.469,-0.103C0.502,-0.096 0.526,-0.09 0.549,-0.09C0.573,-0.09 0.589,-0.084 0.595,-0.082C0.602,-0.08 0.617,-0.081 0.624,-0.084C0.632,-0.086 0.653,-0.087 0.658,-0.087C0.663,-0.087 0.671,-0.092 0.68,-0.099C0.689,-0.106 0.709,-0.116 0.709,-0.116C0.709,-0.116 0.705,-0.118 0.694,-0.123C0.683,-0.128 0.674,-0.135 0.658,-0.147C0.642,-0.159 0.634,-0.152 0.6,-0.154C0.566,-0.156 0.561,-0.157 0.541,-0.155C0.521,-0.153 0.512,-0.148 0.508,-0.146C0.504,-0.143 0.497,-0.133 0.497,-0.133C0.491,-0.121 0.489,-0.117 0.477,-0.114C0.465,-0.111 0.467,-0.118 0.467,-0.118C0.467,-0.118 0.458,-0.113 0.454,-0.115C0.449,-0.117 0.448,-0.122 0.45,-0.124C0.452,-0.126 0.452,-0.13 0.452,-0.13C0.452,-0.13 0.45,-0.133 0.449,-0.138C0.448,-0.143 0.449,-0.146 0.449,-0.146L0.449,-0.154C0.449,-0.161 0.456,-0.17 0.464,-0.173C0.472,-0.175 0.491,-0.181 0.502,-0.184C0.513,-0.186 0.514,-0.184 0.524,-0.185C0.533,-0.185 0.552,-0.193 0.579,-0.197C0.606,-0.201 0.631,-0.202 0.65,-0.202C0.67,-0.202 0.674,-0.198 0.684,-0.192C0.695,-0.186 0.709,-0.185 0.726,-0.181C0.744,-0.177 0.76,-0.164 0.76,-0.164C0.76,-0.164 0.766,-0.165 0.787,-0.16C0.809,-0.155 0.811,-0.156 0.826,-0.142C0.837,-0.131 0.837,-0.119 0.836,-0.112C0.836,-0.11 0.835,-0.108 0.836,-0.107C0.836,-0.102 0.841,-0.092 0.847,-0.084C0.853,-0.076 0.856,-0.064 0.86,-0.06C0.863,-0.056 0.867,-0.052 0.867,-0.052C0.867,-0.052 0.871,-0.054 0.876,-0.056C0.882,-0.058 0.888,-0.059 0.894,-0.059C0.899,-0.059 0.907,-0.064 0.92,-0.066C0.932,-0.068 0.937,-0.065 0.942,-0.065C0.947,-0.065 1,-0.064 1,-0.014C1,0.035 0.953,0.035 0.945,0.036Z" style="fill:url(#_Linear1);fill-rule:nonzero;"/>
    </g>
    <g transform="matrix(1.11123,0,0,1.11123,-878.991,-44.4926)">
        <path d="M863.34,72.03C864.5,72.829 864.676,74.977 862.42,75.39C860.164,75.806 857.447,74.609 856.296,72.03C855.145,69.452 855.008,65.584 855.008,65.584C855.008,65.584 859.934,69.682 863.34,72.03ZM883.275,65.722C883.275,65.722 883.045,75.253 877.475,75.253C876.046,75.253 872.87,74.561 874.62,72.583C876.369,70.602 878.627,69.451 880.466,68.209C882.308,66.965 883.275,65.722 883.275,65.722ZM859.769,123.389C859.769,123.771 859.676,124.122 859.515,124.418L861.394,125.74L861.394,130.101L857.874,131.988L854.355,129.511L854.355,125.15L856.235,124.143C856.073,123.82 855.981,123.454 855.981,123.072C855.981,121.908 856.83,121.036 857.874,121.124C858.92,121.211 859.769,122.224 859.769,123.389ZM855.039,122.039L855.039,124.064L853.08,125.299L853.08,130.086L852.394,130.783L852.394,124.825L854.294,123.627L854.294,122.455L853.641,122.094L853.643,122.089L853.641,122.089L853.641,118.802L854.324,119.292L854.324,121.645L855.039,122.039ZM853.461,122.559L853.461,123.341L850.835,124.99L850.835,131.845L850.15,132.543L850.15,124.507L852.648,122.939L851.732,122.431L851.728,122.43L851.728,117.609L852.412,118.099L852.412,121.979L853.461,122.559ZM861.455,122.958L861.455,124.129L863.355,125.646L863.355,131.605L862.668,130.792L862.668,126.005L860.711,124.442L860.711,122.419L861.423,122.143L861.423,119.788L862.108,119.414L862.108,122.702L862.106,122.702L862.107,122.706L861.455,122.958ZM863.1,123.622L865.599,125.609L865.599,133.645L864.913,132.832L864.913,125.977L862.289,123.887L862.289,123.106L863.336,122.702L863.336,118.822L864.024,118.447L864.024,123.267L864.016,123.267L863.1,123.622Z" style="fill:white;"/>
    </g>
    <defs>
        <linearGradient id="_Linear1" x1="0" y1="0" x2="1" y2="0" gradientUnits="userSpaceOnUse" gradientTransform="matrix(1,-4.25047e-08,4.25047e-08,1,-6.53211e-09,-0.15412)"><stop offset="0" style="stop-color:rgb(0,34,83);stop-opacity:1"/><stop offset="1" style="stop-color:rgb(0,94,173);stop-opacity:1"/></linearGradient>
    </defs>
</svg>
