<?xml version="1.0" encoding="UTF-8" standalone="no"?>
<!DOCTYPE svg PUBLIC "-//W3C//DTD SVG 1.1//EN" "http://www.w3.org/Graphics/SVG/1.1/DTD/svg11.dtd">
<svg width="100%" height="100%" viewBox="0 0 166 363" version="1.1" xmlns="http://www.w3.org/2000/svg" xmlns:xlink="http://www.w3.org/1999/xlink" xml:space="preserve" xmlns:serif="http://www.serif.com/" style="fill-rule:evenodd;clip-rule:evenodd;stroke-linejoin:round;stroke-miterlimit:2;">
    <g transform="matrix(1,0,0,1,98.516,81.6318)">
        <path d="M0,199.736C0,199.736 -0.065,197.829 -0.393,196.711C-0.722,195.591 -2.038,186.843 -2.038,186.843C-2.038,186.843 -1.84,190.262 -1.973,192.303C-2.104,194.341 -1.512,202.301 -1.512,202.301L0,199.736ZM-37.496,191.118L-36.643,192.369L-36.38,190.395L-37.629,188.355L-37.496,191.118ZM-37.826,196.381L-37.301,196.118L-36.904,194.013L-37.431,193.355L-37.826,196.381ZM20.896,48.77C21.184,49.369 21.76,49.778 21.688,50.378C21.616,50.977 21.447,51.649 21.447,51.649C21.447,51.649 21.904,51.506 22.071,50.617C22.239,49.729 20.896,48.77 20.896,48.77M20.32,50.737C20.849,51.577 20.849,52.201 20.849,52.201C20.849,52.201 21.064,51.265 20.943,50.449C20.824,49.633 20.464,49.898 20.057,48.842C20.057,48.842 19.792,49.898 20.32,50.737M26.031,37.01C26.031,37.01 25.84,37.466 26.15,38.211C26.464,38.954 26.943,40.107 26.943,40.107C26.943,40.107 27.111,39.507 27.136,39.146C27.16,38.786 27.063,38.474 26.751,38.043C26.44,37.61 26.031,37.01 26.031,37.01M14.064,67.448C15.842,67.683 16.078,67.213 16.548,66.878C17.018,66.542 19.533,64.73 22.318,62.818C25.103,60.904 28.492,57.315 31.344,53.925C34.196,50.537 36.345,48.456 37.184,47.516C38.023,46.577 37.855,46.309 37.652,46.107C37.453,45.906 36.312,45.134 33.728,43.255C31.145,41.376 28.929,38.725 28.929,38.725C28.929,38.725 28.996,39.933 28.996,40.437C28.996,40.94 28.66,42.618 28.157,43.758C27.654,44.9 27.554,46.812 27.554,46.812C27.554,46.812 27.486,45.671 27.486,44.865C27.486,44.061 28.157,42.584 28.292,41.577C28.427,40.571 27.688,39.061 27.688,39.061C27.688,39.061 27.655,39.799 27.451,40.437C27.252,41.074 26.748,42.316 26.748,42.316L26.514,40.973C26.514,40.973 26.145,43.289 25.372,44.094C24.601,44.9 25.037,44.564 25.003,46.107C24.97,47.651 25.842,48.154 26.647,49.463C27.451,50.771 28.359,54.396 28.359,54.396C28.359,54.396 27.756,53.422 27.186,52.818C26.615,52.215 26.447,52.281 26.447,52.281C26.447,52.281 26.112,54.463 26.347,55.737C26.581,57.013 26.982,57.516 26.982,57.516C26.982,57.516 24.3,54.664 23.796,53.523C23.292,52.382 22.89,50.637 22.89,50.637C22.89,50.637 22.857,51.745 22.756,52.449C22.655,53.154 22.52,60.033 22.52,60.033L21.884,53.02C21.884,53.02 21.717,54.093 21.615,54.697C21.514,55.302 21.479,56.039 21.479,57.248C21.479,58.455 21.279,60.77 21.279,60.77C21.279,60.77 21.314,60.033 21.111,58.555C20.912,57.08 20.607,54.396 20.607,54.396C20.607,54.396 20.607,56.308 20.574,56.912C20.541,57.516 20.139,60.167 20.139,60.167L19.971,57.214C19.971,57.214 19.87,59.832 19.77,61.106C19.668,62.382 19.132,63.086 19.132,63.086C19.132,63.086 18.864,59.496 18.864,58.523C18.864,57.549 18.997,53.49 18.997,53.49C18.997,53.49 18.596,55.335 18.058,56.744C17.522,58.153 17.286,58.087 17.286,58.087C17.286,58.087 17.286,59.999 16.85,61.711C16.414,63.421 16.146,64.026 16.146,64.026L16.213,62.079C16.213,62.079 16.179,62.247 15.71,63.59C15.24,64.932 14.535,65.703 14.535,65.703C14.535,65.703 14.702,64.528 14.836,62.314C14.971,60.1 14.836,56.14 14.836,56.14C14.836,56.14 14.769,57.852 14.569,60.402C14.367,62.951 13.965,63.254 13.965,63.254C13.965,63.254 14.301,56.744 13.931,54.429C13.563,52.113 13.226,51.107 13.226,51.107C13.226,51.107 13.226,52.18 13.125,53.12C13.024,54.06 13.461,54.127 13.461,55.838C13.461,57.549 13.36,57.919 12.958,58.825C12.557,59.73 12.086,60.066 12.086,60.066C12.086,60.066 12.018,63.321 11.885,64.63C11.75,65.939 11.951,67.147 11.951,67.147C11.951,67.147 12.286,67.213 14.064,67.448M9.67,62.716C9.67,62.716 9.502,64.059 9.401,64.528C9.301,64.999 8.898,65.871 8.898,65.871C8.898,65.871 9.401,66.241 9.771,66.508C10.139,66.777 10.844,66.979 10.844,66.979C10.844,66.979 11.113,66.442 10.642,65.335C10.173,64.227 9.67,62.716 9.67,62.716M10.272,62.952C10.409,64.093 10.878,64.864 10.878,64.864C10.878,64.864 10.91,63.187 10.844,62.716C10.777,62.247 10.642,60.77 10.642,60.77C10.642,60.77 10.139,61.811 10.272,62.952M17.086,48.758C17.086,48.758 17.151,50.604 17.118,52.047C17.086,53.49 17.118,53.757 17.118,53.757C17.118,53.757 17.453,52.382 17.621,51.342C17.789,50.301 17.086,48.758 17.086,48.758M15.575,54.798L15.407,59.395C15.407,59.395 15.678,58.423 15.944,57.113C16.213,55.805 15.575,54.798 15.575,54.798M10.945,55.603C10.945,55.603 10.341,56.308 10.575,57.147C10.812,57.986 11.012,59.966 11.012,59.966C11.012,59.966 11.415,59.394 11.683,58.388C11.951,57.382 11.983,56.744 11.649,56.576C11.313,56.409 10.945,55.603 10.945,55.603M28.438,5.472C28.771,6.688 29.075,7.326 29.38,7.661C29.683,7.995 29.926,8.177 29.926,8.177C29.926,8.177 30.474,8.086 29.926,6.962C29.38,5.837 28.438,5.472 28.438,5.472M24.759,-3.071C24.759,-3.071 24.759,-2.979 25.094,-2.554C25.427,-2.129 25.487,-1.581 25.487,-1.581C25.487,-1.581 25.757,-2.672 25.487,-3.101C25.336,-3.344 24.759,-3.071 24.759,-3.071M21.142,-10.306C21.142,-10.306 21.262,-10.032 21.142,-9.12C21.021,-8.208 20.867,-7.873 20.867,-7.873C20.867,-7.873 21.354,-7.509 22.055,-6.901C22.754,-6.293 23.33,-5.715 23.33,-5.715C23.33,-5.715 23.633,-6.84 23.026,-8.117C22.418,-9.393 21.142,-10.306 21.142,-10.306M-40.602,24.594C-40.389,24.259 -40.266,24.077 -40.448,23.925C-40.631,23.773 -40.661,23.347 -40.539,22.466C-40.418,21.585 -41.27,19.304 -41.27,19.304C-41.27,19.304 -41.178,20.277 -41.208,20.825C-41.239,21.372 -41.33,22.344 -41.634,23.104C-41.938,23.864 -41.785,24.138 -41.239,24.624C-41.239,24.624 -40.814,24.928 -40.602,24.594M-40.57,28.272C-40.418,27.543 -39.993,25.172 -39.993,25.172C-39.993,25.172 -40.479,26.631 -40.905,27.451C-41.33,28.272 -41.603,28.698 -41.603,28.698L-41.603,29.792C-41.603,29.792 -40.721,29.002 -40.57,28.272M-42.12,30.735L-42.09,29.093C-42.09,29.093 -42.575,30.126 -42.973,30.339C-43.367,30.552 -43.123,31.312 -43.123,31.312L-42.12,30.735ZM-74.352,42.774C-74.352,42.774 -72.041,45.67 -71.49,46.614C-70.939,47.558 -69.287,53.38 -68.736,53.773C-68.186,54.166 -62.443,54.323 -60.634,54.559C-58.824,54.796 -55.048,54.088 -52.373,53.065C-49.699,52.042 -47.653,51.57 -46.709,51.57C-45.766,51.57 -44.742,51.334 -44.742,51.334C-44.742,51.334 -44.585,50.548 -44.508,49.681C-44.428,48.817 -44.113,47.243 -44.113,47.243C-44.113,47.243 -45.529,45.198 -45.687,43.074C-45.844,40.949 -45.529,39.062 -45.529,39.062C-45.529,39.062 -46.173,38.875 -46.173,38.166C-46.173,37.457 -45.761,36.925 -45.761,36.925C-45.761,36.925 -46.173,36.631 -46.115,35.922C-46.056,35.213 -45.406,35.036 -45.406,35.036C-45.406,35.036 -45.879,34.681 -45.82,34.504C-45.761,34.327 -45.111,34.209 -45.111,34.209C-45.111,34.209 -45.583,33.5 -45.111,33.5L-44.048,33.5C-44.048,33.5 -44.165,33.204 -44.106,32.909C-44.048,32.613 -43.635,31.964 -43.635,31.964C-43.635,31.964 -44.106,31.019 -43.574,30.192C-43.043,29.365 -42.217,28.42 -41.802,27.592C-41.39,26.766 -41.39,26.175 -41.921,25.171C-42.453,24.166 -42.926,24.166 -42.394,22.749C-41.862,21.331 -41.921,19.913 -42.453,19.145C-42.984,18.377 -42.394,17.196 -41.566,17.255L-40.74,17.314C-40.74,17.314 -41.212,17.196 -40.621,16.192C-40.031,15.188 -39.381,15.188 -39.972,14.124C-40.563,13.061 -41.744,12.529 -40.918,11.761C-40.09,10.993 -39.677,11.466 -39.677,11.466C-39.677,11.466 -40.386,10.993 -39.677,10.698C-38.968,10.403 -38.494,10.757 -38.494,10.757C-38.494,10.757 -38.376,9.044 -38.613,7.508C-38.849,5.972 -38.14,4.85 -36.899,3.55C-35.658,2.25 -34.419,1.778 -34.597,1.069C-34.773,0.36 -35.246,-0.408 -34.892,-1.412C-34.537,-2.417 -32.883,-3.952 -32.883,-3.952C-32.883,-3.952 -34.123,-6.315 -34.005,-8.619C-33.888,-10.923 -33.414,-12.045 -33.414,-12.045C-33.414,-12.045 -34.832,-13.404 -34.301,-14.939C-33.769,-16.475 -32.351,-18.661 -32.588,-19.134C-32.824,-19.606 -34.005,-20.492 -33.533,-21.91C-33.06,-23.328 -32.883,-24.214 -32.883,-25.1C-32.883,-25.986 -32.646,-28.999 -32.174,-30.062C-31.701,-31.126 -32.588,-32.602 -32.351,-34.847C-32.115,-37.092 -31.818,-37.86 -31.465,-38.569C-31.109,-39.278 -31.287,-39.987 -31.109,-40.636C-30.933,-41.286 -30.815,-42.29 -30.402,-42.881C-29.988,-43.472 -30.165,-44.416 -28.925,-46.012C-27.686,-47.607 -27.625,-48.198 -26.977,-48.434C-26.326,-48.67 -25.676,-48.847 -25.676,-48.847C-25.676,-48.847 -25.322,-49.615 -24.437,-50.56C-23.55,-51.506 -22.25,-52.096 -22.014,-52.096C-21.777,-52.096 -21.068,-52.273 -21.068,-52.273C-21.068,-52.273 -21.01,-53.041 -20.242,-53.16C-19.474,-53.278 -18.352,-53.278 -18.352,-53.278C-18.352,-53.278 -18.115,-53.868 -17.347,-53.987C-16.578,-54.104 -15.103,-54.223 -15.103,-54.223C-15.103,-54.223 -13.035,-55.463 -9.845,-54.636C-6.654,-53.809 -6.064,-52.746 -6.064,-52.746C-6.064,-52.746 -4.232,-52.628 -3.405,-51.978C-2.579,-51.328 -2.342,-50.915 -2.342,-50.915C-2.342,-50.915 -0.275,-50.442 0.434,-49.851C1.143,-49.261 1.143,-48.611 1.143,-48.611C1.143,-48.611 2.501,-48.138 2.975,-47.666C3.447,-47.194 3.684,-46.485 3.684,-46.485C3.684,-46.485 5.159,-45.716 5.337,-45.362C5.514,-45.007 5.337,-44.771 5.337,-44.771C5.337,-44.771 6.874,-43.531 7.109,-42.408C7.346,-41.286 7.522,-40.872 8.173,-40.4C8.821,-39.927 9.473,-39.041 9.413,-38.214C9.354,-37.387 9.236,-36.442 9.944,-35.615C10.653,-34.788 13.962,-32.543 14.316,-31.421C14.671,-30.299 13.784,-28.349 13.784,-28.349C13.784,-28.349 14.671,-25.218 15.852,-22.914C17.034,-20.61 19.278,-17.834 19.928,-16.535C20.577,-15.235 20.755,-13.345 20.755,-13.345C20.755,-13.345 20.696,-14.29 23,-11.218C25.303,-8.146 24.594,-5.429 24.594,-5.429C24.594,-5.429 25.718,-4.661 26.131,-3.775C26.544,-2.889 26.012,-0.467 26.012,-0.467C26.012,-0.467 26.84,0.36 27.135,1.128C27.43,1.896 27.549,2.723 27.549,2.723C27.549,2.723 30.206,3.314 30.62,5.027C31.034,6.74 30.856,9.162 30.856,9.162C30.856,9.162 31.801,10.166 32.746,11.466C33.69,12.765 33.751,15.365 33.751,15.365C33.751,15.365 36.469,19.736 41.194,24.757C45.92,29.778 53.127,35.862 55.606,40.529C58.088,45.196 59.387,48.445 58.916,50.808C58.442,53.171 57.969,53.585 55.016,55.12C52.063,56.656 48.518,59.61 45.329,62.505C42.139,65.399 35.995,68.589 31.446,71.247C26.898,73.905 20.399,76.328 18.805,77.095C17.211,77.863 16.856,77.39 16.206,77.863C15.557,78.335 14.671,78.867 13.666,79.575C12.661,80.284 10.239,80.284 10.239,80.284C10.239,80.284 12.309,84.125 12.661,85.897C13.016,87.67 13.844,89.323 14.316,90.151C14.788,90.977 15.91,92.158 15.971,93.281C16.028,94.403 15.852,94.816 15.852,94.816C15.852,94.816 16.561,95.643 17.27,97.003C17.979,98.361 17.624,101.965 17.624,101.965C17.624,101.965 18.628,103.678 18.746,105.568C18.864,107.459 17.979,109.822 18.333,111.062C18.688,112.302 19.69,116.023 19.81,117.441C19.928,118.859 20.932,121.991 21.108,124.59C21.286,127.189 21.937,130.26 22.35,132.151C22.764,134.041 23.295,138.295 23.708,139.831C24.122,141.367 25.245,145.206 25.245,146.328C25.245,147.452 25.835,148.16 26.544,149.46C27.253,150.759 29.38,154.48 30.206,158.557C31.034,162.633 30.68,161.747 30.856,165.232C31.034,168.716 32.098,175.215 32.807,177.223C33.516,179.232 33.338,181.004 33.338,181.004C33.338,181.004 32.864,182.658 35.582,187.561C38.299,192.465 38.535,193.173 38.535,193.173L37.944,193.882C37.944,193.882 38.063,195.714 39.244,197.13C40.426,198.548 41.903,200.381 41.903,200.381L41.313,201.326L40.662,200.735L40.012,200.97L39.599,200.321L38.89,200.381L36.526,196.6L37.532,199.612C37.532,199.612 39.305,207.114 41.903,216.625C44.502,226.135 47.455,239.959 48.341,242.735C49.227,245.511 49.355,247.989 50.241,248.933C51.128,249.88 51.305,250.884 51.482,252.715C51.659,254.548 51.65,254.144 52.122,255.14C52.594,256.133 54.249,257.562 55.135,259.098C56.021,260.634 56.966,262.761 58.797,263.765C60.628,264.768 61.869,265.714 62.814,266.541C63.76,267.367 65.768,269.377 66.3,270.854C66.832,272.33 67.067,273.097 67.067,274.102C67.067,275.106 66.241,275.993 65.768,275.402C66.004,276.642 65.887,277.055 65.532,277.527C65.178,278.001 64.646,277.823 64.646,277.823C64.646,277.823 64.764,278.769 64.231,279.3C63.701,279.832 62.4,279.36 62.4,279.36C62.4,279.36 62.4,280.128 61.102,280.541C59.802,280.955 58.975,280.069 58.975,280.069C58.975,280.069 57.733,281.368 55.252,281.368C52.771,281.368 51.768,280.718 51.059,279.3C50.35,277.882 50.291,277.587 50.291,277.587C50.291,277.587 48.756,276.998 47.219,274.397C45.684,271.799 45.624,270.026 43.911,268.431C42.197,266.838 39.599,264.415 39.599,262.761C39.599,261.106 40.543,258.449 40.308,257.384C40.071,256.322 39.008,255.435 38.418,253.782C37.826,252.128 38.831,250.828 37.649,247.342C36.469,243.857 30.383,234.228 27.312,229.621C24.239,225.013 20.813,219.814 19.868,218.161C18.924,216.507 18.274,215.029 18.274,215.029L18.924,219.579L18.274,219.046L16.68,210.777L16.028,209.181L15.793,214.203L15.143,214.32L14.965,219.401L14.256,219.579L14.434,206.345L14.139,209.477L13.607,209.537L13.666,211.367L12.957,210.895L13.016,200.97L10.948,196.127L10.653,204.869L10.299,205.342L10.417,217.748L9.236,217.334L9.176,203.097L8.231,202.801L8.055,199.908L7.229,200.852L6.991,203.156L5.75,203.156L5.219,189.511L4.45,188.33L3.919,190.87C3.919,190.87 4.747,198.608 5.043,201.444C5.337,204.278 5.337,210.186 5.337,210.186L4.569,210.541L4.215,219.579L3.387,219.697L3.387,205.874C3.387,205.874 2.678,209.181 2.678,211.072C2.678,212.962 2.975,217.274 2.975,217.274L1.971,215.089L1.616,211.367L1.084,210.481L1.143,206.227L-0.216,206.996L-0.452,207.527L-1.693,207.527L-1.455,210.599L-2.402,210.599L-2.638,208.65L-2.873,210.717L-3.879,210.717L-3.287,206.405L-4.588,202.92C-4.588,202.92 -4.173,209.772 -4.114,214.675C-4.056,219.579 -4.588,228.97 -4.588,231.097C-4.588,233.224 -4.941,233.637 -4.41,235.823C-3.879,238.009 -2.934,238.423 -2.402,240.017C-1.87,241.612 -1.811,242.675 -1.929,243.857C-2.047,245.038 -2.105,247.107 -1.87,247.638C-1.633,248.17 -0.984,250.887 -2.52,252.068C-4.056,253.251 -10.022,254.667 -11.795,255.909C-13.567,257.149 -14.629,258.212 -16.107,259.807C-17.584,261.403 -19.65,262.584 -20.418,262.761C-21.188,262.937 -21.896,262.761 -21.896,262.761C-21.896,262.761 -24.199,265.182 -26.621,265.3C-29.043,265.42 -30.697,264.886 -31.109,264.591C-31.524,264.296 -31.996,263.233 -31.996,263.233C-31.996,263.233 -32.174,263.499 -33.207,263.499C-34.242,263.499 -34.389,262.376 -34.389,262.376C-34.389,262.376 -35.486,261.994 -34.985,261.078C-34.483,260.163 -34.123,260.103 -34.123,260.103C-34.123,260.103 -34.478,259.777 -34.212,259.245C-33.945,258.715 -33.769,258.567 -33.769,258.567C-33.769,258.567 -34.329,258.182 -33.769,257.059C-33.207,255.937 -32.559,255.082 -30.226,253.486C-27.891,251.892 -28.216,252.098 -24.643,250.238C-21.068,248.376 -17.584,245.984 -16.727,244.123C-15.869,242.261 -14.983,241.287 -15.781,236.561C-16.578,231.836 -18.765,221.41 -19.946,217.392C-21.127,213.376 -21.955,210.186 -21.955,210.186L-22.132,211.899L-22.899,211.899L-22.723,210.599L-23.55,210.599L-23.076,207.588L-23.785,207.705L-23.963,205.814L-24.791,206.109L-24.613,207.763L-26.207,207.645L-26.504,202.744L-27.686,210.895L-29.221,211.604C-29.221,211.604 -27.094,197.959 -26.977,196.127L-26.857,194.296L-28.865,203.51L-29.634,203.51L-29.988,207.941L-30.815,207.882L-30.402,194.532C-30.402,194.532 -31.17,196.718 -32.824,200.321C-34.478,203.924 -36.367,206.287 -36.367,206.287L-36.545,205.578C-36.545,205.578 -32.527,198.49 -31.761,196.127C-30.992,193.764 -30.757,192.405 -30.757,192.405L-31.818,191.578L-32.057,193.587L-33.296,194.237L-33.65,194.767L-34.183,194.649L-34.714,189.511L-34.892,187.09L-35.955,194L-36.722,200.084L-37.254,200.261L-37.668,202.684L-38.437,202.507L-38.555,192.819L-39.381,192.11L-39.677,195.714L-40.267,195.476L-40.09,193.882L-41.447,194.532L-42.334,203.156L-43.043,203.569L-42.63,193.528L-44.165,194.414L-44.283,196.009L-44.874,196.245L-45.701,197.721L-46.353,197.603C-46.353,197.603 -45.583,196.009 -45.524,194.946C-45.466,193.882 -45.998,190.042 -45.998,190.042C-45.998,190.042 -46.47,191.224 -47.179,193.233C-47.888,195.241 -49.187,196.776 -49.187,196.776L-50.309,196.6C-50.309,196.6 -49.187,193.882 -48.891,192.524L-48.597,191.166L-49.6,190.515C-49.6,190.515 -49.187,188.802 -48.951,186.734C-48.715,184.667 -49.009,180.177 -49.009,180.177L-49.777,183.545L-50.663,183.958L-51.49,187.147L-52.259,187.679L-53.025,192.11L-53.854,191.875L-53.734,189.806L-54.976,192.996L-55.921,192.878C-55.921,192.878 -55.034,191.578 -53.677,186.558C-52.316,181.536 -52.14,175.805 -52.731,169.662C-53.322,163.518 -54.68,154.48 -54.68,154.48L-54.857,160.86L-55.626,160.27C-55.626,160.27 -55.566,156.43 -55.921,151.822C-56.275,147.215 -55.743,144.201 -55.33,139.535C-54.917,134.869 -54.443,131.678 -54.443,131.678C-54.443,131.678 -56.039,129.256 -56.452,124.175C-56.867,119.095 -55.921,113.249 -55.921,113.249C-55.921,113.249 -55.861,113.071 -57.22,112.953C-58.579,112.836 -59.406,113.78 -59.406,113.78L-61.297,113.661C-61.297,113.661 -61.474,113.307 -61.415,112.184C-61.355,111.062 -61.061,109.939 -61.061,109.939C-61.061,109.939 -62.596,109.291 -61.887,108.226C-61.178,107.164 -60.529,105.628 -60.292,104.447C-60.056,103.264 -59.76,102.084 -59.76,102.084C-59.76,102.084 -61.178,102.438 -61.77,101.137C-62.36,99.838 -63.187,99.484 -63.187,99.484C-63.187,99.484 -60.942,96.352 -58.579,89.855C-56.216,83.357 -54.563,79.222 -53.203,74.614C-51.845,70.007 -50.486,67.702 -50.486,67.702C-50.486,67.702 -54.621,68.116 -60.352,66.875C-66.081,65.635 -68.621,64.69 -70.748,64.69C-72.875,64.69 -76.892,63.863 -76.892,63.863L-82.681,140.953L-86.048,188.802L-89.12,223.064L-91.956,260.043C-91.956,260.043 -92.547,271.621 -92.547,272.213C-92.547,272.801 -94.613,273.688 -95.854,273.688C-97.095,273.688 -98.513,274.338 -98.513,270.854C-98.513,267.367 -95.912,238.185 -95.912,238.185L-92.724,196.304L-90.065,159.146L-87.406,126.421L-84.453,87.965L-82.268,62.268C-82.268,62.268 -85.221,60.378 -85.871,59.669C-86.521,58.96 -86.875,58.251 -86.875,57.483C-86.875,56.715 -86.166,55.238 -86.166,55.238L-86.166,53.171C-86.166,51.99 -85.517,51.163 -85.517,51.163C-85.517,51.163 -85.162,50.158 -85.162,49.863C-85.162,49.567 -84.808,48.859 -84.808,48.859C-84.808,48.859 -85.693,46.909 -84.748,45.61C-83.803,44.31 -81.794,44.192 -81.794,44.192C-81.794,44.192 -81.853,43.955 -82.03,43.246C-82.207,42.537 -81.676,41.652 -81.676,41.652C-81.676,41.652 -89.356,31.905 -91.838,26.648C-94.319,21.39 -94.851,19.854 -94.851,18.85L-94.851,17.845L-94.555,17.196C-94.555,17.196 -95.205,16.487 -95.205,15.365C-95.205,14.242 -94.377,1.837 -93.61,-5.429C-92.841,-12.695 -92.369,-15.944 -90.774,-25.041C-89.179,-34.139 -87.644,-40.931 -86.166,-47.252C-84.688,-53.573 -84.395,-54.4 -84.275,-54.577C-84.157,-54.754 -83.921,-55.109 -83.921,-55.109C-83.921,-55.109 -84.039,-56.172 -83.625,-56.586C-83.212,-56.999 -83.035,-57.412 -83.035,-57.412C-83.035,-57.412 -83.212,-58.771 -82.444,-60.839C-81.676,-62.906 -79.019,-69.109 -77.541,-72.063C-76.063,-75.016 -72.107,-81.632 -68.326,-81.632C-64.546,-81.632 -60.41,-74.544 -58.638,-66.982C-56.867,-59.421 -55.33,-52.273 -55.034,-45.952C-54.74,-39.632 -54.443,-28.231 -54.325,-25.632C-54.208,-23.033 -54.208,-24.037 -54.208,-22.796C-54.208,-21.556 -55.921,-19.429 -55.921,-17.657C-55.921,-15.885 -54.325,-14.939 -54.325,-12.695C-54.325,-10.45 -55.33,7.626 -55.804,12.411C-56.275,17.196 -57.279,20.799 -59.229,23.871C-61.178,26.943 -65.255,31.55 -68.267,34.976C-71.279,38.403 -74.352,42.774 -74.352,42.774" style="fill:url(#_Linear1);fill-rule:nonzero;"/>
    </g>
    <g transform="matrix(1,0,0,1,83.156,96.1688)">
        <path d="M0,-13.082C0,-13.082 0.486,-9.665 1.073,-7.859C1.659,-6.053 2.879,-4.637 2.879,-4.637C2.879,-4.637 7.174,-6.834 12.642,-10.202C18.108,-13.57 21.281,-15.912 22.209,-16.84C23.136,-17.768 23.478,-19.134 24.258,-18.158C25.039,-17.182 24.746,-16.645 24.455,-15.913C24.16,-15.181 19.329,-12.691 15.863,-10.446C12.397,-8.201 5.369,-4.394 4.198,-3.563C3.027,-2.734 2.537,-2.636 2.537,-2.636C2.537,-2.636 2.635,-2.539 2.245,-2.051C1.855,-1.563 1.22,-1.514 1.22,-1.514C1.22,-1.514 2.879,0.878 2.051,2.489C1.22,4.099 -0.831,6.052 -2.44,5.808C-4.051,5.564 -4.832,4.686 -4.832,3.27C-4.832,0.536 -3.904,-0.099 -3.027,-0.733C-2.186,-1.34 -1.025,-1.514 -1.025,-1.514C-1.025,-1.514 -0.927,-2.393 -0.635,-2.393C-0.343,-2.393 -0.05,-2.344 -0.05,-2.344C-0.05,-2.344 -0.392,-2.783 0.098,-2.88C0.586,-2.978 1.366,-3.124 1.366,-3.124C1.366,-3.124 0.292,-4.394 -0.537,-7.371C-1.368,-10.348 -1.952,-11.519 -1.27,-12.643C-0.587,-13.765 0,-13.082 0,-13.082" style="fill:white;fill-rule:nonzero;"/>
    </g>
    <defs>
        <linearGradient id="_Linear1" x1="0" y1="0" x2="1" y2="0" gradientUnits="userSpaceOnUse" gradientTransform="matrix(2.20966e-14,-360.865,360.865,2.20966e-14,-69.091,280.301)"><stop offset="0" style="stop-color:rgb(0,34,83);stop-opacity:1"/><stop offset="1" style="stop-color:rgb(0,94,173);stop-opacity:1"/></linearGradient>
    </defs>
</svg>
