<?xml version="1.0" encoding="UTF-8" standalone="no"?>
<!DOCTYPE svg PUBLIC "-//W3C//DTD SVG 1.1//EN" "http://www.w3.org/Graphics/SVG/1.1/DTD/svg11.dtd">
<svg width="100%" height="100%" viewBox="0 0 2090 1253" version="1.1" xmlns="http://www.w3.org/2000/svg" xmlns:xlink="http://www.w3.org/1999/xlink" xml:space="preserve" xmlns:serif="http://www.serif.com/" style="fill-rule:evenodd;clip-rule:evenodd;stroke-linejoin:round;stroke-miterlimit:2;">
    <g>
        <path d="M1223,263.71C1224.62,265.896 1225,269.71 1225,269.71L1307,319.71L1396,298.71L1406,289.71C1406,289.71 1409.55,285.69 1413,285.71C1416.45,285.73 1423.05,287.357 1425,291.71C1429.62,291.063 1513,284.71 1513,284.71L1519,275.71C1519,275.71 1518.71,273.71 1523,273.71C1527.29,273.71 1531,277.71 1531,277.71L1537,282.71L1614,284.71L1620,279.71C1620,279.71 1622.55,276.69 1629,277.71C1635.45,278.73 1695,294.71 1695,294.71L1716,294.71C1716,294.71 1721.05,295.024 1733,297.71C1744.95,300.396 1816,317.71 1816,317.71C1816,317.71 1819.05,319.69 1820,322.71C1820.95,325.73 1821,329.71 1821,329.71L1862,353.71L1881,358.71C1881,358.71 1883.88,360.524 1882,365.71C1880.12,370.896 1880,370.71 1880,370.71L1893,410.71L1891,417.71L1878,430.71L1881,495.71C1881,495.71 1877.38,497.69 1879,500.71C1880.62,503.73 1881,505.71 1881,505.71L1881,508.71L1879,510.71L1880,512.71L1884,513.71L1881,518.71L1881,522.71L1879,525.71L1880,527.71L1880,530.71L1884,532.71L1884,537.71L1880.82,540.89L1882,544.71L1886,546.71L1887,558.71C1887,558.71 1881.21,567.19 1881,570.71C1880.79,574.23 1880.88,576.024 1882,578.71C1883.12,581.396 1884,582.71 1884,582.71L1888,583.71L1889,604.71L1886,609.71L1884,610.71L1886,612.71L1886,615.71L1885,616.71L1886,618.71L1889,619.71L1888,636.71C1888,636.71 1884.21,641.524 1885,643.71C1885.79,645.896 1887,646.71 1887,646.71C1887,646.71 1888.05,648.19 1887,649.71C1885.95,651.23 1887,652.71 1887,652.71L1891,653.71L1891,655.71L1894,655.71L1893,658.71L1889,659.71L1890,662.71L1894,661.71L1895,663.71L1956,673.71L1958,676.71L1995,701.71L1992,701.71L1992,708.71L1986,706.71L1990,751.71L1995,753.71L2009,737.71L2028,755.71L2029,771.71L2042,779.71L2049,782.71L2047,784.71L2044,784.71L2036,783.71L2060,1098.71L2090,1173.71L2090,1183.55L2021,1180.71L1940,1173.71C1940,1173.71 1951.8,1182.69 1928,1184.71C1904.2,1186.73 1871,1183.71 1871,1183.71C1871,1183.71 1847.13,1192.69 1826,1191.71C1804.87,1190.73 1782,1185.71 1782,1185.71C1782,1185.71 1691.13,1191.36 1656,1197.71C1620.87,1204.06 1524.46,1216.02 1488,1218.71C1451.54,1221.4 1379.8,1224.69 1338,1231.71C1296.2,1238.73 1204.46,1245.36 1149,1251.71C1136.41,1253.15 1076.15,1251.83 990.5,1248.92L982.543,1248.65L976.607,1248.44L971.96,1248.28C965.775,1248.06 959.476,1247.84 953.031,1247.61L947.606,1247.41L942.5,1247.22C639.001,1236.13 112,1210.71 112,1210.71L0,1205.71L78,1107.71L115,646.71L182,630.71L235,637.71L236,621.71L247,619.71C247,619.71 246.38,613.69 249,606.71C251.62,599.729 252.047,604.357 252,599.71C251.953,595.063 249.714,592.357 253,588.71C256.286,585.063 265,579.71 265,579.71C265,579.71 265.547,566.524 267,558.71C268.453,550.896 270.047,552.357 272,546.71C273.953,541.063 275,533.71 275,533.71L283,527.71L283,523.71C283,523.71 282.214,524.524 282,521.71C281.786,518.896 282,517.71 282,517.71L277,509.71C277,509.71 273.547,509.69 281,502.71C288.453,495.73 290,495.71 290,495.71L285,487.71C285,487.71 284.214,485.524 288,481.71C291.786,477.896 294,476.71 294,476.71C294,476.71 291.714,470.857 300,467.71C307.606,464.821 307.989,464.708 308.001,464.709C308.196,464.519 341.834,431.71 383,431.71C424.286,431.71 458,479.71 458,479.71C458,479.71 464.714,484.857 468,487.71C471.286,490.563 472,495.71 472,495.71C472,495.71 480.717,502.124 480.717,506.427C480.717,510.73 475,513.71 475,513.71L475,517.71C475,517.71 483,522.524 483,527.71C483,532.896 478,538.71 478,538.71C478,538.71 479.047,537.69 480,541.71C480.953,545.73 480.047,546.857 482,547.71C483.953,548.563 484,548.71 484,548.71L484,561.71L780,486.71L849,450.71L912,435.71C912,435.71 913.88,431.357 912,430.71C910.12,430.063 911.88,430.024 911,427.71C910.12,425.396 906.714,425.69 909,424.71C911.286,423.73 911,422.71 911,422.71L908,418.71L908,405.71L911,401.71C911,401.71 907.88,400.024 910,398.71C912.12,397.396 913,395.71 913,395.71L912,392.71L910,390.71L908,387.71L910,386.71C910,386.71 906.047,383.524 903,381.71C899.953,379.896 894,377.71 894,377.71L884,377.71L884,374.71L879.717,370.427L879.717,363.71L1150,258.71C1150,258.71 1150.88,255.024 1154,254.71C1157.12,254.396 1159,256.71 1159,256.71L1217,259.562L1217,113.599C1209.49,115.005 1190.38,117.966 1189,112C1187.28,104.562 1192.93,102.653 1186,100C1179.07,97.347 1179.17,99.62 1178,95C1176.83,90.38 1185.31,83.132 1170,88C1154.69,92.868 1140.17,103.974 1133,108C1125.83,112.026 1118,118 1118,118C1118,118 1109.07,109.888 1107,102C1104.93,94.112 1103.05,96.328 1101,89C1098.95,81.672 1091.81,84.471 1097,72C1102.19,59.529 1102.36,67.15 1107,56C1111.64,44.85 1114.6,43.839 1112,38C1109.4,32.161 1102.66,26.605 1113,31C1123.34,35.395 1132.37,41.59 1149,37C1165.63,32.41 1181.8,26.997 1193,20C1201.2,14.874 1211.88,11.892 1217,10.663L1217,4.5C1215.79,4.043 1215,3.317 1215,2.5C1215,1.12 1217.24,0 1220,0C1222.76,0 1225,1.12 1225,2.5C1225,3.317 1224.21,4.043 1223,4.5L1223,263.71ZM1217,29.018L1217,105.256C1214.54,97.732 1211.4,84.96 1211,68C1210.59,50.232 1214.23,36.668 1217,29.018Z" style="fill:url(#_Linear1);"/>
    </g>
    <g transform="matrix(1,0,0,1,-240,-170)">
        <path d="M665,989L614,994L622,879C622,879 623.404,865.348 638,858C652.596,850.652 671.404,852.348 670,874C668.596,895.652 665,989 665,989ZM900,960L841,969C841,969 846.404,848.848 847,836C847.596,823.152 856.404,810.348 877,807C897.596,803.652 905.404,809.348 906,827C906.596,844.652 900,960 900,960ZM1144,909L1095,918C1095,918 1096.4,810.848 1098,795C1099.6,779.152 1113.4,765.848 1132,763C1142.6,760.152 1147,763 1147,763L1144,909ZM1366,854.07L1266,867L1268,746C1268,746 1268.4,716.348 1313,704C1357.6,691.652 1363.4,725.348 1364,735C1364.6,744.652 1366,854.07 1366,854.07Z" style="fill:white;"/>
    </g>
    <defs>
        <linearGradient id="_Linear1" x1="0" y1="0" x2="1" y2="0" gradientUnits="userSpaceOnUse" gradientTransform="matrix(7.66813e-14,-1252.3,1252.3,7.66813e-14,1260.83,1252.3)"><stop offset="0" style="stop-color:rgb(0,34,83);stop-opacity:1"/><stop offset="1" style="stop-color:rgb(0,94,173);stop-opacity:1"/></linearGradient>
    </defs>
</svg>
