<?xml version="1.0" encoding="UTF-8" standalone="no"?>
<!DOCTYPE svg PUBLIC "-//W3C//DTD SVG 1.1//EN" "http://www.w3.org/Graphics/SVG/1.1/DTD/svg11.dtd">
<svg width="100%" height="100%" viewBox="0 0 306 361" version="1.1" xmlns="http://www.w3.org/2000/svg" xmlns:xlink="http://www.w3.org/1999/xlink" xml:space="preserve" xmlns:serif="http://www.serif.com/" style="fill-rule:evenodd;clip-rule:evenodd;stroke-linejoin:round;stroke-miterlimit:2;">
    <g transform="matrix(0.999999,0,0,0.999999,-47.1694,-19.8562)">
        <path d="M264.812,98.468C266.27,98.418 266.136,98.568 267.874,98.473C269.664,98.375 271.81,97.981 271.81,97.981L272.548,98.719C272.548,98.719 273.276,98.584 273.778,98.719C274.279,98.853 274.762,99.457 274.762,99.457C274.762,99.457 275.448,98.94 275.992,98.965C276.535,98.99 277.222,99.211 277.222,99.211L277.96,99.211C277.96,99.211 278.61,98.85 279.436,99.211C280.262,99.571 280.331,99.698 280.912,99.703C281.492,99.708 282.947,101.09 283.126,101.425C283.304,101.759 283.864,102.655 283.864,102.655C283.864,102.655 284.305,102.941 284.847,103.393C285.39,103.845 285.46,105.113 285.339,105.607C285.219,106.101 285.358,106.56 285.339,107.083C285.321,107.605 285.652,107.987 285.093,108.805C284.535,109.622 284.356,109.789 284.356,109.789C284.356,109.789 284.334,110.733 284.11,111.511C283.885,112.289 283.618,112.495 283.618,112.495C283.618,112.495 283.76,114.236 283.618,114.955C283.475,115.673 282.88,115.939 282.88,115.939C282.88,115.939 283.002,116.981 282.88,117.661C282.757,118.34 282.818,118.416 282.634,118.891C282.45,119.365 282.654,120.116 282.142,120.613C281.629,121.109 281.472,121.209 281.158,121.842C280.843,122.476 280.769,122.725 280.174,123.318C279.578,123.912 279.151,124.343 278.698,124.794C278.245,125.246 277.99,126.078 277.468,126.516C276.946,126.955 276.829,127.26 276.238,127.5C275.646,127.741 275.5,127.992 275.5,127.992L275.254,128.73C275.254,128.73 279.47,129.629 280.174,130.206C280.877,130.784 280.666,133.896 280.666,133.896C280.666,133.896 282.433,133.358 284.356,133.404C286.278,133.45 287.357,134.467 288.783,138.078C290.21,141.689 290.259,143.982 290.259,143.982C290.259,143.982 291.447,146.264 292.965,146.934C294.483,147.604 297.996,150.559 299.607,152.346C301.218,154.133 304.027,157.894 305.511,158.988C306.996,160.082 312.602,161.402 316.089,164.4C319.576,167.398 324.956,175.072 327.651,179.405C330.345,183.739 333.378,189.262 334.785,193.919C336.191,198.576 337.983,202.529 337.983,202.529C337.983,202.529 342.237,204.312 342.41,204.743C342.584,205.174 343.951,206.32 344.378,206.465C344.806,206.61 345.501,207.16 345.854,207.449C346.208,207.738 346.683,208.321 346.838,208.679C346.994,209.037 347.215,209.297 347.822,209.663C348.43,210.028 349.052,210.647 349.052,210.647L349.052,211.385C349.052,211.385 349.571,212.056 350.282,212.615C350.994,213.174 351.231,213.572 351.266,214.091C351.301,214.609 351.36,215.088 351.758,215.567C352.156,216.045 352.25,216.551 352.25,216.551L352.496,217.535C352.496,217.535 352.781,218.605 352.742,219.257C352.703,219.908 352.742,220.979 352.742,220.979C352.742,220.979 352.85,222.785 352.742,223.193C352.635,223.6 352.986,224.198 352.742,224.669C352.498,225.139 352.536,225.346 352.004,225.653C351.472,225.959 351.02,226.391 351.02,226.391C351.02,226.391 350.938,226.896 350.282,227.129C349.626,227.361 349.298,227.375 349.298,227.375C349.298,227.375 349.259,227.975 348.314,228.113C347.37,228.25 346.838,228.851 346.838,228.851C346.838,228.851 345.734,228.952 345.116,229.097C344.498,229.241 344.132,229.588 344.132,229.588L343.148,230.326L342.41,231.064C342.41,231.064 342.231,231.444 341.672,231.556C341.114,231.669 341.336,231.929 340.934,232.294C340.533,232.66 339.95,233.032 339.95,233.032C339.95,233.032 339.533,233.595 339.212,234.016C338.892,234.438 338.454,233.895 338.229,234.508C338.003,235.121 337.533,235.733 336.999,236.23C336.464,236.728 336.522,237.146 336.015,237.706C335.507,238.267 334.539,239.182 334.539,239.182L333.063,240.658L332.079,242.872L331.341,244.594C331.341,244.594 331.031,245.061 330.603,245.578C330.174,246.095 330.41,245.798 329.865,246.562C329.319,247.326 328.143,247.792 328.143,247.792C328.143,247.792 328.443,247.907 327.651,248.776C327.952,249.844 329.084,255.061 329.373,257.632C329.661,260.203 331.413,262.061 331.341,265.012C331.268,267.963 330.826,268.235 330.603,270.424C330.379,272.613 330.368,273.556 330.357,274.606C330.345,275.655 329.768,276.357 329.373,277.066C329.319,277.775 329.138,278.775 328.143,280.264C327.147,281.752 326.145,283.216 323.961,283.216C322.883,283.216 322.239,282.67 322.239,281.986C322.239,280.522 323.562,280.046 323.469,278.788C323.385,277.656 323.452,277.565 323.466,277.558L323.469,277.558C323.469,277.558 323.468,277.557 323.466,277.558C323.411,277.568 322.481,277.722 321.993,276.82C321.489,275.889 321.255,275.836 321.255,275.836C321.255,275.836 321.061,276.028 321.009,276.574C320.956,277.119 320.517,277.558 320.517,277.558C320.517,277.558 320.2,278.611 319.287,279.526C318.373,280.44 317.822,280.756 316.581,280.756C315.995,280.756 316.059,280.948 316.089,280.264C316.118,279.579 316.633,279.431 316.581,278.788C316.528,278.144 316.089,276.574 316.089,276.574C316.089,276.574 315.444,275.864 314.613,274.36C313.781,272.855 313.875,270.916 313.875,270.916C313.875,270.916 313.558,271.6 312.891,272.638C312.223,273.675 311.661,274.114 311.661,274.114L310.923,274.606C310.923,274.606 310.566,275.167 310.185,275.098C309.805,275.028 309.201,275.344 309.201,275.344C309.201,275.344 309.008,275.454 308.463,275.59C307.919,275.725 307.901,275.864 307.233,275.836C306.566,275.807 306.384,276.069 305.511,275.836C304.639,275.602 303.801,275.126 303.297,274.606C302.794,274.085 302.407,273.814 301.821,273.622C301.236,273.429 299.361,271.9 299.361,271.9C299.361,271.9 299.291,271.354 298.623,270.916C297.956,270.477 296.995,269.837 296.655,269.44C296.316,269.042 295.425,267.964 295.425,267.964L294.195,266.98C294.195,266.98 292.977,265.655 292.473,265.012C291.97,264.368 291.243,263.782 291.243,263.782C291.243,263.782 290.271,262.744 290.013,262.306C289.756,261.867 289.533,262.006 289.029,261.322C288.526,260.637 288.045,260.092 288.045,260.092C288.045,260.092 287.278,259.587 287.061,259.108C286.845,258.628 286.815,257.878 286.815,257.878C286.815,257.878 286.335,256.923 285.339,256.648C284.344,256.373 283.618,256.402 283.618,256.402C283.618,256.402 284.039,262.867 283.618,265.504C283.196,268.14 280.841,272.666 278.452,275.59C276.062,278.513 273.871,280.456 272.302,282.724C270.732,284.991 269.842,287.643 269.842,287.643C269.842,287.643 269.976,293.084 270.58,296.991C271.183,300.899 272.231,302.473 274.762,306.093C277.292,309.713 281.65,315.195 281.65,315.195C281.65,315.195 282.522,314.813 283.372,315.933C284.221,317.052 284.531,318.79 284.847,320.361C285.164,321.931 285.093,321.837 285.093,321.837C285.093,321.837 286.581,323.874 287.553,326.019C288.526,328.163 288.631,329.286 290.013,330.201C291.396,331.115 293.346,332.361 294.441,333.399C295.537,334.436 296.409,334.821 296.409,338.564C296.409,342.308 296.134,343.513 295.671,344.96C295.209,346.408 294.687,346.928 294.687,346.928L294.687,350.126C294.687,351.902 292.965,353.246 292.965,354.308C292.965,355.37 292.772,359.474 289.767,359.474C288.362,359.474 287.553,357.752 287.553,357.752C287.553,357.752 284.039,359.474 278.452,359.474C272.864,359.474 271.072,358.49 271.072,358.49C271.072,358.49 269.894,358.658 268.612,359.72C267.329,360.782 265.753,361.528 263.692,361.934C261.63,362.34 257.39,364.886 254.344,364.886C252.16,364.886 250.408,363.164 250.408,363.164C250.408,363.164 248.903,364.111 248.194,364.394C247.486,364.677 247.181,365.3 246.472,365.378C245.764,365.456 244.75,366.116 244.75,366.116C244.75,366.116 244.803,366.858 244.258,367.592C243.714,368.326 242.999,368.539 242.29,369.56C241.582,370.581 239.145,372.762 235.648,373.496C232.152,374.23 229.346,374.566 227.531,374.972C225.715,375.378 224.508,374.812 222.857,374.726C221.205,374.64 220.244,375.099 219.413,374.726C218.581,374.353 217.415,373.705 216.707,373.004C215.998,372.303 215.529,372.02 214.493,372.02C213.456,372.02 211.88,373.004 208.097,373.004C204.313,373.004 199.745,372.266 196.289,372.266C192.834,372.266 192.447,372.721 190.877,373.742C189.308,374.763 188.171,375.218 188.171,375.218L186.695,375.956L186.695,377.678C186.695,378.494 186.789,378.584 184.973,378.662C183.158,378.74 181.705,378.338 180.791,378.17C179.878,378.002 179.069,377.186 179.069,377.186C179.069,377.186 178.179,377.969 176.609,378.17C175.04,378.371 173.658,378.17 173.658,378.17C173.658,378.17 173.505,379.486 171.198,379.4C168.89,379.314 166.77,379.4 166.77,379.4C166.77,379.4 165.551,380.06 164.064,380.138C162.576,380.216 161.779,379.527 160.62,379.646C159.46,379.765 158.376,379.445 157.422,379.646C156.467,379.847 154.768,379.4 153.978,379.4C153.187,379.4 151.026,379.896 151.026,377.186C151.026,376.403 151.587,375.533 150.534,374.48C149.481,373.427 148.496,372.352 148.32,370.544C148.144,368.736 148.074,367.838 148.074,367.838C148.074,367.838 147.348,368.436 146.598,369.314C145.849,370.192 145.011,370.544 144.138,370.544C143.266,370.544 143.822,368.436 142.662,367.838C141.503,367.24 136.073,365.484 130.116,362.918C124.16,360.352 118.238,358.514 114.373,357.998C110.507,357.482 108.357,356.752 106.255,356.03C104.152,355.309 102.319,354.308 102.319,354.308L98.137,354.308C96.567,354.308 95.484,352.34 93.709,352.34C91.935,352.34 90.523,352.365 88.297,351.602C86.072,350.84 85.521,350.725 85.591,349.634C85.662,348.544 86.71,348.224 84.853,346.928C82.997,345.633 79.658,344.534 78.457,340.532C77.257,336.531 76.981,334.875 76.981,334.875C76.981,334.875 75.476,333.3 75.013,331.677C74.551,330.053 74.697,326.699 75.259,325.773C75.822,324.846 76.489,324.543 76.489,324.543C76.489,324.543 76.214,323.624 76.735,322.821C77.257,322.017 77.28,320.508 77.227,319.869C77.175,319.229 77.116,318.991 77.719,317.901C78.323,316.811 78.457,316.671 78.457,316.671C78.457,316.671 77.977,314.563 78.457,313.227C78.938,311.891 79.289,310.955 79.687,309.045C80.086,307.135 80.683,303.371 81.655,301.173C82.628,298.976 84.537,296.401 86.329,295.023C88.122,293.646 87.858,294.105 88.789,293.301C89.721,292.498 90.359,292.875 91.003,290.349C91.648,287.824 92.614,283.24 92.479,277.312C92.345,271.383 94.201,260.584 94.201,260.584C94.201,260.584 93.762,262.658 92.233,264.274C90.705,265.889 89.773,266.242 89.773,266.242C89.773,266.242 89.867,267.332 89.773,267.964C89.68,268.595 89.281,268.702 89.281,268.702C89.281,268.702 89.527,269.218 89.527,269.932C89.527,270.645 89.035,270.67 89.035,270.67C89.035,270.67 89.334,271.186 88.543,272.146C87.753,273.105 87.067,273.376 87.067,273.376C87.067,273.376 87.313,273.892 87.313,274.606C87.313,275.319 86.329,276.328 86.329,276.328C86.329,276.328 88.543,277.213 88.543,281.248L88.543,282.724C88.543,282.724 89.086,283.513 89.452,283.878C89.817,284.243 90.265,284.511 90.265,285.183C90.265,285.856 89.17,286.167 88.051,286.167C86.933,286.167 85.193,285.536 84.361,284.445C83.284,284.445 81.462,283.609 80.179,281.494C79.881,282.166 79.781,282.42 79.441,282.97C79.102,283.519 78.457,283.953 78.457,283.953C78.457,283.953 78.387,285.659 78.949,286.413C79.512,287.168 80.179,287.545 80.179,288.381C80.179,289.218 79.166,289.119 78.211,289.119C77.257,289.119 76.05,289.103 74.521,287.151C72.993,285.2 73.291,284.691 73.291,284.691C73.291,284.691 72.811,284.47 72.553,283.953C72.296,283.437 72.307,283.462 72.307,283.462C72.307,283.462 70.72,281.969 70.339,280.264C69.959,278.558 69.941,277.459 69.109,276.574C68.278,275.688 67.879,275.04 67.879,273.376C67.879,271.711 68.752,271.145 68.863,268.702C68.975,266.258 68.752,263.478 70.339,259.6C71.927,255.722 73.467,253.392 75.013,250.006C76.56,246.62 80.179,243.61 80.179,243.61L80.179,242.872C80.179,242.872 78.498,241.914 77.965,241.15C77.432,240.386 77.345,240.193 76.243,239.674C75.142,239.155 75.282,239.114 74.767,238.69C74.253,238.267 73.957,238.274 73.045,237.706C72.133,237.138 72.236,237.045 71.569,236.476C70.903,235.908 70.946,235.337 69.847,235.246C68.749,235.156 67.081,234.662 65.42,233.524C63.758,232.386 62.471,230.817 61.73,230.08C60.988,229.344 60.538,229.875 59.516,229.097C58.493,228.318 57.302,226.637 57.302,226.637C57.302,226.637 56.14,226.345 55.334,225.161C54.527,223.977 54.419,223.25 53.858,222.947C53.296,222.643 52.745,222.26 52.628,221.717C52.51,221.173 51.605,220.102 51.152,219.749C50.698,219.396 49.878,218.285 48.938,217.781C47.998,217.276 47.918,215.814 47.462,215.075C47.006,214.336 47.22,213.95 47.216,212.861C47.211,211.772 47.063,211.244 47.462,210.893C47.861,210.541 48.06,209.702 48.2,208.925C48.339,208.148 49.405,207.291 49.676,206.711C49.946,206.131 50.095,205.624 50.414,204.989C50.732,204.353 51.152,204.251 51.152,204.251C51.152,204.251 51.359,203.364 51.644,203.021C51.929,202.678 51.946,202.285 52.382,202.037C52.818,201.789 52.922,201.069 53.366,201.053C53.809,201.037 54.322,200.537 54.596,200.069C54.869,199.601 54.841,199.437 55.334,199.331C55.826,199.225 56.072,199.331 56.072,199.331C56.072,199.331 56.91,198.952 57.548,198.593C58.185,198.234 59.024,198.347 59.024,198.347C59.024,198.347 58.863,198.576 59.516,198.593C60.168,198.61 60.5,199.085 60.5,199.085C60.5,199.085 61.784,193.741 64.19,188.261C66.595,182.782 71.118,173.91 74.275,168.09C77.432,162.27 80.243,157.07 82.393,155.79C84.543,154.509 96.186,148.365 100.843,145.95C105.499,143.535 110.094,140.925 111.421,140.538C112.747,140.151 113.086,140.768 113.635,140.784C114.183,140.8 114.373,140.784 114.373,140.784C114.373,140.784 114.186,139.97 114.373,139.308C114.559,138.647 115.357,138.324 115.357,138.324C115.357,138.324 115.662,137.027 115.111,136.11C114.559,135.194 114.875,134.406 116.341,131.928C117.807,129.45 118.555,129.222 118.555,129.222C118.555,129.222 118.298,128.804 118.309,128.238C118.319,127.673 118.674,127.896 118.309,127.254C117.943,126.613 117.792,126.769 117.817,126.024C117.841,125.28 118.1,125.198 117.817,124.794C117.533,124.391 117.325,123.564 117.325,123.564C117.325,123.564 117.137,123.232 117.079,122.58C117.02,121.929 116.584,121.36 116.341,120.858C116.097,120.357 116.297,120.104 116.095,119.137C115.892,118.169 115.849,117.661 115.849,117.661C115.849,117.661 114.944,116.498 115.111,115.693C115.277,114.887 114.542,114.237 114.619,113.725C114.696,113.212 114.619,112.495 114.619,112.495C114.619,112.495 114.323,111.971 114.373,111.019C114.422,110.067 114.105,109.799 114.127,108.805C114.149,107.81 114.186,107.47 114.373,106.837C114.559,106.204 114.705,105.298 115.111,104.623C115.516,103.947 115.702,102.464 115.849,102.163C115.995,101.862 115.968,101.679 116.341,100.933C116.713,100.187 116.747,100.184 116.833,99.211C116.918,98.238 117.103,98.189 117.079,97.735C117.055,97.281 116.833,96.505 116.833,96.505C116.833,96.505 117.055,95.97 116.833,95.275C116.61,94.58 116.918,94.017 116.833,93.307C116.747,92.597 116.379,91.914 116.341,91.093C116.302,90.273 116.587,89.371 116.587,89.371C116.587,89.371 116.645,88.663 116.833,87.895C117.02,87.127 117.498,85.794 118.063,85.435C118.627,85.076 118.372,84.954 119.047,84.451C119.721,83.948 119.943,83.636 120.277,83.467C120.543,83.332 120.872,83.089 121.606,83.005C118.562,82.112 114.23,81.218 109.412,80.262C103.532,79.095 96.471,78.17 86.038,72.498C75.605,66.825 72.803,61.899 68.291,56.364C63.779,50.829 61.876,46.335 58.251,43.489C54.627,40.643 51.204,36.906 49.677,35.67C48.15,34.434 46.811,32.181 47.256,31.034C47.702,29.888 48.831,29.665 50.491,30.18C52.151,30.695 57.239,31.329 63.114,31.655C68.99,31.981 75.691,31.898 87.659,33.012C99.627,34.126 103.37,32.752 115.63,34.381C127.891,36.01 139.183,39.125 142.774,39.915C146.365,40.706 145.711,40.53 147.207,40.054C148.703,39.579 149.665,39.162 149.665,39.162C149.665,39.162 154.321,34.634 164.922,29.784C175.523,24.935 176.936,25.22 180.715,23.781C184.493,22.342 194.706,18.809 210.098,20.157C225.491,21.505 235.816,28.297 241.867,31.448C247.918,34.598 252.249,36.264 253.804,37.406C255.358,38.548 255.396,40.527 259.141,41.328C262.887,42.128 270.316,40.478 278.4,39.311C286.483,38.143 296.751,37.736 311.77,36.972C326.789,36.207 336.682,36.184 341.218,35.22C345.754,34.256 350.591,32.913 351.522,33.154C352.453,33.395 351.935,35.038 350.835,37.638C349.736,40.237 347.253,41.99 342.966,45.664C338.679,49.338 334.101,54.232 332.435,57.143C330.768,60.053 329.684,64.87 324.388,70.378C319.092,75.887 312.81,80.381 303.591,83.146C294.372,85.91 291.747,86.531 287.391,89.518C283.035,92.506 280.16,93.534 272.426,96.107C269.355,97.129 266.889,97.903 264.812,98.468Z" style="fill:url(#_Linear1);"/>
    </g>
    <g transform="matrix(0.245995,0,0,0.245995,-2.9657e-05,-39.7122)">
        <path d="M832.668,356.527C831.97,354.638 822.747,329.904 785.025,327.284C763.481,325.787 734.986,349.73 727.974,360.901C720.962,372.072 716.301,382.72 716.692,384.411C717.083,386.101 750.378,403.275 770.545,403.194C790.713,403.112 808.789,399.609 820.661,381.901C828.484,370.234 833.366,358.416 832.668,356.527ZM614.48,376.875C615.372,373.747 599.804,331.732 559.531,322.262C519.258,312.792 494.041,340.697 490.671,344.853C487.302,349.01 497.641,385.47 544.481,396.878C569.041,402.859 577.826,390.495 596.205,388.012C608.274,386.381 613.588,380.003 614.48,376.875Z" style="fill:white;"/>
    </g>
    <defs>
        <linearGradient id="_Linear1" x1="0" y1="0" x2="1" y2="0" gradientUnits="userSpaceOnUse" gradientTransform="matrix(2.20613e-14,-360.288,360.288,2.20613e-14,200,380.144)"><stop offset="0" style="stop-color:rgb(0,34,83);stop-opacity:1"/><stop offset="1" style="stop-color:rgb(0,94,173);stop-opacity:1"/></linearGradient>
    </defs>
</svg>
