<?xml version="1.0" encoding="UTF-8" standalone="no"?>
<!DOCTYPE svg PUBLIC "-//W3C//DTD SVG 1.1//EN" "http://www.w3.org/Graphics/SVG/1.1/DTD/svg11.dtd">
<svg width="100%" height="100%" viewBox="0 0 505 1253" version="1.1" xmlns="http://www.w3.org/2000/svg" xmlns:xlink="http://www.w3.org/1999/xlink" xml:space="preserve" xmlns:serif="http://www.serif.com/" style="fill-rule:evenodd;clip-rule:evenodd;stroke-linejoin:round;stroke-miterlimit:2;">
    <g transform="matrix(1,0,0,1,-138,-10.8915)">
        <g transform="matrix(1,0,0,1,-0.0509721,0.507455)">
            <path d="M411.475,968.825C411.475,968.825 409.075,969.025 404.075,970.625C399.075,972.225 395.675,972.425 395.675,972.425C395.675,972.425 399.275,1001.62 396.275,1025.22C393.275,1048.83 391.875,1079.53 391.075,1098.92C390.275,1118.33 390.475,1128.12 393.075,1137.92C395.675,1147.73 400,1154.33 400,1163.73C400,1173.12 398.018,1184.84 398.018,1190.47C398.018,1196.09 399,1200 399,1205C399,1210 397.55,1213.44 397.55,1217.5C397.55,1221.56 400,1228.75 400,1228.75C400,1228.75 401.3,1222.97 402.081,1217.66C402.862,1212.34 402.394,1203.28 402.862,1198.59C403.331,1193.91 404.268,1190.31 404.268,1190.31C404.268,1190.31 402.393,1173.28 402.393,1162.81C402.393,1152.34 408.331,1145.23 410.362,1135.08C412.393,1124.92 413.487,1125.94 410.987,1080.62C408.487,1035.31 407.237,1028.75 409.112,1007.19C410.987,985.625 411.475,968.825 411.475,968.825ZM579.075,853.225C579.075,853.225 577.875,845.625 575.475,839.825C573.075,834.025 565.875,812.825 565.875,812.825C565.875,812.825 579.875,831.625 586.275,844.425C592.675,857.225 593.875,862.625 593.875,862.625L579.075,853.225ZM547.275,835.225L551.075,802.425C551.075,802.425 567.698,840.092 568.541,842.792C569.541,845.992 568.741,849.058 568.741,849.058C568.741,849.058 562.675,846.025 557.275,840.825C551.875,835.625 547.275,835.225 547.275,835.225ZM524.875,835.225L535.475,797.625L531.075,830.825L524.875,835.225ZM550.475,747.425L539.275,747.425C539.275,747.425 538.275,743.025 540.075,740.225C541.875,737.425 541.475,737.225 544.275,736.825C547.075,736.425 551.075,737.025 551.075,737.025L550.475,747.425ZM228.075,380.825C228.075,380.825 230.475,383.425 238.075,387.425C245.675,391.425 252.075,393.625 252.075,393.625C252.075,393.625 250.075,403.825 249.875,412.625C249.675,421.425 249.675,426.625 249.675,426.625C249.675,426.625 246.075,417.425 242.675,411.825C239.275,406.225 235.475,404.025 235.475,404.025C235.475,404.025 235.675,396.625 232.675,389.825C229.675,383.025 228.075,380.825 228.075,380.825ZM193.022,438.089C193.022,438.089 184.14,438.227 178.866,433.37C173.592,428.512 171.51,425.875 172.065,421.712C172.62,417.548 170.4,414.078 169.706,410.053C169.012,406.028 171.094,398.95 171.094,398.95C171.094,398.95 169.567,393.676 171.094,386.32C172.62,378.965 176.506,378.965 176.506,378.965C176.506,378.965 174.286,376.328 176.229,369.943C178.172,363.559 185.528,363.975 185.528,363.975C185.528,363.975 185.528,363.212 186.777,361.547L188.026,359.881L228.83,311.93C228.83,311.93 229.94,309.154 249.509,294.72C269.078,280.286 279.349,274.318 294.754,267.934C310.16,261.55 316.683,256.97 321.679,253.222C326.676,249.475 326.814,248.365 328.757,248.365C330.7,248.365 336.113,253.916 336.113,253.916L340.554,253.222C340.554,253.222 356.099,244.756 362.761,233.792C369.422,222.828 369.561,216.721 368.173,206.173C366.785,195.625 366.23,189.657 366.23,189.657C366.23,189.657 359.43,181.469 357.625,175.501C355.821,169.533 354.711,164.398 354.711,164.398C354.711,164.398 352.213,167.867 348.604,167.867C344.996,167.867 340.971,163.565 338.889,158.846C336.807,154.127 335.836,152.462 335.836,150.519L335.836,147.882C335.836,147.882 333.06,147.049 330.978,138.167C328.896,129.284 330.562,124.773 330.562,124.773C330.562,124.773 326.12,124.496 319.32,124.635C312.519,124.773 303.775,122.969 297.391,115.475C291.007,107.98 287.815,104.927 285.872,99.375C283.929,93.824 285.039,88.688 286.566,88.133C288.092,87.578 324.594,89.244 324.594,89.244L334.725,86.19C334.725,86.19 331.256,79.251 331.256,75.92C331.256,72.589 332.782,69.258 330.423,64.539C328.063,59.82 323.9,42.055 326.259,36.92C328.619,31.785 354.988,16.102 387.465,11.661C419.942,7.22 433.404,15.824 445.201,15.408C456.998,14.992 468.795,16.796 475.041,18.878C480.886,20.826 480.166,21.194 480.05,21.233L480.037,21.237C480.037,21.237 480.042,21.236 480.05,21.233C480.338,21.15 485.359,19.723 491.556,20.127C497.941,20.543 495.442,21.931 495.442,21.931C495.442,21.931 509.183,20.682 516.4,21.931C523.617,23.18 529.862,25.817 529.862,25.817C529.862,25.817 515.983,26.372 521.396,28.315C526.809,30.258 527.225,28.454 530.556,32.063C533.887,35.671 532.777,40.112 532.777,40.112C532.777,40.112 531.25,36.92 527.503,37.337C523.755,37.753 520.702,37.614 518.759,36.088C517.537,35.127 516.809,34.661 516.437,34.448C516.418,34.172 516.122,34.283 516.122,34.283C516.122,34.283 516.217,34.321 516.437,34.448C516.454,34.705 516.228,35.301 515.289,36.643C513.346,39.418 510.015,41.778 510.015,41.778C510.015,41.778 509.183,59.126 508.627,68.148C508.072,77.169 505.296,83.414 505.019,73.838C504.741,64.262 508.211,59.543 508.211,53.297C508.211,47.052 507.517,42.611 507.517,42.611C507.517,42.611 506.546,45.386 503.076,47.052C499.606,48.717 498.218,49.134 498.218,49.134C498.218,49.134 499.467,49.411 500.994,53.852C502.521,58.294 500.716,59.404 500.716,59.404C500.716,59.404 500.716,58.155 498.635,55.657C496.553,53.159 495.72,53.991 495.72,53.991C495.72,53.991 497.941,57.045 499.19,60.098C500.439,63.151 499.467,65.649 499.467,65.649C499.467,65.649 498.496,62.845 497.108,60.208C495.72,57.571 494.332,58.016 494.332,59.959L494.332,79.112L500.439,84.525C500.439,84.525 501.688,83.137 506.546,85.08C511.403,87.023 512.513,88.272 512.513,88.272C512.513,88.272 527.086,87.966 530.834,86.162C534.581,84.357 539.161,85.496 539.3,88.55C539.438,91.603 539.438,93.407 537.357,93.685C535.275,93.962 531.527,95.489 530.556,97.432C529.584,99.375 527.834,99.735 523.254,99.735C518.674,99.735 519.175,96.322 515.567,97.71C511.958,99.098 509.876,100.485 502.382,107.702C494.887,114.919 488.642,115.752 488.642,115.752L488.781,119.846C488.781,119.846 495.304,121.373 494.471,128.729C493.638,136.085 492.805,141.22 491.279,148.576C489.752,155.931 488.364,159.818 485.45,163.565C482.535,167.312 481.425,169.394 477.678,169.533C473.93,169.672 471.987,167.173 471.987,167.173C471.987,167.173 471.154,175.292 464.77,185.563C458.386,195.833 453.945,197.499 453.945,197.499C453.945,197.499 449.226,216.929 451.169,227.477C453.112,238.025 459.08,247.046 463.244,249.683C467.407,252.32 469.489,254.402 469.489,254.402C469.489,254.402 472.126,254.263 474.069,256.206L476.012,258.149C476.012,258.149 480.731,253.986 485.311,254.818C489.891,255.651 490.03,261.341 496.414,264.95C502.798,268.558 511.264,275.637 523.061,281.188C534.858,286.74 541.659,290.209 550.958,298.12C560.257,306.031 566.919,308.391 573.303,313.665C579.687,318.939 585.377,321.02 589.819,323.519C594.26,326.017 598.285,329.487 599.534,330.736C600.783,331.985 601.061,332.679 599.118,334.899L597.174,337.12L616.327,359.742C616.327,359.742 620.907,363.767 616.189,366.404C611.47,369.041 589.264,381.116 584.128,386.39C578.993,391.664 577.189,392.08 575.662,393.746C574.136,395.411 570.943,396.105 570.943,396.105C570.943,396.105 575.523,444.82 578.577,473.41C581.63,502.001 587.598,573.477 588.014,580C588.431,586.523 589.541,630.519 590.651,637.181C591.762,643.843 592.733,648.284 593.011,651.892C593.288,655.501 593.844,657.583 593.844,657.583C593.844,657.583 586.765,659.526 580.936,659.664C575.107,659.803 567.89,660.081 567.89,660.081C567.89,660.081 565.114,681.177 567.613,692.835C570.111,704.493 575.246,719.205 577.605,725.173C579.965,731.141 579.826,731.002 579.826,735.027C579.826,739.052 575.385,742.66 573.858,746.13C572.331,749.599 569.694,754.804 569.139,760.494C568.584,766.185 568.584,767.503 567.751,769.863C566.919,772.222 562.477,774.304 562.477,774.304C562.477,774.304 590.235,825.517 595.231,835.926C600.228,846.335 602.865,854.524 604.253,858.965C605.641,863.406 607.722,866.598 607.722,866.598C607.722,866.598 627.569,874.787 634.092,879.089C640.615,883.392 643.113,881.865 641.864,890.886C640.615,899.907 633.398,944.806 628.541,964.791C623.683,984.777 615.356,1027.11 611.47,1042.93C607.584,1058.75 604.669,1077.56 601.616,1091.99C598.562,1106.42 595.509,1118.29 592.317,1128.28C589.125,1138.28 589.125,1141.05 587.598,1145.77C586.071,1150.49 583.712,1155.9 577.883,1155.9C572.054,1155.9 570.805,1155.35 557.481,1132.59C544.157,1109.83 526.947,1076.52 515.706,1049.45C504.464,1022.39 491.279,981.862 491.279,981.862L487.948,982.001C487.948,982.001 478.371,1047.86 471.848,1074.5C465.325,1101.15 455.888,1130.71 455.055,1140.29C454.222,1149.87 456.443,1156.94 457.276,1164.3C458.108,1171.65 453.945,1178.46 453.945,1181.23C453.945,1184.01 457.137,1186.92 458.941,1192.61C460.745,1198.3 465.048,1210.93 467.685,1215.93C470.322,1220.92 476.567,1233.14 477.122,1242.44C477.678,1251.74 476.012,1257.77 458.525,1259.86C441.037,1261.94 434.098,1262.49 423.411,1262.49C412.725,1262.49 408.422,1262.35 405.23,1258.88C402.038,1255.41 400,1251.81 400,1251.81C400,1251.81 396.625,1255.83 394.96,1257.08C393.294,1258.33 389.963,1260.27 385.244,1260.27C380.526,1260.27 338.334,1257.22 330.562,1254.72C322.79,1252.22 321.124,1246.81 321.124,1243.76C321.124,1240.7 320.153,1235.43 326.12,1222.52C332.088,1209.61 333.615,1210.17 337.362,1198.51C341.11,1186.85 344.996,1182.83 344.996,1182.83C344.996,1182.83 344.163,1176.1 344.163,1162.91C344.163,1149.73 347.633,1145.22 347.633,1139.8C347.633,1134.39 328.896,1058.68 325.427,1036.2C321.957,1013.71 318.626,997.268 319.736,976.033C314.046,976.588 312.103,976.727 307.662,974.09C303.22,971.453 301.832,969.094 301.832,969.094L283.79,969.926C283.79,969.926 277.544,971.314 269.078,971.592C260.612,971.869 253.118,971.175 253.118,971.175C253.118,971.175 253.95,931.621 253.673,900.81C253.395,869.999 254.922,835.371 257.42,805.115C259.918,774.859 260.196,752.236 264.915,721.425C269.634,690.614 272.964,662.926 277.128,640.165C281.292,617.403 280.875,595.405 284.206,578.057C287.537,560.708 291.562,547.523 293.228,539.057C294.893,530.591 294.754,523.79 294.754,523.79C294.754,523.79 292.117,525.595 287.676,525.595C283.235,525.595 267.413,520.876 259.641,516.157C251.869,511.438 247.289,505.332 242.431,504.638C242.431,504.638 243.795,506.785 238.619,498.505C233.444,490.224 230.08,478.838 224.646,467.452C219.211,456.066 214.295,443.645 210.154,441.316C206.014,438.987 193.022,438.089 193.022,438.089Z"/>
        </g>
        <path d="M198.78,426.401L198.67,426.373C198.67,426.373 198.764,426.373 198.78,426.401L200.667,426.873L200.293,453.33L203.038,453.455L203.288,465.685C203.288,465.685 214.27,454.578 215.518,453.33C216.766,452.082 220.136,458.946 222.258,463.189C224.379,467.432 225.752,471.426 232.616,472.3C239.48,473.173 251.461,457.573 252.709,455.701C253.957,453.829 248.965,479.912 246.718,488.274C245.449,492.998 242.586,505.91 239.729,518.699C236.169,536.08 230.067,564.555 225.031,589.529C218.231,623.254 211.985,659.617 207.96,687.93C203.936,716.243 197.274,751.634 192.277,782.445C187.281,813.256 177.149,871.061 177.149,873.004C177.149,874.947 174.651,874.947 174.651,874.947L172.708,881.193C172.708,881.193 172.153,883.136 168.961,883.136C165.769,883.136 166.185,880.221 166.185,880.221L164.658,873.976L162.299,872.033C162.299,872.033 159.246,804.72 158.829,772.382C158.413,740.045 155.776,641.297 155.221,617.98C154.666,594.664 151.751,538.246 148.559,514.791C145.367,491.336 142.452,478.012 140.093,467.88C137.733,457.749 137.595,455.112 138.566,455.112C139.538,455.112 144.256,464.688 147.31,467.742C150.363,470.795 152.584,473.571 158.135,473.571C163.687,473.571 165.907,470.795 167.434,466.493C168.961,462.19 173.541,454.002 174.235,454.002C174.929,454.002 179.925,463.578 182.146,465.382C184.366,467.186 185.199,467.186 185.199,467.186L185.199,454.14L192.971,452.891L192.971,438.596C192.971,438.596 193.119,439.571 193.429,441.273L193.429,429.119C193.429,429.119 194.677,427.621 197.048,426.997C198.583,426.593 198.811,426.451 198.78,426.401ZM187.975,360.389C187.975,360.389 189.363,322.083 187.003,313.339C184.644,304.596 179.925,299.322 179.925,299.322C179.925,299.322 176.733,300.71 175.484,303.208C174.235,305.706 171.32,309.87 169.238,302.236C167.157,294.603 167.157,283.43 167.157,274.132C167.157,264.833 175.9,234.022 201.437,234.022C226.974,234.022 233.775,250.954 233.775,270.107C233.775,276.544 233.243,282.804 232.177,290.235C232.209,290.907 232.189,291.613 232.108,292.354C231.088,301.754 219.508,369.304 219.508,369.304C219.508,369.304 216.808,367.204 213.208,364.104C209.608,361.004 209.308,360.904 206.208,360.389C203.108,359.873 200.768,361.555 198.568,361.504C195.088,361.424 194.702,359.838 191.748,359.589C188.709,359.332 188.111,360.317 187.987,360.382L187.975,360.389Z" style="fill:white;"/>
    </g>
</svg>
