<?xml version="1.0" encoding="UTF-8" standalone="no"?>
<!DOCTYPE svg PUBLIC "-//W3C//DTD SVG 1.1//EN" "http://www.w3.org/Graphics/SVG/1.1/DTD/svg11.dtd">
<svg width="100%" height="100%" viewBox="0 0 2425 3844" version="1.1" xmlns="http://www.w3.org/2000/svg" xmlns:xlink="http://www.w3.org/1999/xlink" xml:space="preserve" xmlns:serif="http://www.serif.com/" style="fill-rule:evenodd;clip-rule:evenodd;stroke-linejoin:round;stroke-miterlimit:2;">
    <g transform="matrix(1,0,0,1,-187,-78)">
        <path d="M199.067,2883.28C191.114,2827.35 187,2770.19 187,2712.09C187,2204.72 500.639,1769.88 944.836,1590.24C943.416,1589.84 942.132,1589.42 941,1589C925.248,1583.09 920.502,1578.16 917,1579C913.498,1579.84 904.752,1580.41 886,1572C867.248,1563.59 854.252,1551.16 842,1547C829.748,1542.84 796.002,1528.66 788,1524C782.985,1521.08 773.948,1514.32 766.729,1507.98C761.442,1506.66 757.162,1505.33 754,1504C696.298,1479.72 696,1479.78 696,1466C696,1452.22 695,1404.66 695,1395C695,1385.34 699,1388.41 699,1383C699,1377.59 694,1374.16 694,1361C694,1347.84 694.952,1273.53 704,1230C713.048,1186.47 719.202,1129.67 764,1036C808.798,942.333 872.577,867.417 886,854C889.022,850.979 892.154,848.507 895.193,846.49C895.853,844.536 897.046,842.403 899,840C908.013,828.916 912.82,822.584 923,815C925.335,813.261 927.862,811.582 930.369,810.029C931.788,808.354 933.329,806.671 935,805C950.923,789.083 1032.58,733.917 1066,716C1099.42,698.083 1154,676 1154,676C1154,676 1226.37,645.901 1320.95,637.281L1327.75,593L1329,593L1329,397.31C1329,392.172 1333.17,388 1338.31,388L1338.69,388C1343.83,388 1348,392.172 1348,397.31L1348,593L1349.25,593L1355.73,635.199C1360.45,635.068 1365.21,635 1370,635C1402.58,635 1432.2,636.368 1459,638.677L1459,606C1459,602.215 1461.63,599.041 1465.17,598.211L1465.17,144.366C1463.22,142.561 1462,139.982 1462,137.12L1462,87.88C1462,82.427 1466.43,78 1471.88,78L1478.12,78C1483.57,78 1488,82.427 1488,87.88L1488,137.12C1488,139.982 1486.78,142.561 1484.83,144.366L1484.83,598.211C1488.37,599.041 1491,602.215 1491,606L1491,641C1491,641.342 1490.98,641.678 1490.94,642.009C1612.88,657.036 1666,691 1666,691C1666,691 1722.33,715.417 1755,739C1787.67,762.583 1785.83,755.417 1810,775C1828,789.583 1840.17,796.542 1844.45,805.579C1846.57,806.602 1848.72,808.015 1851,810C1861.9,819.483 1869.5,828.517 1878,837C1879.85,838.847 1881.79,840.979 1883.7,843.185C1894.2,849.563 1906.93,862.745 1929,891C1966.17,938.583 2005.58,996.667 2041,1087C2076.42,1177.33 2082.08,1272.17 2083,1327C2083.92,1381.83 2082,1424 2082,1424C2082,1424 2085,1430.17 2085,1438C2085,1445.83 2084,1448.37 2084,1457C2084,1465.63 2081.93,1468.57 2069,1477C2063.18,1480.8 2043.54,1488.14 2015.87,1495.85C2014.56,1496.97 2013.27,1498.03 2012,1499C1996.37,1510.97 1981.63,1523.53 1970,1527C1958.37,1530.47 1947.38,1529.78 1940,1535C1932.62,1540.22 1915.63,1553.78 1909,1559C1902.37,1564.22 1898.63,1559.28 1894,1563C1889.37,1566.72 1879.63,1570.53 1875,1573C1870.37,1575.47 1860,1575 1860,1575C1860,1575 1847.33,1581.3 1839.75,1584.52C2012.16,1651.68 2165.43,1757.09 2289.08,1890.28C2324.66,1923.61 2363.21,1967.93 2401,2024C2495.1,2163.62 2555.9,2317.38 2572,2386C2574.39,2396.19 2575.74,2407.64 2576.31,2419.74C2599.62,2513.37 2612,2611.3 2612,2712.09C2612,3118.82 2410.44,3478.94 2101.65,3698.34C2097.51,3705.97 2093.25,3712.19 2089,3716C2065.74,3736.88 1991,3771 1991,3771C1991,3771 1886.93,3835.46 1749,3876C1631.11,3910.65 1549.59,3921.23 1474.11,3919.74C1449.43,3921.24 1424.55,3922 1399.5,3922C1009.03,3922 661.422,3737.42 439.596,3451.01C363.448,3385.85 329.512,3305.6 281,3210C230.295,3110.08 206.253,2975.13 199.067,2883.28Z"/>
    </g>
    <g transform="matrix(1,0,0,1.05965,-187,-147.67)">
        <path d="M1377,883C1462.12,883 1543,949.325 1543,1023C1543,1096.67 1466.88,1168 1376,1168C1285.12,1168 1208,1105.33 1208,1018C1208,930.675 1297.54,883 1377,883ZM1770,1161.1C1794.72,1161.1 1814.79,1181.74 1814.79,1207.16C1814.79,1232.59 1794.72,1253.23 1770,1253.23C1745.28,1253.23 1725.21,1232.59 1725.21,1207.16C1725.21,1181.74 1745.28,1161.1 1770,1161.1Z" style="fill:white;"/>
    </g>
</svg>
