<?xml version="1.0" encoding="UTF-8" standalone="no"?>
<!DOCTYPE svg PUBLIC "-//W3C//DTD SVG 1.1//EN" "http://www.w3.org/Graphics/SVG/1.1/DTD/svg11.dtd">
<svg width="100%" height="100%" viewBox="0 0 887 944" version="1.1" xmlns="http://www.w3.org/2000/svg" xmlns:xlink="http://www.w3.org/1999/xlink" xml:space="preserve" xmlns:serif="http://www.serif.com/" style="fill-rule:evenodd;clip-rule:evenodd;stroke-linejoin:round;stroke-miterlimit:2;">
    <g transform="matrix(1,0,0,1,-62.3855,-51.4132)">
        <path d="M265.534,239.341C265.534,239.341 267.528,233.008 265.769,226.323C264.01,219.638 262.368,215.298 262.368,215.298C262.368,215.298 259.553,215.064 258.615,213.774L257.676,212.484C257.676,212.484 248.411,211.78 245.245,210.138C242.078,208.496 241.14,207.558 241.14,207.558C241.14,207.558 241.726,208.261 244.307,207.089C246.887,205.916 247.004,204.978 247.004,204.978C247.004,204.978 246.066,205.329 244.189,203.688C242.313,202.046 242.078,201.107 242.078,201.107C242.078,201.107 242.375,201.811 245.541,200.521C248.708,199.231 248.294,198.058 248.294,198.058L247.942,196.064C247.942,196.064 241.844,197.589 237.035,191.139C232.227,184.688 232.227,184.219 232.227,184.219C232.227,184.219 233.578,184.633 235.338,185.336C237.097,186.04 236.449,183.75 236.449,183.75C236.449,183.75 234.572,180.818 233.517,178.003C232.461,175.188 232.109,173.898 232.109,173.898C232.109,173.898 226.714,173.077 225.542,170.497C224.369,167.917 224.252,167.917 224.252,167.917C224.252,167.917 225.776,169.207 227.653,167.448C229.529,165.689 229.646,163.812 229.646,163.812C229.646,163.812 225.542,156.306 225.659,149.387C225.776,142.467 227.48,141.998 229.708,141.646C230.695,141.49 231.371,141.703 231.818,141.988C234.1,141.035 236.92,140.689 236.92,140.689L237.856,142.467L241.609,123.82C241.609,123.82 237.035,119.949 234.807,115.962C232.578,111.974 232.578,108.456 232.578,108.456L232.109,103.178C232.109,103.178 229.06,99.777 231.171,95.79C233.282,91.802 239.381,80.309 254.393,69.05C269.404,57.791 281.133,51.927 292.04,51.458C302.947,50.989 320.07,54.272 330.39,59.55C340.711,64.828 350.562,71.747 354.902,78.198C359.241,84.648 362.76,93.209 362.76,103.061C362.76,112.913 358.538,123.233 358.538,123.233L357.717,153.609C357.717,153.609 363.581,148.918 365.926,150.911C368.272,152.905 367.803,156.541 366.278,160.528C364.753,164.516 360.062,170.38 360.062,170.38C360.062,170.38 359.945,174.309 364.05,176.068C368.155,177.827 372.728,177.006 375.191,175.012C373.549,179.586 372.142,180.759 369.914,182.167C367.685,183.574 365.457,183.222 365.457,183.222C365.457,183.222 366.513,185.099 365.809,187.561C365.105,190.024 359.359,189.555 359.359,189.555C359.359,189.555 358.889,194.95 366.513,195.185C374.136,195.419 375.543,193.425 375.543,193.425C375.543,193.425 373.605,197.413 371.611,199.29C369.617,201.166 366.864,200.931 366.864,200.931C366.864,200.931 369.093,204.157 365.105,206.62L361.118,209.082C361.118,209.082 367.099,204.157 362.291,202.163C357.482,200.169 357.013,199.114 353.964,197.237C350.914,195.361 349.976,193.484 349.976,193.484L346.34,192.194C346.34,192.194 344.112,199.231 346.81,201.107C349.507,202.984 351.853,201.811 352.556,199.817C352.556,201.811 351.266,205.799 351.266,205.799C351.266,205.799 352.439,207.44 353.729,205.564C355.019,203.688 355.371,201.576 355.371,201.576C355.371,201.576 357.717,206.385 355.957,210.49C354.198,214.595 350.914,215.181 350.914,215.181L353.025,219.52C353.025,219.52 349.976,216.471 347.748,215.181L345.519,213.891C345.519,213.891 344.933,216.588 346.34,218.934C347.748,221.28 349.272,222.452 349.272,222.452C349.272,222.452 344.112,221.045 343.174,217.761C342.236,214.477 339.655,213.422 339.655,213.422L339.421,217.878L346.81,224.212L364.284,225.267C364.284,225.267 374.84,220.928 381.29,219.638C387.74,218.348 391.845,215.65 398.53,219.169C405.215,222.687 409.789,225.736 417.764,227.847C425.739,229.958 437.584,234.767 444.387,238.872C451.189,242.976 453.652,244.736 453.652,244.736C453.652,244.736 459.164,245.439 465.849,246.729C472.534,248.019 478.398,249.896 484.262,250.6C490.126,251.303 495.052,249.31 503.261,248.84C511.471,248.371 525.193,252.711 526.835,253.532L528.477,254.353C528.477,254.353 534.927,254.822 543.019,257.636C551.112,260.451 557.21,262.68 559.791,264.204C562.371,265.729 562.84,266.198 562.84,266.198C562.84,266.198 577.383,268.426 581.839,270.068C586.296,271.71 588.407,274.525 588.407,274.525C588.407,274.525 602.129,278.864 611.511,284.025C620.894,289.185 636.844,299.623 647.868,303.376C658.892,307.129 661.942,307.246 664.053,308.067C666.164,308.888 666.164,310.999 666.164,310.999C666.164,310.999 677.071,311.585 684.225,313.462C691.379,315.338 706.626,316.746 717.415,314.987C728.205,313.227 731.372,312.641 734.656,311.937C737.939,311.234 739.229,312.524 738.878,314.283C738.526,316.042 737.118,316.746 737.118,316.746C737.118,316.746 740.285,316.98 743.334,316.511C746.384,316.042 747.556,315.69 747.322,318.505C747.087,321.32 744.859,323.431 743.452,323.548C742.748,324.134 744.976,326.128 734.538,330.35C724.1,334.572 709.323,341.023 699.706,341.961C690.089,342.899 687.04,346.3 685.046,348.411C683.052,350.522 682.583,353.806 685.28,356.035C687.978,358.263 690.793,362.192 692.317,365.241C693.842,368.29 693.021,372.747 690.91,374.389C688.799,376.031 687.04,376.383 682.935,370.871C678.83,365.358 679.065,361.371 668.979,354.686C658.892,348.001 654.553,340.73 654.553,340.73C654.553,340.73 644.936,351.168 643.06,354.451C641.183,357.735 641.535,360.081 639.776,360.198C638.017,360.315 627.461,354.334 623.005,351.519C618.548,348.705 601.191,336.977 597.086,333.575C592.981,330.174 587,325.952 576.913,325.014C566.827,324.076 552.285,324.779 533.168,320.909C514.051,317.039 486.725,311.879 469.367,308.36C452.01,304.842 448.609,305.545 440.165,305.076C441.22,312.113 446.029,329.119 450.016,337.798C454.004,346.476 459.633,357.735 464.09,366.531C468.546,375.327 470.188,386.528 474.176,397.669C478.163,408.811 485.787,426.989 485.787,426.989C485.787,426.989 489.188,421.594 492.589,422.063C495.99,422.533 496.342,424.761 496.342,424.761C496.342,424.761 504.317,419.014 511.471,422.063C518.625,425.113 532.347,430.273 547.007,433.322C561.667,436.372 600.37,439.069 609.166,439.304C617.962,439.538 618.431,438.6 622.77,438.6C627.109,438.6 634.498,442.118 638.837,442.47C643.177,442.822 644.936,439.186 659.831,442.001C674.725,444.816 691.731,451.618 712.959,465.809C734.186,480 769.019,504.16 775,510.024C780.981,515.888 787.314,522.221 790.833,523.863C794.351,525.505 813.351,531.017 820.153,532.659C826.955,534.301 831.177,535.004 833.406,538.406C835.634,541.807 836.924,544.856 836.924,544.856L840.091,544.621C840.091,544.621 838.918,538.171 843.023,538.171C847.127,538.171 848.652,538.406 850.528,538.406C852.405,538.406 853.578,541.455 853.578,541.455L861.436,541.338C861.436,541.338 862.96,537.115 865.775,536.881C868.59,536.646 875.157,537.233 875.157,537.233C875.157,537.233 874.219,538.523 874.219,540.047L874.219,541.572L877.034,541.455C877.034,541.455 879.145,536.529 882.194,535.708C885.243,534.887 889.7,535.004 889.7,535.004L890.169,538.875C890.169,538.875 897.91,539.696 900.842,538.406C903.774,537.115 904.829,535.004 908.582,533.949C912.335,532.893 916.675,532.893 919.607,531.134C922.539,529.375 929.693,525.622 933.797,525.387C937.902,525.153 948.106,530.665 948.692,538.406C949.278,546.146 946.464,553.887 938.723,565.028C930.983,576.17 924.884,583.558 918.082,586.49C911.28,589.422 897.675,592.472 889.466,597.867C881.256,603.262 871.991,612.058 867.417,616.749C862.843,621.44 855.102,624.607 851.584,624.841C848.066,625.076 842.319,622.144 831.412,614.52C820.505,606.897 813.351,597.867 813.351,597.867C813.351,597.867 802.795,606.78 797.518,606.897C792.24,607.015 768.784,597.046 754.476,589.892C740.168,582.738 721.051,573.355 705.922,562.213C690.793,551.072 680.12,544.035 672.614,539.93C665.108,535.825 660.886,532.307 651.504,533.362C642.121,534.418 617.962,535.239 597.32,532.893C576.679,530.548 549.587,529.727 540.439,530.782C531.291,531.838 514.403,537.233 504.2,539.227C493.996,541.22 490.009,540.986 490.009,540.986C490.009,540.986 480.626,546.967 476.639,558.812C472.651,570.658 467.608,597.398 467.256,609.595C466.905,621.792 465.83,640.064 465.33,677.564C464.83,715.064 465.83,729.689 466.83,763.189C467.83,796.689 468.58,812.939 466.08,837.939C463.58,862.939 460.33,869.439 461.08,877.689C461.83,885.939 464.33,885.689 463.33,893.439C462.33,901.189 460.83,902.939 458.58,907.689C456.33,912.439 455.58,913.689 455.58,913.689C455.58,913.689 454.642,926.689 451.767,938.064C448.892,949.439 446.392,954.314 446.392,954.314C446.392,954.314 446.392,963.689 446.892,971.189C447.392,978.689 443.767,986.564 440.517,989.939C437.267,993.314 426.892,994.814 420.142,994.814C413.392,994.814 395.642,994.064 390.642,986.689C385.642,979.314 385.767,978.689 385.767,973.064C385.767,967.439 385.642,966.564 389.392,960.939C393.142,955.314 393.892,954.689 394.767,952.064C395.642,949.439 395.892,948.189 395.892,948.189C395.892,948.189 392.017,946.064 392.892,940.939C393.767,935.814 398.142,933.189 398.142,933.189C398.142,933.189 395.767,930.314 398.517,927.439L401.267,924.564L401.642,913.939C401.642,913.939 396.767,911.189 397.142,899.314C397.517,887.439 401.017,855.064 398.267,838.814C395.517,822.564 390.017,788.501 391.017,770.376C392.017,752.251 393.142,742.501 392.517,727.376C391.892,712.251 388.392,698.751 382.017,677.251C375.642,655.751 369.517,637.376 365.392,623.501C361.267,609.626 355.267,602.251 352.392,595.126C349.517,588.001 354.017,581.501 345.267,570.751C336.517,560.001 327.142,548.001 317.892,530.126C308.642,512.251 307.267,509.126 307.267,509.126C307.267,509.126 299.142,499.751 296.892,494.876C294.642,490.001 298.767,492.126 291.017,480.751C283.267,469.376 271.767,457.126 270.142,448.501C268.517,439.876 268.767,426.001 262.017,418.251C255.267,410.501 242.017,398.501 231.392,391.626C220.767,384.751 216.642,384.251 208.767,383.126C200.892,382.001 180.392,382.251 171.892,383.376C163.392,384.501 127.142,388.001 114.267,388.001C101.392,388.001 90.642,385.751 84.267,375.626C77.892,365.501 70.392,352.001 67.642,345.376C64.892,338.751 65.142,327.001 65.392,310.126C65.642,293.251 65.642,272.751 64.767,267.126C63.892,261.501 62.267,258.251 62.392,255.001C62.517,251.751 62.642,249.626 67.767,248.126C72.892,246.626 98.142,239.751 98.142,239.751C98.142,239.751 98.642,237.251 101.392,230.126C104.142,223.001 109.517,218.126 111.017,212.126C112.517,206.126 115.267,200.751 121.767,196.251C128.267,191.751 130.517,190.251 134.017,188.626C137.517,187.001 139.642,185.501 143.267,185.376C146.892,185.251 149.017,188.501 152.892,188.876C156.767,189.251 162.017,192.251 166.267,196.751C170.517,201.251 172.142,204.501 172.517,207.376C172.892,210.251 168.892,219.126 168.892,219.126L171.892,218.626C171.892,218.626 176.017,214.626 178.642,214.626C181.267,214.626 183.267,217.501 181.892,221.376C180.517,225.251 181.642,225.876 178.517,229.376C175.392,232.876 169.517,233.501 165.642,233.376C161.767,233.251 155.892,233.876 152.267,235.626C148.642,237.376 139.017,239.251 139.017,239.251L136.267,245.001C136.267,245.001 137.642,246.126 136.267,249.751C134.892,253.376 133.017,257.626 133.017,261.626C133.017,265.626 132.392,277.314 131.392,280.939C130.392,284.564 129.267,294.689 129.767,299.314C130.267,303.939 134.517,314.189 141.017,314.814C147.517,315.439 149.267,312.439 153.017,311.314C156.767,310.189 156.392,309.939 160.642,305.939C164.892,301.939 164.267,301.189 169.267,298.439C174.267,295.689 175.017,294.939 180.392,290.939C185.767,286.939 193.267,278.314 199.767,274.814C206.267,271.314 210.142,271.314 210.142,271.314C210.142,271.314 210.642,268.564 215.142,266.689C219.642,264.814 226.017,262.814 233.017,260.689C240.017,258.564 242.017,260.564 244.642,258.314C247.267,256.064 251.892,251.689 255.142,250.439C258.392,249.189 258.517,249.064 258.517,249.064C258.517,249.064 257.767,245.564 260.142,242.814C262.517,240.064 265.534,239.341 265.534,239.341Z"/>
        <path d="M236.532,118.275C236.532,118.275 250.368,122.333 264.388,124.178C278.408,126.023 299.254,130.266 314.197,129.712C329.139,129.159 340.023,129.343 347.033,127.13C354.044,124.916 360.685,120.119 360.685,120.119L361.607,145.946L364.511,150.442C364.511,150.442 362.018,151.22 361.423,152.218C360.334,154.045 358.655,156.83 357.918,161.442C357.18,166.054 353.49,179.521 342.422,181.734C331.353,183.948 322.867,180.443 314.566,177.123C306.264,173.802 302.759,170.666 289.477,173.249C276.195,175.831 272.874,178.967 262.912,179.152C252.951,179.336 246.863,176.045 243.173,167.744C239.484,159.442 236.901,147.606 236.901,147.606C236.901,147.606 236.531,145.515 234.871,144.224C233.21,142.932 231.801,142.009 231.801,142.009L235.794,137.829C235.794,137.829 235.056,130.266 234.503,126.945C233.95,123.624 236.532,118.275 236.532,118.275ZM318.309,161.907C317.986,159.478 321.492,155.257 323.88,153.009C326.267,150.761 331.971,149.036 336.878,149.036C341.786,149.036 345.367,151.013 344.704,153.009C344.041,155.005 344.837,158.729 336.878,161.907C328.92,165.086 318.574,163.902 318.309,161.907ZM282.364,159.25C281.817,160.343 274.273,161.77 269.365,161.902C264.458,162.035 259.417,159.515 257.428,155.668C255.438,151.822 254.775,150.495 255.173,148.506C255.571,146.516 257.826,143.863 263.927,144.129C270.028,144.394 274.14,148.108 277.456,151.822C280.772,155.536 282.629,158.719 282.364,159.25Z" style="fill:white;"/>
    </g>
</svg>
