<?xml version="1.0" encoding="UTF-8" standalone="no"?>
<!DOCTYPE svg PUBLIC "-//W3C//DTD SVG 1.1//EN" "http://www.w3.org/Graphics/SVG/1.1/DTD/svg11.dtd">
<svg width="100%" height="100%" viewBox="0 0 870 622" version="1.1" xmlns="http://www.w3.org/2000/svg" xmlns:xlink="http://www.w3.org/1999/xlink" xml:space="preserve" xmlns:serif="http://www.serif.com/" style="fill-rule:evenodd;clip-rule:evenodd;stroke-linejoin:round;stroke-miterlimit:2;">
    <g transform="matrix(0.337618,0,0,0.337618,-157.277,-635.944)">
        <g transform="matrix(4.16667,0,0,4.16667,0,-673.267)">
            <path d="M612.441,734.114C612.441,734.114 612.301,739.27 602.168,720.759C592.034,702.248 548.232,616.997 548.232,616.997C548.232,616.997 547.586,614.549 549.259,613.915C551.797,612.954 552.341,614.942 552.341,614.942L612.441,728.464L612.441,734.114Z" style="fill:white;"/>
        </g>
        <g transform="matrix(1,0,0,1,-7693.91,-2026)">
            <path d="M9314.03,4430.99L9310.86,4434.17L9315.64,4434.17C9315.64,4434.17 9313.94,4439.7 9310.86,4443.72C9307.79,4447.74 9314.04,4445.31 9314.04,4445.31L9307.68,4450.09L9310.86,4451.68C9310.86,4451.68 9308.98,4454.03 9306.09,4458.05C9303.19,4462.07 9302.09,4463.94 9299.72,4470.79C9297.35,4477.64 9291.82,4489.06 9290.17,4494.67C9288.5,4500.28 9286.69,4504.62 9282.2,4510.59C9277.71,4516.55 9272.72,4514.89 9272.65,4520.15C9272.58,4525.4 9273.78,4526.74 9271.06,4531.29C9268.34,4535.84 9264.69,4539.25 9264.69,4539.25L9266.28,4534.48C9266.28,4534.48 9264.4,4538.06 9261.51,4540.84C9258.61,4543.62 9258.32,4544.03 9258.32,4544.03C9258.32,4544.03 9257.86,4550.27 9258.32,4553.58C9258.78,4556.89 9261.51,4563.13 9261.51,4563.13C9261.51,4563.13 9279.79,4573.27 9285.39,4577.46C9290.98,4581.66 9293.95,4580.17 9291.76,4583.83C9289.57,4587.5 9289.17,4595.03 9290.17,4596.57C9291.16,4598.11 9292,4600.33 9294.94,4601.34C9297.88,4602.35 9301.31,4606.12 9301.31,4606.12C9301.31,4606.12 9341.89,4631.65 9350.67,4641.15C9359.44,4650.65 9367.54,4665.25 9366.59,4685.73C9365.63,4706.2 9367.72,4751.58 9366.59,4757.37C9365.46,4763.16 9362.59,4763.79 9363.4,4768.52C9364.22,4773.25 9366.3,4774.05 9366.59,4779.66C9366.87,4785.28 9364.18,4794.4 9363.4,4798.77C9362.63,4803.14 9360.11,4807.13 9363.4,4813.1C9366.69,4819.06 9368.18,4818.45 9368.18,4825.83C9368.18,4833.21 9358.62,4842.87 9358.62,4846.53C9358.62,4850.2 9364.99,4855.43 9364.99,4860.86C9364.99,4866.3 9358.62,4872.01 9358.62,4872.01C9358.62,4872.01 9360.46,4877.01 9358.62,4879.97C9356.79,4882.93 9357.03,4883.15 9357.03,4883.15C9357.03,4883.15 9359.93,4890.28 9358.62,4892.7C9357.32,4895.13 9357.03,4895.89 9357.03,4895.89C9357.03,4895.89 9359.93,4901.78 9355.44,4908.62C9350.95,4915.48 9345.89,4915 9345.89,4915C9345.89,4915 9344.89,4924.07 9336.34,4929.32C9327.78,4934.58 9321.54,4939.63 9317.23,4940.47C9312.92,4941.3 9303.32,4939.99 9296.53,4938.88C9289.74,4937.77 9282.2,4937.28 9282.2,4937.28C9282.2,4937.28 9295.01,4953.43 9293.35,4962.76C9291.69,4972.08 9279.02,4975.5 9279.02,4975.5C9279.02,4975.5 9287.76,4986.51 9288.57,4993.01C9289.39,4999.5 9287.93,5004.91 9291.76,5007.34C9295.58,5009.77 9298.37,5013.58 9298.12,5018.48C9297.88,5023.39 9297.31,5033.04 9301.31,5036C9305.31,5038.95 9305.8,5039.94 9306.09,5042.37C9306.37,5044.79 9304.49,5047.14 9304.49,5047.14C9304.49,5047.14 9315.35,5050.38 9315.64,5055.1C9315.92,5059.83 9316.19,5063.55 9323.6,5074.21C9331,5084.86 9364.22,5138.65 9372.96,5161.78C9381.69,5184.9 9399.51,5218.26 9406.39,5227.05C9413.26,5235.85 9417.03,5244.26 9420.72,5250.94C9424.41,5257.61 9427.64,5268.41 9431.86,5273.23C9436.09,5278.04 9436.93,5278.76 9435.05,5287.55C9433.17,5296.35 9428.68,5303.48 9428.68,5303.48C9428.68,5303.48 9429.76,5310.34 9433.46,5319.4C9437.15,5328.46 9437.73,5332.1 9435.05,5344.87C9432.37,5357.65 9435.6,5378.8 9435.05,5394.23C9434.49,5409.66 9432.69,5434 9433.46,5445.18C9434.23,5456.36 9430.56,5456.02 9427.09,5469.06C9423.61,5482.1 9422.31,5491.35 9422.31,5491.35C9422.31,5491.35 9431.09,5508.29 9436.64,5516.82C9442.19,5525.35 9440.38,5529.52 9438.23,5537.52C9436.09,5545.52 9436.64,5553.44 9436.64,5553.44C9436.64,5553.44 9445.95,5555 9447.79,5561.4C9449.62,5567.81 9447.54,5565.61 9450.97,5569.36C9454.39,5573.12 9453.65,5571.18 9455.74,5575.73C9457.84,5580.28 9457.34,5580.51 9457.34,5580.51L9455.74,5583.69C9455.74,5583.69 9457.36,5584.72 9465.3,5590.06C9473.24,5595.41 9476.73,5601.17 9482.81,5604.39C9488.89,5607.61 9487.35,5608.07 9497.14,5612.35C9506.94,5616.63 9508.29,5620.31 9508.29,5620.31C9508.29,5620.31 9516.8,5626.64 9519.43,5628.28C9522.06,5629.9 9528.99,5632.48 9528.99,5645.79C9528.99,5650.34 9518.13,5663.3 9474.85,5663.3C9431.57,5663.3 9417.29,5640.44 9385.69,5637.82C9354.09,5635.21 9352.01,5630.89 9347.48,5628.28C9342.94,5625.66 9342.7,5623.5 9342.7,5623.5C9342.7,5623.5 9341.11,5615.76 9341.11,5610.76C9341.11,5605.75 9344.29,5602.8 9344.29,5602.8L9344.29,5591.65C9344.29,5591.65 9341.11,5589.49 9341.11,5583.69C9341.11,5577.89 9341.71,5577.69 9342.7,5567.77C9343.69,5557.85 9341.93,5548.89 9337.93,5537.52C9333.92,5526.15 9335.3,5515.73 9336.34,5497.72C9337.37,5479.71 9337.93,5461.1 9337.93,5461.1C9337.93,5461.1 9332.91,5453.1 9334.74,5440.4C9336.58,5427.7 9336.89,5416.22 9333.15,5403.78C9329.41,5391.35 9326.81,5373.49 9328.37,5352.83C9329.94,5332.18 9331.56,5327.36 9331.56,5327.36C9331.56,5327.36 9320.7,5321.48 9315.64,5303.48C9310.57,5285.47 9313.8,5286.19 9307.68,5278C9301.55,5269.81 9299.74,5274.25 9290.17,5262.08C9280.59,5249.91 9237.11,5204.46 9221.7,5184.07C9206.29,5163.67 9203.15,5160.15 9194.64,5152.23C9186.12,5144.3 9169.16,5133.12 9169.16,5133.12C9169.16,5133.12 9149.02,5159.08 9137.32,5188.84C9125.62,5218.6 9116.11,5239.75 9111.84,5262.08C9107.57,5284.41 9099.93,5303.18 9100.7,5317.8C9101.47,5332.44 9100.19,5344.3 9099.11,5354.43C9098.02,5364.55 9081.59,5373.53 9081.59,5373.53C9081.59,5373.53 9081.09,5396.31 9067.26,5414.93C9053.44,5433.54 9041.82,5440.63 9040.2,5454.73C9038.58,5468.83 9037.3,5500.33 9030.64,5521.6C9023.99,5542.87 8994.03,5558.22 8994.03,5558.22C8994.03,5558.22 8996.17,5566.67 8995.62,5570.95C8995.07,5575.24 8993.52,5574.63 8994.03,5577.32C8994.53,5580.02 8995.62,5580.47 8995.62,5586.88C8995.62,5593.28 8986.07,5598.02 8986.07,5598.02C8986.07,5598.02 8987.66,5599.57 8987.66,5602.8L8987.66,5610.76L8984.47,5612.35C8984.47,5612.35 8985.03,5614.44 8986.07,5620.31C8987.1,5626.19 8986.07,5634.64 8986.07,5634.64C8986.07,5634.64 8989.27,5638.32 8992.43,5644.2C8995.59,5650.07 8995.62,5653.75 8995.62,5653.75C8995.62,5653.75 9000.39,5656.1 9000.39,5660.12L9000.39,5672.85C9000.39,5677.14 8992.99,5687.18 8946.26,5687.18C8922.09,5687.18 8911.26,5669.37 8909.64,5656.93C8908.03,5644.5 8910.73,5637.26 8909.64,5633.05C8908.56,5628.84 8904.89,5626.38 8904.86,5617.13C8904.84,5607.88 8906.46,5599.61 8906.46,5599.61L8904.86,5593.25C8904.86,5593.25 8902.5,5594 8903.27,5588.47C8904.04,5582.93 8905.42,5577.82 8906.46,5564.59C8907.49,5551.36 8910.2,5543.85 8909.64,5534.34C8909.09,5524.82 8913.38,5522.36 8917.6,5521.6C8921.82,5520.84 8928.77,5517.85 8928.75,5504.09C8928.72,5490.32 8930.89,5481.49 8938.3,5464.28C8945.71,5447.07 8946.29,5445.14 8951.04,5426.07C8955.79,5407 8957.96,5403.48 8960.59,5394.23C8963.22,5384.98 8966.96,5383.08 8966.96,5383.08C8966.96,5383.08 8963,5377.21 8970.14,5359.2C8977.29,5341.2 8989.25,5336.91 8989.25,5336.91C8989.25,5336.91 8988.71,5334.23 8986.07,5320.99C8983.42,5307.75 8989.54,5287.25 8992.43,5268.45C8995.33,5249.65 9000.95,5216.14 9000.39,5204.76C8999.84,5193.39 8996.97,5175.8 8997.21,5164.96C8997.45,5154.12 8997.21,5134.71 8997.21,5134.71C8997.21,5134.71 8991.93,5126.45 8992.43,5121.97C8992.94,5117.5 8996.17,5119.81 8995.62,5115.6C8995.06,5111.4 8994.58,5109.46 8994.03,5104.46C8993.47,5099.45 8994.84,5097.79 8995.62,5094.91C8996.39,5092.03 8994.03,5074.21 8994.03,5074.21C8994.03,5074.21 8989.1,5073.97 8989.25,5069.43C8989.4,5064.89 8987.22,5062.58 8989.25,5056.7C8991.28,5050.81 8992.43,5043.96 8992.43,5043.96C8992.43,5043.96 8991.03,5040.96 8990.84,5037.59C8990.65,5034.22 8994.03,5029.63 8994.03,5029.63C8994.03,5029.63 8993.96,5016.14 8994.03,5007.34C8994.09,4998.54 8996.62,4992.95 8998.8,4988.23C9000.98,4983.52 9000.17,4981.87 9001.99,4975.5C9003.8,4969.12 9005.29,4972.78 9005.17,4965.94C9005.05,4959.1 9001.17,4961.96 9003.58,4951.61C9005.99,4941.27 9006.76,4934.1 9006.76,4934.1L9008.36,4918.18C9008.36,4918.18 9004.5,4914.69 9000.39,4905.44C8996.29,4896.2 8995.78,4892.49 8992.43,4887.93C8989.09,4883.37 8988.16,4870.19 8989.25,4867.23C8990.34,4864.28 8989.25,4859.27 8989.25,4859.27C8989.25,4859.27 8987.06,4862.19 8984.47,4852.9C8981.89,4843.62 8986.07,4843.35 8986.07,4843.35L8987.66,4840.16C8987.66,4840.16 8981.42,4839.2 8984.47,4830.61C8987.52,4822.02 8987.22,4824.74 8989.25,4819.47C8991.28,4814.2 8995.62,4813.1 8995.62,4813.1C8995.62,4813.1 8992.02,4810.57 8992.43,4798.77C8992.84,4786.97 8995.94,4787.8 8997.21,4782.85C8998.48,4777.89 8989.83,4775.87 8992.43,4754.19C8995.04,4732.51 9000.65,4722.13 9006.76,4711.2C9012.87,4700.27 9019.29,4695.8 9021.09,4682.54C9022.89,4669.29 9031.38,4644.81 9044.97,4628.41C9058.57,4612.01 9070.14,4603.08 9080,4598.16C9089.86,4593.23 9099.11,4591.79 9099.11,4591.79C9099.11,4591.79 9098.13,4585.95 9102.29,4582.24C9106.45,4578.53 9107.07,4577.46 9107.07,4577.46C9107.07,4577.46 9111.82,4568.5 9118.21,4566.32C9124.61,4564.12 9129.36,4564.73 9129.36,4564.73C9129.36,4564.73 9130.57,4563.7 9135.73,4563.13C9140.88,4562.56 9142.09,4563.13 9142.09,4563.13L9146.87,4556.76C9146.87,4556.76 9139.96,4532.61 9135.73,4523.33C9131.49,4514.05 9123.56,4506.17 9122.99,4491.49C9122.42,4476.8 9125.29,4465.7 9127.76,4461.23C9130.24,4456.78 9130.95,4456.46 9130.95,4456.46L9130.95,4451.68L9129.36,4446.9L9130.95,4445.31C9130.95,4445.31 9131.02,4439.17 9130.95,4437.35C9130.88,4435.53 9130.95,4434.17 9130.95,4434.17C9130.95,4434.17 9131.55,4432.8 9132.54,4429.39C9133.54,4425.98 9134.13,4426.21 9134.13,4426.21L9135.73,4416.65L9132.54,4421.43L9130.95,4415.06L9129.36,4418.25C9129.36,4418.25 9126.59,4413.88 9129.36,4402.32C9132.12,4390.78 9133.85,4386.98 9142.09,4376.85C9150.34,4366.72 9164.45,4356.2 9172.34,4352.97C9180.24,4349.73 9195.06,4346.6 9202.59,4346.6L9212.15,4346.6L9207.37,4345.01C9207.37,4345.01 9224.42,4345.77 9229.66,4345.01C9234.9,4344.25 9243.71,4344.53 9248.77,4346.6C9253.83,4348.68 9267.06,4356.73 9272.65,4360.93C9278.24,4365.12 9283.51,4368.94 9288.57,4376.85C9293.63,4384.76 9299.43,4395.12 9301.31,4399.14C9303.19,4403.16 9305.44,4410.34 9306.09,4415.06C9306.72,4419.79 9306.09,4427.8 9306.09,4427.8C9306.09,4427.8 9307.57,4430.86 9310.86,4430.98C9313.55,4431.09 9313.97,4431.02 9314.03,4430.99ZM9314.03,4430.99L9314.04,4430.98C9314.04,4430.98 9314.05,4430.99 9314.03,4430.99ZM8544.98,4727.2C8544.95,4727.26 8544.07,4728.85 8537.42,4729.72C8530.64,4730.61 8527.34,4729.72 8527.34,4729.72C8527.34,4729.72 8526.22,4767.2 8529.86,4782.66C8533.5,4798.12 8534.86,4816.9 8532.38,4825.51C8529.9,4834.13 8523.69,4848.59 8522.29,4853.24C8520.9,4857.9 8517.21,4860.47 8517.25,4870.89C8517.3,4881.3 8519.73,4883.16 8517.25,4888.53C8514.78,4893.91 8512.21,4903.66 8512.21,4903.66C8512.21,4903.66 8523.33,4915.57 8519.77,4931.39C8516.22,4947.21 8509.69,4949.03 8509.69,4949.03C8509.69,4949.03 8512.17,4958.06 8509.69,4964.16C8507.22,4970.25 8499.61,4974.24 8499.61,4974.24C8499.61,4974.24 8502.09,4983.99 8494.57,4999.45C8487.05,5014.91 8491.64,5017.12 8492.04,5029.7C8492.45,5042.28 8479.44,5047.35 8479.44,5047.35C8479.44,5047.35 8472.92,5066.46 8476.92,5077.6C8480.92,5088.73 8515.05,5197.55 8527.34,5228.85C8539.62,5260.15 8547.82,5277.85 8547.5,5291.87C8547.19,5305.89 8532.38,5349.85 8532.38,5349.85C8532.38,5349.85 8557.91,5359.24 8552.54,5372.54C8547.19,5385.84 8533.42,5412.18 8534.9,5420.43C8536.38,5428.69 8539.18,5429.1 8537.42,5438.08C8535.66,5447.06 8537.02,5448.55 8534.9,5455.73C8532.78,5462.9 8529.46,5471.24 8532.38,5475.89C8535.3,5480.55 8536.66,5479.88 8534.9,5485.98C8533.14,5492.07 8532.34,5494.65 8532.38,5501.1C8532.42,5507.56 8531.26,5526.7 8529.86,5533.87C8528.46,5541.05 8529.86,5554.04 8529.86,5554.04C8529.86,5554.04 8533.42,5571.71 8539.94,5576.73C8546.47,5581.74 8551.07,5585.4 8557.59,5589.33C8564.11,5593.27 8563.67,5597.64 8582.8,5601.94C8601.92,5606.23 8616.97,5612.05 8620.61,5614.54C8624.25,5617.03 8628.17,5619.25 8628.17,5629.67C8628.17,5640.08 8611.2,5657.4 8585.32,5657.4C8559.43,5657.4 8528.37,5646.26 8509.69,5642.27C8491.01,5638.28 8479.76,5637.23 8464.32,5637.23C8448.87,5637.23 8436.9,5632.93 8434.07,5627.15C8431.23,5621.35 8434.07,5617.06 8434.07,5617.06C8434.07,5617.06 8427.18,5612.05 8431.54,5594.38C8435.91,5576.7 8440.51,5574.23 8441.63,5564.12C8442.75,5554.01 8442.31,5555.51 8439.11,5549C8435.91,5542.49 8432.94,5533.18 8434.07,5521.27C8435.19,5509.36 8439.11,5496.06 8439.11,5496.06C8439.11,5496.06 8434.74,5489.96 8434.07,5483.45C8433.39,5476.95 8431.5,5475.56 8434.07,5470.85C8436.63,5466.14 8439.11,5463.29 8439.11,5463.29C8439.11,5463.29 8431.5,5455.39 8431.54,5448.16C8431.59,5440.93 8436.59,5430.52 8436.59,5430.52C8436.59,5430.52 8431.86,5421.18 8431.54,5412.87C8431.23,5404.56 8434.38,5410.02 8434.07,5402.79C8433.75,5395.56 8429.7,5389.49 8431.54,5385.14C8433.39,5380.8 8444.15,5372.54 8444.15,5372.54C8444.15,5372.54 8447.71,5346.64 8451.71,5332.2C8455.72,5317.77 8459.23,5305.22 8454.23,5296.91C8449.23,5288.6 8444.15,5276.75 8444.15,5276.75C8444.15,5276.75 8434.38,5330.79 8429.02,5354.89C8423.67,5378.99 8412.78,5396.33 8398.77,5410.35C8384.77,5424.37 8368.52,5448.16 8368.52,5448.16C8368.52,5448.16 8372.8,5448.55 8368.52,5458.25C8364.24,5467.94 8317.7,5541.82 8313.07,5549C8308.43,5556.18 8305.1,5556.95 8302.98,5561.6C8300.86,5566.26 8293.94,5576.03 8292.9,5584.29C8291.86,5592.55 8291.42,5609.17 8287.86,5619.58C8284.3,5630 8272.73,5639.75 8272.73,5639.75L8272.73,5657.4C8272.73,5657.4 8280.61,5658.86 8287.86,5667.48C8295.1,5676.1 8300.42,5682.27 8310.54,5690.17C8320.67,5698.06 8340.79,5711.44 8340.79,5722.94C8340.79,5734.43 8323.11,5750.67 8285.34,5750.67C8247.57,5750.67 8207.51,5720.44 8189.54,5712.85C8171.58,5705.26 8166.45,5696.68 8161.82,5690.17C8157.17,5683.66 8161.82,5680.08 8161.82,5680.08C8161.82,5680.08 8163.93,5671.82 8169.38,5659.92C8174.82,5648 8181.22,5637.98 8181.98,5632.19C8182.74,5626.4 8189.54,5622.1 8189.54,5622.1C8189.54,5622.1 8190.58,5605.2 8194.59,5596.9C8198.59,5588.58 8202.1,5587.92 8202.15,5579.25C8202.19,5570.58 8209.71,5569.17 8209.71,5569.17C8209.71,5569.17 8212.91,5557.31 8214.75,5546.48C8216.59,5535.65 8222.32,5531.35 8222.32,5531.35C8222.32,5531.35 8216.15,5518.41 8219.79,5513.7C8223.44,5509 8228.75,5513.01 8229.88,5503.62C8231,5494.23 8225.15,5486 8227.36,5478.41C8229.56,5470.82 8236.68,5469.44 8239.96,5465.81C8243.24,5462.18 8250,5433.07 8252.57,5425.48C8255.13,5417.89 8280.29,5422.95 8280.29,5422.95C8280.29,5422.95 8323.11,5370.76 8325.67,5364.98C8328.23,5359.19 8328.51,5361.4 8330.71,5354.89C8332.92,5348.38 8336.79,5343.4 8335.75,5339.77C8334.72,5336.14 8335.75,5329.68 8335.75,5329.68C8335.75,5329.68 8340.03,5319.62 8340.79,5307C8341.56,5294.37 8340.03,5249.4 8338.27,5226.33C8336.51,5203.25 8338.27,5175.91 8338.27,5175.91C8338.27,5175.91 8337.51,5171.62 8333.23,5168.35C8328.95,5165.08 8328.87,5163.33 8333.23,5160.79C8337.59,5158.24 8336.07,5153.25 8330.71,5145.66C8325.35,5138.07 8302.94,5122.64 8300.46,5077.6C8297.98,5032.55 8308.02,5009.53 8308.02,5009.53L8300.46,5007.01C8300.46,5007.01 8297.54,5006.32 8302.98,4996.93C8308.43,4987.54 8313.02,4975.71 8315.59,4969.2C8318.15,4962.69 8323.11,4963.47 8328.19,4954.07C8333.27,4944.69 8335.75,4928.87 8335.75,4928.87C8335.75,4928.87 8331.03,4926.38 8335.75,4908.7C8340.48,4891.03 8345.84,4883.49 8345.84,4883.49C8345.84,4883.49 8339.31,4880.64 8338.27,4868.37C8337.24,4856.1 8337.87,4843.18 8338.27,4835.6C8338.68,4828 8330.31,4816.9 8330.71,4805.35C8331.11,4793.8 8327.79,4771.16 8323.15,4757.45C8318.51,4743.74 8312.66,4717.14 8308.02,4701.99C8303.39,4686.84 8305.5,4644.01 8305.5,4644.01C8305.5,4644.01 8302.58,4661.68 8297.94,4674.26C8293.3,4686.84 8272.73,4707.03 8272.73,4707.03C8272.73,4707.03 8292.86,4683.65 8295.42,4671.74C8297.98,4659.83 8297.94,4649.05 8297.94,4649.05C8297.94,4649.05 8291.77,4663.48 8287.86,4671.74C8283.94,4680 8280.25,4681.85 8270.21,4686.87C8260.17,4691.88 8265.49,4678.61 8260.13,4684.35C8254.77,4690.08 8250.04,4701.99 8250.04,4701.99C8250.04,4701.99 8247.12,4711.74 8247.52,4717.12C8247.92,4722.49 8250.04,4729.72 8250.04,4729.72C8250.04,4729.72 8242.8,4716.42 8247.52,4696.95C8252.25,4677.48 8252.57,4676.78 8252.57,4676.78C8252.57,4676.78 8238.11,4703.46 8239.96,4714.6C8241.8,4725.73 8245,4739.8 8245,4739.8L8234.92,4712.07C8234.92,4712.07 8230.19,4718.94 8229.88,4727.2C8229.56,4735.45 8229.88,4747.37 8229.88,4747.37L8224.84,4707.03L8219.79,4747.37L8217.27,4709.55L8212.23,4714.6L8207.19,4752.41C8207.19,4752.41 8209.67,4720.02 8204.67,4724.68C8199.67,4729.33 8189.54,4767.53 8189.54,4767.53C8189.54,4767.53 8190.22,4749.91 8192.07,4729.72C8193.91,4709.53 8202.82,4690.13 8207.19,4671.74C8211.55,4653.35 8224.07,4626.39 8232.4,4583.51C8240.72,4540.63 8250,4519.43 8250.04,4502.84C8250.09,4486.25 8243.88,4481.62 8260.13,4465.03C8276.37,4448.44 8287.86,4452.43 8287.86,4452.43C8287.86,4452.43 8286.26,4447.46 8292.9,4447.38C8299.54,4447.3 8300.46,4449.9 8300.46,4449.9C8300.46,4449.9 8308.94,4441.7 8313.07,4434.78C8317.19,4427.86 8342.79,4394.45 8398.77,4394.45C8454.75,4394.45 8468.48,4415.77 8476.92,4424.7C8485.36,4433.62 8490.44,4443.5 8492.04,4449.9C8493.65,4456.31 8494.57,4465.03 8494.57,4465.03C8494.57,4465.03 8495.13,4480.23 8499.61,4485.2C8504.09,4490.16 8502.33,4491.04 8509.69,4495.28C8517.06,4499.52 8519.97,4502.2 8517.25,4505.36C8514.54,4508.53 8509.69,4512.93 8509.69,4512.93C8509.69,4512.93 8507.46,4520.62 8509.69,4523.01C8511.92,4525.39 8515.09,4526.03 8512.21,4528.05C8509.34,4530.07 8507.17,4530.57 8507.17,4530.57C8507.17,4530.57 8507.74,4534.05 8507.17,4535.61C8506.6,4537.17 8502.13,4538.13 8502.13,4538.13C8502.13,4538.13 8512.67,4537.36 8512.21,4540.65C8511.76,4543.95 8508.43,4546.72 8509.69,4550.74C8510.95,4554.76 8513.95,4557.89 8512.21,4563.34C8510.47,4568.79 8510.2,4571.48 8499.61,4575.95C8489.01,4580.41 8476.16,4578.99 8469.36,4580.99C8462.55,4582.99 8456.08,4583.62 8454.23,4588.55C8452.39,4593.48 8451.71,4608.72 8451.71,4608.72C8451.71,4608.72 8491.97,4605.81 8499.61,4603.68C8507.24,4601.54 8540.66,4589.68 8567.67,4583.51C8594.69,4577.34 8616.6,4574.75 8635.74,4568.38C8654.86,4562.02 8681.86,4548.94 8691.19,4548.22C8700.52,4547.5 8708.2,4544.02 8713.88,4543.18C8719.56,4542.33 8725.79,4539.86 8734.05,4535.61C8742.31,4531.36 8751.69,4528.05 8751.69,4528.05C8751.69,4528.05 8749.34,4512.64 8754.22,4507.88C8759.09,4503.13 8757.53,4503.04 8761.78,4502.84C8766.02,4502.65 8771.86,4502.84 8771.86,4502.84L8792.03,4475.11C8792.03,4475.11 8789.96,4467.75 8792.03,4465.03C8794.1,4462.31 8834.57,4414.95 8837.4,4412.09C8840.24,4409.23 8841.14,4409.91 8844.97,4419.65C8848.79,4429.4 8853.12,4440.76 8857.57,4442.34C8862.02,4443.92 8863.81,4445.8 8870.17,4444.86C8876.54,4443.92 8877.74,4442.34 8877.74,4442.34C8877.74,4442.34 8880.02,4451.01 8875.22,4457.47C8870.41,4463.93 8855.94,4485.05 8852.53,4487.72C8849.11,4490.38 8839.92,4492.76 8839.92,4492.76L8829.84,4507.88C8829.84,4507.88 8834.17,4512.48 8832.36,4517.97C8830.56,4523.46 8812.19,4545.7 8812.19,4545.7C8812.19,4545.7 8813.67,4551.16 8812.19,4555.78C8810.72,4560.4 8806.61,4561.48 8804.63,4565.86C8802.65,4570.25 8799.24,4575.03 8797.07,4575.95C8794.9,4576.86 8778.02,4583.34 8771.86,4591.07C8765.7,4598.8 8733.21,4651.83 8723.97,4666.7C8714.72,4681.57 8675.37,4715.64 8668.51,4722.16C8661.64,4728.68 8644.47,4731.89 8613.05,4729.72C8581.62,4727.55 8552.54,4722.16 8552.54,4722.16C8552.54,4722.16 8550.17,4727.01 8547.5,4727.2C8545,4727.37 8544.97,4727.22 8544.98,4727.2C8544.98,4727.2 8544.98,4727.2 8544.98,4727.2C8544.98,4727.2 8544.98,4727.2 8544.98,4727.2ZM8323.09,4603.6C8322.83,4603.26 8321.66,4601.84 8318.11,4598.63C8313.97,4594.9 8313.07,4593.59 8313.07,4593.59L8315.59,4623.84C8315.59,4623.84 8317.61,4621.93 8320.63,4616.28C8323.65,4610.63 8324.87,4611.04 8328.19,4606.2C8328.29,4597.93 8326.08,4591.28 8323.15,4583.51C8320.22,4575.74 8310.54,4568.38 8310.54,4568.38C8310.54,4568.38 8311.96,4578.57 8315.59,4588.55C8318.95,4597.8 8322.58,4602.9 8323.09,4603.6ZM8567.67,4646.53L8562.63,4649.05L8565.15,4659.13C8565.15,4659.13 8591.25,4660.78 8600.44,4661.65C8609.64,4662.54 8633.65,4672.18 8640.78,4671.74C8647.91,4671.3 8651.78,4667.79 8658.42,4661.65C8665.07,4655.52 8681.31,4643.52 8691.19,4636.45C8701.08,4629.38 8721.44,4603.68 8721.44,4603.68C8721.44,4603.68 8718.74,4601.12 8716.4,4598.63C8714.07,4596.15 8713.88,4588.55 8713.88,4588.55C8713.88,4588.55 8706.74,4588.55 8701.28,4586.03C8695.81,4583.51 8693.59,4582.7 8686.15,4586.03C8678.72,4589.36 8675.75,4591.18 8663.47,4596.11C8651.18,4601.05 8629.55,4611.94 8618.09,4618.8C8606.62,4625.66 8567.67,4646.53 8567.67,4646.53ZM8300.46,4510.4C8300.46,4510.4 8299.46,4541.06 8302.98,4550.74C8306.51,4560.41 8315.39,4566.07 8323.15,4575.95C8330.91,4585.82 8330.71,4603.68 8330.71,4603.68C8330.71,4603.68 8342.82,4592.69 8353.4,4588.55C8363.98,4584.41 8366,4586.03 8366,4586.03C8366,4586.03 8367.22,4574.34 8366,4573.43C8364.79,4572.51 8361.17,4568.29 8348.36,4560.82C8335.54,4553.35 8331.72,4549.53 8320.63,4540.65C8309.53,4531.78 8300.46,4510.4 8300.46,4510.4ZM10024.1,5174.64L10024.1,5182.35C10024.1,5182.35 10027,5181.95 10028.5,5184.56C10030,5187.17 10027.4,5191.18 10027.4,5191.18C10027.4,5191.18 10028.6,5191.15 10031.8,5191.18C10035,5191.21 10035.1,5195.59 10035.1,5195.59C10035.1,5195.59 10035.6,5195.93 10038.4,5196.69C10041.3,5197.46 10041.9,5201.25 10045.1,5203.31C10048.2,5205.36 10048.4,5211.03 10048.4,5211.03C10048.4,5211.03 10053.1,5210.26 10056.1,5214.33C10059.1,5218.41 10057.9,5220.73 10061.6,5222.05C10065.3,5223.37 10064.9,5227.57 10064.9,5227.57C10064.9,5227.57 10080.5,5239.48 10094.7,5254.03C10108.9,5268.58 10126.6,5300.87 10133.3,5321.3C10139.9,5341.73 10154.2,5378.24 10156.4,5381.95C10158.7,5385.65 10156.4,5386.36 10156.4,5386.36C10156.4,5386.36 10146.8,5392.57 10130,5400.69C10113.1,5408.81 10096.9,5417.23 10096.9,5417.23C10096.9,5417.23 10090.6,5437.05 10083.6,5456.93C10076.7,5476.81 10057.2,5534.12 10057.2,5534.12C10057.2,5534.12 10057.7,5536.48 10057.2,5540.74C10056.7,5545 10058.4,5549.71 10059.4,5561.69C10060.4,5573.67 10064.9,5588.15 10064.9,5588.15C10064.9,5588.15 10074.2,5585.73 10078.1,5588.15C10082.1,5590.57 10089.3,5594.37 10092.5,5596.98C10095.7,5599.58 10097.7,5600.99 10103.5,5605.8C10109.3,5610.61 10112.6,5607.97 10118.9,5610.21C10125.2,5612.45 10147.6,5621.24 10147.6,5621.24C10147.6,5621.24 10161.7,5621.02 10168.6,5624.54C10175.4,5628.07 10178.8,5636.82 10176.3,5646.6C10173.8,5656.37 10170.9,5657.41 10159.7,5665.35C10148.6,5673.28 10131.1,5678.57 10131.1,5678.57L10122.2,5678.57L10121.1,5680.78L10100.2,5680.78L10100.2,5682.99L10085.9,5682.99C10085.9,5682.99 10083.8,5679.46 10081.4,5678.57C10079.1,5677.69 10077,5682.99 10077,5682.99L10066,5682.99L10062.7,5680.78L10058.3,5680.78L10056.1,5681.88L10040.6,5681.88C10040.6,5681.88 10036.7,5681.85 10030.7,5684.09C10024.7,5686.33 9999.79,5689.75 9976.69,5684.09C9953.59,5678.43 9945.94,5660.72 9948.01,5649.9C9950.09,5639.1 9963.45,5632.26 9963.45,5632.26C9963.45,5632.26 9968.73,5604.48 9972.28,5596.98C9975.82,5589.47 9983.3,5590.36 9983.3,5590.36C9983.3,5590.36 9984.54,5566.8 9986.61,5562.79C9988.69,5558.78 9988.39,5547.69 9988.82,5538.53C9989.24,5529.38 9992.12,5530.81 9992.12,5530.81L9998.74,5456.93L9996.54,5456.93C9996.54,5456.93 9995.38,5451.57 9993.23,5444.8C9991.08,5438.03 9989.49,5434.85 9987.72,5428.26C9985.93,5421.68 9981.96,5422.53 9978.89,5417.23C9975.82,5411.94 9977.79,5406.21 9977.79,5406.21C9977.79,5406.21 9976.63,5406.54 9972.28,5400.69C9967.92,5394.84 9963.45,5388.56 9963.45,5388.56C9963.45,5388.56 9960.83,5396.98 9956.84,5407.31C9952.85,5417.63 9940.06,5445.87 9936.99,5451.42C9933.92,5456.96 9929.4,5456.72 9927.07,5454.73C9924.73,5452.74 9918,5447.53 9912.73,5442.6C9907.46,5437.67 9906.61,5436.5 9898.39,5431.57C9890.18,5426.64 9880.69,5421.43 9876.34,5417.23C9871.99,5413.04 9868.93,5408.75 9864.21,5404C9859.49,5399.25 9848.77,5391.87 9848.77,5391.87C9848.77,5391.87 9840.44,5398.09 9832.23,5400.69C9824.01,5403.3 9798.54,5412.43 9773.79,5416.13C9749.03,5419.84 9714.24,5439.29 9714.24,5439.29L9712.04,5444.8C9712.04,5444.8 9709.22,5446.24 9703.22,5450.32C9697.21,5454.39 9698.8,5458.03 9698.8,5458.03C9698.8,5458.03 9700.4,5461.86 9703.22,5464.65C9706.03,5467.44 9705.92,5466.64 9708.73,5472.37C9711.54,5478.1 9715.66,5483.36 9720.86,5490.01C9726.06,5496.66 9723.06,5501.04 9723.06,5501.04C9723.06,5501.04 9729.44,5510.2 9732.99,5518.68C9736.54,5527.17 9740.1,5524.35 9741.81,5525.3C9743.52,5526.25 9748.74,5528.94 9747.32,5536.32C9745.91,5543.71 9744.88,5557.28 9704.32,5557.28C9663.76,5557.28 9655.56,5539.79 9649.18,5527.5C9642.8,5515.23 9638.83,5510.01 9629.33,5505.45C9619.83,5500.89 9601.52,5485.75 9588.53,5469.06C9575.54,5452.37 9577.63,5437.6 9585.22,5429.36C9592.82,5421.12 9609.48,5420.54 9609.48,5420.54C9609.48,5420.54 9610.9,5417.57 9615,5415.03C9619.09,5412.49 9625.6,5409.12 9633.74,5406.21C9641.89,5403.3 9643.67,5406.21 9643.67,5406.21C9643.67,5406.21 9656.66,5398.64 9660.21,5397.38C9663.76,5396.13 9669.53,5394.05 9672.34,5391.87C9675.15,5389.7 9684.47,5389.67 9684.47,5389.67C9684.47,5389.67 9732.2,5366.11 9738.5,5362.1C9744.81,5358.09 9764.17,5344.79 9775.99,5336.73C9787.81,5328.68 9827.82,5319.09 9827.82,5319.09C9827.82,5319.09 9832.36,5314.83 9833.34,5310.27C9834.31,5305.71 9839.89,5302.34 9842.16,5294.83C9844.42,5287.33 9856.49,5290.42 9856.49,5290.42C9856.49,5290.42 9857.17,5285.61 9858.7,5282.7C9860.22,5279.8 9859.19,5276.6 9859.8,5270.57C9860.41,5264.54 9861.03,5263.74 9865.31,5257.34C9869.59,5250.94 9871.93,5225.36 9871.93,5225.36L9859.8,5209.93L9856.49,5208.82C9856.49,5208.82 9842.29,5189.68 9839.95,5185.66C9837.61,5181.65 9838.85,5177.95 9838.85,5177.95C9838.85,5177.95 9835.49,5173.69 9832.23,5166.92C9828.98,5160.15 9828.92,5155.89 9828.92,5155.89C9828.92,5155.89 9825.74,5154.02 9824.51,5150.38C9823.28,5146.73 9821.33,5144.83 9817.89,5129.43C9814.46,5114.02 9815.69,5104.06 9815.69,5104.06C9815.69,5104.06 9812.88,5098.7 9812.38,5090.83C9811.89,5082.96 9813.06,5060.48 9814.59,5050.03C9816.11,5039.59 9824.46,5034.56 9826.72,5031.28C9828.98,5028.01 9831.13,5008.12 9831.13,5008.12C9831.13,5008.12 9827.4,5005.52 9827.82,4996C9828.24,4986.47 9831.07,4970.6 9833.34,4961.81C9835.59,4953.03 9831.26,4948.73 9828.92,4940.86C9826.59,4932.99 9827.82,4911.09 9827.82,4911.09L9816.79,4897.85C9816.79,4897.85 9809.94,4898.74 9804.67,4898.96C9799.39,4899.18 9799.28,4899.48 9792.53,4885.73C9785.79,4871.98 9782.61,4838.31 9782.61,4838.31C9782.61,4838.31 9780.72,4836.07 9779.3,4832.8C9777.89,4829.52 9767.48,4817.51 9761.66,4809.64C9755.83,4801.77 9756.46,4793.25 9755.04,4785.38C9753.63,4777.51 9753.51,4750.24 9759.45,4739.07C9765.39,4727.89 9779.61,4726.17 9783.71,4725.83C9787.81,4725.5 9790.09,4722.49 9794.74,4719.22C9799.39,4715.94 9805.76,4713.7 9805.76,4713.7L9814.59,4703.78C9814.59,4703.78 9815.82,4702.82 9821.2,4700.47C9826.59,4698.11 9837.74,4697.16 9837.74,4697.16C9837.74,4697.16 9840.44,4694.93 9844.36,4690.55C9848.28,4686.17 9850.37,4673.6 9849.87,4670.7C9849.38,4667.79 9846.57,4655.26 9846.57,4655.26C9846.57,4655.26 9843.94,4656.88 9838.85,4655.26C9833.76,4653.64 9831.99,4649.53 9830.03,4645.33C9828.06,4641.14 9822.44,4638.5 9817.89,4633.2C9813.36,4627.91 9812.88,4624.35 9811.28,4612.25C9809.68,4600.15 9816.79,4596.82 9816.79,4596.82L9815.69,4569.25L9813.49,4573.66C9813.49,4573.66 9811.96,4562.6 9812.38,4554.91C9812.81,4547.23 9810.49,4539.99 9812.38,4531.75C9814.28,4523.52 9815.27,4519.78 9819,4509.7C9822.73,4499.62 9817.89,4505.29 9817.89,4505.29C9817.89,4505.29 9817.66,4503.42 9822.31,4498.68C9826.96,4493.93 9830.34,4489.82 9848.77,4479.93C9867.21,4470.03 9876.1,4464.09 9889.57,4465.59C9903.04,4467.1 9907.53,4469.97 9916.04,4474.41C9924.55,4478.86 9945.2,4490.37 9955.74,4501.98C9966.26,4513.59 9971.67,4521.8 9973.38,4527.35C9975.09,4532.89 9975.59,4540.57 9975.59,4540.57L9973.38,4537.27C9973.38,4537.27 9976.45,4546.98 9977.79,4562.63C9979.13,4578.28 9976.69,4576.97 9976.69,4576.97C9976.69,4576.97 9976.63,4589.8 9976.69,4594.61C9976.74,4599.42 9976.45,4610.57 9977.79,4616.66C9979.13,4622.76 9978.89,4638.72 9978.89,4638.72C9978.89,4638.72 9984.17,4638.69 9991.02,4644.23C9997.88,4649.78 9997.64,4654.15 9997.64,4654.15C9997.64,4654.15 10004.2,4652.84 10008.7,4654.15C10013.1,4655.48 10014.3,4658.53 10015.3,4661.88C10016.3,4665.22 10017.4,4668.09 10019.7,4670.7C10022,4673.3 10023,4677.31 10023,4677.31C10023,4677.31 10036.5,4691.8 10038.4,4697.16C10040.3,4702.53 10043.5,4714.59 10045.1,4719.22C10046.6,4723.84 10049.5,4732.45 10049.5,4732.45C10049.5,4732.45 10046.7,4731.65 10052.8,4734.65C10058.9,4737.65 10060.5,4746.15 10062.7,4753.4C10064.9,4760.65 10061.8,4765.84 10059.4,4773.25C10057,4780.66 10057.2,4783.17 10053.9,4789.79C10050.5,4796.41 10039.5,4799.71 10039.5,4799.71C10039.5,4799.71 10038.2,4801.75 10040.6,4805.23C10043.1,4808.7 10042.9,4806.32 10042.8,4810.74C10042.8,4815.16 10039.5,4815.15 10039.5,4815.15C10039.5,4815.15 10041.6,4816.72 10041.7,4819.56C10041.9,4822.4 10040.6,4826.18 10040.6,4826.18C10040.6,4826.18 10048.4,4825.54 10049.5,4831.69C10050.5,4837.84 10042.8,4841.62 10042.8,4841.62C10042.8,4841.62 10055.5,4876.27 10056.1,4878.01C10056.7,4879.75 10056.1,4881.32 10056.1,4881.32C10056.1,4881.32 10057.2,4881.62 10057.2,4882.42C10057.1,4883.21 10061.6,4908.88 10061.6,4908.88L10029.6,4919.91C10029.6,4919.91 10034.3,4939.8 10039.5,4960.71C10044.8,4981.62 10044.9,5003.32 10044,5019.15C10043,5034.99 10045.9,5065.07 10047.3,5076.5C10048.6,5087.91 10048.4,5102.96 10048.4,5102.96C10048.4,5102.96 10051.6,5110.25 10052.8,5117.3C10054,5124.35 10048.8,5129.65 10044,5139.35C10039.1,5149.05 10031.8,5159.2 10031.8,5159.2C10031.8,5159.2 10033.9,5162.48 10029.6,5169.12C10025.3,5175.77 10024.1,5174.64 10024.1,5174.64ZM10241.5,4376.4L10241.5,4373.02L10239.3,4366.6L10241.5,4362.32L10239.3,4351.62L10239.3,4343.06C10239.3,4343.06 10247.9,4333.52 10252.2,4325.93C10256.4,4318.35 10257.4,4310.9 10262.9,4302.39C10268.4,4293.89 10290.7,4273.9 10305.7,4268.15C10320.6,4262.4 10345.7,4258.92 10359.2,4259.59C10372.6,4260.25 10379.4,4259.83 10387,4266.01C10394.6,4272.18 10404.1,4289.55 10404.1,4289.55C10404.1,4289.55 10408.4,4291.63 10417,4302.39C10425.5,4313.15 10430.4,4324.96 10436.2,4345.2C10442,4365.44 10442.7,4363.79 10442.7,4381.58C10442.6,4399.38 10438.4,4411.55 10438.4,4411.55C10438.4,4411.55 10457,4412.71 10464.1,4411.55C10471.1,4410.38 10483.3,4395.28 10489.7,4390.15C10496.2,4385 10511.2,4407.51 10524,4426.53C10536.8,4445.55 10574.8,4521.87 10577.5,4537.82C10580.2,4553.78 10578.7,4570.18 10583.9,4578.49C10589.1,4586.8 10594.6,4624.6 10603.2,4646.98C10611.7,4669.36 10638.3,4745.07 10643.8,4775.4C10649.3,4805.73 10652.4,4833.13 10652.4,4846.03C10652.4,4858.93 10641.7,4875.99 10641.7,4875.99C10641.7,4875.99 10636.8,4887.86 10626.7,4890.98C10616.6,4894.09 10616,4893.11 10616,4893.11C10616,4893.11 10567.7,4938.92 10556.1,4955.18C10544.5,4971.45 10534.4,4979.59 10530.4,4989.43C10526.4,4999.27 10519.7,5021.53 10519.7,5021.53C10519.7,5021.53 10546.6,5039.21 10560.4,5047.22C10574.1,5055.23 10586.1,5064.34 10586.1,5064.34C10586.1,5064.34 10595.2,5062.14 10607.5,5068.62C10619.7,5075.1 10633.2,5076.2 10646,5079.32C10658.8,5082.44 10650.3,5079.32 10650.3,5079.32C10650.3,5079.32 10653.6,5078.04 10669.5,5075.04C10685.4,5072.04 10690.9,5067.03 10699.5,5075.04C10708,5083.05 10715.7,5100.97 10716.6,5115.7C10717.5,5130.44 10718.2,5158.76 10723,5169.21C10727.9,5179.67 10736.8,5205.85 10735.9,5218.44C10735,5231.03 10724.3,5280.51 10703.8,5280.51C10683.3,5280.51 10677.5,5260.88 10671.7,5246.26C10665.8,5231.65 10663.1,5218.44 10663.1,5218.44L10656.7,5203.46C10656.7,5203.46 10654.6,5227.55 10650.3,5235.56C10646,5243.57 10646.6,5267 10646,5274.09C10645.4,5281.18 10643.8,5282.65 10643.8,5282.65C10643.8,5282.65 10646,5299.71 10643.8,5306.19C10641.7,5312.67 10639.6,5316.89 10639.6,5316.89C10639.6,5316.89 10635.6,5366.12 10616,5366.12C10596.4,5366.12 10597.4,5335.18 10596.8,5323.31C10596.1,5311.45 10589.4,5294.52 10583.9,5282.65C10578.4,5270.78 10566.8,5241.98 10566.8,5241.98C10566.8,5241.98 10564.7,5239.78 10562.5,5248.4C10560.4,5257.03 10555.8,5265.16 10554,5250.55C10552.1,5235.93 10554,5231.28 10554,5231.28C10554,5231.28 10546,5233.36 10539,5231.28C10531.9,5229.2 10534.1,5229.39 10543.2,5224.86C10552.4,5220.33 10554,5212.02 10554,5212.02L10502.6,5179.91C10502.6,5179.91 10458.6,5157.84 10417,5139.25C10375.4,5120.65 10341.8,5103.73 10324.9,5090.02C10308.1,5076.32 10307.8,5070.76 10307.8,5070.76C10307.8,5070.76 10292.5,5068.56 10290.7,5055.78C10288.9,5042.99 10292.5,5012.3 10301.4,5000.13C10310.3,4987.96 10315.2,4972.86 10327.1,4961.6C10339,4950.35 10351.9,4931.28 10357,4920.94C10362.2,4910.6 10367.7,4905.95 10367.7,4905.95C10367.7,4905.95 10359.8,4879.6 10369.9,4873.85C10380,4868.1 10391.6,4861.87 10399.8,4852.45C10408.1,4843.03 10419.1,4828.9 10419.1,4828.9C10419.1,4828.9 10414.2,4812.4 10404.1,4801.08C10394.1,4789.76 10383.1,4783.07 10380.6,4777.54C10378,4772.01 10382.5,4770.85 10384.9,4762.55C10387.2,4754.26 10392.6,4754.63 10387,4747.57C10381.5,4740.52 10384.2,4740.7 10389.1,4732.59C10394.1,4724.48 10402.8,4725.92 10395.6,4715.47C10388.3,4705.02 10376,4700.32 10378.4,4689.79C10380.9,4679.25 10380.3,4670.44 10384.9,4661.96C10389.5,4653.48 10391.3,4644.84 10391.3,4644.84C10391.3,4644.84 10381.4,4635.46 10380.6,4625.57C10379.7,4615.69 10384.9,4606.31 10384.9,4606.31C10384.9,4606.31 10365,4585.11 10359.2,4576.35C10353.4,4567.59 10350.4,4560.65 10357,4550.67C10363.7,4540.68 10363.2,4544.73 10363.5,4533.55C10363.7,4522.35 10363.5,4514.28 10363.5,4514.28C10363.5,4514.28 10332.3,4512.83 10322.8,4507.86C10313.3,4502.89 10314.2,4503.58 10314.2,4503.58L10322.8,4518.56C10322.8,4518.56 10326,4525.29 10316.4,4529.26C10307.4,4532.95 10301.4,4531.4 10301.4,4531.4L10271.4,4497.16C10271.4,4497.16 10247.3,4487.81 10226.5,4482.18C10205.7,4476.55 10184.4,4475.27 10173,4473.62C10161.6,4471.97 10166.6,4476.92 10158,4477.9C10149.4,4478.87 10142.4,4477.84 10138.7,4482.18C10135.1,4486.52 10111.2,4507.19 10106.6,4510C10102,4512.81 10081.3,4514.83 10095.9,4503.58C10110.6,4492.32 10123.8,4475.75 10123.8,4475.75C10123.8,4475.75 10082.8,4489.76 10076.7,4492.88C10070.5,4496 10061.4,4493.74 10061.7,4488.6C10062,4483.46 10077,4476 10083.1,4473.62C10089.2,4471.23 10117.3,4452.21 10117.3,4452.21C10117.3,4452.21 10104.2,4453.38 10093.8,4456.49C10083.4,4459.61 10065.7,4469.58 10059.5,4471.48C10053.4,4473.37 10050.7,4471.11 10048.8,4467.2C10047,4463.28 10053.1,4458.63 10053.1,4458.63C10053.1,4458.63 10037.8,4452.77 10059.5,4443.65C10081.2,4434.54 10102.3,4417.97 10102.3,4417.97C10102.3,4417.97 10093.8,4413.63 10087.4,4407.27C10080.9,4400.9 10080,4390.09 10085.2,4390.15C10090.4,4390.2 10091.7,4394.67 10098.1,4398.7C10104.5,4402.74 10107.9,4402.62 10119.5,4405.12C10131.1,4407.63 10134.8,4411.18 10143,4413.69C10151.3,4416.19 10148.8,4420.97 10162.3,4422.25C10171,4423.08 10212.9,4424.65 10241,4425.64L10237.2,4417.97C10237.2,4417.97 10239.9,4415.06 10235,4411.55C10230.2,4408.04 10227.5,4409.29 10224.3,4405.12C10221.2,4400.96 10222.2,4396.57 10222.2,4396.57L10220.1,4392.28C10220.1,4392.28 10213.7,4390.82 10220.1,4388C10225.1,4385.8 10236.7,4379.18 10241.5,4376.4ZM10249.6,4395.35C10250.9,4398.3 10249.7,4398.9 10254.3,4400.85C10256,4401.54 10257.7,4403.03 10259.4,4404.8C10258.8,4401.4 10258.6,4398.7 10258.6,4398.7L10249.6,4395.35Z" style="fill:url(#_Linear1);"/>
        </g>
        <g transform="matrix(4.16667,0,0,4.16667,0,-198.167)">
            <path d="M339.922,678.633C339.922,678.633 338.202,677.483 336.483,677.105C334.763,676.726 330.751,676.341 330.751,676.341L279.166,562.853C279.166,562.853 278.082,560.789 279.93,560.178C281.778,559.567 282.605,560.942 282.605,560.942L339.922,678.633Z" style="fill:white;"/>
        </g>
        <g transform="matrix(4.16667,0,0,4.16667,0,-346.721)">
            <path d="M536.486,708.676L542.573,706.295L495.201,568.676C495.201,568.676 493.67,565.177 490.437,565.765C487.204,566.353 487.526,569.205 487.526,569.205L536.486,708.676Z" style="fill:white;"/>
        </g>
        <g transform="matrix(4.16667,0,0,4.16667,0,-586.463)">
            <path d="M275.648,722.487L275.043,717.042L362.769,610.561C362.769,610.561 364.973,608.299 366.399,609.351C367.824,610.403 366.399,612.376 366.399,612.376L281.698,723.092L275.648,722.487Z" style="fill:white;"/>
        </g>
    </g>
    <defs>
        <linearGradient id="_Linear1" x1="0" y1="0" x2="1" y2="0" gradientUnits="userSpaceOnUse" gradientTransform="matrix(9.13073e-14,-1491.16,863.12,5.28508e-14,10360.9,5750.67)"><stop offset="0" style="stop-color:rgb(0,34,83);stop-opacity:1"/><stop offset="1" style="stop-color:rgb(0,94,173);stop-opacity:1"/></linearGradient>
    </defs>
</svg>
