<?xml version="1.0" encoding="UTF-8" standalone="no"?>
<!DOCTYPE svg PUBLIC "-//W3C//DTD SVG 1.1//EN" "http://www.w3.org/Graphics/SVG/1.1/DTD/svg11.dtd">
<svg width="100%" height="100%" viewBox="0 0 1407 696" version="1.1" xmlns="http://www.w3.org/2000/svg" xmlns:xlink="http://www.w3.org/1999/xlink" xml:space="preserve" xmlns:serif="http://www.serif.com/" style="fill-rule:evenodd;clip-rule:evenodd;stroke-linejoin:round;stroke-miterlimit:2;">
    <path d="M479.494,617.048C479.494,617.048 440.535,621.444 366.213,621.444C291.892,621.444 277.507,586.68 272.512,574.893C267.517,563.105 240.546,565.503 221.366,571.097C202.186,576.691 171.619,591.076 152.439,598.868C133.259,606.659 94.101,606.06 68.328,601.864C42.555,597.669 8.791,593.673 8.791,568.899C8.791,544.125 27.371,535.534 27.371,535.534C27.371,535.534 0,505.167 0,454.021C0,402.875 26.372,356.024 50.347,323.458C74.322,290.893 123.869,226.96 162.628,207.581C201.387,188.201 233.753,180.21 285.698,180.21C337.643,180.21 432.743,176.014 479.893,174.016C527.043,172.018 577.59,175.015 641.722,156.635C705.855,138.254 749.209,115.878 749.209,115.878C749.209,115.878 754.204,108.885 762.994,101.093C771.785,93.301 778.578,90.105 778.578,90.105C778.578,90.105 790.565,65.731 810.544,54.942C830.523,44.153 857.295,38.759 864.487,33.764C871.68,28.77 890.859,0 908.041,0L1055.49,0C1071.27,0 1090.05,13.985 1107.43,33.365C1124.81,52.744 1142.79,72.923 1153.98,92.502C1165.17,112.082 1172.76,121.472 1182.95,121.472C1193.14,121.472 1196.54,120.073 1230.3,88.307C1264.07,56.54 1295.23,23.975 1328.8,16.183C1362.36,8.391 1378.94,13.386 1382.94,15.384C1386.93,17.382 1396.92,32.166 1396.92,35.363C1396.92,38.559 1376.95,50.946 1376.95,61.135C1376.95,71.325 1386.93,74.721 1386.93,79.916C1386.93,85.11 1373.75,84.311 1373.75,100.694C1373.75,117.076 1384.54,118.675 1384.54,122.67C1384.54,126.666 1379.94,127.665 1379.94,127.665C1379.94,127.665 1395.93,156.235 1402.52,199.789C1409.11,243.343 1407.31,302.081 1402.72,312.67C1398.12,323.259 1384.14,334.247 1381.54,335.845C1378.94,337.444 1372.15,333.248 1372.15,333.248L1371.15,325.057L1360.16,325.057C1360.16,325.057 1354.37,397.48 1327.2,397.48L1234.3,397.48C1234.3,397.48 1227.7,407.869 1206.13,407.869C1184.55,407.869 1164.37,411.066 1152.58,415.661C1140.8,420.256 1056.88,450.025 1056.88,450.025C1056.88,450.025 1061.68,466.008 1064.28,471.003C1066.87,475.997 1066.27,479.194 1060.68,485.188C1055.09,491.181 1031.11,512.559 1026.32,516.355C1021.52,520.151 1014.13,520.75 1011.53,519.352L1008.94,517.953C1008.94,517.953 988.756,609.257 935.013,614.451L908.241,614.451C908.241,614.451 872.878,640.424 806.548,661.202C740.218,681.98 718.441,695.366 651.112,695.366C583.784,695.366 479.693,678.983 473.9,663.2C468.106,647.416 474.099,640.624 478.495,630.834L482.89,621.044L479.494,617.048ZM740.735,150.769C741.545,155.437 748.837,155.649 766.872,153.315C784.907,150.981 795.728,149.284 805.912,143.131C816.097,136.978 822.887,114.275 825.645,103.878C828.403,93.481 818.431,94.057 812.49,94.057L790.636,94.057C776.42,94.057 778.65,90.353 778.65,90.353L740.735,150.769ZM885.055,94.754C877.416,94.967 868.505,95.391 857.471,100.271C846.438,105.151 842.619,116.821 840.709,132.31C838.8,147.799 854.501,152.255 883.569,154.772C912.638,157.289 997.084,161.803 1038.04,159.044C1078.99,156.286 1109.11,134.856 1119.51,128.066C1129.91,121.277 1116.54,101.12 1107.63,89.45C1098.72,77.78 1087.05,75.871 1076.86,78.841C1066.68,81.812 1044.61,87.753 1032.31,89.45C1020,91.147 905.426,94.189 885.055,94.754Z" style="fill:url(#_Linear1);"/>
    <g transform="matrix(1,0,0,1,-5.76512,-192.398)">
        <path d="M501.429,773.807C509.23,774.962 558.467,782.636 594.938,779.771C631.41,776.907 649.932,773.47 654.323,772.706C658.715,771.942 664.062,770.033 667.117,788.173C670.172,806.313 674.373,819.68 659.67,821.398C644.967,823.117 613.269,826.745 565.341,819.68C517.413,812.614 502.137,806.886 498.127,805.167C494.117,803.449 493.117,801.921 492.545,794.856C491.972,787.791 492.578,781.828 492.59,777.435C492.602,773.042 496.273,773.043 501.429,773.807ZM14.003,683.789C14.003,683.789 34.555,705.599 69.367,711.262C104.179,716.924 107.325,716.714 111.309,717.343C115.294,717.972 123.473,731.394 128.925,738.314C134.378,745.235 139.62,751.946 131.022,751.946C122.424,751.946 57.204,746.913 44.621,734.12C32.038,721.328 29.312,717.763 21.133,702.873C12.954,687.983 14.003,683.789 14.003,683.789Z" style="fill:white;"/>
    </g>
    <defs>
        <linearGradient id="_Linear1" x1="0" y1="0" x2="1" y2="0" gradientUnits="userSpaceOnUse" gradientTransform="matrix(4.25789e-14,-695.366,343.703,2.10457e-14,924.829,887.763)"><stop offset="0" style="stop-color:rgb(0,34,83);stop-opacity:1"/><stop offset="1" style="stop-color:rgb(0,94,173);stop-opacity:1"/></linearGradient>
    </defs>
</svg>
