<?xml version="1.0" encoding="UTF-8" standalone="no"?>
<!DOCTYPE svg PUBLIC "-//W3C//DTD SVG 1.1//EN" "http://www.w3.org/Graphics/SVG/1.1/DTD/svg11.dtd">
<svg width="100%" height="100%" viewBox="0 0 300 400" version="1.1" xmlns="http://www.w3.org/2000/svg" xmlns:xlink="http://www.w3.org/1999/xlink" xml:space="preserve" xmlns:serif="http://www.serif.com/" style="fill-rule:evenodd;clip-rule:evenodd;stroke-linejoin:round;stroke-miterlimit:2;">
    <g transform="matrix(0.842106,0,0,0.842105,56.0014,388.335)">
        <path d="M147.693,-461.148L157.042,-461.148L157.042,-461.034C158.363,-460.81 159.755,-460.837 160.918,-460.692C161.392,-460.632 161.862,-460.696 162.286,-460.634C162.579,-460.592 162.852,-460.453 163.141,-460.406C163.479,-460.352 163.835,-460.405 164.167,-460.35C164.381,-460.314 164.596,-460.164 164.794,-460.122C165.359,-459.999 165.849,-459.97 166.276,-459.894C166.566,-459.841 166.856,-459.885 167.131,-459.837C167.377,-459.793 167.577,-459.603 167.815,-459.551C168.418,-459.421 169.059,-459.397 169.639,-459.267C169.856,-459.218 170.01,-459.06 170.209,-458.982C171,-459.003 171.483,-458.731 172.033,-458.583C172.486,-458.46 172.964,-458.502 173.287,-458.184C175.825,-457.757 177.663,-456.631 180.07,-456.074C180.792,-455.447 182.026,-455.333 182.807,-454.763C185.762,-453.615 188.281,-452.029 191.015,-450.659C191.612,-450.098 192.44,-449.767 193.124,-449.291C193.324,-448.921 193.952,-448.979 194.093,-448.55C194.65,-448.519 194.678,-447.957 195.29,-447.98C195.261,-447.666 195.659,-447.779 195.632,-447.467C195.973,-447.465 196.08,-447.232 196.373,-447.182C196.986,-446.588 197.699,-446.095 198.368,-445.586C198.808,-445.252 199.292,-444.905 199.68,-444.617C199.943,-444.421 200.155,-444.195 200.42,-443.99C201.774,-442.938 203.012,-441.743 204.41,-440.741C204.566,-440.384 204.844,-440.148 205.209,-440C205.346,-439.661 205.613,-439.435 205.835,-439.259C206.024,-439.109 206.067,-439.053 206.234,-438.917C206.37,-438.806 206.46,-438.629 206.576,-438.518C206.736,-438.366 206.894,-438.131 207.146,-438.119C207.086,-437.773 207.456,-437.858 207.432,-437.548C207.736,-437.588 207.675,-437.26 207.944,-437.264C208.137,-436.835 208.554,-436.572 208.856,-436.237C209.817,-435.176 210.778,-434.157 211.649,-433.046C213.55,-430.841 215.313,-428.501 216.78,-425.863C217.864,-421.95 219.047,-418.135 220.029,-414.121C220.634,-412.863 220.717,-411.085 221.34,-409.845C221.304,-409.163 221.636,-408.849 221.625,-408.192C221.951,-407.892 221.8,-407.113 222.139,-406.824C222.031,-406.148 222.482,-406.028 222.366,-405.342C222.824,-404.679 222.784,-403.518 223.222,-402.834C223.277,-402.017 223.5,-401.365 223.677,-400.668C222.669,-399.776 221.111,-399.434 219.688,-398.958C219.973,-394.911 219.84,-390.447 220.2,-386.475C220.38,-386.389 220.536,-386.279 220.713,-386.19C222.181,-385.985 223.425,-385.557 224.874,-385.335C225.484,-384.926 226.389,-384.909 226.869,-384.537C227.573,-383.991 228.32,-383.326 228.864,-382.655C229.247,-382.392 229.488,-381.984 229.776,-381.629C230.051,-381.292 230.444,-380.938 230.46,-380.375C230.416,-380.363 230.395,-380.328 230.403,-380.261C230.123,-379.925 229.609,-380.046 229.206,-379.92C229.037,-379.866 228.923,-379.724 228.751,-379.692C228.493,-379.643 228.176,-379.736 227.896,-379.692C227.613,-379.646 227.368,-379.448 227.098,-379.406C226.741,-379.352 226.379,-379.449 226.015,-379.406C225.469,-379.342 224.985,-379.192 224.418,-379.178C223.648,-379.16 223.26,-379.043 222.766,-378.95C222.187,-378.842 221.584,-378.933 220.998,-378.893C220.451,-378.856 219.983,-378.607 219.459,-378.608C219.513,-377.463 219.534,-376.318 219.688,-375.131C219.739,-374.724 219.942,-374.31 219.972,-373.877C220.042,-372.846 220.17,-372 220.257,-370.97C220.295,-370.519 220.502,-370.078 220.542,-369.659C220.689,-368.114 220.739,-366.246 221.112,-364.985C223.624,-364.76 225.85,-364.251 228.522,-364.187C228.634,-363.994 228.846,-363.902 229.093,-363.845C229.159,-363.605 229.392,-363.432 229.549,-363.275C229.728,-363.096 229.907,-362.906 230.118,-362.761C230.746,-361.983 231.383,-361.214 232,-360.424C232.162,-359.865 232.697,-359.678 232.569,-358.829C230.815,-358.379 228.41,-358.58 226.3,-358.486C225.28,-358.042 223.305,-358.555 222.195,-358.201C222.365,-355.704 222.342,-353.148 222.595,-350.563C222.842,-348.022 222.448,-345.323 222.993,-343.039C225.294,-342.908 227.442,-342.624 229.72,-342.469C230.876,-341.661 231.921,-340.623 232.74,-339.562C233.246,-338.907 234.016,-338.326 234.223,-337.453C232.582,-336.775 229.667,-337.372 227.781,-336.94C227.854,-335.984 228.235,-334.849 228.579,-333.976C228.548,-333.336 228.851,-333.031 228.864,-332.437C229.201,-331.785 229.208,-330.804 229.605,-330.213C232.686,-330.044 236.158,-330.268 239.239,-330.099C239.467,-329.776 239.809,-329.567 240.037,-329.244C240.232,-328.798 240.203,-328.306 240.322,-327.819C240.375,-327.602 240.558,-327.414 240.606,-327.192C240.868,-326.014 240.908,-324.951 241.177,-323.772C241.225,-323.563 241.375,-323.363 241.405,-323.145C241.438,-322.911 241.356,-322.683 241.405,-322.461C241.458,-322.219 241.643,-322.037 241.689,-321.777C241.726,-321.583 241.662,-321.394 241.689,-321.207C241.728,-320.951 241.926,-320.723 241.975,-320.466C242.144,-319.58 242.103,-318.889 242.316,-318.072C242.416,-317.695 242.41,-317.399 242.488,-317.046C242.535,-316.833 242.729,-316.634 242.773,-316.419C242.907,-315.744 242.862,-315.041 243.001,-314.367C243.05,-314.128 243.24,-313.918 243.286,-313.683C243.44,-312.893 243.44,-312.443 243.571,-311.688C243.613,-311.443 243.768,-311.248 243.799,-311.004C243.827,-310.785 243.756,-310.538 243.799,-310.319C243.846,-310.081 244.045,-309.881 244.084,-309.635C244.119,-309.415 244.039,-309.171 244.084,-308.951C244.139,-308.683 244.336,-308.468 244.369,-308.211C244.396,-308.004 244.331,-307.788 244.369,-307.584C244.416,-307.327 244.606,-307.09 244.654,-306.842C244.777,-306.2 244.76,-305.544 244.882,-304.904C244.931,-304.652 245.119,-304.417 245.167,-304.163C245.206,-303.96 245.136,-303.747 245.167,-303.536C245.206,-303.274 245.401,-303.061 245.452,-302.795C245.574,-302.151 245.555,-301.442 245.68,-300.8C245.731,-300.537 245.922,-300.311 245.965,-300.059C246.006,-299.822 245.967,-299.557 246.022,-299.318C246.17,-298.673 246.395,-298.028 246.479,-297.38C246.508,-297.14 246.43,-296.875 246.479,-296.639C246.528,-296.396 246.717,-296.197 246.762,-295.955C246.801,-295.756 246.729,-295.519 246.762,-295.328C246.807,-295.081 247.004,-294.882 247.047,-294.644C247.096,-294.389 247.047,-294.145 247.106,-293.903C247.149,-293.717 247.292,-293.531 247.333,-293.333C247.469,-292.679 247.442,-291.995 247.561,-291.338C247.61,-291.074 247.793,-290.864 247.846,-290.597C247.889,-290.38 247.809,-290.123 247.846,-289.913C247.891,-289.665 248.086,-289.465 248.131,-289.229C248.176,-288.987 248.141,-288.73 248.188,-288.488C248.52,-286.755 249.014,-284.897 249.157,-283.072C249.452,-282.434 249.553,-281.705 249.67,-281.192C249.729,-280.935 249.674,-280.652 249.727,-280.393C249.776,-280.152 249.967,-279.95 250.012,-279.709C250.131,-279.075 250.114,-278.417 250.241,-277.771C250.29,-277.513 250.475,-277.283 250.526,-277.03C250.565,-276.824 250.493,-276.59 250.526,-276.403C250.569,-276.157 250.766,-275.954 250.811,-275.719C250.961,-274.922 250.95,-274.369 251.096,-273.724C251.446,-272.181 251.754,-270.696 252.065,-269.107C250.786,-268.067 248.854,-267.68 247.333,-266.884C246.829,-266.78 246.29,-266.711 245.965,-266.428C245.445,-266.339 245.003,-266.174 244.654,-265.915C244.618,-265.377 244.742,-264.753 244.882,-264.148C245.022,-263.54 245.266,-262.943 245.396,-262.495C245.487,-262.177 245.427,-261.815 245.623,-261.64C245.768,-261.51 246.336,-261.446 246.762,-261.355C247.469,-261.203 247.93,-261.126 248.586,-260.956C249.141,-260.812 249.862,-260.53 250.125,-260.272C250.194,-260.206 250.311,-260.192 250.354,-260.157C251.042,-259.596 251.165,-258.969 251.608,-258.048C251.51,-257.323 251.942,-257.129 251.836,-256.395C252.338,-255.17 252.67,-253.772 252.977,-252.348C253.407,-251.353 253.542,-250.064 253.946,-249.042C254.047,-248.934 253.987,-248.666 254.002,-248.472C254.475,-247.881 254.323,-246.664 254.801,-246.078L254.801,-245.508C255.229,-244.701 255.459,-243.696 255.598,-242.601C255.905,-242.47 255.844,-241.972 255.94,-241.632C256.713,-239.307 257.17,-236.666 258.049,-234.449C258.02,-233.836 258.379,-233.301 258.334,-232.682C258.309,-232.322 258.063,-231.958 258.049,-231.6C258.04,-231.29 258.174,-230.921 258.221,-230.573C258.272,-230.187 258.243,-229.789 258.278,-229.434C258.317,-229.017 258.524,-228.596 258.563,-228.18C258.936,-224.217 259.555,-220.388 259.93,-216.665C261.494,-215.872 262.857,-214.88 264.15,-213.816C265.156,-212.483 266.16,-211.153 266.884,-209.54C266.882,-208.98 267.259,-208.462 267.398,-207.888C267.742,-206.458 267.75,-204.851 267.683,-203.327C267.626,-202.04 267.027,-200.919 266.884,-199.907C266.541,-199.376 266.234,-198.81 266.031,-198.14C265.271,-197.2 264.585,-196.192 263.75,-195.403C263.458,-195.128 263.123,-194.888 262.894,-194.548C262.609,-193.794 263.029,-193.077 263.123,-192.382C263.171,-192.028 263.078,-191.651 263.123,-191.3C263.166,-190.966 263.3,-190.651 263.351,-190.331C263.482,-189.483 263.58,-188.714 263.636,-188.05C263.664,-187.724 263.599,-187.409 263.636,-187.081C263.679,-186.694 263.876,-186.339 263.921,-185.941C264.011,-185.14 264.056,-184.569 264.15,-184.003C264.279,-183.206 264.302,-182.501 264.376,-181.837C264.419,-181.466 264.386,-181.062 264.433,-180.696C264.478,-180.362 264.677,-180.017 264.718,-179.671C264.765,-179.292 264.716,-178.921 264.777,-178.53C264.953,-177.392 265.158,-176.054 265.232,-174.769C265.97,-174.423 266.539,-173.909 267.341,-173.628C267.683,-173.021 268.484,-172.872 268.824,-172.261C269.376,-171.864 269.808,-171.345 270.134,-170.722C270.681,-170.319 270.906,-169.593 271.332,-169.069C271.613,-168.4 271.921,-167.759 272.187,-167.073C272.994,-164.9 272.937,-161.12 272.244,-158.864C272.052,-158.638 271.927,-158.345 271.902,-157.952C271.562,-157.495 271.351,-156.907 271.103,-156.357C270.761,-156.071 270.517,-155.689 270.363,-155.218C269.929,-154.911 269.642,-154.452 269.279,-154.077C268.904,-153.691 268.541,-153.296 268.138,-152.937C268.083,-152.034 268.269,-151.224 268.423,-150.372C268.509,-149.9 268.412,-149.429 268.482,-148.946C268.531,-148.595 268.726,-148.28 268.765,-147.921C268.925,-146.513 269.066,-144.9 269.222,-143.759C269.275,-143.382 269.226,-143.005 269.279,-142.62C269.33,-142.251 269.527,-141.913 269.564,-141.536C269.632,-140.845 269.724,-140.165 269.792,-139.483C269.828,-139.116 269.74,-138.757 269.792,-138.401C269.839,-138.069 269.974,-137.765 270.021,-137.433C270.07,-137.066 270.027,-136.677 270.078,-136.292C270.123,-135.952 270.32,-135.618 270.363,-135.267C270.46,-134.444 270.353,-133.605 270.648,-132.816C274.232,-131.378 277.296,-128.491 278.457,-124.55C279.113,-122.316 279.142,-118.735 278.343,-116.456C277.32,-113.792 275.757,-111.669 273.554,-110.185C273.585,-107.874 274.156,-105.749 274.353,-103.517C274.535,-101.433 274.863,-99.232 275.093,-97.302C275.138,-96.935 275.103,-96.536 275.15,-96.163C275.197,-95.804 275.394,-95.448 275.435,-95.079C275.619,-93.427 275.761,-91.775 276.005,-90.12C278.195,-89.345 279.587,-87.775 281.021,-86.243C281.3,-85.591 281.707,-85.067 282.105,-84.534C282.363,-83.862 282.587,-83.155 282.96,-82.597C283.244,-80.894 283.859,-78.448 283.416,-76.382C283.287,-75.784 282.976,-75.009 282.96,-74.388C282.408,-73.163 282.007,-72.23 281.25,-71.138C280.974,-70.741 280.574,-70.151 280.166,-69.714C279.722,-69.235 279.115,-68.917 278.912,-68.46C278.601,-67.753 279.101,-66.286 279.197,-65.552C279.244,-65.191 279.154,-64.827 279.197,-64.47C279.244,-64.089 279.443,-63.722 279.482,-63.329C279.593,-62.228 279.58,-61.312 279.71,-60.251C279.753,-59.901 279.951,-59.567 279.996,-59.226C280.113,-58.343 279.953,-57.663 280.281,-57.116C281.806,-56.608 283.136,-55.905 284.726,-55.462C284.882,-55.446 284.861,-55.255 285.011,-55.235C285.787,-55.232 286.089,-54.755 286.835,-54.722C287.193,-54.3 288.117,-54.444 288.49,-54.038C289.23,-49.21 289.187,-43.601 289.572,-38.419C288.861,-37.913 287.917,-37.642 287.292,-37.052C287.193,-33.179 286.884,-29.517 286.607,-25.821C286.216,-25.263 285.447,-25.081 284.898,-24.681C284.068,-24.542 283.4,-24.241 282.789,-23.884C281.564,-23.683 280.775,-23.048 279.597,-22.8C279.007,-22.517 278.357,-22.265 277.716,-22.003C277.056,-21.733 276.318,-21.618 275.777,-21.204C274.917,-21.077 274.285,-20.722 273.611,-20.407C273.125,-20.476 273.121,-20.062 272.585,-20.179C271.484,-19.437 269.878,-19.2 268.708,-18.525C267.966,-18.376 267.337,-18.11 266.771,-17.784C265.81,-17.587 265.078,-17.159 264.207,-16.872C263.443,-16.456 262.4,-16.321 261.699,-15.847C260.071,-15.403 258.706,-14.696 257.137,-14.192C256.823,-13.958 256.42,-13.882 256.055,-13.737C255.668,-13.585 255.293,-13.419 254.915,-13.28C254.137,-12.999 253.329,-12.823 252.692,-12.368C251.204,-12.091 250.217,-11.31 248.758,-11.001C247.918,-10.435 246.631,-10.316 245.794,-9.747C243.881,-9.191 242.258,-8.343 240.379,-7.751C239.448,-7.448 238.735,-6.925 237.643,-6.782C237.337,-6.462 236.833,-6.339 236.332,-6.212C235.974,-5.944 235.516,-5.775 234.964,-5.7C234.379,-5.335 233.705,-5.058 232.911,-4.901C232.293,-4.552 231.648,-4.226 230.803,-4.105C229.946,-3.497 228.741,-3.239 227.781,-2.735C226.828,-2.519 225.904,-2.298 224.988,-2.052C224.664,-1.964 224.385,-2.007 224.076,-1.937C223.854,-1.888 223.678,-1.704 223.449,-1.653C222.888,-1.528 222.26,-1.556 221.682,-1.425C221.506,-1.384 221.345,-1.245 221.169,-1.196C220.51,-1.017 219.924,-0.987 219.288,-0.855C219.041,-0.804 218.789,-0.62 218.547,-0.569C217.532,-0.355 216.498,-0.222 215.469,-0.056C214.696,0.444 213.212,0.233 212.447,0.741L211.707,0.741C210.999,1.163 210.116,1.087 209.313,1.255C209.045,1.309 208.827,1.489 208.571,1.54C208.372,1.579 208.142,1.501 207.944,1.54C207.729,1.581 207.536,1.778 207.317,1.825C207.081,1.874 206.845,1.831 206.634,1.882C206.261,1.972 205.964,2.038 205.493,2.11C205.244,2.147 205.038,2.3 204.81,2.337C204.616,2.37 204.374,2.3 204.183,2.337C203.975,2.378 203.833,2.583 203.612,2.622C203.388,2.663 203.142,2.577 202.929,2.622C202.741,2.663 202.585,2.808 202.415,2.85C202.199,2.907 201.979,2.868 201.731,2.907C201.072,3.013 200.338,3.245 199.851,3.364C199.61,3.423 199.364,3.366 199.109,3.421C198.862,3.474 198.668,3.659 198.425,3.706C197.272,3.929 196.256,4.022 195.176,4.276C194.953,4.327 194.723,4.474 194.492,4.503C194.294,4.53 194.104,4.464 193.922,4.503C193.697,4.554 193.511,4.743 193.295,4.788C192.556,4.942 192.013,4.948 191.3,5.017C190.992,5.378 190.51,5.208 189.989,5.302C189.776,5.341 189.583,5.54 189.362,5.587C189.166,5.628 188.933,5.559 188.734,5.587C188.539,5.614 188.335,5.776 188.107,5.815C187.84,5.86 187.551,5.815 187.31,5.872C187.111,5.919 186.938,6.059 186.739,6.1C186.503,6.147 186.232,6.056 185.999,6.1C185.785,6.14 185.588,6.341 185.372,6.386C185.153,6.429 184.909,6.356 184.688,6.386C183.966,6.475 183.254,6.768 182.521,6.897C181.87,7.013 181.185,7.056 180.526,7.183C180.026,7.28 179.736,7.456 179.102,7.468C177.154,7.507 175.018,7.759 173.401,7.923C172.332,8.032 171.423,8.058 170.438,8.208C169.765,8.311 169.03,8.202 168.328,8.267C166.361,8.446 164.461,8.696 162.399,8.778C161.782,8.804 161.152,9.032 160.519,9.063C157.623,9.212 155.227,9.37 152.481,9.634C149.227,9.946 145.727,10.321 142.449,10.433C141.73,10.765 140.902,10.63 140.112,10.659C139.322,10.69 138.573,10.927 137.774,10.944C137.017,10.964 136.217,11.018 135.381,11.116C134.525,11.216 133.61,11.063 132.872,11.229C132.729,11.263 132.566,11.374 132.417,11.401C131.888,11.495 131.354,11.442 130.82,11.458C130.306,11.472 129.87,11.587 129.339,11.686C128.321,11.878 127.229,11.782 126.203,11.913C125.155,12.05 124.139,11.942 123.068,12.142C122.021,12.337 120.98,12.224 119.933,12.427C118.917,12.624 117.903,12.52 116.854,12.712C115.766,12.911 114.677,12.739 113.605,12.884C111.503,13.167 109.409,13.298 107.336,13.395C106.405,13.792 105.369,13.559 104.372,13.681C103.327,13.808 102.317,13.852 101.236,13.852C94.874,13.852 88.215,13.46 81.741,13.567C80.663,13.286 79.446,13.392 78.265,13.339C74.541,13.175 70.747,13.464 67.149,13.282C66.924,13.186 66.9,13.151 66.636,13.11C65.556,12.948 64.257,13.054 63.102,13.054C54.674,13.056 46.311,12.765 38.021,12.768C37.803,12.702 37.708,12.634 37.451,12.599C35.569,12.337 33.31,12.712 31.295,12.542C30.755,12.245 30.263,11.899 29.584,11.743C29.046,11.235 28.321,10.915 27.589,10.602C27.006,10.122 26.219,9.845 25.651,9.349C24.679,8.878 23.758,8.354 22.915,7.753C22.382,7.591 21.881,7.183 21.49,6.954C21.222,6.8 21.185,6.724 20.92,6.612C20.815,6.569 20.729,6.495 20.635,6.442C20.34,6.272 20.093,6.11 19.837,5.929C19.354,5.583 18.758,5.52 18.469,5.017C18.106,5.1 17.922,4.772 17.671,4.618C17.535,4.534 17.354,4.528 17.215,4.446C17.096,4.378 16.977,4.229 16.873,4.161C15.341,3.149 13.71,2.386 12.256,1.311C11.191,0.784 10.24,0.13 9.234,-0.456C8.229,-1.042 7.296,-1.771 6.214,-2.28C6.163,-2.476 6.094,-2.653 5.929,-2.735C5.479,-4.599 5.644,-7.204 5.644,-9.634L5.644,-15.333C4.961,-15.392 4.034,-15.206 3.534,-15.446C3.627,-19.316 3.763,-23.853 3.763,-27.874C3.763,-29.358 3.582,-30.884 3.763,-32.15C3.792,-32.357 3.936,-32.54 3.99,-32.776C4.053,-33.042 3.998,-33.331 4.048,-33.573C4.103,-33.843 4.282,-34.066 4.332,-34.316C4.46,-34.942 4.486,-35.507 4.617,-36.083C4.858,-36.312 4.771,-36.646 4.846,-37.052C4.873,-37.198 5.023,-37.302 5.073,-37.45C5.276,-38.05 5.225,-38.728 5.358,-39.218C5.405,-39.388 5.606,-39.554 5.644,-39.73C5.679,-39.901 5.597,-40.124 5.644,-40.3C5.696,-40.497 5.874,-40.663 5.929,-40.87C6.055,-41.347 6.023,-41.87 6.156,-42.353C6.211,-42.552 6.382,-42.667 6.441,-42.864C6.496,-43.048 6.445,-43.263 6.499,-43.435C6.552,-43.61 6.681,-43.732 6.727,-43.892C6.772,-44.048 6.69,-44.255 6.727,-44.405C6.762,-44.55 6.904,-44.646 6.954,-44.804C7.007,-44.968 7.028,-45.198 7.068,-45.374C7.329,-46.505 7.644,-47.464 7.866,-48.509C10.562,-49.9 13.297,-51.249 16.018,-52.612C16.145,-54.161 16.717,-55.56 16.759,-57.001C15.309,-57.489 13.969,-58.087 12.712,-58.769C11.608,-59.661 10.438,-60.483 9.577,-61.618C8.579,-62.616 7.952,-63.985 7.239,-65.267C6.546,-67.341 5.881,-69.706 6.214,-72.62C6.479,-73.343 6.575,-74.235 6.783,-75.015C7.149,-75.454 7.092,-76.021 7.297,-76.497C7.328,-76.571 7.479,-76.624 7.524,-76.724C8.955,-79.911 11.293,-82.071 14.251,-83.679C16.386,-84.595 19.12,-85.181 22.174,-84.989C22.164,-85.837 22.617,-86.22 22.517,-87.155C23.05,-88.421 23.061,-89.87 23.314,-91.261C23.365,-91.54 23.548,-91.775 23.6,-92.058C23.638,-92.271 23.567,-92.489 23.6,-92.685C23.638,-92.929 23.837,-93.13 23.884,-93.368C24.015,-94.028 23.995,-94.759 24.112,-95.421C24.151,-95.642 24.293,-95.841 24.34,-96.048C24.407,-96.345 24.344,-96.622 24.397,-96.903C24.444,-97.15 24.636,-97.347 24.683,-97.587C24.813,-98.273 24.853,-99.036 24.91,-99.753C25.211,-100.183 25.379,-101.372 25.195,-101.749C20.942,-102.911 18.087,-105.472 16.075,-108.874C15.942,-109.47 15.56,-110.015 15.334,-110.642C14.288,-113.54 14.1,-117.917 15.505,-120.673C15.789,-121.853 16.491,-122.614 16.93,-123.638C17.228,-123.796 17.354,-124.13 17.557,-124.378C18.197,-125.163 18.972,-125.749 19.552,-126.544C20.701,-127.163 21.606,-128.025 22.915,-128.483C24.881,-129.542 27.815,-129.86 30.781,-129.737C31.815,-135.353 32.899,-140.919 33.974,-146.495C33.482,-146.802 32.898,-147.017 32.206,-147.122C31.271,-147.704 30.386,-148.151 29.527,-148.718C28.561,-149.358 27.771,-150.261 27.02,-151.056C26.724,-151.368 26.404,-151.747 26.222,-152.081C26.003,-152.482 25.744,-152.845 25.48,-153.278C24.93,-154.185 24.54,-155.165 24.112,-156.243C23.87,-158.019 23.251,-160.025 23.656,-162.058C23.972,-163.64 24.437,-165.187 24.91,-166.446C25.336,-167.048 25.743,-167.665 26.05,-168.384C26.403,-168.62 26.635,-168.978 26.791,-169.411C27.614,-170.05 28.271,-170.857 29.071,-171.519C29.964,-172.091 30.753,-172.765 31.864,-173.116C33.794,-174.132 36.25,-174.62 39.332,-174.483C39.415,-174.972 39.384,-175.571 39.674,-175.853C39.702,-176.73 39.996,-177.843 40.13,-178.646C40.171,-178.892 40.138,-179.183 40.187,-179.442C40.231,-179.677 40.427,-179.878 40.472,-180.126C40.514,-180.357 40.437,-180.589 40.472,-180.812C40.511,-181.056 40.709,-181.259 40.757,-181.495C40.897,-182.181 40.858,-182.915 40.985,-183.605C41.024,-183.819 41.164,-184.007 41.213,-184.232C41.271,-184.499 41.214,-184.808 41.27,-185.087C41.315,-185.314 41.512,-185.501 41.555,-185.714C41.604,-185.958 41.512,-186.208 41.555,-186.454C41.6,-186.708 41.796,-186.95 41.84,-187.194C41.955,-187.843 41.948,-188.542 42.068,-189.191C42.164,-189.714 42.574,-190.181 42.296,-190.73C41.897,-190.845 41.555,-191.015 41.099,-191.071C37.225,-192.878 34.488,-195.823 33.005,-200.021C32.284,-202.427 32.267,-205.593 32.947,-208.058C33.406,-209.718 34.27,-211.062 34.829,-212.276C35.289,-212.618 35.537,-213.126 35.912,-213.53C37.539,-215.288 39.76,-217.058 42.353,-217.749C43.867,-218.151 45.568,-218.599 47.654,-218.433C48.101,-219.321 48.05,-220.357 48.224,-221.339C48.269,-221.593 48.467,-221.829 48.509,-222.081C48.55,-222.323 48.465,-222.588 48.509,-222.82C48.554,-223.051 48.751,-223.277 48.794,-223.505C48.838,-223.733 48.766,-223.967 48.794,-224.19C48.884,-224.878 49.105,-225.565 49.25,-226.241C49.577,-227.775 49.883,-229.307 50.048,-230.801C48.82,-231.607 47.681,-232.5 46.4,-233.252C46.202,-233.606 45.846,-233.801 45.603,-234.108C45.082,-234.918 45.426,-236.153 45.545,-237.129C46.067,-237.917 46.144,-239.152 46.571,-240.035C46.872,-241.293 47.4,-242.322 47.54,-243.741C46.29,-244.733 45.061,-245.745 43.664,-246.591C43.712,-246.886 43.358,-246.779 43.379,-247.047C43.066,-247.096 42.936,-247.326 42.638,-247.389C42.108,-248.008 41.38,-248.479 40.7,-248.928C40.354,-249.156 40.122,-249.538 39.788,-249.783C39.532,-249.971 39.332,-250.029 39.161,-250.239C39.042,-250.384 38.766,-250.319 38.818,-250.581C38.3,-250.721 37.917,-251.112 37.564,-251.436C37.201,-251.771 36.818,-252.1 36.481,-252.462C36.697,-255.343 37.509,-257.629 37.793,-260.442C38.237,-261.051 38.111,-262.203 38.306,-263.065C38.353,-263.27 38.548,-263.438 38.591,-263.635C38.735,-264.304 38.737,-265.015 38.876,-265.687C38.929,-265.944 39.111,-266.172 39.161,-266.428C39.594,-268.653 39.884,-270.897 40.472,-273.04C38.021,-273.971 35.843,-275.175 33.347,-276.061C33.261,-276.394 32.66,-276.211 32.605,-276.574C31.666,-276.642 31.268,-277.25 30.383,-277.372C29.799,-277.815 28.883,-277.925 28.388,-278.455C27.883,-278.387 27.75,-278.692 27.361,-278.74C27.198,-279.033 26.606,-278.897 26.506,-279.254C23.962,-280.034 21.981,-281.379 19.438,-282.16C18.896,-282.702 17.894,-282.782 17.272,-283.243C16.488,-283.562 15.699,-283.875 14.992,-284.27C13.385,-284.848 11.962,-285.61 10.375,-286.208C9.78,-286.696 8.758,-286.757 8.209,-287.291C7.291,-287.476 6.646,-287.932 5.871,-288.26C4.99,-288.48 4.423,-289.015 3.534,-289.229C2.756,-289.552 2.138,-290.036 1.197,-290.198C0.255,-290.909 -1.174,-291.133 -2.108,-291.851C-2.563,-291.815 -2.695,-292.1 -3.078,-292.136C-3.732,-292.586 -4.567,-292.778 -5.301,-293.162C-6.058,-293.558 -6.925,-293.695 -7.524,-294.245C-8.467,-294.373 -9.392,-295.09 -10.146,-295.328C-10.911,-295.568 -11.499,-295.955 -12.198,-296.183C-13.668,-296.899 -15.265,-297.487 -16.701,-298.235C-18.366,-298.774 -19.685,-299.66 -21.375,-300.173C-22.052,-300.789 -23.292,-300.841 -23.94,-301.484C-24.405,-301.59 -24.897,-301.668 -25.138,-301.997C-25.655,-302.068 -26.046,-302.267 -26.335,-302.567C-28.071,-303.016 -29.302,-303.97 -31.009,-304.448C-31.335,-304.825 -31.998,-304.865 -32.377,-305.189C-32.999,-305.29 -33.297,-305.713 -33.973,-305.759C-34.146,-306.157 -34.603,-306.27 -34.828,-306.614C-34.883,-306.978 -35.021,-307.257 -35.056,-307.64C-35.448,-307.902 -36.057,-308.039 -36.481,-308.211C-36.637,-308.274 -36.622,-308.373 -36.766,-308.439C-36.889,-308.494 -37.08,-308.43 -37.222,-308.495C-37.352,-308.555 -37.397,-308.675 -37.507,-308.724C-37.75,-308.829 -38.074,-308.853 -38.305,-308.951C-39.288,-309.372 -40.229,-309.956 -41.27,-310.034C-42.188,-309.039 -42.934,-307.905 -43.892,-306.956C-44.851,-306.006 -45.891,-305.172 -47.027,-304.391C-48.055,-304.147 -48.594,-303.412 -49.82,-303.365C-50.039,-302.995 -50.777,-303.145 -51.017,-302.795C-51.756,-302.87 -52.006,-302.455 -52.784,-302.567C-53.053,-302.403 -53.355,-302.257 -53.753,-302.054C-54.267,-301.792 -54.683,-301.646 -55.235,-301.484C-55.417,-301.431 -55.528,-301.312 -55.691,-301.256C-55.87,-301.195 -56.073,-301.21 -56.261,-301.142C-56.447,-301.075 -56.554,-300.951 -56.717,-300.914C-57.859,-300.656 -59.009,-300.667 -60.251,-300.914C-60.264,-300.959 -60.299,-300.981 -60.365,-300.971C-61.627,-301.742 -62.806,-302.596 -63.557,-303.878C-64.433,-305.036 -65.251,-306.251 -65.609,-307.925C-65.677,-308.086 -65.846,-308.145 -65.895,-308.324C-65.968,-309.114 -66.308,-309.859 -66.407,-310.775C-66.646,-312.96 -66.381,-315.46 -66.179,-317.502C-65.978,-317.775 -65.834,-318.107 -65.895,-318.642C-65.57,-319.058 -65.475,-319.705 -65.381,-320.352C-65.053,-320.651 -65.011,-321.235 -64.812,-321.663C-64.561,-322.058 -64.386,-322.529 -64.241,-323.031C-63.622,-324.197 -63.14,-325.502 -62.474,-326.622C-61.897,-327.85 -61.102,-328.859 -60.536,-330.099C-59.819,-330.62 -59.486,-331.486 -58.94,-332.151C-58.869,-332.238 -58.817,-332.174 -58.712,-332.265C-58.624,-332.342 -58.667,-332.479 -58.598,-332.55C-58.539,-332.611 -58.438,-332.589 -58.37,-332.665C-58.174,-332.884 -58.046,-333.108 -57.857,-333.292C-57.719,-333.425 -57.537,-333.499 -57.401,-333.633C-56.9,-334.129 -56.472,-334.798 -55.748,-335.002C-55.251,-335.664 -54.351,-335.922 -53.639,-336.37C-53.084,-336.67 -52.322,-336.763 -51.815,-337.11C-51.201,-337.023 -50.974,-337.335 -50.561,-337.396C-49.017,-337.622 -47.394,-337.502 -45.716,-337.396C-45.587,-337.207 -45.377,-337.194 -45.203,-337.11C-44.649,-336.846 -44.169,-336.534 -43.664,-336.255C-43.616,-335.931 -43.274,-335.858 -43.094,-335.629C-42.819,-335.28 -42.679,-334.809 -42.295,-334.546C-41.814,-333.165 -41.028,-332.088 -40.984,-330.27C-40.617,-329.88 -40.394,-329.444 -40.187,-328.959C-40.136,-328.842 -40.012,-328.83 -39.958,-328.731C-39.914,-328.649 -39.947,-328.48 -39.901,-328.389C-39.852,-328.292 -39.71,-328.244 -39.673,-328.161C-39.514,-327.8 -39.48,-327.372 -39.331,-326.964C-39.301,-326.88 -39.133,-326.875 -39.104,-326.793C-39.06,-326.675 -39.15,-326.524 -39.104,-326.394C-39.034,-326.2 -38.865,-326.059 -38.818,-325.881C-38.771,-325.7 -38.815,-325.462 -38.761,-325.254C-38.706,-325.038 -38.564,-324.876 -38.533,-324.684C-38.421,-324 -38.412,-323.214 -38.362,-322.518C-38.243,-320.857 -38.329,-319.135 -38.362,-317.331C-36.793,-316.563 -35.058,-315.961 -33.574,-315.108C-32.482,-314.922 -31.778,-315.647 -30.553,-315.336C-30.138,-314.934 -29.141,-315.114 -28.843,-314.595C-27.518,-314.286 -26.615,-313.555 -25.309,-313.227C-24.942,-312.89 -24.327,-312.802 -23.94,-312.485C-22.618,-312.022 -21.392,-311.463 -20.179,-310.89C-18.364,-310.121 -16.547,-309.343 -14.764,-308.609C-14.464,-308.486 -14.246,-308.302 -14.022,-308.211C-13.486,-307.992 -13.099,-307.875 -12.654,-307.64C-12.309,-307.459 -11.917,-307.393 -11.628,-307.128C-10.493,-306.875 -9.796,-306.186 -8.607,-305.987C-8.504,-305.639 -7.992,-305.751 -7.866,-305.531C-6.757,-305.177 -5.868,-304.604 -4.788,-304.22C-3.8,-303.746 -2.686,-303.397 -1.767,-302.852C-0.339,-302.266 1.303,-301.669 2.565,-300.971C2.672,-300.912 2.787,-300.964 2.907,-300.914C3.368,-300.723 3.737,-300.51 4.161,-300.344C4.806,-300.092 5.659,-299.718 6.156,-299.375C6.265,-299.301 6.39,-299.371 6.499,-299.318C7.19,-298.982 8.12,-298.624 8.722,-298.292C8.828,-298.233 8.944,-298.285 9.063,-298.235C9.528,-298.042 9.893,-297.83 10.317,-297.665C11.06,-297.377 11.911,-297.018 12.655,-296.639C13.329,-296.296 14.032,-295.994 14.764,-295.784C14.984,-295.358 15.792,-295.52 16.018,-295.1C17.581,-294.669 18.713,-293.804 20.293,-293.39C20.779,-293.059 21.294,-292.757 22.003,-292.649C22.72,-292.092 23.771,-291.871 24.625,-291.452C25.413,-290.967 26.452,-290.733 27.247,-290.254C27.773,-290.059 28.295,-289.858 28.786,-289.628C29.157,-289.257 29.97,-289.329 30.269,-288.887C31.373,-288.528 32.389,-288.081 33.347,-287.576C34.387,-287.343 35.041,-286.724 36.083,-286.493C36.935,-286.071 37.737,-285.601 38.762,-285.353C38.848,-285.02 39.448,-285.203 39.503,-284.839C40.709,-284.64 41.407,-283.932 42.581,-283.699C43.384,-286.963 43.991,-290.422 44.804,-293.675C46.151,-294.133 48.129,-293.96 49.877,-294.017C50.7,-294.41 52.294,-294.033 53.298,-294.245C53.441,-295.355 53.856,-296.193 53.925,-297.38C53.404,-297.929 52.693,-298.21 52.557,-299.09C52.398,-300.102 53.056,-301.051 53.298,-301.883C53.518,-302.746 53.726,-303.621 54.152,-304.277C54.348,-305.469 54.767,-306.438 55.235,-307.356C55.325,-308.291 55.696,-308.946 55.977,-309.692C56.229,-310.98 56.901,-311.845 57.06,-313.227C57.525,-313.654 57.462,-314.611 57.915,-315.051C58.038,-316.428 58.814,-317.153 58.94,-318.528C59.301,-318.699 59.181,-319.351 59.454,-319.611C59.639,-319.957 59.6,-320.375 59.738,-320.751C59.845,-321.037 60.097,-321.322 60.194,-321.606C60.599,-322.77 60.959,-323.97 61.392,-325.083C61.509,-325.383 61.515,-325.713 61.62,-325.995C61.658,-326.099 61.788,-326.065 61.848,-326.166C61.909,-326.272 61.858,-326.458 61.904,-326.565C61.999,-326.785 62.107,-326.932 62.189,-327.135C62.329,-327.481 62.294,-327.885 62.418,-328.218C62.454,-328.315 62.594,-328.26 62.646,-328.332C62.709,-328.42 62.664,-328.58 62.703,-328.674C63.039,-329.493 63.278,-330.461 63.843,-330.954C65.882,-331.069 67.832,-330.921 69.942,-330.954C70.254,-332.961 70.331,-335.201 70.74,-337.11C70.813,-337.191 71.041,-337.114 70.968,-337.338C71.643,-337.539 72.177,-337.878 72.792,-338.137C73.588,-338.329 74.533,-338.372 75.243,-338.65C75.406,-338.772 76.063,-338.639 75.87,-338.935C72.907,-339.316 69.25,-339.003 66.237,-339.334C67.04,-341.077 68.249,-342.414 69.657,-343.552C72.089,-343.685 74.223,-344.117 76.839,-344.065C76.913,-344.841 77.144,-345.514 77.182,-346.174C77.222,-346.891 77.112,-347.613 77.238,-348.34C77.331,-348.877 77.45,-349.351 77.467,-349.879C77.563,-352.949 77.992,-355.775 78.036,-358.486C77.627,-358.871 77.028,-358.803 76.326,-358.885C75.694,-358.96 75.062,-358.987 74.389,-359.113C74.105,-359.167 73.833,-359.308 73.533,-359.341C73.275,-359.371 72.993,-359.301 72.735,-359.341C72.462,-359.384 72.207,-359.577 71.938,-359.627C70.427,-359.901 68.944,-359.847 67.776,-360.539C68.17,-361.494 69.111,-361.901 69.657,-362.705C70.297,-363.148 70.905,-363.623 71.424,-364.187C72.944,-364.928 75.028,-365.105 76.611,-365.783C77.698,-365.798 78.338,-366.261 79.348,-366.353C79.571,-367.297 79.633,-368.291 79.804,-369.26C79.892,-369.761 79.822,-370.331 79.917,-370.856C79.975,-371.174 80.114,-371.459 80.146,-371.768C80.258,-372.876 80.232,-374.028 80.373,-375.131C80.374,-375.138 80.414,-375.289 80.431,-375.359C80.76,-376.753 80.83,-378.074 80.943,-379.406C77.117,-379.931 72.891,-380.055 69.942,-381.459C69.803,-381.584 69.615,-381.699 69.6,-381.914C69.572,-382.303 70.018,-382.429 70.341,-382.713C71.181,-383.447 72.082,-384.488 72.906,-384.821C73.318,-385.607 74.291,-385.83 74.901,-386.418C77.31,-386.65 79.388,-387.213 81.741,-387.501C82.194,-391.57 82.406,-395.88 82.824,-399.984C81.842,-400.292 80.541,-400.464 79.575,-400.839C79.433,-400.895 79.298,-400.993 79.119,-401.067C78.922,-401.149 78.67,-401.113 78.55,-401.181C78.512,-401.203 78.316,-401.501 78.15,-401.637C77.94,-401.81 77.738,-401.884 77.694,-402.036C77.559,-402.514 77.926,-402.735 77.979,-403.005C78.021,-403.217 77.939,-403.525 77.979,-403.689C78.026,-403.884 78.213,-404.044 78.265,-404.259C78.396,-404.807 78.442,-405.37 78.492,-405.969C78.542,-406.148 78.777,-406.14 78.721,-406.425C78.952,-407.751 79.474,-408.788 79.575,-410.245C79.952,-410.533 79.747,-411.403 80.146,-411.67C80.029,-412.394 80.473,-412.558 80.373,-413.266C80.922,-414.218 80.928,-415.713 81.457,-416.686C81.523,-417.436 81.712,-418.065 82.026,-418.567C82.405,-420.906 83.329,-422.698 83.908,-424.837C84.2,-425.114 84.322,-425.563 84.478,-425.977C84.811,-426.103 84.824,-426.525 84.99,-426.775C85.077,-426.904 85.194,-426.998 85.275,-427.117C85.495,-427.439 85.611,-427.64 85.789,-427.915C86.083,-428.371 86.433,-428.691 86.529,-429.226C86.985,-429.52 87.25,-430.042 87.556,-430.48C87.868,-430.929 88.274,-431.364 88.468,-431.905C88.756,-432.064 89.138,-432.401 89.038,-432.76C88.576,-433.058 87.809,-432.988 87.1,-432.988C86.354,-432.988 85.581,-433.001 84.934,-433.046C83.807,-433.477 81.931,-433.158 80.545,-433.33C79.641,-433.697 78.188,-433.515 76.896,-433.615C74.68,-433.787 72.706,-434.004 70.569,-434.071C69.968,-434.09 69.425,-434.047 68.859,-434.071C68.347,-434.093 67.884,-434.21 67.377,-434.299C66.164,-434.515 64.822,-434.235 63.615,-434.414C62.797,-434.756 61.243,-434.662 60.194,-434.585C59.956,-434.082 59.561,-433.736 59.511,-433.046C59.063,-432.752 58.882,-432.192 58.655,-431.677C58.239,-431.391 57.938,-430.988 57.572,-430.651C56.803,-430.471 56.304,-430.02 55.292,-430.081C54.644,-429.449 53.978,-428.833 53.411,-428.2C53.201,-427.965 53.083,-427.661 52.784,-427.516C52.49,-426.955 51.887,-426.704 51.416,-426.319C51.019,-426.375 50.969,-426.083 50.675,-426.034C50.197,-426.075 49.863,-425.972 49.421,-425.977C48.203,-425.105 46.715,-424.503 45.203,-423.925C43.895,-423.747 42.884,-423.782 41.84,-424.21C41.658,-424.629 41.307,-424.585 40.985,-425.008C40.789,-425.265 40.808,-425.741 40.586,-425.92C40.304,-426.148 39.936,-425.987 39.446,-426.034C38.915,-426.339 38.166,-426.426 37.564,-426.661C37.304,-426.838 37.181,-427.15 36.767,-427.174C36.235,-428.068 36.057,-429.314 35.627,-430.309C35.349,-430.336 34.959,-430.25 34.771,-430.366C33.858,-430.65 33.001,-430.989 32.206,-431.392C32.024,-431.799 31.702,-432.067 31.352,-432.304C31.317,-432.783 31.002,-432.981 30.839,-433.33C30.91,-433.725 30.661,-433.798 30.554,-434.014C30.57,-434.792 30.211,-435.192 30.154,-435.896C29.29,-435.849 28.97,-436.345 28.045,-436.237C27.355,-436.574 26.479,-436.722 25.48,-436.751C25.265,-436.073 24.744,-435.7 24.625,-434.926C24.075,-434.565 23.888,-433.839 23.485,-433.33C23.056,-432.848 22.833,-432.158 22.231,-431.848C22.103,-431.122 21.383,-430.986 21.205,-430.309C20.847,-430.27 20.624,-429.872 20.464,-429.682C19.954,-429.075 19.263,-428.556 18.697,-428.086C18.144,-427.627 17.574,-427.296 17.044,-426.832C16.438,-426.641 15.864,-426.416 15.448,-426.034C14.909,-426.079 14.816,-425.678 14.194,-425.806C13.245,-425.22 11.851,-425.625 10.603,-425.464C9.907,-425.374 9.277,-425.203 8.607,-425.293C8.446,-425.315 8.253,-425.437 8.095,-425.464C7.161,-425.623 6.175,-425.403 5.244,-425.521C4.894,-425.566 4.592,-425.76 4.275,-425.806C3.563,-425.911 2.938,-425.936 2.28,-426.034C1.534,-426.352 0.768,-426.65 -0.114,-426.832C-0.495,-427.211 -1.028,-427.438 -1.596,-427.63C-1.919,-428.031 -2.371,-428.298 -2.736,-428.656C-3.866,-429.766 -4.918,-430.941 -5.643,-432.419C-5.919,-432.504 -5.894,-432.89 -6.156,-432.988C-6.444,-433.916 -6.878,-434.698 -7.239,-435.554C-7.58,-436.963 -7.81,-438.499 -7.81,-440.456C-7.81,-441.734 -7.868,-443.115 -7.467,-443.762L-7.467,-444.503C-7.346,-444.78 -7.18,-445.013 -7.239,-445.472C-7.028,-445.641 -6.906,-445.9 -6.954,-446.327C-6.638,-446.39 -6.696,-446.829 -6.612,-447.125C-6.261,-447.391 -6.324,-447.85 -6.156,-448.208C-6.116,-448.294 -6.003,-448.23 -5.928,-448.322C-5.87,-448.393 -5.914,-448.589 -5.871,-448.664C-5.678,-449.004 -5.53,-449.377 -5.358,-449.69C-5.094,-450.172 -4.611,-450.59 -4.503,-451.172C-4.146,-451.272 -4.142,-451.723 -3.762,-451.799C-3.736,-452.135 -3.468,-452.227 -3.42,-452.54C-2.813,-453.016 -2.29,-453.577 -1.767,-454.136C-1.207,-454.318 -0.782,-454.634 -0.398,-454.991C0.354,-455.245 1.708,-455.428 2.28,-455.789C2.846,-455.718 3.177,-455.881 3.478,-456.074C4.103,-455.992 4.363,-456.255 4.788,-456.302C5.029,-456.329 5.301,-456.264 5.529,-456.302C5.801,-456.348 5.971,-456.543 6.214,-456.588C6.618,-456.662 7.232,-456.56 7.81,-456.588C8.793,-456.634 9.557,-456.689 10.488,-456.645C10.952,-456.623 11.44,-456.632 11.8,-456.588C12.123,-456.547 12.364,-456.359 12.655,-456.302C13.274,-456.183 13.9,-456.168 14.479,-456.074C15.585,-455.47 17.075,-455.251 18.013,-454.478C19.282,-454.037 20.063,-453.109 21.205,-452.54C21.357,-452.113 21.769,-451.87 22.061,-451.571C22.367,-451.256 22.634,-450.882 23.029,-450.659C23.221,-450.112 23.643,-449.718 23.884,-449.234C23.933,-449.138 24.058,-449.104 24.112,-449.006C24.224,-448.807 24.282,-448.517 24.397,-448.322C24.863,-447.532 25.264,-446.735 25.708,-445.928C25.767,-445.493 26.022,-445.254 26.05,-444.788L30.04,-444.788C30.393,-445.747 30.923,-446.528 31.408,-447.353C32.325,-448.165 33.307,-448.913 34.544,-449.405C34.844,-450.398 35.693,-450.84 36.311,-451.514C37.813,-452.158 39.314,-452.804 41.44,-452.825C41.657,-453.283 42.275,-453.423 42.638,-453.68C42.734,-453.748 42.716,-453.81 42.809,-453.851C42.943,-453.911 43.146,-453.893 43.322,-453.965C43.491,-454.034 43.57,-454.162 43.721,-454.193C44.189,-454.291 44.91,-454.317 45.431,-454.307C45.979,-454.296 46.676,-454.302 47.142,-454.193C47.27,-454.163 47.457,-453.96 47.598,-453.908C47.729,-453.86 47.903,-453.954 48.054,-453.908C48.151,-453.879 48.277,-453.747 48.452,-453.68C48.866,-453.521 49.233,-453.291 49.535,-453.167C49.945,-452.999 49.856,-452.906 50.162,-452.654C50.949,-452.007 51.724,-451.328 52.043,-450.374C52.78,-450.275 53.385,-450.044 54.096,-449.918C54.356,-449.4 54.84,-449.105 55.179,-448.664C55.453,-447.817 55.921,-447.164 56.091,-446.213C58.568,-446.122 59.28,-443.781 60.194,-441.938C63.126,-441.715 65.892,-441.327 68.973,-441.254C69.683,-440.945 70.576,-441.06 71.481,-441.025C74.133,-440.926 76.787,-440.454 79.462,-440.456C80.163,-440.124 81.327,-440.255 82.368,-440.171C84.153,-440.026 85.648,-439.908 87.328,-439.772C88.218,-439.7 89.124,-439.796 89.893,-439.658C90.046,-439.63 90.19,-439.521 90.349,-439.486C91.79,-439.18 93.319,-439.593 94.738,-439.202C95.343,-439.622 95.794,-440.198 96.334,-440.684C96.601,-440.923 96.941,-441.109 97.189,-441.368C97.448,-441.638 97.624,-442.031 98.044,-442.109C98.071,-442.386 98.376,-442.385 98.386,-442.679C99.17,-443.03 99.698,-443.707 100.324,-444.218C100.969,-444.744 101.646,-445.271 102.376,-445.643C102.545,-446.063 102.923,-446.275 103.402,-446.384C103.792,-446.906 104.325,-447.285 104.998,-447.524C105.385,-448.145 106.23,-448.328 106.651,-448.778C106.71,-448.841 106.744,-448.783 106.822,-448.835C107.648,-449.384 108.501,-449.852 109.331,-450.374C110.252,-450.954 111.309,-451.432 112.237,-451.97C112.805,-452.299 113.438,-452.687 114.119,-452.825C115.158,-453.534 116.427,-454.013 117.71,-454.478C118.778,-455.177 120.306,-455.418 121.415,-456.074C123.969,-456.713 126.082,-457.792 128.883,-458.184C129.131,-458.391 129.449,-458.528 129.966,-458.468C130.533,-458.85 131.471,-458.857 132.245,-458.982C132.551,-459.03 132.774,-459.235 133.044,-459.267C133.22,-459.287 133.434,-459.23 133.613,-459.267C133.878,-459.32 134.09,-459.515 134.354,-459.551C134.547,-459.578 134.782,-459.514 134.981,-459.551C135.235,-459.599 135.473,-459.796 135.723,-459.837C135.993,-459.88 136.306,-459.806 136.578,-459.837C137.27,-459.913 138.492,-460.141 139.086,-460.293C139.269,-460.339 139.437,-460.337 139.656,-460.35C140.276,-460.387 140.808,-460.479 141.194,-460.578C141.691,-460.704 142.271,-460.601 142.848,-460.634C143.364,-460.665 143.904,-460.772 144.387,-460.806C145.484,-460.883 146.569,-460.766 147.636,-461.034C147.681,-461.046 147.702,-461.081 147.693,-461.148" style="fill:url(#_Linear1);"/>
    </g>
    <g transform="matrix(0.842106,0,0,0.842105,56.0014,388.335)">
        <path d="M0,-447.296C-0.229,-447.069 -0.414,-446.558 -0.627,-446.384C-0.679,-446.341 -0.761,-446.384 -0.798,-446.327C-0.875,-446.209 -0.887,-445.848 -1.025,-445.586C-1.091,-445.464 -1.261,-445.413 -1.311,-445.301C-1.364,-445.183 -1.313,-444.977 -1.368,-444.845C-1.422,-444.718 -1.56,-444.663 -1.596,-444.56C-2.081,-443.166 -2.234,-441.15 -2.108,-439.43C-2.021,-438.226 -1.665,-437.211 -1.368,-436.408C-0.958,-435.302 -0.564,-434.69 0,-434.014C0.44,-433.771 0.844,-433.49 1.312,-433.274C2.979,-433.165 3.557,-434.144 4.275,-434.983C5.726,-437.161 6.017,-441.517 5.131,-444.56C4.472,-446.029 3.777,-447.463 2.224,-448.037C1.938,-448 1.503,-448.112 1.312,-447.98C0.766,-447.86 0.457,-447.504 0,-447.296" style="fill:white;"/>
    </g>
    <defs>
        <linearGradient id="_Linear1" x1="0" y1="0" x2="1" y2="0" gradientUnits="userSpaceOnUse" gradientTransform="matrix(2.90854e-14,-475,475,2.90854e-14,149.716,13.8522)"><stop offset="0" style="stop-color:rgb(0,34,83);stop-opacity:1"/><stop offset="1" style="stop-color:rgb(0,94,173);stop-opacity:1"/></linearGradient>
    </defs>
</svg>
