<?xml version="1.0" encoding="UTF-8" standalone="no"?>
<!DOCTYPE svg PUBLIC "-//W3C//DTD SVG 1.1//EN" "http://www.w3.org/Graphics/SVG/1.1/DTD/svg11.dtd">
<svg width="100%" height="100%" viewBox="0 0 400 267" version="1.1" xmlns="http://www.w3.org/2000/svg" xmlns:xlink="http://www.w3.org/1999/xlink" xml:space="preserve" xmlns:serif="http://www.serif.com/" style="fill-rule:evenodd;clip-rule:evenodd;stroke-linejoin:round;stroke-miterlimit:2;">
    <g transform="matrix(0.564444,0,0,0.564445,267.837,199.505)">
        <path d="M0,-235.663L-24.923,-313.589C-19.993,-305.327 -12.139,-291.622 -6.559,-279.276C2.15,-260.005 13.268,-237.398 13.454,-236.657C13.535,-236.335 8.486,-236.024 0,-235.663M-46.769,-233.874C-50.526,-233.722 -55.477,-233.521 -61.022,-233.337C-64.593,-243.411 -82.759,-294.727 -84.227,-300.415C-85.774,-306.416 -86.212,-309.472 -78.726,-313.608C-75.581,-314.784 -73.103,-315.679 -71.599,-316.151C-65.113,-318.19 -54.551,-321.71 -54.551,-321.71L-32.244,-321.214L-4.958,-235.462C-15.768,-235.037 -30.477,-234.536 -46.769,-233.874M-117.554,-235.545C-124.224,-239.808 -142.754,-272.976 -141.642,-283.353C-141.115,-288.269 -140.345,-290.58 -121.444,-297.436C-116.095,-299.376 -110.3,-301.555 -104.594,-303.726C-103.345,-303.453 -102.417,-302.518 -101.527,-300.415C-99.505,-295.634 -82.204,-243.025 -78.877,-232.898C-96.26,-232.651 -113.646,-233.049 -117.554,-235.545M-186.817,-227.8C-196.822,-240.44 -212.289,-248.559 -229.662,-248.559C-248.353,-248.559 -264.844,-239.166 -274.692,-224.849C-280.622,-224.648 -286.292,-224.455 -291.568,-224.275L-290.088,-291.975C-270.104,-292.473 -250.49,-292.559 -229.843,-292.802C-198.342,-293.173 -179.627,-296.878 -172.771,-288.54C-165.915,-280.202 -143.493,-229.245 -143.493,-229.245C-143.493,-229.245 -161.771,-228.637 -186.817,-227.8M-170.053,44.172L-164.919,39.903C-163.106,39.844 -161.375,39.795 -159.791,39.762L-170.053,44.172ZM-270.333,-224.996C-260.98,-237.225 -246.246,-245.119 -229.662,-245.119C-214.313,-245.119 -200.554,-238.354 -191.172,-227.655C-215.345,-226.847 -244.888,-225.857 -270.333,-224.996M-312.976,-223.538C-315.34,-223.456 -317.482,-223.381 -319.344,-223.315C-320.907,-223.259 -322.446,-223.202 -323.973,-223.144L-311.271,-291.274C-311.216,-291.277 -311.16,-291.279 -311.105,-291.282L-312.976,-223.538ZM-362.291,-221.27L-349.542,-288.763C-342.977,-289.466 -334.446,-290.115 -322.122,-290.764C-321.16,-290.814 -320.207,-290.859 -319.249,-290.907L-330.106,-222.9C-342.357,-222.394 -353.26,-221.82 -362.291,-221.27M-381.706,-219.91C-385,-219.637 -387.364,-219.405 -388.646,-219.239C-398.653,-217.941 -399.208,-221.09 -399.208,-242.586C-399.208,-257.429 -398.652,-267.601 -391.425,-274.457C-384.198,-281.313 -385.31,-282.239 -372.895,-284.833C-370.781,-285.275 -368.834,-285.689 -366.902,-286.082L-381.706,-219.91ZM231.016,-50.251C227.885,-53.488 219.014,-56.933 219.014,-56.933C219.014,-56.933 219.641,-64.865 218.075,-77.388C216.509,-89.912 211.082,-94.087 211.082,-94.087C211.082,-94.087 211.708,-95.964 212.126,-101.392C212.543,-106.82 212.334,-112.663 212.334,-112.663C212.334,-112.663 216.195,-117.464 220.475,-129.675C224.753,-141.887 222.457,-156.602 220.579,-167.456C218.7,-178.31 214.942,-182.172 204.297,-187.182C193.651,-192.191 183.319,-195.219 164.637,-198.975C163.279,-199.248 161.966,-199.505 160.675,-199.754L160.675,-203.058L158.813,-203.058L158.813,-206.411L156.764,-206.411L156.764,-211.566C162.52,-209.843 171.426,-207.344 173.526,-207.714C176.693,-208.273 177.065,-215.164 177.811,-225.409C178.557,-235.653 178.556,-240.868 176.507,-240.496C174.458,-240.123 149.872,-237.516 146.892,-236.584C143.912,-235.652 142.05,-226.712 142.235,-221.684C142.397,-217.296 144.264,-215.46 149.313,-213.826L149.313,-203.617L147.637,-203.617L147.637,-202.029C137.697,-203.564 129.568,-204.303 121.221,-204.716C108.592,-205.342 87.615,-206.178 74.047,-206.804C60.479,-207.431 43.05,-214.945 40.754,-217.241C38.458,-219.537 39.084,-224.442 35.744,-230.287C32.404,-236.131 16.854,-265.876 7.67,-283.41C-1.515,-300.943 -18.423,-330.167 -18.423,-330.167C-18.423,-330.167 -17.587,-331.941 -20.302,-333.924C-23.016,-335.907 -50.881,-345.718 -68.414,-348.536C-85.948,-351.354 -114.127,-353.65 -151.49,-353.442C-188.854,-353.233 -201.379,-352.502 -252.728,-346.449C-304.077,-340.395 -330.9,-333.298 -356.47,-323.696C-382.04,-314.094 -411.576,-284.766 -415.02,-280.383C-418.464,-275.999 -412.933,-276.938 -412.933,-276.938C-412.933,-276.938 -412.519,-268.381 -415.128,-255.335C-417.737,-242.289 -422.225,-219.329 -422.955,-214.737C-423.686,-210.144 -426.817,-207.536 -427.965,-206.805C-429.113,-206.074 -435.167,-205.761 -443.307,-203.569C-451.447,-201.378 -452.491,-200.856 -458.44,-200.647C-464.389,-200.438 -463.554,-195.951 -463.554,-195.951C-463.554,-195.951 -464.807,-194.385 -466.164,-188.853C-467.521,-183.322 -468.46,-166.309 -468.46,-159.108C-468.46,-151.906 -465.746,-150.341 -465.746,-150.341L-465.85,-149.088C-465.85,-149.088 -467.521,-146.271 -469.816,-143.244C-472.112,-140.217 -474.408,-138.652 -474.513,-137.922C-474.617,-137.191 -466.79,-127.172 -466.79,-127.172C-466.79,-127.172 -468.668,-114.439 -465.642,-94.191C-462.615,-73.943 -453.221,-61.734 -449.985,-57.246C-446.75,-52.757 -443.515,-48.271 -442.784,-48.792C-442.054,-49.314 -435.688,-52.55 -435.688,-52.55C-435.688,-52.55 -436.104,-46.705 -436.104,-41.695C-436.104,-36.685 -436.209,-32.617 -434.852,-19.154C-433.495,-5.691 -433.182,0.258 -428.485,15.704C-423.789,31.151 -412.308,43.049 -401.558,43.049C-390.809,43.049 -382.25,32.612 -380.581,28.751C-378.911,24.889 -377.97,23.01 -376.405,12.993C-374.84,2.973 -375.57,-5.689 -375.57,-5.689C-375.57,-5.689 -313.889,23.114 -307.314,26.141C-300.739,29.169 -292.702,32.924 -291.033,32.715C-289.363,32.506 -283.727,31.567 -283.727,31.567C-283.727,31.567 -283.309,35.534 -281.848,47.118C-280.387,58.704 -279.552,64.444 -272.35,84.169C-265.148,103.893 -250.746,117.987 -234.047,117.987C-217.348,117.987 -208.269,108.071 -202.319,99.512C-196.37,90.954 -194.179,79.37 -192.3,65.176C-192.174,64.229 -192.062,63.299 -191.959,62.391L-183.284,55.176C-182.515,56.276 -181.366,57.258 -179.709,57.258C-176.911,57.258 -149.184,45.516 -135.089,39.467C-108.076,39.079 -65.39,38.354 -65.39,38.354C-65.39,38.354 -62.676,43.991 -58.501,43.782C-54.326,43.573 66.74,33.032 66.74,33.032C66.74,33.032 66.74,35.014 67.888,42.006C69.035,49.001 70.914,58.079 80.725,69.977C90.535,81.876 106.087,88.241 121.325,88.241C136.563,88.241 145.225,83.128 153.783,73.942C162.341,64.758 165.682,57.35 169.856,43.782C174.03,30.213 175.075,10.592 175.075,10.592C175.075,10.592 185.303,7.776 191.355,4.852C197.409,1.93 201.376,1.2 207.95,-8.089C214.525,-17.376 215.57,-31.988 215.57,-31.988C215.57,-31.988 227.363,-32.406 229.451,-33.972C231.539,-35.537 234.147,-40.128 234.147,-42.843C234.147,-45.556 234.147,-47.017 231.016,-50.251" style="fill:url(#_Linear1);fill-rule:nonzero;"/>
    </g>
    <g transform="matrix(0.564444,0,0,0.564445,313.102,211.001)">
        <path d="M0,-17.295C-0.209,-17.274 -0.464,-17.234 -0.683,-17.213C-0.942,-17.188 -1.219,-17.242 -1.427,-17.18C-1.586,-17.131 -1.711,-16.965 -1.742,-16.844C-1.777,-16.711 -1.719,-16.596 -1.719,-16.441C-1.718,-16.336 -1.746,-16.246 -1.739,-16.131C-1.731,-16.016 -1.728,-15.897 -1.729,-15.775C-1.744,-14.941 -1.718,-13.996 -1.726,-13.232C-1.727,-13.086 -1.766,-12.934 -1.764,-12.785C-1.763,-12.602 -1.724,-12.412 -1.727,-12.227C-1.749,-10.606 -1.762,-8.836 -1.763,-7.238C-1.765,-6.576 -1.763,-5.871 -1.796,-5.285C-1.812,-5.02 -1.767,-4.744 -1.762,-4.525C-1.745,-3.43 -1.783,-2.285 -1.802,-1.258C-1.806,-0.932 -1.902,-0.561 -1.679,-0.295C-1.313,-0.213 -0.982,-0.295 -0.639,-0.34C-0.149,-0.4 0.365,-0.395 0.866,-0.484C1.61,-0.619 2.299,-0.582 2.886,-0.822C3.157,-0.934 3.438,-0.996 3.664,-1.119C3.741,-1.16 3.823,-1.246 3.901,-1.303C4.173,-1.492 4.314,-1.649 4.546,-1.895C4.686,-2.043 4.822,-2.182 4.926,-2.354C5.184,-2.777 5.421,-3.225 5.599,-3.69C5.693,-3.932 5.785,-4.17 5.89,-4.428C6.025,-4.764 6.09,-5.152 6.187,-5.524C6.278,-5.875 6.382,-6.289 6.408,-6.682C6.437,-7.098 6.522,-7.524 6.538,-7.951C6.547,-8.215 6.563,-8.441 6.58,-8.678C6.613,-9.107 6.627,-9.625 6.604,-10.088C6.578,-10.609 6.508,-11.094 6.474,-11.563C6.449,-11.91 6.373,-12.248 6.335,-12.524C6.303,-12.758 6.268,-12.955 6.222,-13.147C6.194,-13.26 6.217,-13.379 6.196,-13.488C6.181,-13.572 6.128,-13.664 6.108,-13.754C5.9,-14.684 5.577,-15.389 5.093,-16.018C4.76,-16.445 4.316,-16.756 3.87,-17.027C2.812,-17.488 1.342,-17.44 0,-17.295M-6.041,4.824C-6.077,4.541 -6.109,4.312 -6.12,4.016C-6.124,3.926 -6.148,3.832 -6.146,3.752C-6.144,3.662 -6.098,3.578 -6.096,3.49C-6.09,3.316 -6.137,3.133 -6.133,2.947C-6.121,2.414 -6.078,1.812 -6.104,1.242C-6.122,0.867 -6.098,0.5 -6.116,0.127C-6.136,-0.24 -6.08,-0.592 -6.083,-0.957C-6.084,-1.051 -6.121,-1.141 -6.125,-1.236C-6.172,-2.178 -6.134,-3.141 -6.093,-4.088C-6.073,-4.547 -6.107,-5.02 -6.101,-5.482C-6.092,-5.947 -6.067,-6.408 -6.077,-6.859C-6.08,-6.982 -6.116,-7.109 -6.117,-7.232C-6.119,-7.475 -6.085,-7.697 -6.105,-7.945C-6.16,-8.606 -6.054,-9.422 -6.055,-10.084C-6.055,-10.201 -6.093,-10.32 -6.096,-10.44C-6.098,-10.69 -6.053,-10.941 -6.052,-11.197C-6.05,-11.971 -6.014,-12.713 -6.03,-13.459C-6.031,-13.551 -6.069,-13.647 -6.07,-13.738C-6.073,-13.883 -6.036,-14.029 -6.033,-14.172C-6.029,-14.315 -6.056,-14.451 -6.056,-14.592C-6.058,-14.775 -6.02,-14.961 -6.018,-15.149C-6.014,-15.305 -6.048,-15.463 -6.055,-15.613C-6.063,-15.775 -6.022,-15.922 -6.016,-16.078C-6.001,-16.436 -6.06,-16.801 -6.06,-17.149C-6.061,-17.26 -6.088,-17.356 -6.085,-17.459C-6.082,-17.664 -6.012,-17.897 -6.013,-18.123C-6.014,-18.361 -6.024,-18.608 -6.031,-18.852C-6.043,-19.199 -6.033,-19.533 -6.03,-19.875C-6.027,-20.133 -6.021,-20.436 -6.016,-20.727C-6.012,-21.043 -6.02,-21.352 -5.925,-21.531C-5.681,-21.988 -4.855,-21.926 -4.151,-21.967C-4.002,-21.973 -3.87,-22.035 -3.762,-22.037C-3.666,-22.039 -3.562,-22 -3.469,-22C-3.312,-22.002 -3.139,-22.035 -2.974,-22.039C-2.505,-22.053 -2.012,-22.104 -1.528,-22.154C-1.201,-22.19 -0.866,-22.174 -0.538,-22.215C-0.197,-22.26 0.134,-22.223 0.471,-22.244C0.593,-22.252 0.71,-22.305 0.829,-22.316C1.223,-22.354 1.646,-22.328 2.052,-22.358C2.201,-22.369 2.474,-22.361 2.703,-22.363C2.905,-22.365 3.139,-22.383 3.324,-22.354C3.432,-22.334 3.535,-22.287 3.647,-22.27C3.76,-22.252 3.879,-22.24 3.987,-22.217C4.298,-22.15 4.599,-22.047 4.897,-21.924C4.986,-21.887 5.065,-21.834 5.157,-21.795C5.342,-21.715 5.539,-21.654 5.712,-21.568C5.871,-21.49 6.046,-21.367 6.218,-21.266C6.545,-21.074 6.831,-20.813 7.105,-20.555C7.245,-20.422 7.406,-20.316 7.532,-20.191C7.637,-20.086 7.731,-19.936 7.852,-19.813C8.176,-19.483 8.512,-19.043 8.731,-18.619C8.807,-18.473 8.924,-18.344 9.002,-18.197C9.086,-18.045 9.134,-17.879 9.211,-17.715C9.358,-17.397 9.541,-17.094 9.646,-16.777C9.723,-16.539 9.778,-16.305 9.85,-16.076C9.953,-15.744 10.064,-15.459 10.143,-15.065C10.199,-14.781 10.332,-14.428 10.392,-14.129C10.419,-13.986 10.423,-13.832 10.445,-13.682C10.502,-13.281 10.59,-12.815 10.641,-12.359C10.727,-11.59 10.75,-10.715 10.77,-9.955C10.773,-9.783 10.783,-9.604 10.776,-9.43C10.745,-8.598 10.72,-7.779 10.611,-6.922C10.551,-6.451 10.516,-5.969 10.433,-5.531C10.395,-5.326 10.325,-5.125 10.268,-4.912C10.209,-4.695 10.195,-4.467 10.133,-4.266C10.005,-3.854 9.911,-3.432 9.771,-3.063C9.728,-2.943 9.648,-2.842 9.611,-2.725C9.585,-2.639 9.592,-2.553 9.56,-2.447C9.516,-2.297 9.41,-2.121 9.335,-1.955C9.123,-1.482 8.919,-0.955 8.69,-0.494C8.616,-0.344 8.51,-0.201 8.42,-0.049C7.824,0.975 7.063,1.836 6.129,2.562C5.988,2.674 5.887,2.785 5.736,2.881C5.597,2.971 5.461,3.051 5.299,3.139C5.152,3.217 5.027,3.338 4.876,3.41C4.715,3.486 4.566,3.596 4.422,3.65C4.276,3.705 4.122,3.728 3.969,3.797C3.701,3.922 3.394,4.021 3.067,4.092C2.905,4.127 2.74,4.182 2.584,4.209C2.408,4.236 2.237,4.225 2.058,4.26C1.269,4.42 0.362,4.441 -0.52,4.514C-0.853,4.541 -1.184,4.6 -1.527,4.635C-2.373,4.723 -3.184,4.773 -4.104,4.857C-4.273,4.871 -4.436,4.91 -4.602,4.924C-5.141,4.971 -5.668,5.088 -6.041,4.824" style="fill:white;"/>
    </g>
    <g transform="matrix(0.564444,0,0,0.564445,307.403,211.758)">
        <path d="M0,-17.983C0.043,-17.938 0.162,-17.934 0.171,-18.01C0.132,-18.067 0.011,-18.047 0,-17.983M0.482,-22.794C0.896,-22.278 0.681,-21.055 0.717,-20.155C0.74,-19.628 0.787,-19.145 0.739,-18.698C0.722,-18.53 0.644,-18.442 0.563,-18.268C0.501,-18.139 0.466,-17.963 0.401,-17.915C0.294,-17.829 0.048,-17.837 -0.173,-17.846C-0.405,-17.856 -0.642,-17.792 -0.794,-17.809C-0.865,-17.819 -0.9,-17.833 -0.946,-17.889C-1.33,-17.674 -1.79,-17.831 -2.234,-17.803C-2.326,-17.797 -2.406,-17.754 -2.499,-17.747C-2.601,-17.735 -2.727,-17.756 -2.841,-17.753C-2.942,-17.747 -3.047,-17.706 -3.136,-17.71C-3.206,-17.712 -3.28,-17.758 -3.351,-17.758C-3.457,-17.76 -3.583,-17.702 -3.709,-17.688C-3.958,-17.661 -4.208,-17.684 -4.469,-17.669C-4.587,-17.665 -4.704,-17.624 -4.825,-17.614C-5.091,-17.592 -5.372,-17.653 -5.585,-17.547C-5.886,-17.403 -5.794,-16.833 -5.79,-16.407C-5.788,-16.129 -5.83,-15.833 -5.82,-15.522C-5.794,-14.61 -5.912,-13.588 -5.853,-12.719C-5.845,-12.624 -5.811,-12.534 -5.812,-12.44C-5.81,-12.297 -5.844,-12.151 -5.849,-12.006C-5.854,-11.866 -5.828,-11.733 -5.826,-11.588C-5.817,-11.297 -5.845,-10.999 -5.841,-10.706C-5.83,-10.079 -5.848,-9.35 -5.859,-8.645C-5.866,-8.169 -5.843,-7.7 -5.836,-7.233C-5.83,-6.924 -5.888,-6.606 -5.866,-6.305C-5.86,-6.223 -5.826,-6.141 -5.824,-6.057C-5.823,-5.958 -5.872,-5.864 -5.876,-5.762C-5.879,-5.655 -5.838,-5.542 -5.835,-5.422C-5.825,-5.028 -5.882,-4.575 -5.855,-4.182C-5.849,-4.079 -5.805,-3.975 -5.8,-3.872C-5.788,-3.647 -5.842,-3.422 -5.856,-3.19C-5.911,-2.292 -5.828,-1.356 -5.856,-0.448C-5.861,-0.303 -5.885,-0.151 -5.879,-0.016C-5.872,0.113 -5.824,0.232 -5.822,0.357C-5.822,0.433 -5.852,0.517 -5.858,0.589C-5.918,1.281 -5.867,2.015 -5.877,2.665C-5.882,2.988 -5.899,3.304 -5.876,3.597C-5.867,3.738 -5.803,3.851 -5.821,3.968C-5.832,4.035 -5.874,4.068 -5.935,4.152C-5.972,4.206 -5.993,4.294 -6.029,4.337C-6.089,4.406 -6.376,4.583 -6.469,4.609C-6.631,4.65 -6.825,4.634 -7.011,4.662C-7.2,4.689 -7.381,4.749 -7.585,4.759C-7.789,4.771 -7.978,4.826 -8.176,4.843C-8.5,4.872 -8.832,4.859 -9.185,4.888C-9.287,4.898 -9.39,4.945 -9.479,4.945C-9.654,4.949 -9.85,4.896 -10.021,4.935C-10.103,4.826 -10.085,4.679 -10.169,4.531C-10.199,4.478 -10.231,4.472 -10.244,4.421C-10.266,4.345 -10.26,4.222 -10.271,4.126C-10.3,3.871 -10.247,3.64 -10.243,3.367C-10.241,3.263 -10.282,3.162 -10.285,3.056C-10.287,2.847 -10.236,2.638 -10.243,2.439C-10.245,2.341 -10.281,2.249 -10.284,2.158C-10.292,1.941 -10.242,1.683 -10.257,1.415C-10.261,1.331 -10.296,1.253 -10.299,1.165C-10.309,0.939 -10.269,0.683 -10.256,0.439C-10.243,0.197 -10.243,-0.077 -10.258,-0.319C-10.264,-0.397 -10.3,-0.477 -10.302,-0.553C-10.302,-0.641 -10.253,-0.725 -10.251,-0.815C-10.24,-1.12 -10.27,-1.45 -10.266,-1.762C-10.26,-2.079 -10.231,-2.407 -10.249,-2.69C-10.261,-2.858 -10.312,-3.012 -10.288,-3.235C-10.279,-3.305 -10.241,-3.372 -10.236,-3.45C-10.234,-3.524 -10.275,-3.608 -10.279,-3.684C-10.332,-4.465 -10.247,-5.338 -10.238,-6.19C-10.232,-6.694 -10.22,-7.215 -10.243,-7.694C-10.249,-7.792 -10.282,-7.891 -10.286,-7.991C-10.288,-8.087 -10.257,-8.188 -10.249,-8.286C-10.231,-8.485 -10.271,-8.684 -10.27,-8.889C-10.271,-10.21 -10.227,-11.614 -10.249,-12.979C-10.249,-13.065 -10.277,-13.157 -10.275,-13.243C-10.273,-13.344 -10.225,-13.493 -10.224,-13.598C-10.222,-13.68 -10.266,-13.766 -10.266,-13.864C-10.265,-13.936 -10.231,-14.012 -10.23,-14.092C-10.222,-14.42 -10.261,-14.79 -10.243,-15.165C-10.225,-15.545 -10.247,-15.926 -10.241,-16.249C-10.231,-16.737 -10.168,-17.129 -10.564,-17.231C-10.774,-17.282 -11.115,-17.2 -11.401,-17.196C-11.482,-17.196 -11.565,-17.231 -11.634,-17.233C-11.861,-17.231 -12.111,-17.131 -12.363,-17.12C-12.436,-17.116 -12.51,-17.143 -12.58,-17.139C-12.713,-17.131 -12.935,-17.087 -13.109,-17.071C-13.241,-17.059 -13.347,-17.065 -13.465,-17.045C-13.648,-17.016 -13.878,-16.938 -14.102,-16.948C-14.178,-16.952 -14.247,-16.995 -14.317,-16.997C-14.406,-17.001 -14.502,-16.963 -14.614,-16.956C-14.72,-16.95 -14.846,-16.971 -14.954,-16.962C-15.149,-16.948 -15.351,-16.891 -15.513,-16.879C-15.758,-16.86 -15.892,-16.909 -16.057,-16.825C-16.144,-16.784 -16.369,-16.7 -16.492,-16.708C-16.646,-16.721 -16.845,-16.881 -16.859,-16.948C-16.886,-17.055 -16.814,-17.133 -16.823,-17.227C-16.834,-17.333 -16.924,-17.397 -16.944,-17.491C-16.983,-17.667 -16.967,-17.913 -16.964,-18.112C-16.951,-18.948 -16.954,-20.022 -16.948,-20.901C-16.946,-21.335 -16.904,-21.626 -16.577,-21.809C-16.514,-21.844 -16.386,-21.893 -16.266,-21.911C-16.024,-21.95 -15.726,-21.891 -15.46,-21.928C-15.35,-21.944 -15.267,-21.995 -15.195,-22.001C-14.873,-22.044 -14.536,-22.022 -14.219,-22.016C-13.977,-22.01 -13.71,-22.046 -13.506,-22.067C-13.405,-22.077 -13.324,-22.12 -13.241,-22.126C-13.158,-22.129 -13.018,-22.1 -12.947,-22.102C-12.863,-22.108 -12.778,-22.157 -12.697,-22.161C-12.38,-22.184 -12.058,-22.176 -11.736,-22.192C-11.657,-22.196 -11.582,-22.231 -11.503,-22.235C-11.332,-22.243 -11.152,-22.212 -10.978,-22.225C-10.856,-22.237 -10.751,-22.278 -10.636,-22.282C-10.531,-22.286 -10.423,-22.243 -10.311,-22.245C-10.201,-22.247 -10.079,-22.28 -9.954,-22.286C-9.84,-22.292 -9.726,-22.313 -9.611,-22.325C-9.221,-22.376 -8.814,-22.317 -8.45,-22.354C-8.359,-22.362 -8.285,-22.405 -8.201,-22.411C-8.041,-22.424 -7.875,-22.391 -7.705,-22.405C-7.578,-22.413 -7.456,-22.454 -7.332,-22.46C-7.193,-22.467 -7.058,-22.434 -6.913,-22.438C-6.758,-22.438 -6.603,-22.473 -6.449,-22.491C-6.266,-22.512 -6.085,-22.483 -5.922,-22.497C-5.764,-22.512 -5.612,-22.588 -5.471,-22.583C-5.396,-22.581 -5.317,-22.52 -5.239,-22.516C-5.165,-22.514 -5.094,-22.577 -5.007,-22.575C-4.936,-22.575 -4.859,-22.524 -4.789,-22.524C-4.634,-22.528 -4.451,-22.587 -4.277,-22.594C-4.162,-22.598 -4.051,-22.585 -3.936,-22.588C-3.839,-22.592 -3.735,-22.628 -3.642,-22.629C-3.54,-22.631 -3.439,-22.596 -3.348,-22.61C-3.238,-22.626 -3.131,-22.712 -3.02,-22.727C-2.852,-22.753 -2.649,-22.708 -2.446,-22.704C-2.271,-22.7 -2.085,-22.708 -1.921,-22.71C-1.766,-22.712 -1.613,-22.774 -1.471,-22.78C-1.403,-22.784 -1.333,-22.758 -1.269,-22.76C-1.196,-22.762 -1.122,-22.799 -1.051,-22.803C-0.96,-22.807 -0.876,-22.782 -0.789,-22.784C-0.403,-22.792 0.064,-22.932 0.482,-22.794" style="fill:white;"/>
    </g>
    <g transform="matrix(0.564444,0,0,0.564445,285.617,213.254)">
        <path d="M0,-17.902C-0.077,-17.884 -0.154,-17.814 -0.249,-17.783C-0.345,-17.75 -0.449,-17.74 -0.529,-17.709C-0.626,-17.67 -0.728,-17.589 -0.843,-17.529C-1.101,-17.39 -1.287,-17.265 -1.483,-17.074C-1.588,-16.974 -1.727,-16.906 -1.814,-16.816C-1.922,-16.711 -2.021,-16.548 -2.115,-16.404C-2.2,-16.273 -2.299,-16.131 -2.355,-16.021C-2.456,-15.82 -2.515,-15.593 -2.613,-15.388C-2.654,-15.304 -2.733,-15.23 -2.771,-15.142C-2.876,-14.914 -2.919,-14.64 -3.018,-14.388C-3.108,-14.154 -3.213,-13.92 -3.308,-13.681C-3.449,-13.322 -3.542,-12.869 -3.639,-12.509C-3.765,-12.019 -3.83,-11.511 -3.928,-10.933C-3.994,-10.535 -4.073,-10.113 -4.087,-9.728C-4.091,-9.638 -4.059,-9.527 -4.062,-9.418C-4.075,-8.9 -4.155,-8.361 -4.104,-7.838C-4.096,-7.765 -4.066,-7.713 -4.06,-7.634C-4.052,-7.539 -4.071,-7.437 -4.065,-7.339C-4.047,-7.088 -3.972,-6.828 -3.938,-6.564C-3.918,-6.4 -3.939,-6.222 -3.916,-6.068C-3.9,-5.966 -3.852,-5.867 -3.828,-5.756C-3.804,-5.642 -3.799,-5.515 -3.772,-5.398C-3.667,-4.947 -3.553,-4.537 -3.437,-4.136C-3.377,-3.937 -3.297,-3.74 -3.23,-3.547C-3.091,-3.14 -2.946,-2.726 -2.784,-2.392C-2.745,-2.31 -2.677,-2.234 -2.634,-2.142C-2.44,-1.734 -2.332,-1.468 -2.062,-1.154C-1.952,-1.031 -1.844,-0.881 -1.727,-0.763C-1.291,-0.324 -0.968,-0.132 -0.361,0.034C-0.28,0.057 -0.17,0.094 -0.098,0.102C-0.025,0.106 0.054,0.069 0.134,0.075C0.242,0.08 0.332,0.129 0.428,0.125C1.208,0.1 1.872,-0.214 2.314,-0.572C2.729,-0.906 3.045,-1.31 3.355,-1.779C3.549,-2.066 3.714,-2.357 3.852,-2.652C3.936,-2.834 3.985,-3.029 4.063,-3.175C4.15,-3.349 4.261,-3.548 4.318,-3.714C4.345,-3.789 4.333,-3.877 4.354,-3.947C4.39,-4.064 4.458,-4.185 4.499,-4.3C4.546,-4.431 4.569,-4.566 4.613,-4.685C4.644,-4.767 4.702,-4.82 4.726,-4.9C4.889,-5.443 4.982,-6.095 5.098,-6.691C5.111,-6.773 5.166,-6.845 5.178,-6.923C5.191,-7.004 5.171,-7.086 5.182,-7.156C5.198,-7.263 5.257,-7.349 5.265,-7.449C5.271,-7.535 5.247,-7.634 5.254,-7.728C5.277,-8.068 5.326,-8.439 5.349,-8.795C5.359,-8.972 5.378,-9.179 5.372,-9.322C5.37,-9.4 5.334,-9.47 5.331,-9.554C5.32,-9.779 5.341,-10.006 5.327,-10.234C5.316,-10.381 5.245,-10.521 5.24,-10.656C5.239,-10.713 5.276,-10.771 5.273,-10.826C5.271,-10.923 5.229,-11.037 5.218,-11.152C5.206,-11.263 5.17,-11.373 5.162,-11.476C5.153,-11.562 5.177,-11.648 5.167,-11.726C5.154,-11.798 5.105,-11.871 5.091,-11.945C5.075,-12.035 5.095,-12.129 5.08,-12.222C5.031,-12.543 4.873,-12.912 4.787,-13.252C4.77,-13.33 4.784,-13.414 4.761,-13.484C4.741,-13.545 4.688,-13.591 4.671,-13.656C4.648,-13.746 4.655,-13.834 4.63,-13.92C4.6,-14.015 4.598,-14.089 4.571,-14.168C4.541,-14.261 4.442,-14.343 4.405,-14.451C4.384,-14.515 4.387,-14.586 4.362,-14.652C4.333,-14.73 4.273,-14.802 4.242,-14.886C4.144,-15.156 4.057,-15.466 3.944,-15.668C3.906,-15.736 3.851,-15.795 3.81,-15.871C3.694,-16.084 3.576,-16.326 3.449,-16.527C3.323,-16.722 3.153,-16.939 3.008,-17.078C2.953,-17.131 2.871,-17.166 2.81,-17.22C2.744,-17.277 2.702,-17.363 2.642,-17.408C2.501,-17.515 2.305,-17.564 2.135,-17.648C2.032,-17.703 1.965,-17.769 1.89,-17.795C1.521,-17.912 0.96,-17.99 0.591,-17.953C0.388,-17.933 0.186,-17.945 0,-17.902M3.984,-22.607C4.149,-22.509 4.31,-22.406 4.506,-22.336C4.818,-22.123 5.128,-21.939 5.426,-21.73C5.724,-21.521 5.95,-21.244 6.203,-20.99C6.588,-20.603 6.925,-20.222 7.22,-19.734C7.4,-19.437 7.563,-19.164 7.747,-18.841C7.857,-18.652 7.977,-18.49 8.031,-18.25C8.124,-18.09 8.257,-17.931 8.32,-17.748C8.498,-17.214 8.714,-16.668 8.928,-16.156C9.09,-15.566 9.277,-14.949 9.438,-14.336C9.835,-12.843 10.003,-10.974 9.971,-9.074C9.948,-7.711 9.782,-6.353 9.519,-5.131C9.388,-4.531 9.257,-3.947 9.04,-3.433C9.071,-3.238 8.965,-3.125 8.924,-2.986C8.862,-2.775 8.814,-2.615 8.744,-2.431C8.707,-2.332 8.643,-2.256 8.615,-2.17C8.595,-2.103 8.614,-2.021 8.597,-1.955C8.574,-1.869 8.502,-1.789 8.469,-1.691C8.431,-1.588 8.423,-1.459 8.386,-1.369C8.36,-1.31 8.301,-1.257 8.273,-1.201C8.237,-1.117 8.227,-1.021 8.192,-0.937C8.066,-0.64 7.907,-0.345 7.745,-0.031C7.583,0.276 7.423,0.569 7.265,0.86C7.022,1.299 6.749,1.705 6.406,2.071C6.012,2.493 5.711,2.866 5.272,3.229C4.84,3.584 4.364,3.891 3.877,4.225C3.563,4.444 3.171,4.602 2.799,4.737C2.606,4.803 2.418,4.893 2.221,4.957C2.016,5.028 1.795,5.016 1.6,5.118C1.447,5.067 1.334,5.184 1.195,5.205C1.022,5.231 0.827,5.215 0.637,5.243C0.124,5.309 -0.61,5.33 -1.131,5.243C-1.229,5.227 -1.34,5.17 -1.454,5.145C-1.721,5.088 -1.995,5.051 -2.226,4.963C-2.361,4.909 -2.486,4.834 -2.626,4.786C-2.924,4.682 -3.169,4.61 -3.425,4.461C-3.551,4.389 -3.686,4.338 -3.794,4.27C-3.884,4.213 -3.964,4.137 -4.056,4.078C-4.15,4.018 -4.277,3.993 -4.361,3.934C-4.469,3.86 -4.596,3.619 -4.711,3.526C-4.771,3.475 -4.863,3.477 -4.928,3.43C-4.962,3.405 -4.99,3.346 -5.033,3.301C-5.074,3.266 -5.121,3.243 -5.155,3.209C-5.193,3.17 -5.206,3.104 -5.245,3.067C-5.286,3.03 -5.348,3.026 -5.385,2.987C-5.459,2.911 -5.518,2.797 -5.597,2.705C-5.671,2.618 -5.766,2.532 -5.824,2.453C-5.928,2.317 -5.969,2.162 -6.065,2.014C-6.152,1.883 -6.325,1.801 -6.4,1.67C-6.443,1.592 -6.451,1.498 -6.49,1.418C-6.551,1.291 -6.661,1.186 -6.731,1.059C-6.779,0.971 -6.79,0.864 -6.835,0.778C-6.884,0.686 -6.984,0.631 -7.032,0.543C-7.067,0.479 -7.066,0.381 -7.106,0.309C-7.143,0.243 -7.2,0.198 -7.227,0.137C-7.272,0.03 -7.27,-0.091 -7.313,-0.205C-7.367,-0.338 -7.533,-0.41 -7.572,-0.535C-7.595,-0.611 -7.56,-0.722 -7.582,-0.83C-7.603,-0.923 -7.698,-1.007 -7.732,-1.095C-7.76,-1.17 -7.754,-1.25 -7.776,-1.33C-7.814,-1.461 -7.927,-1.566 -7.971,-1.689C-8.003,-1.777 -8,-1.882 -8.027,-1.968C-8.065,-2.08 -8.143,-2.168 -8.178,-2.265C-8.229,-2.406 -8.215,-2.541 -8.248,-2.716C-8.287,-2.925 -8.424,-3.17 -8.469,-3.4C-8.487,-3.49 -8.464,-3.58 -8.48,-3.666C-8.508,-3.816 -8.585,-3.957 -8.612,-4.117C-8.64,-4.277 -8.666,-4.441 -8.698,-4.599C-8.717,-4.703 -8.787,-4.802 -8.8,-4.91C-8.813,-5.019 -8.787,-5.138 -8.795,-5.252C-8.813,-5.527 -8.904,-5.791 -8.904,-6.089C-8.904,-6.248 -8.899,-6.396 -8.912,-6.554C-8.925,-6.695 -8.97,-6.834 -8.968,-6.972C-8.967,-7.048 -8.935,-7.129 -8.934,-7.207C-8.932,-7.31 -8.98,-7.414 -8.988,-7.515C-9.007,-7.724 -8.976,-7.947 -8.978,-8.166C-8.984,-8.57 -9.009,-8.996 -8.973,-9.39C-8.964,-9.506 -8.914,-9.615 -8.906,-9.73C-8.899,-9.816 -8.928,-9.908 -8.917,-9.994C-8.903,-10.111 -8.834,-10.164 -8.818,-10.302C-8.807,-10.408 -8.844,-10.507 -8.845,-10.613C-8.846,-10.8 -8.759,-10.986 -8.727,-11.199C-8.688,-11.453 -8.684,-11.726 -8.636,-11.957C-8.605,-12.105 -8.521,-12.246 -8.506,-12.388C-8.491,-12.507 -8.507,-12.619 -8.484,-12.728C-8.442,-12.923 -8.312,-13.093 -8.272,-13.283C-8.236,-13.463 -8.249,-13.613 -8.203,-13.763C-8.166,-13.882 -8.063,-13.988 -8.027,-14.115C-8.003,-14.193 -8.012,-14.285 -7.991,-14.363C-7.95,-14.527 -7.884,-14.685 -7.843,-14.857C-7.805,-15.017 -7.765,-15.203 -7.712,-15.351C-7.686,-15.423 -7.611,-15.478 -7.584,-15.548C-7.565,-15.599 -7.582,-15.67 -7.566,-15.72C-7.531,-15.826 -7.447,-15.933 -7.406,-16.043C-7.156,-16.713 -6.883,-17.402 -6.521,-17.98C-6.48,-18.326 -6.25,-18.515 -6.104,-18.795C-6.061,-18.879 -6.056,-18.984 -6.007,-19.072C-5.908,-19.246 -5.745,-19.412 -5.625,-19.591C-5.38,-19.966 -5.151,-20.213 -4.852,-20.525C-4.72,-20.662 -4.564,-20.763 -4.428,-20.89C-4.337,-20.97 -4.294,-21.091 -4.205,-21.164C-4.104,-21.248 -3.975,-21.3 -3.861,-21.392C-3.354,-21.795 -2.744,-22.166 -2.093,-22.447C-1.96,-22.504 -1.845,-22.58 -1.703,-22.625C-1.56,-22.67 -1.446,-22.74 -1.313,-22.789C-1.204,-22.828 -1.063,-22.826 -0.939,-22.859C-0.823,-22.892 -0.716,-22.959 -0.611,-22.98C-0.513,-22.998 -0.401,-22.986 -0.301,-23.004C-0.145,-23.031 -0.015,-23.08 0.15,-23.09C0.63,-23.121 1.207,-23.232 1.762,-23.172C1.858,-23.162 1.961,-23.115 2.056,-23.105C2.162,-23.091 2.267,-23.127 2.35,-23.115C2.409,-23.105 2.459,-23.047 2.518,-23.033C2.588,-23.021 2.657,-23.043 2.721,-23.031C2.788,-23.017 2.852,-22.972 2.921,-22.951C3.28,-22.841 3.648,-22.74 3.984,-22.607" style="fill:white;"/>
    </g>
    <g transform="matrix(0.564444,0,0,0.564445,272.338,214.21)">
        <path d="M0,-18.129C-0.381,-18.068 -0.737,-17.992 -1.09,-17.885C-1.558,-17.74 -2.03,-17.455 -2.372,-17.162C-2.674,-16.904 -2.813,-16.717 -3.052,-16.399C-3.168,-16.244 -3.251,-16.092 -3.338,-15.908C-3.642,-15.268 -3.985,-14.565 -3.874,-13.531C-3.805,-12.885 -3.544,-12.262 -3.251,-11.846C-3.18,-11.744 -3.133,-11.623 -3.071,-11.533C-3.011,-11.445 -2.912,-11.369 -2.827,-11.281C-2.523,-10.969 -2.223,-10.736 -1.738,-10.582C-0.666,-10.24 0.885,-10.238 1.994,-10.504C2.23,-10.561 2.406,-10.59 2.586,-10.664C2.693,-10.711 2.799,-10.721 2.881,-10.752C2.967,-10.787 3.066,-10.877 3.162,-10.934C3.274,-10.998 3.398,-11.029 3.491,-11.084C3.96,-11.358 4.332,-11.83 4.626,-12.274C4.731,-12.432 4.881,-12.604 4.943,-12.748C4.978,-12.824 4.986,-12.938 5.026,-13.041C5.067,-13.143 5.153,-13.233 5.188,-13.334C5.247,-13.518 5.246,-13.76 5.275,-14.012C5.289,-14.127 5.349,-14.244 5.358,-14.352C5.378,-14.563 5.411,-14.766 5.415,-14.94C5.424,-15.289 5.345,-15.52 5.274,-15.779C5.215,-15.996 5.109,-16.145 5.035,-16.311C4.995,-16.4 4.993,-16.492 4.948,-16.576C4.912,-16.635 4.829,-16.688 4.765,-16.764C4.704,-16.834 4.652,-16.918 4.598,-16.984C4.491,-17.108 4.347,-17.305 4.232,-17.393C4.191,-17.424 4.119,-17.432 4.063,-17.473C4.011,-17.512 3.979,-17.568 3.925,-17.598C3.566,-17.811 3.081,-18.053 2.665,-18.147C2.448,-18.195 2.188,-18.211 1.952,-18.236C1.727,-18.262 1.403,-18.262 1.224,-18.248C0.773,-18.217 0.369,-18.19 0,-18.129M6.914,-22.09C7.094,-21.865 7.354,-21.736 7.571,-21.551C8.186,-21.029 8.739,-20.309 9.164,-19.588C9.317,-19.328 9.429,-18.977 9.584,-18.652C9.727,-18.352 9.848,-17.99 9.939,-17.668C10.085,-17.154 10.205,-16.627 10.346,-16.066C10.389,-15.893 10.463,-15.721 10.491,-15.553C10.596,-14.975 10.642,-14.387 10.709,-13.752C10.718,-13.672 10.759,-13.6 10.768,-13.518C10.956,-11.649 10.924,-9.658 10.901,-7.723C10.9,-7.408 10.891,-7.068 10.856,-6.76C10.845,-6.664 10.804,-6.572 10.79,-6.469C10.742,-6.145 10.736,-5.787 10.693,-5.447C10.685,-5.363 10.641,-5.285 10.629,-5.199C10.618,-5.117 10.636,-5.029 10.625,-4.951C10.604,-4.822 10.54,-4.705 10.525,-4.566C10.468,-4.053 10.329,-3.568 10.207,-3.147C10.166,-3.006 10.152,-2.863 10.106,-2.731C10.061,-2.592 10.025,-2.463 9.992,-2.328C9.895,-1.953 9.718,-1.576 9.57,-1.221C9.52,-1.098 9.457,-1.004 9.394,-0.883C9.275,-0.652 9.208,-0.399 9.088,-0.174C9.044,-0.092 8.966,-0.031 8.913,0.055C8.86,0.142 8.838,0.248 8.785,0.33C8.486,0.805 8.108,1.254 7.756,1.693C7.64,1.838 7.519,1.992 7.391,2.137C7.021,2.553 6.568,2.889 6.194,3.326C5.98,3.463 5.768,3.584 5.553,3.717C5.446,3.783 5.383,3.9 5.284,3.961C5.179,4.027 5.035,4.08 4.909,4.156C4.677,4.297 4.436,4.383 4.176,4.531C4.063,4.594 3.95,4.685 3.83,4.742C3.609,4.846 3.337,4.894 3.084,4.963C2.986,4.988 2.896,5.043 2.802,5.066C2.034,5.248 1.196,5.422 0.303,5.412C-0.049,5.406 -0.434,5.367 -0.812,5.348C-0.976,5.336 -1.148,5.287 -1.323,5.275C-1.491,5.264 -1.678,5.291 -1.833,5.267C-1.954,5.25 -2.107,5.164 -2.25,5.119C-2.666,4.99 -3.104,4.855 -3.481,4.697C-3.574,4.658 -3.657,4.582 -3.742,4.539C-3.84,4.486 -3.945,4.486 -4.051,4.439C-4.126,4.406 -4.207,4.295 -4.311,4.234C-4.792,3.951 -5.225,3.629 -5.626,3.267C-5.937,2.988 -6.226,2.666 -6.511,2.338C-6.579,2.258 -6.625,2.16 -6.691,2.072C-6.76,1.982 -6.852,1.922 -6.904,1.836C-6.964,1.74 -7.003,1.633 -7.071,1.539C-7.193,1.363 -7.275,1.168 -7.401,0.975C-7.52,0.793 -7.586,0.627 -7.702,0.412C-7.846,0.148 -7.924,-0.149 -8.044,-0.461C-8.115,-0.647 -8.202,-0.838 -8.251,-1.053C-8.27,-1.139 -8.258,-1.242 -8.278,-1.332C-8.293,-1.412 -8.349,-1.479 -8.366,-1.551C-8.385,-1.621 -8.371,-1.711 -8.394,-1.801C-8.422,-1.926 -8.453,-2.059 -8.494,-2.234C-8.706,-3.131 -7.356,-2.973 -6.559,-3.039C-6.32,-3.059 -6.082,-3.111 -5.831,-3.135C-5.322,-3.184 -4.881,-3.168 -4.419,-3.174C-4.221,-3.176 -3.834,-3.275 -3.659,-3.193C-3.455,-3.096 -3.353,-2.59 -3.256,-2.363C-2.983,-1.742 -2.646,-1.414 -2.193,-0.967C-1.983,-0.758 -1.753,-0.551 -1.521,-0.414C-1.122,-0.178 -0.491,-0.025 0.066,0.062C0.441,0.121 0.911,0.033 1.338,0.006C1.983,-0.035 2.421,-0.236 2.881,-0.481C3.105,-0.6 3.344,-0.723 3.521,-0.858C3.664,-0.963 3.799,-1.168 3.965,-1.33C4.123,-1.488 4.327,-1.596 4.45,-1.74C4.49,-1.787 4.517,-1.867 4.563,-1.922C4.705,-2.098 4.83,-2.275 4.943,-2.537C5.016,-2.703 5.13,-2.856 5.186,-2.998C5.323,-3.369 5.433,-3.957 5.565,-4.479C5.621,-4.699 5.683,-4.947 5.703,-5.266C5.72,-5.535 5.783,-5.893 5.717,-6.119C5.683,-6.236 5.533,-6.395 5.381,-6.418C5.074,-6.469 4.494,-6.109 4.273,-5.988C3.729,-5.686 3.221,-5.551 2.636,-5.316C2.44,-5.24 2.24,-5.215 2.014,-5.174C1.578,-5.096 1.135,-5.006 0.692,-4.963C0.355,-4.93 0.002,-4.953 -0.376,-4.967C-0.487,-4.969 -0.6,-4.949 -0.703,-4.957C-0.776,-4.959 -0.844,-5.004 -0.917,-5.006C-1.077,-5.014 -1.245,-4.938 -1.416,-4.953C-1.626,-4.969 -1.89,-5.004 -2.032,-5.086C-2.413,-5.143 -2.812,-5.221 -3.159,-5.338C-3.32,-5.393 -3.464,-5.512 -3.619,-5.563C-3.691,-5.584 -3.777,-5.572 -3.852,-5.596C-4.141,-5.697 -4.414,-5.895 -4.696,-6.045C-4.841,-6.121 -4.996,-6.184 -5.127,-6.268C-5.63,-6.6 -6.103,-6.992 -6.532,-7.424C-6.585,-7.477 -6.632,-7.545 -6.686,-7.596C-7.042,-7.941 -7.336,-8.43 -7.624,-8.883C-7.752,-9.084 -7.832,-9.315 -7.955,-9.508C-8.1,-9.736 -8.152,-9.926 -8.239,-10.164C-8.271,-10.256 -8.344,-10.336 -8.373,-10.43C-8.396,-10.5 -8.395,-10.588 -8.417,-10.662C-8.45,-10.787 -8.521,-10.899 -8.549,-11.022C-8.57,-11.109 -8.571,-11.209 -8.591,-11.301C-8.623,-11.451 -8.698,-11.596 -8.723,-11.736C-8.8,-12.172 -8.73,-12.59 -8.779,-12.979C-8.79,-13.061 -8.843,-13.147 -8.853,-13.227C-8.871,-13.373 -8.811,-13.582 -8.813,-13.783C-8.814,-13.99 -8.859,-14.311 -8.831,-14.541C-8.816,-14.652 -8.736,-14.748 -8.718,-14.852C-8.65,-15.221 -8.634,-15.609 -8.543,-16.01C-8.523,-16.098 -8.463,-16.166 -8.431,-16.256C-8.314,-16.578 -8.248,-16.963 -8.12,-17.274C-8.082,-17.363 -7.998,-17.43 -7.96,-17.52C-7.857,-17.752 -7.813,-17.988 -7.701,-18.197C-7.485,-18.596 -7.281,-18.977 -6.985,-19.317C-6.851,-19.469 -6.712,-19.656 -6.589,-19.836C-6.357,-20.174 -6.044,-20.504 -5.736,-20.813C-5.585,-20.965 -5.402,-21.086 -5.233,-21.225C-5.144,-21.293 -5.088,-21.389 -4.997,-21.451C-4.676,-21.676 -4.284,-21.885 -3.917,-22.084C-3.37,-22.383 -2.788,-22.654 -2.154,-22.846C-1.995,-22.893 -1.838,-22.945 -1.686,-23.006C-1.522,-23.074 -1.379,-23.094 -1.204,-23.141C-0.858,-23.227 -0.552,-23.365 -0.177,-23.402C0.188,-23.436 0.51,-23.471 0.878,-23.477C1.159,-23.481 1.439,-23.551 1.717,-23.539C1.792,-23.535 1.869,-23.496 1.947,-23.488C2.15,-23.473 2.354,-23.524 2.553,-23.51C2.853,-23.488 3.16,-23.414 3.465,-23.371C3.546,-23.359 3.632,-23.379 3.712,-23.367C3.822,-23.35 3.939,-23.303 4.051,-23.283C4.175,-23.262 4.305,-23.26 4.406,-23.231C4.492,-23.207 4.565,-23.149 4.652,-23.119C4.742,-23.086 4.846,-23.084 4.931,-23.051C5.019,-23.022 5.099,-22.971 5.192,-22.94C5.641,-22.783 6.053,-22.567 6.438,-22.344C6.594,-22.256 6.739,-22.139 6.914,-22.09" style="fill:white;"/>
    </g>
    <g transform="matrix(0.564444,0,0,0.564445,257.689,210.912)">
        <path d="M0,-3.066C0.085,-3.045 0.18,-3.068 0.265,-3.046C0.335,-3.029 0.394,-2.97 0.464,-2.951C0.554,-2.925 0.666,-2.912 0.757,-2.898C1.431,-2.816 2.112,-2.82 2.849,-2.834C3.344,-2.841 3.873,-2.996 4.278,-3.119C4.48,-3.179 4.692,-3.242 4.87,-3.31C5.198,-3.439 5.405,-3.619 5.653,-3.808C5.888,-3.99 6.066,-4.136 6.251,-4.357C6.347,-4.472 6.488,-4.55 6.535,-4.646C6.563,-4.703 6.553,-4.781 6.585,-4.845C6.627,-4.939 6.742,-4.992 6.79,-5.076C6.821,-5.132 6.833,-5.23 6.87,-5.306C6.944,-5.455 7.007,-5.593 7.064,-5.738C7.102,-5.826 7.1,-5.92 7.129,-6C7.159,-6.072 7.208,-6.119 7.228,-6.185C7.302,-6.431 7.3,-6.763 7.335,-7.066C7.349,-7.193 7.405,-7.33 7.403,-7.466C7.401,-7.634 7.336,-7.74 7.317,-7.933C7.311,-8.017 7.335,-8.107 7.323,-8.197C7.313,-8.261 7.271,-8.339 7.249,-8.414C7.159,-8.705 7.074,-8.88 6.92,-9.132C6.729,-9.445 6.515,-9.656 6.282,-9.92C6.09,-10.136 5.939,-10.203 5.732,-10.345C5.662,-10.392 5.595,-10.468 5.547,-10.488C5.443,-10.535 5.318,-10.537 5.209,-10.587C5.104,-10.632 5.008,-10.72 4.916,-10.746C4.841,-10.769 4.737,-10.748 4.638,-10.767C4.568,-10.781 4.506,-10.822 4.438,-10.832C4.37,-10.841 4.294,-10.826 4.222,-10.836C4.1,-10.849 3.984,-10.912 3.882,-10.92C3.259,-10.966 2.741,-10.943 2.146,-10.886C1.892,-10.861 1.627,-10.869 1.401,-10.82C1.311,-10.802 1.227,-10.754 1.137,-10.732C1.021,-10.707 0.897,-10.714 0.779,-10.693C0.675,-10.671 0.548,-10.615 0.437,-10.574C0.12,-10.462 -0.045,-10.394 -0.298,-10.23C-0.424,-10.146 -0.569,-10.05 -0.659,-9.972C-0.728,-9.914 -0.765,-9.826 -0.833,-9.757C-0.929,-9.668 -1.042,-9.615 -1.131,-9.531C-1.309,-9.363 -1.466,-9.144 -1.59,-8.935C-1.658,-8.82 -1.759,-8.72 -1.812,-8.613C-1.845,-8.548 -1.854,-8.449 -1.895,-8.367C-1.939,-8.273 -2.03,-8.207 -2.053,-8.136C-2.071,-8.076 -2.054,-7.986 -2.072,-7.904C-2.09,-7.83 -2.138,-7.761 -2.153,-7.689C-2.166,-7.625 -2.158,-7.548 -2.172,-7.488C-2.194,-7.388 -2.271,-7.306 -2.285,-7.226C-2.314,-7.06 -2.326,-6.853 -2.324,-6.716C-2.32,-6.281 -2.253,-5.709 -2.146,-5.349C-2.07,-5.097 -1.953,-4.935 -1.846,-4.74C-1.586,-4.265 -1.299,-3.857 -0.905,-3.546C-0.742,-3.42 -0.556,-3.339 -0.384,-3.211C-0.214,-3.226 -0.147,-3.105 0,-3.066M11.701,-11.517C11.817,-11.06 11.984,-10.623 12.126,-10.148C12.173,-9.996 12.25,-9.855 12.29,-9.711C12.427,-9.224 12.515,-8.718 12.621,-8.201C12.647,-8.076 12.703,-7.97 12.724,-7.843C12.747,-7.709 12.747,-7.564 12.764,-7.423C12.854,-6.64 13.017,-5.781 13.063,-4.939C13.121,-3.92 13.137,-2.927 13.118,-1.795C13.108,-1.185 13.122,-0.572 13.074,0.002C13.046,0.303 13.027,0.571 13.012,0.885C13.007,0.989 12.954,1.084 12.945,1.194C12.938,1.266 12.962,1.338 12.957,1.411C12.951,1.481 12.915,1.551 12.907,1.627C12.882,1.832 12.902,2.059 12.881,2.262C12.873,2.334 12.84,2.405 12.829,2.477C12.815,2.596 12.843,2.719 12.824,2.819C12.804,2.938 12.715,3.03 12.695,3.159C12.684,3.229 12.7,3.303 12.69,3.375C12.677,3.493 12.611,3.604 12.593,3.729C12.579,3.819 12.591,3.914 12.572,4.008C12.557,4.086 12.512,4.161 12.49,4.239C12.415,4.541 12.383,4.864 12.306,5.104C12.235,5.325 12.061,5.553 11.969,5.78C11.839,6.389 11.522,6.87 11.293,7.395C11.221,7.557 11.106,7.666 11.021,7.809C10.91,7.991 10.848,8.172 10.718,8.33C10.471,8.633 10.253,8.948 10.006,9.264C9.948,9.338 9.878,9.407 9.815,9.477C9.753,9.549 9.667,9.604 9.61,9.676C9.56,9.743 9.538,9.838 9.483,9.907C9.389,10.022 9.249,10.133 9.137,10.256C9.028,10.377 8.895,10.477 8.775,10.577C8.513,10.791 8.305,11.067 8.066,11.247C7.988,11.303 7.874,11.334 7.785,11.397C7.703,11.454 7.646,11.539 7.565,11.594C7.375,11.719 7.137,11.784 6.955,11.909C6.868,11.967 6.81,12.075 6.719,12.123C6.566,12.202 6.378,12.27 6.204,12.36C6.05,12.44 5.868,12.506 5.673,12.584C5.559,12.631 5.438,12.702 5.331,12.735C5.218,12.766 5.099,12.768 4.988,12.805C4.784,12.875 4.582,12.989 4.363,13.028C4.285,13.041 4.195,13.024 4.117,13.038C4.028,13.057 3.954,13.106 3.867,13.129C3.781,13.149 3.682,13.141 3.587,13.155C3.506,13.164 3.429,13.205 3.354,13.211C3.258,13.221 3.16,13.196 3.061,13.207C2.983,13.217 2.907,13.258 2.827,13.266C2.349,13.305 1.846,13.231 1.324,13.241C1.232,13.243 1.138,13.282 1.045,13.282C0.965,13.282 0.873,13.241 0.782,13.233C0.675,13.221 0.565,13.241 0.473,13.227C0.393,13.215 0.307,13.159 0.225,13.145C0.068,13.118 -0.105,13.153 -0.254,13.122C-0.336,13.104 -0.409,13.028 -0.484,13.01C-0.642,12.969 -0.807,12.971 -0.964,12.922C-1.435,12.776 -1.887,12.549 -2.334,12.342C-2.486,12.272 -2.649,12.182 -2.793,12.086C-2.942,11.987 -3.097,11.918 -3.238,11.83C-3.339,11.77 -3.422,11.663 -3.529,11.579C-3.707,11.442 -3.938,11.368 -4.017,11.137C-4.204,11.038 -4.345,10.866 -4.507,10.727C-4.56,10.678 -4.633,10.645 -4.676,10.6C-4.72,10.549 -4.722,10.469 -4.764,10.413C-4.886,10.252 -5.084,10.139 -5.19,9.985C-5.243,9.913 -5.264,9.825 -5.312,9.752C-5.375,9.655 -5.491,9.604 -5.555,9.514C-5.637,9.401 -5.723,9.213 -5.796,9.077C-5.925,8.838 -6,8.539 -6.233,8.387C-6.203,8.223 -6.345,8.137 -6.397,8.012C-6.425,7.95 -6.413,7.864 -6.442,7.795C-6.479,7.698 -6.569,7.627 -6.607,7.53C-6.669,7.368 -6.687,7.172 -6.722,6.971C-6.858,6.891 -6.829,6.76 -6.869,6.549C-6.913,6.317 -7.042,6.043 -7.073,5.77C-7.109,5.455 -7.168,5.114 -6.966,4.92C-6.894,4.852 -6.669,4.809 -6.436,4.774C-6.229,4.745 -6.018,4.684 -5.86,4.676C-5.614,4.664 -5.382,4.698 -5.118,4.657C-4.867,4.62 -4.615,4.639 -4.357,4.623C-3.861,4.594 -3.374,4.483 -2.914,4.477C-2.843,4.477 -2.769,4.498 -2.698,4.497C-2.543,4.489 -2.357,4.413 -2.202,4.442C-2.083,4.465 -1.895,4.625 -1.849,4.698C-1.764,4.825 -1.771,5.002 -1.732,5.116C-1.578,5.569 -1.292,5.975 -0.992,6.307C-0.754,6.573 -0.537,6.809 -0.245,7.016C-0.196,7.051 -0.141,7.075 -0.093,7.112C0.049,7.217 0.218,7.338 0.429,7.43C0.891,7.627 1.489,7.815 2.158,7.846C2.601,7.868 3.026,7.766 3.415,7.727C3.496,7.721 3.572,7.741 3.647,7.733C3.935,7.702 4.139,7.539 4.364,7.45C4.461,7.411 4.551,7.411 4.629,7.377C4.779,7.309 4.96,7.184 5.13,7.077C5.506,6.834 5.815,6.608 6.134,6.286C6.525,5.893 6.771,5.508 7.024,4.969C7.082,4.848 7.122,4.682 7.187,4.522C7.247,4.375 7.357,4.239 7.38,4.123C7.393,4.055 7.369,3.944 7.384,3.86C7.407,3.733 7.507,3.61 7.531,3.459C7.541,3.391 7.523,3.313 7.534,3.243C7.548,3.161 7.603,3.092 7.615,3.01C7.628,2.934 7.608,2.848 7.618,2.764C7.646,2.547 7.716,2.282 7.74,1.991C7.759,1.797 7.792,1.573 7.766,1.448C7.724,1.245 7.396,1.09 7.104,1.143C6.87,1.186 6.583,1.375 6.34,1.502C6.162,1.594 5.953,1.649 5.762,1.756C5.705,1.788 5.663,1.85 5.604,1.877C5.521,1.916 5.411,1.928 5.323,1.965C4.892,2.149 4.329,2.327 3.767,2.436C3.546,2.477 3.384,2.508 3.114,2.534C3.036,2.539 2.978,2.586 2.912,2.592C2.848,2.596 2.772,2.571 2.695,2.571C2.328,2.577 1.982,2.639 1.624,2.647C1.017,2.661 0.366,2.674 -0.202,2.569C-0.274,2.557 -0.333,2.514 -0.402,2.504C-0.491,2.493 -0.593,2.53 -0.683,2.516C-0.79,2.498 -0.891,2.405 -1.004,2.372C-1.169,2.321 -1.357,2.317 -1.529,2.27C-1.648,2.235 -1.762,2.174 -1.885,2.139C-2.236,2.039 -2.506,1.891 -2.807,1.737C-2.942,1.666 -3.088,1.584 -3.222,1.528C-3.364,1.467 -3.416,1.426 -3.544,1.336C-3.609,1.289 -3.697,1.28 -3.76,1.241C-3.821,1.2 -3.861,1.11 -3.927,1.067C-4.049,0.985 -4.193,0.93 -4.311,0.829C-4.607,0.571 -5.032,0.243 -5.272,-0.041C-5.452,-0.253 -5.557,-0.492 -5.803,-0.67C-5.788,-0.783 -5.899,-0.812 -5.955,-0.888C-6.006,-0.959 -6.022,-1.052 -6.074,-1.123C-6.174,-1.259 -6.29,-1.388 -6.361,-1.546C-6.39,-1.607 -6.39,-1.687 -6.421,-1.748C-6.455,-1.814 -6.538,-1.855 -6.573,-1.921C-6.625,-2.019 -6.648,-2.144 -6.706,-2.248C-6.829,-2.474 -6.914,-2.654 -6.988,-2.966C-7.007,-3.041 -7.007,-3.129 -7.031,-3.201C-7.054,-3.265 -7.102,-3.32 -7.121,-3.386C-7.168,-3.548 -7.155,-3.724 -7.191,-3.884C-7.217,-4.011 -7.301,-4.121 -7.324,-4.244C-7.346,-4.351 -7.332,-4.482 -7.35,-4.599C-7.367,-4.722 -7.425,-4.837 -7.437,-4.957C-7.45,-5.099 -7.416,-5.254 -7.428,-5.406C-7.435,-5.488 -7.468,-5.578 -7.471,-5.656C-7.474,-5.748 -7.438,-5.845 -7.436,-5.931C-7.432,-6.056 -7.475,-6.171 -7.475,-6.291C-7.478,-6.539 -7.415,-6.775 -7.402,-7.017C-7.396,-7.127 -7.417,-7.23 -7.412,-7.326C-7.403,-7.494 -7.335,-7.615 -7.296,-7.791C-7.265,-7.929 -7.258,-8.066 -7.227,-8.207C-7.198,-8.33 -7.142,-8.451 -7.112,-8.578C-7.095,-8.652 -7.111,-8.734 -7.093,-8.81C-7.066,-8.92 -6.993,-9.035 -6.964,-9.148C-6.939,-9.24 -6.954,-9.345 -6.928,-9.425C-6.906,-9.492 -6.838,-9.527 -6.8,-9.595C-6.702,-9.775 -6.666,-10.037 -6.588,-10.228C-6.548,-10.324 -6.463,-10.414 -6.414,-10.517C-6.34,-10.673 -6.283,-10.791 -6.204,-10.933C-6.168,-10.998 -6.159,-11.084 -6.125,-11.148C-6.065,-11.257 -5.96,-11.353 -5.886,-11.455C-5.805,-11.566 -5.775,-11.699 -5.71,-11.808C-5.667,-11.88 -5.589,-11.939 -5.536,-12.021C-5.483,-12.105 -5.433,-12.175 -5.377,-12.252C-5.27,-12.396 -5.134,-12.523 -5.028,-12.664C-4.909,-12.824 -4.831,-13 -4.682,-13.138C-4.4,-13.396 -4.134,-13.668 -3.814,-13.916C-3.657,-14.039 -3.524,-14.207 -3.391,-14.295C-3.328,-14.336 -3.242,-14.345 -3.173,-14.384C-3.114,-14.42 -3.059,-14.48 -3.001,-14.521C-2.639,-14.759 -2.217,-14.947 -1.782,-15.121C-1.569,-15.205 -1.364,-15.308 -1.141,-15.404C-1.069,-15.433 -1,-15.449 -0.923,-15.476C-0.627,-15.582 -0.346,-15.726 -0.051,-15.82C0.194,-15.896 0.485,-15.929 0.76,-16.023C1.028,-16.113 1.332,-16.177 1.584,-16.195C1.68,-16.201 1.77,-16.181 1.863,-16.189C1.988,-16.201 2.104,-16.255 2.235,-16.261C2.379,-16.269 2.531,-16.244 2.685,-16.254C2.803,-16.261 2.923,-16.314 3.043,-16.326C3.553,-16.371 4.105,-16.306 4.608,-16.298C4.99,-16.293 5.411,-16.189 5.734,-16.125C5.821,-16.107 5.915,-16.119 5.998,-16.105C6.284,-16.052 6.571,-15.962 6.832,-15.875C7.098,-15.785 7.35,-15.683 7.602,-15.582C7.85,-15.484 8.061,-15.324 8.292,-15.214C8.433,-15.148 8.514,-15.111 8.629,-15.023C8.83,-14.873 9.054,-14.763 9.258,-14.593C9.541,-14.361 9.861,-14.13 10.098,-13.851C10.257,-13.66 10.431,-13.476 10.583,-13.285C10.738,-13.095 10.867,-12.886 11.023,-12.689C11.076,-12.625 11.192,-12.576 11.236,-12.5C11.28,-12.427 11.296,-12.322 11.341,-12.236C11.462,-12 11.543,-11.734 11.701,-11.517" style="fill:white;"/>
    </g>
    <g transform="matrix(0.564444,0,0,0.564445,250.911,219.945)">
        <path d="M0,-31.078C0.195,-30.949 0.334,-30.846 0.409,-30.623C0.449,-30.504 0.433,-30.308 0.448,-30.14C0.516,-29.43 0.439,-28.66 0.428,-27.955C0.421,-27.533 0.423,-27.076 0.436,-26.654C0.449,-26.24 0.43,-25.76 0.322,-25.418C0.214,-25.064 0.048,-24.734 -0.066,-24.4C-0.25,-23.867 -0.413,-23.344 -0.604,-22.828C-0.669,-22.654 -0.708,-22.471 -0.768,-22.291C-0.879,-21.957 -1.037,-21.64 -1.156,-21.289C-1.233,-21.06 -1.339,-20.832 -1.416,-20.596C-1.497,-20.353 -1.554,-20.103 -1.646,-19.873C-1.781,-19.531 -1.891,-19.213 -2.02,-18.824C-2.058,-18.709 -2.129,-18.611 -2.163,-18.502C-2.194,-18.406 -2.197,-18.293 -2.231,-18.191C-2.34,-17.875 -2.51,-17.562 -2.633,-17.24C-2.698,-17.076 -2.721,-16.883 -2.783,-16.715C-2.842,-16.553 -2.942,-16.408 -2.991,-16.254C-3.055,-16.049 -3.078,-15.853 -3.156,-15.652C-3.23,-15.463 -3.263,-15.269 -3.336,-15.082C-3.416,-14.879 -3.531,-14.697 -3.594,-14.498C-3.661,-14.285 -3.707,-14.066 -3.776,-13.849C-3.804,-13.762 -3.866,-13.693 -3.902,-13.603C-3.944,-13.506 -3.937,-13.39 -3.971,-13.295C-4.008,-13.189 -4.077,-13.096 -4.114,-12.988C-4.153,-12.879 -4.189,-12.769 -4.229,-12.664C-4.315,-12.433 -4.335,-12.193 -4.411,-11.953C-4.514,-11.633 -4.707,-11.33 -4.814,-11.015C-4.853,-10.904 -4.857,-10.777 -4.896,-10.662C-4.981,-10.414 -5.115,-10.088 -5.222,-9.83C-5.306,-9.625 -5.319,-9.404 -5.387,-9.197C-5.419,-9.103 -5.497,-9.025 -5.531,-8.935C-5.566,-8.844 -5.564,-8.736 -5.597,-8.642C-5.635,-8.539 -5.746,-8.447 -5.773,-8.336C-5.83,-8.096 -5.888,-7.885 -5.971,-7.658C-6.049,-7.447 -6.181,-7.246 -6.182,-7.01C-6.475,-6.498 -6.606,-5.775 -6.818,-5.16C-6.861,-5.039 -6.942,-4.933 -6.994,-4.808C-7.104,-4.545 -7.186,-4.26 -7.287,-4.008C-7.325,-3.914 -7.32,-3.808 -7.353,-3.715C-7.386,-3.625 -7.469,-3.557 -7.498,-3.469C-7.526,-3.377 -7.518,-3.269 -7.549,-3.176C-7.61,-2.982 -7.748,-2.814 -7.806,-2.621C-7.849,-2.48 -7.849,-2.324 -7.891,-2.189C-7.973,-1.924 -8.118,-1.691 -8.183,-1.42C-8.252,-1.121 -8.265,-0.853 -8.519,-0.713C-8.554,-0.373 -8.854,-0.394 -9.208,-0.307C-9.438,-0.248 -9.658,-0.254 -9.876,-0.238C-10,-0.23 -10.208,-0.162 -10.326,-0.152C-10.578,-0.139 -10.83,-0.17 -11.07,-0.137C-11.186,-0.119 -11.299,-0.053 -11.412,-0.049C-11.53,-0.041 -11.653,-0.074 -11.769,-0.07C-12.411,-0.037 -13.061,0.063 -13.677,0.07C-14.214,-0.082 -13.873,-0.842 -13.764,-1.234C-13.734,-1.336 -13.734,-1.433 -13.712,-1.512C-13.672,-1.652 -13.562,-1.709 -13.536,-1.818C-13.517,-1.898 -13.55,-2.039 -13.53,-2.144C-13.503,-2.297 -13.404,-2.457 -13.336,-2.605C-13.273,-2.748 -13.156,-2.894 -13.113,-3.035C-13.087,-3.123 -13.101,-3.228 -13.078,-3.312C-13.028,-3.512 -12.954,-3.713 -12.897,-3.916C-12.844,-4.105 -12.766,-4.31 -12.688,-4.484C-12.644,-4.582 -12.566,-4.674 -12.526,-4.777C-12.497,-4.853 -12.499,-4.941 -12.477,-5.023C-12.408,-5.26 -12.283,-5.515 -12.2,-5.764C-12.172,-5.846 -12.121,-5.922 -12.104,-5.992C-12.068,-6.131 -12.076,-6.26 -12.035,-6.381C-12,-6.478 -11.912,-6.551 -11.875,-6.656C-11.843,-6.746 -11.855,-6.859 -11.824,-6.949C-11.779,-7.074 -11.676,-7.166 -11.633,-7.287C-11.575,-7.447 -11.555,-7.619 -11.5,-7.781C-11.475,-7.855 -11.43,-7.922 -11.403,-7.996C-11.371,-8.082 -11.381,-8.176 -11.353,-8.26C-11.321,-8.351 -11.229,-8.428 -11.192,-8.519C-11.162,-8.599 -11.157,-8.691 -11.127,-8.781C-11.007,-9.139 -10.839,-9.549 -10.704,-9.937C-10.647,-10.099 -10.614,-10.271 -10.558,-10.414C-10.521,-10.508 -10.426,-10.582 -10.397,-10.674C-10.364,-10.789 -10.394,-10.916 -10.361,-11.031C-10.337,-11.117 -10.259,-11.201 -10.218,-11.293C-10.102,-11.549 -9.973,-11.881 -9.893,-12.17C-9.848,-12.336 -9.846,-12.51 -9.791,-12.664C-9.74,-12.81 -9.618,-12.933 -9.567,-13.078C-9.513,-13.236 -9.502,-13.412 -9.452,-13.572C-9.357,-13.865 -9.222,-14.139 -9.125,-14.449C-9.082,-14.596 -8.992,-14.724 -8.949,-14.865C-8.907,-15 -8.912,-15.17 -8.864,-15.283C-8.771,-15.5 -8.629,-15.724 -8.56,-15.959C-8.521,-16.094 -8.513,-16.232 -8.476,-16.361C-8.417,-16.557 -8.308,-16.734 -8.248,-16.93C-8.187,-17.131 -8.093,-17.291 -8.022,-17.484C-7.986,-17.582 -7.979,-17.691 -7.938,-17.793C-7.902,-17.887 -7.856,-17.973 -7.827,-18.07C-7.762,-18.267 -7.711,-18.474 -7.645,-18.672C-7.554,-18.951 -7.394,-19.199 -7.307,-19.471C-7.252,-19.644 -7.231,-19.83 -7.159,-19.994C-7.089,-20.156 -7.011,-20.289 -6.966,-20.457C-6.94,-20.555 -6.929,-20.668 -6.897,-20.765C-6.861,-20.883 -6.767,-20.982 -6.722,-21.103C-6.674,-21.234 -6.645,-21.373 -6.591,-21.504C-6.463,-21.824 -6.343,-22.189 -6.202,-22.566C-6.116,-22.799 -6.005,-23.035 -5.943,-23.244C-5.91,-23.355 -5.914,-23.48 -5.875,-23.584C-5.837,-23.683 -5.754,-23.769 -5.715,-23.877C-5.678,-23.978 -5.667,-24.109 -5.631,-24.23C-5.558,-24.482 -5.461,-24.666 -5.603,-24.943C-5.775,-25.273 -6.352,-25.16 -6.793,-25.135C-7.272,-25.105 -7.688,-25.103 -8.189,-25.064C-8.29,-25.055 -8.387,-25.012 -8.485,-25.008C-8.598,-25.002 -8.715,-25.031 -8.826,-25.027C-9.165,-25.015 -9.506,-24.939 -9.85,-24.922C-9.97,-24.914 -10.09,-24.947 -10.206,-24.941C-10.299,-24.937 -10.392,-24.879 -10.486,-24.869C-10.607,-24.855 -10.734,-24.875 -10.858,-24.861C-10.964,-24.849 -11.075,-24.812 -11.169,-24.805C-11.293,-24.793 -11.415,-24.826 -11.54,-24.826C-11.775,-24.826 -12.021,-24.75 -12.271,-24.73C-12.524,-24.709 -12.768,-24.713 -13.015,-24.68C-13.382,-24.629 -13.773,-24.635 -14.146,-24.605C-14.275,-24.596 -14.397,-24.633 -14.518,-24.627C-14.603,-24.623 -14.683,-24.574 -14.768,-24.57C-14.854,-24.564 -14.943,-24.592 -15.031,-24.59C-15.12,-24.586 -15.202,-24.553 -15.294,-24.547C-15.524,-24.531 -15.749,-24.541 -15.993,-24.512C-16.213,-24.488 -16.434,-24.504 -16.659,-24.494C-16.845,-24.482 -17.031,-24.418 -17.218,-24.408C-17.426,-24.396 -17.631,-24.43 -17.838,-24.42C-18.034,-24.41 -18.242,-24.344 -18.459,-24.336C-19.104,-24.314 -19.796,-24.213 -20.397,-24.246C-20.641,-24.258 -20.863,-24.24 -21.016,-24.379C-21.103,-24.461 -21.214,-24.719 -21.238,-24.926C-21.282,-25.297 -21.226,-25.758 -21.233,-26.119C-21.237,-26.228 -21.286,-26.357 -21.29,-26.461C-21.295,-26.59 -21.26,-26.736 -21.252,-26.879C-21.237,-27.164 -21.241,-27.455 -21.238,-27.715C-21.237,-27.861 -21.274,-27.982 -21.277,-28.103C-21.28,-28.213 -21.241,-28.367 -21.24,-28.504C-21.238,-28.648 -21.276,-28.797 -21.265,-28.892C-21.256,-28.971 -21.199,-29.051 -21.152,-29.154C-21.055,-29.371 -20.98,-29.594 -20.771,-29.689C-20.569,-29.785 -20.282,-29.803 -20.04,-29.832C-19.779,-29.867 -19.518,-29.828 -19.235,-29.851C-19.063,-29.863 -18.898,-29.908 -18.721,-29.92C-18.545,-29.933 -18.357,-29.937 -18.18,-29.957C-17.817,-29.996 -17.466,-29.996 -17.094,-30.015C-16.742,-30.035 -16.398,-30.119 -16.039,-30.121C-15.312,-30.127 -14.596,-30.219 -13.852,-30.24C-13.134,-30.262 -12.414,-30.307 -11.681,-30.359C-11.5,-30.373 -11.317,-30.379 -11.138,-30.396C-10.958,-30.416 -10.791,-30.398 -10.61,-30.402C-10.289,-30.414 -9.934,-30.474 -9.557,-30.496C-9.369,-30.504 -9.187,-30.545 -8.996,-30.547C-8.892,-30.549 -8.784,-30.533 -8.687,-30.543C-8.603,-30.551 -8.522,-30.594 -8.438,-30.599C-8.205,-30.613 -7.969,-30.596 -7.74,-30.603C-7.633,-30.607 -7.534,-30.65 -7.43,-30.66C-7.236,-30.678 -7.041,-30.654 -6.841,-30.666C-6.668,-30.676 -6.488,-30.709 -6.313,-30.719C-5.189,-30.789 -4.098,-30.867 -3.009,-30.943C-2.643,-30.969 -2.266,-30.935 -1.894,-30.971C-1.794,-30.978 -1.704,-31.029 -1.599,-31.043C-1.227,-31.098 -0.823,-31.041 -0.48,-31.117C-0.339,-31.148 -0.225,-31.057 0,-31.078" style="fill:white;"/>
    </g>
    <defs>
        <linearGradient id="_Linear1" x1="0" y1="0" x2="1" y2="0" gradientUnits="userSpaceOnUse" gradientTransform="matrix(2.88675e-14,-471.442,471.442,2.88675e-14,-138.377,117.987)"><stop offset="0" style="stop-color:rgb(0,34,83);stop-opacity:1"/><stop offset="1" style="stop-color:rgb(0,94,173);stop-opacity:1"/></linearGradient>
    </defs>
</svg>
