<?xml version="1.0" encoding="UTF-8" standalone="no"?>
<!DOCTYPE svg PUBLIC "-//W3C//DTD SVG 1.1//EN" "http://www.w3.org/Graphics/SVG/1.1/DTD/svg11.dtd">
<svg width="100%" height="100%" viewBox="0 0 134 343" version="1.1" xmlns="http://www.w3.org/2000/svg" xmlns:xlink="http://www.w3.org/1999/xlink" xml:space="preserve" xmlns:serif="http://www.serif.com/" style="fill-rule:evenodd;clip-rule:evenodd;stroke-linejoin:round;stroke-miterlimit:2;">
    <g transform="matrix(1,0,0,1,-259.965,-28.86)">
        <path d="M387.992,34.617C387.77,34.259 388.102,36.194 388.34,36.537C389.235,37.835 391.354,37.837 391.564,39.916C391.542,40.143 391.388,40.02 391.222,39.898C391.047,39.768 390.859,39.639 390.797,39.916C391.83,42.328 393.818,45.197 392.945,48.515C392.626,48.515 392.306,47.269 392.179,48.055C392.141,49.62 391.903,50.915 391.564,52.354C391.28,53.563 390.551,54.92 390.49,56.039C390.444,56.858 391.196,57.8 391.105,58.651C391.027,59.363 389.982,60.474 389.568,61.568C388.678,63.92 388.444,65.799 386.342,66.79C385.308,72.613 381.938,76.101 377.438,78.46C377.086,79.692 376.846,80.712 376.209,81.838C375.295,83.449 373.307,84.752 372.984,86.291C372.71,87.593 373.12,92.795 373.599,93.969C374.031,95.035 375.359,95.738 375.901,96.732C376.919,98.605 377.907,101.123 378.205,103.797C378.32,104.84 378.139,105.897 378.205,106.868C378.403,109.848 378.851,112.89 378.82,115.62C378.788,118.082 378.101,120.684 377.59,123.146C377.084,125.579 375.974,128.267 376.055,130.362C376.077,130.949 376.619,132.091 376.67,133.28C376.782,135.82 376.592,136.58 378.051,138.04C378.372,138.36 378.778,139.033 378.972,139.115C379.314,139.26 379.681,139.228 380.03,139.196C380.372,139.166 380.699,139.135 380.969,139.269C381.889,139.726 382.333,141.28 382.966,141.573C383.463,141.628 384.042,141.599 384.622,141.572C385.763,141.516 386.904,141.46 387.419,142.033C388.034,144.3 385.566,144.256 385.576,145.411L387.419,145.411C387.492,144.101 387.982,143.764 388.8,143.722C390.39,143.638 390.1,145.268 390.949,146.026C390.401,147.932 391.18,149.823 390.797,151.707C390.629,152.538 389.61,153.157 389.415,154.01C389.214,154.876 389.522,155.901 389.415,156.774C389.063,159.61 388.477,162.551 388.491,165.833C388.728,166.214 389.753,165.802 389.722,166.448C389.719,168.339 389.83,170.344 389.107,171.515C388.736,171.705 388.157,171.686 387.578,171.666C386.992,171.646 386.407,171.627 386.037,171.823C385.893,173.062 385.625,174.176 384.961,174.894C384.637,175.225 384.372,175.048 384.139,174.87C383.934,174.715 383.753,174.56 383.578,174.74C383.093,176.522 381.576,177.507 380.048,177.812C381.705,184.465 383.457,191.916 384.502,199.771C385.541,207.595 387.068,215.727 386.037,223.88C385.025,231.864 383.062,238.316 379.279,243.381C375.497,248.446 370.89,252.061 364.692,255.052C363.082,265.394 362.643,276.218 357.934,284.227C356.565,286.557 354.572,289.84 354.404,292.521C354.273,294.593 355.057,297.248 354.864,299.737C354.795,300.64 354.428,301.561 354.404,302.348C354.364,303.653 354.783,305.03 354.864,306.494C355.107,310.874 354.042,316.133 354.556,319.546C354.936,322.049 357.007,324.572 358.089,327.377C359.781,331.772 361.506,337.892 359.317,342.887C359.073,343.204 358.381,343.076 358.089,343.347C360.526,343.881 360.37,347.004 363.001,347.341C363.073,349.543 365.673,349.553 366.688,350.873C367.16,351.487 366.799,352.21 367.609,352.715C371.763,355.662 380.829,352.501 380.663,359.931C382.643,359.977 382.53,362.659 382.197,364.54C376.015,367.203 367.709,369.65 358.702,370.683C355.991,370.991 351.707,371.608 349.643,370.527C348.117,369.729 347.156,367.592 345.036,367.149C343.098,367.562 340.873,368.671 338.433,368.838C335.944,369.007 332.286,368.656 331.523,366.996C330.874,365.58 330.696,361.886 331.064,359.931C331.197,359.21 331.636,358.92 331.676,358.244C331.719,357.544 331.344,357.041 331.523,356.245C328.299,355.644 323.09,354.874 319.7,355.938C319.138,356.798 319.938,358.653 319.086,359.471C317.184,359.736 314.663,360.106 312.175,360.239C309.75,360.367 306.749,360.912 305.111,360.085C304.507,359.781 304.355,359.03 303.729,358.395C302.988,357.646 302.457,357.632 302.193,356.86C301.63,355.215 301.986,352.658 302.807,350.873C301.979,347.881 303.443,345.204 303.268,342.58C303.096,339.998 303.733,336.857 304.65,334.286C305.431,332.104 306.931,330.06 307.26,328.147C307.476,326.897 307.102,325.655 307.26,324.307C307.47,322.523 308.321,320.756 308.644,318.932C309.644,313.27 311.552,308.764 314.784,304.958C315.157,303.166 315.036,301.945 315.707,300.351C316.321,298.889 318.009,298.165 318.317,297.125C318.535,296.387 318.23,295.368 318.317,294.363C318.457,292.756 318.92,291.303 318.778,289.909C318.472,286.909 317.002,283.813 316.168,280.542C313.872,271.544 311.873,260.291 310.025,251.059C300.048,253.019 293.992,248.402 293.44,239.541C292.981,232.149 295.218,222.486 296.818,217.122C292.324,214.183 297.275,203.135 295.283,198.542C294.968,197.816 294.407,197.766 294.209,197.008C294.518,193.863 293.484,191.333 292.979,188.253C291.885,181.572 291.94,174.314 291.138,167.37C289.5,168.19 287.797,168.944 286.223,169.827C284.554,174.071 279.422,170.678 276.396,169.213C274.266,168.182 272.108,167.404 271.02,166.296C271.009,165.618 271.911,165.852 271.635,164.913C270.272,163.921 269.439,162.4 268.718,160.767C265.828,159.797 263.424,157.944 260.426,157.542C260.059,157.19 260.263,156.271 259.965,155.854L259.965,155.085C260.487,151.665 261.917,148.12 263.65,146.332C264.161,145.807 265.244,145.492 265.647,144.643C266.286,143.291 266.017,141.539 266.721,139.883C265.805,139.366 265.657,138.081 265.8,136.504C264.571,135.597 263.011,135.665 262.267,134.048C261.206,131.736 262.823,127.487 264.725,127.137C265.883,126.925 267.124,127.664 268.41,127.905C269.698,126.804 270.9,125.369 273.017,126.677C275.042,124.043 277.147,121.491 279.621,119.306C279.296,118.3 278.954,117.311 277.931,117.002C278.16,116.515 278.499,116.137 278.546,115.467C277.511,111.795 275.467,107.836 275.781,103.028C275.972,100.111 277.028,96.612 277.778,93.201C278.895,88.118 279.103,83.501 281.309,79.996C282.622,77.911 283.742,75.645 286.07,74.774C286.972,74.996 287.568,75.529 288.527,75.695C290.572,73.611 289.307,69.077 290.37,65.867C291.442,62.626 293.801,60.987 294.976,58.037C291.388,56.949 286.309,55.945 287.759,50.819C286.299,51.989 285.716,54.315 284.842,56.193C282.687,60.815 280.41,65.581 278.238,70.321C277.875,71.112 277.603,72.803 276.242,72.47C276.464,70.47 277.556,68.572 278.393,66.79C280.879,61.485 283.566,55.861 286.07,50.359C285.41,49.842 284.424,49.65 284.072,48.824C285.912,45.288 287.637,41.636 289.294,37.919C290.86,38.619 290.658,36.625 291.752,36.384C292.81,36.912 293.884,37.427 294.362,38.534C297.223,40.186 300.172,38.99 303.268,37.919C304.719,37.418 307.488,36.497 307.721,38.534C307.957,40.594 304.564,42.407 304.19,44.216C305.454,44.488 306.274,45.205 307.569,45.444C307.747,45.618 307.808,45.312 307.923,45.004C308.028,44.73 308.175,44.455 308.49,44.523C309.195,44.599 309.999,45.337 310.639,45.291C311.317,45.242 311.273,44.62 312.02,44.677C313.645,45.305 315.259,45.942 316.627,46.827C317.045,47.231 315.985,47.732 316.474,48.209C317.57,48.651 318.272,49.398 318.472,50.359C320.821,51.76 324.49,52.486 327.223,54.044C328.157,54.575 328.927,55.609 329.988,56.193C331.804,57.196 334.128,57.476 335.977,58.497C338.238,59.748 340.688,62.149 342.58,64.025C344.085,65.518 344.184,66.434 343.502,68.939C344.455,70.661 348.12,73.723 349.029,70.169C350.786,68.853 351.822,66.82 354.556,66.482C355.297,66.971 355.463,68.034 356.707,68.017C357.412,68.318 357.844,69.6 358.549,69.4C359.353,67.269 360.364,65.525 359.317,62.95C358.893,61.906 358.094,60.891 357.627,59.726C356.965,58.065 356.232,55.978 356.555,53.889C356.642,53.312 356.978,52.891 357.013,52.354C357.11,50.916 356.371,49.463 357.322,47.901C357.305,47.201 356.302,47.486 356.555,46.52C357.434,43.613 359.074,41.464 360.854,39.456C360.748,37.572 361.275,35.826 362.388,34.695C363.057,34.016 364.14,34.077 364.999,33.62C365.758,33.215 366.479,32.508 366.688,31.931C366.91,31.044 365.741,31.547 365.46,31.164C366.313,30.408 367.303,30.749 368.282,31.091C368.837,31.286 369.39,31.479 369.913,31.471C371.501,31.447 373.726,29.949 376.055,29.78C377.073,29.709 378.093,29.754 379.071,29.799C381.209,29.898 383.157,29.998 384.502,28.86C384.196,29.22 384.146,29.836 384.193,30.549C385.976,30.664 385.923,31.741 386.804,33.159C387.126,33.676 387.759,34.212 387.992,34.617ZM363.311,246.452C363.464,248.179 364.375,249.84 364.537,251.519C376.421,245.397 383.488,234.636 382.658,216.354C382.014,202.164 379.173,188.547 375.748,177.351C375.54,177.333 375.304,177.343 375.067,177.353C374.608,177.373 374.148,177.391 373.905,177.197C374.257,175.516 372.179,176.263 372.675,174.434C371.178,174.449 370.536,173.603 369.913,172.744C369.206,174.756 366.374,172.909 364.844,172.899C364.856,168.405 364.684,163.728 365.305,159.845C365.103,159.18 364.371,159.039 364.537,158.003C362.574,157.614 361.305,156.526 360.7,154.778C358.852,154.783 357.581,154.212 355.938,154.01C354.858,155.541 352.985,156.277 351.024,156.928C353.279,160.048 353.512,165.191 354.556,169.52C354.329,169.751 354.309,170.194 354.249,170.595C356.17,175.738 355.878,183.094 356.092,189.943C355.205,190.898 353.026,190.562 351.794,191.171C353.895,194.034 354.61,197.901 355.324,201.767C356.042,205.652 357.511,209.558 357.782,213.591C358.222,220.148 359.398,226.805 361.161,232.784C361.395,233.589 361.867,234.314 362.081,235.088C362.775,237.588 363.28,240.359 363.462,242.922C363.555,244.215 363.206,245.293 363.311,246.452ZM288.989,51.28C287.828,56.004 292.844,55.793 295.59,57.115C296.031,56.43 296.548,55.821 296.972,55.119C294.526,53.623 291.926,52.282 288.989,51.28ZM299.122,57.422C299.941,57.882 300.475,58.628 301.271,59.111C301.577,58.496 301.887,57.883 302.193,57.268C301.265,57.021 300.646,56.462 299.583,56.347C299.543,56.82 299.25,57.037 299.122,57.422ZM305.878,38.841C302.592,39.498 299.752,41.344 296.051,40.683C298.302,41.504 300.361,42.517 302.502,43.448C303.5,41.882 305.507,40.527 305.878,38.841ZM296.358,59.111C295.236,59.939 294.666,61.383 293.901,62.643C292.536,64.889 290.756,66.922 291.138,70.321C292.811,66.618 295.1,62.719 296.358,59.111ZM301.578,209.291C302.539,211.557 303.154,214.166 304.19,216.354C303.9,212.19 303.907,207.733 302.502,204.683C302.216,206.241 301.907,207.775 301.578,209.291ZM300.966,247.681C302.237,248.263 303.691,248.453 305.241,248.453C306.626,248.453 308.088,248.301 309.563,248.143C308.451,243.416 307.433,238.985 306.646,234.32C306.384,232.762 306.366,230.859 305.878,229.409C305.565,228.471 304.745,227.399 304.19,226.337C302.611,223.314 301.122,218.868 299.89,216.048C298.22,224.442 291.809,243.481 300.966,247.681ZM296.512,184.876C296.515,184.939 296.545,184.97 296.578,184.97C296.631,184.97 296.691,184.89 296.666,184.722C297.078,178.225 297.352,171.589 298.047,165.373C298.798,164.692 299.756,164.215 300.811,163.838L300.811,161.534C299.108,161.753 298.725,160.652 297.586,160.307C297.151,161.724 294.982,162.375 294.669,163.992C294.439,165.179 294.969,167.418 295.13,169.213C295.593,174.401 296.271,180.179 296.512,184.876Z" style="fill:url(#_Linear1);"/>
    </g>
    <g transform="matrix(1,0,0,1,-259.965,-28.86)">
        <path d="M332.368,98.872C333.164,98.556 333.751,97.92 334.107,96.93C335.748,97.026 336.783,97.904 337.661,98.647C333.585,100.209 329.438,101.665 325.351,103.212C325.26,102.938 325.219,102.631 325.174,102.328C325.271,102.333 325.42,102.422 325.454,102.332C325.316,102.119 325.012,102.178 324.839,102.172C323.355,102.126 322.486,103.144 321.047,103.167C321.094,102.99 321.182,102.875 321.273,102.765C320.463,102.895 321.224,103.907 320.773,104.322C320.235,104.209 319.985,103.647 319.753,103.286C319.529,102.94 319.348,102.619 318.98,102.416C318.914,102.424 319.04,102.566 318.938,102.606C318.201,102.316 317.937,101.72 317.251,101.399C317.117,101.402 317.299,101.524 317.183,101.582C316.826,101.554 316.303,101.911 316.07,101.514C316.244,100.981 316.79,101.023 316.985,100.525C317.189,100.633 317.312,100.794 317.461,100.937C317.489,100.575 316.985,100.205 316.603,100.076C316.201,99.943 315.73,100.031 315.476,99.808C315.728,99.267 316.475,99.176 316.969,98.886C317.189,98.968 317.147,99.219 317.326,99.329C317.312,98.768 316.995,98.342 316.482,97.992C316.28,97.854 315.842,97.699 315.889,97.471C315.928,97.283 316.244,97.271 316.459,97.31C317.47,97.496 318.158,98.273 318.835,98.86C319.179,99.159 319.518,99.476 319.863,99.729C320.239,100.004 320.671,100.303 321.176,100.319C321.076,100.221 320.952,100.137 320.804,100.07C321.605,99.433 322.608,99.129 323.426,98.486C324.06,97.991 324.539,97.224 325.419,97.079C325.644,97.289 325.742,97.582 325.94,97.81C325.817,96.811 324.878,96.059 325.265,94.762C325.587,93.68 326.548,93.153 327.327,92.494C328.294,91.678 328.678,90.312 329.671,89.837C330.347,89.513 331.293,89.556 332.215,89.674C332.102,89.553 331.844,89.527 331.703,89.424C332.113,89.173 332.934,88.865 333.561,88.917C334.812,89.024 334.089,90.394 335.214,90.681C335.281,90.641 335.063,90.499 335.185,90.421C335.432,90.492 335.532,90.335 335.781,90.406C335.936,91.515 334.149,90.628 333.785,91.305C333.667,91.119 333.58,90.912 333.392,90.771C333.559,91.201 333.803,91.757 333.701,92.359C333.641,92.714 333.446,93.061 333.4,93.508C333.294,94.525 334.052,95.413 333.919,96.495C333.79,97.537 333.129,98.22 332.407,98.823C332.407,98.847 332.391,98.846 332.374,98.844C332.372,98.853 332.37,98.862 332.368,98.872ZM328.561,97.946C328.529,98.562 329.74,98.671 329.669,98.041C329.388,98.25 328.853,98.238 328.561,97.946ZM330.001,94.503C329.856,94.48 329.808,94.316 329.641,94.342C329.549,94.768 330.431,95.07 330.478,94.38C330.279,94.355 330.19,94.535 330.001,94.503ZM329.994,91.626C329.472,91.344 329.198,92.404 329.577,92.524C329.96,92.645 329.86,92.047 329.953,91.815C330.089,91.834 329.983,92.013 330.102,92.044C330.146,91.81 330.095,91.68 329.994,91.626ZM329.584,91.171C329.824,91.028 330.004,90.793 330.233,90.634C329.9,90.512 329.341,90.956 329.584,91.171ZM331.77,91.102C332.019,91.289 332.07,91.603 332.395,91.742C332.39,91.432 332.097,90.763 331.77,91.102ZM331.799,92.152C331.396,91.951 331.108,92.584 331.187,93.037C331.625,93.334 331.608,92.637 331.796,92.433C331.905,92.477 331.761,92.687 331.905,92.71C331.995,92.52 331.94,92.222 331.799,92.152ZM329.329,97.124C329.867,97.164 330.134,95.735 329.389,95.783C328.839,95.817 328.701,97.077 329.329,97.124ZM342.402,104.706C342.421,104.591 342.27,104.379 342.404,104.17C342.596,104.182 342.706,104.345 342.908,104.447C343.403,104.693 344.101,104.879 344.501,105.182C344.6,105.257 344.967,105.613 344.898,105.83C344.832,106.043 344.445,106.058 344.263,106.033C343.564,105.942 342.572,105.172 342.07,105.734C342.291,105.873 342.259,106.118 342.399,106.311C342.617,106.618 343.111,106.828 342.963,107.363C341.897,107.514 341.599,106.155 340.668,105.83C339.898,105.562 339.369,106.118 338.556,105.69C338.673,105.573 338.947,105.693 339.06,105.571C338.967,105.317 338.647,105.406 338.499,105.424C337.813,105.509 337.277,105.948 336.333,105.667C336.219,105.529 336.092,105.45 336.11,105.253C336.179,104.511 337.285,104.341 337.338,103.597C337.161,103.554 337.202,103.841 337.059,103.849C336.717,103.72 336.66,103.118 336.287,103.233C336.26,103.531 336.657,103.751 336.831,103.996C336.755,104.204 336.52,104.324 336.33,104.482C335.89,104.852 335.507,105.779 336.405,105.992C337.059,106.149 337.547,105.796 338.122,105.737C338.348,105.886 338.653,105.982 339.016,106.042C338.315,107.912 337.03,109.155 335.541,110.038C334.072,110.909 332.303,111.359 330.12,110.996C328.107,110.661 326.663,109.662 325.619,108.57C326.379,108.094 327.313,107.885 327.834,107.04C328.65,107.559 329.658,108.388 330.925,108.546C331.042,108.56 331.188,108.574 331.298,108.513C331.154,108.355 330.893,108.357 330.696,108.299C329.391,107.92 328.459,107.119 327.598,106.426C329.577,105.662 331.584,104.907 333.604,104.182C335.611,103.463 337.595,102.654 339.591,102.02C339.61,102.264 339.385,102.131 339.34,102.275C339.614,102.542 340.261,102.215 340.62,102.492C340.423,102.548 340.184,102.539 339.979,102.582C340.782,102.808 341.437,102.484 342.104,102.273C342.743,102.072 343.488,101.766 344.171,101.84C344.443,101.87 344.646,101.966 344.642,102.139C344.633,102.503 343.718,102.778 343.426,102.95C343.023,103.188 342.517,103.568 342.315,103.925C342.169,104.182 342.07,104.561 342.402,104.706Z" style="fill:white;"/>
    </g>
    <defs>
        <linearGradient id="_Linear1" x1="0" y1="0" x2="1" y2="0" gradientUnits="userSpaceOnUse" gradientTransform="matrix(2.09585e-14,-342.279,342.279,2.09585e-14,373.628,371.14)"><stop offset="0" style="stop-color:rgb(0,34,83);stop-opacity:1"/><stop offset="1" style="stop-color:rgb(0,94,173);stop-opacity:1"/></linearGradient>
    </defs>
</svg>
