<?xml version="1.0" encoding="UTF-8" standalone="no"?>
<!DOCTYPE svg PUBLIC "-//W3C//DTD SVG 1.1//EN" "http://www.w3.org/Graphics/SVG/1.1/DTD/svg11.dtd">
<svg width="100%" height="100%" viewBox="0 0 380 400" version="1.1" xmlns="http://www.w3.org/2000/svg" xmlns:xlink="http://www.w3.org/1999/xlink" xml:space="preserve" xmlns:serif="http://www.serif.com/" style="fill-rule:evenodd;clip-rule:evenodd;stroke-linejoin:round;stroke-miterlimit:2;">
    <g transform="matrix(0.705558,0,0,0.705557,50.4003,217.12)">
        <path d="M0,-48.53C2.433,-43.008 13.947,-38.619 19.163,-44.107C21.588,-46.66 20.775,-50.863 18.482,-53.292C16.125,-55.789 11.466,-58.049 6.463,-57.487C1.31,-56.909 -2.159,-53.433 0,-48.53M265.097,-117.695C259.416,-115.073 254.85,-108.007 256.478,-99.667C257.846,-92.667 263.167,-86.968 271.9,-87.648C278.128,-88.133 282.344,-92.875 284.145,-97.852C284.656,-99.262 285.547,-102.399 285.166,-104.656C283.807,-112.715 279.163,-119.715 269.291,-118.716C267.167,-118.501 266.204,-118.205 265.097,-117.695M151.257,-210.445C153.583,-207.375 159.126,-206.457 164.637,-206.59C165.458,-206.61 166.74,-206.411 166.45,-207.61C160.793,-208.073 155.58,-209.07 151.144,-210.785C151.074,-210.778 151.009,-210.768 151.03,-210.672C151.18,-210.67 151.134,-210.473 151.257,-210.445M208.291,-224.165C202.521,-219.579 195.898,-215.844 188.901,-212.486C190.08,-210.7 191.747,-211.625 193.663,-212.259C200.564,-214.543 207.761,-217.773 210.671,-223.257C209.849,-223.531 209.108,-223.885 208.291,-224.165M185.839,-307.729L189.695,-307.729C199.472,-306.871 208.328,-304.745 214.981,-300.473C215.896,-299.884 217.054,-299.392 217.815,-298.772C218.729,-298.027 219.631,-296.808 220.536,-295.824C223.132,-292.999 225.226,-289.369 227.112,-285.733C228.883,-282.319 231.001,-278.551 232.328,-274.168C232.93,-272.181 233.797,-269.819 232.781,-268.498C233.763,-266.079 233.708,-262.622 235.617,-261.128C235.114,-259.06 236.633,-258.208 237.43,-256.706C238.384,-254.911 238.69,-252.305 239.131,-250.016C239.591,-247.634 239.91,-245.082 240.04,-242.533C242.948,-243.738 245.95,-245.971 250.016,-246.502C251.746,-246.727 253.714,-246.362 255.686,-246.161C261.126,-245.608 267.091,-245.076 271.219,-243.326C272.401,-244.383 273.095,-246.468 274.28,-247.522C275.3,-248.427 279.807,-250.77 281.765,-250.697C283.242,-250.642 284.74,-250.256 286.3,-250.13C290.811,-249.765 295.945,-249.597 300.926,-249.336C307.356,-248.999 313.804,-247.978 319.749,-247.069C328.571,-245.718 336.249,-242.302 342.652,-238.224C344.851,-236.825 347.12,-235.506 349.002,-234.029C351.094,-232.387 352.605,-228.366 353.538,-225.185C354.552,-221.721 354.969,-217.997 355.012,-214.3C365.051,-208.687 374.967,-202.697 383.585,-195.251C384.936,-194.082 386.418,-192.833 387.893,-191.623C389.342,-190.434 391.09,-189.409 392.202,-188.108C393.401,-186.704 394.392,-184.344 395.377,-182.665C398.565,-177.231 401.499,-171.717 405.014,-166.565C405.119,-166.257 405.196,-166.03 404.902,-165.884C406.099,-164.563 406.712,-163.003 407.85,-161.689C409.501,-159.778 411.812,-158.397 413.86,-156.813C415.925,-155.215 417.872,-153.519 419.754,-151.824C420.207,-151.751 420.209,-152.124 420.662,-152.051C419.946,-151.167 421.485,-150.249 421.796,-149.33C422.076,-148.843 421.283,-148.583 421.796,-148.082C422.272,-147.651 422.077,-148.856 422.703,-148.649C422.526,-147.883 423.632,-147.581 424.063,-147.062C424.104,-146.437 423.165,-146.008 424.063,-145.815C424.451,-145.161 424.362,-146.079 424.63,-146.155C425.117,-145.884 425.374,-145.386 425.538,-144.794C429.032,-146.833 431.689,-150.263 436.422,-150.69C440.818,-141.144 445.775,-131.95 450.596,-122.684C451.487,-120.97 452.064,-119 453.317,-117.695C454.564,-112.442 457.181,-108.557 458.306,-103.182C459.875,-100.473 460.971,-97.115 462.161,-93.771C462.741,-92.141 463.293,-90.492 463.976,-88.895C464.641,-87.335 465.442,-85.588 465.789,-84.133C466.633,-80.611 464.141,-77.546 462.388,-75.403C460.398,-72.969 458.225,-71.188 455.13,-70.187C452.903,-66.556 451.07,-62.531 447.648,-60.095C446.562,-60.52 445.644,-61.114 444.7,-61.682C443.625,-61.004 442.174,-59.718 440.618,-58.394C439.331,-57.301 437.584,-55.432 435.969,-55.56C434.632,-55.665 434.427,-57.314 433.474,-58.054C428.088,-59.547 424.512,-62.85 420.322,-65.537C419.819,-65.523 420.221,-66.128 420.322,-66.218C416.8,-66.099 415.293,-67.992 413.292,-69.393C411.756,-68.528 410.491,-69.736 409.436,-70.867C407.092,-73.381 407.012,-76.025 406.602,-79.03C406.296,-81.266 405.957,-84.003 405.921,-86.74C405.883,-87.159 406.61,-87.153 406.83,-86.968C406.797,-87.687 405.688,-87.807 405.581,-88.668C405.498,-89.35 406.382,-91.833 406.602,-92.75C407.566,-96.78 408.459,-101.225 409.21,-104.996C408.488,-106.805 408.362,-109.212 408.303,-111.685C408.296,-112.108 408.808,-112.013 409.21,-112.026C409.152,-112.453 409.066,-112.542 409.436,-112.706C398.433,-117.824 387.522,-123.667 376.441,-129.147C368.007,-133.319 359.343,-136.517 351.497,-141.279C347.195,-143.889 342.785,-146.283 338.911,-149.33C338.967,-149.99 339.426,-150.25 339.59,-150.803C341.172,-150.464 341.817,-150.773 342.766,-151.484C340.227,-153.859 337.181,-155.727 334.261,-157.72C336.212,-153.44 336.95,-147.508 336.302,-141.96C336.184,-141.341 336.686,-141.992 336.643,-141.392C337.702,-136.06 338.964,-130.246 339.251,-124.158C339.392,-121.168 339.385,-118.174 339.478,-115.2C339.934,-100.611 338.957,-83.453 336.643,-70.3C335.778,-70.264 335.634,-69.842 334.829,-70.187C334.961,-66.905 334.14,-63.521 333.469,-60.322C331.68,-51.797 329.766,-41.843 325.872,-33.563C325.613,-33.203 324.988,-33.318 324.739,-33.222C323.367,-27.651 322.592,-23.259 321.903,-16.329C321.703,-14.326 321.758,-12.111 321.335,-9.978C321.08,-8.683 320.726,-7.439 320.542,-6.125C320,-2.258 319.349,1.796 318.728,5.442C321.81,9.625 322.492,16.336 323.604,21.883C324.141,24.559 324.517,26.746 324.739,29.821C325.079,34.571 326.649,39.042 326.211,44.22C326.517,44.632 327.33,44.539 327.685,44.901C327.962,48.87 328.822,52.055 328.933,56.012C329.01,58.752 328.223,61.286 327.799,63.722C327.598,64.88 327.383,66.08 327.119,67.351C326.856,68.619 326.323,70.002 326.211,71.319C326.172,71.791 326.35,72.329 326.325,72.793C326.246,74.263 325.775,76.177 325.305,77.782C324.825,79.416 324.467,81.211 323.944,82.43C323.406,83.686 322.689,84.612 322.583,85.946C322.454,87.598 322.926,89.301 323.037,90.935C323.3,94.824 323.667,99.705 323.263,104.655C322.956,108.436 321.501,112.955 320.542,117.013C320.034,119.162 319.415,121.212 318.955,123.25C318.526,125.151 318.374,127.117 317.481,128.805C316.756,128.965 317.071,128.422 316.915,128.239C312.288,152.164 306.179,175.231 297.865,197.631C297.087,199.728 296.131,201.595 295.824,204.207C295.789,204.586 295.176,204.391 295.144,204.774C292.11,212.612 288.381,221.539 285.506,230.06C285.118,231.208 284.543,232.533 284.373,233.574C283.958,236.091 284.141,237.908 283.464,239.584C281.574,244.266 277.114,246.754 273.035,249.787C272.929,250.59 272.54,251.109 272.467,251.942C271.011,252.894 269.929,254.898 267.818,255.117C267.162,255.185 266.051,254.625 265.437,254.891C264.758,255.184 263.972,255.555 263.169,255.911C262.395,256.252 261.519,256.505 260.901,256.818C259.575,257.489 258.564,258.829 257.16,259.199L255.458,259.199C251.064,258.979 247.483,258.504 244.121,257.158C240.949,255.887 238.115,254.164 235.73,252.169C231.06,248.262 226.405,243.055 226.205,235.161C225.461,233.842 223.503,233.211 222.917,231.42C221.882,228.252 223.031,224.031 223.711,221.328C223.445,221.113 223.05,221.475 222.917,220.989C223.152,212.391 224.334,202.117 222.804,193.661C222.625,193.161 221.733,193.373 221.556,192.868C221.008,191.198 220.798,189.442 220.536,187.653C220.273,185.857 219.694,183.971 219.968,182.098C220.217,180.406 221.673,179.143 221.896,177.788C221.987,177.236 221.806,176.629 221.784,176.088C221.477,168.808 222.103,161.616 221.784,154.318C221.467,147.115 221.33,139.975 222.463,133.341C223.496,127.309 225.27,121.407 226.771,115.766C228.365,109.783 230.049,104.137 231.76,98.645C231.178,98.322 230.294,98.299 229.494,98.192C226.07,107.677 219.617,115.848 213.846,123.703C213.12,124.694 211.858,126.184 211.692,126.991C211.239,129.182 211.877,131.926 211.918,134.022C211.967,136.438 211.449,138.803 211.578,140.938C211.681,142.619 212.41,144.63 212.826,146.381C213.92,150.979 215.159,156.439 217.021,161.347C217.157,162.065 216.433,161.669 216.454,162.028C217.019,165.008 216.225,168.428 215.774,171.779C215.432,174.316 215.183,176.935 214.414,178.922C213.668,180.842 212.56,182.239 212.259,184.138C212.197,184.527 212.336,184.976 212.259,185.386C211.597,188.882 208.384,191.453 208.745,195.023C207.706,197.089 206.176,199.76 204.435,201.486C203.518,202.394 201.789,203.292 200.353,204.094C198.29,205.245 196.597,207.192 194.23,207.608C192.668,207.884 191.238,207.464 189.695,207.156C188.524,206.921 186.647,206.75 185.839,206.022C185.106,205.36 185.128,204.119 184.479,203.187C183.96,203.139 183.518,203.015 182.891,203.074C181.952,202.152 180.526,201.231 179.376,200.012C178.458,199.038 176.978,197.565 176.542,196.383C176.086,195.151 176.197,192.922 176.088,191.168C175.771,186.06 175.46,180.307 174.955,175.521C174.572,171.906 173.988,168.583 174.387,165.316C174.798,161.957 175.61,158.96 176.202,156.018C173.291,155.604 170.762,154.806 168.491,153.75C168.138,154.305 167.92,154.994 167.584,155.565C166.954,155.034 167.084,155.574 166.337,155.679C165.119,153.859 165.696,151.864 165.204,149.782C164.647,147.431 163.108,145.232 162.822,142.752C162.709,141.771 163.124,140.895 163.049,139.918C162.972,138.909 162.15,137.519 161.688,136.403C160.299,133.043 158.995,129.283 157.606,125.972C156.634,123.653 155.546,121.49 154.885,118.942C152.935,111.418 153.358,100.671 153.751,91.727C153.879,88.811 154.198,85.797 154.432,82.772C154.855,77.304 155.231,71.78 155.338,66.669C156.414,66.654 156.012,68.114 156.586,68.598C157.053,65.614 155.379,62.887 155.225,59.866C155.048,56.374 155.791,52.653 156.132,49.096C156.321,47.13 156.164,45.705 156.359,43.766C156.601,43.184 155.782,43.662 155.906,43.199C155.941,41.447 156.213,39.761 156.473,37.985C156.723,36.268 156.662,34.412 157.04,32.768C157.445,31.001 158.35,29.383 158.514,27.78C158.664,26.31 158.206,24.657 160.101,24.264C159.888,23.084 160.435,21.657 161.348,21.995C162.104,20.031 163.066,18.271 163.956,16.442C164.233,16.136 164.935,16.509 165.09,16.326C168.729,7.381 173.319,-0.617 177.789,-8.732C176.997,-14.179 176.643,-19.12 175.634,-24.379C175.013,-24.428 174.204,-24.231 173.594,-24.152C172.436,-26.103 170.471,-27.246 169.398,-29.14C168.241,-31.185 167.502,-33.73 166.564,-36.057C164.702,-40.673 163.126,-45.378 160.894,-49.891C159.814,-52.075 158.745,-54.291 157.72,-56.467C153.501,-65.422 150.149,-74.873 147.288,-84.699C133.843,-76.78 118.92,-70.903 103.521,-65.084C103.088,-64.004 103.186,-62.587 102.614,-61.455C102.22,-60.676 100.707,-59.679 99.667,-58.848C98.562,-57.965 97.583,-57.1 96.605,-56.467C94.387,-55.03 91.645,-53.908 89.462,-52.612C85.786,-50.428 82.509,-48.628 78.463,-47.056C77.201,-46.565 75.678,-46.386 74.495,-45.809C72.455,-44.813 71.903,-41.949 70.299,-40.82C71.379,-38.309 72.326,-35.665 73.134,-32.883C76.243,-31.978 79.807,-29.35 82.431,-27.099C84.941,-24.949 87.588,-21.769 87.987,-18.482C88.261,-16.223 88.184,-13.943 87.193,-12.133C86.451,-10.773 84.273,-10.095 82.431,-9.524C76.187,-7.59 69.321,-9.705 63.95,-11.226C63.827,-11.745 63.775,-12.336 63.723,-12.927C62.491,-13.075 62.425,-13.962 61.229,-13.947C60.568,-14.76 59.236,-14.903 58.621,-15.761C53.081,-17.138 49.845,-20.818 46.942,-24.833C45.266,-25.159 43.836,-25.732 42.293,-26.193C39.624,-23.781 34.997,-21.926 29.82,-21.318C27.014,-20.987 23.719,-20.58 22.451,-22.338C19.271,-22.259 15.527,-22.594 12.473,-23.018C10.895,-21.477 7.988,-22.34 5.556,-23.018C3.876,-23.487 2.318,-23.947 1.134,-24.605C-0.713,-25.633 -2.316,-27.191 -3.969,-28.46C-4.269,-28.692 -4.649,-28.794 -4.875,-29.028C-5.103,-29.263 -5.164,-29.668 -5.442,-29.934C-6.186,-30.647 -7.409,-31.293 -8.39,-31.975C-14.859,-36.479 -21.957,-41.8 -28.006,-46.489C-28.169,-46.855 -28.113,-47.441 -28.119,-47.963C-30.584,-48.333 -31.691,-50.498 -33.109,-52.271C-34.189,-53.623 -35.251,-54.864 -36.169,-56.127C-35.835,-57.946 -35.391,-59.656 -34.922,-61.343C-36.563,-62.5 -39.57,-62.289 -41.386,-63.27C-42.803,-62.262 -43.895,-61.404 -45.127,-60.209C-45.976,-59.386 -46.882,-58.879 -48.302,-58.508C-49.634,-58.159 -50.845,-58.259 -51.704,-57.148C-53.233,-54.887 -55.27,-52.388 -57.713,-50.23C-59.905,-48.296 -63.073,-46.085 -66.67,-46.376C-68.54,-46.526 -69.594,-47.976 -71.206,-48.643C-71.328,-49.088 -71.231,-49.752 -71.433,-50.117L-71.433,-51.137C-70.976,-54.988 -69.418,-58.069 -67.917,-60.888C-67.348,-61.961 -66.735,-62.771 -66.67,-63.61C-62.427,-67.607 -58.289,-71.707 -53.745,-75.403C-53.661,-78.209 -51.824,-79.805 -49.323,-79.824C-44.721,-83.046 -36.3,-82.45 -29.253,-83.226C-29.947,-84.175 -31.139,-83.992 -32.201,-84.133C-34.454,-84.431 -37.017,-84.768 -38.665,-85.494C-39.579,-85.897 -40.538,-86.767 -41.272,-86.854C-42.269,-86.972 -43.503,-86.504 -44.561,-86.401C-50.323,-85.836 -55.271,-86.966 -57.26,-90.595C-58.62,-93.079 -59.006,-95.616 -57.26,-97.852C-55.684,-99.869 -52.672,-101.217 -50.116,-102.388C-49.131,-102.839 -48.231,-103.428 -47.395,-103.635C-41.906,-104.995 -33.725,-103.449 -28.687,-104.089C-26.619,-104.351 -24.281,-104.474 -22.45,-104.089C-20.225,-103.621 -18.111,-102.361 -16.101,-101.481C-13.962,-100.546 -11.95,-99.607 -9.978,-98.646C-10.118,-100.439 -11.074,-102.004 -10.998,-103.635C-13.575,-105.419 -16.574,-107.211 -18.255,-109.985C-18.736,-110.779 -19.833,-112.189 -19.162,-112.706C-23.586,-114.412 -28.152,-117.818 -29.708,-122.571C-30.182,-124.024 -30.146,-125.993 -29.82,-127.673C-29.659,-128.507 -29.635,-129.901 -29.14,-130.735C-28.042,-132.582 -24.961,-132.249 -22.676,-132.095C-19.457,-131.878 -16.104,-131.382 -12.813,-130.508C-11.138,-130.063 -9.272,-129.746 -8.05,-129.147C-7.548,-128.901 -7.262,-128.4 -6.803,-128.013C-5.479,-126.897 -3.913,-125.994 -2.608,-125.065C-0.707,-123.712 1.01,-122.137 3.062,-121.323C1.394,-123.979 -2.038,-126.909 -2.494,-131.074C-2.707,-133.017 -2.385,-135.243 -1.928,-137.424C4.986,-139.684 11.497,-136.762 15.988,-134.136C16.728,-133.703 17.739,-133.537 18.369,-133.115C18.795,-132.83 19.299,-131.971 19.843,-131.301C22.589,-127.91 24.764,-125.257 27.44,-121.89C27.961,-121.235 29.854,-118.416 30.5,-118.149C31.408,-117.774 32.421,-118.283 32.996,-117.808C34.404,-114.492 35.058,-110.422 36.397,-107.036C37.184,-109.494 38.662,-111.364 40.025,-113.726C41.422,-116.147 41.372,-119.165 42.633,-121.437C43.733,-123.419 47.349,-124.334 49.436,-125.405C50.601,-126.003 51.606,-126.814 52.724,-127.333C53.955,-127.904 55.26,-128.332 56.467,-128.807C61.604,-130.832 66.606,-132.903 72,-134.136C72.554,-137.613 73.668,-141.208 74.155,-143.774C74.243,-143.589 72.853,-143.667 72.454,-144.227C74.257,-150.395 76.395,-156.265 79.483,-161.349C82.466,-166.256 86.297,-170.991 91.049,-174.048C95.855,-177.138 103.046,-178.565 110.211,-179.15C117.656,-179.759 124.78,-178.957 131.301,-177.789C129.667,-181.418 134.159,-182.083 134.476,-184.253C134.573,-184.92 134.163,-185.959 134.022,-186.861C133.606,-189.521 133.115,-192.675 133.115,-195.364C133.115,-198.878 133.54,-203.398 134.703,-206.023C134.768,-206.171 134.84,-206.343 134.929,-206.476C137.514,-210.362 140.845,-213.026 144.454,-216.114C140.496,-227.788 136.477,-241.274 135.383,-254.779C135.162,-257.502 134.735,-260.376 134.816,-263.055C134.891,-265.551 135.302,-268.275 135.609,-270.539C136.361,-276.076 138.671,-280.413 141.278,-284.259C145.299,-290.188 150.429,-294.253 156.586,-298.092C164.563,-303.065 173.625,-307.201 185.839,-307.729" style="fill:url(#_Linear1);"/>
    </g>
    <g transform="matrix(-0.312873,-0.632394,-0.632394,0.312871,184.272,58.6477)">
        <path d="M-10.492,-18.164C-14.117,-13.124 -13.821,-5.241 -12.808,1.958C-12.526,3.956 -12.616,5.86 -10.492,6.126C-10.585,-1.636 -10.175,-9.228 -8.622,-16.433C-9.236,-17.042 -9.882,-17.549 -10.492,-18.164" style="fill:white;"/>
    </g>
    <g transform="matrix(0.705558,0,0,0.705557,156.96,71.4055)">
        <path d="M0,-4.147C-0.021,-4.243 0.044,-4.253 0.114,-4.26C4.55,-2.545 9.764,-1.549 15.42,-1.085C15.71,0.113 14.429,-0.085 13.607,-0.065C8.097,0.067 2.553,-0.85 0.227,-3.92C0.104,-3.948 0.15,-4.145 0,-4.147" style="fill:white;"/>
    </g>
    <g transform="matrix(0.705558,0,0,0.705557,240.401,155.055)">
        <path d="M0,-30.748C9.872,-31.748 14.517,-24.747 15.875,-16.688C16.257,-14.432 15.365,-11.294 14.854,-9.885C13.054,-4.907 8.838,-0.165 2.609,0.319C-6.123,1 -11.444,-4.7 -12.813,-11.699C-14.44,-20.039 -9.875,-27.105 -4.193,-29.727C-3.087,-30.238 -2.124,-30.533 0,-30.748" style="fill:white;"/>
    </g>
    <g transform="matrix(-0.511758,0.48571,0.485711,0.511757,63.3637,186.123)">
        <path d="M-0.692,-18.03C-4.708,-14.993 -6.531,-10.147 -6.522,-6.713C-6.513,-3.373 -4.209,0.235 -0.692,0.417C6.869,0.807 12.199,-10.302 10.162,-15.982C8.353,-21.026 3.444,-21.158 -0.692,-18.03" style="fill:white;"/>
    </g>
    <defs>
        <linearGradient id="_Linear1" x1="0" y1="0" x2="1" y2="0" gradientUnits="userSpaceOnUse" gradientTransform="matrix(3.47143e-14,-566.928,566.928,3.47143e-14,256.144,259.199)"><stop offset="0" style="stop-color:rgb(0,34,83);stop-opacity:1"/><stop offset="1" style="stop-color:rgb(0,94,173);stop-opacity:1"/></linearGradient>
    </defs>
</svg>
