<?xml version="1.0" encoding="UTF-8" standalone="no"?>
<!DOCTYPE svg PUBLIC "-//W3C//DTD SVG 1.1//EN" "http://www.w3.org/Graphics/SVG/1.1/DTD/svg11.dtd">
<svg width="100%" height="100%" viewBox="0 0 137 363" version="1.1" xmlns="http://www.w3.org/2000/svg" xmlns:xlink="http://www.w3.org/1999/xlink" xml:space="preserve" xmlns:serif="http://www.serif.com/" style="fill-rule:evenodd;clip-rule:evenodd;stroke-linejoin:round;stroke-miterlimit:2;">
    <g transform="matrix(-1.53e-05,-362.341,-362.341,1.53e-05,68.309,362.342)">
        <path d="M1,-0.026C0.985,-0.023 0.968,-0.021 0.952,-0.018C0.948,-0.017 0.94,-0.016 0.94,-0.012C0.939,-0.009 0.943,-0.004 0.944,-0.001C0.948,0.011 0.949,0.028 0.944,0.039C0.955,0.04 0.968,0.041 0.98,0.041C0.984,0.041 0.989,0.04 0.992,0.042C0.988,0.045 0.983,0.045 0.978,0.047C0.963,0.05 0.946,0.053 0.93,0.054C0.927,0.055 0.922,0.058 0.92,0.059C0.918,0.06 0.917,0.061 0.915,0.062C0.914,0.064 0.912,0.065 0.911,0.066C0.907,0.066 0.903,0.066 0.899,0.067C0.896,0.067 0.892,0.068 0.889,0.068C0.884,0.069 0.878,0.067 0.873,0.067C0.867,0.067 0.861,0.067 0.856,0.066C0.848,0.065 0.842,0.062 0.837,0.059C0.835,0.058 0.833,0.055 0.832,0.055C0.828,0.053 0.823,0.054 0.819,0.054C0.815,0.055 0.811,0.056 0.808,0.057C0.795,0.064 0.789,0.079 0.782,0.094C0.778,0.104 0.775,0.119 0.768,0.127C0.764,0.131 0.761,0.135 0.754,0.134C0.746,0.14 0.735,0.142 0.723,0.143C0.686,0.147 0.648,0.148 0.61,0.151C0.598,0.151 0.586,0.153 0.574,0.155C0.562,0.156 0.55,0.157 0.537,0.158C0.464,0.165 0.39,0.17 0.316,0.177C0.292,0.179 0.267,0.182 0.242,0.184C0.224,0.185 0.204,0.186 0.185,0.187C0.179,0.188 0.172,0.189 0.167,0.188C0.162,0.188 0.159,0.185 0.155,0.185C0.152,0.185 0.15,0.186 0.148,0.186C0.142,0.187 0.138,0.185 0.133,0.183C0.129,0.181 0.125,0.18 0.121,0.179C0.112,0.176 0.103,0.174 0.097,0.171C0.095,0.17 0.094,0.169 0.093,0.168C0.103,0.162 0.113,0.157 0.123,0.151C0.112,0.151 0.104,0.146 0.096,0.141C0.088,0.137 0.08,0.133 0.073,0.127C0.074,0.126 0.077,0.124 0.079,0.123C0.079,0.122 0.081,0.122 0.08,0.122C0.079,0.121 0.075,0.123 0.074,0.121C0.074,0.117 0.077,0.116 0.08,0.115C0.089,0.111 0.098,0.109 0.106,0.104C0.117,0.098 0.127,0.091 0.139,0.087C0.131,0.086 0.122,0.087 0.115,0.086C0.118,0.083 0.124,0.082 0.128,0.08C0.118,0.077 0.105,0.073 0.094,0.077C0.088,0.079 0.082,0.084 0.076,0.088C0.074,0.089 0.071,0.09 0.071,0.092C0.069,0.094 0.07,0.098 0.067,0.1C0.064,0.101 0.064,0.098 0.062,0.099C0.06,0.1 0.059,0.104 0.057,0.106C0.056,0.109 0.053,0.111 0.052,0.113C0.049,0.117 0.046,0.123 0.041,0.125C0.039,0.126 0.037,0.126 0.036,0.126C0.034,0.126 0.033,0.128 0.031,0.128C0.029,0.128 0.024,0.127 0.022,0.126C0.019,0.125 0.018,0.12 0.017,0.116C0.015,0.108 0.014,0.098 0.013,0.089C0.012,0.077 0.016,0.063 0.023,0.057C0.025,0.055 0.028,0.054 0.03,0.053C0.031,0.051 0.034,0.048 0.034,0.045C0.034,0.044 0.034,0.042 0.033,0.04C0.032,0.038 0.031,0.036 0.031,0.035C0.033,0.028 0.034,0.02 0.037,0.015C0.038,0.015 0.039,0.013 0.039,0.013C0.044,0.009 0.056,0.01 0.063,0.011C0.065,0.011 0.066,0.013 0.067,0.013C0.069,0.013 0.072,0.012 0.074,0.012C0.088,0.012 0.098,0.015 0.109,0.018C0.113,0.019 0.119,0.021 0.122,0.021C0.126,0.021 0.131,0.018 0.134,0.018C0.139,0.017 0.143,0.016 0.146,0.014C0.145,0.011 0.142,0.011 0.139,0.009C0.137,0.008 0.135,0.005 0.133,0.005C0.129,0.004 0.123,0.005 0.119,0.005C0.109,0.005 0.099,0.004 0.092,0.002C0.088,0.002 0.083,0.001 0.081,-0.001C0.084,-0.001 0.086,-0.003 0.089,-0.004C0.096,-0.009 0.103,-0.013 0.109,-0.018C0.103,-0.02 0.097,-0.019 0.091,-0.021C0.09,-0.021 0.089,-0.022 0.088,-0.022C0.086,-0.023 0.084,-0.023 0.082,-0.024C0.079,-0.025 0.077,-0.026 0.076,-0.026C0.07,-0.027 0.062,-0.025 0.057,-0.029C0.051,-0.026 0.042,-0.028 0.034,-0.027C0.031,-0.027 0.029,-0.025 0.027,-0.025C0.025,-0.025 0.023,-0.026 0.02,-0.026C0.018,-0.026 0.016,-0.025 0.014,-0.026C0.007,-0.027 0.001,-0.027 0.001,-0.035C0,-0.04 0,-0.045 0,-0.051C0.001,-0.055 0.001,-0.059 0.001,-0.062C0,-0.071 -0.001,-0.081 0.001,-0.09C0.004,-0.091 0.007,-0.091 0.01,-0.091C0.014,-0.092 0.017,-0.093 0.02,-0.093C0.021,-0.093 0.022,-0.092 0.024,-0.092C0.028,-0.091 0.032,-0.092 0.036,-0.09C0.039,-0.09 0.041,-0.087 0.043,-0.087L0.049,-0.087C0.052,-0.086 0.054,-0.085 0.058,-0.084C0.059,-0.084 0.06,-0.085 0.062,-0.085C0.064,-0.085 0.068,-0.084 0.072,-0.084C0.075,-0.083 0.078,-0.083 0.081,-0.083C0.084,-0.083 0.086,-0.081 0.087,-0.081C0.088,-0.081 0.09,-0.083 0.091,-0.083C0.096,-0.085 0.099,-0.087 0.102,-0.09C0.098,-0.091 0.095,-0.092 0.093,-0.096C0.099,-0.1 0.105,-0.103 0.111,-0.108C0.114,-0.11 0.117,-0.112 0.119,-0.115C0.121,-0.117 0.126,-0.121 0.126,-0.123C0.126,-0.124 0.124,-0.127 0.123,-0.128C0.117,-0.141 0.11,-0.153 0.102,-0.163C0.1,-0.167 0.097,-0.17 0.095,-0.172C0.092,-0.175 0.088,-0.177 0.085,-0.178C0.077,-0.182 0.067,-0.182 0.061,-0.187C0.065,-0.187 0.07,-0.186 0.074,-0.186C0.079,-0.185 0.084,-0.184 0.088,-0.184C0.091,-0.185 0.093,-0.186 0.096,-0.186C0.099,-0.186 0.102,-0.186 0.105,-0.185C0.126,-0.182 0.146,-0.18 0.168,-0.178C0.172,-0.183 0.175,-0.187 0.181,-0.188C0.187,-0.189 0.195,-0.187 0.203,-0.186C0.252,-0.179 0.301,-0.173 0.349,-0.167C0.404,-0.16 0.462,-0.153 0.517,-0.147C0.559,-0.142 0.6,-0.134 0.642,-0.13C0.671,-0.127 0.7,-0.125 0.726,-0.12C0.739,-0.117 0.753,-0.115 0.764,-0.11C0.775,-0.105 0.782,-0.096 0.786,-0.085C0.788,-0.079 0.79,-0.073 0.792,-0.067C0.794,-0.06 0.796,-0.054 0.797,-0.048C0.798,-0.046 0.802,-0.042 0.804,-0.041C0.807,-0.038 0.81,-0.036 0.813,-0.035C0.819,-0.031 0.828,-0.029 0.836,-0.029C0.846,-0.029 0.853,-0.031 0.862,-0.032C0.871,-0.033 0.881,-0.033 0.891,-0.033C0.909,-0.034 0.928,-0.034 0.948,-0.034C0.958,-0.034 0.966,-0.033 0.976,-0.032C0.983,-0.031 0.995,-0.029 1,-0.027L1,-0.026Z" style="fill:url(#_Linear1);fill-rule:nonzero;"/>
    </g>
    <g transform="matrix(1,0,0,1,56.269,85.529)">
        <path d="M0,7.274C-0.18,6.997 0.363,6.744 0.622,6.386C1.055,5.791 1.43,5.034 1.155,4.168C-0.186,3.317 -1.691,4.538 -2.571,5.233C-4.468,2.858 -6.993,6.977 -8.16,8.338C-8.392,7.118 -8.698,5.645 -9.848,5.411C-10.761,5.224 -11.896,6.561 -12.154,6.564C-12.212,6.565 -12.504,6.177 -12.598,6.12C-14.479,4.962 -16.674,7.562 -15.436,9.314C-17.142,8.875 -18.602,7.92 -18.363,5.854C-17.926,2.054 -12.958,-0.08 -10.29,-1.244C-11.263,-0.499 -11.401,1.36 -10.024,1.506C-7.653,1.76 -6.486,-1.131 -6.12,-2.663C-6.017,-2.264 -5.942,-1.835 -5.678,-1.599C-4.577,-1.565 -4.301,-2.824 -3.726,-3.018C-3.837,-2.006 -4.56,-1.354 -4.258,-0.357C-3.615,1.763 1.596,-1.062 0.179,-3.196C2.904,-2.827 5.97,-2.359 6.213,0.265C6.557,3.989 2.363,5.945 0,7.274M7.721,-0.09C7.357,-3.142 3.496,-4.116 0,-4.172C-6.739,-4.278 -13.737,-1.55 -17.478,2.394C-18.465,3.435 -19.989,5.574 -19.517,7.628C-18.925,10.209 -15.732,11.17 -12.598,11.355C-9.235,11.552 -5.837,10.808 -3.459,10.024C-0.09,8.913 4.19,6.81 6.39,3.902C7.089,2.976 7.926,1.637 7.721,-0.09" style="fill:white;"/>
    </g>
    <defs>
        <linearGradient id="_Linear1" x1="0" y1="0" x2="1" y2="0" gradientUnits="userSpaceOnUse" gradientTransform="matrix(1,0,0,1,0,0.000109028)"><stop offset="0" style="stop-color:rgb(0,34,83);stop-opacity:1"/><stop offset="1" style="stop-color:rgb(0,94,173);stop-opacity:1"/></linearGradient>
    </defs>
</svg>
