<?xml version="1.0" encoding="UTF-8" standalone="no"?>
<!DOCTYPE svg PUBLIC "-//W3C//DTD SVG 1.1//EN" "http://www.w3.org/Graphics/SVG/1.1/DTD/svg11.dtd">
<svg width="100%" height="100%" viewBox="0 0 372 400" version="1.1" xmlns="http://www.w3.org/2000/svg" xmlns:xlink="http://www.w3.org/1999/xlink" xml:space="preserve" xmlns:serif="http://www.serif.com/" style="fill-rule:evenodd;clip-rule:evenodd;stroke-miterlimit:10;">
    <g transform="matrix(0.278296,0,0,0.278296,0,0)">
        <path d="M726.052,829C726.052,829 671.597,813.152 642.052,796C612.507,778.848 553.052,713 553.052,713C553.052,713 530.675,768.041 522.052,801C513.429,833.959 505.478,854.398 496.052,863C486.627,871.602 477.933,884.692 475.052,892C472.172,899.308 467.94,908.6 456.052,916C444.165,923.4 423.799,928.253 413.052,932C402.305,935.747 394.386,939.419 387.052,929C379.719,918.581 367.052,901 367.052,901C367.052,901 365.103,903.363 357.052,892C349.002,880.637 342.052,862 342.052,862C342.052,862 336.933,872.361 339.052,903C341.172,933.639 343.149,961.051 340.052,988C336.956,1014.95 335.673,1023.3 320.052,1039C304.432,1054.7 285.857,1069.45 271.052,1069C256.248,1068.55 242.767,1062.78 235.052,1061C227.337,1059.22 199.553,1034.53 189.052,1027C178.551,1019.47 166.052,1012 166.052,1012C166.052,1012 161.452,1014.09 157.052,1010C152.653,1005.92 149.668,1004.41 149.052,1002C148.436,999.591 148.052,996 148.052,996L94.052,953C94.052,953 91.211,953.304 88.052,951C84.894,948.696 83.836,946.423 81.052,945C78.269,943.577 78.052,941 78.052,941L72.052,936L69.052,935C69.052,935 62.7,930.685 62.052,929C61.404,927.315 54.468,918.067 49.052,912C43.637,905.933 43.052,904 43.052,904L34.052,891C34.052,891 29.85,884.807 26.052,877C22.255,869.193 23.052,864 23.052,864C23.052,864 18.305,859.053 13.052,845C7.8,830.947 0.436,797.391 0.052,783C-0.331,768.609 1.27,754.216 9.052,745C16.834,735.784 25.944,729.313 51.052,733C76.161,736.687 83.537,735.793 120.052,765C156.567,794.207 160.588,795.145 165.052,801C169.517,806.855 170.052,810 170.052,810C170.052,810 191.91,817.979 204.052,821C216.195,824.021 225.648,827.979 229.052,826C232.457,824.021 235.595,826.864 254.052,775C272.51,723.136 282.344,681.209 284.052,657C285.76,632.791 291.094,596.827 295.052,560C299.011,523.173 303.071,459.434 304.052,438C305.034,416.566 312.052,397 312.052,397C312.052,397 311.843,393.549 312.052,390C312.262,386.451 319.052,361 319.052,361L325.052,350L328.052,349C328.052,349 340.648,309.986 352.052,291C363.457,272.014 367.119,267.344 369.052,262C370.986,256.656 378.402,185.496 390.052,175C401.703,164.504 464.42,132.707 483.052,134C501.684,135.293 532.979,160.409 562.052,187C591.126,213.591 622.052,267 622.052,267L647.052,249C647.052,249 658.542,208.013 682.052,184C705.562,159.987 742.501,135 808.052,135C873.603,135 904.549,169.953 922.052,199C939.555,228.047 945.515,250.882 947.052,275C954.914,284.06 976.052,303 976.052,303C976.052,303 996.251,245.142 1007.05,225C1017.85,204.858 1035.49,154.397 1048.05,120C1060.62,85.603 1073.05,58 1073.05,58L1074.05,52L1078.05,47C1078.05,47 1089.65,18.889 1093.05,14C1096.45,9.111 1098.05,9 1098.05,9C1098.05,9 1096.53,8.418 1099.05,5C1101.57,1.582 1104.05,2 1104.05,2L1112.05,5C1112.05,5 1113.75,2.116 1118.05,2C1122.35,1.884 1124.05,3 1124.05,3L1133.05,0L1143.05,11C1143.05,11 1151.29,9.468 1158.05,12C1164.82,14.532 1167.05,23 1167.05,23L1182.05,19C1182.05,19 1188.25,16.434 1195.05,20C1203.36,14.532 1206.7,13.275 1211.05,13C1215.41,12.725 1219.05,14 1219.05,14C1219.05,14 1219.86,10.781 1223.05,11C1226.25,11.219 1226.05,12 1226.05,12L1240.05,7C1240.05,7 1259.93,17.215 1273.05,49C1286.18,80.785 1288.05,112 1288.05,112L1274.05,118C1274.05,118 1273.09,119.241 1271.05,120C1269.01,120.759 1269.05,121 1269.05,121L1264.05,123C1264.05,123 1266.26,129.574 1255.05,133C1243.85,136.426 1220.05,147 1220.05,147C1220.05,147 1225.93,163.407 1227.05,165C1228.18,166.593 1228.76,168 1234.05,168L1260.05,168C1268.01,168 1292.59,179.074 1293.05,202C1293.51,224.926 1261.09,242.574 1235.05,254C1232.35,256.093 1233.59,255.574 1231.05,261C1228.51,266.426 1224.05,268 1224.05,268L1225.05,270C1225.05,270 1226.59,271.574 1226.05,274C1225.51,276.426 1224.05,278 1224.05,278C1224.05,278 1219.59,299.074 1220.05,306C1220.51,312.926 1225.76,326.407 1232.05,346C1238.35,365.593 1238.43,372.074 1246.05,395C1253.68,417.926 1261.05,449.074 1261.05,463C1261.05,476.926 1250.76,490.407 1244.05,497C1237.35,503.593 1214.43,513 1198.05,513L1161.05,513C1152.35,513 1142.26,517.907 1134.05,525C1125.85,532.093 1123.59,534.407 1119.05,542C1114.51,549.593 1110.09,552.741 1107.05,556C1104.01,559.259 1098.05,563 1098.05,563C1098.05,563 1095.59,585.407 1073.05,621C1050.51,656.593 1037.05,672 1037.05,672C1037.05,672 1044.84,681.674 1046.05,695C1047.26,708.326 1047.04,716.474 1053.05,721C1059.06,725.526 1075.64,728.074 1091.05,755C1106.46,781.926 1122.24,810.474 1125.05,820C1127.86,829.526 1139.44,832.874 1171.05,881C1202.66,929.126 1228.04,966.474 1250.05,995C1272.06,1023.53 1283.51,1060.04 1292.05,1086C1300.6,1111.96 1327.18,1169.04 1332.05,1191C1336.93,1212.96 1334.84,1240.71 1333.05,1262C1331.26,1283.29 1325.84,1286.37 1317.05,1291C1308.26,1295.63 1299.18,1296.37 1294.05,1299C1288.93,1301.63 1286.51,1310 1269.05,1310C1251.6,1310 1240.51,1309.71 1205.05,1292C1169.6,1274.29 1131.05,1251 1131.05,1251C1131.05,1251 1126.51,1251.37 1117.05,1248C1107.6,1244.63 1103.05,1242 1103.05,1242C1103.05,1242 1096.84,1239.04 1089.05,1230C1081.26,1220.96 1082.05,1213 1082.05,1213C1082.05,1213 1067.18,1193.37 1046.05,1170C1024.93,1146.63 1020.05,1149 1020.05,1149C1020.05,1149 1019.51,1202.71 1020.05,1219C1020.6,1235.29 1019.05,1257 1019.05,1257C1019.05,1257 1020.51,1276.71 1017.05,1292C1013.6,1307.29 1008.84,1317.37 1003.05,1323C997.262,1328.63 990.843,1335.04 988.052,1338C985.262,1340.96 973.176,1345 965.052,1345C956.928,1345 944.509,1338.37 937.052,1335C929.595,1331.63 918.843,1324.71 915.052,1319C911.262,1313.29 900.176,1297.71 894.052,1277C887.928,1256.29 893.052,1247 893.052,1247C893.052,1247 890.176,1238.37 896.052,1216C901.928,1193.63 910.843,1163.04 912.052,1152C913.262,1140.96 910.509,1109.37 907.052,1097C903.595,1084.63 906.052,1064 906.052,1064C906.052,1064 905.176,1037.04 905.052,1032C904.928,1026.96 913.509,1009.71 919.052,1007C924.595,1004.29 946.052,1002 946.052,1002C946.052,1002 926.843,982.374 894.052,954C861.262,925.626 840.052,911 840.052,911C840.052,911 829.509,917.374 822.052,925C814.595,932.626 809.052,937 809.052,937L809.052,939C809.052,939 799.843,948.041 796.052,953C792.262,957.959 789.052,961 789.052,961L785.052,962C785.052,962 762.509,998.041 740.052,1021C717.595,1043.96 696.843,1059.37 668.052,1086C639.262,1112.63 609.509,1140.71 594.052,1152C578.595,1163.29 573.052,1167 573.052,1167C573.052,1167 575.176,1169.71 570.052,1176C564.928,1182.29 547.052,1201 547.052,1201L540.052,1203L536.052,1205C536.052,1205 525.176,1222.04 517.052,1244C508.928,1265.96 505.176,1283.37 492.052,1306C478.928,1328.63 474.509,1330.04 471.052,1337C467.595,1343.96 466.176,1347.37 462.052,1360C457.928,1372.63 453.509,1383.37 453.052,1388C452.595,1392.63 453.176,1399.04 453.052,1405C452.928,1410.96 454.176,1416.71 455.052,1423C455.928,1429.29 455.176,1436.04 449.052,1437C442.928,1437.96 438.176,1436.71 435.052,1434C431.928,1431.29 427.052,1417 427.052,1417C427.052,1417 426.843,1429.37 422.052,1433C417.262,1436.63 412.176,1437.71 406.052,1435C399.928,1432.29 397.509,1426.71 396.052,1416C394.595,1405.29 393.176,1392.37 395.052,1378C396.928,1363.63 402.509,1346.37 403.052,1336C403.595,1325.63 402.843,1316.71 398.052,1315C393.262,1313.29 386.052,1325 386.052,1325C386.052,1325 377.843,1338.71 375.052,1347C372.262,1355.29 360.052,1353 360.052,1353C360.052,1353 347.843,1365.37 343.052,1370C338.262,1374.63 325.843,1379.71 314.052,1381C302.262,1382.29 298.176,1385.37 290.052,1380C281.928,1374.63 279.843,1369.04 280.052,1368C280.052,1368 269.843,1366.37 267.052,1362C264.262,1357.63 264.176,1351.04 270.052,1346C275.928,1340.96 285.509,1342.04 293.052,1337C300.595,1331.96 305.509,1324.04 312.052,1317C318.595,1309.96 336.509,1284.71 339.052,1279C341.595,1273.29 341.509,1265.37 353.052,1257C364.595,1248.63 372.052,1239 372.052,1239C372.052,1239 377.509,1224.37 380.052,1214C382.595,1203.63 391.176,1197.04 400.052,1191C408.928,1184.96 415.176,1180.71 425.052,1170C434.928,1159.29 442.052,1152 442.052,1152L446.052,1146L446.052,1142C446.052,1142 468.509,1112.04 471.052,1109C473.595,1105.96 478.052,1107 478.052,1107C478.052,1107 502.176,1086.71 518.052,1072C533.928,1057.29 564.176,1012.04 578.052,991C591.928,969.959 613.509,933.041 631.052,915C648.595,896.959 662.052,889 662.052,889L672.052,882C672.052,882 681.509,870.374 693.052,864C704.595,857.626 708.509,860.374 713.052,855C717.595,849.626 719.509,848.041 721.052,843C722.595,837.959 726.052,829 726.052,829ZM992.052,317C992.052,317 1010.16,275.882 1015.05,262C1019.94,248.118 1025.16,231.048 1032.05,217C1038.94,202.952 1042.99,196.882 1048.05,181C1053.11,165.118 1057.99,150.882 1063.05,138C1068.11,125.118 1081.05,97 1081.05,97L1084.05,102C1084.05,102 1085.16,102.715 1083.05,105C1080.94,107.285 1076.66,111.548 1078.05,115C1079.44,118.452 1093.99,157.882 1096.05,161C1098.11,164.118 1099.66,165.882 1104.05,166C1108.44,166.118 1111.83,164.715 1114.05,170C1116.28,175.285 1138.83,235.548 1141.05,241C1143.28,246.452 1149.66,255.715 1158.05,261C1166.44,266.285 1172.16,268.548 1175.05,269C1177.94,269.452 1199.05,269 1199.05,269C1199.05,269 1197.99,270.215 1201.05,272C1204.11,273.785 1206.05,274 1206.05,274C1206.05,274 1204.83,274.882 1205.05,277C1205.28,279.118 1206.05,279 1206.05,279C1206.05,279 1199.16,301.882 1200.05,311C1200.94,320.118 1204.99,337.382 1214.05,365C1223.11,392.618 1233.83,420.048 1238.05,437C1242.28,453.952 1246.66,455.882 1242.05,471C1237.44,486.118 1230.49,491.215 1220.05,495C1209.61,498.785 1200.99,501.048 1184.05,500C1167.11,498.952 1158.99,498 1152.05,498C1145.11,498 1138.33,499.882 1129.05,506C1119.78,512.118 1118.16,514.215 1111.05,521C1103.94,527.785 1101.05,531 1101.05,531C1101.05,531 1103.66,512.048 1103.05,492C1102.44,471.952 1102.16,460.048 1091.05,439C1079.94,417.952 1069.66,401.715 1044.05,373C1018.44,344.285 992.052,317 992.052,317Z" style="fill:url(#_Linear1);"/>
    </g>
    <g transform="matrix(0.278296,0,0,0.278296,0,0)">
        <path d="M738.052,422C738.052,422 758.48,406.044 785.052,397C811.625,387.956 832.052,389 832.052,389C832.052,389 819.482,437.42 787.052,443C745.55,450.141 738.052,422 738.052,422ZM637.052,327C637.052,327 651.262,357.825 660.052,374C668.842,390.175 675.052,402 675.052,402C675.052,402 656.033,412.646 645.052,404C634.071,395.354 629.732,377.611 630.052,358C630.372,338.389 637.052,327 637.052,327Z" style="fill:white;"/>
    </g>
    <g transform="matrix(0.00639942,0,0.00178395,0.00679883,198.693,162.016)">
        <path d="M273,1.2L273,751.1L495.4,946.1C495.4,946.1 495.4,999.4 505.7,1014.9L0.4,1450.9L0.4,2440.8L164.3,2301.2L160.7,1475.3L621,1054.8C621,1054.8 579.6,937.4 595.1,836L393.6,666.8L392,122.3L273,1.2ZM1943.5,125.4L2064,1.2L2062.4,751.1L1840,946.1C1840,946.1 1836.4,997.8 1831.2,1013.3L2334.4,1459.6L2334.4,2431.9L2175.6,2307.8L2174.6,1478.8L1714.3,1056.3C1714.3,1056.3 1754.1,946.1 1741.7,833.9L1944.9,666.9L1943.5,125.4ZM1797.2,1499.5L1797.2,2042.5L1167.8,2359.5L538.4,2045.6L538.4,1502.6L950.6,1124.5C884.9,1065 843.5,979.2 843.5,883.5C843.5,704.6 988.8,559.2 1167.8,559.2C1346.8,559.2 1492,704.6 1492,883.5C1492,979.2 1450.6,1065 1384.9,1124.5L1797.2,1499.5ZM1721.1,311.5L1721.1,580.4L1554.1,721.6C1554.1,721.6 1653.9,906.2 1524.6,1105.9L1916.1,1471.5L1914.5,2100.9L2055.7,2216.2L2055.7,1459.6L1642,1077C1642,1077 1700.4,928.6 1674.6,813.2L1817.9,678.7L1819.5,235.5L1721.1,311.5ZM516.1,236L516.1,675.6L662.5,811.6C662.5,811.6 633,942.4 697.2,1075.4L276.7,1458.1L276.7,2209.6L421.5,2095.8L419.9,1471.6L814.5,1104.4C814.5,1104.4 697.1,963.2 779.8,716.5L621.1,576.8L621.1,316.7L516.1,236Z" style="fill:white;fill-rule:nonzero;stroke:black;stroke-width:1px;"/>
    </g>
    <defs>
        <linearGradient id="_Linear1" x1="0" y1="0" x2="1" y2="0" gradientUnits="userSpaceOnUse" gradientTransform="matrix(8.80105e-14,-1437.32,1437.32,8.80105e-14,806.589,1437.32)"><stop offset="0" style="stop-color:rgb(0,34,83);stop-opacity:1"/><stop offset="1" style="stop-color:rgb(0,94,173);stop-opacity:1"/></linearGradient>
    </defs>
</svg>
