<?xml version="1.0" encoding="UTF-8" standalone="no"?>
<!DOCTYPE svg PUBLIC "-//W3C//DTD SVG 1.1//EN" "http://www.w3.org/Graphics/SVG/1.1/DTD/svg11.dtd">
<svg width="100%" height="100%" viewBox="0 0 672 1353" version="1.1" xmlns="http://www.w3.org/2000/svg" xmlns:xlink="http://www.w3.org/1999/xlink" xml:space="preserve" xmlns:serif="http://www.serif.com/" style="fill-rule:evenodd;clip-rule:evenodd;stroke-linejoin:round;stroke-miterlimit:2;">
    <g transform="matrix(1,0,0,1,-35.7309,-23.5703)">
        <path d="M453.749,208.606C452.519,211.06 451.317,213.229 450.304,214.851C450.304,218.849 451.104,217.783 456.702,223.648C462.301,229.513 471.898,246.042 471.898,253.506C471.898,260.971 469.499,268.169 469.499,268.169C469.499,268.169 473.231,268.169 479.096,271.368C484.961,274.567 491.226,283.365 491.226,283.365C491.226,283.365 501.756,294.029 515.886,302.826C530.015,311.624 560.673,332.151 578.269,346.547C595.864,360.943 620.124,372.673 646.25,388.402C672.376,404.131 691.037,424.126 698.235,433.723C705.433,443.321 711.298,451.851 702.767,464.115C694.236,476.378 663.578,512.901 643.317,534.762C623.056,556.622 592.398,583.282 583.6,591.813C574.803,600.344 568.671,603.809 568.671,603.809C568.671,603.809 577.735,629.136 582.267,639.266C586.8,649.397 587.066,651.796 589.465,653.929C591.865,656.062 592.398,658.194 589.732,660.327C587.066,662.46 569.471,673.923 558.807,681.121C548.144,688.319 542.279,691.785 542.279,691.785C542.279,691.785 556.141,725.376 568.138,761.099C580.135,796.823 594.531,831.746 598.796,844.009C603.062,856.273 605.461,861.071 606.794,864.004C608.127,866.936 610.26,869.869 601.995,873.868C593.731,877.867 562.54,887.398 547.61,889.264C532.681,891.13 516.419,894.129 516.419,894.129C516.419,894.129 526.283,937.317 528.149,954.112C530.015,970.908 541.479,1014.36 543.078,1021.83C544.678,1029.29 546.811,1038.62 546.811,1038.62C546.811,1038.62 551.876,1046.09 552.142,1055.95C552.409,1065.82 555.875,1102.34 558.274,1127.93C560.673,1153.52 560.94,1174.85 564.139,1191.91C567.338,1208.98 573.203,1239.9 574.536,1253.23C575.869,1266.56 575.603,1283.09 583.067,1298.02C590.532,1312.95 597.197,1320.41 601.462,1329.48C605.728,1338.54 604.994,1339.34 604.728,1343.87C604.461,1348.4 604.395,1351.07 604.395,1351.07C604.395,1351.07 606.794,1360.93 596.93,1362.8C587.066,1364.66 559.341,1367.6 548.41,1366.8C537.48,1366 534.547,1366.8 529.482,1358.27C524.417,1349.74 526.55,1350 524.417,1345.2C522.284,1340.4 520.685,1337.47 520.685,1336.14C520.685,1334.81 516.152,1333.21 515.086,1328.67C514.02,1324.14 514.553,1319.61 514.553,1319.61C514.553,1319.61 510.021,1311.35 508.688,1302.02C507.355,1292.68 511.887,1288.15 510.554,1279.89C509.221,1271.62 507.355,1267.09 506.555,1262.03C505.755,1256.96 507.088,1252.16 507.088,1252.16C507.088,1252.16 503.623,1248.16 503.889,1239.63C504.156,1231.1 493.759,1184.05 485.228,1140.59C476.697,1097.14 467.633,1068.61 467.633,1067.01C467.633,1065.41 469.499,1059.82 469.499,1059.82C469.499,1059.82 463.9,1028.36 461.501,1013.96C459.102,999.566 452.437,981.705 442.839,961.444C433.242,941.182 430.843,936.917 428.443,923.321C426.044,909.725 424.178,899.061 424.178,899.061C424.178,899.061 395.919,897.195 390.587,897.195C385.255,897.195 384.989,892.396 384.989,892.396C384.989,892.396 364.195,891.863 351.931,893.196C339.668,894.529 331.937,895.862 331.937,895.862C331.937,895.862 334.07,930.252 318.607,968.375C303.145,1006.5 305.011,1008.1 301.812,1029.42C298.613,1050.75 298.08,1055.28 298.08,1055.28L299.146,1059.55C299.146,1059.55 288.216,1118 281.551,1139.6C274.886,1161.19 272.753,1176.58 268.754,1192.58C264.756,1208.58 266.088,1210.17 265.289,1216.04C264.489,1221.9 262.889,1225.9 261.29,1231.77C259.69,1237.63 262.09,1238.7 260.757,1240.03C259.424,1241.37 257.558,1241.37 257.558,1241.37C257.558,1241.37 259.157,1256.03 258.091,1265.09C257.024,1274.16 254.092,1274.42 255.158,1281.09C256.225,1287.75 257.024,1305.35 256.491,1311.48C255.958,1317.61 252.759,1322.14 252.759,1322.14L253.292,1335.87C253.292,1335.87 253.025,1337.21 249.027,1341.74C245.028,1346.27 243.162,1346.54 243.162,1346.54C243.162,1346.54 243.695,1350.4 241.562,1354.13L239.429,1357.87C239.429,1357.87 240.229,1367.2 232.231,1371.46C224.233,1375.73 218.903,1374.4 214.103,1375.46C209.303,1376.52 173.048,1373.6 168.249,1372.8C163.45,1372 161.051,1369.86 161.051,1365.33C161.051,1360.8 162.651,1358.13 162.651,1358.13C162.651,1358.13 159.718,1356.27 159.718,1346.94C159.718,1337.61 166.383,1330.94 173.314,1318.94C180.246,1306.95 189.31,1288.55 190.376,1280.29C191.443,1272.02 190.11,1266.16 190.11,1259.23C190.11,1252.3 192.042,1249.63 192.309,1243.77C192.575,1237.9 193.309,1236.03 193.842,1240.83C194.375,1245.63 193.309,1233.9 193.309,1233.9L191.976,1231.24C191.976,1231.24 189.843,1227.24 194.642,1214.17C199.44,1201.11 205.572,1181.12 206.105,1155.79C206.638,1130.46 206.638,1109.67 210.104,1080.08C213.57,1050.49 217.835,1027.03 217.835,1027.03L219.701,1024.09C219.701,1024.09 229.832,988.369 233.564,968.375C237.296,948.38 238.629,934.518 239.429,919.588C240.229,904.659 239.429,890.263 239.429,890.263C239.429,890.263 215.702,888.131 196.241,883.865C176.78,879.6 154.12,874.001 146.922,871.602C139.724,869.202 134.392,867.07 134.392,867.07C134.392,867.07 132.792,864.67 134.925,860.138C137.058,855.606 148.254,820.683 163.717,772.163C179.179,723.643 189.576,688.986 189.576,688.986C189.576,688.986 151.053,675.923 132.125,667.125C113.197,658.328 104,654.062 102.934,652.729C101.867,651.396 99.735,650.063 101.867,645.798C104,641.532 130.926,562.621 130.926,562.621C130.926,562.621 90.404,532.496 67.477,510.369C44.55,488.241 35.219,479.444 35.752,466.381C36.286,453.318 44.55,445.587 54.414,434.656C64.278,423.726 76.541,409.33 97.335,395.734C118.13,382.137 126.66,375.206 137.857,363.743C149.054,352.279 167.982,336.55 179.446,327.486C190.697,318.59 194.244,315.343 203.699,308.672C197.383,311.16 186.03,312.526 172.601,301.83C172.601,301.83 183.173,308.401 191.601,308.401C199.018,308.401 211.192,301.211 213.618,289.845C213.209,288.159 212.895,286.294 212.77,284.298C212.237,275.767 216.236,274.967 218.902,270.968C219.975,269.359 222.041,266.842 224.353,263.594C226.931,259.97 234.939,257.742 236.69,254.239C238.69,250.239 240.09,237.239 240.09,237.239C240.09,237.239 234.903,249.773 228.89,258.039C220.421,269.684 229.86,254.199 233.831,244.842C238.91,232.875 238.629,226.447 236.763,219.516C234.897,212.585 232.231,209.119 232.231,198.455C232.231,187.791 235.964,178.994 242.095,172.596L248.227,166.197C248.227,166.197 243.162,165.398 241.029,161.399C238.971,157.541 238.403,148.473 238.365,147.838C238.363,147.815 238.363,147.802 238.363,147.802C238.363,147.802 238.364,147.814 238.365,147.838C238.393,148.158 238.811,150.594 245.028,152.335C251.693,154.201 254.358,154.467 257.024,149.402C259.69,144.337 255.958,142.204 253.559,134.473C251.159,126.742 249.826,116.611 255.958,107.547C262.09,98.483 268.221,83.553 273.02,72.889C277.819,62.225 281.551,53.962 298.346,40.366C315.142,26.769 326.072,23.57 338.602,23.57C351.132,23.57 359.396,28.502 359.396,28.502C359.396,28.502 375.925,19.971 395.653,39.166C415.38,58.361 427.644,91.418 433.509,111.146C439.374,130.874 440.174,135.672 445.239,144.203C450.304,152.734 448.971,159.666 448.971,159.666C448.971,159.666 461.234,179.127 461.234,186.325C461.234,189.635 459.769,194.579 457.797,199.578C461.108,200.824 464.688,202.39 467.863,204.257C478.352,210.427 480.587,221.38 480.587,221.38C480.587,221.38 477.326,206.664 457.326,200.748C456.576,202.58 455.768,204.403 454.949,206.14C458.603,207.403 462.561,209.793 464.093,214.311C467.234,223.579 465.978,228.291 465.978,228.291C465.978,228.291 467.381,210.562 453.749,208.606ZM538.29,402.439C538.29,402.439 561.49,415.239 575.49,422.839C589.49,430.439 597.09,435.039 605.69,442.439C614.29,449.839 626.69,456.639 626.69,456.639C626.69,456.639 614.89,477.239 599.49,498.439C584.09,519.639 577.09,525.439 570.09,532.439C563.09,539.439 557.89,544.239 557.89,544.239C557.89,544.239 555.49,517.039 551.09,498.039C546.69,479.039 544.49,457.639 541.69,435.839C538.89,414.039 538.29,402.439 538.29,402.439ZM112.29,467.439C112.29,467.439 131.29,449.839 146.29,437.439C161.29,425.039 177.89,415.439 177.89,415.439L148.69,508.039C148.69,508.039 138.09,496.239 129.09,486.239C120.09,476.239 112.29,467.439 112.29,467.439ZM215.852,296.239C216.658,297.973 217.302,298.961 217.302,298.961C217.302,298.961 215.54,300.282 210.601,303.795C212.769,301.304 214.688,298.243 215.852,296.239ZM220.69,282.839L225.89,288.039C225.89,288.039 220.49,291.439 219.29,289.039C218.09,286.639 220.69,282.839 220.69,282.839ZM229.69,282.839L225.89,279.239L240.09,268.239C240.09,268.239 238.69,274.839 236.49,278.039C234.29,281.239 229.69,282.839 229.69,282.839ZM257.29,280.039L266.49,271.639L269.89,277.839L257.29,280.039ZM286.052,267.493C285.133,267.494 284.304,267.528 283.666,267.611C282.412,267.775 280.839,268.652 279.394,269.626C279.248,269.724 279.104,269.824 278.962,269.923L279.753,273.901L285.253,271.639C285.253,271.639 285.48,269.829 286.052,267.493ZM291.754,254.758C289.75,255.471 287.551,256.364 285.548,257.416C283.585,258.446 281.674,259.835 280.016,261.209C278.696,262.849 277.753,263.839 277.753,263.839L278.75,268.855L278.835,268.797C280.42,267.728 282.161,266.799 283.536,266.62C284.265,266.525 285.237,266.492 286.31,266.499C286.408,266.139 286.514,265.772 286.628,265.401C287.506,262.546 289.639,259.498 291.754,254.758ZM465.628,256.151C465.628,256.151 466.503,253.401 465.503,248.401C464.503,243.401 463.018,240.026 463.018,240.026C463.018,240.026 467.128,244.176 468.253,250.539C469.378,256.901 468.574,264.182 468.574,264.182L465.628,256.151ZM257.29,263.839L263.59,259.039L263.59,261.039L257.29,263.839ZM292.57,234.829C292.201,235.959 291.659,237.156 290.88,238.383C289.998,239.774 289.213,241.02 288.529,242.111C288.436,243.103 288.271,244.336 288.003,245.901C287.244,250.329 284.629,254.868 282.23,258.272C283.154,257.635 284.112,257.04 285.083,256.53C287.424,255.301 290.026,254.286 292.292,253.513C292.404,253.244 292.516,252.969 292.628,252.689C295.003,246.726 294.878,245.776 294.378,241.026C294.17,239.05 293.399,236.792 292.57,234.829ZM257.29,254.839L260.29,250.539L260.29,253.439L257.29,254.839ZM453.628,235.276C453.628,235.276 453.878,238.526 456.253,242.776C458.628,247.026 462.878,252.689 462.878,252.689C462.878,252.689 464.003,244.276 459.878,240.526C455.753,236.776 453.628,235.276 453.628,235.276ZM291.932,233.394C290.984,231.356 290.128,229.901 290.128,229.901C290.128,229.901 289.253,231.276 288.503,235.026C288,237.541 288.621,237.639 288.633,240.067C289.069,239.375 289.537,238.635 290.036,237.848C291.031,236.279 291.612,234.763 291.932,233.394ZM249.49,219.239C249.49,219.239 243.29,210.039 243.89,202.039C244.49,194.039 248.89,191.039 248.89,191.039L251.69,194.439C251.69,194.439 249.89,199.839 251.29,204.439C252.69,209.039 253.49,209.639 253.49,213.239C253.49,216.839 249.49,219.239 249.49,219.239ZM450.053,197.017L449.853,196.96L449.638,196.898C449.713,195.978 450.074,194.077 451.628,191.401C453.878,187.526 453.628,181.151 453.628,181.151C453.628,181.151 454.878,183.526 455.253,187.026C455.628,190.526 455.753,190.276 453.628,192.776C452.113,194.559 450.725,196.214 450.053,197.017Z" style="fill:url(#_Linear1);"/>
    </g>
    <g transform="matrix(1,0,0,1,-34.8681,-23.94)">
        <path d="M310.688,333.797C310.688,333.797 340.973,330.855 365.547,330.682C390.12,330.509 409.329,331.548 409.329,331.548L436.153,356.987C436.153,356.987 411.752,378.792 392.197,398.347C372.642,417.902 355.509,440.745 355.509,440.745L283.692,361.659L310.688,333.797ZM341.146,406.999C341.146,406.999 348.241,407.692 355.336,407.519C362.432,407.346 370.5,405.615 370.5,405.615L355.509,421.709L341.146,406.999ZM319.168,381.733C319.168,381.733 349.972,382.945 363.124,382.426C376.276,381.907 384.756,384.156 384.929,386.752C385.102,389.348 376.838,393.328 370.5,394.193C364.162,395.059 356.029,394.886 356.029,394.886C356.029,394.886 350.491,387.617 340.454,387.79C330.416,387.963 327.994,392.117 327.994,392.117L319.168,381.733ZM357.586,340.633C369.7,340.893 373.507,340.719 377.141,345.738C380.775,350.757 382.679,356.814 382.679,356.814L409.156,357.333L410.022,346.949L420.405,355.91C420.405,355.91 415.732,360.275 411.579,363.736C407.426,367.197 403.965,371.696 403.965,371.696C403.965,371.696 395.139,358.544 372.296,359.582C349.452,360.621 330.243,361.659 330.243,352.141C330.243,342.623 345.472,340.373 357.586,340.633ZM298.055,359.409L314.495,342.796L321.071,342.45C321.071,342.45 314.495,347.815 310.342,352.487C306.189,357.16 303.939,367.37 303.939,367.37L298.055,359.409ZM388.563,338.816L392.024,342.45L395.139,338.989L388.563,338.816Z" style="fill:white;"/>
    </g>
    <defs>
        <linearGradient id="_Linear1" x1="0" y1="0" x2="1" y2="0" gradientUnits="userSpaceOnUse" gradientTransform="matrix(8.27935e-14,-1352.12,1352.12,8.27935e-14,435.114,1375.69)"><stop offset="0" style="stop-color:rgb(0,34,83);stop-opacity:1"/><stop offset="1" style="stop-color:rgb(0,94,173);stop-opacity:1"/></linearGradient>
    </defs>
</svg>
