<?xml version="1.0" encoding="UTF-8" standalone="no"?>
<!DOCTYPE svg PUBLIC "-//W3C//DTD SVG 1.1//EN" "http://www.w3.org/Graphics/SVG/1.1/DTD/svg11.dtd">
<svg width="100%" height="100%" viewBox="0 0 400 274" version="1.1" xmlns="http://www.w3.org/2000/svg" xmlns:xlink="http://www.w3.org/1999/xlink" xml:space="preserve" xmlns:serif="http://www.serif.com/" style="fill-rule:evenodd;clip-rule:evenodd;stroke-linejoin:round;stroke-miterlimit:2;">
    <g transform="matrix(0.759235,0,0,0.759235,358.29,215.028)">
        <path d="M0,-205.853C-5.017,-207.221 -9.274,-208.134 -9.274,-208.134C-9.274,-208.134 -11.251,-222.58 -13.836,-230.943C-16.421,-239.306 -18.552,-244.781 -17.79,-245.084C-17.03,-245.389 -9.122,-244.02 -3.952,-234.896C1.218,-225.772 3.954,-211.631 3.803,-209.046C3.649,-206.461 5.019,-204.484 0,-205.853M-44.4,-212.087C-52.916,-213.304 -56.261,-213.912 -56.261,-213.912L-58.085,-233.224C-58.085,-233.224 -53.83,-239.001 -43.642,-240.827C-33.452,-242.652 -30.411,-245.236 -28.282,-239.915C-26.153,-234.592 -24.786,-221.211 -24.177,-216.345C-23.568,-211.479 -23.265,-209.046 -23.265,-209.046C-23.265,-209.046 -35.886,-210.871 -44.4,-212.087M-65.69,-215.585C-65.69,-215.585 -64.777,-221.059 -64.321,-223.036C-63.864,-225.013 -60.823,-226.989 -60.823,-226.989L-60.368,-214.672L-65.69,-215.585ZM-83.328,-215.585C-83.328,-215.585 -98.99,-214.672 -117.39,-212.848C-135.79,-211.023 -140.503,-206.917 -147.345,-208.286C-154.189,-209.654 -159.967,-228.966 -160.575,-235.048C-161.183,-241.131 -152.06,-243.107 -152.06,-243.107C-152.06,-243.107 -149.778,-240.827 -147.194,-240.066C-144.608,-239.306 -134.116,-237.633 -117.846,-236.113C-101.576,-234.592 -88.194,-234.288 -88.194,-234.288C-88.194,-234.288 -86.673,-231.095 -84.849,-226.685C-83.023,-222.275 -83.328,-215.585 -83.328,-215.585M-195.853,-203.269C-195.853,-203.269 -218.51,-203.572 -221.247,-200.834C-223.983,-198.099 -230.218,-190.952 -230.218,-190.952C-230.218,-190.952 -231.892,-191.255 -235.54,-191.712C-239.188,-192.167 -241.472,-192.016 -241.472,-192.016C-241.472,-192.016 -238.886,-215.128 -238.581,-219.54C-238.276,-223.949 -238.125,-224.557 -238.125,-224.557C-238.125,-224.557 -217.141,-225.469 -210.45,-226.686C-203.759,-227.903 -202.391,-228.662 -201.783,-230.335C-201.175,-232.008 -200.413,-234.897 -200.413,-234.897C-200.413,-234.897 -193.267,-224.709 -193.267,-216.193C-193.267,-207.678 -195.853,-203.269 -195.853,-203.269M-255.916,-201.899C-257.284,-190.8 -259.109,-181.523 -259.109,-181.523C-259.109,-181.523 -269.45,-180.763 -281.614,-179.547C-283.033,-179.405 -284.457,-179.203 -285.854,-178.984L-274.57,-241.102C-270.285,-244.457 -266.104,-246.454 -266.104,-246.454C-266.104,-246.454 -276.901,-229.727 -267.929,-227.598C-258.958,-225.469 -251.507,-225.774 -251.507,-225.774C-251.507,-225.774 -254.548,-213 -255.916,-201.899M-290.413,-178.246C-298.847,-176.933 -304.896,-176.914 -300.774,-189.735C-295.3,-206.766 -286.024,-226.99 -281.159,-234.289C-280.073,-235.918 -278.721,-237.426 -277.276,-238.785L-290.413,-178.246ZM-461.468,-0.877C-461.653,2.458 -461.653,3.754 -461.653,3.754L-464.155,2.92C-464.155,2.92 -464.712,-2.083 -463.785,-7.273C-462.858,-12.461 -460.356,-14.312 -460.356,-14.312C-460.356,-14.312 -461.282,-4.214 -461.468,-0.877M54.927,-80.919C54.927,-101.062 52.801,-105.906 52.801,-105.906C52.801,-105.906 53.04,-108.183 52.876,-120.342C52.71,-132.502 52.461,-137.464 45.182,-150.947C37.902,-164.429 19.623,-166.744 19.623,-166.744C19.623,-166.744 19.706,-168.233 18.136,-171.873C16.563,-175.513 14.908,-176.092 14.908,-176.092C14.908,-176.092 14.908,-178.407 14.661,-182.295C14.412,-186.183 14,-194.619 9.946,-210.665C5.894,-226.711 5.067,-230.682 0.765,-242.345C-3.535,-254.007 -16.604,-257.978 -16.604,-257.978C-16.604,-257.978 -17.597,-258.805 -19.665,-260.459C-21.731,-262.113 -23.552,-263.189 -23.552,-263.189C-23.552,-263.189 -23.8,-264.512 -23.966,-265.008C-24.13,-265.505 -24.793,-266.167 -24.793,-266.167C-24.793,-266.167 -24.215,-266.332 -23.47,-266.414C-22.725,-266.497 -22.146,-265.835 -22.146,-271.129C-22.146,-276.423 -25.952,-274.934 -25.952,-274.934C-25.952,-274.934 -26.944,-276.753 -29.177,-277.664C-31.411,-278.573 -31.079,-277.581 -35.299,-278.739C-39.517,-279.897 -37.944,-279.4 -41.585,-279.152C-45.224,-278.904 -50.104,-280.393 -62.345,-280.972C-74.587,-281.551 -93.778,-283.123 -121.569,-283.206C-149.362,-283.289 -156.64,-282.875 -165.491,-282.461C-174.342,-282.047 -197.087,-281.138 -204.2,-279.649C-211.314,-278.16 -211.479,-274.438 -211.479,-274.438C-211.479,-274.438 -230.173,-273.942 -241.257,-269.889C-252.34,-265.835 -256.062,-263.189 -268.056,-255.745C-271.116,-254.752 -276.657,-251.526 -282.364,-247.308C-288.071,-243.089 -288.981,-241.436 -293.117,-235.314C-297.253,-229.194 -299.403,-222.411 -306.6,-205.62C-313.796,-188.829 -323.308,-163.022 -323.308,-163.022C-323.308,-163.022 -324.8,-162.86 -327.784,-161.374C-329.179,-167.316 -332.786,-175.216 -332.786,-175.216C-332.786,-175.216 -329.548,-178.299 -329.548,-180.843C-329.548,-183.387 -329.703,-188.475 -338.26,-192.099C-346.817,-195.723 -350.749,-193.486 -350.749,-182.309C-350.749,-171.13 -334.868,-174.213 -334.868,-174.213C-334.868,-174.213 -333.249,-171.36 -331.938,-167.815C-331.142,-165.661 -330.433,-162.403 -329.997,-160.173C-333.694,-158.013 -338.922,-154.233 -345.7,-147.61C-360.659,-132.991 -364.285,-117.579 -364.285,-117.579L-373.465,-117.579C-378.565,-117.579 -395.45,-116.332 -408.935,-110.44C-422.421,-104.546 -436.586,-92.874 -447.353,-69.302C-458.118,-45.731 -459.138,-21.82 -459.138,-21.82C-459.138,-21.82 -461.971,-22.615 -466.391,-16.833C-470.81,-11.055 -469.479,1.014 -469.479,1.014C-469.479,1.014 -470.243,2.545 -470.838,4.499C-471.433,6.454 -473.558,14.188 -469.394,18.607C-465.229,23.027 -441.686,27.106 -441.686,27.106C-441.686,27.106 -438.966,31.61 -436.161,34.161C-433.356,36.711 -424.008,43.339 -416.528,43.339L-391.795,43.339C-386.865,43.339 -381.511,39.941 -381.511,39.941C-381.511,39.941 -325.501,56.259 -302.894,57.108C-280.284,57.96 -252.067,56.685 -216.881,55.749C-181.692,54.814 -172.526,52.397 -172.526,52.397L-155.091,52.52C-155.091,52.52 -153.659,58.022 -152.145,61.585C-148.292,70.652 -138.394,77.436 -132.435,77.436L-96.175,77.436C-84.91,77.436 -75.877,70.113 -75.877,70.113C-68.058,64.503 -63.384,57.025 -57.688,45.55C-51.995,34.076 -50.21,23.538 -50.21,23.538C-50.21,23.538 -47.575,24.045 -46.47,21.242C-45.366,18.436 -45.196,11.552 -45.196,11.552C-45.196,11.552 -43.921,11.977 -43.071,11.297C-42.22,10.619 -25.054,-2.216 -10.857,-14.455C3.337,-26.694 7.112,-31.199 7.112,-31.199C7.112,-31.199 8.521,-27.713 11.835,-27.713L37.334,-27.713C55.946,-27.713 54.927,-60.776 54.927,-80.919" style="fill:url(#_Linear1);fill-rule:nonzero;"/>
    </g>
    <g transform="matrix(0.759235,0,0,0.759235,165.687,149.901)">
        <path d="M0,-8.823C-1.36,-7.802 -2.976,-6.869 -2.21,-4.233C-1.444,-1.598 -0.438,7.337 -8.33,13.189C-15.894,18.799 -20.909,19.906 -25.328,19.906C-28.728,19.906 -38.162,16.929 -38.162,13.189C-38.162,12.424 -29.493,7.665 -28.983,7.496C-28.474,7.325 -28.133,7.411 -27.623,7.751C-27.112,8.09 -25.923,9.449 -22.948,9.449C-19.974,9.449 -13.515,6.22 -13.515,1.632C-13.515,-2.959 -18.954,-4.146 -20.653,-4.146C-22.354,-4.146 -22.778,-4.659 -22.184,-6.272C-21.589,-7.889 -20.058,-11.713 -19.804,-12.221C-19.548,-12.733 -19.208,-12.816 -17.849,-12.816L-12.835,-12.816C-10.795,-12.816 -4.591,-15.452 -4.591,-19.277C-4.591,-23.102 -8.585,-24.037 -10.71,-24.037C-12.835,-24.037 -15.554,-23.016 -15.894,-23.016C-16.233,-23.016 -19.634,-26.416 -20.144,-27.011C-20.653,-27.607 -20.909,-28.371 -20.909,-28.371C-20.823,-28.795 -16.489,-31.09 -7.734,-30.835C-0.854,-30.635 6.628,-27.861 6.628,-20.381C6.628,-12.902 1.359,-9.843 0,-8.823M-56.946,14.126C-61.96,16.42 -64.339,17.61 -69.524,17.61C-73.944,17.61 -81.509,13.87 -79.979,12.255C-78.448,10.642 -72.244,5.966 -71.649,5.797C-71.054,5.624 -70.799,8.09 -65.699,8.09C-63.149,8.09 -53.631,3.417 -53.631,-2.364C-53.631,-5.593 -56.86,-8.398 -60.516,-8.398L-71.479,-8.398C-72.585,-8.398 -73.434,-9.077 -72.074,-11.457C-70.714,-13.837 -62.81,-25.142 -60.431,-28.371C-58.05,-31.6 -56.852,-32.366 -56.852,-32.366C-55.147,-33.048 -31.192,-32.534 -30.938,-32.194C-30.683,-31.855 -34.593,-25.564 -34.933,-25.481C-35.272,-25.395 -52.271,-25.65 -52.78,-25.311C-52.78,-25.311 -58.136,-18.001 -58.22,-17.577C-58.306,-17.151 -57.88,-16.218 -56.605,-16.218C-55.331,-16.218 -43.942,-16.133 -43.092,-6.783C-42.241,2.567 -51.931,11.83 -56.946,14.126M-18.159,-42.251C-67.76,-42.251 -87.021,-15.662 -87.021,0.191C-87.021,16.041 -77.306,33.428 -51.909,33.428C-11.683,33.428 17.466,6.155 17.466,-13.105C17.466,-38.331 -4.694,-42.251 -18.159,-42.251" style="fill:white;fill-rule:nonzero;"/>
    </g>
    <g transform="matrix(0.759235,0,0,0.759235,340.689,129.905)">
        <path d="M0,49.218C-0.907,49.218 -1.756,46.667 -1.756,45.76C-1.756,44.856 0.17,39.188 0.623,39.188C1.076,39.188 0.851,39.869 1.36,39.869C1.871,39.869 4.477,37.715 4.477,30.291C4.477,26.553 3.285,25.59 2.211,26.213C1.701,26.495 1.758,25.42 1.758,24.456C1.758,23.493 2.041,18.223 2.041,17.714C2.041,17.203 5.383,16.579 5.383,9.327C5.383,5.023 4.307,2.698 3.625,2.698C2.946,2.698 2.153,3.776 1.871,4.343C1.691,4.697 0.057,0.942 0.057,-0.303C0.057,-1.551 1.076,-6.426 3.57,-6.426C6.062,-6.426 7.99,0.942 7.99,7.458C7.99,13.973 6.401,17.996 6.401,20.375C6.401,22.754 6.855,23.039 6.855,26.78C6.855,39.357 2.776,49.218 0,49.218M-2.775,4.737C-2.775,5.304 -2.889,5.699 -3.398,5.871C-3.909,6.039 -7.311,7.967 -7.592,7.967C-7.875,7.967 -8.159,8.42 -8.159,9.099C-8.159,9.779 -8.67,18.563 -8.611,18.902C-8.555,19.243 -8.215,19.98 -7.648,19.695C-7.082,19.412 -2.775,18.676 -2.775,31.481C-2.775,44.286 -7.592,54.77 -10.708,54.77C-12.125,54.77 -13.315,51.541 -13.146,50.747C-12.976,49.954 -11.219,44.456 -10.708,44.456C-10.197,44.456 -10.313,45.507 -9.66,45.507C-9.01,45.507 -5.496,43.269 -5.496,34.711C-5.496,29.216 -7.365,28.593 -7.988,28.593C-8.611,28.593 -11.219,30.237 -11.956,30.237C-12.691,30.237 -12.238,25.986 -12.182,23.776C-12.125,21.567 -10.665,-0.619 -10.665,-0.619C-10.149,-1.39 -4.249,-3.649 -3.854,-3.818C-3.456,-3.989 -2.775,-4.67 -2.775,-2.686L-2.775,4.737ZM-1.91,-19.284C-8.734,-19.284 -17.357,3.241 -17.357,34.136C-17.357,65.029 -12.08,68.502 -8.09,68.502C0.019,68.502 10.446,43.274 10.446,20.361C10.446,-14.135 3.109,-19.284 -1.91,-19.284" style="fill:white;fill-rule:nonzero;"/>
    </g>
    <defs>
        <linearGradient id="_Linear1" x1="0" y1="0" x2="1" y2="0" gradientUnits="userSpaceOnUse" gradientTransform="matrix(2.20836e-14,-360.653,360.653,2.20836e-14,-150.883,77.436)"><stop offset="0" style="stop-color:rgb(0,34,83);stop-opacity:1"/><stop offset="1" style="stop-color:rgb(0,94,173);stop-opacity:1"/></linearGradient>
    </defs>
</svg>
