<?xml version="1.0" encoding="UTF-8" standalone="no"?>
<!DOCTYPE svg PUBLIC "-//W3C//DTD SVG 1.1//EN" "http://www.w3.org/Graphics/SVG/1.1/DTD/svg11.dtd">
<svg width="100%" height="100%" viewBox="0 0 144 362" version="1.1" xmlns="http://www.w3.org/2000/svg" xmlns:xlink="http://www.w3.org/1999/xlink" xml:space="preserve" xmlns:serif="http://www.serif.com/" style="fill-rule:evenodd;clip-rule:evenodd;stroke-linejoin:round;stroke-miterlimit:2;">
    <g transform="matrix(1,0,0,1,-128.401,-19.4868)">
        <path d="M161.599,40.13C161.592,40.13 161.586,40.131 161.579,40.131C161.921,32.847 163.417,27.411 167.48,23.911C169.494,22.174 172.417,21.517 175.423,20.798C178.441,20.078 181.806,19.697 185.255,19.487L190.497,19.487C196.642,20.077 201.99,20.626 204.753,24.238C206.261,26.208 207.3,28.78 208.113,31.284C208.529,32.568 209.005,33.902 209.339,35.298C209.671,36.681 209.652,38.216 210.16,39.64C210.341,40.148 211.021,40.611 210.896,41.36C211.976,42.601 212.995,43.905 213.353,45.866C213.462,46.35 213.607,48.087 213.521,49.569C213.392,51.051 212.451,51.881 212.535,53.075C212.607,54.075 214.078,55.376 214.992,56.269C216.259,57.507 217.771,58.992 218.269,60.693C218.876,62.758 217.66,64.644 216.632,66.182C216.277,66.71 215.851,67.319 215.404,67.82C214.675,68.636 214.167,69.18 213.109,69.541C211.632,70.999 210.074,72.374 208.294,73.529C209.128,74.119 209.601,74.332 209.994,74.374C211.261,73.437 213.189,74.489 214.745,75.03C215.99,75.461 217.167,75.79 218.187,76.176C218.519,76.5 218.464,76.808 218.761,77.16C219.001,77.445 219.652,77.629 219.744,77.979C219.958,78.783 218.724,79.9 219.497,81.01C220.132,81.162 220.71,80.761 221.3,80.6C226.042,79.305 231.578,80.682 235.146,82.156C239.658,84.022 243.122,86.845 245.548,90.676C249.242,96.507 250.859,104.201 253.167,111.403C253.552,112.603 253.904,113.853 254.232,115.089C254.566,116.343 255.122,117.609 255.052,118.939C254.578,119.94 253.466,120.303 251.857,120.168C252.49,127.427 253.542,134.265 254.97,140.73C254.415,141.324 253.535,141.587 252.675,141.877C252.626,142.8 252.802,143.499 252.839,144.334C253.326,144.461 253.945,143.927 254.56,143.925C254.654,143.925 255.324,144.023 255.46,144.089C256.029,144.358 256.974,145.593 257.099,146.055C257.371,147.055 257.204,148.595 257.263,149.823C257.669,158.087 258.234,167.619 258.656,175.547C260.292,176.713 262.538,178.27 264.554,179.725C265.48,180.392 267.16,181.195 265.947,182.674C266.292,183.173 266.906,183.411 267.339,183.821C268.173,182.852 268.82,180.879 270.29,181.773C270.839,182.106 271.001,183.265 270.945,184.231C270.892,185.081 270.279,185.998 270.535,186.934C270.728,187.641 271.355,187.585 271.433,187.998C271.501,188.329 271.079,188.552 271.109,188.981C271.136,189.412 271.599,189.785 271.599,189.965C271.605,191.088 269.497,192.537 269.224,193.487C268.82,193.538 268.701,193.301 268.404,193.242C269.496,195.173 268.992,197.95 267.093,198.648C263.703,198.6 262.081,196.779 259.64,195.781C259.593,196.998 259.15,198.172 258.492,198.812C258.074,199.222 256.939,199.654 256.363,199.713C255.613,199.791 255.017,199.473 253.988,199.386C253.499,199.344 253.013,199.502 252.511,199.467C250.662,199.336 249.005,198.558 247.597,198.321C246.8,198.187 246.062,198.186 245.222,197.911C244.478,197.668 243.447,197.526 242.845,197.091C242.57,196.891 242.351,196.533 242.027,196.273C241.259,195.658 239.978,194.899 239.324,194.224C238.898,193.787 237.273,191.326 237.275,190.621C237.279,190.157 237.962,189.103 238.257,188.409C238.587,187.638 239.191,186.761 239.242,186.197C239.283,185.727 238.902,185.181 238.749,184.64C238.492,183.712 238.441,182.554 238.257,181.445C238.083,180.39 238.138,179.049 237.849,178.25C237.601,177.568 236.484,177.043 235.882,176.611C235.04,176.008 234.345,175.552 233.753,175.137C234.122,178.015 234.529,181.073 235.146,184.312C235.558,186.477 235.953,188.865 236.292,191.194C236.408,191.991 236.695,192.863 236.619,193.487C236.527,194.238 235.755,194.596 235.636,195.208C235.542,195.695 235.773,196.658 235.882,197.255C236.197,198.963 236.376,201.71 236.947,203.072C237.423,204.206 239.347,205.102 239.486,206.594C239.554,207.297 239.273,208.093 239.242,208.724C238.826,216.799 239.078,225.214 239.242,233.465C239.404,241.655 239.667,249.778 239.814,257.63C239.435,257.996 238.792,257.831 238.257,257.712L238.257,259.68C238.365,260.099 239.076,260.297 239.324,261.072C239.753,262.42 239.871,265.504 238.421,265.25C239.736,267.804 240.527,269.386 242.191,271.803C242.634,272.451 243.429,273.27 243.501,273.852C243.556,274.289 243.087,276.07 242.927,276.473C242.747,276.93 242.462,277.309 242.273,277.784C241.888,278.742 240.939,281.2 241.288,282.454C241.464,283.079 242.663,283.214 242.763,283.928C242.843,284.486 242.329,284.464 242.191,285.076C242.025,285.793 242.158,286.321 241.617,286.631C244.818,296.126 246.638,308.03 246.943,320.711C247.103,327.456 246.628,334.542 247.843,340.454C248.333,342.844 248.513,345.28 249.072,347.415C249.49,349.017 250.449,350.549 251.203,352.085C251.972,353.658 252.63,355.294 253.413,356.675C255.097,359.648 257.413,361.842 259.64,364.047C260.431,364.816 261.208,365.426 262.015,366.178C262.841,366.946 263.255,367.873 263.9,368.798C264.546,369.728 265.568,370.47 266.029,371.665C266.331,372.447 266.101,373.251 266.275,374.123C266.357,374.525 266.746,374.785 266.849,375.269C267.009,376.024 266.73,376.724 266.849,377.563C263.413,378.928 258.24,378.547 253.904,378.219C249.47,377.882 245.568,377.249 243.091,375.025C242.044,374.084 241.656,372.229 240.716,371.092C240.033,370.267 239.109,369.831 238.585,368.716C238.003,368.891 237.376,369.114 236.701,369.289C236.06,369.456 235.371,369.846 234.816,369.863C233.826,369.893 232.101,369.005 231.212,368.634C230.306,368.255 228.511,367.522 228.183,366.831C227.675,365.767 228.038,362.523 228.099,361.097C228.128,360.451 227.982,359.383 228.099,358.967C228.214,358.566 228.634,358.462 228.755,358.148C228.535,356.026 228.693,354.145 229.083,352.331C229.253,351.535 229.626,350.725 229.656,349.956C229.703,348.759 229.189,347.188 228.919,345.697C227.154,335.91 224.357,326.918 220.972,318.745C219.978,316.34 219.189,313.831 218.351,311.372C216.044,304.6 214.812,296.747 214.255,288.106C214.203,287.286 214.359,286.372 214.173,285.73C213.951,284.956 212.87,284.447 212.535,283.355C212.204,282.286 212.611,281.245 212.453,279.997C212.857,279.498 213.599,279.339 214.255,279.095C214.003,276.29 213.122,274.111 212.453,271.722C212.122,271.494 211.755,271.809 211.306,271.722C209.872,270.382 207.404,268.503 206.8,265.906C206.464,264.458 206.396,261.493 207.292,260.581C205.613,252.691 203.88,245.146 201.558,237.643C199.902,232.291 198.255,226.676 196.234,221.504C195.351,219.253 194.257,217.281 194.267,214.788C193.843,214.164 192.734,215.567 192.708,215.851C192.706,215.906 193.097,216.655 193.119,217.081C193.21,218.884 191.876,221.171 191.238,222.652C189.249,227.24 188.103,232.863 186.974,238.298C185.392,245.93 184.033,253.317 182.962,260.908C183.529,261.414 183.505,262.451 183.288,263.366C183.572,263.829 184.412,263.643 184.681,264.185C184.939,264.702 184.652,265.717 184.517,266.561C184.175,268.698 183.943,271.742 183.453,273.442C182.158,274.196 179.685,273.769 177.882,274.016C177.433,274.959 177.361,276.28 176.9,277.21C178.146,277.675 178.65,279.176 178.783,281.142C178.919,283.123 179.06,285.112 177.554,285.321C177.333,291.233 177.408,296.708 176.9,301.951C176.41,306.989 175.353,311.868 174.277,316.615C172.079,326.31 170.101,335.964 170.101,346.925C170.101,348.565 169.902,350.728 170.181,352.496C170.308,353.291 170.841,354.262 170.919,355.282C170.974,355.991 170.953,356.85 170.919,357.575C170.886,358.259 170.589,359.031 170.673,359.622C170.728,360.016 171.154,360.288 171.245,360.77C171.632,362.754 170.96,365.449 171.245,367.732C170.386,368.892 169.031,369.558 167.642,370.19C167.54,371.291 167.322,372.382 167.232,373.55C167.14,374.765 167.353,376.167 166.986,377.072C166.703,377.772 165.193,378.545 164.365,378.873C161.156,380.152 156.745,379.92 152.98,380.513L150.029,380.513C148.089,380.177 146.357,379.747 145.769,378.219C145.374,377.194 145.601,376.215 145.443,375.106C145.292,374.07 145.005,373.326 145.031,372.239C145.079,370.254 145.521,368.522 146.259,366.995C146.925,365.624 147.81,364.363 148.474,362.819C149.863,359.572 150.335,356.412 151.175,352.741C151.203,352.304 150.622,352.476 150.685,352.004C152.177,338.9 149.712,325.169 148.8,312.437C148.433,307.305 148.781,301.98 149.046,297.199C149.24,293.743 149.523,290.065 150.193,286.631C150.41,285.52 150.937,284.231 150.847,283.437C150.779,282.812 150.136,282.477 150.029,281.798C149.917,281.098 150.189,280.354 150.357,279.749C150.535,279.111 150.599,278.361 150.847,277.866C151.415,276.745 153.619,275.964 154.37,274.833C154.982,273.916 154.845,273.152 155.273,271.967C153.925,271.212 152.316,270.719 150.929,270.001C150.874,269.702 150.816,269.405 150.847,269.019C150.322,268.644 149.552,268.511 149.21,267.954C149.574,264.85 149.874,261.681 150.603,258.943C151.3,258.602 152.468,258.731 153.306,258.533C153.982,257.414 153.648,256.051 153.552,254.846C152.841,246.022 151.912,236.459 151.912,226.993C151.912,221.51 151.781,216.105 152.568,210.936C153.347,205.831 153.628,200.796 154.453,196.027C153.128,195.385 151.148,195.399 149.947,194.634C149.976,190.706 150.765,186.849 151.257,183.001C151.749,179.161 152.24,175.306 152.98,171.614C153.47,171.423 154.173,171.445 154.863,171.451C155.587,170.096 154.447,168.995 154.044,168.01C154.076,164.465 154.392,161.205 154.37,157.606C148.781,156.566 142.648,155.658 136.921,154.411C135.287,154.055 132.79,153.55 131.843,152.609C131.365,152.133 131.316,151.314 130.859,150.643C130.417,149.993 129.663,149.573 129.384,148.922C128.812,147.589 128.964,145.717 128.81,143.925C128.667,142.244 128.619,140.529 128.402,138.845L128.402,137.044C128.378,136.64 128.91,135.827 128.976,135.242C129.038,134.693 128.843,133.972 128.894,133.275C129.068,130.87 130.162,127.787 130.859,125.083C131.333,123.249 131.88,121.017 132.415,119.021C132.615,118.284 132.978,117.345 132.908,116.973C132.787,116.327 131.701,116.042 131.515,115.499C131.48,114.661 130.667,114.275 130.615,113.451C130.578,112.915 130.898,112.105 131.105,111.321C132.466,106.163 133.425,101.099 134.792,96.247C135.554,93.546 136.269,90.723 137.578,88.301C138.806,86.025 140.331,83.596 142.247,82.238C143.986,81.006 146.4,79.645 148.8,78.962C152.128,78.015 156.808,78.19 160.187,78.88C159.841,77.678 159.781,76.488 159.697,75.276C159.601,73.918 159.794,72.421 159.533,71.261C159.423,70.785 159.027,70.414 158.876,70.032C158.439,68.925 158.119,67.598 158.22,66.1C158.269,65.414 158.607,64.641 158.632,63.807C158.644,63.321 158.419,62.766 158.466,62.168C158.521,61.505 158.689,60.561 158.958,59.874C159.712,57.955 161.904,56.509 161.744,53.976C161.712,53.497 161.451,52.937 161.335,52.42C160.765,49.871 160.999,46.499 162.072,44.718C162.113,44.268 161.974,43.643 161.931,43.335L161.939,43.335C161.749,42.515 161.511,41.058 161.599,40.13ZM194.185,65.772C193.456,65.365 192.898,64.748 192.054,64.461C191.722,64.349 191.3,64.373 190.99,64.216C190.595,64.016 190.343,63.568 189.925,63.315C189.226,62.893 188.49,62.867 187.794,62.496C187.185,61.712 186.626,60.878 185.255,60.857C184.181,60.103 183.412,59.04 182.306,58.318C181.103,58.5 179.984,58.139 179.439,57.416C178.771,57.567 178.079,57.209 177.472,57.416C177.001,57.577 177.103,58.063 176.734,58.481C176.281,58.999 175.64,58.81 174.933,59.055C174.294,59.275 173.574,60.104 173.622,60.939C173.134,61.353 172.48,61.598 171.82,61.84C171.419,62.918 170.138,62.797 169.281,63.315C168.861,63.569 168.728,63.947 168.38,64.134C167.624,64.539 166.445,64.586 166.331,65.527C166.884,65.588 166.992,65.203 167.396,65.118C168.263,65.346 168.896,64.591 169.609,64.38C169.994,64.266 170.47,64.367 170.837,64.216C171.173,64.078 171.361,63.618 171.74,63.396C172.183,63.136 172.878,63.135 173.294,62.905C173.624,62.722 173.808,62.278 174.113,62.085C175.011,61.523 176.201,61.66 177.062,60.939C179.277,60.784 180.951,61.223 182.306,61.758C183.482,62.223 184.32,62.429 185.419,62.905C185.82,63.079 186.234,63.295 186.648,63.478C187.544,63.873 188.501,64.037 189.351,64.38C189.681,64.513 189.927,64.825 190.251,64.954C191.15,65.305 192.14,65.402 193.037,65.772C193.898,66.127 194.66,66.5 195.495,66.919C195.546,66.071 194.652,66.033 194.185,65.772ZM170.837,78.061C170.152,77.823 169.591,77.145 169.117,76.914C167.933,76.335 167.929,78.383 167.724,79.044C167.55,79.602 167.244,79.849 167.232,80.19C167.179,81.726 168.828,82.848 170.591,82.075C170.917,81.335 171.273,80.625 172.148,80.436C172.355,79.734 172.874,79.031 172.804,78.306C172.009,78.14 171.386,78.251 170.837,78.061ZM191.482,81.829C191.861,81.615 191.929,81.054 192.302,80.518C192.488,80.246 192.915,79.982 193.037,79.781C193.609,78.832 193.697,77.659 193.037,76.914C192.066,75.814 190.156,76.315 188.859,77.16C188.595,78.754 187.492,80.878 188.943,81.911C189.816,82.047 190.802,82.21 191.482,81.829ZM230.558,134.914C230.992,137.029 231.201,139.632 231.54,141.795C231.648,142.475 231.999,143.449 231.376,143.925C230.128,143.262 229.785,141.693 228.509,141.058C228.374,142.833 228.337,144.708 228.345,146.629C228.826,147.321 231.111,147.999 231.212,148.922C231.314,149.834 230.128,150.118 229.984,151.053C231.062,151.398 230.435,152.591 230.066,153.264C230.634,153.924 230.712,155.074 230.64,156.377C231.517,157.411 233.527,157.313 233.507,159.245C234.111,159.295 234.115,159.947 234.654,160.063C234.578,157.688 233.896,154.446 235.146,152.854C234.343,151.562 235.689,151.261 235.472,150.315C235.277,149.456 233.552,149.45 233.669,148.431C233.744,147.806 234.505,147.854 235.146,147.612C234.144,146.375 233.917,144.185 233.507,142.041C232.941,139.081 232.197,136.285 230.558,134.668L230.558,134.914ZM162.4,57.007C162.847,56.481 163.335,55.293 162.318,55.04C162.162,55.612 162.076,56.518 162.4,57.007ZM179.357,72.162C178.824,71.256 177.874,71.867 176.734,71.834C176.398,72.125 176.478,72.833 176.244,73.227C174.322,73.134 175.329,75.972 174.933,77.405C174.556,77.272 174.402,77.424 174.113,77.569C174.419,79.017 174.138,81.469 175.917,81.174C176.224,81.56 176.765,81.823 177.31,81.747C177.453,82.313 177.642,82.834 177.8,83.386C178.265,83.961 178.962,83.376 179.931,83.468C180.236,83.497 180.472,83.707 180.667,83.714C181.65,83.746 181.806,82.662 181.978,81.993C182.654,82.012 182.634,81.338 182.962,81.01C183.199,81.271 183.849,81.185 184.109,81.01C184.4,79.67 184.175,77.1 182.634,77.324C182.451,76.032 182.31,74.697 181.734,73.8C181.437,73.602 181.091,73.717 180.831,73.636C180.79,73.048 180.607,72.606 180.341,72.245C180.093,72.135 179.714,72.162 179.357,72.162ZM195.413,44.145C192.626,44.335 190.093,44.227 187.058,44.227C186.097,44.227 183.644,43.989 183.453,44.882C183.337,45.414 184.009,46.038 184.273,46.276C186.49,48.265 188.749,49.407 192.138,50.289C194.216,50.831 196.341,51.275 197.544,50.126C198.044,49.646 198.726,48.681 199.019,48.077C199.027,48.057 199.57,46.84 199.755,46.029C199.962,45.125 200.064,43.816 199.509,43.736C199.41,43.721 199.273,43.818 199.263,43.818C198.06,43.713 196.708,44.057 195.413,44.145ZM153.388,131.309C154.306,131.593 155.247,131.852 156.337,131.965C155.974,130.962 154.79,130.782 154.453,129.752L154.206,129.752C153.943,130.281 153.607,130.737 153.388,131.309ZM203.443,56.925C205.372,54.316 204.283,50.129 202.378,48.159C202.273,48.155 202.263,48.054 202.13,48.077C201.56,49.07 201.13,50.839 200.492,52.01C200.144,52.651 199.038,53.561 199.019,54.222C199.007,54.593 199.433,55.24 199.673,55.696C200.216,56.729 200.792,57.401 200.656,58.973C201.689,58.416 202.742,57.871 203.443,56.925ZM168.216,50.207C169.886,49.107 171.529,48.066 173.376,47.013C173.865,46.734 175.843,45.855 175.507,44.882C175.294,44.272 173.798,44.511 173.048,44.555C170.488,44.703 166.48,44.455 163.956,44.882C164.119,46.968 163.788,50.232 165.185,51.354C166.548,51.516 167.406,50.741 168.216,50.207Z" style="fill:url(#_Linear1);"/>
    </g>
    <g transform="matrix(1,0,0,1,70.862,31.6838)">
        <path d="M0,-7.353C0.01,-7.353 0.146,-7.45 0.246,-7.435C0.801,-7.355 0.699,-6.045 0.492,-5.142C0.307,-4.331 -0.236,-3.114 -0.244,-3.094C-0.537,-2.49 -1.219,-1.524 -1.719,-1.045C-2.922,0.104 -5.047,-0.34 -7.125,-0.881C-10.514,-1.764 -12.773,-2.906 -14.99,-4.895C-15.254,-5.133 -15.926,-5.756 -15.811,-6.289C-15.619,-7.182 -13.166,-6.943 -12.205,-6.943C-9.17,-6.943 -6.637,-6.836 -3.85,-7.025C-2.555,-7.114 -1.203,-7.457 0,-7.353" style="fill:white;"/>
    </g>
    <g transform="matrix(1,0,0,1,36.784,24.9469)">
        <path d="M0,6.92C-1.396,5.798 -1.066,2.534 -1.229,0.448C1.295,0.021 5.303,0.269 7.863,0.121C8.613,0.077 10.109,-0.162 10.322,0.448C10.658,1.421 8.68,2.3 8.191,2.579C6.344,3.632 4.701,4.673 3.031,5.774C2.221,6.307 1.363,7.082 0,6.92" style="fill:white;"/>
    </g>
    <g transform="matrix(1,0,0,1,72.254,28.5676)">
        <path d="M0,10.918C0.137,9.346 -0.439,8.674 -0.982,7.642C-1.223,7.185 -1.648,6.538 -1.637,6.167C-1.617,5.507 -0.512,4.596 -0.164,3.956C0.475,2.785 0.904,1.016 1.475,0.022C1.607,0 1.617,0.1 1.723,0.105C3.627,2.074 4.717,6.261 2.787,8.871C2.086,9.816 1.033,10.362 0,10.918" style="fill:white;"/>
    </g>
    <g transform="matrix(1,0,0,1,33.917,37.5204)">
        <path d="M0,-1.967C1.018,-1.715 0.529,-0.527 0.082,0C-0.242,-0.49 -0.156,-1.396 0,-1.967" style="fill:white;"/>
    </g>
    <g transform="matrix(1,0,0,1,67.094,37.7223)">
        <path d="M0,9.71C-0.836,9.291 -1.598,8.918 -2.459,8.563C-3.355,8.193 -4.346,8.096 -5.244,7.744C-5.568,7.616 -5.814,7.303 -6.145,7.17C-6.994,6.828 -7.951,6.664 -8.848,6.269C-9.262,6.086 -9.676,5.87 -10.076,5.696C-11.176,5.22 -12.014,5.013 -13.189,4.549C-14.545,4.013 -16.219,3.574 -18.434,3.73C-19.295,4.45 -20.484,4.314 -21.383,4.876C-21.688,5.069 -21.871,5.513 -22.201,5.696C-22.617,5.926 -23.313,5.926 -23.756,6.187C-24.135,6.408 -24.322,6.869 -24.658,7.006C-25.025,7.157 -25.502,7.056 -25.887,7.17C-26.6,7.381 -27.232,8.137 -28.1,7.908C-28.504,7.994 -28.611,8.379 -29.164,8.317C-29.051,7.377 -27.871,7.329 -27.115,6.925C-26.768,6.737 -26.635,6.36 -26.215,6.106C-25.357,5.587 -24.076,5.709 -23.676,4.63C-23.016,4.389 -22.361,4.144 -21.873,3.73C-21.922,2.895 -21.201,2.066 -20.563,1.845C-19.855,1.601 -19.215,1.79 -18.762,1.272C-18.393,0.854 -18.494,0.368 -18.023,0.207C-17.416,0 -16.725,0.357 -16.057,0.207C-15.512,0.929 -14.393,1.291 -13.189,1.109C-12.084,1.831 -11.314,2.894 -10.24,3.647C-8.869,3.669 -8.311,4.502 -7.701,5.286C-7.006,5.657 -6.27,5.684 -5.57,6.106C-5.152,6.359 -4.9,6.807 -4.506,7.006C-4.195,7.164 -3.773,7.139 -3.441,7.252C-2.598,7.539 -2.039,8.156 -1.311,8.563C-0.844,8.823 0.051,8.862 0,9.71" style="fill:white;"/>
    </g>
    <g transform="matrix(1,0,0,1,51.94,63.4861)">
        <path d="M0,-10.729C0.266,-10.368 0.449,-9.925 0.49,-9.337C0.75,-9.256 1.096,-9.372 1.393,-9.173C1.969,-8.276 2.109,-6.942 2.293,-5.65C3.834,-5.874 4.059,-3.304 3.768,-1.964C3.508,-1.789 2.857,-1.702 2.621,-1.964C2.293,-1.635 2.313,-0.962 1.637,-0.98C1.465,-0.312 1.309,0.772 0.326,0.74C0.131,0.733 -0.105,0.523 -0.41,0.494C-1.379,0.403 -2.076,0.988 -2.541,0.412C-2.699,-0.139 -2.889,-0.66 -3.031,-1.227C-3.576,-1.15 -4.117,-1.414 -4.424,-1.8C-6.203,-1.505 -5.922,-3.957 -6.229,-5.404C-5.939,-5.55 -5.785,-5.701 -5.408,-5.569C-5.012,-7.002 -6.02,-9.84 -4.098,-9.746C-3.863,-10.14 -3.943,-10.849 -3.607,-11.139C-2.467,-11.107 -1.518,-11.717 -0.984,-10.812C-0.627,-10.812 -0.248,-10.839 0,-10.729" style="fill:white;"/>
    </g>
    <g transform="matrix(1,0,0,1,60.542,56.626)">
        <path d="M0,5.798C-1.451,4.765 -0.348,2.641 -0.084,1.047C1.213,0.202 3.123,-0.299 4.094,0.8C4.754,1.546 4.666,2.719 4.094,3.668C3.973,3.869 3.545,4.133 3.359,4.404C2.986,4.941 2.918,5.502 2.539,5.716C1.859,6.097 0.873,5.934 0,5.798" style="fill:white;"/>
    </g>
    <g transform="matrix(1,0,0,1,44.403,61.3901)">
        <path d="M0,-2.571C0.07,-1.846 -0.449,-1.143 -0.656,-0.441C-1.531,-0.252 -1.887,0.458 -2.213,1.198C-3.977,1.971 -5.625,0.848 -5.572,-0.687C-5.561,-1.028 -5.254,-1.275 -5.08,-1.833C-4.875,-2.494 -4.871,-4.542 -3.688,-3.964C-3.213,-3.732 -2.652,-3.054 -1.967,-2.816C-1.418,-2.626 -0.795,-2.738 0,-2.571" style="fill:white;"/>
    </g>
    <defs>
        <linearGradient id="_Linear1" x1="0" y1="0" x2="1" y2="0" gradientUnits="userSpaceOnUse" gradientTransform="matrix(2.27857e-14,-372.118,372.118,2.27857e-14,187.146,390)"><stop offset="0" style="stop-color:rgb(0,34,83);stop-opacity:1"/><stop offset="1" style="stop-color:rgb(0,94,173);stop-opacity:1"/></linearGradient>
    </defs>
</svg>
