<?xml version="1.0" encoding="UTF-8" standalone="no"?>
<!DOCTYPE svg PUBLIC "-//W3C//DTD SVG 1.1//EN" "http://www.w3.org/Graphics/SVG/1.1/DTD/svg11.dtd">
<svg width="100%" height="100%" viewBox="0 0 5032 5032" version="1.1" xmlns="http://www.w3.org/2000/svg" xmlns:xlink="http://www.w3.org/1999/xlink" xml:space="preserve" xmlns:serif="http://www.serif.com/" style="fill-rule:evenodd;clip-rule:evenodd;stroke-linejoin:round;stroke-miterlimit:2;">
    <g transform="matrix(-4105.82,3.55564e-13,5.02818e-13,2903.4,2515.75,2473.49)">
        <rect x="-0.613" y="-0.852" width="1.225" height="1.733" style="fill:rgb(238,59,150);"/>
    </g>
    <g transform="matrix(1.67717,0,0,1.67717,0,0)">
        <path d="M2282.78,3000.29L2151.41,3000.29C2151.41,3000.29 1938.56,2480.28 1887,2361.21C1835.16,2242.27 1800.6,2162.98 1800.6,2162.98C1800.6,2162.98 1836.89,2241.47 1891.32,2359.21C1940.56,2465.08 2005.13,2602.48 2072.05,2742.63C2048.13,2688.3 2033.38,2655.06 2033.38,2655.06C2033.38,2655.06 2060.7,2712.6 2102.4,2799.53C2077.2,2739.56 2053.44,2683.72 2032.65,2635.39C1987.43,2530.22 1956.56,2460.46 1956.56,2460.46C1956.56,2460.46 1965.65,2478.71 1981.63,2510.43C1981.31,2509.7 1980.99,2508.98 1980.67,2508.26C1928.05,2389.58 1892.12,2310.88 1892.12,2310.88C1892.12,2310.88 1930.6,2388.26 1989.59,2503.72C2015.36,2554.19 2045.12,2611.9 2077.28,2673.6C2075.27,2669.14 2073.28,2664.74 2071.31,2660.4C2025.87,2560.03 1994.9,2493.46 1994.9,2493.46C1994.9,2493.46 2007.71,2517.86 2029.63,2559.07L2007.12,2510.61C2007.12,2510.61 2035.75,2564.77 2078.69,2646.02C2121.86,2727.15 2282.78,3000.29 2282.78,3000.29ZM2438.82,2005.62C2408.73,1988.65 2380.22,1972.64 2353.82,1957.86C2244.09,1896.77 2170.94,1856.05 2170.94,1856.05C2170.94,1856.05 2227.97,1885.96 2317.04,1932.66C2320.44,1934.4 2324.18,1936.31 2328.23,1938.38C2357.6,1953.25 2418.52,1983.95 2498.28,2023.43C2612.21,2079.86 2764.75,2153.8 2918.07,2225.48C2945.43,2238.29 2973.09,2251.03 3000.29,2263.61L3000.29,2350.88L2764.03,2199.93C2764.03,2199.93 2773.31,2204.78 2789.53,2213.23C2718.46,2170.35 2651.73,2130.61 2595.55,2097.54C2497.61,2039.84 2431.94,2002.08 2431.94,2002.08C2431.94,2002.08 2434.31,2003.3 2438.82,2005.62ZM976.158,434.633C990.468,465.436 998.807,483.387 998.807,483.387C998.807,483.387 970.179,429.224 927.239,347.979C884.069,266.851 731.832,0 731.832,0L863.575,0C863.575,0 1067.37,513.722 1118.94,632.787C1170.78,751.728 1205.33,831.021 1205.33,831.021C1205.33,831.021 1169.05,752.528 1114.62,634.789C1065.38,528.918 1000.81,391.535 933.891,251.389C957.806,305.707 972.552,338.939 972.552,338.939C972.552,338.939 945.219,281.366 903.499,194.408C928.71,254.407 952.483,310.27 973.286,358.617C1018.51,463.783 1049.38,533.547 1049.38,533.547C1049.38,533.547 1040.32,515.367 1024.4,483.769C1024.69,484.424 1024.98,485.077 1025.27,485.73C1077.89,604.405 1113.82,683.11 1113.82,683.11C1113.82,683.11 1075.34,605.725 1016.35,490.267C990.581,439.801 960.827,382.097 928.667,320.4C930.682,324.856 932.67,329.252 934.633,333.584C980.071,433.954 1011.04,500.524 1011.04,500.524C1011.04,500.524 998.174,476.01 976.158,434.633ZM0,727.625L0,648.98L241.902,794.068L216.319,780.722C216.319,780.722 354.182,863.379 410.379,896.468C508.321,954.17 573.997,991.924 573.997,991.924C573.997,991.924 571.649,990.715 567.168,988.416C597.236,1005.36 625.721,1021.37 652.109,1036.14C761.836,1097.22 834.987,1137.95 834.987,1137.95C834.987,1137.95 777.336,1107.72 687.454,1060.58C684.497,1059.07 681.303,1057.44 677.882,1055.69C648.584,1040.86 587.584,1010.11 507.667,970.558C393.73,914.125 87.867,768.511 87.867,768.511L0,727.625ZM0,1313.16L0,1245.11C0,1245.11 284.253,1305.23 393.034,1324.89C517.78,1347.46 601.091,1361.51 601.091,1361.51C601.091,1361.51 517.252,1350.64 391.276,1335.85C342.657,1330.13 287.758,1323.88 229.005,1317.45C298.078,1329.04 341.266,1336.29 341.266,1336.29L0,1313.16ZM352.637,2234.79C495.361,2148.74 632.168,2064.17 738.686,1997.19C866.408,1916.93 950.88,1862.38 950.88,1862.38C950.88,1862.38 867.534,1918.83 743.526,2005.07C619.404,2091.33 455.343,2207.52 292.707,2326.27C191.322,2400.17 90.58,2475.01 0,2543.15L0,2390.18L267.308,2244.72C267.308,2244.72 228.68,2269.51 172.039,2306.26C314.053,2226.35 453.57,2145.64 559.124,2083.5C670.245,2018.13 743.833,1973.74 743.833,1973.74C743.833,1973.74 671.809,2020.56 564.514,2092.01C503.106,2132.87 430.216,2181.91 352.637,2234.79ZM1704.07,3000.29L1649.39,3000.29C1640.04,2857.48 1629.67,2719.38 1620.83,2611.51C1610.24,2481.88 1602.24,2395.56 1602.24,2395.56C1602.24,2395.56 1613.08,2481.49 1630.74,2610.24C1638.22,2664.86 1646.99,2727.19 1656.68,2793.92C1651.43,2739.43 1646.38,2688.59 1641.83,2643.99C1630.69,2537.71 1623.26,2466.86 1623.26,2466.86C1623.26,2466.86 1633.5,2537.4 1648.87,2643.21C1663.39,2741.29 1683.05,2869.91 1704.07,3000.29ZM3000.29,1679.65L3000.29,1742.92C3000.29,1742.92 2720.19,1688.49 2612.91,1669.1C2488.16,1646.52 2404.85,1632.48 2404.85,1632.48C2404.85,1632.48 2488.69,1643.34 2614.66,1658.14C2663.3,1663.87 2718.21,1670.11 2776.99,1676.54C2707.89,1664.95 2664.68,1657.7 2664.68,1657.7C2664.68,1657.7 2939.72,1673.76 3000.29,1679.65ZM2653.39,759.15C2510.63,845.215 2373.79,929.801 2267.26,996.795C2139.53,1077.06 2055.06,1131.61 2055.06,1131.61C2055.06,1131.61 2138.41,1075.16 2262.41,988.921C2386.54,902.659 2911.24,517.477 3000.29,450.532L3000.29,606.5C2865.53,680.89 2738.62,749.278 2738.62,749.278C2738.62,749.278 2777.21,724.516 2833.8,687.8C2691.82,767.691 2552.34,848.38 2446.81,910.502C2335.69,975.874 2262.1,1020.26 2262.1,1020.26C2262.1,1020.26 2334.13,973.441 2441.42,901.998C2502.85,861.117 2575.77,812.057 2653.39,759.15ZM1349.25,199.926C1354.5,254.471 1359.56,305.371 1364.11,350.005C1375.25,456.286 1382.68,527.139 1382.68,527.139C1382.68,527.139 1372.43,456.6 1357.07,350.79C1342.77,254.212 1314.54,128.311 1293.89,0L1356.95,0C1366.19,140.667 1376.39,276.125 1385.11,382.478C1395.7,512.113 1403.7,598.432 1403.7,598.432C1403.7,598.432 1392.86,512.497 1375.21,383.75C1367.73,329.089 1358.94,266.715 1349.25,199.926ZM0,1113.14L0,1055.13C0,1055.13 305.77,1154.98 421.583,1190.9C542.735,1228.51 623.769,1252.61 623.769,1252.61C623.769,1252.61 541.833,1231.6 418.533,1201.57C370.945,1189.96 317.185,1177.07 259.62,1163.53C326.818,1183.45 368.835,1195.91 368.835,1195.91L0,1113.14ZM0,1715.16L0,1643.68C0,1643.68 492.58,1611.46 647.672,1596.68C802.772,1581.95 905.983,1570.58 905.983,1570.58C905.983,1570.58 802.961,1584.4 648.702,1607.47C494.577,1630.47 0,1715.16 0,1715.16ZM1798.48,3000.29L1734.5,3000.29C1734.5,3000.29 1679.27,2527.45 1655.38,2373.81C1643.18,2296.99 1633.02,2232.97 1625.91,2188.16C1618.57,2143.36 1614.37,2117.76 1614.37,2117.76C1614.37,2117.76 1633.54,2219.61 1664.15,2372.05C1694.72,2524.5 1737.25,2727.45 1782.66,2929.82C1787.9,2953.25 1793.18,2976.95 1798.48,3000.29ZM1535.55,3000.29L1364.05,3000.29C1364.05,3000.29 1421.31,2524.62 1433.33,2389.35C1445.03,2254.05 1452.83,2163.85 1452.83,2163.85C1452.83,2163.85 1448.12,2236.26 1440.79,2348.68C1451.04,2235.04 1456.83,2162.96 1456.83,2162.96C1456.83,2162.96 1450.88,2264.28 1443.8,2416.38C1437.39,2553.15 1430.52,2730.53 1425.67,2912.32C1441.61,2720.12 1454.88,2530.87 1463.83,2386.39C1468.39,2308.72 1472.19,2244 1474.85,2198.69C1477.28,2153.35 1478.67,2127.44 1478.67,2127.44C1478.67,2127.44 1475.56,2231.07 1472.77,2386.6C1472.16,2420.2 1471.59,2456.22 1471.08,2494.14C1476.65,2397.94 1479.47,2337.47 1479.47,2337.47C1479.47,2337.47 1478.85,2428.05 1479.93,2563.98C1480.21,2600.89 1480.65,2641.15 1481.28,2683.84C1484.55,2581.78 1486.72,2513.89 1486.72,2513.89C1486.72,2513.89 1486.84,2560.62 1487.02,2634.81C1491.13,2519.89 1494.29,2412.35 1496.45,2321.7C1500.39,2158.78 1501.71,2050.17 1501.71,2050.17C1501.71,2050.17 1502.07,2158.73 1504.59,2321.58C1507.06,2484.43 1534.44,2973.26 1535.55,3000.29ZM3000.29,1881.33L3000.29,1939.26C3000.29,1939.26 2698.68,1838.54 2584.36,1803.09C2463.21,1765.48 2382.17,1741.38 2382.17,1741.38C2382.17,1741.38 2464.11,1762.38 2587.41,1792.42C2634.99,1804.03 2688.75,1816.92 2746.31,1830.46C2679.12,1810.54 2637.11,1798.08 2637.11,1798.08C2637.11,1798.08 2703.55,1813.63 2803.2,1836.95C2859.99,1850.03 2927.93,1865.34 3000.29,1881.33ZM3000.29,1279.91L3000.29,1346.52C2976.28,1348.05 2951.92,1349.62 2927.84,1351.24C2720.42,1365.06 2513.36,1382.53 2358.27,1397.31C2203.17,1412.03 2099.96,1423.41 2099.96,1423.41C2099.96,1423.41 2202.98,1409.59 2357.24,1386.51C2511.36,1363.51 2716.45,1330.64 2921.09,1294.1C2947.44,1289.42 2974.07,1284.68 3000.29,1279.91ZM1207.63,0L1266.25,0C1268.67,18.55 1326.68,466.537 1350.56,620.177C1362.76,697 1372.92,761.019 1380.03,805.832C1387.38,850.628 1391.57,876.226 1391.57,876.226C1391.57,876.226 1372.4,774.375 1341.79,621.933C1311.22,469.485 1212.47,21.349 1207.63,0ZM1518.91,359.482C1514.8,474.291 1511.65,581.719 1509.49,672.292C1505.55,835.206 1504.23,943.819 1504.23,943.819C1504.23,943.819 1503.87,835.261 1501.35,672.41C1498.89,509.56 1477.01,25.049 1476,0L1636.42,0C1635.52,7.841 1584.62,469.375 1572.6,604.649C1560.91,739.947 1553.11,830.146 1553.11,830.146L1565.13,645.479C1554.88,759.032 1549.1,831.042 1549.1,831.042C1549.1,831.042 1555.05,729.727 1562.13,577.621C1568.54,440.877 1575.42,263.543 1580.26,81.797C1564.33,273.96 1551.05,463.149 1542.11,607.597C1537.55,685.268 1533.75,749.993 1531.09,795.301C1528.66,840.643 1527.27,866.552 1527.27,866.552C1527.27,866.552 1530.38,762.917 1533.17,607.385C1533.78,573.78 1534.35,537.751 1534.87,499.821C1529.29,596.041 1526.47,656.523 1526.47,656.523C1526.47,656.523 1527.09,565.941 1526.01,430.012C1525.73,393.036 1525.28,352.704 1524.65,309.927C1521.38,412.111 1519.21,480.106 1519.21,480.106C1519.21,480.106 1519.1,433.505 1518.91,359.482ZM3000.29,2230.92L3000.29,2263.78C2864.31,2190.94 2757.27,2131.09 2757.27,2131.09C2757.27,2131.09 2836.16,2169.55 2945.64,2222.19C2838.48,2165.69 2760.92,2125.32 2760.92,2125.32C2760.92,2125.32 2960.91,2212.3 3000.29,2230.92ZM1199.64,3000.29L1012.76,3000.29C1012.76,3000.29 1123.5,2725.25 1148.56,2651.25C1184.01,2541.44 1216.97,2437.86 1243.74,2352.82C1284.15,2223.31 1311.1,2136.97 1311.1,2136.97C1311.1,2136.97 1292.03,2202.97 1262.21,2306.2C1305.73,2170.18 1332.98,2080.81 1332.98,2080.81C1332.98,2080.81 1304.66,2182.01 1264.42,2334.47C1224.16,2486.78 1172.66,2690.35 1124.64,2894.97C1120.42,2912.87 1116.24,2930.77 1112.08,2948.65C1134.68,2871.86 1149.92,2819.12 1149.92,2819.12C1149.92,2819.12 1143.23,2846.43 1132.59,2890.49C1173.12,2758.39 1210.37,2631.64 1239.14,2530.49C1276.37,2399.77 1299.9,2312.3 1299.9,2312.3C1299.9,2312.3 1279.88,2400.59 1251.8,2533.52C1224.98,2660.23 1191.34,2830.39 1160,3000.29C1162.27,2991.84 1164.5,2980.78 1166.68,2972.65C1172.74,2948.11 1178.81,2923.43 1184.84,2898.74C1225.22,2733.92 1264.35,2568.81 1293.12,2444.85L1340.57,2238.15C1340.57,2238.15 1323.61,2321.29 1298.16,2446C1273.01,2570.78 1199.64,3000.29 1199.64,3000.29ZM1308.73,3000.29L1198.83,3000.29C1198.83,3000.29 1268.76,2733.01 1289.67,2632.23C1311.08,2527.57 1325.35,2457.8 1325.35,2457.8C1325.35,2457.8 1319.89,2491.2 1310.85,2546.49L1310.88,2546.36C1310.88,2546.36 1310.45,2549.04 1309.64,2554.16C1316.43,2519.96 1322.81,2487.58 1328.68,2457.6C1352.71,2333.21 1368.73,2250.29 1368.73,2250.29C1368.73,2250.29 1354.75,2333.61 1333.77,2458.58C1320.75,2537.31 1305.31,2632.62 1289.27,2734.13C1306.44,2649.18 1316.93,2594.88 1316.93,2594.88C1316.93,2594.88 1306.44,2667.65 1291.83,2777C1288.21,2804.05 1284.36,2833.34 1280.35,2864.33C1303.38,2749.39 1324.03,2640.76 1340.27,2551.65C1364.69,2417.87 1379.65,2328.49 1379.65,2328.49C1379.65,2328.49 1368.27,2418.34 1353.16,2553.41C1339.4,2676.1 1323.03,2836.49 1308.73,3000.29ZM1540.8,2571.2C1540.11,2536.41 1539.4,2503.47 1538.7,2472.99C1535.51,2346.29 1533.37,2261.83 1533.37,2261.83C1533.37,2261.83 1537.58,2346.23 1543.89,2472.82C1544.99,2493.87 1546.17,2516.09 1547.43,2539.28C1546.49,2495.96 1545.48,2454.99 1544.45,2417.17C1540.36,2265.07 1536.4,2163.74 1536.4,2163.74C1536.4,2163.74 1542.54,2265.04 1553.61,2416.91C1563.52,2553.46 1577.79,2730.37 1594.61,2911.41C1587.57,2718.67 1578.23,2529.2 1569.92,2384.69C1565.21,2307.03 1561.28,2242.31 1558.53,2197.01C1555.55,2151.7 1553.85,2125.81 1553.85,2125.81C1553.85,2125.81 1563.09,2229.07 1578.83,2383.81C1594.52,2538.56 1617.23,2744.74 1642.87,2950.63C1644.91,2967.1 1646.97,2983.85 1649.04,3000.29L1534.35,3000.29C1535.24,2910.01 1540.36,2563.55 1540.36,2563.55C1540.36,2563.55 1540.51,2566.18 1540.8,2571.2ZM0,1990.23L0,1938.97C77.341,1918.22 128.442,1904.25 128.442,1904.25C128.442,1904.25 91.815,1915.91 33.853,1934.61C159.496,1900.21 283.617,1865.33 377.587,1838.48C475.662,1810.22 541.045,1791.38 541.045,1791.38C541.045,1791.38 476.381,1812.51 379.385,1844.2C282.457,1876.12 0,1990.23 0,1990.23ZM0,2103.96L0,1989.83L333.125,1908.63C333.125,1908.63 273.004,1930.54 182.026,1964.1C272.332,1934.61 357.536,1906.28 426.702,1882.97C526.804,1848.91 593.539,1826.2 593.539,1826.2C593.539,1826.2 527.718,1851.62 428.986,1889.75C399.818,1901.11 367.797,1913.65 333.778,1927.06C450.371,1887.51 559.667,1849.47 649.676,1817.52C791.56,1767.2 885.713,1732.49 885.713,1732.49C885.713,1732.49 792.253,1769.3 652.714,1826.27C513.059,1883.23 328.002,1960.64 143.787,2040.86C95.504,2061.85 47.32,2083.01 0,2103.96ZM0,762.657L0,727.634L248.66,862.902L60.326,771.82L245.018,868.673L0,762.657ZM1743.77,687.661C1700.23,823.762 1672.96,913.192 1672.96,913.192C1672.96,913.192 1701.27,811.999 1741.52,659.535C1781.77,507.224 1833.28,303.655 1881.29,99.039C1885.51,81.121 1889.7,63.202 1893.86,45.309C1871.26,122.108 1856.01,174.872 1856.01,174.872C1856.01,174.872 1862.67,147.653 1873.29,103.73C1832.78,235.743 1795.56,362.408 1766.8,463.498C1729.57,594.217 1706.04,681.691 1706.04,681.691C1706.04,681.691 1726.06,593.4 1754.14,460.471C1780.77,334.643 1814.15,168.688 1845.3,0L1982.67,0C1969,38.198 1882.41,268.808 1857.35,342.832C1821.9,452.61 1788.95,556.152 1762.2,641.178C1721.78,770.688 1694.84,857.028 1694.84,857.028C1694.84,857.028 1713.92,790.973 1743.77,687.661ZM1725.59,129.689C1702.56,244.617 1681.9,353.234 1665.67,442.339C1641.25,576.117 1626.29,665.5 1626.29,665.5C1626.29,665.5 1637.68,575.651 1652.78,440.58C1666.37,319.387 1684.76,0 1684.76,0L1805.78,0C1776.58,131.939 1736.86,262.494 1716.26,361.769C1694.85,466.427 1680.58,536.199 1680.58,536.199C1680.58,536.199 1686.09,502.529 1695.19,446.837C1695.37,445.7 1695.74,443.343 1696.3,439.847C1689.51,474.045 1683.13,506.423 1677.26,536.401C1653.23,660.783 1637.21,743.704 1637.21,743.704L1672.16,535.421C1685.17,456.737 1700.61,361.492 1716.64,260.053C1699.49,344.884 1689.01,399.11 1689.01,399.11C1689.01,399.11 1699.5,326.338 1714.11,216.988C1717.73,189.948 1721.58,160.664 1725.59,129.689ZM1411.34,82.618C1418.38,275.344 1427.71,464.797 1436.02,609.298C1440.73,686.959 1444.66,751.677 1447.41,796.98C1450.39,842.287 1452.09,868.178 1452.09,868.178C1452.09,868.178 1442.85,764.917 1427.12,610.177C1411.43,455.434 1388.72,249.254 1363.07,43.36C1361.28,28.898 1359.48,14.442 1357.66,0L1476.31,0C1475.46,88.018 1465.58,430.441 1465.58,430.441C1465.58,430.441 1465.43,427.757 1465.13,422.641C1465.83,457.491 1466.53,490.478 1467.23,521.011C1470.43,647.706 1472.56,732.171 1472.56,732.171C1472.56,732.171 1468.36,647.771 1462.05,521.172C1460.95,500.094 1459.76,477.847 1458.5,454.626C1459.45,497.989 1460.45,538.987 1461.48,576.84C1465.58,728.934 1469.54,830.265 1469.54,830.265C1469.54,830.265 1463.39,728.962 1452.32,577.1C1442.42,440.556 1428.15,263.651 1411.34,82.618ZM2972.14,1059.36C2846.48,1093.77 2722.33,1128.67 2628.35,1155.52C2530.27,1183.78 2464.89,1202.62 2464.89,1202.62C2464.89,1202.62 2529.55,1181.49 2626.55,1149.8C2723.48,1117.88 3000.29,1000.43 3000.29,1000.43L3000.29,1056.62C2926.26,1076.49 2877.49,1089.75 2877.49,1089.75C2877.49,1089.75 2914.14,1078.08 2972.14,1059.36ZM2672.24,1066.9C2555.62,1106.47 2446.3,1144.51 2356.27,1176.47C2214.38,1226.79 2120.23,1261.5 2120.23,1261.5C2120.23,1261.5 2213.69,1224.69 2353.23,1167.72C2492.88,1110.76 2954.89,909.176 3000.29,889.086L3000.29,1000.17L2672.81,1085.36C2672.81,1085.36 2732.89,1063.46 2823.81,1029.93C2733.54,1059.41 2648.38,1087.73 2579.23,1111.03C2479.13,1145.09 2412.4,1167.79 2412.4,1167.79C2412.4,1167.79 2478.22,1142.38 2576.95,1104.25C2606.14,1092.88 2638.19,1080.32 2672.24,1066.9ZM1892.26,3000.29C1892.26,3000.29 1816.61,2654.22 1797.72,2580.27C1770.18,2473.38 1751.81,2402.13 1751.81,2402.13C1751.81,2402.13 1772.31,2472.75 1803.07,2578.68C1834.06,2684.54 1875.99,2825.53 1918.91,2966.22C1922.34,2977.49 1932.8,3000.29 1932.8,3000.29L1892.26,3000.29ZM3000.29,2141.68L3000.29,2177.42C2969.17,2162.36 2937.23,2147.1 2905.56,2131.9C2779.98,2071.57 2653.99,2012.18 2559.31,1968.06C2464.53,1924.17 2401.35,1894.91 2401.35,1894.91L2561.7,1962.66C2658.01,2003.08 2786.67,2056.4 2915.72,2108.79C2924.59,2112.4 2933.47,2116 2942.33,2119.59C2961.01,2126.78 2980.58,2134.17 3000.29,2141.68ZM0,1571.17L0,1485.09L312.73,1496.22L61.096,1500.14L313.074,1502.74L199.741,1504.79C199.741,1504.79 518.694,1511.04 642.14,1511.55C797.919,1512.25 901.735,1511.14 901.735,1511.14C901.735,1511.14 797.871,1514.7 642.122,1522.4C568.918,1525.99 484.279,1530.65 393.592,1536.24C445.843,1535.23 494.767,1534.18 538.577,1533.16C663.767,1529.93 747.228,1527.77 747.228,1527.77C747.228,1527.77 663.831,1532.03 538.737,1538.41C413.653,1545.11 26.626,1569.36 0,1571.17ZM0,2377.32L0,2103.88C0,2103.88 549.912,1901.21 692.549,1843.31C763.813,1814.11 823.199,1789.78 864.77,1772.75C906.273,1755.49 929.99,1745.63 929.99,1745.63C929.99,1745.63 836.179,1787.31 696.201,1851.58C581.363,1904.26 435.599,1972.48 284.939,2044.99C418.937,1987.1 548.43,1930.27 649.025,1885.65C766.553,1833.18 844.904,1798.21 844.904,1798.21C844.904,1798.21 767.344,1834.93 651.003,1890.02C534.785,1945.38 380.139,2019.88 226.011,2095.53C176.048,2120.02 126.14,2144.64 77.584,2168.7C145.113,2140.25 189.617,2121.08 189.617,2121.08C189.617,2121.08 166.312,2133.43 128.082,2153.68C146.067,2145.77 164.087,2137.82 182.098,2129.83C365.875,2048.53 548.417,1964.59 684.738,1900.43C821.08,1836.31 911.427,1792.45 911.427,1792.45C911.427,1792.45 821.973,1838.33 688.606,1908.84C560.151,1976.69 391.681,2067.55 222.692,2161.7C328.058,2111.31 427.393,2062.74 507.562,2022.9C621.327,1966.4 696.702,1927.84 696.702,1927.84C696.702,1927.84 622.761,1969.28 512.555,2032.79C470.009,2057.29 422.098,2085.13 370.971,2115.13C433.438,2083.11 472.496,2063.09 472.496,2063.09C472.496,2063.09 413.544,2097.78 325.115,2149.81C279.359,2176.94 225.808,2208.96 168.599,2243.5C281.822,2183.4 393.073,2123.4 477.567,2077.38C567.249,2028.26 627.038,1995.52 627.038,1995.52C627.038,1995.52 568.442,2030.34 480.547,2082.57C392.768,2135.01 276.019,2205.44 159.754,2276.73C112.723,2305.55 0,2362.34 0,2362.34L51.704,2345.36L0,2377.32ZM1363.44,3000.29L1319.39,3000.29C1320.9,2989.12 1373.22,2650.47 1387.9,2531.88C1402.31,2413.25 1411.92,2334.17 1411.92,2334.17C1411.92,2334.17 1404.37,2413.5 1393.03,2532.51C1392.75,2535.53 1392.47,2538.57 1392.18,2541.63C1396.44,2505.34 1400.41,2471.01 1404.05,2439.27C1418.54,2310.11 1428.2,2224 1428.2,2224C1428.2,2224 1420.43,2310.3 1408.78,2439.75C1397.42,2569.23 1383.03,2741.96 1369.87,2914.8C1367.69,2943.27 1365.54,2972.01 1363.44,3000.29ZM0,3000.29L0,2754.51C0,2754.51 164.747,2629.64 255.598,2556.25C437.362,2409.72 616.71,2260.3 616.71,2260.3C616.71,2260.3 557.607,2313.11 474.328,2388.51C513.301,2356.34 537.438,2336.25 537.438,2336.25C537.438,2336.25 505.535,2365.2 456.522,2410.08C466.923,2401.53 476.972,2393.25 486.621,2385.29C565.661,2319.6 618.354,2275.81 618.354,2275.81C618.354,2275.81 568.24,2322.61 493.068,2392.81C418.119,2463.27 318.755,2557.87 220.333,2653.53C170.859,2701.56 121.644,2749.85 75.69,2795.26C106.883,2768.1 138.84,2740.19 170.762,2712.19C372.297,2535.9 571.56,2357.08 571.56,2357.08C571.56,2357.08 479.613,2444.01 359.647,2558.95C446.201,2484.28 528.171,2412.34 593.156,2354.6C678.338,2278.95 734.579,2227.92 734.579,2227.92C734.579,2227.92 680.68,2281.53 600.654,2362.83C563.651,2400.4 521.114,2443.95 475.73,2490.83C557.598,2416.57 634.234,2345.92 696.534,2287.77C789.715,2200.85 851.134,2142.18 851.134,2142.18C851.134,2142.18 791.899,2203.2 704.101,2295.82C616.47,2388.2 500.737,2512.3 386.807,2637.92C404.939,2620.19 423.191,2602.31 441.42,2584.41C545.929,2481.86 649.706,2378.58 727.201,2300.79C804.519,2222.83 856.064,2170.85 856.064,2170.85C856.064,2170.85 806.139,2224.37 731.251,2304.66C725.462,2310.9 719.525,2317.3 713.454,2323.85C797.355,2239.8 875.396,2160.54 940.45,2093.73C1053.51,1977.69 1127.92,1899.41 1127.92,1899.41C1127.92,1899.41 1054.77,1978.81 946.463,2099.28C912.985,2136.5 876.188,2177.67 837.165,2221.64C841.344,2217.19 845.461,2212.8 849.514,2208.48C935.894,2115.9 993.479,2054.18 993.479,2054.18C993.479,2054.18 937.405,2117.32 853.294,2212.04C787.467,2286.53 704.775,2380.83 618.91,2479.82C670.615,2424 702.999,2388.81 702.999,2388.81C702.999,2388.81 556.477,2555.49 394.327,2743.71C499.49,2634.44 603.19,2523.99 680.387,2440.53C757.851,2356.81 808.891,2300.47 808.891,2300.47C808.891,2300.47 760.43,2359.15 688.644,2447.98C678.303,2460.77 667.484,2474.19 656.26,2488.15C764.493,2369.17 866.589,2254.14 946.83,2162.12C1049.95,2043.95 1117.5,1964.17 1117.5,1964.17C1117.5,1964.17 1051.74,2045.61 954.885,2169.28C895.521,2245.03 824.699,2336.76 750.09,2435.21C766.353,2416.02 781.864,2397.65 796.474,2380.28C878.638,2282.64 932.63,2216.91 932.63,2216.91C932.63,2216.91 881.085,2284.7 804.943,2387.34C747.43,2464.82 676.103,2562.3 602.269,2665.18C675.868,2572.91 726.402,2508.92 726.402,2508.92C726.402,2508.92 633.03,2633.68 518.797,2788.85C561.791,2735.91 605.746,2681.37 649.459,2626.62C784.373,2457.91 917.168,2286.9 1015.53,2157.93C1113.96,2028.95 1178.53,1942.18 1178.53,1942.18C1178.53,1942.18 1115.35,2029.92 1022.16,2162.71C928.939,2295.47 806.144,2473.61 685.845,2653.57C678.17,2665.03 670.505,2676.5 662.859,2687.96C728.187,2598.09 772.369,2536.72 772.369,2536.72C772.369,2536.72 714.96,2620.98 636.16,2738.03C718.815,2623.87 778.068,2541.05 778.068,2541.05C778.068,2541.05 772.509,2549.26 762.478,2564.12C849.722,2442.48 933.272,2324.57 998.254,2232.09C1075.76,2121.21 1127.43,2047.3 1127.43,2047.3C1127.43,2047.3 1077.35,2122.3 1002.24,2234.8C964.628,2291.42 920.886,2357.65 874.236,2428.75C896.655,2397.39 909.527,2379.19 909.527,2379.19C909.527,2379.19 868.4,2443.36 807.703,2540.28C791.077,2566.82 773.004,2595.83 753.913,2626.65C846.541,2494.85 934.153,2367.37 1002.48,2266.35C1087.45,2140.83 1143.05,2056.47 1143.05,2056.47C1143.05,2056.47 1089.23,2142.11 1010.05,2271.59C967.905,2340.46 918.794,2421.67 866.771,2508.93C871.384,2502.02 873.847,2498.34 873.847,2498.34C873.847,2498.34 838.96,2557.63 786.629,2646.57C769.421,2676.04 750.396,2708.81 730.199,2743.81C819.089,2607.03 888.86,2497.41 888.86,2497.41C888.86,2497.41 855.754,2553.6 807.479,2636.61C909.553,2478.58 1007.15,2323.55 1081.73,2203C1167.23,2064.9 1223.1,1972.16 1223.1,1972.16C1223.1,1972.16 1168.7,2065.73 1088.8,2207.1C1022.59,2324.17 939.19,2474.22 854.356,2630.83C887.581,2574.52 907.922,2539.82 907.922,2539.82C907.922,2539.82 857.227,2631.01 787.102,2758.77C860.869,2633.29 913.18,2543.18 913.18,2543.18C913.18,2543.18 868.353,2624.59 804.799,2741.39C829.617,2700.36 852.703,2661.9 873.182,2627.53C929.539,2533 966.448,2469.61 966.448,2469.61C966.448,2469.61 932.62,2534.7 882.877,2632.89C852.473,2692.87 816.233,2765.26 778.08,2842.67C792.935,2816.4 807.882,2789.89 822.794,2763.36C905.433,2616.48 986.955,2468.98 1047.58,2358.08C1107.94,2247.04 1148.18,2173.01 1148.18,2173.01C1148.18,2173.01 1109.76,2248.04 1052.14,2360.59C994.786,2473.28 746.08,3000.29 746.08,3000.29L0,3000.29ZM463.97,2278.71C595.134,2186.31 719.46,2096.43 817.518,2024.21C943.509,1931.49 1026.55,1868.43 1026.55,1868.43C1026.55,1868.43 944.904,1933.5 823.847,2032.97C702.866,2132.3 543.031,2266.44 385.416,2403.5C246.605,2523.97 0,2754.42 0,2754.42L0,2543.25C75.218,2493.19 147.5,2448.87 204.125,2410.68C272.935,2364.12 318.809,2333.08 318.809,2333.08C318.809,2333.08 267.179,2370.85 191.902,2426.44C222.452,2406.2 241.601,2393.42 241.601,2393.42C241.601,2393.42 155.749,2458.45 60.458,2532.07C90.828,2512.15 121.599,2491.86 152.318,2471.47C171.662,2458.65 190.982,2445.79 210.165,2432.97C224.747,2422.93 239.38,2412.83 254.005,2402.71C368.798,2323.37 483.004,2243.2 568.387,2182.7C653.626,2122 710.452,2081.53 710.452,2081.53C710.452,2081.53 664.577,2116.6 593.687,2170.79C631.239,2144.53 653.213,2128.98 653.213,2128.98C653.213,2128.98 593.327,2175.63 504.212,2246.59C491.37,2256.81 477.926,2267.54 463.97,2278.71ZM1142.46,152.066C1166.35,248.585 1189.32,339.73 1208.21,413.728C1235.75,520.613 1254.12,591.869 1254.12,591.869C1254.12,591.869 1233.62,521.248 1202.86,415.318C1171.87,309.453 1129.94,168.471 1087.02,27.775C1084.2,18.511 1081.37,9.251 1078.54,0L1107.36,0L1149.16,175.081C1149.16,175.081 1146.76,166.815 1142.46,152.066ZM0,861.989L0,810.718C0,810.718 351.949,981.816 446.627,1025.93C541.403,1069.82 604.586,1099.08 604.586,1099.08C604.586,1099.08 540.445,1071.99 444.234,1031.34C347.925,990.918 0,861.989 0,861.989ZM0,1419.96L0,1313.79C26.845,1318.07 388.553,1368.91 480.386,1380.55C597.604,1395.13 675.748,1404.86 675.748,1404.86C675.748,1404.86 610.717,1398.51 510.268,1388.72C531.068,1391.51 551.363,1394.21 571.071,1396.8L571.883,1396.89C699.514,1411.56 784.602,1421.34 784.602,1421.34C784.602,1421.34 756.257,1418.72 707.738,1414.25C827.813,1429.2 904.425,1437.78 904.425,1437.78C904.425,1437.78 800.893,1428.66 645.361,1417.33C553.59,1410.61 443.729,1403.35 326.388,1396.62C351.852,1399.47 376.196,1402.14 399.17,1404.62C434.507,1408.45 466.593,1411.85 494.524,1414.77C539.784,1419.05 582.381,1422.99 621.221,1426.53C754.912,1438.36 844.04,1446.25 844.04,1446.25C844.04,1446.25 754.79,1440.3 620.916,1431.37C528.146,1425.41 413.921,1418.47 293.074,1411.69C316.344,1413.85 329.574,1415.04 329.574,1415.04C329.574,1415.04 310.395,1414.06 277.583,1412.47C355.525,1420.11 404.624,1424.51 404.624,1424.51L0,1419.96ZM2298.35,1579.76C2178.2,1564.79 2101.52,1556.21 2101.52,1556.21C2101.52,1556.21 2205.05,1565.33 2360.58,1576.66C2452.29,1583.38 2562.06,1590.63 2679.31,1597.35C2653.93,1594.52 2629.66,1591.85 2606.76,1589.38C2570.96,1585.5 2538.51,1582.06 2510.32,1579.12C2465.47,1574.89 2423.24,1570.98 2384.71,1567.47C2251.02,1555.63 2161.9,1547.74 2161.9,1547.74C2161.9,1547.74 2251.15,1553.69 2385.02,1562.62C2477.74,1568.58 2591.91,1575.51 2712.68,1582.3C2689.52,1580.15 2676.36,1578.96 2676.36,1578.96C2676.36,1578.96 2695.49,1579.94 2728.22,1581.52C2650.35,1573.89 2601.31,1569.49 2601.31,1569.49C2601.31,1569.49 2920.51,1569.98 3000.29,1571.54L3000.29,1679.25C2975.41,1675.29 2617.55,1625.11 2525.55,1613.45C2408.33,1598.86 2330.19,1589.14 2330.19,1589.14C2330.19,1589.14 2395.25,1595.49 2495.75,1605.28C2474.95,1602.49 2454.65,1599.79 2434.93,1597.2L2434.05,1597.1C2306.42,1582.44 2221.33,1572.66 2221.33,1572.66C2221.33,1572.66 2249.74,1575.28 2298.35,1579.76ZM2806.32,1489.21C2643.41,1485 2487.28,1482.95 2363.8,1482.44C2208.02,1481.74 2104.21,1482.85 2104.21,1482.85C2104.21,1482.85 2208.07,1479.29 2363.82,1471.59C2437.02,1468 2521.66,1463.34 2612.34,1457.75C2560.09,1458.76 2511.17,1459.81 2467.36,1460.83C2342.17,1464.07 2258.71,1466.23 2258.71,1466.23C2258.71,1466.23 2342.1,1461.97 2467.2,1455.59C2592.28,1448.89 3000.29,1414.29 3000.29,1414.29L3000.29,1502.24C2825.9,1499.2 2693.2,1497.77 2693.2,1497.77C2693.2,1497.77 2798.45,1496.48 2944.88,1493.86C2798.28,1492.01 2692.86,1491.26 2692.86,1491.26C2692.86,1491.26 2736.35,1490.56 2806.32,1489.21ZM1839.18,21.637C1833.14,46.08 1827.1,70.661 1821.09,95.255C1780.72,260.077 1741.59,425.186 1712.82,549.144C1684.34,673.168 1665.36,755.851 1665.36,755.851C1665.36,755.851 1682.33,672.709 1707.78,547.995C1732.93,423.215 1799.61,29.801 1805.17,0L1845,0C1843.02,7.332 1841.08,14.549 1839.18,21.637ZM1613.75,452.333C1609.49,488.632 1605.52,522.975 1601.88,554.721C1587.39,683.888 1577.73,769.998 1577.73,769.998C1577.73,769.998 1585.49,683.697 1597.15,554.245C1608.51,424.762 1634.71,26.305 1636.67,0L1685.13,0C1683.89,9.175 1632.71,343.523 1618.04,462.121C1603.62,580.747 1594.02,659.831 1594.02,659.831C1594.02,659.831 1601.57,580.492 1612.9,461.484C1613.18,458.459 1613.47,455.409 1613.75,452.333ZM2227.9,151.239C2213.03,177.537 2198.07,204.071 2183.14,230.631C2100.5,377.515 2018.97,525.013 1958.35,635.913C1897.99,746.958 1857.75,820.989 1857.75,820.989C1857.75,820.989 1896.17,745.956 1953.79,633.407C2011.14,520.712 2215.7,70.071 2249.78,0L2373.73,0C2234.12,232.147 2098.01,454.172 2098.01,454.172C2098.01,454.172 2148.71,362.965 2218.85,235.191C2145.07,360.691 2092.75,450.814 2092.75,450.814C2092.75,450.814 2137.57,369.419 2201.12,252.63C2176.31,293.643 2153.23,332.096 2132.76,366.457C2076.4,460.986 2039.49,524.382 2039.49,524.382C2039.49,524.382 2073.32,459.293 2123.07,361.101C2153.48,301.103 2189.73,228.683 2227.9,151.239ZM2541.97,715.276C2410.81,807.674 2286.48,897.557 2188.42,969.778C2062.43,1062.5 1979.39,1125.56 1979.39,1125.56C1979.39,1125.56 2061.04,1060.49 2182.1,961.022C2303.08,861.685 2462.91,727.55 2620.53,590.492C2756.85,472.173 3000.29,246.778 3000.29,246.778L3000.29,450.525C2927.21,499.181 2856.94,546.126 2801.81,583.31C2733,629.873 2687.12,660.915 2687.12,660.915C2687.12,660.915 2738.73,623.154 2813.99,567.584C2783.46,587.811 2764.33,600.574 2764.33,600.574C2764.33,600.574 2850.22,535.518 2945.54,461.885C2915.15,481.814 2884.36,502.118 2853.62,522.52C2834.27,535.346 2814.95,548.208 2795.76,561.026C2781.18,571.074 2766.54,581.176 2751.92,591.291C2637.13,670.628 2522.93,750.794 2437.54,811.297C2352.3,871.998 2295.48,912.466 2295.48,912.466C2295.48,912.466 2341.4,877.366 2412.35,823.135C2374.74,849.432 2352.73,865.006 2352.73,865.006C2352.73,865.006 2412.61,818.355 2501.73,747.399C2514.57,737.179 2528.02,726.448 2541.97,715.276ZM1691.32,2396.84C1685.09,2364.12 1679.08,2332.9 1673.36,2303.5C1642.29,2143.59 1620.3,2037.28 1620.3,2037.28C1620.3,2037.28 1643.92,2143.17 1681.28,2301.59C1703.45,2395.75 1730.67,2508.43 1760.56,2628.47C1757.83,2614.93 1755.16,2601.77 1752.56,2589.04C1726.63,2461.64 1708.42,2376.93 1708.42,2376.93C1708.42,2376.93 1729.4,2460.92 1762.24,2586.57C1776.58,2641.48 1793.25,2704.33 1811.42,2771.6C1810.41,2766.82 1809.41,2762.11 1808.43,2757.46C1785.59,2649.51 1769.62,2577.72 1769.62,2577.72C1769.62,2577.72 1866.06,2910.06 1892.88,3000.29L1799.21,3000.29C1794.07,2969.54 1788.85,2938.33 1783.56,2907.38C1782.69,2902.65 1781.83,2897.91 1780.96,2893.18C1749.81,2722.71 1717.45,2552.48 1692.63,2424.93C1667.52,2297.45 1650.78,2212.45 1650.78,2212.45C1650.78,2212.45 1666.76,2285.14 1691.32,2396.84ZM2151.84,3000.29L1931.92,3000.29C1923.49,2966.87 1914.94,2932.96 1906.3,2899.34C1854.85,2698.49 1800.57,2498.48 1758.58,2348.86C1737.34,2274.08 1719.63,2211.77 1707.24,2168.15C1694.62,2124.57 1687.41,2099.67 1687.41,2099.67C1687.41,2099.67 1718.56,2198.45 1767.08,2346.05C1813.55,2487.51 1876.42,2673.65 1942.45,2860.86C1924.8,2799.1 1908.08,2741.55 1893.36,2691.65C1860.98,2581.74 1838.64,2508.72 1838.64,2508.72C1838.64,2508.72 1845.5,2527.96 1857.59,2561.4C1857.36,2560.64 1857.12,2559.87 1856.89,2559.11C1818.77,2434.88 1792.46,2352.37 1792.46,2352.37C1792.46,2352.37 1820.54,2431.29 1864.14,2549.86C1837.64,2465.31 1812.41,2386.6 1790.13,2318.41C1741.29,2168.71 1707.27,2069.44 1707.27,2069.44C1707.27,2069.44 1743.6,2167.97 1800.3,2314.98C1856.9,2461.87 1934.4,2656.82 2015.33,2850.53C2026.61,2877.6 2037.96,2904.64 2049.31,2931.53C1994.91,2768.96 1938.61,2609.23 1894.54,2488.14C1848.12,2360.47 1815.95,2275.86 1815.95,2275.86C1815.95,2275.86 1851.43,2359.02 1906.51,2483C1961.55,2607 2151.84,3000.29 2151.84,3000.29ZM1194.52,222.408C1195.53,227.179 1196.53,231.886 1197.51,236.526C1220.35,344.481 1236.32,416.266 1236.32,416.266C1236.32,416.266 1216.96,345.381 1186.82,239.337C1167.4,170.972 1133.83,87.998 1107.7,0L1207.74,0C1212.59,28.96 1288.48,441.513 1313.3,569.063L1355.15,781.543C1355.15,781.543 1339.2,709.012 1314.69,597.533C1320.89,630.108 1326.88,661.205 1332.58,690.493C1363.65,850.394 1385.65,956.71 1385.65,956.71C1385.65,956.71 1362.02,850.817 1324.66,692.394C1302.49,598.24 1275.27,485.575 1245.39,365.549C1248.12,379.079 1250.79,392.225 1253.38,404.946C1279.32,532.347 1297.52,617.065 1297.52,617.065C1297.52,617.065 1276.54,533.075 1243.7,407.416C1229.36,352.513 1212.69,289.672 1194.52,222.408ZM956.68,62.603C1011.07,225.125 1067.35,384.798 1111.4,505.846C1157.82,633.522 1189.99,718.129 1189.99,718.129C1189.99,718.129 1154.51,634.967 1099.43,510.989C1044.39,386.993 862.957,0 862.957,0L1078.52,0C1078.52,0 1205.37,495.513 1247.36,645.126C1268.6,719.904 1286.31,782.219 1298.7,825.839C1311.32,869.415 1318.53,894.316 1318.53,894.316C1318.53,894.316 1287.38,795.542 1238.86,647.938C1192.37,506.407 1129.46,320.136 1063.4,132.832C1081.08,194.713 1097.83,252.368 1112.57,302.36C1144.95,412.271 1167.3,485.288 1167.3,485.288C1167.3,485.288 1160.46,466.114 1148.4,432.767C1148.62,433.473 1148.83,434.178 1149.05,434.881C1187.17,559.105 1213.48,641.614 1213.48,641.614C1213.48,641.614 1185.36,562.573 1141.69,443.849C1168.23,528.507 1193.5,607.321 1215.8,675.596C1264.65,825.3 1298.67,924.567 1298.67,924.567C1298.67,924.567 1262.33,826.033 1205.63,679.026C1149.03,532.133 1071.53,337.183 990.604,143.48C979.341,116.451 968.012,89.45 956.68,62.603ZM2585.93,1909.64C2491.61,1871.1 2403.3,1835.65 2328.02,1805.89C2256.32,1777.82 2196.57,1754.42 2154.74,1738.04C2112.81,1721.87 2088.85,1712.63 2088.85,1712.63C2088.85,1712.63 2185.43,1747.23 2330.95,1797.34C2420.39,1828.17 2528.38,1864.66 2643.75,1902.69C2616.76,1892.53 2601.16,1886.7 2601.16,1886.7C2601.16,1886.7 2666.96,1908.7 2762.81,1940.09C2657.34,1901.01 2557.06,1864.37 2476.25,1835.14C2364.95,1795.17 2290.75,1768.53 2290.75,1768.53C2290.75,1768.53 2365.64,1793.2 2477.97,1830.21C2590.4,1866.96 3000.29,1990.81 3000.29,1990.81L3000.29,2114.14C2796.27,2023.07 2595.8,1937.1 2595.8,1937.1C2595.8,1937.1 2663.19,1962.81 2760.46,1999.14C2683.34,1965.56 2611.14,1934.64 2549.6,1908.65C2432.66,1859.22 2354.34,1827.22 2354.34,1827.22C2354.34,1827.22 2433.86,1856.23 2553.66,1898.33C2564.12,1902.01 2574.89,1905.78 2585.93,1909.64ZM2252.01,367.372C2159.39,499.159 2071.78,626.626 2003.46,727.635C1918.5,853.159 1862.89,937.522 1862.89,937.522C1862.89,937.522 1916.71,851.883 1995.89,722.4C2038.02,653.559 2087.11,572.386 2139.11,485.17C2134.53,492.016 2132.09,495.67 2132.09,495.67C2132.09,495.67 2166.97,436.374 2219.31,347.431C2236.52,317.949 2255.56,285.166 2275.76,250.146C2186.86,386.939 2117.07,496.583 2117.07,496.583C2117.07,496.583 2226.76,310.444 2337.96,115.188C2254.51,248.249 2191.47,350.158 2191.47,350.158C2191.47,350.158 2241.59,263.997 2309.72,145.451C2237.71,261.446 2185.68,346.274 2185.68,346.274C2185.68,346.274 2269.19,184.974 2373.72,0L3000.29,0L3000.29,246.546C2931.77,300.731 2389.22,733.696 2389.22,733.696C2389.22,733.696 2448.32,680.896 2531.59,605.497C2492.63,637.665 2468.5,657.743 2468.5,657.743C2468.5,657.743 2500.4,628.802 2549.41,583.92C2539.01,592.467 2528.97,600.741 2519.32,608.702C2440.28,674.387 2387.59,718.177 2387.59,718.177C2387.59,718.177 2437.7,671.376 2512.87,601.175C2587.82,530.716 2687.19,436.116 2785.61,340.454C2835.09,292.416 2884.31,244.129 2930.27,198.709C2899.07,225.878 2867.1,253.796 2835.17,281.8C2633.64,458.091 2434.37,636.918 2434.37,636.918C2434.37,636.918 2526.3,550.004 2646.26,435.078C2559.72,509.739 2477.76,581.661 2412.79,639.393C2327.6,715.042 2271.36,766.066 2271.36,766.066C2271.36,766.066 2325.26,712.457 2405.29,631.159C2442.26,593.622 2484.75,550.127 2530.08,503.291C2448.26,577.516 2371.67,648.117 2309.4,706.233C2216.22,793.153 2154.8,851.824 2154.8,851.824C2154.8,851.824 2214.04,790.805 2301.83,698.189C2389.49,605.774 2505.28,481.622 2619.24,355.971C2601.08,373.729 2582.79,391.645 2564.52,409.583C2460.01,512.132 2356.23,615.412 2278.73,693.204C2201.42,771.172 2149.87,823.15 2149.87,823.15C2149.87,823.15 2199.8,769.624 2274.68,689.335C2349.39,608.872 2448.56,501.143 2546.98,392.694C2563.67,374.313 2580.35,355.91 2596.88,337.622C2493.2,443.679 2416.05,523.529 2416.05,523.529C2416.05,523.529 2500.95,430.761 2609.96,310.076C2566.33,355.049 2521.12,401.857 2476.05,448.797C2359.07,570.534 2243.02,693.154 2156.42,785.521C2070.04,878.098 2012.45,939.816 2012.45,939.816C2012.45,939.816 2068.52,876.673 2152.64,781.958C2218.47,707.462 2301.17,613.148 2387.04,514.149C2335.32,569.981 2302.93,605.182 2302.93,605.182C2302.93,605.182 2449.44,438.531 2611.57,250.326C2506.42,359.578 2402.74,470.002 2325.55,553.46C2248.09,637.176 2197.05,693.522 2197.05,693.522C2197.05,693.522 2245.51,634.835 2317.3,546.007C2327.65,533.207 2338.48,519.776 2349.71,505.802C2241.47,624.797 2139.36,739.837 2059.11,831.866C1955.99,950.036 1888.44,1029.82 1888.44,1029.82C1888.44,1029.82 1954.2,948.383 2051.06,824.707C2110.42,748.964 2181.24,657.242 2255.84,558.794C2239.58,577.981 2224.07,596.354 2209.46,613.726C2127.3,711.367 2073.3,777.095 2073.3,777.095C2073.3,777.095 2124.85,709.302 2200.99,606.662C2258.53,529.15 2329.89,431.633 2403.75,328.699C2330.1,421.035 2279.53,485.079 2279.53,485.079C2279.53,485.079 2424.9,290.826 2574.79,85.632C2562.04,101.369 2549.17,117.294 2536.33,133.242C2411.57,287.668 2289.2,443.946 2289.2,443.946C2289.2,443.946 2314.1,409.095 2352.1,355.389C2265.73,467.362 2182.05,577.161 2117.92,662.006C2046.37,757.096 1998.68,820.49 1998.68,820.49C1998.68,820.49 2044.73,755.829 2113.8,658.836C2137.03,626.073 2162.8,589.581 2190.23,550.592C2188.97,552.265 2187.72,553.928 2186.48,555.58C2123.58,639.691 2081.65,695.766 2081.65,695.766C2081.65,695.766 2121.7,638.276 2181.78,552.042C2241.66,465.664 2321,350.124 2399.53,233.989C2415.61,210.226 2431.65,186.442 2447.5,162.886C2329.41,324.143 2233.56,457.273 2233.56,457.273C2233.56,457.273 2290.98,373.005 2369.79,255.937C2287.12,370.113 2227.86,452.942 2227.86,452.942C2227.86,452.942 2233.42,444.732 2243.45,429.876C2156.21,551.514 2072.66,669.426 2007.68,761.909C1930.17,872.783 1878.5,946.699 1878.5,946.699C1878.5,946.699 1928.58,871.698 2003.69,759.197C2041.29,702.594 2085.01,636.396 2131.64,565.324C2109.26,596.633 2096.41,614.797 2096.41,614.797C2096.41,614.797 2137.54,550.633 2198.24,453.704C2214.86,427.178 2232.93,398.182 2252.01,367.372ZM2312.32,2725.2C2234.85,2596.99 2158.4,2474.19 2097.64,2378.59C2024.97,2264.15 1975.43,2188.62 1975.43,2188.62C1975.43,2188.62 2027.89,2262.01 2108.23,2370.95C2175.91,2462.78 2263.7,2579.63 2356.18,2699.3C2291.99,2604.67 2229.68,2513.87 2180.52,2442.81C2120.54,2356.55 2080.55,2299.04 2080.55,2299.04C2080.55,2299.04 2122.44,2355.17 2185.28,2439.37C2248.31,2523.42 2332.85,2635.12 2418.21,2746.21C2445.54,2781.81 2472.95,2817.35 2499.72,2851.93C2365.89,2663.38 2247.01,2499.04 2247.01,2499.04L2641.93,3000.29L2425.34,3000.29C2425.34,3000.29 2168.27,2531.18 2110.04,2437.75C2051.6,2344.45 2012.64,2282.25 2012.64,2282.25C2012.64,2282.25 2053.45,2343.19 2114.65,2434.58C2168.81,2515.07 2239.31,2618.96 2312.32,2725.2ZM2403.92,2582.49C2285.52,2431.29 2167.17,2284.08 2075.96,2172.53C2026.75,2112.74 1985.75,2062.92 1957.04,2028.05C1928.15,1993.3 1911.64,1973.45 1911.64,1973.45C1911.64,1973.45 1979.46,2051.16 2082.62,2166.49C2185.74,2281.84 2324.6,2434.45 2465.65,2585.08C2540.45,2665.08 2615.86,2744.51 2686.36,2817.99C2669.45,2797.47 2652.36,2776.81 2635.22,2756.18C2541.61,2643.4 2446.67,2531.82 2374.88,2448.7C2303.1,2365.56 2254.69,2310.66 2254.69,2310.66C2254.69,2310.66 2305.63,2363.11 2382.87,2440.99C2454.29,2513.04 2548.4,2606.64 2645.22,2700.89C2635.86,2690.31 2626.45,2679.71 2617.03,2669.12C2535.77,2577.67 2453.76,2486.97 2391.89,2419.29C2329.85,2351.79 2288.48,2306.79 2288.48,2306.79C2288.48,2306.79 2332.06,2349.55 2397.44,2413.67C2462.99,2477.62 2550.86,2562.42 2639.49,2646.46C2671.24,2676.6 2703.09,2706.63 2733.98,2735.63C2684.46,2683.33 2631.06,2627.21 2577.46,2571.31C2476.13,2465.54 2374.08,2360.52 2297.21,2282.09C2220.17,2203.85 2168.81,2151.68 2168.81,2151.68C2168.81,2151.68 2221.7,2202.21 2301.03,2277.99C2378.51,2351.67 2481.58,2448.86 2585.95,2545.94C2556.2,2515.78 2538.26,2497.71 2538.26,2497.71C2538.26,2497.71 2638.51,2590.74 2761.91,2703.13C2693.08,2634.34 2616.08,2557.87 2538.71,2481.79C2418.42,2363.4 2297.26,2245.95 2205.99,2158.31C2114.51,2070.89 2053.53,2012.61 2053.53,2012.61C2053.53,2012.61 2115.92,2069.36 2209.51,2154.48C2303.31,2239.38 2428.9,2351.99 2555.36,2463.64C2681.76,2575.35 2809.03,2686.09 2904.86,2768.71L2908.59,2771.91C2880.7,2744.68 2850.82,2715.64 2820.84,2686.7C2702.85,2572.5 2583.36,2460.01 2583.36,2460.01C2583.36,2460.01 2618.47,2489.68 2670.32,2533.07C2593.15,2459.8 2515.99,2387.66 2446.52,2323.38C2442.01,2319.34 2439.62,2317.21 2439.62,2317.21C2439.62,2317.21 2440.6,2318.05 2442.49,2319.66C2406.78,2286.63 2373.15,2255.73 2342.67,2227.9C2247.27,2140.72 2183.07,2083.33 2183.07,2083.33C2183.07,2083.33 2249.09,2138.47 2349.03,2220.11C2365.4,2233.49 2382.69,2247.57 2400.75,2262.23C2366.39,2231.29 2346.02,2213.15 2346.02,2213.15C2346.02,2213.15 2402.83,2259.01 2488.77,2326.91C2510.06,2343.74 2533.15,2361.91 2557.61,2381.06C2471.1,2302.95 2388.78,2230.1 2320.9,2170.96C2219.06,2082.16 2150.33,2024.02 2150.33,2024.02C2150.33,2024.02 2221.26,2079.27 2328.9,2160.57C2436.51,2241.91 2581.19,2348.86 2727.77,2453.3C2731.48,2455.95 2735.19,2458.6 2738.9,2461.24C2721.64,2446.88 2704.28,2432.46 2686.85,2418.04C2671.7,2405.83 2663.16,2398.96 2663.16,2398.96C2663.16,2398.96 2665.33,2400.58 2669.43,2403.64C2662.3,2397.75 2655.17,2391.87 2648.03,2385.99C2489.12,2254.88 2328.42,2126.13 2207.1,2030.67C2146.25,1983.11 2095.54,1943.47 2060.05,1915.73C2024.4,1888.16 2004.03,1872.4 2004.03,1872.4C2004.03,1872.4 2086.89,1933.38 2212.31,2023.31C2337.7,2113.28 2505.96,2231.78 2675.93,2347.86C2745.14,2395.2 2814.61,2442.12 2881.4,2486.81C2802.62,2427.77 2715.79,2363.12 2628.66,2298.85C2484.06,2192.11 2338.69,2086.49 2229.32,2007.78C2119.76,1929.34 2046.73,1877.05 2046.73,1877.05C2046.73,1877.05 2120.84,1927.73 2232,2003.75C2343.35,2079.5 2492.28,2179.82 2641.97,2279.02C2768.46,2362.92 2895.68,2445.95 3000.29,2513.79C3000.29,2513.79 3000.58,3000.29 3000.29,3000.29C3000.58,3000.29 2642.09,3000.29 2642.09,3000.29C2642.09,3000.29 2494.39,2776.79 2407.68,2658.5C2288.31,2495.39 2166.66,2334.09 2074.4,2213.96C1982.18,2093.8 1919.74,2014.48 1919.74,2014.48C1919.74,2014.48 1983.92,2092.47 2081.63,2208.26C2169.49,2312.44 2284.47,2446.57 2403.92,2582.49ZM2656.52,2247.12C2560.84,2179.74 2469.93,2117.08 2395.13,2066.39C2283.46,1990.65 2208.32,1941.3 2208.32,1941.3C2208.32,1941.3 2285.3,1987.51 2401.84,2055.11C2512.91,2119.6 2660.2,2203.08 2810.56,2285.1C2789.37,2271.16 2769.29,2258.02 2750.71,2245.91C2674.56,2196.67 2623.8,2163.84 2623.8,2163.84C2623.8,2163.84 2676.81,2192.72 2756.32,2236.05C2823.6,2272.4 2910.41,2318.48 3000.29,2365.38L3000.29,2511.89C2950.39,2475.26 2896.02,2435.84 2841.72,2396.67C2742.8,2325.24 2643.3,2254.7 2568.4,2202.21C2493.36,2149.94 2443.34,2115.09 2443.34,2115.09C2443.34,2115.09 2495.05,2147.26 2572.61,2195.51C2598.07,2211.24 2626.34,2228.64 2656.52,2247.12ZM3000.29,2177.61L3000.29,2230.37C3000.29,2230.37 2858.94,2151.97 2786.08,2115.32C2635.85,2039.68 2485.07,1965.22 2371.75,1909.9C2258.29,1854.87 2182.65,1818.19 2182.65,1818.19C2182.65,1818.19 2259.17,1852.98 2373.95,1905.17C2488.85,1957.09 2642.4,2025.58 2796.46,2092.91C2865.38,2123.05 2934.65,2149.37 3000.29,2177.61ZM2954.83,1959.99C2909.36,1944.55 2863.01,1928.9 2816.63,1913.35C2646.76,1856.3 2476.5,1800.56 2348.62,1759.34C2220.65,1718.44 2135.33,1691.18 2135.33,1691.18C2135.33,1691.18 2221.18,1716.58 2349.96,1754.68C2478.82,1792.47 2650.89,1842.06 2823.33,1890.35C2882.78,1907.02 2942.53,1923.53 3000.29,1939.44L3000.29,1989.44L2704.17,1884.18C2704.17,1884.18 2810.54,1916.76 2954.83,1959.99ZM1012.8,3000.29L746.327,3000.29L870.156,2797.01C870.156,2797.01 839.053,2864.53 795.266,2961.08C841.623,2872.93 885.132,2788.86 919.726,2721.18C966.419,2629.1 997.548,2567.71 997.548,2567.71C997.548,2567.71 978.376,2611.58 948.024,2681.04C1002.63,2568.96 1054.09,2462 1094.97,2376.22C1149.34,2261.4 1185.6,2184.85 1185.6,2184.85C1185.6,2184.85 1151.21,2262.29 1099.64,2378.45C1071.12,2443.12 1037.53,2519.87 1001.88,2602.09C1064.29,2472.53 1122.24,2349.6 1168.79,2249.19C1237.23,2101.68 1281.66,2002.8 1281.66,2002.8C1281.66,2002.8 1239.27,2101.23 1177.32,2249.94C1231.12,2132.09 1264.76,2055.85 1264.76,2055.85C1264.76,2055.85 1224.61,2152.86 1166.52,2299.31C1124.76,2404.5 1074.08,2535.27 1022.13,2673.79C1061.19,2585.53 1086.06,2527.91 1086.06,2527.91C1086.06,2527.91 1060.22,2596.64 1022.52,2700.18C1013.73,2724.31 1004.31,2750.34 994.423,2777.83C1037.92,2675.43 1068.09,2602.98 1068.09,2602.98C1068.09,2602.98 1062.19,2618.83 1052.05,2646.28C1076.17,2590.23 1098.48,2537.68 1118.1,2490.83C1170.62,2365.6 1204.38,2281.62 1204.38,2281.62C1204.38,2281.62 1189.65,2322.94 1165.96,2391.44C1170.52,2380 1174.96,2368.81 1179.29,2357.9C1235.33,2216.71 1271.53,2122.15 1271.53,2122.15C1271.53,2122.15 1237.34,2217.57 1187.8,2361.35C1138.17,2505.22 1073.85,2697.13 1012.16,2890.24C1009.86,2897.43 1007.56,2904.61 1005.27,2911.8C1067.72,2745.95 1117.89,2608.4 1117.89,2608.4C1117.89,2608.4 1096.13,2675.05 1065.09,2772.11C1103.72,2665.34 1139.95,2563.8 1168.84,2481.98C1208.33,2369.34 1234.66,2294.25 1234.66,2294.25C1234.66,2294.25 1210.28,2370.04 1173.72,2483.73C1137.4,2597.5 1089.61,2749.42 1042.86,2901.69C1032.75,2934.58 1022.7,2967.75 1012.8,3000.29ZM0,1643L0,1571.67C0,1571.67 326.866,1577.64 450.841,1572.23C585.143,1566.42 674.575,1561.2 674.575,1561.2C674.575,1561.2 585.494,1570.05 452.029,1585.34C327.774,1599.53 0,1643 0,1643ZM0,1794.54L0,1750.78L251.022,1729.1L0,1794.54ZM506.263,142.14C640.069,330.654 758.925,494.955 758.925,494.955C758.925,494.955 380.143,20.035 364.513,0L580.015,0L993.291,711.743C993.291,711.743 952.489,650.811 891.285,559.413C837.145,478.956 766.685,375.125 693.707,268.923C771.147,397.086 847.567,519.825 908.3,615.393C980.972,729.841 1030.52,805.371 1030.52,805.371C1030.52,805.371 978.05,731.979 897.71,623.042C829.998,531.16 742.141,414.235 649.611,294.496C713.846,389.196 776.208,480.068 825.41,551.182C885.39,637.446 925.376,694.955 925.376,694.955C925.376,694.955 883.485,638.825 820.649,554.63C757.617,470.58 673.076,358.879 587.725,247.787C560.408,212.202 533.015,176.691 506.263,142.14ZM0,476.361L0,0L363.909,0C436.526,102.629 513.203,219.482 598.253,335.503C717.629,498.615 839.273,659.917 931.532,780.048C1023.76,900.209 1086.19,979.526 1086.19,979.526C1086.19,979.526 1022.01,901.541 924.3,785.743C836.497,681.624 721.594,547.591 602.221,411.749C720.556,562.867 838.822,709.97 929.986,821.464C979.192,881.248 1020.2,931.069 1048.9,965.944C1077.79,1000.69 1094.3,1020.54 1094.3,1020.54C1094.3,1020.54 1026.48,942.826 923.323,827.504C820.2,712.152 681.344,559.538 540.292,408.911C465.436,328.85 389.971,249.358 319.429,175.842C336.381,196.416 353.522,217.135 370.716,237.823C464.329,350.608 559.262,462.184 631.059,545.305C702.836,628.445 751.243,683.346 751.243,683.346C751.243,683.346 700.303,630.898 623.063,553.016C551.663,480.986 457.581,387.402 360.777,293.184C370.124,303.734 379.511,314.311 388.909,324.878C470.16,416.323 552.179,507.024 614.042,574.704C676.088,642.203 717.452,687.203 717.452,687.203C717.452,687.203 673.871,644.451 608.499,580.324C542.943,516.378 455.073,431.577 366.449,347.539C334.701,317.406 302.857,287.37 271.964,258.373C321.48,310.678 374.876,366.786 428.473,422.686C529.803,528.452 631.856,633.477 708.724,711.903C785.765,790.151 837.126,842.315 837.126,842.315C837.126,842.315 784.236,791.79 704.901,716.003C627.4,642.303 524.302,545.09 419.897,447.979C449.699,478.184 467.669,496.289 467.669,496.289C467.669,496.289 367.347,403.183 243.894,290.738C312.756,359.569 389.805,436.084 467.216,512.209C587.507,630.599 708.671,748.043 799.94,835.69C891.417,923.108 952.402,981.386 952.402,981.386C952.402,981.386 890.009,924.638 796.419,839.515C702.621,754.621 577.027,642.008 450.574,530.355C324.167,418.649 196.903,307.905 101.068,225.288L97.382,222.127C125.269,249.347 155.131,278.375 185.093,307.295C303.083,421.496 422.577,533.988 422.577,533.988C422.577,533.988 387.523,504.357 335.734,461.019C413.075,534.456 490.411,606.762 560.002,671.144C564.133,674.841 566.313,676.789 566.313,676.789C566.313,676.789 565.417,676.025 563.683,674.548C599.31,707.495 632.856,738.318 663.269,766.093C758.668,853.266 822.876,910.66 822.876,910.66C822.876,910.66 756.855,855.515 656.909,773.881C640.464,760.441 623.092,746.293 604.942,731.559C639.444,762.632 659.913,780.858 659.913,780.858C659.913,780.858 603.104,734.998 517.159,667.094C495.876,650.27 472.794,632.108 448.34,612.962C534.842,691.067 617.155,763.91 685.036,823.05C786.878,911.845 855.607,969.99 855.607,969.99C855.607,969.99 784.678,914.735 677.034,833.433C569.421,752.092 424.746,645.143 278.169,540.701C274.499,538.081 270.828,535.462 267.157,532.846C284.536,547.312 302.027,561.83 319.58,576.355C334.419,588.319 342.776,595.037 342.776,595.037C342.776,595.037 340.648,593.447 336.626,590.447C343.714,596.301 350.81,602.153 357.909,608.001C516.818,739.107 677.518,867.854 798.844,963.32C859.692,1010.88 910.399,1050.51 945.893,1078.26C981.542,1105.83 1001.91,1121.59 1001.91,1121.59C1001.91,1121.59 919.052,1060.61 793.634,970.678C668.244,880.709 499.985,762.209 330.007,646.129C260.719,598.732 191.172,551.758 124.31,507.025C203.153,566.107 290.066,630.822 377.273,695.143C521.869,801.882 667.235,907.509 776.608,986.218C886.165,1064.66 959.203,1116.95 959.203,1116.95C959.203,1116.95 885.093,1066.27 773.929,990.249C662.58,914.498 513.648,814.177 363.961,714.979C235.085,629.497 105.713,544.892 0,476.361ZM0,625.53L0,477.754C51.525,515.593 107.76,556.595 164.218,597.326C263.134,668.76 362.64,739.297 437.535,791.787C512.57,844.06 562.595,878.908 562.595,878.908C562.595,878.908 510.888,846.741 433.328,798.49C407.846,782.737 379.54,765.321 349.316,746.82C445.039,814.225 535.987,876.905 610.807,927.613C722.473,1003.35 797.619,1052.7 797.619,1052.7C797.619,1052.7 720.632,1006.49 604.099,938.895C493.014,874.407 195.352,708.893 195.352,708.893L382.137,830.167L0,625.53ZM0,810.251L0,762.39C0,762.39 520.86,1028.78 634.189,1084.09C747.646,1139.12 823.284,1175.81 823.284,1175.81C823.284,1175.81 746.766,1141.01 631.988,1088.82C517.08,1036.91 0,810.251 0,810.251ZM0,1055.32L0,877.808L410.126,1056.89L245.687,994.929C245.687,994.929 394.854,1059.37 456.345,1085.34C573.282,1134.77 651.598,1166.77 651.598,1166.77C651.598,1166.77 572.085,1137.76 452.279,1095.66C441.735,1091.95 430.878,1088.14 419.735,1084.25C514.163,1122.84 602.562,1158.32 677.912,1188.11C749.616,1216.19 809.369,1239.59 851.196,1255.96C893.123,1272.13 917.082,1281.37 917.082,1281.37C917.082,1281.37 820.503,1246.78 674.985,1196.67C585.627,1165.87 477.743,1129.41 362.487,1091.42C389.295,1101.51 404.773,1107.29 404.773,1107.29C404.773,1107.29 338.947,1085.28 243.068,1053.88C348.552,1092.96 448.855,1129.62 529.688,1158.85C640.989,1198.82 715.19,1225.47 715.19,1225.47C715.19,1225.47 640.298,1200.8 527.961,1163.79C496.224,1153.41 461.484,1142.11 424.581,1130.17C536.151,1170.94 640.912,1208.4 728.848,1239.28C880.962,1292.75 982.773,1327.13 982.773,1327.13C982.773,1327.13 880.5,1294.39 726.478,1247.16C624.202,1215.77 499.028,1178.22 365.899,1139.47C473.116,1174.92 574.175,1207.86 657.316,1234.65C785.287,1275.55 870.602,1302.82 870.602,1302.82C870.602,1302.82 784.752,1277.42 655.978,1239.32C527.11,1201.53 0,1055.32 0,1055.32ZM1839.99,602.552C1835.42,613.994 1830.98,625.18 1826.65,636.089C1770.61,777.275 1734.41,871.836 1734.41,871.836C1734.41,871.836 1768.6,776.421 1818.15,632.639C1867.77,488.772 1932.1,296.861 1993.78,103.743C1996.07,96.576 1998.36,89.408 2000.65,82.242C1938.21,248.07 1888.04,385.598 1888.04,385.598C1888.04,385.598 1909.8,318.964 1940.83,221.914C1902.21,328.678 1865.98,430.201 1837.09,512.015C1797.6,624.655 1771.27,699.747 1771.27,699.747C1771.27,699.747 1795.65,623.955 1832.22,510.267C1868.54,396.493 1973.06,30.576 1982.37,0L2249.33,0C2190.55,113.119 2135.78,196.981 2135.78,196.981C2135.78,196.981 2166.86,129.502 2210.63,33.011C2164.28,121.127 2120.79,205.172 2086.21,272.821C2039.51,364.908 2008.39,426.299 2008.39,426.299C2008.39,426.299 2027.55,382.446 2057.89,313.017C2003.28,425.074 1951.83,532.017 1910.97,617.772C1856.59,732.594 1820.34,809.142 1820.34,809.142C1820.34,809.142 1854.72,731.703 1906.29,615.545C1956.87,500.888 2023.37,348.224 2088.99,194.512C1999.08,377.375 1912.84,560.364 1849.15,699.236C1783.51,842.213 1741.18,938.152 1741.18,938.152C1741.18,938.152 1781.32,841.145 1839.41,694.692C1881.17,589.518 1931.85,458.752 1983.79,320.249C1944.74,408.485 1919.88,466.085 1919.88,466.085C1919.88,466.085 1945.72,397.348 1983.42,293.809C1992.23,269.637 2001.67,243.56 2011.57,216.015C1968.04,318.499 1937.84,391.02 1937.84,391.02C1937.84,391.02 1943.73,375.207 1953.85,347.819C1929.74,403.828 1907.45,456.341 1887.84,503.162C1835.32,628.394 1801.56,712.364 1801.56,712.364C1801.56,712.364 1816.29,671.047 1839.99,602.552ZM3000.29,1345.87L3000.29,1414.09C2837.44,1417.05 2331.36,1432.81 2331.36,1432.81C2331.36,1432.81 2837.24,1368.74 3000.29,1345.87ZM3000.29,1206.71L3000.29,1244.12L2754.91,1264.9C2754.91,1264.9 2863.51,1236.44 3000.29,1206.71ZM2183.96,2738.64C2144.62,2663.41 2107.35,2592.82 2076.45,2534.73C2027.92,2443.97 1995.57,2383.46 1995.57,2383.46C1995.57,2383.46 2029.97,2442.76 2081.58,2531.71C2129.32,2613.55 2192.14,2720.25 2256.8,2828.54C2167.96,2665.57 2098.33,2539.94 2098.33,2539.94C2098.33,2539.94 2142.91,2616.25 2207.85,2726.19C2145.77,2614.62 2102.42,2537.62 2102.42,2537.62C2102.42,2537.62 2142.64,2605.43 2202.43,2705.21C2177.78,2659.01 2162.73,2630.8 2162.73,2630.8C2162.73,2630.8 2195.21,2682.1 2243.92,2759.06C2253.6,2774.23 2263.94,2790.38 2274.83,2807.32C2254.55,2770.48 2241.8,2747.51 2241.8,2747.51L2426.06,3000.29L2283.59,3000.29C2194.38,2815.31 2103.09,2632.91 2103.09,2632.91C2103.09,2632.91 2197.66,2803.13 2297.61,2976.93C2211.95,2810.1 2140.69,2673.86 2140.69,2673.86C2140.69,2673.86 2184.14,2751.75 2245.74,2860.91C2187.43,2749.87 2145.55,2671.07 2145.55,2671.07C2145.55,2671.07 2159.95,2696.5 2183.96,2738.64ZM0,1245.36L0,1113.48C0,1113.48 498.325,1252.15 647.165,1290.89C721.688,1310.02 783.789,1325.97 827.261,1337.13C870.807,1348.07 895.69,1354.33 895.69,1354.33C895.69,1354.33 795.698,1331.75 645.278,1299.74C605.322,1291.22 561.799,1282.08 515.645,1272.53C533.206,1276.73 550.148,1280.77 566.376,1284.63C688.927,1313.44 770.627,1332.65 770.627,1332.65C770.627,1332.65 688.473,1315.48 565.241,1289.73C452.093,1266.37 153.227,1207.11 153.227,1207.11C153.227,1207.11 342.017,1252.99 418.19,1270.8C543.417,1300.12 627.087,1318.73 627.087,1318.73C627.087,1318.73 542.911,1302.97 416.368,1280.74C362.682,1271.29 301.352,1260.75 235.592,1249.74C288.473,1261.29 337.867,1271.92 381.223,1281.14C484.637,1302.8 553.58,1317.25 553.58,1317.25C553.58,1317.25 517.164,1311.15 457.513,1301.17C491.623,1308.1 523.91,1314.62 553.784,1320.61C676.688,1344.93 758.624,1361.14 758.624,1361.14C758.624,1361.14 676.301,1346.99 552.815,1325.77C429.275,1304.85 0,1245.36 0,1245.36ZM0,1938.93L0,1795.29C0,1795.29 460.023,1714.06 586.058,1688.95C712.031,1663.53 796.013,1646.59 796.013,1646.59C796.013,1646.59 712.429,1665.41 587.051,1693.65C461.735,1722.18 38.528,1819.78 0,1829.14C26.796,1824.28 234.825,1787.23 234.825,1787.23L193.692,1798.3C193.692,1798.3 535.425,1728.91 665.752,1700.17C695.997,1693.51 724.224,1687.23 750.041,1681.44C820.268,1665.44 862.187,1655.57 862.187,1655.57C862.187,1655.57 857.446,1656.8 848.492,1659.14C893.42,1648.84 919.08,1642.78 919.08,1642.78C919.08,1642.78 818.452,1669.06 668.06,1710.76C547.164,1744.24 394.285,1788.08 235.607,1835.82C302.279,1820.12 364.415,1805.16 418.546,1791.88C541.712,1761.7 623.557,1740.6 623.557,1740.6C623.557,1740.6 583.139,1752.68 516.714,1773.09C573.908,1757.99 608.59,1748.83 608.59,1748.83C608.59,1748.83 538.808,1769.58 434.136,1800.71C387.139,1814.8 333.138,1831.13 275.306,1848.78C225.815,1864.62 173.395,1881.6 119.676,1899.23C124.493,1897.94 127.039,1897.26 127.039,1897.26C127.039,1897.26 115.707,1900.81 95.675,1907.13C64.036,1917.56 32.035,1928.19 0,1938.93ZM731.032,186.546C751.352,223.46 764.128,246.483 764.128,246.483L579.56,0L732.394,0L902.85,361.086C902.85,361.086 808.261,190.848 708.307,17.027C793.979,183.873 865.245,320.131 865.245,320.131C865.245,320.131 821.792,242.231 760.179,133.058C818.498,244.116 860.381,322.921 860.381,322.921C860.381,322.921 845.988,297.515 821.997,255.405C861.333,330.612 898.592,401.186 929.48,459.267C978.014,550.028 1010.37,610.535 1010.37,610.535C1010.37,610.535 975.963,551.235 924.353,462.284C876.599,380.41 813.737,273.633 749.033,165.287C837.925,328.342 907.598,454.057 907.598,454.057C907.598,454.057 863.046,377.79 798.136,267.905C860.192,379.417 903.511,456.375 903.511,456.375C903.511,456.375 863.329,388.624 803.579,288.903C828.187,335.028 843.212,363.192 843.212,363.192C843.212,363.192 810.735,311.888 762.019,234.933C752.317,219.725 741.947,203.529 731.032,186.546ZM3000.29,1744.14L3000.29,1879.41C2968.11,1870.1 2935.43,1860.79 2902.99,1851.57C2705.66,1795.27 2507.61,1741.85 2358.77,1703.12C2284.25,1683.98 2222.14,1668.04 2178.67,1656.87C2135.13,1645.93 2110.24,1639.68 2110.24,1639.68C2110.24,1639.68 2210.24,1662.26 2360.66,1694.27C2400.65,1702.79 2444.21,1711.94 2490.41,1721.51C2472.81,1717.29 2455.83,1713.24 2439.56,1709.37C2317.01,1680.55 2235.31,1661.34 2235.31,1661.34C2235.31,1661.34 2317.46,1678.51 2440.69,1704.27C2553.81,1727.62 2701.66,1757.46 2852.58,1786.87C2755.31,1762.89 2663.88,1741 2587.74,1723.2C2462.52,1693.89 2378.85,1675.28 2378.85,1675.28C2378.85,1675.28 2463.02,1691.03 2589.57,1713.27C2643.32,1722.73 2704.73,1733.29 2770.58,1744.31C2717.61,1732.74 2668.13,1722.09 2624.71,1712.86C2521.29,1691.19 2452.35,1676.75 2452.35,1676.75C2452.35,1676.75 2488.75,1682.84 2548.37,1692.82C2514.28,1685.88 2482.01,1679.37 2452.15,1673.38C2329.25,1649.07 2247.31,1632.85 2247.31,1632.85C2247.31,1632.85 2329.63,1647 2453.12,1668.23C2576.66,1689.15 2969.34,1739.37 3000.29,1744.14ZM2157.41,1334.86C2112.51,1345.15 2086.86,1351.21 2086.86,1351.21C2086.86,1351.21 2187.49,1324.93 2337.88,1283.23C2458.76,1249.76 2611.62,1205.92 2770.28,1158.19C2703.63,1173.89 2641.51,1188.84 2587.4,1202.11C2464.23,1232.29 2382.39,1253.39 2382.39,1253.39C2382.39,1253.39 2422.81,1241.31 2489.24,1220.9C2432.03,1236 2397.34,1245.16 2397.34,1245.16C2397.34,1245.16 2467.12,1224.41 2571.79,1193.29C2618.71,1179.22 2672.6,1162.93 2730.32,1145.32C2779.91,1129.44 2832.46,1112.42 2886.3,1094.75C2881.45,1096.04 2878.89,1096.73 2878.89,1096.73C2878.89,1096.73 2890.28,1093.16 2910.41,1086.81C2940.05,1077.04 2970.29,1067.1 3000.29,1057.05L3000.29,1205.77C2961.48,1212.91 2545.91,1279.93 2419.88,1305.05C2293.9,1330.46 2209.92,1347.41 2209.92,1347.41C2209.92,1347.41 2293.51,1328.58 2418.88,1300.35C2544.2,1271.82 2711.13,1233.03 2877.8,1193.02C2916.84,1183.67 2961.81,1174.25 3000.29,1164.9C2973.56,1169.75 2942.33,1174.39 2919.14,1178.7C2830.32,1195.55 2771.11,1206.78 2771.11,1206.78C2771.11,1206.78 2786.18,1202.72 2812.48,1195.64C2638.58,1229.7 2470.57,1265.06 2340.19,1293.82C2309.89,1300.49 2281.62,1306.78 2255.77,1312.58C2185.62,1328.56 2143.75,1338.42 2143.75,1338.42C2143.75,1338.42 2148.48,1337.2 2157.41,1334.86ZM3000.29,617.961L3000.29,889.343C2947.22,909.062 2456.02,1092.79 2313.39,1150.69C2242.12,1179.89 2182.73,1204.23 2141.16,1221.26C2099.66,1238.51 2075.94,1248.37 2075.94,1248.37C2075.94,1248.37 2169.75,1206.7 2309.73,1142.43C2424.64,1089.71 2570.49,1021.46 2721.24,948.902C2587.16,1006.83 2457.57,1063.7 2356.91,1108.35C2239.38,1160.81 2161.03,1195.79 2161.03,1195.79C2161.03,1195.79 2238.59,1159.06 2354.93,1103.98C2471.15,1048.62 2625.8,974.112 2779.92,898.471C2829.91,873.965 2879.82,849.348 2928.38,825.283C2860.85,853.734 2816.32,872.904 2816.32,872.904C2816.32,872.904 2839.64,860.554 2877.88,840.295C2859.88,848.213 2841.86,856.173 2823.84,864.16C2640.07,945.459 2457.52,1029.4 2321.2,1093.56C2184.86,1157.67 2094.51,1201.54 2094.51,1201.54C2094.51,1201.54 2183.97,1155.65 2317.33,1085.15C2445.78,1017.3 2614.23,926.446 2783.21,832.307C2677.86,882.697 2578.54,931.254 2498.38,971.091C2384.61,1027.59 2309.24,1066.15 2309.24,1066.15C2309.24,1066.15 2383.18,1024.71 2493.39,961.2C2535.94,936.695 2583.86,908.85 2634.99,878.843C2572.51,910.872 2533.45,930.899 2533.45,930.899C2533.45,930.899 2592.4,896.212 2680.83,844.184C2726.57,817.066 2780.1,785.058 2837.28,750.522C2724.08,810.617 2612.85,870.601 2528.37,916.615C2438.69,965.732 2378.9,998.477 2378.9,998.477C2378.9,998.477 2437.49,963.657 2525.39,911.426C2613.17,858.99 2729.92,788.553 2846.18,717.264C2893.23,688.444 2940.17,659.495 2985.16,631.622C2965.61,642.356 2954.23,648.632 2954.23,648.632C2954.23,648.632 2971.85,635.567 3000.29,617.961ZM0,1484.27L0,1459.9L177.104,1466.63L100.11,1466.14C100.11,1466.14 263.148,1472.7 328.289,1474.99C430.208,1478.33 498.155,1480.56 498.155,1480.56C498.155,1480.56 430.204,1480.73 328.278,1480.99C237.733,1481.43 0,1484.27 0,1484.27ZM2905.69,1527.86C2821.72,1524.32 2742.75,1521.3 2677.64,1519.01C2575.72,1515.66 2507.78,1513.43 2507.78,1513.43L3000.29,1502.66L3000.29,1533.86C2898.33,1529.81 2828.83,1527.36 2828.83,1527.36C2828.83,1527.36 2857.72,1527.59 2905.69,1527.86ZM0,1420.23L331.305,1452.03L0,1458.66L0,1420.23ZM3000.29,1534.75L3000.29,1570.9C2943.73,1566.5 2674.64,1541.96 2674.64,1541.96C2674.64,1541.96 2943.87,1534.85 3000.29,1534.75ZM3000.29,2352.43L3000.29,2365.97L2958.62,2337.61L3000.29,2352.43ZM1319.42,3000.29L1309.19,3000.29L1318.27,2965.74L1319.42,3000.29ZM0,2376.82L55.619,2352.33L0,2390.21L0,2376.82ZM0,625.574L72.947,678.441L0,648.474L0,625.574ZM3000.29,606.915L3000.29,617.503C2969.47,634.671 2950.31,641.664 2950.31,641.664C2950.31,641.664 2969.53,626.25 3000.29,606.915ZM1735.19,3000.29L1704.61,3000.29L1678.42,2674.01C1678.42,2674.01 1703.36,2823.08 1735.19,3000.29ZM0,1714.69L339.943,1674.56L0,1750.8L0,1714.69ZM1266.46,0L1294.27,0C1314.8,175.048 1327.51,319.988 1327.51,319.988C1327.51,319.988 1297.77,174.552 1266.46,0ZM3000.29,1244.89L3000.29,1277.63C2819.44,1299.23 2665.99,1319.43 2665.99,1319.43L3000.29,1244.89ZM3000.29,2115.53L3000.29,2140.68L2927.46,2098.89L3000.29,2115.53ZM0,862.645L31.964,883.183L0,877.959L0,862.645Z" style="fill:rgb(236,0,140);"/>
    </g>
</svg>
