<?xml version="1.0" encoding="utf-8"?>
<!-- Generator: Adobe Illustrator 15.0.0, SVG Export Plug-In . SVG Version: 6.00 Build 0)  -->
<!DOCTYPE svg PUBLIC "-//W3C//DTD SVG 1.1//EN" "http://www.w3.org/Graphics/SVG/1.1/DTD/svg11.dtd">
<svg version="1.1" id="Layer_1" xmlns="http://www.w3.org/2000/svg" xmlns:xlink="http://www.w3.org/1999/xlink" x="0px" y="0px"
	 width="1400px" height="305px" viewBox="0 0 1400 305" enable-background="new 0 0 1400 305" xml:space="preserve">
<g>
	<path fill="#FFFFFF" d="M1,7.376c26.378-6.367,59.123-1.365,78.223-2.274c9.095,3.639,41.84,24.104,44.114,38.657
		c1.819,79.586,0,124.609,3.639,189.643c0,7.277-4.093,14.554-11.37,22.739c-14.553,15.917-18.19,26.379-36.382,40.932
		c-15.008,11.823-58.212,5.912-70.946,0.909C11.46,200.203,6.913,106.064,1,7.376z M73.31,228.854
		c9.096-41.384,5.458-100.505-1.819-141.436c-6.367,0-15.008-0.91-21.375,2.728c2.728,35.473,5.912,92.775,6.822,135.07
		L73.31,228.854z"/>
	<path fill="#FFFFFF" d="M144.715,137.898c0-48.662,0.455-90.958,15.008-133.252c25.923-2.728,56.848-6.822,83.226-2.728
		c18.191,42.293,16.827,100.052,15.917,145.53c-0.909,50.48-2.729,95.959-8.186,146.896c-24.559,9.095-56.848,9.095-87.318,4.092
		C147.898,250.229,144.715,209.298,144.715,137.898z M193.832,225.216c9.55-0.908,14.099,1.363,22.284-3.185
		c-2.728-49.569,0.455-105.054-5.458-152.351c-4.092,1.818-19.556,0.456-25.922,2.729
		C185.646,108.792,186.101,172.007,193.832,225.216z"/>
	<path fill="#FFFFFF" d="M349.363,302.529c-11.823-43.203-17.736-70.491-27.741-108.694c-0.91,26.833,1.819,79.588,1.819,105.966
		c-19.101,0.909-29.105-0.91-40.931-0.91c2.274-83.68-1.818-266.501-2.728-291.969c13.644,0,26.832-1.82,40.93-2.729
		c9.551,21.375,22.739,91.865,28.651,104.6c2.729-25.013-2.273-75.949-2.273-101.871c13.644-1.365,26.833-2.729,32.744-2.729
		c8.642,0,12.734,1.818,12.734,7.276c-5.002,97.778,2.729,201.014,0.91,291.061C379.379,298.891,363.007,302.529,349.363,302.529z"
		/>
	<path fill="#FFFFFF" d="M474.883,76.958c-10.915,8.641-20.464,15.007-30.47,21.375l-19.555-0.912L438.5,71.046l-24.103-3.64
		c2.729-26.831-2.273-45.932,0.909-60.03c0.91-3.184,49.117,0.455,57.303-2.274C476.249,23.747,476.703,51.49,474.883,76.958z"/>
	<path fill="#FFFFFF" d="M567.656,73.318c-5.003,69.583-2.275,155.991-2.275,228.757c-19.1-1.821-37.746-3.185-55.027,1.363
		c0-81.407,1.818-166.45-8.187-247.855l-18.19-1.821c-0.909-5.457,0-36.836-2.273-47.296c39.565-1.364,73.672,2.729,116.877,0
		c0,0-1.819,46.387-1.819,66.853C588.121,73.318,576.297,72.864,567.656,73.318z"/>
	<path fill="#FFFFFF" d="M704.092,301.619c-0.912-97.778-3.184-206.926-5.003-300.61c26.832,2.273,55.484,0,83.679,0.91
		c14.099,0,18.646,8.641,20.92,18.646c12.279,51.845,9.551,112.785,3.639,167.36c-10.46,5.911-34.563,10.914-46.388,10.46
		c-4.094,30.47-3.185,58.212-3.638,100.507C742.747,302.075,719.554,301.164,704.092,301.619z M755.482,56.037l-13.644,2.729
		c1.363,25.014,3.182,71.401,4.547,102.325l17.736-1.817c0.454-27.288,0-64.125-2.274-95.049
		C760.029,58.766,757.754,55.583,755.482,56.037z"/>
	<path fill="#FFFFFF" d="M962.865,301.619c-16.372,3.185-48.206,1.819-63.214,0c-2.729-34.109-3.184-59.121-6.822-86.408h-15.007
		c-6.822,40.93-6.822,63.215-10.46,88.228c-16.372,0.454-40.021,1.365-52.755,0c10.459-99.144,16.371-197.83,31.38-296.973
		c23.193,0.456,49.116,0.456,73.675-2.729C935.125,96.058,944.219,189.741,962.865,301.619z M898.741,146.539
		c-3.182-26.378-6.822-48.662-10.46-81.406c-6.821,36.381-8.185,57.756-11.368,83.225L898.741,146.539z"/>
	<path fill="#FFFFFF" d="M1045.635,302.529c-11.825-43.203-17.737-70.491-27.743-108.694c-0.909,26.833,1.819,79.588,1.819,105.966
		c-19.101,0.909-29.106-0.91-40.929-0.91c2.271-83.68-1.821-266.501-2.73-291.969c13.644,0,26.833-1.82,40.931-2.729
		c9.55,21.375,22.739,91.865,28.652,104.6c2.729-25.013-2.275-75.949-2.275-101.871c13.644-1.365,26.832-2.729,32.744-2.729
		c8.641,0,12.733,1.818,12.733,7.276c-5.002,97.778,2.729,201.014,0.91,291.061C1075.65,298.891,1059.278,302.529,1045.635,302.529z
		"/>
	<path fill="#FFFFFF" d="M1174.337,301.164c-8.641,0.455-40.476,0.911-55.484-0.454c-0.908-44.569,0.91-100.961-1.818-151.896
		c-2.729-48.208-1.818-95.505-1.365-143.257c8.188-3.183,47.299-1.364,59.122-0.91c1.82,48.662-1.363,99.597,0,149.168
		C1176.611,207.025,1174.337,249.773,1174.337,301.164z"/>
	<path fill="#FFFFFF" d="M1196.617,134.714c-1.819-40.931,1.365-94.594,12.279-131.432c20.92,0.455,45.023-0.909,71.401-0.909
		c18.19,0,27.287,5.003,27.287,15.463c3.182,32.745,0.909,65.488,0,98.232c0,2.274-18.646,2.274-43.659,4.549
		c-3.184-20.466-1.365-36.384-5.459-50.027l-9.095,0.456c-5.003,20.009-3.184,43.659-4.093,63.668
		c-0.91,35.471,1.364,63.214,7.731,95.05h11.824c1.363-25.014-0.909-40.932-3.184-70.491c5.912,0.909,8.187,0.452,42.293,0.452
		c5.004,0,7.278,6.37,6.822,19.557c-0.909,36.838-4.547,95.05-7.73,120.063c-20.464,8.64-65.489,4.094-84.135,5.459
		C1201.62,248.864,1200.255,201.114,1196.617,134.714z"/>
	<path fill="#FFFFFF" d="M1399,1.464c-7.277,96.869-9.55,157.354-14.099,225.115c-6.367-0.454-32.289-0.454-35.929-0.908
		c-3.182-58.214-11.369-133.25-15.462-224.662C1354.431,2.828,1382.628,1.464,1399,1.464z M1393.541,246.592
		c0.456,12.734,1.821,32.742,1.365,50.48c-18.19,3.182-39.112,5.003-53.209,3.182c0.91-16.826-0.455-36.836-2.729-50.48
		C1349.429,247.045,1378.079,248.864,1393.541,246.592z"/>
</g>
</svg>
